G04 #@! TF.GenerationSoftware,KiCad,Pcbnew,(5.1.0-998-gf550ecaf1)*
G04 #@! TF.CreationDate,2019-07-13T01:08:01-07:00*
G04 #@! TF.ProjectId,Stylish-Belt-Synth - Full,5374796c-6973-4682-9d42-656c742d5379,rev?*
G04 #@! TF.SameCoordinates,Original*
G04 #@! TF.FileFunction,Legend,Bot*
G04 #@! TF.FilePolarity,Positive*
%FSLAX46Y46*%
G04 Gerber Fmt 4.6, Leading zero omitted, Abs format (unit mm)*
G04 Created by KiCad (PCBNEW (5.1.0-998-gf550ecaf1)) date 2019-07-13 01:08:01*
%MOMM*%
%LPD*%
G04 APERTURE LIST*
%ADD10C,0.200000*%
%ADD11C,0.152400*%
%ADD12C,0.150000*%
%ADD13C,0.120000*%
%ADD14C,0.101600*%
G04 APERTURE END LIST*
D10*
X184324285Y-63332380D02*
X184895714Y-63332380D01*
X184610000Y-63332380D02*
X184610000Y-62332380D01*
X184705238Y-62475238D01*
X184800476Y-62570476D01*
X184895714Y-62618095D01*
D11*
X173707047Y-57412571D02*
X172932952Y-57412571D01*
X173320000Y-57799619D02*
X173320000Y-57025523D01*
D12*
X191516000Y-63500000D02*
X191516000Y-58420000D01*
X191516000Y-58420000D02*
X186944000Y-58420000D01*
X186944000Y-58420000D02*
X186944000Y-63500000D01*
X186944000Y-63500000D02*
X191516000Y-63500000D01*
X189992000Y-63500000D02*
X189992000Y-62992000D01*
X189992000Y-62992000D02*
X188722000Y-62992000D01*
X188722000Y-62992000D02*
X188722000Y-63500000D01*
D13*
X182820000Y-60360000D02*
X182820000Y-61360000D01*
X181120000Y-61360000D02*
X181120000Y-60360000D01*
X96475000Y-73885000D02*
X92755000Y-73885000D01*
X92755000Y-72165000D02*
X96475000Y-72165000D01*
X102050000Y-71730000D02*
X107170000Y-71730000D01*
X102050000Y-69110000D02*
X107170000Y-69110000D01*
X102050000Y-71730000D02*
X102050000Y-71416000D01*
X102050000Y-69424000D02*
X102050000Y-69110000D01*
X107170000Y-71730000D02*
X107170000Y-71416000D01*
X107170000Y-69424000D02*
X107170000Y-69110000D01*
D14*
X88071670Y-60745844D02*
G75*
G03X100396330Y-58126156I6162330J1309844D01*
G01*
X100396330Y-58126156D02*
G75*
G03X88071670Y-60745844I-6162330J-1309844D01*
G01*
X106734000Y-59436000D02*
G75*
G03X106734000Y-59436000I-12500000J0D01*
G01*
D13*
X210882800Y-135110000D02*
X177762800Y-135110000D01*
X210882800Y-75400000D02*
X210882800Y-135110000D01*
X177762800Y-75400000D02*
X210882800Y-75400000D01*
X177762800Y-135110000D02*
X177762800Y-75400000D01*
X204357800Y-95715000D02*
X199277800Y-95715000D01*
X199277800Y-95715000D02*
X199277800Y-113495000D01*
X199277800Y-113495000D02*
X200547800Y-113495000D01*
X200547800Y-113495000D02*
X200547800Y-114765000D01*
X200547800Y-114765000D02*
X203087800Y-114765000D01*
X203087800Y-114765000D02*
X203087800Y-113495000D01*
X203087800Y-113495000D02*
X204357800Y-113495000D01*
X204357800Y-113495000D02*
X204357800Y-95715000D01*
X185557800Y-114765000D02*
X189367800Y-114765000D01*
X189367800Y-114765000D02*
X189367800Y-96985000D01*
X189367800Y-96985000D02*
X188097800Y-96985000D01*
X188097800Y-96985000D02*
X188097800Y-95715000D01*
X188097800Y-95715000D02*
X185557800Y-95715000D01*
X185557800Y-95715000D02*
X185557800Y-96985000D01*
X185557800Y-96985000D02*
X184287800Y-96985000D01*
X184287800Y-96985000D02*
X184287800Y-114765000D01*
X184287800Y-114765000D02*
X185557800Y-114765000D01*
X194068800Y-76670000D02*
X194068800Y-133840000D01*
X194576800Y-133840000D02*
X194576800Y-76670000D01*
X207072800Y-95715000D02*
X209612800Y-95715000D01*
X209612800Y-95715000D02*
X209612800Y-114765000D01*
X209612800Y-114765000D02*
X207072800Y-114765000D01*
X181572800Y-127465000D02*
X181572800Y-114765000D01*
X181572800Y-114765000D02*
X179032800Y-114765000D01*
X179032800Y-114765000D02*
X179032800Y-95715000D01*
X179032800Y-95715000D02*
X181572800Y-95715000D01*
X207072800Y-127465000D02*
X207072800Y-114765000D01*
X181572800Y-83015000D02*
X181572800Y-95715000D01*
X181572800Y-83015000D02*
X179032800Y-83015000D01*
X179032800Y-83015000D02*
X179032800Y-76670000D01*
X179032800Y-76670000D02*
X209612800Y-76670000D01*
X209612800Y-76670000D02*
X209612800Y-83015000D01*
X209612800Y-83015000D02*
X207072800Y-83015000D01*
X207072800Y-83015000D02*
X207072800Y-95715000D01*
X179032800Y-133840000D02*
X179032800Y-127465000D01*
X179032800Y-127465000D02*
X181572800Y-127465000D01*
X179032800Y-133840000D02*
X209612800Y-133840000D01*
X209612800Y-133840000D02*
X209612800Y-127465000D01*
X209612800Y-127465000D02*
X207072800Y-127465000D01*
X118885000Y-135130000D02*
X85765000Y-135130000D01*
X118885000Y-75420000D02*
X118885000Y-135130000D01*
X85765000Y-75420000D02*
X118885000Y-75420000D01*
X85765000Y-135130000D02*
X85765000Y-75420000D01*
X112360000Y-95735000D02*
X107280000Y-95735000D01*
X107280000Y-95735000D02*
X107280000Y-113515000D01*
X107280000Y-113515000D02*
X108550000Y-113515000D01*
X108550000Y-113515000D02*
X108550000Y-114785000D01*
X108550000Y-114785000D02*
X111090000Y-114785000D01*
X111090000Y-114785000D02*
X111090000Y-113515000D01*
X111090000Y-113515000D02*
X112360000Y-113515000D01*
X112360000Y-113515000D02*
X112360000Y-95735000D01*
X93560000Y-114785000D02*
X97370000Y-114785000D01*
X97370000Y-114785000D02*
X97370000Y-97005000D01*
X97370000Y-97005000D02*
X96100000Y-97005000D01*
X96100000Y-97005000D02*
X96100000Y-95735000D01*
X96100000Y-95735000D02*
X93560000Y-95735000D01*
X93560000Y-95735000D02*
X93560000Y-97005000D01*
X93560000Y-97005000D02*
X92290000Y-97005000D01*
X92290000Y-97005000D02*
X92290000Y-114785000D01*
X92290000Y-114785000D02*
X93560000Y-114785000D01*
X102071000Y-76690000D02*
X102071000Y-133860000D01*
X102579000Y-133860000D02*
X102579000Y-76690000D01*
X115075000Y-95735000D02*
X117615000Y-95735000D01*
X117615000Y-95735000D02*
X117615000Y-114785000D01*
X117615000Y-114785000D02*
X115075000Y-114785000D01*
X89575000Y-127485000D02*
X89575000Y-114785000D01*
X89575000Y-114785000D02*
X87035000Y-114785000D01*
X87035000Y-114785000D02*
X87035000Y-95735000D01*
X87035000Y-95735000D02*
X89575000Y-95735000D01*
X115075000Y-127485000D02*
X115075000Y-114785000D01*
X89575000Y-83035000D02*
X89575000Y-95735000D01*
X89575000Y-83035000D02*
X87035000Y-83035000D01*
X87035000Y-83035000D02*
X87035000Y-76690000D01*
X87035000Y-76690000D02*
X117615000Y-76690000D01*
X117615000Y-76690000D02*
X117615000Y-83035000D01*
X117615000Y-83035000D02*
X115075000Y-83035000D01*
X115075000Y-83035000D02*
X115075000Y-95735000D01*
X87035000Y-133860000D02*
X87035000Y-127485000D01*
X87035000Y-127485000D02*
X89575000Y-127485000D01*
X87035000Y-133860000D02*
X117615000Y-133860000D01*
X117615000Y-133860000D02*
X117615000Y-127485000D01*
X117615000Y-127485000D02*
X115075000Y-127485000D01*
X176490000Y-56455000D02*
X176490000Y-61575000D01*
X179110000Y-56455000D02*
X179110000Y-61575000D01*
X176490000Y-56455000D02*
X176804000Y-56455000D01*
X178796000Y-56455000D02*
X179110000Y-56455000D01*
X176490000Y-61575000D02*
X176804000Y-61575000D01*
X178796000Y-61575000D02*
X179110000Y-61575000D01*
X172128811Y-62299998D02*
G75*
G02X172130000Y-58259307I1181189J2019998D01*
G01*
X174491189Y-62299998D02*
G75*
G03X174490000Y-58259307I-1181189J2019998D01*
G01*
X174491189Y-62299998D02*
G75*
G02X172130000Y-62300693I-1181189J2019998D01*
G01*
X173310000Y-56830000D02*
X173310000Y-58030000D01*
X172660000Y-57430000D02*
X173960000Y-57430000D01*
D14*
X195325000Y-135235000D02*
X195325000Y-132735000D01*
X193325000Y-132735000D02*
X193325000Y-135235000D01*
X181325000Y-135235000D02*
X207325000Y-135235000D01*
X207325000Y-132735000D02*
X181325000Y-132735000D01*
X185075000Y-124485000D02*
X189575000Y-124485000D01*
X189575000Y-124485000D02*
X190325000Y-132735000D01*
X185075000Y-124485000D02*
X184325000Y-132735000D01*
X181325000Y-132735000D02*
X181325000Y-135235000D01*
X207325000Y-135235000D02*
X207325000Y-132735000D01*
X103250000Y-135489000D02*
X103250000Y-132989000D01*
X101250000Y-132989000D02*
X101250000Y-135489000D01*
X89250000Y-135489000D02*
X115250000Y-135489000D01*
X115250000Y-132989000D02*
X89250000Y-132989000D01*
X93000000Y-124739000D02*
X97500000Y-124739000D01*
X97500000Y-124739000D02*
X98250000Y-132989000D01*
X93000000Y-124739000D02*
X92250000Y-132989000D01*
X89250000Y-132989000D02*
X89250000Y-135489000D01*
X115250000Y-135489000D02*
X115250000Y-132989000D01*
X193325000Y-76855000D02*
X181325000Y-76855000D01*
X181325000Y-76855000D02*
X181325000Y-79355000D01*
X181325000Y-79355000D02*
X193325000Y-79355000D01*
X193325000Y-79355000D02*
X193325000Y-76855000D01*
D12*
X215035450Y-53543859D02*
X213804178Y-56926753D01*
X209209356Y-51423334D02*
X215035450Y-53543859D01*
X207978084Y-54806228D02*
X209209356Y-51423334D01*
X216153409Y-57781803D02*
X205065037Y-53745965D01*
X214819531Y-61446604D02*
X216153409Y-57781803D01*
X212117571Y-68870176D02*
X213519854Y-65017436D01*
X211194117Y-71407346D02*
X211228318Y-71313376D01*
X200105744Y-67371508D02*
X211194117Y-71407346D01*
X201029199Y-64834337D02*
X200105744Y-67371508D01*
X205065037Y-53745965D02*
X202328875Y-61263506D01*
D14*
X101250000Y-79355000D02*
X101250000Y-76855000D01*
X89250000Y-79355000D02*
X101250000Y-79355000D01*
X89250000Y-76855000D02*
X89250000Y-79355000D01*
X101250000Y-76855000D02*
X89250000Y-76855000D01*
X103220000Y-76855000D02*
X103220000Y-79355000D01*
X115220000Y-76855000D02*
X103220000Y-76855000D01*
X115220000Y-79355000D02*
X115220000Y-76855000D01*
X103220000Y-79355000D02*
X115220000Y-79355000D01*
X111470000Y-87605000D02*
X112220000Y-79355000D01*
X106970000Y-87605000D02*
X106220000Y-79355000D01*
X111470000Y-87605000D02*
X106970000Y-87605000D01*
X203545000Y-87605000D02*
X199045000Y-87605000D01*
X199045000Y-87605000D02*
X198295000Y-79355000D01*
X203545000Y-87605000D02*
X204295000Y-79355000D01*
X195295000Y-79355000D02*
X207295000Y-79355000D01*
X207295000Y-79355000D02*
X207295000Y-76855000D01*
X207295000Y-76855000D02*
X195295000Y-76855000D01*
X195295000Y-76855000D02*
X195295000Y-79355000D01*
D13*
X182638000Y-64344000D02*
X184138000Y-64344000D01*
X183388000Y-63594000D02*
X183388000Y-65094000D01*
X183109000Y-73875000D02*
X183667000Y-73875000D01*
X182716000Y-73835000D02*
X184060000Y-73835000D01*
X182475000Y-73795000D02*
X184301000Y-73795000D01*
X182284000Y-73755000D02*
X184492000Y-73755000D01*
X182123000Y-73715000D02*
X184653000Y-73715000D01*
X181981000Y-73675000D02*
X184795000Y-73675000D01*
X181852000Y-73635000D02*
X184924000Y-73635000D01*
X181734000Y-73595000D02*
X185042000Y-73595000D01*
X181625000Y-73555000D02*
X185151000Y-73555000D01*
X181522000Y-73515000D02*
X185254000Y-73515000D01*
X181426000Y-73475000D02*
X185350000Y-73475000D01*
X181335000Y-73435000D02*
X185441000Y-73435000D01*
X181248000Y-73395000D02*
X185528000Y-73395000D01*
X181166000Y-73355000D02*
X185610000Y-73355000D01*
X181087000Y-73315000D02*
X185689000Y-73315000D01*
X181011000Y-73275000D02*
X185765000Y-73275000D01*
X180939000Y-73235000D02*
X185837000Y-73235000D01*
X180869000Y-73195000D02*
X185907000Y-73195000D01*
X180801000Y-73155000D02*
X185975000Y-73155000D01*
X180736000Y-73115000D02*
X186040000Y-73115000D01*
X180673000Y-73075000D02*
X186103000Y-73075000D01*
X180611000Y-73035000D02*
X186165000Y-73035000D01*
X180552000Y-72995000D02*
X186224000Y-72995000D01*
X180494000Y-72955000D02*
X186282000Y-72955000D01*
X180439000Y-72915000D02*
X186337000Y-72915000D01*
X180384000Y-72875000D02*
X186392000Y-72875000D01*
X180331000Y-72835000D02*
X186445000Y-72835000D01*
X180280000Y-72795000D02*
X186496000Y-72795000D01*
X180230000Y-72755000D02*
X186546000Y-72755000D01*
X180181000Y-72715000D02*
X186595000Y-72715000D01*
X180133000Y-72675000D02*
X186643000Y-72675000D01*
X180086000Y-72635000D02*
X186690000Y-72635000D01*
X180041000Y-72595000D02*
X186735000Y-72595000D01*
X179997000Y-72555000D02*
X186779000Y-72555000D01*
X179953000Y-72515000D02*
X186823000Y-72515000D01*
X179911000Y-72475000D02*
X186865000Y-72475000D01*
X184569000Y-72435000D02*
X186906000Y-72435000D01*
X179870000Y-72435000D02*
X182207000Y-72435000D01*
X184569000Y-72395000D02*
X186947000Y-72395000D01*
X179829000Y-72395000D02*
X182207000Y-72395000D01*
X184569000Y-72355000D02*
X186986000Y-72355000D01*
X179790000Y-72355000D02*
X182207000Y-72355000D01*
X184569000Y-72315000D02*
X187025000Y-72315000D01*
X179751000Y-72315000D02*
X182207000Y-72315000D01*
X184569000Y-72275000D02*
X187063000Y-72275000D01*
X179713000Y-72275000D02*
X182207000Y-72275000D01*
X184569000Y-72235000D02*
X187100000Y-72235000D01*
X179676000Y-72235000D02*
X182207000Y-72235000D01*
X184569000Y-72195000D02*
X187136000Y-72195000D01*
X179640000Y-72195000D02*
X182207000Y-72195000D01*
X184569000Y-72155000D02*
X187172000Y-72155000D01*
X179604000Y-72155000D02*
X182207000Y-72155000D01*
X184569000Y-72115000D02*
X187207000Y-72115000D01*
X179569000Y-72115000D02*
X182207000Y-72115000D01*
X184569000Y-72075000D02*
X187241000Y-72075000D01*
X179535000Y-72075000D02*
X182207000Y-72075000D01*
X184569000Y-72035000D02*
X187274000Y-72035000D01*
X179502000Y-72035000D02*
X182207000Y-72035000D01*
X184569000Y-71995000D02*
X187307000Y-71995000D01*
X179469000Y-71995000D02*
X182207000Y-71995000D01*
X184569000Y-71955000D02*
X187339000Y-71955000D01*
X179437000Y-71955000D02*
X182207000Y-71955000D01*
X184569000Y-71915000D02*
X187370000Y-71915000D01*
X179406000Y-71915000D02*
X182207000Y-71915000D01*
X184569000Y-71875000D02*
X187401000Y-71875000D01*
X179375000Y-71875000D02*
X182207000Y-71875000D01*
X184569000Y-71835000D02*
X187431000Y-71835000D01*
X179345000Y-71835000D02*
X182207000Y-71835000D01*
X184569000Y-71795000D02*
X187460000Y-71795000D01*
X179316000Y-71795000D02*
X182207000Y-71795000D01*
X184569000Y-71755000D02*
X187489000Y-71755000D01*
X179287000Y-71755000D02*
X182207000Y-71755000D01*
X184569000Y-71715000D02*
X187518000Y-71715000D01*
X179258000Y-71715000D02*
X182207000Y-71715000D01*
X184569000Y-71675000D02*
X187545000Y-71675000D01*
X179231000Y-71675000D02*
X182207000Y-71675000D01*
X184569000Y-71635000D02*
X187573000Y-71635000D01*
X179203000Y-71635000D02*
X182207000Y-71635000D01*
X184569000Y-71595000D02*
X187599000Y-71595000D01*
X179177000Y-71595000D02*
X182207000Y-71595000D01*
X184569000Y-71555000D02*
X187625000Y-71555000D01*
X179151000Y-71555000D02*
X182207000Y-71555000D01*
X184569000Y-71515000D02*
X187651000Y-71515000D01*
X179125000Y-71515000D02*
X182207000Y-71515000D01*
X184569000Y-71475000D02*
X187676000Y-71475000D01*
X179100000Y-71475000D02*
X182207000Y-71475000D01*
X184569000Y-71435000D02*
X187700000Y-71435000D01*
X179076000Y-71435000D02*
X182207000Y-71435000D01*
X184569000Y-71395000D02*
X187724000Y-71395000D01*
X179052000Y-71395000D02*
X182207000Y-71395000D01*
X184569000Y-71355000D02*
X187748000Y-71355000D01*
X179028000Y-71355000D02*
X182207000Y-71355000D01*
X184569000Y-71315000D02*
X187771000Y-71315000D01*
X179005000Y-71315000D02*
X182207000Y-71315000D01*
X184569000Y-71275000D02*
X187793000Y-71275000D01*
X178983000Y-71275000D02*
X182207000Y-71275000D01*
X184569000Y-71235000D02*
X187816000Y-71235000D01*
X178960000Y-71235000D02*
X182207000Y-71235000D01*
X184569000Y-71195000D02*
X187837000Y-71195000D01*
X178939000Y-71195000D02*
X182207000Y-71195000D01*
X184569000Y-71155000D02*
X187858000Y-71155000D01*
X178918000Y-71155000D02*
X182207000Y-71155000D01*
X184569000Y-71115000D02*
X187879000Y-71115000D01*
X178897000Y-71115000D02*
X182207000Y-71115000D01*
X184569000Y-71075000D02*
X187899000Y-71075000D01*
X178877000Y-71075000D02*
X182207000Y-71075000D01*
X184569000Y-71035000D02*
X187919000Y-71035000D01*
X178857000Y-71035000D02*
X182207000Y-71035000D01*
X184569000Y-70995000D02*
X187938000Y-70995000D01*
X178838000Y-70995000D02*
X182207000Y-70995000D01*
X184569000Y-70955000D02*
X187957000Y-70955000D01*
X178819000Y-70955000D02*
X182207000Y-70955000D01*
X184569000Y-70915000D02*
X187976000Y-70915000D01*
X178800000Y-70915000D02*
X182207000Y-70915000D01*
X184569000Y-70875000D02*
X187994000Y-70875000D01*
X178782000Y-70875000D02*
X182207000Y-70875000D01*
X184569000Y-70835000D02*
X188012000Y-70835000D01*
X178764000Y-70835000D02*
X182207000Y-70835000D01*
X184569000Y-70795000D02*
X188029000Y-70795000D01*
X178747000Y-70795000D02*
X182207000Y-70795000D01*
X184569000Y-70755000D02*
X188046000Y-70755000D01*
X178730000Y-70755000D02*
X182207000Y-70755000D01*
X184569000Y-70715000D02*
X188062000Y-70715000D01*
X178714000Y-70715000D02*
X182207000Y-70715000D01*
X184569000Y-70675000D02*
X188079000Y-70675000D01*
X178697000Y-70675000D02*
X182207000Y-70675000D01*
X184569000Y-70635000D02*
X188094000Y-70635000D01*
X178682000Y-70635000D02*
X182207000Y-70635000D01*
X184569000Y-70595000D02*
X188110000Y-70595000D01*
X178666000Y-70595000D02*
X182207000Y-70595000D01*
X184569000Y-70555000D02*
X188125000Y-70555000D01*
X178651000Y-70555000D02*
X182207000Y-70555000D01*
X184569000Y-70515000D02*
X188139000Y-70515000D01*
X178637000Y-70515000D02*
X182207000Y-70515000D01*
X184569000Y-70475000D02*
X188153000Y-70475000D01*
X178623000Y-70475000D02*
X182207000Y-70475000D01*
X184569000Y-70435000D02*
X188167000Y-70435000D01*
X178609000Y-70435000D02*
X182207000Y-70435000D01*
X184569000Y-70395000D02*
X188180000Y-70395000D01*
X178596000Y-70395000D02*
X182207000Y-70395000D01*
X184569000Y-70355000D02*
X188194000Y-70355000D01*
X178582000Y-70355000D02*
X182207000Y-70355000D01*
X184569000Y-70315000D02*
X188206000Y-70315000D01*
X178570000Y-70315000D02*
X182207000Y-70315000D01*
X184569000Y-70275000D02*
X188219000Y-70275000D01*
X178557000Y-70275000D02*
X182207000Y-70275000D01*
X184569000Y-70235000D02*
X188231000Y-70235000D01*
X178545000Y-70235000D02*
X182207000Y-70235000D01*
X184569000Y-70195000D02*
X188242000Y-70195000D01*
X178534000Y-70195000D02*
X182207000Y-70195000D01*
X184569000Y-70155000D02*
X188253000Y-70155000D01*
X178523000Y-70155000D02*
X182207000Y-70155000D01*
X184569000Y-70115000D02*
X188264000Y-70115000D01*
X178512000Y-70115000D02*
X182207000Y-70115000D01*
X178501000Y-70075000D02*
X188275000Y-70075000D01*
X178491000Y-70035000D02*
X188285000Y-70035000D01*
X178481000Y-69995000D02*
X188295000Y-69995000D01*
X178471000Y-69955000D02*
X188305000Y-69955000D01*
X178462000Y-69915000D02*
X188314000Y-69915000D01*
X178453000Y-69875000D02*
X188323000Y-69875000D01*
X178445000Y-69835000D02*
X188331000Y-69835000D01*
X178437000Y-69795000D02*
X188339000Y-69795000D01*
X178429000Y-69755000D02*
X188347000Y-69755000D01*
X178421000Y-69715000D02*
X188355000Y-69715000D01*
X178414000Y-69675000D02*
X188362000Y-69675000D01*
X178407000Y-69635000D02*
X188369000Y-69635000D01*
X178401000Y-69595000D02*
X188375000Y-69595000D01*
X178395000Y-69555000D02*
X188381000Y-69555000D01*
X178389000Y-69515000D02*
X188387000Y-69515000D01*
X178383000Y-69474000D02*
X188393000Y-69474000D01*
X178378000Y-69434000D02*
X188398000Y-69434000D01*
X178373000Y-69394000D02*
X188403000Y-69394000D01*
X178368000Y-69354000D02*
X188408000Y-69354000D01*
X178364000Y-69314000D02*
X188412000Y-69314000D01*
X178360000Y-69274000D02*
X188416000Y-69274000D01*
X178357000Y-69234000D02*
X188419000Y-69234000D01*
X178353000Y-69194000D02*
X188423000Y-69194000D01*
X178350000Y-69154000D02*
X188426000Y-69154000D01*
X178348000Y-69114000D02*
X188428000Y-69114000D01*
X178345000Y-69074000D02*
X188431000Y-69074000D01*
X178343000Y-69034000D02*
X188433000Y-69034000D01*
X178341000Y-68994000D02*
X188435000Y-68994000D01*
X178340000Y-68954000D02*
X188436000Y-68954000D01*
X178339000Y-68914000D02*
X188437000Y-68914000D01*
X178338000Y-68874000D02*
X188438000Y-68874000D01*
X178338000Y-68834000D02*
X188438000Y-68834000D01*
X178338000Y-68794000D02*
X188438000Y-68794000D01*
X184771264Y-73692437D02*
G75*
G02X182008000Y-73693357I-1383264J4898437D01*
G01*
X184771264Y-73692437D02*
G75*
G03X184768000Y-63894643I-1383264J4898437D01*
G01*
X182004736Y-73692437D02*
G75*
G02X182008000Y-63894643I1383264J4898437D01*
G01*
X193433000Y-64344000D02*
X194933000Y-64344000D01*
X194183000Y-63594000D02*
X194183000Y-65094000D01*
X193904000Y-73875000D02*
X194462000Y-73875000D01*
X193511000Y-73835000D02*
X194855000Y-73835000D01*
X193270000Y-73795000D02*
X195096000Y-73795000D01*
X193079000Y-73755000D02*
X195287000Y-73755000D01*
X192918000Y-73715000D02*
X195448000Y-73715000D01*
X192776000Y-73675000D02*
X195590000Y-73675000D01*
X192647000Y-73635000D02*
X195719000Y-73635000D01*
X192529000Y-73595000D02*
X195837000Y-73595000D01*
X192420000Y-73555000D02*
X195946000Y-73555000D01*
X192317000Y-73515000D02*
X196049000Y-73515000D01*
X192221000Y-73475000D02*
X196145000Y-73475000D01*
X192130000Y-73435000D02*
X196236000Y-73435000D01*
X192043000Y-73395000D02*
X196323000Y-73395000D01*
X191961000Y-73355000D02*
X196405000Y-73355000D01*
X191882000Y-73315000D02*
X196484000Y-73315000D01*
X191806000Y-73275000D02*
X196560000Y-73275000D01*
X191734000Y-73235000D02*
X196632000Y-73235000D01*
X191664000Y-73195000D02*
X196702000Y-73195000D01*
X191596000Y-73155000D02*
X196770000Y-73155000D01*
X191531000Y-73115000D02*
X196835000Y-73115000D01*
X191468000Y-73075000D02*
X196898000Y-73075000D01*
X191406000Y-73035000D02*
X196960000Y-73035000D01*
X191347000Y-72995000D02*
X197019000Y-72995000D01*
X191289000Y-72955000D02*
X197077000Y-72955000D01*
X191234000Y-72915000D02*
X197132000Y-72915000D01*
X191179000Y-72875000D02*
X197187000Y-72875000D01*
X191126000Y-72835000D02*
X197240000Y-72835000D01*
X191075000Y-72795000D02*
X197291000Y-72795000D01*
X191025000Y-72755000D02*
X197341000Y-72755000D01*
X190976000Y-72715000D02*
X197390000Y-72715000D01*
X190928000Y-72675000D02*
X197438000Y-72675000D01*
X190881000Y-72635000D02*
X197485000Y-72635000D01*
X190836000Y-72595000D02*
X197530000Y-72595000D01*
X190792000Y-72555000D02*
X197574000Y-72555000D01*
X190748000Y-72515000D02*
X197618000Y-72515000D01*
X190706000Y-72475000D02*
X197660000Y-72475000D01*
X195364000Y-72435000D02*
X197701000Y-72435000D01*
X190665000Y-72435000D02*
X193002000Y-72435000D01*
X195364000Y-72395000D02*
X197742000Y-72395000D01*
X190624000Y-72395000D02*
X193002000Y-72395000D01*
X195364000Y-72355000D02*
X197781000Y-72355000D01*
X190585000Y-72355000D02*
X193002000Y-72355000D01*
X195364000Y-72315000D02*
X197820000Y-72315000D01*
X190546000Y-72315000D02*
X193002000Y-72315000D01*
X195364000Y-72275000D02*
X197858000Y-72275000D01*
X190508000Y-72275000D02*
X193002000Y-72275000D01*
X195364000Y-72235000D02*
X197895000Y-72235000D01*
X190471000Y-72235000D02*
X193002000Y-72235000D01*
X195364000Y-72195000D02*
X197931000Y-72195000D01*
X190435000Y-72195000D02*
X193002000Y-72195000D01*
X195364000Y-72155000D02*
X197967000Y-72155000D01*
X190399000Y-72155000D02*
X193002000Y-72155000D01*
X195364000Y-72115000D02*
X198002000Y-72115000D01*
X190364000Y-72115000D02*
X193002000Y-72115000D01*
X195364000Y-72075000D02*
X198036000Y-72075000D01*
X190330000Y-72075000D02*
X193002000Y-72075000D01*
X195364000Y-72035000D02*
X198069000Y-72035000D01*
X190297000Y-72035000D02*
X193002000Y-72035000D01*
X195364000Y-71995000D02*
X198102000Y-71995000D01*
X190264000Y-71995000D02*
X193002000Y-71995000D01*
X195364000Y-71955000D02*
X198134000Y-71955000D01*
X190232000Y-71955000D02*
X193002000Y-71955000D01*
X195364000Y-71915000D02*
X198165000Y-71915000D01*
X190201000Y-71915000D02*
X193002000Y-71915000D01*
X195364000Y-71875000D02*
X198196000Y-71875000D01*
X190170000Y-71875000D02*
X193002000Y-71875000D01*
X195364000Y-71835000D02*
X198226000Y-71835000D01*
X190140000Y-71835000D02*
X193002000Y-71835000D01*
X195364000Y-71795000D02*
X198255000Y-71795000D01*
X190111000Y-71795000D02*
X193002000Y-71795000D01*
X195364000Y-71755000D02*
X198284000Y-71755000D01*
X190082000Y-71755000D02*
X193002000Y-71755000D01*
X195364000Y-71715000D02*
X198313000Y-71715000D01*
X190053000Y-71715000D02*
X193002000Y-71715000D01*
X195364000Y-71675000D02*
X198340000Y-71675000D01*
X190026000Y-71675000D02*
X193002000Y-71675000D01*
X195364000Y-71635000D02*
X198368000Y-71635000D01*
X189998000Y-71635000D02*
X193002000Y-71635000D01*
X195364000Y-71595000D02*
X198394000Y-71595000D01*
X189972000Y-71595000D02*
X193002000Y-71595000D01*
X195364000Y-71555000D02*
X198420000Y-71555000D01*
X189946000Y-71555000D02*
X193002000Y-71555000D01*
X195364000Y-71515000D02*
X198446000Y-71515000D01*
X189920000Y-71515000D02*
X193002000Y-71515000D01*
X195364000Y-71475000D02*
X198471000Y-71475000D01*
X189895000Y-71475000D02*
X193002000Y-71475000D01*
X195364000Y-71435000D02*
X198495000Y-71435000D01*
X189871000Y-71435000D02*
X193002000Y-71435000D01*
X195364000Y-71395000D02*
X198519000Y-71395000D01*
X189847000Y-71395000D02*
X193002000Y-71395000D01*
X195364000Y-71355000D02*
X198543000Y-71355000D01*
X189823000Y-71355000D02*
X193002000Y-71355000D01*
X195364000Y-71315000D02*
X198566000Y-71315000D01*
X189800000Y-71315000D02*
X193002000Y-71315000D01*
X195364000Y-71275000D02*
X198588000Y-71275000D01*
X189778000Y-71275000D02*
X193002000Y-71275000D01*
X195364000Y-71235000D02*
X198611000Y-71235000D01*
X189755000Y-71235000D02*
X193002000Y-71235000D01*
X195364000Y-71195000D02*
X198632000Y-71195000D01*
X189734000Y-71195000D02*
X193002000Y-71195000D01*
X195364000Y-71155000D02*
X198653000Y-71155000D01*
X189713000Y-71155000D02*
X193002000Y-71155000D01*
X195364000Y-71115000D02*
X198674000Y-71115000D01*
X189692000Y-71115000D02*
X193002000Y-71115000D01*
X195364000Y-71075000D02*
X198694000Y-71075000D01*
X189672000Y-71075000D02*
X193002000Y-71075000D01*
X195364000Y-71035000D02*
X198714000Y-71035000D01*
X189652000Y-71035000D02*
X193002000Y-71035000D01*
X195364000Y-70995000D02*
X198733000Y-70995000D01*
X189633000Y-70995000D02*
X193002000Y-70995000D01*
X195364000Y-70955000D02*
X198752000Y-70955000D01*
X189614000Y-70955000D02*
X193002000Y-70955000D01*
X195364000Y-70915000D02*
X198771000Y-70915000D01*
X189595000Y-70915000D02*
X193002000Y-70915000D01*
X195364000Y-70875000D02*
X198789000Y-70875000D01*
X189577000Y-70875000D02*
X193002000Y-70875000D01*
X195364000Y-70835000D02*
X198807000Y-70835000D01*
X189559000Y-70835000D02*
X193002000Y-70835000D01*
X195364000Y-70795000D02*
X198824000Y-70795000D01*
X189542000Y-70795000D02*
X193002000Y-70795000D01*
X195364000Y-70755000D02*
X198841000Y-70755000D01*
X189525000Y-70755000D02*
X193002000Y-70755000D01*
X195364000Y-70715000D02*
X198857000Y-70715000D01*
X189509000Y-70715000D02*
X193002000Y-70715000D01*
X195364000Y-70675000D02*
X198874000Y-70675000D01*
X189492000Y-70675000D02*
X193002000Y-70675000D01*
X195364000Y-70635000D02*
X198889000Y-70635000D01*
X189477000Y-70635000D02*
X193002000Y-70635000D01*
X195364000Y-70595000D02*
X198905000Y-70595000D01*
X189461000Y-70595000D02*
X193002000Y-70595000D01*
X195364000Y-70555000D02*
X198920000Y-70555000D01*
X189446000Y-70555000D02*
X193002000Y-70555000D01*
X195364000Y-70515000D02*
X198934000Y-70515000D01*
X189432000Y-70515000D02*
X193002000Y-70515000D01*
X195364000Y-70475000D02*
X198948000Y-70475000D01*
X189418000Y-70475000D02*
X193002000Y-70475000D01*
X195364000Y-70435000D02*
X198962000Y-70435000D01*
X189404000Y-70435000D02*
X193002000Y-70435000D01*
X195364000Y-70395000D02*
X198975000Y-70395000D01*
X189391000Y-70395000D02*
X193002000Y-70395000D01*
X195364000Y-70355000D02*
X198989000Y-70355000D01*
X189377000Y-70355000D02*
X193002000Y-70355000D01*
X195364000Y-70315000D02*
X199001000Y-70315000D01*
X189365000Y-70315000D02*
X193002000Y-70315000D01*
X195364000Y-70275000D02*
X199014000Y-70275000D01*
X189352000Y-70275000D02*
X193002000Y-70275000D01*
X195364000Y-70235000D02*
X199026000Y-70235000D01*
X189340000Y-70235000D02*
X193002000Y-70235000D01*
X195364000Y-70195000D02*
X199037000Y-70195000D01*
X189329000Y-70195000D02*
X193002000Y-70195000D01*
X195364000Y-70155000D02*
X199048000Y-70155000D01*
X189318000Y-70155000D02*
X193002000Y-70155000D01*
X195364000Y-70115000D02*
X199059000Y-70115000D01*
X189307000Y-70115000D02*
X193002000Y-70115000D01*
X189296000Y-70075000D02*
X199070000Y-70075000D01*
X189286000Y-70035000D02*
X199080000Y-70035000D01*
X189276000Y-69995000D02*
X199090000Y-69995000D01*
X189266000Y-69955000D02*
X199100000Y-69955000D01*
X189257000Y-69915000D02*
X199109000Y-69915000D01*
X189248000Y-69875000D02*
X199118000Y-69875000D01*
X189240000Y-69835000D02*
X199126000Y-69835000D01*
X189232000Y-69795000D02*
X199134000Y-69795000D01*
X189224000Y-69755000D02*
X199142000Y-69755000D01*
X189216000Y-69715000D02*
X199150000Y-69715000D01*
X189209000Y-69675000D02*
X199157000Y-69675000D01*
X189202000Y-69635000D02*
X199164000Y-69635000D01*
X189196000Y-69595000D02*
X199170000Y-69595000D01*
X189190000Y-69555000D02*
X199176000Y-69555000D01*
X189184000Y-69515000D02*
X199182000Y-69515000D01*
X189178000Y-69474000D02*
X199188000Y-69474000D01*
X189173000Y-69434000D02*
X199193000Y-69434000D01*
X189168000Y-69394000D02*
X199198000Y-69394000D01*
X189163000Y-69354000D02*
X199203000Y-69354000D01*
X189159000Y-69314000D02*
X199207000Y-69314000D01*
X189155000Y-69274000D02*
X199211000Y-69274000D01*
X189152000Y-69234000D02*
X199214000Y-69234000D01*
X189148000Y-69194000D02*
X199218000Y-69194000D01*
X189145000Y-69154000D02*
X199221000Y-69154000D01*
X189143000Y-69114000D02*
X199223000Y-69114000D01*
X189140000Y-69074000D02*
X199226000Y-69074000D01*
X189138000Y-69034000D02*
X199228000Y-69034000D01*
X189136000Y-68994000D02*
X199230000Y-68994000D01*
X189135000Y-68954000D02*
X199231000Y-68954000D01*
X189134000Y-68914000D02*
X199232000Y-68914000D01*
X189133000Y-68874000D02*
X199233000Y-68874000D01*
X189133000Y-68834000D02*
X199233000Y-68834000D01*
X189133000Y-68794000D02*
X199233000Y-68794000D01*
X195566264Y-73692437D02*
G75*
G02X192803000Y-73693357I-1383264J4898437D01*
G01*
X195566264Y-73692437D02*
G75*
G03X195563000Y-63894643I-1383264J4898437D01*
G01*
X192799736Y-73692437D02*
G75*
G02X192803000Y-63894643I1383264J4898437D01*
G01*
X196290000Y-62760000D02*
X197620000Y-62760000D01*
X196290000Y-61430000D02*
X196290000Y-62760000D01*
X196290000Y-60160000D02*
X198950000Y-60160000D01*
X198950000Y-60160000D02*
X198950000Y-57560000D01*
X196290000Y-60160000D02*
X196290000Y-57560000D01*
X196290000Y-57560000D02*
X198950000Y-57560000D01*
X113640000Y-69350000D02*
X113640000Y-74470000D01*
X116260000Y-69350000D02*
X116260000Y-74470000D01*
X113640000Y-69350000D02*
X113954000Y-69350000D01*
X115946000Y-69350000D02*
X116260000Y-69350000D01*
X113640000Y-74470000D02*
X113954000Y-74470000D01*
X115946000Y-74470000D02*
X116260000Y-74470000D01*
X139073608Y-61059588D02*
X138969079Y-62054110D01*
X137278392Y-61876412D02*
X137382921Y-60881890D01*
X128817000Y-67556000D02*
X128817000Y-66556000D01*
X130517000Y-66556000D02*
X130517000Y-67556000D01*
X124057122Y-74960987D02*
X124557122Y-75827013D01*
X123084878Y-76677013D02*
X122584878Y-75810987D01*
X121842036Y-86835067D02*
X121022884Y-86261491D01*
X121997964Y-84868933D02*
X122817116Y-85442509D01*
X123561341Y-95035361D02*
X124485221Y-95418044D01*
X123834659Y-96988639D02*
X122910779Y-96605956D01*
X130180005Y-105370263D02*
X129195197Y-105543911D01*
X128899995Y-103869737D02*
X129884803Y-103696089D01*
X137385876Y-110170030D02*
X138179229Y-109561269D01*
X139214124Y-110909970D02*
X138420771Y-111518731D01*
X149612532Y-112843347D02*
X148969744Y-113609392D01*
X147667468Y-112516653D02*
X148310256Y-111750608D01*
X159213911Y-110395197D02*
X159040263Y-111380005D01*
X157366089Y-111084803D02*
X157539737Y-110099995D01*
X166429737Y-105430005D02*
X166256089Y-104445197D01*
X167930263Y-104149995D02*
X168103911Y-105134803D01*
X173346122Y-95431987D02*
X173846122Y-96298013D01*
X172373878Y-97148013D02*
X171873878Y-96281987D01*
X174982036Y-87053067D02*
X174162884Y-86479491D01*
X175137964Y-85086933D02*
X175957116Y-85660509D01*
X173362684Y-76614599D02*
X172370138Y-76492730D01*
X172577316Y-74805401D02*
X173569862Y-74927270D01*
X166760138Y-66567270D02*
X167752684Y-66445401D01*
X167959862Y-68132730D02*
X166967316Y-68254599D01*
X159307221Y-62183956D02*
X158383341Y-62566639D01*
X157732779Y-60996044D02*
X158656659Y-60613361D01*
X147508406Y-59950513D02*
X148215513Y-59243406D01*
X149417594Y-60445487D02*
X148710487Y-61152594D01*
X103630000Y-72100000D02*
X107350000Y-72100000D01*
X107350000Y-73820000D02*
X103630000Y-73820000D01*
X112620000Y-68748200D02*
X112620000Y-72468200D01*
X110900000Y-72468200D02*
X110900000Y-68748200D01*
D12*
X119634000Y-123571000D02*
X172974000Y-123571000D01*
X172974000Y-146431000D02*
X119634000Y-146431000D01*
X172974000Y-123571000D02*
X172974000Y-146431000D01*
X119634000Y-146431000D02*
X119634000Y-123571000D01*
D13*
X112454500Y-56007000D02*
X112454500Y-47367000D01*
X112454500Y-64387000D02*
X112454500Y-59307000D01*
X124654500Y-56007000D02*
X124654500Y-47367000D01*
X124654500Y-64387000D02*
X124654500Y-59307000D01*
X124654500Y-47367000D02*
X112454500Y-47367000D01*
X112454500Y-64387000D02*
X124654500Y-64387000D01*
D12*
X190011904Y-60392380D02*
X190011904Y-61201904D01*
X189964285Y-61297142D01*
X189916666Y-61344761D01*
X189821428Y-61392380D01*
X189630952Y-61392380D01*
X189535714Y-61344761D01*
X189488095Y-61297142D01*
X189440476Y-61201904D01*
X189440476Y-60392380D01*
X189011904Y-60487619D02*
X188964285Y-60440000D01*
X188869047Y-60392380D01*
X188630952Y-60392380D01*
X188535714Y-60440000D01*
X188488095Y-60487619D01*
X188440476Y-60582857D01*
X188440476Y-60678095D01*
X188488095Y-60820952D01*
X189059523Y-61392380D01*
X188440476Y-61392380D01*
X192349047Y-57092380D02*
X191682380Y-58092380D01*
X191682380Y-57092380D02*
X192349047Y-58092380D01*
X191301428Y-58092380D02*
X191301428Y-57092380D01*
X190920476Y-57092380D01*
X190825238Y-57140000D01*
X190777619Y-57187619D01*
X190730000Y-57282857D01*
X190730000Y-57425714D01*
X190777619Y-57520952D01*
X190825238Y-57568571D01*
X190920476Y-57616190D01*
X191301428Y-57616190D01*
X190444285Y-57092380D02*
X189872857Y-57092380D01*
X190158571Y-58092380D02*
X190158571Y-57092380D01*
X189396666Y-57520952D02*
X189491904Y-57473333D01*
X189539523Y-57425714D01*
X189587142Y-57330476D01*
X189587142Y-57282857D01*
X189539523Y-57187619D01*
X189491904Y-57140000D01*
X189396666Y-57092380D01*
X189206190Y-57092380D01*
X189110952Y-57140000D01*
X189063333Y-57187619D01*
X189015714Y-57282857D01*
X189015714Y-57330476D01*
X189063333Y-57425714D01*
X189110952Y-57473333D01*
X189206190Y-57520952D01*
X189396666Y-57520952D01*
X189491904Y-57568571D01*
X189539523Y-57616190D01*
X189587142Y-57711428D01*
X189587142Y-57901904D01*
X189539523Y-57997142D01*
X189491904Y-58044761D01*
X189396666Y-58092380D01*
X189206190Y-58092380D01*
X189110952Y-58044761D01*
X189063333Y-57997142D01*
X189015714Y-57901904D01*
X189015714Y-57711428D01*
X189063333Y-57616190D01*
X189110952Y-57568571D01*
X189206190Y-57520952D01*
X188444285Y-57520952D02*
X188539523Y-57473333D01*
X188587142Y-57425714D01*
X188634761Y-57330476D01*
X188634761Y-57282857D01*
X188587142Y-57187619D01*
X188539523Y-57140000D01*
X188444285Y-57092380D01*
X188253809Y-57092380D01*
X188158571Y-57140000D01*
X188110952Y-57187619D01*
X188063333Y-57282857D01*
X188063333Y-57330476D01*
X188110952Y-57425714D01*
X188158571Y-57473333D01*
X188253809Y-57520952D01*
X188444285Y-57520952D01*
X188539523Y-57568571D01*
X188587142Y-57616190D01*
X188634761Y-57711428D01*
X188634761Y-57901904D01*
X188587142Y-57997142D01*
X188539523Y-58044761D01*
X188444285Y-58092380D01*
X188253809Y-58092380D01*
X188158571Y-58044761D01*
X188110952Y-57997142D01*
X188063333Y-57901904D01*
X188063333Y-57711428D01*
X188110952Y-57616190D01*
X188158571Y-57568571D01*
X188253809Y-57520952D01*
X187730000Y-57092380D02*
X187063333Y-57092380D01*
X187491904Y-58092380D01*
X186158571Y-58092380D02*
X186730000Y-58092380D01*
X186444285Y-58092380D02*
X186444285Y-57092380D01*
X186539523Y-57235238D01*
X186634761Y-57330476D01*
X186730000Y-57378095D01*
X182455238Y-58297142D02*
X182502857Y-58344761D01*
X182645714Y-58392380D01*
X182740952Y-58392380D01*
X182883809Y-58344761D01*
X182979047Y-58249523D01*
X183026666Y-58154285D01*
X183074285Y-57963809D01*
X183074285Y-57820952D01*
X183026666Y-57630476D01*
X182979047Y-57535238D01*
X182883809Y-57440000D01*
X182740952Y-57392380D01*
X182645714Y-57392380D01*
X182502857Y-57440000D01*
X182455238Y-57487619D01*
X182074285Y-58106666D02*
X181598095Y-58106666D01*
X182169523Y-58392380D02*
X181836190Y-57392380D01*
X181502857Y-58392380D01*
X181264761Y-57392380D02*
X180645714Y-57392380D01*
X180979047Y-57773333D01*
X180836190Y-57773333D01*
X180740952Y-57820952D01*
X180693333Y-57868571D01*
X180645714Y-57963809D01*
X180645714Y-58201904D01*
X180693333Y-58297142D01*
X180740952Y-58344761D01*
X180836190Y-58392380D01*
X181121904Y-58392380D01*
X181217142Y-58344761D01*
X181264761Y-58297142D01*
X184392380Y-60503333D02*
X184392380Y-59931904D01*
X184392380Y-60217619D02*
X183392380Y-60217619D01*
X183535238Y-60122380D01*
X183630476Y-60027142D01*
X183678095Y-59931904D01*
X183725714Y-60931904D02*
X184725714Y-60931904D01*
X184249523Y-61408095D02*
X184344761Y-61455714D01*
X184392380Y-61550952D01*
X184249523Y-60931904D02*
X184344761Y-60979523D01*
X184392380Y-61074761D01*
X184392380Y-61265238D01*
X184344761Y-61360476D01*
X184249523Y-61408095D01*
X183725714Y-61408095D01*
X183868571Y-62312857D02*
X183868571Y-61979523D01*
X184392380Y-61979523D02*
X183392380Y-61979523D01*
X183392380Y-62455714D01*
X94176666Y-75112380D02*
X94510000Y-74636190D01*
X94748095Y-75112380D02*
X94748095Y-74112380D01*
X94367142Y-74112380D01*
X94271904Y-74160000D01*
X94224285Y-74207619D01*
X94176666Y-74302857D01*
X94176666Y-74445714D01*
X94224285Y-74540952D01*
X94271904Y-74588571D01*
X94367142Y-74636190D01*
X94748095Y-74636190D01*
X93319523Y-74445714D02*
X93319523Y-75112380D01*
X93557619Y-74064761D02*
X93795714Y-74779047D01*
X93176666Y-74779047D01*
X96515714Y-71002380D02*
X95896666Y-71002380D01*
X96230000Y-71383333D01*
X96087142Y-71383333D01*
X95991904Y-71430952D01*
X95944285Y-71478571D01*
X95896666Y-71573809D01*
X95896666Y-71811904D01*
X95944285Y-71907142D01*
X95991904Y-71954761D01*
X96087142Y-72002380D01*
X96372857Y-72002380D01*
X96468095Y-71954761D01*
X96515714Y-71907142D01*
X95563333Y-71002380D02*
X94944285Y-71002380D01*
X95277619Y-71383333D01*
X95134761Y-71383333D01*
X95039523Y-71430952D01*
X94991904Y-71478571D01*
X94944285Y-71573809D01*
X94944285Y-71811904D01*
X94991904Y-71907142D01*
X95039523Y-71954761D01*
X95134761Y-72002380D01*
X95420476Y-72002380D01*
X95515714Y-71954761D01*
X95563333Y-71907142D01*
X94515714Y-72002380D02*
X94515714Y-71002380D01*
X94420476Y-71621428D02*
X94134761Y-72002380D01*
X94134761Y-71335714D02*
X94515714Y-71716666D01*
X93753809Y-72002380D02*
X93515714Y-72002380D01*
X93515714Y-71811904D01*
X93610952Y-71764285D01*
X93706190Y-71669047D01*
X93753809Y-71526190D01*
X93753809Y-71288095D01*
X93706190Y-71145238D01*
X93610952Y-71050000D01*
X93468095Y-71002380D01*
X93277619Y-71002380D01*
X93134761Y-71050000D01*
X93039523Y-71145238D01*
X92991904Y-71288095D01*
X92991904Y-71526190D01*
X93039523Y-71669047D01*
X93134761Y-71764285D01*
X93230000Y-71811904D01*
X93230000Y-72002380D01*
X92991904Y-72002380D01*
X107096666Y-68637142D02*
X107144285Y-68684761D01*
X107287142Y-68732380D01*
X107382380Y-68732380D01*
X107525238Y-68684761D01*
X107620476Y-68589523D01*
X107668095Y-68494285D01*
X107715714Y-68303809D01*
X107715714Y-68160952D01*
X107668095Y-67970476D01*
X107620476Y-67875238D01*
X107525238Y-67780000D01*
X107382380Y-67732380D01*
X107287142Y-67732380D01*
X107144285Y-67780000D01*
X107096666Y-67827619D01*
X106239523Y-68065714D02*
X106239523Y-68732380D01*
X106477619Y-67684761D02*
X106715714Y-68399047D01*
X106096666Y-68399047D01*
X104974761Y-68065714D02*
X104974761Y-68732380D01*
X105212857Y-67684761D02*
X105450952Y-68399047D01*
X104831904Y-68399047D01*
X104450952Y-68637142D02*
X104403333Y-68684761D01*
X104450952Y-68732380D01*
X104498571Y-68684761D01*
X104450952Y-68637142D01*
X104450952Y-68732380D01*
X104070000Y-67732380D02*
X103403333Y-67732380D01*
X103831904Y-68732380D01*
X103022380Y-68065714D02*
X103022380Y-68732380D01*
X103022380Y-68160952D02*
X102974761Y-68113333D01*
X102879523Y-68065714D01*
X102736666Y-68065714D01*
X102641428Y-68113333D01*
X102593809Y-68208571D01*
X102593809Y-68732380D01*
X101784285Y-68208571D02*
X102117619Y-68208571D01*
X102117619Y-68732380D02*
X102117619Y-67732380D01*
X101641428Y-67732380D01*
X95799286Y-63056738D02*
X96026329Y-62521649D01*
X96358227Y-62937931D02*
X96150315Y-61959784D01*
X95777688Y-62038988D01*
X95694431Y-62105368D01*
X95657753Y-62161847D01*
X95630976Y-62264904D01*
X95660678Y-62404639D01*
X95727057Y-62487896D01*
X95783536Y-62524574D01*
X95886594Y-62551351D01*
X96259221Y-62472147D01*
X95311903Y-62137994D02*
X95193766Y-63185445D01*
X94659805Y-62276601D01*
X94029304Y-63432959D02*
X94588246Y-63314152D01*
X94308775Y-63373556D02*
X94100863Y-62395408D01*
X94223722Y-62515342D01*
X94336680Y-62588698D01*
X94439737Y-62615476D01*
X210287904Y-74604571D02*
X210145047Y-74652190D01*
X210097428Y-74699809D01*
X210049809Y-74795047D01*
X210049809Y-74937904D01*
X210097428Y-75033142D01*
X210145047Y-75080761D01*
X210240285Y-75128380D01*
X210621238Y-75128380D01*
X210621238Y-74128380D01*
X210287904Y-74128380D01*
X210192666Y-74176000D01*
X210145047Y-74223619D01*
X210097428Y-74318857D01*
X210097428Y-74414095D01*
X210145047Y-74509333D01*
X210192666Y-74556952D01*
X210287904Y-74604571D01*
X210621238Y-74604571D01*
X209764095Y-74128380D02*
X209192666Y-74128380D01*
X209478380Y-75128380D02*
X209478380Y-74128380D01*
X208954571Y-74128380D02*
X208335523Y-74128380D01*
X208668857Y-74509333D01*
X208526000Y-74509333D01*
X208430761Y-74556952D01*
X208383142Y-74604571D01*
X208335523Y-74699809D01*
X208335523Y-74937904D01*
X208383142Y-75033142D01*
X208430761Y-75080761D01*
X208526000Y-75128380D01*
X208811714Y-75128380D01*
X208906952Y-75080761D01*
X208954571Y-75033142D01*
X207478380Y-74461714D02*
X207478380Y-75128380D01*
X207716476Y-74080761D02*
X207954571Y-74795047D01*
X207335523Y-74795047D01*
X206954571Y-75128380D02*
X206954571Y-74128380D01*
X206954571Y-74604571D02*
X206383142Y-74604571D01*
X206383142Y-75128380D02*
X206383142Y-74128380D01*
X205383142Y-75128380D02*
X205954571Y-75128380D01*
X205668857Y-75128380D02*
X205668857Y-74128380D01*
X205764095Y-74271238D01*
X205859333Y-74366476D01*
X205954571Y-74414095D01*
X186934942Y-115463571D02*
X186934942Y-116606428D01*
X186934942Y-93873571D02*
X186934942Y-95016428D01*
X187506371Y-94445000D02*
X186363514Y-94445000D01*
X201924942Y-115463571D02*
X201924942Y-116606428D01*
X202496371Y-116035000D02*
X201353514Y-116035000D01*
X201924942Y-93873571D02*
X201924942Y-95016428D01*
X191147142Y-77008571D02*
X191147142Y-78151428D01*
X191718571Y-77580000D02*
X190575714Y-77580000D01*
X197401428Y-77597142D02*
X196258571Y-77597142D01*
X92241904Y-75988571D02*
X92099047Y-76036190D01*
X92051428Y-76083809D01*
X92003809Y-76179047D01*
X92003809Y-76321904D01*
X92051428Y-76417142D01*
X92099047Y-76464761D01*
X92194285Y-76512380D01*
X92575238Y-76512380D01*
X92575238Y-75512380D01*
X92241904Y-75512380D01*
X92146666Y-75560000D01*
X92099047Y-75607619D01*
X92051428Y-75702857D01*
X92051428Y-75798095D01*
X92099047Y-75893333D01*
X92146666Y-75940952D01*
X92241904Y-75988571D01*
X92575238Y-75988571D01*
X91718095Y-75512380D02*
X91146666Y-75512380D01*
X91432380Y-76512380D02*
X91432380Y-75512380D01*
X90289523Y-76512380D02*
X90860952Y-76512380D01*
X90575238Y-76512380D02*
X90575238Y-75512380D01*
X90670476Y-75655238D01*
X90765714Y-75750476D01*
X90860952Y-75798095D01*
X89908571Y-75607619D02*
X89860952Y-75560000D01*
X89765714Y-75512380D01*
X89527619Y-75512380D01*
X89432380Y-75560000D01*
X89384761Y-75607619D01*
X89337142Y-75702857D01*
X89337142Y-75798095D01*
X89384761Y-75940952D01*
X89956190Y-76512380D01*
X89337142Y-76512380D01*
X88908571Y-76512380D02*
X88908571Y-75512380D01*
X88908571Y-75988571D02*
X88337142Y-75988571D01*
X88337142Y-76512380D02*
X88337142Y-75512380D01*
X87337142Y-76512380D02*
X87908571Y-76512380D01*
X87622857Y-76512380D02*
X87622857Y-75512380D01*
X87718095Y-75655238D01*
X87813333Y-75750476D01*
X87908571Y-75798095D01*
X94937142Y-115483571D02*
X94937142Y-116626428D01*
X94937142Y-93893571D02*
X94937142Y-95036428D01*
X95508571Y-94465000D02*
X94365714Y-94465000D01*
X109927142Y-115483571D02*
X109927142Y-116626428D01*
X110498571Y-116055000D02*
X109355714Y-116055000D01*
X109927142Y-93893571D02*
X109927142Y-95036428D01*
X99027142Y-77608571D02*
X99027142Y-78751428D01*
X99598571Y-78180000D02*
X98455714Y-78180000D01*
X105981428Y-78237142D02*
X104838571Y-78237142D01*
X176893435Y-55601641D02*
X176960778Y-55601641D01*
X177095465Y-55534297D01*
X177162809Y-55466954D01*
X177230152Y-55332267D01*
X177230152Y-55197580D01*
X177196480Y-55096564D01*
X177095465Y-54928206D01*
X176994450Y-54827190D01*
X176826091Y-54726175D01*
X176725076Y-54692503D01*
X176590389Y-54692503D01*
X176455702Y-54759847D01*
X176388358Y-54827190D01*
X176321015Y-54961877D01*
X176321015Y-55029221D01*
X176489374Y-55736328D02*
X176152656Y-56073045D01*
X176758748Y-55871015D02*
X175815938Y-55399610D01*
X176287343Y-56342419D01*
X175445549Y-55904687D02*
X175378206Y-55904687D01*
X175277190Y-55938358D01*
X175108832Y-56106717D01*
X175075160Y-56207732D01*
X175075160Y-56275076D01*
X175108832Y-56376091D01*
X175176175Y-56443435D01*
X175310862Y-56510778D01*
X176118984Y-56510778D01*
X175681251Y-56948511D01*
X178416666Y-63022380D02*
X178988095Y-63022380D01*
X178702380Y-63022380D02*
X178702380Y-62022380D01*
X178797619Y-62165238D01*
X178892857Y-62260476D01*
X178988095Y-62308095D01*
X177988095Y-62355714D02*
X177988095Y-63355714D01*
X177511904Y-62879523D02*
X177464285Y-62974761D01*
X177369047Y-63022380D01*
X177988095Y-62879523D02*
X177940476Y-62974761D01*
X177845238Y-63022380D01*
X177654761Y-63022380D01*
X177559523Y-62974761D01*
X177511904Y-62879523D01*
X177511904Y-62355714D01*
X176607142Y-62498571D02*
X176940476Y-62498571D01*
X176940476Y-63022380D02*
X176940476Y-62022380D01*
X176464285Y-62022380D01*
X173885238Y-63897142D02*
X173932857Y-63944761D01*
X174075714Y-63992380D01*
X174170952Y-63992380D01*
X174313809Y-63944761D01*
X174409047Y-63849523D01*
X174456666Y-63754285D01*
X174504285Y-63563809D01*
X174504285Y-63420952D01*
X174456666Y-63230476D01*
X174409047Y-63135238D01*
X174313809Y-63040000D01*
X174170952Y-62992380D01*
X174075714Y-62992380D01*
X173932857Y-63040000D01*
X173885238Y-63087619D01*
X173504285Y-63706666D02*
X173028095Y-63706666D01*
X173599523Y-63992380D02*
X173266190Y-62992380D01*
X172932857Y-63992380D01*
X172075714Y-63992380D02*
X172647142Y-63992380D01*
X172361428Y-63992380D02*
X172361428Y-62992380D01*
X172456666Y-63135238D01*
X172551904Y-63230476D01*
X172647142Y-63278095D01*
X169597619Y-58109523D02*
X169550000Y-58157142D01*
X169502380Y-58252380D01*
X169502380Y-58490476D01*
X169550000Y-58585714D01*
X169597619Y-58633333D01*
X169692857Y-58680952D01*
X169788095Y-58680952D01*
X169930952Y-58633333D01*
X170502380Y-58061904D01*
X170502380Y-58680952D01*
X169597619Y-59061904D02*
X169550000Y-59109523D01*
X169502380Y-59204761D01*
X169502380Y-59442857D01*
X169550000Y-59538095D01*
X169597619Y-59585714D01*
X169692857Y-59633333D01*
X169788095Y-59633333D01*
X169930952Y-59585714D01*
X170502380Y-59014285D01*
X170502380Y-59633333D01*
X169502380Y-60252380D02*
X169502380Y-60347619D01*
X169550000Y-60442857D01*
X169597619Y-60490476D01*
X169692857Y-60538095D01*
X169883333Y-60585714D01*
X170121428Y-60585714D01*
X170311904Y-60538095D01*
X170407142Y-60490476D01*
X170454761Y-60442857D01*
X170502380Y-60347619D01*
X170502380Y-60252380D01*
X170454761Y-60157142D01*
X170407142Y-60109523D01*
X170311904Y-60061904D01*
X170121428Y-60014285D01*
X169883333Y-60014285D01*
X169692857Y-60061904D01*
X169597619Y-60109523D01*
X169550000Y-60157142D01*
X169502380Y-60252380D01*
X169835714Y-61014285D02*
X170835714Y-61014285D01*
X170359523Y-61490476D02*
X170454761Y-61538095D01*
X170502380Y-61633333D01*
X170359523Y-61014285D02*
X170454761Y-61061904D01*
X170502380Y-61157142D01*
X170502380Y-61347619D01*
X170454761Y-61442857D01*
X170359523Y-61490476D01*
X169835714Y-61490476D01*
X169978571Y-62395238D02*
X169978571Y-62061904D01*
X170502380Y-62061904D02*
X169502380Y-62061904D01*
X169502380Y-62538095D01*
X188586904Y-136163571D02*
X188444047Y-136211190D01*
X188396428Y-136258809D01*
X188348809Y-136354047D01*
X188348809Y-136496904D01*
X188396428Y-136592142D01*
X188444047Y-136639761D01*
X188539285Y-136687380D01*
X188920238Y-136687380D01*
X188920238Y-135687380D01*
X188586904Y-135687380D01*
X188491666Y-135735000D01*
X188444047Y-135782619D01*
X188396428Y-135877857D01*
X188396428Y-135973095D01*
X188444047Y-136068333D01*
X188491666Y-136115952D01*
X188586904Y-136163571D01*
X188920238Y-136163571D01*
X188063095Y-135687380D02*
X187491666Y-135687380D01*
X187777380Y-136687380D02*
X187777380Y-135687380D01*
X187253571Y-135687380D02*
X186634523Y-135687380D01*
X186967857Y-136068333D01*
X186825000Y-136068333D01*
X186729761Y-136115952D01*
X186682142Y-136163571D01*
X186634523Y-136258809D01*
X186634523Y-136496904D01*
X186682142Y-136592142D01*
X186729761Y-136639761D01*
X186825000Y-136687380D01*
X187110714Y-136687380D01*
X187205952Y-136639761D01*
X187253571Y-136592142D01*
X185777380Y-136020714D02*
X185777380Y-136687380D01*
X186015476Y-135639761D02*
X186253571Y-136354047D01*
X185634523Y-136354047D01*
X182558809Y-133975714D02*
X181591190Y-133975714D01*
X206808809Y-134075714D02*
X205841190Y-134075714D01*
X206325000Y-134559523D02*
X206325000Y-133591904D01*
X96511904Y-136417571D02*
X96369047Y-136465190D01*
X96321428Y-136512809D01*
X96273809Y-136608047D01*
X96273809Y-136750904D01*
X96321428Y-136846142D01*
X96369047Y-136893761D01*
X96464285Y-136941380D01*
X96845238Y-136941380D01*
X96845238Y-135941380D01*
X96511904Y-135941380D01*
X96416666Y-135989000D01*
X96369047Y-136036619D01*
X96321428Y-136131857D01*
X96321428Y-136227095D01*
X96369047Y-136322333D01*
X96416666Y-136369952D01*
X96511904Y-136417571D01*
X96845238Y-136417571D01*
X95988095Y-135941380D02*
X95416666Y-135941380D01*
X95702380Y-136941380D02*
X95702380Y-135941380D01*
X94559523Y-136941380D02*
X95130952Y-136941380D01*
X94845238Y-136941380D02*
X94845238Y-135941380D01*
X94940476Y-136084238D01*
X95035714Y-136179476D01*
X95130952Y-136227095D01*
X94178571Y-136036619D02*
X94130952Y-135989000D01*
X94035714Y-135941380D01*
X93797619Y-135941380D01*
X93702380Y-135989000D01*
X93654761Y-136036619D01*
X93607142Y-136131857D01*
X93607142Y-136227095D01*
X93654761Y-136369952D01*
X94226190Y-136941380D01*
X93607142Y-136941380D01*
X90483809Y-134229714D02*
X89516190Y-134229714D01*
X188737714Y-80192571D02*
X188594857Y-80240190D01*
X188547238Y-80287809D01*
X188499619Y-80383047D01*
X188499619Y-80525904D01*
X188547238Y-80621142D01*
X188594857Y-80668761D01*
X188690095Y-80716380D01*
X189071047Y-80716380D01*
X189071047Y-79716380D01*
X188737714Y-79716380D01*
X188642476Y-79764000D01*
X188594857Y-79811619D01*
X188547238Y-79906857D01*
X188547238Y-80002095D01*
X188594857Y-80097333D01*
X188642476Y-80144952D01*
X188737714Y-80192571D01*
X189071047Y-80192571D01*
X188213904Y-79716380D02*
X187642476Y-79716380D01*
X187928190Y-80716380D02*
X187928190Y-79716380D01*
X187309142Y-80716380D02*
X187309142Y-79716380D01*
X186928190Y-79716380D01*
X186832952Y-79764000D01*
X186785333Y-79811619D01*
X186737714Y-79906857D01*
X186737714Y-80049714D01*
X186785333Y-80144952D01*
X186832952Y-80192571D01*
X186928190Y-80240190D01*
X187309142Y-80240190D01*
X185880571Y-80049714D02*
X185880571Y-80716380D01*
X186118666Y-79668761D02*
X186356761Y-80383047D01*
X185737714Y-80383047D01*
X191623809Y-77550714D02*
X190656190Y-77550714D01*
X191140000Y-78034523D02*
X191140000Y-77066904D01*
X191623809Y-77550714D02*
X190656190Y-77550714D01*
X191140000Y-78034523D02*
X191140000Y-77066904D01*
X215753413Y-62618472D02*
X216424622Y-62862772D01*
X216575150Y-62866885D01*
X216697218Y-62809964D01*
X216790825Y-62692008D01*
X216823399Y-62602514D01*
X216351085Y-63900185D02*
X216546525Y-63363217D01*
X216448805Y-63631701D02*
X215509113Y-63289681D01*
X215675928Y-63249046D01*
X215797996Y-63192125D01*
X215875316Y-63118917D01*
X96535714Y-80283571D02*
X96392857Y-80331190D01*
X96345238Y-80378809D01*
X96297619Y-80474047D01*
X96297619Y-80616904D01*
X96345238Y-80712142D01*
X96392857Y-80759761D01*
X96488095Y-80807380D01*
X96869047Y-80807380D01*
X96869047Y-79807380D01*
X96535714Y-79807380D01*
X96440476Y-79855000D01*
X96392857Y-79902619D01*
X96345238Y-79997857D01*
X96345238Y-80093095D01*
X96392857Y-80188333D01*
X96440476Y-80235952D01*
X96535714Y-80283571D01*
X96869047Y-80283571D01*
X96011904Y-79807380D02*
X95440476Y-79807380D01*
X95726190Y-80807380D02*
X95726190Y-79807380D01*
X95107142Y-80807380D02*
X95107142Y-79807380D01*
X94726190Y-79807380D01*
X94630952Y-79855000D01*
X94583333Y-79902619D01*
X94535714Y-79997857D01*
X94535714Y-80140714D01*
X94583333Y-80235952D01*
X94630952Y-80283571D01*
X94726190Y-80331190D01*
X95107142Y-80331190D01*
X94154761Y-79902619D02*
X94107142Y-79855000D01*
X94011904Y-79807380D01*
X93773809Y-79807380D01*
X93678571Y-79855000D01*
X93630952Y-79902619D01*
X93583333Y-79997857D01*
X93583333Y-80093095D01*
X93630952Y-80235952D01*
X94202380Y-80807380D01*
X93583333Y-80807380D01*
X99543809Y-78170714D02*
X98576190Y-78170714D01*
X99060000Y-78654523D02*
X99060000Y-77686904D01*
X99543809Y-78150714D02*
X98576190Y-78150714D01*
X99060000Y-78634523D02*
X99060000Y-77666904D01*
X110219523Y-80108571D02*
X110076666Y-80156190D01*
X110029047Y-80203809D01*
X109981428Y-80299047D01*
X109981428Y-80441904D01*
X110029047Y-80537142D01*
X110076666Y-80584761D01*
X110171904Y-80632380D01*
X110552857Y-80632380D01*
X110552857Y-79632380D01*
X110219523Y-79632380D01*
X110124285Y-79680000D01*
X110076666Y-79727619D01*
X110029047Y-79822857D01*
X110029047Y-79918095D01*
X110076666Y-80013333D01*
X110124285Y-80060952D01*
X110219523Y-80108571D01*
X110552857Y-80108571D01*
X109695714Y-79632380D02*
X109124285Y-79632380D01*
X109410000Y-80632380D02*
X109410000Y-79632380D01*
X108790952Y-80632380D02*
X108790952Y-79632380D01*
X108219523Y-80632380D01*
X108219523Y-79632380D01*
X107219523Y-80632380D02*
X107790952Y-80632380D01*
X107505238Y-80632380D02*
X107505238Y-79632380D01*
X107600476Y-79775238D01*
X107695714Y-79870476D01*
X107790952Y-79918095D01*
X105893809Y-78220714D02*
X104926190Y-78220714D01*
X105873809Y-78220714D02*
X104906190Y-78220714D01*
X202604523Y-75783571D02*
X202461666Y-75831190D01*
X202414047Y-75878809D01*
X202366428Y-75974047D01*
X202366428Y-76116904D01*
X202414047Y-76212142D01*
X202461666Y-76259761D01*
X202556904Y-76307380D01*
X202937857Y-76307380D01*
X202937857Y-75307380D01*
X202604523Y-75307380D01*
X202509285Y-75355000D01*
X202461666Y-75402619D01*
X202414047Y-75497857D01*
X202414047Y-75593095D01*
X202461666Y-75688333D01*
X202509285Y-75735952D01*
X202604523Y-75783571D01*
X202937857Y-75783571D01*
X202080714Y-75307380D02*
X201509285Y-75307380D01*
X201795000Y-76307380D02*
X201795000Y-75307380D01*
X201175952Y-76307380D02*
X201175952Y-75307380D01*
X200604523Y-76307380D01*
X200604523Y-75307380D01*
X200223571Y-75307380D02*
X199604523Y-75307380D01*
X199937857Y-75688333D01*
X199795000Y-75688333D01*
X199699761Y-75735952D01*
X199652142Y-75783571D01*
X199604523Y-75878809D01*
X199604523Y-76116904D01*
X199652142Y-76212142D01*
X199699761Y-76259761D01*
X199795000Y-76307380D01*
X200080714Y-76307380D01*
X200175952Y-76259761D01*
X200223571Y-76212142D01*
X197313809Y-77580714D02*
X196346190Y-77580714D01*
X197343809Y-77620714D02*
X196376190Y-77620714D01*
X179386666Y-73777142D02*
X179434285Y-73824761D01*
X179577142Y-73872380D01*
X179672380Y-73872380D01*
X179815238Y-73824761D01*
X179910476Y-73729523D01*
X179958095Y-73634285D01*
X180005714Y-73443809D01*
X180005714Y-73300952D01*
X179958095Y-73110476D01*
X179910476Y-73015238D01*
X179815238Y-72920000D01*
X179672380Y-72872380D01*
X179577142Y-72872380D01*
X179434285Y-72920000D01*
X179386666Y-72967619D01*
X179053333Y-72872380D02*
X178434285Y-72872380D01*
X178767619Y-73253333D01*
X178624761Y-73253333D01*
X178529523Y-73300952D01*
X178481904Y-73348571D01*
X178434285Y-73443809D01*
X178434285Y-73681904D01*
X178481904Y-73777142D01*
X178529523Y-73824761D01*
X178624761Y-73872380D01*
X178910476Y-73872380D01*
X179005714Y-73824761D01*
X179053333Y-73777142D01*
X177085714Y-67135714D02*
X177752380Y-67135714D01*
X176704761Y-66897619D02*
X177419047Y-66659523D01*
X177419047Y-67278571D01*
X176752380Y-67564285D02*
X176752380Y-68230952D01*
X177752380Y-67802380D01*
X176752380Y-68802380D02*
X176752380Y-68897619D01*
X176800000Y-68992857D01*
X176847619Y-69040476D01*
X176942857Y-69088095D01*
X177133333Y-69135714D01*
X177371428Y-69135714D01*
X177561904Y-69088095D01*
X177657142Y-69040476D01*
X177704761Y-68992857D01*
X177752380Y-68897619D01*
X177752380Y-68802380D01*
X177704761Y-68707142D01*
X177657142Y-68659523D01*
X177561904Y-68611904D01*
X177371428Y-68564285D01*
X177133333Y-68564285D01*
X176942857Y-68611904D01*
X176847619Y-68659523D01*
X176800000Y-68707142D01*
X176752380Y-68802380D01*
X177085714Y-69564285D02*
X178085714Y-69564285D01*
X177609523Y-70040476D02*
X177704761Y-70088095D01*
X177752380Y-70183333D01*
X177609523Y-69564285D02*
X177704761Y-69611904D01*
X177752380Y-69707142D01*
X177752380Y-69897619D01*
X177704761Y-69992857D01*
X177609523Y-70040476D01*
X177085714Y-70040476D01*
X177228571Y-70945238D02*
X177228571Y-70611904D01*
X177752380Y-70611904D02*
X176752380Y-70611904D01*
X176752380Y-71088095D01*
X190056666Y-73757142D02*
X190104285Y-73804761D01*
X190247142Y-73852380D01*
X190342380Y-73852380D01*
X190485238Y-73804761D01*
X190580476Y-73709523D01*
X190628095Y-73614285D01*
X190675714Y-73423809D01*
X190675714Y-73280952D01*
X190628095Y-73090476D01*
X190580476Y-72995238D01*
X190485238Y-72900000D01*
X190342380Y-72852380D01*
X190247142Y-72852380D01*
X190104285Y-72900000D01*
X190056666Y-72947619D01*
X189675714Y-72947619D02*
X189628095Y-72900000D01*
X189532857Y-72852380D01*
X189294761Y-72852380D01*
X189199523Y-72900000D01*
X189151904Y-72947619D01*
X189104285Y-73042857D01*
X189104285Y-73138095D01*
X189151904Y-73280952D01*
X189723333Y-73852380D01*
X189104285Y-73852380D01*
X201001438Y-70938324D02*
X201405499Y-70534263D01*
X201203469Y-70736294D02*
X200496362Y-70029187D01*
X200664721Y-70062859D01*
X200799408Y-70062859D01*
X200900423Y-70029187D01*
X199856599Y-70668950D02*
X199789255Y-70736294D01*
X199755583Y-70837309D01*
X199755583Y-70904652D01*
X199789255Y-71005668D01*
X199890270Y-71174026D01*
X200058629Y-71342385D01*
X200226988Y-71443400D01*
X200328003Y-71477072D01*
X200395347Y-71477072D01*
X200496362Y-71443400D01*
X200563705Y-71376057D01*
X200597377Y-71275042D01*
X200597377Y-71207698D01*
X200563705Y-71106683D01*
X200462690Y-70938324D01*
X200294331Y-70769965D01*
X200125973Y-70668950D01*
X200024957Y-70635278D01*
X199957614Y-70635278D01*
X199856599Y-70668950D01*
X199183164Y-71342385D02*
X199115820Y-71409729D01*
X199082148Y-71510744D01*
X199082148Y-71578087D01*
X199115820Y-71679103D01*
X199216835Y-71847461D01*
X199385194Y-72015820D01*
X199553553Y-72116835D01*
X199654568Y-72150507D01*
X199721912Y-72150507D01*
X199822927Y-72116835D01*
X199890270Y-72049492D01*
X199923942Y-71948477D01*
X199923942Y-71881133D01*
X199890270Y-71780118D01*
X199789255Y-71611759D01*
X199620896Y-71443400D01*
X199452538Y-71342385D01*
X199351522Y-71308713D01*
X199284179Y-71308713D01*
X199183164Y-71342385D01*
X198509729Y-72015820D02*
X198442385Y-72083164D01*
X198408713Y-72184179D01*
X198408713Y-72251522D01*
X198442385Y-72352538D01*
X198543400Y-72520896D01*
X198711759Y-72689255D01*
X198880118Y-72790270D01*
X198981133Y-72823942D01*
X199048477Y-72823942D01*
X199149492Y-72790270D01*
X199216835Y-72722927D01*
X199250507Y-72621912D01*
X199250507Y-72554568D01*
X199216835Y-72453553D01*
X199115820Y-72285194D01*
X198947461Y-72116835D01*
X198779103Y-72015820D01*
X198678087Y-71982148D01*
X198610744Y-71982148D01*
X198509729Y-72015820D01*
X198206683Y-72790270D02*
X198913790Y-73497377D01*
X198240355Y-73497377D02*
X198274026Y-73598392D01*
X198240355Y-73699408D01*
X198577072Y-73160660D02*
X198610744Y-73261675D01*
X198577072Y-73362690D01*
X198442385Y-73497377D01*
X198341370Y-73531049D01*
X198240355Y-73497377D01*
X197869965Y-73126988D01*
X197331217Y-73867766D02*
X197566920Y-73632064D01*
X197937309Y-74002453D02*
X197230202Y-73295347D01*
X196893485Y-73632064D01*
X115109523Y-145502380D02*
X115109523Y-146216666D01*
X115157142Y-146359523D01*
X115252380Y-146454761D01*
X115395238Y-146502380D01*
X115490476Y-146502380D01*
X114728571Y-145502380D02*
X114109523Y-145502380D01*
X114442857Y-145883333D01*
X114300000Y-145883333D01*
X114204761Y-145930952D01*
X114157142Y-145978571D01*
X114109523Y-146073809D01*
X114109523Y-146311904D01*
X114157142Y-146407142D01*
X114204761Y-146454761D01*
X114300000Y-146502380D01*
X114585714Y-146502380D01*
X114680952Y-146454761D01*
X114728571Y-146407142D01*
X113490476Y-145502380D02*
X113395238Y-145502380D01*
X113300000Y-145550000D01*
X113252380Y-145597619D01*
X113204761Y-145692857D01*
X113157142Y-145883333D01*
X113157142Y-146121428D01*
X113204761Y-146311904D01*
X113252380Y-146407142D01*
X113300000Y-146454761D01*
X113395238Y-146502380D01*
X113490476Y-146502380D01*
X113585714Y-146454761D01*
X113633333Y-146407142D01*
X113680952Y-146311904D01*
X113728571Y-146121428D01*
X113728571Y-145883333D01*
X113680952Y-145692857D01*
X113633333Y-145597619D01*
X113585714Y-145550000D01*
X113490476Y-145502380D01*
X114494000Y-144625142D02*
X114279714Y-144696571D01*
X113922571Y-144696571D01*
X113779714Y-144625142D01*
X113708285Y-144553714D01*
X113636857Y-144410857D01*
X113636857Y-144268000D01*
X113708285Y-144125142D01*
X113779714Y-144053714D01*
X113922571Y-143982285D01*
X114208285Y-143910857D01*
X114351142Y-143839428D01*
X114422571Y-143768000D01*
X114494000Y-143625142D01*
X114494000Y-143482285D01*
X114422571Y-143339428D01*
X114351142Y-143268000D01*
X114208285Y-143196571D01*
X113851142Y-143196571D01*
X113636857Y-143268000D01*
X113208285Y-143196571D02*
X112351142Y-143196571D01*
X112779714Y-144696571D02*
X112779714Y-143196571D01*
X111565428Y-143982285D02*
X111565428Y-144696571D01*
X112065428Y-143196571D02*
X111565428Y-143982285D01*
X111065428Y-143196571D01*
X109851142Y-144696571D02*
X110565428Y-144696571D01*
X110565428Y-143196571D01*
X109351142Y-143196571D02*
X109351142Y-144410857D01*
X109279714Y-144553714D01*
X109208285Y-144625142D01*
X109065428Y-144696571D01*
X108779714Y-144696571D01*
X108636857Y-144625142D01*
X108565428Y-144553714D01*
X108494000Y-144410857D01*
X108494000Y-143196571D01*
X107851142Y-144625142D02*
X107636857Y-144696571D01*
X107279714Y-144696571D01*
X107136857Y-144625142D01*
X107065428Y-144553714D01*
X106994000Y-144410857D01*
X106994000Y-144268000D01*
X107065428Y-144125142D01*
X107136857Y-144053714D01*
X107279714Y-143982285D01*
X107565428Y-143910857D01*
X107708285Y-143839428D01*
X107779714Y-143768000D01*
X107851142Y-143625142D01*
X107851142Y-143482285D01*
X107779714Y-143339428D01*
X107708285Y-143268000D01*
X107565428Y-143196571D01*
X107208285Y-143196571D01*
X106994000Y-143268000D01*
X196032380Y-59477142D02*
X196032380Y-59000952D01*
X195032380Y-59000952D01*
X195984761Y-59762857D02*
X196032380Y-59905714D01*
X196032380Y-60143809D01*
X195984761Y-60239047D01*
X195937142Y-60286666D01*
X195841904Y-60334285D01*
X195746666Y-60334285D01*
X195651428Y-60286666D01*
X195603809Y-60239047D01*
X195556190Y-60143809D01*
X195508571Y-59953333D01*
X195460952Y-59858095D01*
X195413333Y-59810476D01*
X195318095Y-59762857D01*
X195222857Y-59762857D01*
X195127619Y-59810476D01*
X195080000Y-59858095D01*
X195032380Y-59953333D01*
X195032380Y-60191428D01*
X195080000Y-60334285D01*
X196032380Y-61286666D02*
X196032380Y-60715238D01*
X196032380Y-61000952D02*
X195032380Y-61000952D01*
X195175238Y-60905714D01*
X195270476Y-60810476D01*
X195318095Y-60715238D01*
X202435214Y-57304370D02*
X202285257Y-57334702D01*
X202045155Y-57305222D01*
X201955010Y-57245409D01*
X201912886Y-57191492D01*
X201876658Y-57089556D01*
X201888451Y-56993515D01*
X201948263Y-56903370D01*
X202002180Y-56861246D01*
X202104116Y-56825018D01*
X202302094Y-56800583D01*
X202404031Y-56764355D01*
X202457947Y-56722230D01*
X202517760Y-56632086D01*
X202529552Y-56536045D01*
X202493324Y-56434108D01*
X202451200Y-56380192D01*
X202361055Y-56320379D01*
X202120954Y-56290898D01*
X201970997Y-56321230D01*
X201420891Y-57228572D02*
X201544710Y-56220145D01*
X201160547Y-56172975D01*
X201058610Y-56209203D01*
X201004694Y-56251328D01*
X200944881Y-56341472D01*
X200927193Y-56485533D01*
X200963421Y-56587470D01*
X201005545Y-56641386D01*
X201095690Y-56701199D01*
X201479852Y-56748368D01*
X200477321Y-56576529D02*
X200141179Y-56535256D01*
X199932260Y-57045791D02*
X200412464Y-57104752D01*
X200536283Y-56096325D01*
X200056080Y-56037364D01*
X199583475Y-56710500D02*
X199103271Y-56651538D01*
X199644138Y-57010414D02*
X199431815Y-55960714D01*
X198971854Y-56927868D01*
X198635712Y-56886595D02*
X198759531Y-55878168D01*
X198059468Y-56815841D02*
X198562404Y-56292662D01*
X198183287Y-55807414D02*
X198688777Y-56454412D01*
X197692142Y-56234552D02*
X197356000Y-56193279D01*
X197147081Y-56703814D02*
X197627285Y-56762775D01*
X197751104Y-55754348D01*
X197270901Y-55695387D01*
X196138655Y-56579994D02*
X196533758Y-56141064D01*
X196714898Y-56650748D02*
X196838718Y-55642321D01*
X196454555Y-55595152D01*
X196352618Y-55631380D01*
X196298702Y-55673504D01*
X196238889Y-55763649D01*
X196221201Y-55907710D01*
X196257429Y-56009647D01*
X196299553Y-56063563D01*
X196389697Y-56123376D01*
X196773860Y-56170545D01*
X117347142Y-74363333D02*
X117394761Y-74315714D01*
X117442380Y-74172857D01*
X117442380Y-74077619D01*
X117394761Y-73934761D01*
X117299523Y-73839523D01*
X117204285Y-73791904D01*
X117013809Y-73744285D01*
X116870952Y-73744285D01*
X116680476Y-73791904D01*
X116585238Y-73839523D01*
X116490000Y-73934761D01*
X116442380Y-74077619D01*
X116442380Y-74172857D01*
X116490000Y-74315714D01*
X116537619Y-74363333D01*
X117442380Y-75315714D02*
X117442380Y-74744285D01*
X117442380Y-75030000D02*
X116442380Y-75030000D01*
X116585238Y-74934761D01*
X116680476Y-74839523D01*
X116728095Y-74744285D01*
X116617619Y-68920952D02*
X116570000Y-68968571D01*
X116522380Y-69063809D01*
X116522380Y-69301904D01*
X116570000Y-69397142D01*
X116617619Y-69444761D01*
X116712857Y-69492380D01*
X116808095Y-69492380D01*
X116950952Y-69444761D01*
X117522380Y-68873333D01*
X117522380Y-69492380D01*
X116617619Y-69873333D02*
X116570000Y-69920952D01*
X116522380Y-70016190D01*
X116522380Y-70254285D01*
X116570000Y-70349523D01*
X116617619Y-70397142D01*
X116712857Y-70444761D01*
X116808095Y-70444761D01*
X116950952Y-70397142D01*
X117522380Y-69825714D01*
X117522380Y-70444761D01*
X116522380Y-71063809D02*
X116522380Y-71159047D01*
X116570000Y-71254285D01*
X116617619Y-71301904D01*
X116712857Y-71349523D01*
X116903333Y-71397142D01*
X117141428Y-71397142D01*
X117331904Y-71349523D01*
X117427142Y-71301904D01*
X117474761Y-71254285D01*
X117522380Y-71159047D01*
X117522380Y-71063809D01*
X117474761Y-70968571D01*
X117427142Y-70920952D01*
X117331904Y-70873333D01*
X117141428Y-70825714D01*
X116903333Y-70825714D01*
X116712857Y-70873333D01*
X116617619Y-70920952D01*
X116570000Y-70968571D01*
X116522380Y-71063809D01*
X116855714Y-71825714D02*
X117522380Y-71825714D01*
X116950952Y-71825714D02*
X116903333Y-71873333D01*
X116855714Y-71968571D01*
X116855714Y-72111428D01*
X116903333Y-72206666D01*
X116998571Y-72254285D01*
X117522380Y-72254285D01*
X116998571Y-73063809D02*
X116998571Y-72730476D01*
X117522380Y-72730476D02*
X116522380Y-72730476D01*
X116522380Y-73206666D01*
X140381105Y-60646376D02*
X140433441Y-60603995D01*
X140495731Y-60466898D01*
X140505687Y-60372182D01*
X140473261Y-60225130D01*
X140388500Y-60120458D01*
X140298761Y-60063145D01*
X140114306Y-59995877D01*
X139972231Y-59980944D01*
X139777821Y-60008392D01*
X139678127Y-60045795D01*
X139573455Y-60130557D01*
X139511165Y-60267654D01*
X139501210Y-60362370D01*
X139533635Y-60509422D01*
X139576016Y-60561758D01*
X140381248Y-61556137D02*
X140431023Y-61082555D01*
X139436501Y-60978026D01*
X140291652Y-62408584D02*
X140351383Y-61840286D01*
X140321517Y-62124435D02*
X139326995Y-62019906D01*
X139479025Y-61940123D01*
X139583697Y-61855361D01*
X139641010Y-61765623D01*
X139202557Y-63203861D02*
X139252332Y-62730279D01*
X139730892Y-62732696D01*
X139678556Y-62775077D01*
X139621243Y-62864816D01*
X139596355Y-63101607D01*
X139633758Y-63201301D01*
X139676139Y-63253636D01*
X139765877Y-63310950D01*
X140002668Y-63335837D01*
X140102362Y-63298434D01*
X140154698Y-63256054D01*
X140212011Y-63166315D01*
X140236899Y-62929524D01*
X140199496Y-62829830D01*
X140157115Y-62777494D01*
X136955175Y-60669347D02*
X137014905Y-60101048D01*
X136985040Y-60385197D02*
X135990518Y-60280669D01*
X136142548Y-60200885D01*
X136247219Y-60116124D01*
X136304533Y-60026385D01*
X135895945Y-61180475D02*
X135885990Y-61275191D01*
X135923393Y-61374885D01*
X135965774Y-61427221D01*
X136055512Y-61484534D01*
X136239968Y-61551802D01*
X136476759Y-61576690D01*
X136671169Y-61549242D01*
X136770863Y-61511839D01*
X136823198Y-61469458D01*
X136880512Y-61379719D01*
X136890467Y-61285003D01*
X136853064Y-61185309D01*
X136810683Y-61132973D01*
X136720944Y-61075660D01*
X136536489Y-61008392D01*
X136299698Y-60983504D01*
X136105288Y-61010952D01*
X136005594Y-61048355D01*
X135953258Y-61090736D01*
X135895945Y-61180475D01*
X136103014Y-62399272D02*
X136766028Y-62468958D01*
X135749036Y-62122661D02*
X136484296Y-61960533D01*
X136419588Y-62576189D01*
X131774142Y-66008380D02*
X131821761Y-65960761D01*
X131869380Y-65817904D01*
X131869380Y-65722666D01*
X131821761Y-65579809D01*
X131726523Y-65484571D01*
X131631285Y-65436952D01*
X131440809Y-65389333D01*
X131297952Y-65389333D01*
X131107476Y-65436952D01*
X131012238Y-65484571D01*
X130917000Y-65579809D01*
X130869380Y-65722666D01*
X130869380Y-65817904D01*
X130917000Y-65960761D01*
X130964619Y-66008380D01*
X131869380Y-66913142D02*
X131869380Y-66436952D01*
X130869380Y-66436952D01*
X131869380Y-67770285D02*
X131869380Y-67198857D01*
X131869380Y-67484571D02*
X130869380Y-67484571D01*
X131012238Y-67389333D01*
X131107476Y-67294095D01*
X131155095Y-67198857D01*
X131202714Y-68627428D02*
X131869380Y-68627428D01*
X130821761Y-68389333D02*
X131536047Y-68151238D01*
X131536047Y-68770285D01*
X128369380Y-66389333D02*
X128369380Y-65817904D01*
X128369380Y-66103619D02*
X127369380Y-66103619D01*
X127512238Y-66008380D01*
X127607476Y-65913142D01*
X127655095Y-65817904D01*
X127369380Y-67008380D02*
X127369380Y-67103619D01*
X127417000Y-67198857D01*
X127464619Y-67246476D01*
X127559857Y-67294095D01*
X127750333Y-67341714D01*
X127988428Y-67341714D01*
X128178904Y-67294095D01*
X128274142Y-67246476D01*
X128321761Y-67198857D01*
X128369380Y-67103619D01*
X128369380Y-67008380D01*
X128321761Y-66913142D01*
X128274142Y-66865523D01*
X128178904Y-66817904D01*
X127988428Y-66770285D01*
X127750333Y-66770285D01*
X127559857Y-66817904D01*
X127464619Y-66865523D01*
X127417000Y-66913142D01*
X127369380Y-67008380D01*
X127702714Y-68198857D02*
X128369380Y-68198857D01*
X127321761Y-67960761D02*
X128036047Y-67722666D01*
X128036047Y-68341714D01*
X125301058Y-76029836D02*
X125283628Y-76094884D01*
X125313818Y-76242412D01*
X125361437Y-76324891D01*
X125474105Y-76424799D01*
X125604202Y-76459658D01*
X125710490Y-76453279D01*
X125899257Y-76399280D01*
X126022975Y-76327851D01*
X126164123Y-76191374D01*
X126222792Y-76102516D01*
X126257651Y-75972418D01*
X126227462Y-75824891D01*
X126179843Y-75742412D01*
X126067175Y-75642504D01*
X126002126Y-75625074D01*
X124766199Y-75293908D02*
X125004294Y-75706301D01*
X125870319Y-75206301D01*
X124337627Y-74551600D02*
X124623342Y-75046472D01*
X124480484Y-74799036D02*
X125346510Y-74299036D01*
X125270411Y-74452943D01*
X125235551Y-74583041D01*
X125241931Y-74689329D01*
X125036986Y-73762925D02*
X124727462Y-73226814D01*
X124564214Y-73705966D01*
X124492786Y-73582248D01*
X124403927Y-73523579D01*
X124338879Y-73506149D01*
X124232591Y-73512529D01*
X124026394Y-73631576D01*
X123967725Y-73720435D01*
X123950295Y-73785483D01*
X123956675Y-73891772D01*
X124099532Y-74139207D01*
X124188390Y-74197876D01*
X124253439Y-74215306D01*
X121997015Y-77497540D02*
X122282730Y-77992412D01*
X122139873Y-77744976D02*
X123005898Y-77244976D01*
X122929799Y-77398883D01*
X122894940Y-77528981D01*
X122901319Y-77635269D01*
X122553517Y-76461429D02*
X122505898Y-76378951D01*
X122417040Y-76320282D01*
X122351991Y-76302852D01*
X122245703Y-76309232D01*
X122056936Y-76363230D01*
X121850739Y-76482278D01*
X121709592Y-76618755D01*
X121650923Y-76707614D01*
X121633493Y-76772663D01*
X121639873Y-76878951D01*
X121687492Y-76961429D01*
X121776350Y-77020098D01*
X121841399Y-77037528D01*
X121947687Y-77031148D01*
X122136454Y-76977150D01*
X122342650Y-76858102D01*
X122483798Y-76721625D01*
X122542467Y-76632766D01*
X122559897Y-76567717D01*
X122553517Y-76461429D01*
X121669604Y-75597113D02*
X121092254Y-75930447D01*
X122118566Y-75612834D02*
X121619024Y-76176173D01*
X121309500Y-75640062D01*
X123577069Y-85311927D02*
X123588763Y-85378248D01*
X123678472Y-85499195D01*
X123756486Y-85553821D01*
X123900821Y-85596753D01*
X124033462Y-85573365D01*
X124127095Y-85522664D01*
X124275355Y-85393948D01*
X124357295Y-85276926D01*
X124427540Y-85093584D01*
X124443159Y-84988256D01*
X124419771Y-84855616D01*
X124330063Y-84734669D01*
X124252048Y-84680042D01*
X124107713Y-84637110D01*
X124041393Y-84648804D01*
X122781305Y-84870992D02*
X123171378Y-85144123D01*
X123744954Y-84324971D01*
X122079175Y-84379355D02*
X122547262Y-84707113D01*
X122313218Y-84543234D02*
X122886795Y-83724082D01*
X122882870Y-83895730D01*
X122906258Y-84028371D01*
X122956959Y-84122004D01*
X122286067Y-83419712D02*
X122274373Y-83353392D01*
X122223672Y-83259758D01*
X122028635Y-83123192D01*
X121923308Y-83107573D01*
X121856987Y-83119267D01*
X121763354Y-83169968D01*
X121708727Y-83247983D01*
X121665795Y-83392318D01*
X121806124Y-84188163D01*
X121299030Y-83833092D01*
X121202867Y-88038469D02*
X121670954Y-88366227D01*
X121436910Y-88202348D02*
X122010487Y-87383196D01*
X122006562Y-87554844D01*
X122029950Y-87687484D01*
X122080651Y-87781118D01*
X121269349Y-86864245D02*
X121191335Y-86809619D01*
X121086007Y-86794000D01*
X121019687Y-86805694D01*
X120926053Y-86856395D01*
X120777793Y-86985111D01*
X120641227Y-87180147D01*
X120570982Y-87363490D01*
X120555363Y-87468817D01*
X120567057Y-87535138D01*
X120617758Y-87628771D01*
X120695773Y-87683397D01*
X120801100Y-87699017D01*
X120867421Y-87687322D01*
X120961054Y-87636621D01*
X121109314Y-87507905D01*
X121245880Y-87312869D01*
X121316125Y-87129527D01*
X121331745Y-87024199D01*
X121320050Y-86957879D01*
X121269349Y-86864245D01*
X120102976Y-86454467D02*
X119720592Y-87000568D01*
X120516517Y-86278975D02*
X120301856Y-87000649D01*
X119794762Y-86645578D01*
X125198897Y-95126074D02*
X125224668Y-95188291D01*
X125338428Y-95286955D01*
X125426416Y-95323401D01*
X125576622Y-95334075D01*
X125701057Y-95282533D01*
X125781497Y-95212767D01*
X125898383Y-95055013D01*
X125953052Y-94923031D01*
X125981950Y-94728830D01*
X125974402Y-94622619D01*
X125922859Y-94498184D01*
X125809100Y-94399521D01*
X125721111Y-94363075D01*
X125570905Y-94352400D01*
X125508688Y-94378171D01*
X124326560Y-94867825D02*
X124766502Y-95050055D01*
X125149186Y-94126176D01*
X123534663Y-94539811D02*
X124062594Y-94758487D01*
X123798628Y-94649149D02*
X124181312Y-93725269D01*
X124214631Y-93893698D01*
X124266174Y-94018133D01*
X124335939Y-94098573D01*
X122654778Y-94175350D02*
X123182709Y-94394027D01*
X122918743Y-94284688D02*
X123301427Y-93360809D01*
X123334746Y-93529238D01*
X123386289Y-93653672D01*
X123456054Y-93734113D01*
X123471104Y-98301856D02*
X123999036Y-98520533D01*
X123735070Y-98411194D02*
X124117754Y-97487315D01*
X124151073Y-97655744D01*
X124202615Y-97780178D01*
X124272381Y-97860619D01*
X123281863Y-97141077D02*
X123193874Y-97104631D01*
X123087662Y-97112180D01*
X123025445Y-97137951D01*
X122945005Y-97207716D01*
X122828118Y-97365470D01*
X122737003Y-97585442D01*
X122708106Y-97779642D01*
X122715654Y-97885853D01*
X122741425Y-97948071D01*
X122811191Y-98028511D01*
X122899179Y-98064957D01*
X123005391Y-98057409D01*
X123067608Y-98031638D01*
X123148048Y-97961872D01*
X123264935Y-97804118D01*
X123356050Y-97584147D01*
X123384947Y-97389947D01*
X123377399Y-97283735D01*
X123351628Y-97221518D01*
X123281863Y-97141077D01*
X122054445Y-96993462D02*
X121799322Y-97609382D01*
X122420200Y-96732623D02*
X122366826Y-97483652D01*
X121794901Y-97246753D01*
X130329836Y-103066385D02*
X130385001Y-103105012D01*
X130533956Y-103127101D01*
X130627748Y-103110563D01*
X130760165Y-103038860D01*
X130837419Y-102928531D01*
X130867776Y-102826471D01*
X130881596Y-102630620D01*
X130856789Y-102489933D01*
X130776818Y-102310619D01*
X130713384Y-102225097D01*
X130603055Y-102147844D01*
X130454099Y-102125755D01*
X130360308Y-102142293D01*
X130227890Y-102213996D01*
X130189264Y-102269160D01*
X129455357Y-103317287D02*
X129924314Y-103234597D01*
X129750665Y-102249790D01*
X128611237Y-103466128D02*
X129173984Y-103366901D01*
X128892610Y-103416514D02*
X128718962Y-102431707D01*
X128837560Y-102555856D01*
X128947889Y-102633109D01*
X129049949Y-102663467D01*
X127827945Y-102588817D02*
X127734154Y-102605355D01*
X127648632Y-102668788D01*
X127610005Y-102723953D01*
X127579648Y-102826013D01*
X127565828Y-103021865D01*
X127607173Y-103256343D01*
X127687144Y-103435656D01*
X127750578Y-103521178D01*
X127805742Y-103559805D01*
X127907802Y-103590163D01*
X128001594Y-103573625D01*
X128087116Y-103510191D01*
X128125743Y-103455027D01*
X128156100Y-103352966D01*
X128169920Y-103157115D01*
X128128575Y-102922637D01*
X128048604Y-102743324D01*
X127985170Y-102657801D01*
X127930006Y-102619175D01*
X127827945Y-102588817D01*
X130578977Y-106673156D02*
X131141724Y-106573929D01*
X130860351Y-106623543D02*
X130686703Y-105638735D01*
X130805301Y-105762884D01*
X130915630Y-105840137D01*
X131017690Y-105870495D01*
X129795686Y-105795845D02*
X129701895Y-105812383D01*
X129616373Y-105875817D01*
X129577746Y-105930981D01*
X129547388Y-106033041D01*
X129533568Y-106228893D01*
X129574913Y-106463371D01*
X129654885Y-106642684D01*
X129718318Y-106728206D01*
X129773483Y-106766833D01*
X129875543Y-106797191D01*
X129969334Y-106780653D01*
X130054856Y-106717219D01*
X130093483Y-106662055D01*
X130123841Y-106559995D01*
X130137661Y-106364143D01*
X130096316Y-106129665D01*
X130016344Y-105950352D01*
X129952911Y-105864829D01*
X129897746Y-105826203D01*
X129795686Y-105795845D01*
X128681179Y-106330838D02*
X128796944Y-106987377D01*
X128849505Y-105914329D02*
X129208017Y-106576418D01*
X128598375Y-106683914D01*
X137905426Y-109087108D02*
X137972193Y-109095898D01*
X138114518Y-109046711D01*
X138190076Y-108988734D01*
X138274423Y-108863989D01*
X138292003Y-108730455D01*
X138271805Y-108625908D01*
X138193629Y-108445805D01*
X138106663Y-108332469D01*
X137952930Y-108210342D01*
X137857174Y-108163774D01*
X137723639Y-108146193D01*
X137581314Y-108195381D01*
X137505757Y-108253358D01*
X137421409Y-108378103D01*
X137412619Y-108444870D01*
X137245607Y-109713450D02*
X137623395Y-109423564D01*
X137014633Y-108630210D01*
X136943378Y-109945359D02*
X136792263Y-110061314D01*
X136687717Y-110081512D01*
X136620949Y-110072722D01*
X136458426Y-110017363D01*
X136304693Y-109895237D01*
X136072783Y-109593007D01*
X136052585Y-109488461D01*
X136061375Y-109421694D01*
X136107944Y-109325938D01*
X136259059Y-109209983D01*
X136363605Y-109189784D01*
X136430372Y-109198575D01*
X136526128Y-109245143D01*
X136671071Y-109434037D01*
X136691270Y-109538583D01*
X136682480Y-109605350D01*
X136635911Y-109701106D01*
X136484796Y-109817061D01*
X136380250Y-109837260D01*
X136313483Y-109828469D01*
X136217727Y-109781901D01*
X140169627Y-111881424D02*
X140622972Y-111533561D01*
X140396299Y-111707493D02*
X139787538Y-110914139D01*
X139950061Y-110969498D01*
X140083596Y-110987078D01*
X140188142Y-110966880D01*
X139069742Y-111464923D02*
X138994184Y-111522901D01*
X138947616Y-111618657D01*
X138938826Y-111685424D01*
X138959024Y-111789970D01*
X139037200Y-111970074D01*
X139182143Y-112158967D01*
X139335876Y-112281094D01*
X139431632Y-112327663D01*
X139498400Y-112336453D01*
X139602946Y-112316254D01*
X139678503Y-112258277D01*
X139725072Y-112162521D01*
X139733862Y-112095753D01*
X139713664Y-111991207D01*
X139635488Y-111811104D01*
X139490545Y-111622210D01*
X139336811Y-111500084D01*
X139241055Y-111453515D01*
X139174288Y-111444725D01*
X139069742Y-111464923D01*
X138328194Y-112454091D02*
X138734035Y-112982993D01*
X138285179Y-112006918D02*
X138908902Y-112428655D01*
X138417778Y-112805508D01*
X147940316Y-111346949D02*
X148007403Y-111341079D01*
X148135708Y-111262253D01*
X148196926Y-111189297D01*
X148252275Y-111049253D01*
X148240536Y-110915079D01*
X148198188Y-110817382D01*
X148082884Y-110658468D01*
X147973449Y-110566641D01*
X147796927Y-110480684D01*
X147693361Y-110455945D01*
X147559187Y-110467683D01*
X147430882Y-110546509D01*
X147369664Y-110619466D01*
X147314315Y-110759510D01*
X147320185Y-110826597D01*
X147431703Y-112101255D02*
X147737792Y-111736471D01*
X146971748Y-111093684D01*
X146687874Y-112098730D02*
X146712613Y-111995165D01*
X146706744Y-111928078D01*
X146664396Y-111830381D01*
X146627918Y-111799772D01*
X146524353Y-111775033D01*
X146457265Y-111780902D01*
X146359569Y-111823250D01*
X146237133Y-111969163D01*
X146212394Y-112072729D01*
X146218263Y-112139816D01*
X146260611Y-112237512D01*
X146297089Y-112268121D01*
X146400655Y-112292861D01*
X146467742Y-112286991D01*
X146565438Y-112244644D01*
X146687874Y-112098730D01*
X146785570Y-112056383D01*
X146852657Y-112050513D01*
X146956223Y-112075253D01*
X147102136Y-112197689D01*
X147144484Y-112295385D01*
X147150353Y-112362472D01*
X147125614Y-112466038D01*
X147003178Y-112611951D01*
X146905482Y-112654298D01*
X146838394Y-112660168D01*
X146734829Y-112635428D01*
X146588916Y-112512993D01*
X146546568Y-112415296D01*
X146540699Y-112348209D01*
X146565438Y-112244644D01*
X150755646Y-113584966D02*
X151122954Y-113147226D01*
X150939300Y-113366096D02*
X150173256Y-112723309D01*
X150343908Y-112742179D01*
X150478083Y-112730440D01*
X150575779Y-112688092D01*
X149591686Y-113416396D02*
X149530468Y-113489353D01*
X149505728Y-113592919D01*
X149511598Y-113660006D01*
X149553946Y-113757702D01*
X149669250Y-113916616D01*
X149851641Y-114069661D01*
X150028164Y-114155618D01*
X150131729Y-114180358D01*
X150198816Y-114174488D01*
X150296512Y-114132141D01*
X150357730Y-114059184D01*
X150382470Y-113955619D01*
X150376601Y-113888531D01*
X150334253Y-113790835D01*
X150218949Y-113631921D01*
X150036557Y-113478876D01*
X149860035Y-113392919D01*
X149756469Y-113368179D01*
X149689382Y-113374049D01*
X149591686Y-113416396D01*
X149081811Y-114542617D02*
X149592507Y-114971142D01*
X148943029Y-114115354D02*
X149643248Y-114392096D01*
X149245332Y-114866314D01*
X157017530Y-109935385D02*
X157072695Y-109896759D01*
X157144397Y-109764341D01*
X157160935Y-109670550D01*
X157138846Y-109521594D01*
X157061593Y-109411265D01*
X156976071Y-109347831D01*
X156796757Y-109267860D01*
X156656071Y-109243053D01*
X156460219Y-109256873D01*
X156358159Y-109287230D01*
X156247830Y-109364484D01*
X156176127Y-109496902D01*
X156159589Y-109590693D01*
X156181678Y-109739649D01*
X156220305Y-109794813D01*
X156954211Y-110842940D02*
X157036901Y-110373984D01*
X156052093Y-110200336D01*
X155928058Y-110903770D02*
X155812293Y-111560308D01*
X156871521Y-111311896D01*
X160574687Y-110465900D02*
X160673915Y-109903153D01*
X160624301Y-110184526D02*
X159639493Y-110010878D01*
X159796718Y-109941894D01*
X159907047Y-109864641D01*
X159970481Y-109779118D01*
X159482383Y-110901895D02*
X159465845Y-110995686D01*
X159496203Y-111097746D01*
X159534829Y-111152911D01*
X159620352Y-111216344D01*
X159799665Y-111296316D01*
X160034143Y-111337661D01*
X160229995Y-111323841D01*
X160332055Y-111293483D01*
X160387219Y-111254856D01*
X160450653Y-111169334D01*
X160467191Y-111075543D01*
X160436833Y-110973483D01*
X160398206Y-110918318D01*
X160312684Y-110854885D01*
X160133371Y-110774913D01*
X159898893Y-110733568D01*
X159703041Y-110747388D01*
X159600981Y-110777746D01*
X159545817Y-110816373D01*
X159482383Y-110901895D01*
X159603928Y-112132168D02*
X160260467Y-112247933D01*
X159270108Y-111831538D02*
X160014887Y-111721094D01*
X159907391Y-112330737D01*
X165204096Y-105718648D02*
X165165469Y-105773813D01*
X165143381Y-105922768D01*
X165159919Y-106016560D01*
X165231621Y-106148977D01*
X165341950Y-106226231D01*
X165444010Y-106256588D01*
X165639862Y-106270408D01*
X165780549Y-106245601D01*
X165959862Y-106165630D01*
X166045384Y-106102196D01*
X166122638Y-105991867D01*
X166144726Y-105842911D01*
X166128188Y-105749120D01*
X166056486Y-105616702D01*
X166001321Y-105578076D01*
X164953195Y-104844169D02*
X165035884Y-105313125D01*
X166020692Y-105139477D01*
X165805699Y-103920191D02*
X165838775Y-104107774D01*
X165808417Y-104209834D01*
X165769790Y-104264999D01*
X165645641Y-104383597D01*
X165466328Y-104463568D01*
X165091163Y-104529720D01*
X164989103Y-104499362D01*
X164933938Y-104460736D01*
X164870505Y-104375213D01*
X164837429Y-104187631D01*
X164867787Y-104085571D01*
X164906413Y-104030406D01*
X164991936Y-103966973D01*
X165226414Y-103925628D01*
X165328474Y-103955985D01*
X165383638Y-103994612D01*
X165447072Y-104080134D01*
X165480148Y-104267717D01*
X165449790Y-104369777D01*
X165411163Y-104424942D01*
X165325641Y-104488375D01*
X168573671Y-105221209D02*
X168672898Y-105783956D01*
X168623284Y-105502583D02*
X169608092Y-105328935D01*
X169483943Y-105447533D01*
X169406690Y-105557862D01*
X169376332Y-105659922D01*
X169450982Y-104437918D02*
X169434444Y-104344127D01*
X169371010Y-104258605D01*
X169315846Y-104219978D01*
X169213786Y-104189620D01*
X169017934Y-104175800D01*
X168783456Y-104217145D01*
X168604143Y-104297117D01*
X168518621Y-104360550D01*
X168479994Y-104415715D01*
X168449636Y-104517775D01*
X168466174Y-104611566D01*
X168529608Y-104697088D01*
X168584772Y-104735715D01*
X168686832Y-104766073D01*
X168882684Y-104779893D01*
X169117162Y-104738548D01*
X169296475Y-104658576D01*
X169381998Y-104595143D01*
X169420624Y-104539978D01*
X169450982Y-104437918D01*
X168915989Y-103323411D02*
X168259450Y-103439176D01*
X169332498Y-103491737D02*
X168670409Y-103850249D01*
X168562913Y-103240607D01*
X171316419Y-97853444D02*
X171298989Y-97918492D01*
X171329178Y-98066020D01*
X171376798Y-98148498D01*
X171489465Y-98248407D01*
X171619563Y-98283266D01*
X171725851Y-98276887D01*
X171914618Y-98222888D01*
X172038336Y-98151459D01*
X172179484Y-98014982D01*
X172238153Y-97926124D01*
X172273012Y-97796026D01*
X172242823Y-97648498D01*
X172195204Y-97566020D01*
X172082536Y-97466111D01*
X172017487Y-97448682D01*
X170781559Y-97117516D02*
X171019655Y-97529909D01*
X171885680Y-97029909D01*
X171242823Y-95916448D02*
X171480918Y-96328841D01*
X171092335Y-96608175D01*
X171109764Y-96543126D01*
X171103385Y-96436838D01*
X170984337Y-96230642D01*
X170895479Y-96171973D01*
X170830430Y-96154543D01*
X170724142Y-96160923D01*
X170517945Y-96279970D01*
X170459276Y-96368829D01*
X170441846Y-96433877D01*
X170448226Y-96540166D01*
X170567274Y-96746362D01*
X170656132Y-96805031D01*
X170721181Y-96822461D01*
X173831559Y-95463540D02*
X174117274Y-95958412D01*
X173974417Y-95710976D02*
X174840442Y-95210976D01*
X174764343Y-95364883D01*
X174729484Y-95494981D01*
X174735863Y-95601269D01*
X174388061Y-94427429D02*
X174340442Y-94344951D01*
X174251584Y-94286282D01*
X174186535Y-94268852D01*
X174080247Y-94275232D01*
X173891480Y-94329230D01*
X173685283Y-94448278D01*
X173544136Y-94584755D01*
X173485467Y-94673614D01*
X173468037Y-94738663D01*
X173474417Y-94844951D01*
X173522036Y-94927429D01*
X173610894Y-94986098D01*
X173675943Y-95003528D01*
X173782231Y-94997148D01*
X173970998Y-94943150D01*
X174177194Y-94824102D01*
X174318342Y-94687625D01*
X174377011Y-94598766D01*
X174394441Y-94533717D01*
X174388061Y-94427429D01*
X173504148Y-93563113D02*
X172926798Y-93896447D01*
X173953110Y-93578834D02*
X173453568Y-94142173D01*
X173144044Y-93606062D01*
X171320875Y-97838443D02*
X171303445Y-97903491D01*
X171333634Y-98051019D01*
X171381254Y-98133497D01*
X171493921Y-98233406D01*
X171624019Y-98268265D01*
X171730307Y-98261886D01*
X171919074Y-98207887D01*
X172042792Y-98136458D01*
X172183940Y-97999981D01*
X172242609Y-97911123D01*
X172277468Y-97781025D01*
X172247279Y-97633497D01*
X172199660Y-97551019D01*
X172086992Y-97451110D01*
X172021943Y-97433681D01*
X170786015Y-97102515D02*
X171024111Y-97514908D01*
X171890136Y-97014908D01*
X171247279Y-95901447D02*
X171485374Y-96313840D01*
X171096791Y-96593174D01*
X171114220Y-96528125D01*
X171107841Y-96421837D01*
X170988793Y-96215641D01*
X170899935Y-96156972D01*
X170834886Y-96139542D01*
X170728598Y-96145922D01*
X170522401Y-96264969D01*
X170463732Y-96353828D01*
X170446302Y-96418876D01*
X170452682Y-96525165D01*
X170571730Y-96731361D01*
X170660588Y-96790030D01*
X170725637Y-96807460D01*
X174319479Y-88123828D02*
X174331173Y-88190148D01*
X174420881Y-88311095D01*
X174498896Y-88365721D01*
X174643231Y-88408653D01*
X174775871Y-88385265D01*
X174869505Y-88334564D01*
X175017765Y-88205848D01*
X175099704Y-88088826D01*
X175169950Y-87905484D01*
X175185569Y-87800157D01*
X175162181Y-87667516D01*
X175072472Y-87546569D01*
X174994458Y-87491943D01*
X174850123Y-87449011D01*
X174783802Y-87460705D01*
X173523715Y-87682892D02*
X173913787Y-87956024D01*
X174487364Y-87136872D01*
X173281983Y-86699780D02*
X172899599Y-87245882D01*
X173695525Y-86524288D02*
X173480863Y-87245962D01*
X172973769Y-86890891D01*
X176350385Y-85389437D02*
X176818472Y-85717195D01*
X176584428Y-85553316D02*
X177158005Y-84734164D01*
X177154080Y-84905812D01*
X177177468Y-85038452D01*
X177228169Y-85132086D01*
X176416867Y-84215213D02*
X176338853Y-84160587D01*
X176233525Y-84144968D01*
X176167205Y-84156662D01*
X176073571Y-84207363D01*
X175925311Y-84336079D01*
X175788745Y-84531115D01*
X175718500Y-84714458D01*
X175702881Y-84819785D01*
X175714575Y-84886106D01*
X175765276Y-84979739D01*
X175843291Y-85034365D01*
X175948618Y-85049985D01*
X176014939Y-85038290D01*
X176108572Y-84987589D01*
X176256832Y-84858873D01*
X176393398Y-84663837D01*
X176463643Y-84480495D01*
X176479263Y-84375167D01*
X176467568Y-84308847D01*
X176416867Y-84215213D01*
X175250494Y-83805435D02*
X174868110Y-84351536D01*
X175664035Y-83629943D02*
X175449374Y-84351617D01*
X174942280Y-83996546D01*
X173280373Y-77871076D02*
X173321834Y-77924143D01*
X173457823Y-77988817D01*
X173552351Y-78000424D01*
X173699947Y-77970570D01*
X173806081Y-77887648D01*
X173864952Y-77798923D01*
X173935429Y-77615670D01*
X173952839Y-77473878D01*
X173928788Y-77279018D01*
X173893131Y-77178687D01*
X173810209Y-77072552D01*
X173674220Y-77007878D01*
X173579692Y-76996271D01*
X173432097Y-77026125D01*
X173379029Y-77067586D01*
X172370748Y-77855341D02*
X172843389Y-77913374D01*
X172965259Y-76920828D01*
X172256297Y-76833779D02*
X171641864Y-76758336D01*
X171926286Y-77177072D01*
X171784494Y-77159662D01*
X171684162Y-77195319D01*
X171631095Y-77236780D01*
X171572224Y-77325505D01*
X171543208Y-77561826D01*
X171578865Y-77662157D01*
X171620326Y-77715224D01*
X171709051Y-77774095D01*
X171992636Y-77808915D01*
X172092967Y-77773257D01*
X172146035Y-77731797D01*
X173789837Y-74503299D02*
X174357006Y-74572938D01*
X174073421Y-74538119D02*
X174195291Y-73545572D01*
X174272409Y-73698971D01*
X174355330Y-73805106D01*
X174444055Y-73863977D01*
X173297273Y-73435310D02*
X173202744Y-73423703D01*
X173102413Y-73459361D01*
X173049345Y-73500821D01*
X172990475Y-73589546D01*
X172919997Y-73772799D01*
X172890981Y-74009120D01*
X172915032Y-74203980D01*
X172950689Y-74304311D01*
X172992150Y-74357378D01*
X173080875Y-74416249D01*
X173175403Y-74427856D01*
X173275735Y-74392198D01*
X173328802Y-74350737D01*
X173387673Y-74262013D01*
X173458150Y-74078759D01*
X173487167Y-73842439D01*
X173463116Y-73647579D01*
X173427458Y-73547248D01*
X173385997Y-73494180D01*
X173297273Y-73435310D01*
X172075047Y-73621076D02*
X171993801Y-74282773D01*
X172357794Y-73271979D02*
X172507065Y-74009958D01*
X171892631Y-73934515D01*
X168183964Y-69371797D02*
X168237032Y-69413257D01*
X168384628Y-69443112D01*
X168479156Y-69431505D01*
X168615145Y-69366831D01*
X168698066Y-69260696D01*
X168733724Y-69160365D01*
X168757775Y-68965505D01*
X168740365Y-68823713D01*
X168669887Y-68640460D01*
X168611017Y-68551735D01*
X168504882Y-68468813D01*
X168357286Y-68438959D01*
X168262758Y-68450565D01*
X168126769Y-68515239D01*
X168085308Y-68568307D01*
X167297553Y-69576588D02*
X167770194Y-69518555D01*
X167648325Y-68526008D01*
X166903706Y-68713389D02*
X166850638Y-68671929D01*
X166750307Y-68636271D01*
X166513986Y-68665288D01*
X166425261Y-68724158D01*
X166383801Y-68777226D01*
X166348143Y-68877557D01*
X166359750Y-68972085D01*
X166424424Y-69108074D01*
X167061233Y-69605604D01*
X166446799Y-69681047D01*
X167863557Y-65980806D02*
X168430727Y-65911167D01*
X168147142Y-65945986D02*
X168025273Y-64953440D01*
X168137211Y-65083626D01*
X168243345Y-65166548D01*
X168343677Y-65202205D01*
X167127255Y-65063703D02*
X167032726Y-65075310D01*
X166944002Y-65134180D01*
X166902541Y-65187248D01*
X166866883Y-65287579D01*
X166842832Y-65482439D01*
X166871849Y-65718759D01*
X166942326Y-65902013D01*
X167001197Y-65990737D01*
X167054264Y-66032198D01*
X167154596Y-66067856D01*
X167249124Y-66056249D01*
X167337849Y-65997378D01*
X167379310Y-65944311D01*
X167414967Y-65843980D01*
X167439018Y-65649120D01*
X167410002Y-65412799D01*
X167339524Y-65229546D01*
X167280654Y-65140821D01*
X167227586Y-65099361D01*
X167127255Y-65063703D01*
X165986275Y-65539634D02*
X166067521Y-66201332D01*
X166176169Y-65132505D02*
X166499539Y-65812450D01*
X165885106Y-65887893D01*
X159854299Y-63318069D02*
X159916517Y-63343840D01*
X160066722Y-63333166D01*
X160154711Y-63296720D01*
X160268471Y-63198056D01*
X160320013Y-63073622D01*
X160327561Y-62967410D01*
X160298664Y-62773210D01*
X160243995Y-62641227D01*
X160127108Y-62483473D01*
X160046668Y-62413708D01*
X159922233Y-62362165D01*
X159772028Y-62372840D01*
X159684039Y-62409286D01*
X159570279Y-62507949D01*
X159544508Y-62570167D01*
X159054854Y-63752295D02*
X159494797Y-63570065D01*
X159112114Y-62646185D01*
X158262958Y-64080310D02*
X158790889Y-63861633D01*
X158526923Y-63970971D02*
X158144240Y-63047092D01*
X158286897Y-63142629D01*
X158411332Y-63194171D01*
X158517543Y-63201719D01*
X158639342Y-60136034D02*
X159167273Y-59917357D01*
X158903307Y-60026696D02*
X158520624Y-59102816D01*
X158663282Y-59198353D01*
X158787716Y-59249895D01*
X158893928Y-59257444D01*
X157684733Y-59449053D02*
X157596744Y-59485499D01*
X157526979Y-59565940D01*
X157501208Y-59628157D01*
X157493660Y-59734369D01*
X157522557Y-59928569D01*
X157613672Y-60148540D01*
X157730559Y-60306294D01*
X157810999Y-60376060D01*
X157873216Y-60401831D01*
X157979428Y-60409379D01*
X158067416Y-60372933D01*
X158137182Y-60292493D01*
X158162953Y-60230275D01*
X158170501Y-60124064D01*
X158141604Y-59929864D01*
X158050489Y-59709892D01*
X157933602Y-59552138D01*
X157853162Y-59482373D01*
X157790945Y-59456602D01*
X157684733Y-59449053D01*
X156712438Y-60212589D02*
X156967560Y-60828508D01*
X156786625Y-59769520D02*
X157279941Y-60338318D01*
X156708016Y-60575218D01*
X150357036Y-61283914D02*
X150424379Y-61283914D01*
X150559066Y-61216570D01*
X150626410Y-61149227D01*
X150693753Y-61014540D01*
X150693753Y-60879853D01*
X150660081Y-60778837D01*
X150559066Y-60610479D01*
X150458051Y-60509463D01*
X150289692Y-60408448D01*
X150188677Y-60374776D01*
X150053990Y-60374776D01*
X149919303Y-60442120D01*
X149851959Y-60509463D01*
X149784616Y-60644150D01*
X149784616Y-60711494D01*
X149784616Y-61991020D02*
X150121333Y-61654303D01*
X149414227Y-60947196D01*
X148707120Y-61654303D02*
X148639776Y-61721646D01*
X148606105Y-61822662D01*
X148606105Y-61890005D01*
X148639776Y-61991020D01*
X148740792Y-62159379D01*
X148909150Y-62327738D01*
X149077509Y-62428753D01*
X149178524Y-62462425D01*
X149245868Y-62462425D01*
X149346883Y-62428753D01*
X149414227Y-62361410D01*
X149447898Y-62260394D01*
X149447898Y-62193051D01*
X149414227Y-62092036D01*
X149313211Y-61923677D01*
X149144853Y-61755318D01*
X148976494Y-61654303D01*
X148875479Y-61620631D01*
X148808135Y-61620631D01*
X148707120Y-61654303D01*
X148016849Y-58809040D02*
X148420910Y-58404979D01*
X148218879Y-58607009D02*
X147511772Y-57899902D01*
X147680131Y-57933574D01*
X147814818Y-57933574D01*
X147915833Y-57899902D01*
X146872009Y-58539666D02*
X146804666Y-58607009D01*
X146770994Y-58708024D01*
X146770994Y-58775368D01*
X146804666Y-58876383D01*
X146905681Y-59044742D01*
X147074040Y-59213101D01*
X147242398Y-59314116D01*
X147343414Y-59347788D01*
X147410757Y-59347788D01*
X147511772Y-59314116D01*
X147579116Y-59246772D01*
X147612788Y-59145757D01*
X147612788Y-59078414D01*
X147579116Y-58977398D01*
X147478101Y-58809040D01*
X147309742Y-58640681D01*
X147141383Y-58539666D01*
X147040368Y-58505994D01*
X146973024Y-58505994D01*
X146872009Y-58539666D01*
X146265918Y-59617162D02*
X146737322Y-60088566D01*
X146164902Y-59179429D02*
X146838337Y-59516146D01*
X146400605Y-59953879D01*
X102836666Y-75032380D02*
X103170000Y-74556190D01*
X103408095Y-75032380D02*
X103408095Y-74032380D01*
X103027142Y-74032380D01*
X102931904Y-74080000D01*
X102884285Y-74127619D01*
X102836666Y-74222857D01*
X102836666Y-74365714D01*
X102884285Y-74460952D01*
X102931904Y-74508571D01*
X103027142Y-74556190D01*
X103408095Y-74556190D01*
X102455714Y-74127619D02*
X102408095Y-74080000D01*
X102312857Y-74032380D01*
X102074761Y-74032380D01*
X101979523Y-74080000D01*
X101931904Y-74127619D01*
X101884285Y-74222857D01*
X101884285Y-74318095D01*
X101931904Y-74460952D01*
X102503333Y-75032380D01*
X101884285Y-75032380D01*
X108803809Y-73962380D02*
X108184761Y-73962380D01*
X108518095Y-74343333D01*
X108375238Y-74343333D01*
X108280000Y-74390952D01*
X108232380Y-74438571D01*
X108184761Y-74533809D01*
X108184761Y-74771904D01*
X108232380Y-74867142D01*
X108280000Y-74914761D01*
X108375238Y-74962380D01*
X108660952Y-74962380D01*
X108756190Y-74914761D01*
X108803809Y-74867142D01*
X107756190Y-74867142D02*
X107708571Y-74914761D01*
X107756190Y-74962380D01*
X107803809Y-74914761D01*
X107756190Y-74867142D01*
X107756190Y-74962380D01*
X107375238Y-73962380D02*
X106756190Y-73962380D01*
X107089523Y-74343333D01*
X106946666Y-74343333D01*
X106851428Y-74390952D01*
X106803809Y-74438571D01*
X106756190Y-74533809D01*
X106756190Y-74771904D01*
X106803809Y-74867142D01*
X106851428Y-74914761D01*
X106946666Y-74962380D01*
X107232380Y-74962380D01*
X107327619Y-74914761D01*
X107375238Y-74867142D01*
X106327619Y-74962380D02*
X106327619Y-73962380D01*
X106232380Y-74581428D02*
X105946666Y-74962380D01*
X105946666Y-74295714D02*
X106327619Y-74676666D01*
X105565714Y-74962380D02*
X105327619Y-74962380D01*
X105327619Y-74771904D01*
X105422857Y-74724285D01*
X105518095Y-74629047D01*
X105565714Y-74486190D01*
X105565714Y-74248095D01*
X105518095Y-74105238D01*
X105422857Y-74010000D01*
X105280000Y-73962380D01*
X105089523Y-73962380D01*
X104946666Y-74010000D01*
X104851428Y-74105238D01*
X104803809Y-74248095D01*
X104803809Y-74486190D01*
X104851428Y-74629047D01*
X104946666Y-74724285D01*
X105041904Y-74771904D01*
X105041904Y-74962380D01*
X104803809Y-74962380D01*
X111832380Y-64723333D02*
X111356190Y-64390000D01*
X111832380Y-64151904D02*
X110832380Y-64151904D01*
X110832380Y-64532857D01*
X110880000Y-64628095D01*
X110927619Y-64675714D01*
X111022857Y-64723333D01*
X111165714Y-64723333D01*
X111260952Y-64675714D01*
X111308571Y-64628095D01*
X111356190Y-64532857D01*
X111356190Y-64151904D01*
X111832380Y-65675714D02*
X111832380Y-65104285D01*
X111832380Y-65390000D02*
X110832380Y-65390000D01*
X110975238Y-65294761D01*
X111070476Y-65199523D01*
X111118095Y-65104285D01*
X109552380Y-66082857D02*
X109552380Y-66701904D01*
X109933333Y-66368571D01*
X109933333Y-66511428D01*
X109980952Y-66606666D01*
X110028571Y-66654285D01*
X110123809Y-66701904D01*
X110361904Y-66701904D01*
X110457142Y-66654285D01*
X110504761Y-66606666D01*
X110552380Y-66511428D01*
X110552380Y-66225714D01*
X110504761Y-66130476D01*
X110457142Y-66082857D01*
X109552380Y-67035238D02*
X109552380Y-67654285D01*
X109933333Y-67320952D01*
X109933333Y-67463809D01*
X109980952Y-67559047D01*
X110028571Y-67606666D01*
X110123809Y-67654285D01*
X110361904Y-67654285D01*
X110457142Y-67606666D01*
X110504761Y-67559047D01*
X110552380Y-67463809D01*
X110552380Y-67178095D01*
X110504761Y-67082857D01*
X110457142Y-67035238D01*
X109552380Y-68273333D02*
X109552380Y-68368571D01*
X109600000Y-68463809D01*
X109647619Y-68511428D01*
X109742857Y-68559047D01*
X109933333Y-68606666D01*
X110171428Y-68606666D01*
X110361904Y-68559047D01*
X110457142Y-68511428D01*
X110504761Y-68463809D01*
X110552380Y-68368571D01*
X110552380Y-68273333D01*
X110504761Y-68178095D01*
X110457142Y-68130476D01*
X110361904Y-68082857D01*
X110171428Y-68035238D01*
X109933333Y-68035238D01*
X109742857Y-68082857D01*
X109647619Y-68130476D01*
X109600000Y-68178095D01*
X109552380Y-68273333D01*
X110552380Y-68987619D02*
X110552380Y-69225714D01*
X110361904Y-69225714D01*
X110314285Y-69130476D01*
X110219047Y-69035238D01*
X110076190Y-68987619D01*
X109838095Y-68987619D01*
X109695238Y-69035238D01*
X109600000Y-69130476D01*
X109552380Y-69273333D01*
X109552380Y-69463809D01*
X109600000Y-69606666D01*
X109695238Y-69701904D01*
X109838095Y-69749523D01*
X110076190Y-69749523D01*
X110219047Y-69701904D01*
X110314285Y-69606666D01*
X110361904Y-69511428D01*
X110552380Y-69511428D01*
X110552380Y-69749523D01*
X147065904Y-133183380D02*
X147065904Y-133992904D01*
X147018285Y-134088142D01*
X146970666Y-134135761D01*
X146875428Y-134183380D01*
X146684952Y-134183380D01*
X146589714Y-134135761D01*
X146542095Y-134088142D01*
X146494476Y-133992904D01*
X146494476Y-133183380D01*
X145494476Y-134183380D02*
X146065904Y-134183380D01*
X145780190Y-134183380D02*
X145780190Y-133183380D01*
X145875428Y-133326238D01*
X145970666Y-133421476D01*
X146065904Y-133469095D01*
X157780190Y-136675761D02*
X157684952Y-136723380D01*
X157494476Y-136723380D01*
X157399238Y-136675761D01*
X157351619Y-136580523D01*
X157351619Y-136532904D01*
X157399238Y-136437666D01*
X157494476Y-136390047D01*
X157637333Y-136390047D01*
X157732571Y-136342428D01*
X157780190Y-136247190D01*
X157780190Y-136199571D01*
X157732571Y-136104333D01*
X157637333Y-136056714D01*
X157494476Y-136056714D01*
X157399238Y-136104333D01*
X157065904Y-136056714D02*
X156684952Y-136056714D01*
X156923047Y-135723380D02*
X156923047Y-136580523D01*
X156875428Y-136675761D01*
X156780190Y-136723380D01*
X156684952Y-136723380D01*
X156351619Y-136723380D02*
X156351619Y-136056714D01*
X156351619Y-136151952D02*
X156304000Y-136104333D01*
X156208761Y-136056714D01*
X156065904Y-136056714D01*
X155970666Y-136104333D01*
X155923047Y-136199571D01*
X155923047Y-136723380D01*
X155923047Y-136199571D02*
X155875428Y-136104333D01*
X155780190Y-136056714D01*
X155637333Y-136056714D01*
X155542095Y-136104333D01*
X155494476Y-136199571D01*
X155494476Y-136723380D01*
X155113523Y-135723380D02*
X154494476Y-135723380D01*
X154827809Y-136104333D01*
X154684952Y-136104333D01*
X154589714Y-136151952D01*
X154542095Y-136199571D01*
X154494476Y-136294809D01*
X154494476Y-136532904D01*
X154542095Y-136628142D01*
X154589714Y-136675761D01*
X154684952Y-136723380D01*
X154970666Y-136723380D01*
X155065904Y-136675761D01*
X155113523Y-136628142D01*
X154113523Y-135818619D02*
X154065904Y-135771000D01*
X153970666Y-135723380D01*
X153732571Y-135723380D01*
X153637333Y-135771000D01*
X153589714Y-135818619D01*
X153542095Y-135913857D01*
X153542095Y-136009095D01*
X153589714Y-136151952D01*
X154161142Y-136723380D01*
X153542095Y-136723380D01*
X153256380Y-136056714D02*
X152875428Y-136056714D01*
X153113523Y-136723380D02*
X153113523Y-135866238D01*
X153065904Y-135771000D01*
X152970666Y-135723380D01*
X152875428Y-135723380D01*
X152018285Y-136723380D02*
X152589714Y-136723380D01*
X152304000Y-136723380D02*
X152304000Y-135723380D01*
X152399238Y-135866238D01*
X152494476Y-135961476D01*
X152589714Y-136009095D01*
X151399238Y-135723380D02*
X151304000Y-135723380D01*
X151208761Y-135771000D01*
X151161142Y-135818619D01*
X151113523Y-135913857D01*
X151065904Y-136104333D01*
X151065904Y-136342428D01*
X151113523Y-136532904D01*
X151161142Y-136628142D01*
X151208761Y-136675761D01*
X151304000Y-136723380D01*
X151399238Y-136723380D01*
X151494476Y-136675761D01*
X151542095Y-136628142D01*
X151589714Y-136532904D01*
X151637333Y-136342428D01*
X151637333Y-136104333D01*
X151589714Y-135913857D01*
X151542095Y-135818619D01*
X151494476Y-135771000D01*
X151399238Y-135723380D01*
X150732571Y-135723380D02*
X150113523Y-135723380D01*
X150446857Y-136104333D01*
X150304000Y-136104333D01*
X150208761Y-136151952D01*
X150161142Y-136199571D01*
X150113523Y-136294809D01*
X150113523Y-136532904D01*
X150161142Y-136628142D01*
X150208761Y-136675761D01*
X150304000Y-136723380D01*
X150589714Y-136723380D01*
X150684952Y-136675761D01*
X150732571Y-136628142D01*
X149256380Y-136675761D02*
X149351619Y-136723380D01*
X149542095Y-136723380D01*
X149637333Y-136675761D01*
X149684952Y-136628142D01*
X149732571Y-136532904D01*
X149732571Y-136247190D01*
X149684952Y-136151952D01*
X149637333Y-136104333D01*
X149542095Y-136056714D01*
X149351619Y-136056714D01*
X149256380Y-136104333D01*
X148684952Y-136151952D02*
X148780190Y-136104333D01*
X148827809Y-136056714D01*
X148875428Y-135961476D01*
X148875428Y-135913857D01*
X148827809Y-135818619D01*
X148780190Y-135771000D01*
X148684952Y-135723380D01*
X148494476Y-135723380D01*
X148399238Y-135771000D01*
X148351619Y-135818619D01*
X148304000Y-135913857D01*
X148304000Y-135961476D01*
X148351619Y-136056714D01*
X148399238Y-136104333D01*
X148494476Y-136151952D01*
X148684952Y-136151952D01*
X148780190Y-136199571D01*
X148827809Y-136247190D01*
X148875428Y-136342428D01*
X148875428Y-136532904D01*
X148827809Y-136628142D01*
X148780190Y-136675761D01*
X148684952Y-136723380D01*
X148494476Y-136723380D01*
X148399238Y-136675761D01*
X148351619Y-136628142D01*
X148304000Y-136532904D01*
X148304000Y-136342428D01*
X148351619Y-136247190D01*
X148399238Y-136199571D01*
X148494476Y-136151952D01*
X148018285Y-136056714D02*
X147637333Y-136056714D01*
X147875428Y-135723380D02*
X147875428Y-136580523D01*
X147827809Y-136675761D01*
X147732571Y-136723380D01*
X147637333Y-136723380D01*
X146875428Y-135723380D02*
X147065904Y-135723380D01*
X147161142Y-135771000D01*
X147208761Y-135818619D01*
X147304000Y-135961476D01*
X147351619Y-136151952D01*
X147351619Y-136532904D01*
X147304000Y-136628142D01*
X147256380Y-136675761D01*
X147161142Y-136723380D01*
X146970666Y-136723380D01*
X146875428Y-136675761D01*
X146827809Y-136628142D01*
X146780190Y-136532904D01*
X146780190Y-136294809D01*
X146827809Y-136199571D01*
X146875428Y-136151952D01*
X146970666Y-136104333D01*
X147161142Y-136104333D01*
X147256380Y-136151952D01*
X147304000Y-136199571D01*
X147351619Y-136294809D01*
X146351619Y-136342428D02*
X145589714Y-136342428D01*
X145113523Y-136723380D02*
X145113523Y-136056714D01*
X145113523Y-136151952D02*
X145065904Y-136104333D01*
X144970666Y-136056714D01*
X144827809Y-136056714D01*
X144732571Y-136104333D01*
X144684952Y-136199571D01*
X144684952Y-136723380D01*
X144684952Y-136199571D02*
X144637333Y-136104333D01*
X144542095Y-136056714D01*
X144399238Y-136056714D01*
X144304000Y-136104333D01*
X144256380Y-136199571D01*
X144256380Y-136723380D01*
X143637333Y-136723380D02*
X143732571Y-136675761D01*
X143780190Y-136628142D01*
X143827809Y-136532904D01*
X143827809Y-136247190D01*
X143780190Y-136151952D01*
X143732571Y-136104333D01*
X143637333Y-136056714D01*
X143494476Y-136056714D01*
X143399238Y-136104333D01*
X143351619Y-136151952D01*
X143304000Y-136247190D01*
X143304000Y-136532904D01*
X143351619Y-136628142D01*
X143399238Y-136675761D01*
X143494476Y-136723380D01*
X143637333Y-136723380D01*
X142446857Y-136723380D02*
X142446857Y-135723380D01*
X142446857Y-136675761D02*
X142542095Y-136723380D01*
X142732571Y-136723380D01*
X142827809Y-136675761D01*
X142875428Y-136628142D01*
X142923047Y-136532904D01*
X142923047Y-136247190D01*
X142875428Y-136151952D01*
X142827809Y-136104333D01*
X142732571Y-136056714D01*
X142542095Y-136056714D01*
X142446857Y-136104333D01*
X141542095Y-136056714D02*
X141542095Y-136723380D01*
X141970666Y-136056714D02*
X141970666Y-136580523D01*
X141923047Y-136675761D01*
X141827809Y-136723380D01*
X141684952Y-136723380D01*
X141589714Y-136675761D01*
X141542095Y-136628142D01*
X140923047Y-136723380D02*
X141018285Y-136675761D01*
X141065904Y-136580523D01*
X141065904Y-135723380D01*
X140161142Y-136675761D02*
X140256380Y-136723380D01*
X140446857Y-136723380D01*
X140542095Y-136675761D01*
X140589714Y-136580523D01*
X140589714Y-136199571D01*
X140542095Y-136104333D01*
X140446857Y-136056714D01*
X140256380Y-136056714D01*
X140161142Y-136104333D01*
X140113523Y-136199571D01*
X140113523Y-136294809D01*
X140589714Y-136390047D01*
X139684952Y-136342428D02*
X138923047Y-136342428D01*
X138018285Y-136675761D02*
X138113523Y-136723380D01*
X138304000Y-136723380D01*
X138399238Y-136675761D01*
X138446857Y-136628142D01*
X138494476Y-136532904D01*
X138494476Y-136247190D01*
X138446857Y-136151952D01*
X138399238Y-136104333D01*
X138304000Y-136056714D01*
X138113523Y-136056714D01*
X138018285Y-136104333D01*
X137589714Y-136723380D02*
X137589714Y-135723380D01*
X137161142Y-136723380D02*
X137161142Y-136199571D01*
X137208761Y-136104333D01*
X137304000Y-136056714D01*
X137446857Y-136056714D01*
X137542095Y-136104333D01*
X137589714Y-136151952D01*
X136684952Y-136723380D02*
X136684952Y-136056714D01*
X136684952Y-135723380D02*
X136732571Y-135771000D01*
X136684952Y-135818619D01*
X136637333Y-135771000D01*
X136684952Y-135723380D01*
X136684952Y-135818619D01*
X136208761Y-136056714D02*
X136208761Y-136723380D01*
X136208761Y-136151952D02*
X136161142Y-136104333D01*
X136065904Y-136056714D01*
X135923047Y-136056714D01*
X135827809Y-136104333D01*
X135780190Y-136199571D01*
X135780190Y-136723380D01*
X134875428Y-136723380D02*
X134875428Y-136199571D01*
X134923047Y-136104333D01*
X135018285Y-136056714D01*
X135208761Y-136056714D01*
X135304000Y-136104333D01*
X134875428Y-136675761D02*
X134970666Y-136723380D01*
X135208761Y-136723380D01*
X135304000Y-136675761D01*
X135351619Y-136580523D01*
X135351619Y-136485285D01*
X135304000Y-136390047D01*
X135208761Y-136342428D01*
X134970666Y-136342428D01*
X134875428Y-136294809D01*
X134469238Y-141200047D02*
X134421619Y-141104809D01*
X134421619Y-140914333D01*
X134469238Y-140819095D01*
X134564476Y-140771476D01*
X134612095Y-140771476D01*
X134707333Y-140819095D01*
X134754952Y-140914333D01*
X134754952Y-141057190D01*
X134802571Y-141152428D01*
X134897809Y-141200047D01*
X134945428Y-141200047D01*
X135040666Y-141152428D01*
X135088285Y-141057190D01*
X135088285Y-140914333D01*
X135040666Y-140819095D01*
X134469238Y-139914333D02*
X134421619Y-140009571D01*
X134421619Y-140200047D01*
X134469238Y-140295285D01*
X134516857Y-140342904D01*
X134612095Y-140390523D01*
X134897809Y-140390523D01*
X134993047Y-140342904D01*
X135040666Y-140295285D01*
X135088285Y-140200047D01*
X135088285Y-140009571D01*
X135040666Y-139914333D01*
X135326380Y-139533380D02*
X135374000Y-139485761D01*
X135421619Y-139390523D01*
X135421619Y-139152428D01*
X135374000Y-139057190D01*
X135326380Y-139009571D01*
X135231142Y-138961952D01*
X135135904Y-138961952D01*
X134993047Y-139009571D01*
X134421619Y-139581000D01*
X134421619Y-138961952D01*
X131929238Y-141223857D02*
X131881619Y-141128619D01*
X131881619Y-140938142D01*
X131929238Y-140842904D01*
X132024476Y-140795285D01*
X132072095Y-140795285D01*
X132167333Y-140842904D01*
X132214952Y-140938142D01*
X132214952Y-141081000D01*
X132262571Y-141176238D01*
X132357809Y-141223857D01*
X132405428Y-141223857D01*
X132500666Y-141176238D01*
X132548285Y-141081000D01*
X132548285Y-140938142D01*
X132500666Y-140842904D01*
X131881619Y-139938142D02*
X132881619Y-139938142D01*
X131929238Y-139938142D02*
X131881619Y-140033380D01*
X131881619Y-140223857D01*
X131929238Y-140319095D01*
X131976857Y-140366714D01*
X132072095Y-140414333D01*
X132357809Y-140414333D01*
X132453047Y-140366714D01*
X132500666Y-140319095D01*
X132548285Y-140223857D01*
X132548285Y-140033380D01*
X132500666Y-139938142D01*
X132786380Y-139509571D02*
X132834000Y-139461952D01*
X132881619Y-139366714D01*
X132881619Y-139128619D01*
X132834000Y-139033380D01*
X132786380Y-138985761D01*
X132691142Y-138938142D01*
X132595904Y-138938142D01*
X132453047Y-138985761D01*
X131881619Y-139557190D01*
X131881619Y-138938142D01*
X131151142Y-129484380D02*
X131151142Y-128817714D01*
X131151142Y-128912952D02*
X131103523Y-128865333D01*
X131008285Y-128817714D01*
X130865428Y-128817714D01*
X130770190Y-128865333D01*
X130722571Y-128960571D01*
X130722571Y-129484380D01*
X130722571Y-128960571D02*
X130674952Y-128865333D01*
X130579714Y-128817714D01*
X130436857Y-128817714D01*
X130341619Y-128865333D01*
X130294000Y-128960571D01*
X130294000Y-129484380D01*
X129674952Y-129484380D02*
X129770190Y-129436761D01*
X129817809Y-129389142D01*
X129865428Y-129293904D01*
X129865428Y-129008190D01*
X129817809Y-128912952D01*
X129770190Y-128865333D01*
X129674952Y-128817714D01*
X129532095Y-128817714D01*
X129436857Y-128865333D01*
X129389238Y-128912952D01*
X129341619Y-129008190D01*
X129341619Y-129293904D01*
X129389238Y-129389142D01*
X129436857Y-129436761D01*
X129532095Y-129484380D01*
X129674952Y-129484380D01*
X128960666Y-128579619D02*
X128913047Y-128532000D01*
X128817809Y-128484380D01*
X128579714Y-128484380D01*
X128484476Y-128532000D01*
X128436857Y-128579619D01*
X128389238Y-128674857D01*
X128389238Y-128770095D01*
X128436857Y-128912952D01*
X129008285Y-129484380D01*
X128389238Y-129484380D01*
X127730190Y-129484380D02*
X127730190Y-128817714D01*
X127730190Y-128484380D02*
X127777809Y-128532000D01*
X127730190Y-128579619D01*
X127682571Y-128532000D01*
X127730190Y-128484380D01*
X127730190Y-128579619D01*
X127301619Y-128579619D02*
X127254000Y-128532000D01*
X127158761Y-128484380D01*
X126920666Y-128484380D01*
X126825428Y-128532000D01*
X126777809Y-128579619D01*
X126730190Y-128674857D01*
X126730190Y-128770095D01*
X126777809Y-128912952D01*
X127349238Y-129484380D01*
X126730190Y-129484380D01*
X124952095Y-129436761D02*
X125047333Y-129484380D01*
X125237809Y-129484380D01*
X125333047Y-129436761D01*
X125380666Y-129389142D01*
X125428285Y-129293904D01*
X125428285Y-129008190D01*
X125380666Y-128912952D01*
X125333047Y-128865333D01*
X125237809Y-128817714D01*
X125047333Y-128817714D01*
X124952095Y-128865333D01*
X124571142Y-128579619D02*
X124523523Y-128532000D01*
X124428285Y-128484380D01*
X124190190Y-128484380D01*
X124094952Y-128532000D01*
X124047333Y-128579619D01*
X123999714Y-128674857D01*
X123999714Y-128770095D01*
X124047333Y-128912952D01*
X124618761Y-129484380D01*
X123999714Y-129484380D01*
X123185238Y-129436761D02*
X123090000Y-129484380D01*
X122899523Y-129484380D01*
X122804285Y-129436761D01*
X122756666Y-129341523D01*
X122756666Y-129293904D01*
X122804285Y-129198666D01*
X122899523Y-129151047D01*
X123042380Y-129151047D01*
X123137619Y-129103428D01*
X123185238Y-129008190D01*
X123185238Y-128960571D01*
X123137619Y-128865333D01*
X123042380Y-128817714D01*
X122899523Y-128817714D01*
X122804285Y-128865333D01*
X122375714Y-129436761D02*
X122280476Y-129484380D01*
X122090000Y-129484380D01*
X121994761Y-129436761D01*
X121947142Y-129341523D01*
X121947142Y-129293904D01*
X121994761Y-129198666D01*
X122090000Y-129151047D01*
X122232857Y-129151047D01*
X122328095Y-129103428D01*
X122375714Y-129008190D01*
X122375714Y-128960571D01*
X122328095Y-128865333D01*
X122232857Y-128817714D01*
X122090000Y-128817714D01*
X121994761Y-128865333D01*
X121566190Y-128579619D02*
X121518571Y-128532000D01*
X121423333Y-128484380D01*
X121185238Y-128484380D01*
X121090000Y-128532000D01*
X121042380Y-128579619D01*
X120994761Y-128674857D01*
X120994761Y-128770095D01*
X121042380Y-128912952D01*
X121613809Y-129484380D01*
X120994761Y-129484380D01*
X157995904Y-129484380D02*
X157995904Y-128484380D01*
X157995904Y-129436761D02*
X158091142Y-129484380D01*
X158281619Y-129484380D01*
X158376857Y-129436761D01*
X158424476Y-129389142D01*
X158472095Y-129293904D01*
X158472095Y-129008190D01*
X158424476Y-128912952D01*
X158376857Y-128865333D01*
X158281619Y-128817714D01*
X158091142Y-128817714D01*
X157995904Y-128865333D01*
X156995904Y-129484380D02*
X157567333Y-129484380D01*
X157281619Y-129484380D02*
X157281619Y-128484380D01*
X157376857Y-128627238D01*
X157472095Y-128722476D01*
X157567333Y-128770095D01*
X156313047Y-129436761D02*
X156217809Y-129484380D01*
X156027333Y-129484380D01*
X155932095Y-129436761D01*
X155884476Y-129341523D01*
X155884476Y-129293904D01*
X155932095Y-129198666D01*
X156027333Y-129151047D01*
X156170190Y-129151047D01*
X156265428Y-129103428D01*
X156313047Y-129008190D01*
X156313047Y-128960571D01*
X156265428Y-128865333D01*
X156170190Y-128817714D01*
X156027333Y-128817714D01*
X155932095Y-128865333D01*
X155027333Y-129436761D02*
X155122571Y-129484380D01*
X155313047Y-129484380D01*
X155408285Y-129436761D01*
X155455904Y-129389142D01*
X155503523Y-129293904D01*
X155503523Y-129008190D01*
X155455904Y-128912952D01*
X155408285Y-128865333D01*
X155313047Y-128817714D01*
X155122571Y-128817714D01*
X155027333Y-128865333D01*
X154074952Y-129484380D02*
X154646380Y-129484380D01*
X154360666Y-129484380D02*
X154360666Y-128484380D01*
X154455904Y-128627238D01*
X154551142Y-128722476D01*
X154646380Y-128770095D01*
X155828904Y-146772380D02*
X155257476Y-146772380D01*
X155543190Y-147772380D02*
X155543190Y-146772380D01*
X154971761Y-146867619D02*
X154924142Y-146820000D01*
X154828904Y-146772380D01*
X154590809Y-146772380D01*
X154495571Y-146820000D01*
X154447952Y-146867619D01*
X154400333Y-146962857D01*
X154400333Y-147058095D01*
X154447952Y-147200952D01*
X155019380Y-147772380D01*
X154400333Y-147772380D01*
X152693666Y-147772380D02*
X153027000Y-147296190D01*
X153265095Y-147772380D02*
X153265095Y-146772380D01*
X152884142Y-146772380D01*
X152788904Y-146820000D01*
X152741285Y-146867619D01*
X152693666Y-146962857D01*
X152693666Y-147105714D01*
X152741285Y-147200952D01*
X152788904Y-147248571D01*
X152884142Y-147296190D01*
X153265095Y-147296190D01*
X152312714Y-146867619D02*
X152265095Y-146820000D01*
X152169857Y-146772380D01*
X151931761Y-146772380D01*
X151836523Y-146820000D01*
X151788904Y-146867619D01*
X151741285Y-146962857D01*
X151741285Y-147058095D01*
X151788904Y-147200952D01*
X152360333Y-147772380D01*
X151741285Y-147772380D01*
X151082238Y-147724761D02*
X150987000Y-147772380D01*
X150796523Y-147772380D01*
X150701285Y-147724761D01*
X150653666Y-147629523D01*
X150653666Y-147581904D01*
X150701285Y-147486666D01*
X150796523Y-147439047D01*
X150939380Y-147439047D01*
X151034619Y-147391428D01*
X151082238Y-147296190D01*
X151082238Y-147248571D01*
X151034619Y-147153333D01*
X150939380Y-147105714D01*
X150796523Y-147105714D01*
X150701285Y-147153333D01*
X150272714Y-147724761D02*
X150177476Y-147772380D01*
X149987000Y-147772380D01*
X149891761Y-147724761D01*
X149844142Y-147629523D01*
X149844142Y-147581904D01*
X149891761Y-147486666D01*
X149987000Y-147439047D01*
X150129857Y-147439047D01*
X150225095Y-147391428D01*
X150272714Y-147296190D01*
X150272714Y-147248571D01*
X150225095Y-147153333D01*
X150129857Y-147105714D01*
X149987000Y-147105714D01*
X149891761Y-147153333D01*
X148891761Y-147772380D02*
X149463190Y-147772380D01*
X149177476Y-147772380D02*
X149177476Y-146772380D01*
X149272714Y-146915238D01*
X149367952Y-147010476D01*
X149463190Y-147058095D01*
X147685095Y-147724761D02*
X147780333Y-147772380D01*
X147970809Y-147772380D01*
X148066047Y-147724761D01*
X148113666Y-147677142D01*
X148161285Y-147581904D01*
X148161285Y-147296190D01*
X148113666Y-147200952D01*
X148066047Y-147153333D01*
X147970809Y-147105714D01*
X147780333Y-147105714D01*
X147685095Y-147153333D01*
X146732714Y-147772380D02*
X147304142Y-147772380D01*
X147018428Y-147772380D02*
X147018428Y-146772380D01*
X147113666Y-146915238D01*
X147208904Y-147010476D01*
X147304142Y-147058095D01*
X145383190Y-147772380D02*
X145383190Y-147105714D01*
X145383190Y-146772380D02*
X145430809Y-146820000D01*
X145383190Y-146867619D01*
X145335571Y-146820000D01*
X145383190Y-146772380D01*
X145383190Y-146867619D01*
X144383190Y-147772380D02*
X144954619Y-147772380D01*
X144668904Y-147772380D02*
X144668904Y-146772380D01*
X144764142Y-146915238D01*
X144859380Y-147010476D01*
X144954619Y-147058095D01*
X143724142Y-147772380D02*
X143724142Y-147105714D01*
X143724142Y-147200952D02*
X143676523Y-147153333D01*
X143581285Y-147105714D01*
X143438428Y-147105714D01*
X143343190Y-147153333D01*
X143295571Y-147248571D01*
X143295571Y-147772380D01*
X143295571Y-147248571D02*
X143247952Y-147153333D01*
X143152714Y-147105714D01*
X143009857Y-147105714D01*
X142914619Y-147153333D01*
X142867000Y-147248571D01*
X142867000Y-147772380D01*
X142247952Y-147772380D02*
X142343190Y-147724761D01*
X142390809Y-147677142D01*
X142438428Y-147581904D01*
X142438428Y-147296190D01*
X142390809Y-147200952D01*
X142343190Y-147153333D01*
X142247952Y-147105714D01*
X142105095Y-147105714D01*
X142009857Y-147153333D01*
X141962238Y-147200952D01*
X141914619Y-147296190D01*
X141914619Y-147581904D01*
X141962238Y-147677142D01*
X142009857Y-147724761D01*
X142105095Y-147772380D01*
X142247952Y-147772380D01*
X140962238Y-147772380D02*
X141533666Y-147772380D01*
X141247952Y-147772380D02*
X141247952Y-146772380D01*
X141343190Y-146915238D01*
X141438428Y-147010476D01*
X141533666Y-147058095D01*
X135635904Y-146899380D02*
X135064476Y-146899380D01*
X135350190Y-147899380D02*
X135350190Y-146899380D01*
X134826380Y-146899380D02*
X134207333Y-146899380D01*
X134540666Y-147280333D01*
X134397809Y-147280333D01*
X134302571Y-147327952D01*
X134254952Y-147375571D01*
X134207333Y-147470809D01*
X134207333Y-147708904D01*
X134254952Y-147804142D01*
X134302571Y-147851761D01*
X134397809Y-147899380D01*
X134683523Y-147899380D01*
X134778761Y-147851761D01*
X134826380Y-147804142D01*
X132500666Y-147899380D02*
X132834000Y-147423190D01*
X133072095Y-147899380D02*
X133072095Y-146899380D01*
X132691142Y-146899380D01*
X132595904Y-146947000D01*
X132548285Y-146994619D01*
X132500666Y-147089857D01*
X132500666Y-147232714D01*
X132548285Y-147327952D01*
X132595904Y-147375571D01*
X132691142Y-147423190D01*
X133072095Y-147423190D01*
X132167333Y-146899380D02*
X131548285Y-146899380D01*
X131881619Y-147280333D01*
X131738761Y-147280333D01*
X131643523Y-147327952D01*
X131595904Y-147375571D01*
X131548285Y-147470809D01*
X131548285Y-147708904D01*
X131595904Y-147804142D01*
X131643523Y-147851761D01*
X131738761Y-147899380D01*
X132024476Y-147899380D01*
X132119714Y-147851761D01*
X132167333Y-147804142D01*
X162885428Y-129389142D02*
X162933047Y-129436761D01*
X163075904Y-129484380D01*
X163171142Y-129484380D01*
X163314000Y-129436761D01*
X163409238Y-129341523D01*
X163456857Y-129246285D01*
X163504476Y-129055809D01*
X163504476Y-128912952D01*
X163456857Y-128722476D01*
X163409238Y-128627238D01*
X163314000Y-128532000D01*
X163171142Y-128484380D01*
X163075904Y-128484380D01*
X162933047Y-128532000D01*
X162885428Y-128579619D01*
X162599714Y-128484380D02*
X162028285Y-128484380D01*
X162314000Y-129484380D02*
X162314000Y-128484380D01*
X160464476Y-129389142D02*
X160512095Y-129436761D01*
X160654952Y-129484380D01*
X160750190Y-129484380D01*
X160893047Y-129436761D01*
X160988285Y-129341523D01*
X161035904Y-129246285D01*
X161083523Y-129055809D01*
X161083523Y-128912952D01*
X161035904Y-128722476D01*
X160988285Y-128627238D01*
X160893047Y-128532000D01*
X160750190Y-128484380D01*
X160654952Y-128484380D01*
X160512095Y-128532000D01*
X160464476Y-128579619D01*
X159464476Y-129484380D02*
X159797809Y-129008190D01*
X160035904Y-129484380D02*
X160035904Y-128484380D01*
X159654952Y-128484380D01*
X159559714Y-128532000D01*
X159512095Y-128579619D01*
X159464476Y-128674857D01*
X159464476Y-128817714D01*
X159512095Y-128912952D01*
X159559714Y-128960571D01*
X159654952Y-129008190D01*
X160035904Y-129008190D01*
X143398761Y-128484380D02*
X143398761Y-129293904D01*
X143351142Y-129389142D01*
X143303523Y-129436761D01*
X143208285Y-129484380D01*
X143017809Y-129484380D01*
X142922571Y-129436761D01*
X142874952Y-129389142D01*
X142827333Y-129293904D01*
X142827333Y-128484380D01*
X142351142Y-129103428D02*
X141589238Y-129103428D01*
X141970190Y-129484380D02*
X141970190Y-128722476D01*
X140858761Y-128484380D02*
X140858761Y-129293904D01*
X140811142Y-129389142D01*
X140763523Y-129436761D01*
X140668285Y-129484380D01*
X140477809Y-129484380D01*
X140382571Y-129436761D01*
X140334952Y-129389142D01*
X140287333Y-129293904D01*
X140287333Y-128484380D01*
X139811142Y-129103428D02*
X139049238Y-129103428D01*
X137453666Y-129484380D02*
X137787000Y-129008190D01*
X138025095Y-129484380D02*
X138025095Y-128484380D01*
X137644142Y-128484380D01*
X137548904Y-128532000D01*
X137501285Y-128579619D01*
X137453666Y-128674857D01*
X137453666Y-128817714D01*
X137501285Y-128912952D01*
X137548904Y-128960571D01*
X137644142Y-129008190D01*
X138025095Y-129008190D01*
X136501285Y-129484380D02*
X137072714Y-129484380D01*
X136787000Y-129484380D02*
X136787000Y-128484380D01*
X136882238Y-128627238D01*
X136977476Y-128722476D01*
X137072714Y-128770095D01*
X135508904Y-128484380D02*
X134937476Y-128484380D01*
X135223190Y-129484380D02*
X135223190Y-128484380D01*
X134080333Y-129484380D02*
X134651761Y-129484380D01*
X134366047Y-129484380D02*
X134366047Y-128484380D01*
X134461285Y-128627238D01*
X134556523Y-128722476D01*
X134651761Y-128770095D01*
X171608619Y-130643380D02*
X170989571Y-130643380D01*
X171322904Y-131024333D01*
X171180047Y-131024333D01*
X171084809Y-131071952D01*
X171037190Y-131119571D01*
X170989571Y-131214809D01*
X170989571Y-131452904D01*
X171037190Y-131548142D01*
X171084809Y-131595761D01*
X171180047Y-131643380D01*
X171465761Y-131643380D01*
X171561000Y-131595761D01*
X171608619Y-131548142D01*
X170561000Y-131548142D02*
X170513380Y-131595761D01*
X170561000Y-131643380D01*
X170608619Y-131595761D01*
X170561000Y-131548142D01*
X170561000Y-131643380D01*
X170180047Y-130643380D02*
X169561000Y-130643380D01*
X169894333Y-131024333D01*
X169751476Y-131024333D01*
X169656238Y-131071952D01*
X169608619Y-131119571D01*
X169561000Y-131214809D01*
X169561000Y-131452904D01*
X169608619Y-131548142D01*
X169656238Y-131595761D01*
X169751476Y-131643380D01*
X170037190Y-131643380D01*
X170132428Y-131595761D01*
X170180047Y-131548142D01*
X171283047Y-134135761D02*
X171140190Y-134183380D01*
X170902095Y-134183380D01*
X170806857Y-134135761D01*
X170759238Y-134088142D01*
X170711619Y-133992904D01*
X170711619Y-133897666D01*
X170759238Y-133802428D01*
X170806857Y-133754809D01*
X170902095Y-133707190D01*
X171092571Y-133659571D01*
X171187809Y-133611952D01*
X171235428Y-133564333D01*
X171283047Y-133469095D01*
X171283047Y-133373857D01*
X171235428Y-133278619D01*
X171187809Y-133231000D01*
X171092571Y-133183380D01*
X170854476Y-133183380D01*
X170711619Y-133231000D01*
X170378285Y-133183380D02*
X170140190Y-134183380D01*
X169949714Y-133469095D01*
X169759238Y-134183380D01*
X169521142Y-133183380D01*
X169140190Y-134183380D02*
X169140190Y-133183380D01*
X168902095Y-133183380D01*
X168759238Y-133231000D01*
X168664000Y-133326238D01*
X168616380Y-133421476D01*
X168568761Y-133611952D01*
X168568761Y-133754809D01*
X168616380Y-133945285D01*
X168664000Y-134040523D01*
X168759238Y-134135761D01*
X168902095Y-134183380D01*
X169140190Y-134183380D01*
X168140190Y-134183380D02*
X168140190Y-133183380D01*
X167473523Y-133183380D02*
X167283047Y-133183380D01*
X167187809Y-133231000D01*
X167092571Y-133326238D01*
X167044952Y-133516714D01*
X167044952Y-133850047D01*
X167092571Y-134040523D01*
X167187809Y-134135761D01*
X167283047Y-134183380D01*
X167473523Y-134183380D01*
X167568761Y-134135761D01*
X167664000Y-134040523D01*
X167711619Y-133850047D01*
X167711619Y-133516714D01*
X167664000Y-133326238D01*
X167568761Y-133231000D01*
X167473523Y-133183380D01*
X171425904Y-136675761D02*
X171283047Y-136723380D01*
X171044952Y-136723380D01*
X170949714Y-136675761D01*
X170902095Y-136628142D01*
X170854476Y-136532904D01*
X170854476Y-136437666D01*
X170902095Y-136342428D01*
X170949714Y-136294809D01*
X171044952Y-136247190D01*
X171235428Y-136199571D01*
X171330666Y-136151952D01*
X171378285Y-136104333D01*
X171425904Y-136009095D01*
X171425904Y-135913857D01*
X171378285Y-135818619D01*
X171330666Y-135771000D01*
X171235428Y-135723380D01*
X170997333Y-135723380D01*
X170854476Y-135771000D01*
X170521142Y-135723380D02*
X170283047Y-136723380D01*
X170092571Y-136009095D01*
X169902095Y-136723380D01*
X169664000Y-135723380D01*
X168711619Y-136628142D02*
X168759238Y-136675761D01*
X168902095Y-136723380D01*
X168997333Y-136723380D01*
X169140190Y-136675761D01*
X169235428Y-136580523D01*
X169283047Y-136485285D01*
X169330666Y-136294809D01*
X169330666Y-136151952D01*
X169283047Y-135961476D01*
X169235428Y-135866238D01*
X169140190Y-135771000D01*
X168997333Y-135723380D01*
X168902095Y-135723380D01*
X168759238Y-135771000D01*
X168711619Y-135818619D01*
X167806857Y-136723380D02*
X168283047Y-136723380D01*
X168283047Y-135723380D01*
X167473523Y-136723380D02*
X167473523Y-135723380D01*
X166902095Y-136723380D02*
X167330666Y-136151952D01*
X166902095Y-135723380D02*
X167473523Y-136294809D01*
X169925904Y-138311000D02*
X170021142Y-138263380D01*
X170164000Y-138263380D01*
X170306857Y-138311000D01*
X170402095Y-138406238D01*
X170449714Y-138501476D01*
X170497333Y-138691952D01*
X170497333Y-138834809D01*
X170449714Y-139025285D01*
X170402095Y-139120523D01*
X170306857Y-139215761D01*
X170164000Y-139263380D01*
X170068761Y-139263380D01*
X169925904Y-139215761D01*
X169878285Y-139168142D01*
X169878285Y-138834809D01*
X170068761Y-138834809D01*
X169449714Y-139263380D02*
X169449714Y-138263380D01*
X168878285Y-139263380D01*
X168878285Y-138263380D01*
X168402095Y-139263380D02*
X168402095Y-138263380D01*
X168164000Y-138263380D01*
X168021142Y-138311000D01*
X167925904Y-138406238D01*
X167878285Y-138501476D01*
X167830666Y-138691952D01*
X167830666Y-138834809D01*
X167878285Y-139025285D01*
X167925904Y-139120523D01*
X168021142Y-139215761D01*
X168164000Y-139263380D01*
X168402095Y-139263380D01*
X171481619Y-128738380D02*
X170862571Y-128738380D01*
X171195904Y-129119333D01*
X171053047Y-129119333D01*
X170957809Y-129166952D01*
X170910190Y-129214571D01*
X170862571Y-129309809D01*
X170862571Y-129547904D01*
X170910190Y-129643142D01*
X170957809Y-129690761D01*
X171053047Y-129738380D01*
X171338761Y-129738380D01*
X171434000Y-129690761D01*
X171481619Y-129643142D01*
X170434000Y-129643142D02*
X170386380Y-129690761D01*
X170434000Y-129738380D01*
X170481619Y-129690761D01*
X170434000Y-129643142D01*
X170434000Y-129738380D01*
X170053047Y-128738380D02*
X169434000Y-128738380D01*
X169767333Y-129119333D01*
X169624476Y-129119333D01*
X169529238Y-129166952D01*
X169481619Y-129214571D01*
X169434000Y-129309809D01*
X169434000Y-129547904D01*
X169481619Y-129643142D01*
X169529238Y-129690761D01*
X169624476Y-129738380D01*
X169910190Y-129738380D01*
X170005428Y-129690761D01*
X170053047Y-129643142D01*
X167632095Y-128786000D02*
X167727333Y-128738380D01*
X167870190Y-128738380D01*
X168013047Y-128786000D01*
X168108285Y-128881238D01*
X168155904Y-128976476D01*
X168203523Y-129166952D01*
X168203523Y-129309809D01*
X168155904Y-129500285D01*
X168108285Y-129595523D01*
X168013047Y-129690761D01*
X167870190Y-129738380D01*
X167774952Y-129738380D01*
X167632095Y-129690761D01*
X167584476Y-129643142D01*
X167584476Y-129309809D01*
X167774952Y-129309809D01*
X129738428Y-140247761D02*
X130595571Y-141533476D01*
X128833666Y-141295380D02*
X129167000Y-140819190D01*
X129405095Y-141295380D02*
X129405095Y-140295380D01*
X129024142Y-140295380D01*
X128928904Y-140343000D01*
X128881285Y-140390619D01*
X128833666Y-140485857D01*
X128833666Y-140628714D01*
X128881285Y-140723952D01*
X128928904Y-140771571D01*
X129024142Y-140819190D01*
X129405095Y-140819190D01*
X171608619Y-130643380D02*
X170989571Y-130643380D01*
X171322904Y-131024333D01*
X171180047Y-131024333D01*
X171084809Y-131071952D01*
X171037190Y-131119571D01*
X170989571Y-131214809D01*
X170989571Y-131452904D01*
X171037190Y-131548142D01*
X171084809Y-131595761D01*
X171180047Y-131643380D01*
X171465761Y-131643380D01*
X171561000Y-131595761D01*
X171608619Y-131548142D01*
X170561000Y-131548142D02*
X170513380Y-131595761D01*
X170561000Y-131643380D01*
X170608619Y-131595761D01*
X170561000Y-131548142D01*
X170561000Y-131643380D01*
X170180047Y-130643380D02*
X169561000Y-130643380D01*
X169894333Y-131024333D01*
X169751476Y-131024333D01*
X169656238Y-131071952D01*
X169608619Y-131119571D01*
X169561000Y-131214809D01*
X169561000Y-131452904D01*
X169608619Y-131548142D01*
X169656238Y-131595761D01*
X169751476Y-131643380D01*
X170037190Y-131643380D01*
X170132428Y-131595761D01*
X170180047Y-131548142D01*
X124452095Y-140216000D02*
X124547333Y-140168380D01*
X124690190Y-140168380D01*
X124833047Y-140216000D01*
X124928285Y-140311238D01*
X124975904Y-140406476D01*
X125023523Y-140596952D01*
X125023523Y-140739809D01*
X124975904Y-140930285D01*
X124928285Y-141025523D01*
X124833047Y-141120761D01*
X124690190Y-141168380D01*
X124594952Y-141168380D01*
X124452095Y-141120761D01*
X124404476Y-141073142D01*
X124404476Y-140739809D01*
X124594952Y-140739809D01*
X167632095Y-128532000D02*
X167727333Y-128484380D01*
X167870190Y-128484380D01*
X168013047Y-128532000D01*
X168108285Y-128627238D01*
X168155904Y-128722476D01*
X168203523Y-128912952D01*
X168203523Y-129055809D01*
X168155904Y-129246285D01*
X168108285Y-129341523D01*
X168013047Y-129436761D01*
X167870190Y-129484380D01*
X167774952Y-129484380D01*
X167632095Y-129436761D01*
X167584476Y-129389142D01*
X167584476Y-129055809D01*
X167774952Y-129055809D01*
X171140333Y-146772380D02*
X170807000Y-147772380D01*
X170473666Y-146772380D01*
X169807000Y-147248571D02*
X169664142Y-147296190D01*
X169616523Y-147343809D01*
X169568904Y-147439047D01*
X169568904Y-147581904D01*
X169616523Y-147677142D01*
X169664142Y-147724761D01*
X169759380Y-147772380D01*
X170140333Y-147772380D01*
X170140333Y-146772380D01*
X169807000Y-146772380D01*
X169711761Y-146820000D01*
X169664142Y-146867619D01*
X169616523Y-146962857D01*
X169616523Y-147058095D01*
X169664142Y-147153333D01*
X169711761Y-147200952D01*
X169807000Y-147248571D01*
X170140333Y-147248571D01*
X165544476Y-128484380D02*
X166020666Y-128484380D01*
X166068285Y-128960571D01*
X166020666Y-128912952D01*
X165925428Y-128865333D01*
X165687333Y-128865333D01*
X165592095Y-128912952D01*
X165544476Y-128960571D01*
X165496857Y-129055809D01*
X165496857Y-129293904D01*
X165544476Y-129389142D01*
X165592095Y-129436761D01*
X165687333Y-129484380D01*
X165925428Y-129484380D01*
X166020666Y-129436761D01*
X166068285Y-129389142D01*
X165211142Y-128484380D02*
X164877809Y-129484380D01*
X164544476Y-128484380D01*
X122721619Y-136262904D02*
X121912095Y-136262904D01*
X121816857Y-136215285D01*
X121769238Y-136167666D01*
X121721619Y-136072428D01*
X121721619Y-135881952D01*
X121769238Y-135786714D01*
X121816857Y-135739095D01*
X121912095Y-135691476D01*
X122721619Y-135691476D01*
X121769238Y-135262904D02*
X121721619Y-135120047D01*
X121721619Y-134881952D01*
X121769238Y-134786714D01*
X121816857Y-134739095D01*
X121912095Y-134691476D01*
X122007333Y-134691476D01*
X122102571Y-134739095D01*
X122150190Y-134786714D01*
X122197809Y-134881952D01*
X122245428Y-135072428D01*
X122293047Y-135167666D01*
X122340666Y-135215285D01*
X122435904Y-135262904D01*
X122531142Y-135262904D01*
X122626380Y-135215285D01*
X122674000Y-135167666D01*
X122721619Y-135072428D01*
X122721619Y-134834333D01*
X122674000Y-134691476D01*
X122245428Y-133929571D02*
X122197809Y-133786714D01*
X122150190Y-133739095D01*
X122054952Y-133691476D01*
X121912095Y-133691476D01*
X121816857Y-133739095D01*
X121769238Y-133786714D01*
X121721619Y-133881952D01*
X121721619Y-134262904D01*
X122721619Y-134262904D01*
X122721619Y-133929571D01*
X122674000Y-133834333D01*
X122626380Y-133786714D01*
X122531142Y-133739095D01*
X122435904Y-133739095D01*
X122340666Y-133786714D01*
X122293047Y-133834333D01*
X122245428Y-133929571D01*
X122245428Y-134262904D01*
X119078333Y-55332380D02*
X119078333Y-56046666D01*
X119125952Y-56189523D01*
X119221190Y-56284761D01*
X119364047Y-56332380D01*
X119459285Y-56332380D01*
X118411666Y-55332380D02*
X118316428Y-55332380D01*
X118221190Y-55380000D01*
X118173571Y-55427619D01*
X118125952Y-55522857D01*
X118078333Y-55713333D01*
X118078333Y-55951428D01*
X118125952Y-56141904D01*
X118173571Y-56237142D01*
X118221190Y-56284761D01*
X118316428Y-56332380D01*
X118411666Y-56332380D01*
X118506904Y-56284761D01*
X118554523Y-56237142D01*
X118602142Y-56141904D01*
X118649761Y-55951428D01*
X118649761Y-55713333D01*
X118602142Y-55522857D01*
X118554523Y-55427619D01*
X118506904Y-55380000D01*
X118411666Y-55332380D01*
X120697357Y-57109380D02*
X120697357Y-57918904D01*
X120649738Y-58014142D01*
X120602119Y-58061761D01*
X120506880Y-58109380D01*
X120316404Y-58109380D01*
X120221166Y-58061761D01*
X120173547Y-58014142D01*
X120125928Y-57918904D01*
X120125928Y-57109380D01*
X119697357Y-58061761D02*
X119554499Y-58109380D01*
X119316404Y-58109380D01*
X119221166Y-58061761D01*
X119173547Y-58014142D01*
X119125928Y-57918904D01*
X119125928Y-57823666D01*
X119173547Y-57728428D01*
X119221166Y-57680809D01*
X119316404Y-57633190D01*
X119506880Y-57585571D01*
X119602119Y-57537952D01*
X119649738Y-57490333D01*
X119697357Y-57395095D01*
X119697357Y-57299857D01*
X119649738Y-57204619D01*
X119602119Y-57157000D01*
X119506880Y-57109380D01*
X119268785Y-57109380D01*
X119125928Y-57157000D01*
X118364023Y-57585571D02*
X118221166Y-57633190D01*
X118173547Y-57680809D01*
X118125928Y-57776047D01*
X118125928Y-57918904D01*
X118173547Y-58014142D01*
X118221166Y-58061761D01*
X118316404Y-58109380D01*
X118697357Y-58109380D01*
X118697357Y-57109380D01*
X118364023Y-57109380D01*
X118268785Y-57157000D01*
X118221166Y-57204619D01*
X118173547Y-57299857D01*
X118173547Y-57395095D01*
X118221166Y-57490333D01*
X118268785Y-57537952D01*
X118364023Y-57585571D01*
X118697357Y-57585571D01*
X117935452Y-58204619D02*
X117173547Y-58204619D01*
X116602119Y-57585571D02*
X116459261Y-57633190D01*
X116411642Y-57680809D01*
X116364023Y-57776047D01*
X116364023Y-57918904D01*
X116411642Y-58014142D01*
X116459261Y-58061761D01*
X116554499Y-58109380D01*
X116935452Y-58109380D01*
X116935452Y-57109380D01*
X116602119Y-57109380D01*
X116506880Y-57157000D01*
X116459261Y-57204619D01*
X116411642Y-57299857D01*
X116411642Y-57395095D01*
X116459261Y-57490333D01*
X116506880Y-57537952D01*
X116602119Y-57585571D01*
X116935452Y-57585571D01*
M02*
