G04 #@! TF.GenerationSoftware,KiCad,Pcbnew,(6.0.0-rc1-dev-1127-g569d4a0f6)*
G04 #@! TF.CreationDate,2018-12-11T03:09:38-08:00*
G04 #@! TF.ProjectId,Stylish-Belt-Synth - Full,5374796c-6973-4682-9d42-656c742d5379,rev?*
G04 #@! TF.SameCoordinates,Original*
G04 #@! TF.FileFunction,Copper,L2,Bot*
G04 #@! TF.FilePolarity,Positive*
%FSLAX46Y46*%
G04 Gerber Fmt 4.6, Leading zero omitted, Abs format (unit mm)*
G04 Created by KiCad (PCBNEW (6.0.0-rc1-dev-1127-g569d4a0f6)) date 12/11/2018 3:09:38 AM*
%MOMM*%
%LPD*%
G01*
G04 APERTURE LIST*
G04 #@! TA.AperFunction,NonConductor*
%ADD10C,0.300000*%
G04 #@! TD*
%ADD11C,0.100000*%
G04 #@! TA.AperFunction,SMDPad,CuDef*
%ADD12R,1.270000X2.286000*%
G04 #@! TD*
G04 #@! TA.AperFunction,ComponentPad*
%ADD13C,1.600000*%
G04 #@! TD*
G04 #@! TA.AperFunction,ComponentPad*
%ADD14R,1.600000X1.600000*%
G04 #@! TD*
G04 #@! TA.AperFunction,ComponentPad*
%ADD15C,2.200000*%
G04 #@! TD*
G04 #@! TA.AperFunction,Conductor*
%ADD16C,2.200000*%
G04 #@! TD*
G04 #@! TA.AperFunction,ComponentPad*
%ADD17C,1.778000*%
G04 #@! TD*
G04 #@! TA.AperFunction,Conductor*
%ADD18C,1.778000*%
G04 #@! TD*
G04 #@! TA.AperFunction,BGAPad,CuDef*
%ADD19C,10.160000*%
G04 #@! TD*
G04 #@! TA.AperFunction,ComponentPad*
%ADD20R,1.700000X1.700000*%
G04 #@! TD*
G04 #@! TA.AperFunction,ComponentPad*
%ADD21O,1.700000X1.700000*%
G04 #@! TD*
G04 #@! TA.AperFunction,ComponentPad*
%ADD22O,1.600000X1.600000*%
G04 #@! TD*
G04 #@! TA.AperFunction,SMDPad,CuDef*
%ADD23R,2.286000X1.270000*%
G04 #@! TD*
G04 #@! TA.AperFunction,SMDPad,CuDef*
%ADD24C,1.250000*%
G04 #@! TD*
G04 #@! TA.AperFunction,Conductor*
%ADD25C,0.100000*%
G04 #@! TD*
G04 #@! TA.AperFunction,SMDPad,CuDef*
%ADD26R,1.250000X1.500000*%
G04 #@! TD*
G04 #@! TA.AperFunction,SMDPad,CuDef*
%ADD27R,3.048000X1.270000*%
G04 #@! TD*
G04 #@! TA.AperFunction,ComponentPad*
%ADD28O,1.400000X1.400000*%
G04 #@! TD*
G04 #@! TA.AperFunction,ComponentPad*
%ADD29C,1.400000*%
G04 #@! TD*
G04 #@! TA.AperFunction,SMDPad,CuDef*
%ADD30C,1.524000*%
G04 #@! TD*
G04 #@! TA.AperFunction,SMDPad,CuDef*
%ADD31R,1.524000X4.572000*%
G04 #@! TD*
G04 #@! TA.AperFunction,SMDPad,CuDef*
%ADD32R,0.508000X1.143000*%
G04 #@! TD*
G04 #@! TA.AperFunction,ComponentPad*
%ADD33C,2.700000*%
G04 #@! TD*
G04 #@! TA.AperFunction,ComponentPad*
%ADD34C,1.520000*%
G04 #@! TD*
G04 #@! TA.AperFunction,Conductor*
%ADD35C,1.600000*%
G04 #@! TD*
G04 #@! TA.AperFunction,ComponentPad*
%ADD36C,1.524000*%
G04 #@! TD*
G04 #@! TA.AperFunction,WasherPad*
%ADD37C,3.049000*%
G04 #@! TD*
G04 #@! TA.AperFunction,ViaPad*
%ADD38C,1.524000*%
G04 #@! TD*
G04 #@! TA.AperFunction,ViaPad*
%ADD39C,2.032000*%
G04 #@! TD*
G04 #@! TA.AperFunction,ViaPad*
%ADD40C,1.270000*%
G04 #@! TD*
G04 #@! TA.AperFunction,Conductor*
%ADD41C,1.270000*%
G04 #@! TD*
G04 #@! TA.AperFunction,Conductor*
%ADD42C,0.508000*%
G04 #@! TD*
G04 #@! TA.AperFunction,Conductor*
%ADD43C,0.381000*%
G04 #@! TD*
G04 #@! TA.AperFunction,Conductor*
%ADD44C,1.150000*%
G04 #@! TD*
G04 #@! TA.AperFunction,Conductor*
%ADD45C,1.524000*%
G04 #@! TD*
G04 #@! TA.AperFunction,Conductor*
%ADD46C,1.016000*%
G04 #@! TD*
G04 #@! TA.AperFunction,Conductor*
%ADD47C,0.762000*%
G04 #@! TD*
G04 APERTURE END LIST*
D10*
X192176400Y-93398114D02*
X192104971Y-93469542D01*
X192176400Y-93540971D01*
X192247828Y-93469542D01*
X192176400Y-93398114D01*
X192176400Y-93540971D01*
X201485428Y-89007142D02*
X200342571Y-89007142D01*
X200914000Y-89578571D02*
X200914000Y-88435714D01*
X194798169Y-62307354D02*
X194636545Y-62468979D01*
X194606240Y-62600299D01*
X194626443Y-62782126D01*
X194788068Y-63024563D01*
X195141621Y-63378116D01*
X195384058Y-63539740D01*
X195565885Y-63559943D01*
X195697205Y-63529639D01*
X195858829Y-63368014D01*
X195889134Y-63236695D01*
X195868931Y-63054867D01*
X195707307Y-62812431D01*
X195353753Y-62458877D01*
X195111317Y-62297253D01*
X194929489Y-62277050D01*
X194798169Y-62307354D01*
X194070859Y-63034664D02*
X194929489Y-63893294D01*
X194990098Y-64034715D01*
X195000200Y-64125629D01*
X194969895Y-64256949D01*
X194808271Y-64418573D01*
X194676951Y-64448878D01*
X194586037Y-64438776D01*
X194444616Y-64378167D01*
X193585986Y-63519537D01*
X193303143Y-63802380D02*
X192818270Y-64287253D01*
X194121367Y-65105477D02*
X193060707Y-64044817D01*
X193192027Y-65226695D02*
X192545529Y-65873193D01*
X193272839Y-65954005D02*
X192464717Y-65145883D01*
X194721969Y-58141754D02*
X194560345Y-58303379D01*
X194530040Y-58434699D01*
X194550243Y-58616526D01*
X194711868Y-58858963D01*
X195065421Y-59212516D01*
X195307858Y-59374140D01*
X195489685Y-59394343D01*
X195621005Y-59364039D01*
X195782629Y-59202414D01*
X195812934Y-59071095D01*
X195792731Y-58889267D01*
X195631107Y-58646831D01*
X195277553Y-58293277D01*
X195035117Y-58131653D01*
X194853289Y-58111450D01*
X194721969Y-58141754D01*
X193994659Y-58869064D02*
X194853289Y-59727694D01*
X194913898Y-59869115D01*
X194924000Y-59960029D01*
X194893695Y-60091349D01*
X194732071Y-60252973D01*
X194600751Y-60283278D01*
X194509837Y-60273176D01*
X194368416Y-60212567D01*
X193509786Y-59353937D01*
X193226943Y-59636780D02*
X192742070Y-60121653D01*
X194045167Y-60939877D02*
X192984507Y-59879217D01*
X193115827Y-61061095D02*
X192469329Y-61707593D01*
X190576085Y-59117800D02*
X190690371Y-59046371D01*
X190861800Y-59046371D01*
X191033228Y-59117800D01*
X191147514Y-59260657D01*
X191204657Y-59403514D01*
X191261800Y-59689228D01*
X191261800Y-59903514D01*
X191204657Y-60189228D01*
X191147514Y-60332085D01*
X191033228Y-60474942D01*
X190861800Y-60546371D01*
X190747514Y-60546371D01*
X190576085Y-60474942D01*
X190518942Y-60403514D01*
X190518942Y-59903514D01*
X190747514Y-59903514D01*
X190004657Y-60546371D02*
X190004657Y-59046371D01*
X189318942Y-60546371D01*
X189318942Y-59046371D01*
X188747514Y-60546371D02*
X188747514Y-59046371D01*
X188461800Y-59046371D01*
X188290371Y-59117800D01*
X188176085Y-59260657D01*
X188118942Y-59403514D01*
X188061800Y-59689228D01*
X188061800Y-59903514D01*
X188118942Y-60189228D01*
X188176085Y-60332085D01*
X188290371Y-60474942D01*
X188461800Y-60546371D01*
X188747514Y-60546371D01*
X191211000Y-63440571D02*
X190811000Y-64940571D01*
X190411000Y-63440571D01*
X189325285Y-64797714D02*
X189382428Y-64869142D01*
X189553857Y-64940571D01*
X189668142Y-64940571D01*
X189839571Y-64869142D01*
X189953857Y-64726285D01*
X190011000Y-64583428D01*
X190068142Y-64297714D01*
X190068142Y-64083428D01*
X190011000Y-63797714D01*
X189953857Y-63654857D01*
X189839571Y-63512000D01*
X189668142Y-63440571D01*
X189553857Y-63440571D01*
X189382428Y-63512000D01*
X189325285Y-63583428D01*
X188125285Y-64797714D02*
X188182428Y-64869142D01*
X188353857Y-64940571D01*
X188468142Y-64940571D01*
X188639571Y-64869142D01*
X188753857Y-64726285D01*
X188811000Y-64583428D01*
X188868142Y-64297714D01*
X188868142Y-64083428D01*
X188811000Y-63797714D01*
X188753857Y-63654857D01*
X188639571Y-63512000D01*
X188468142Y-63440571D01*
X188353857Y-63440571D01*
X188182428Y-63512000D01*
X188125285Y-63583428D01*
D11*
G36*
X192940000Y-96500000D02*
X193970000Y-95631000D01*
X197104000Y-95631000D01*
X197104000Y-98552000D01*
X192913000Y-98552000D01*
X192940000Y-96500000D01*
G37*
X192940000Y-96500000D02*
X193970000Y-95631000D01*
X197104000Y-95631000D01*
X197104000Y-98552000D01*
X192913000Y-98552000D01*
X192940000Y-96500000D01*
D10*
X190576085Y-66001200D02*
X190690371Y-65929771D01*
X190861800Y-65929771D01*
X191033228Y-66001200D01*
X191147514Y-66144057D01*
X191204657Y-66286914D01*
X191261800Y-66572628D01*
X191261800Y-66786914D01*
X191204657Y-67072628D01*
X191147514Y-67215485D01*
X191033228Y-67358342D01*
X190861800Y-67429771D01*
X190747514Y-67429771D01*
X190576085Y-67358342D01*
X190518942Y-67286914D01*
X190518942Y-66786914D01*
X190747514Y-66786914D01*
X190004657Y-67429771D02*
X190004657Y-65929771D01*
X189318942Y-67429771D01*
X189318942Y-65929771D01*
X188747514Y-67429771D02*
X188747514Y-65929771D01*
X188461800Y-65929771D01*
X188290371Y-66001200D01*
X188176085Y-66144057D01*
X188118942Y-66286914D01*
X188061800Y-66572628D01*
X188061800Y-66786914D01*
X188118942Y-67072628D01*
X188176085Y-67215485D01*
X188290371Y-67358342D01*
X188461800Y-67429771D01*
X188747514Y-67429771D01*
X191211000Y-55312571D02*
X190811000Y-56812571D01*
X190411000Y-55312571D01*
X189325285Y-56669714D02*
X189382428Y-56741142D01*
X189553857Y-56812571D01*
X189668142Y-56812571D01*
X189839571Y-56741142D01*
X189953857Y-56598285D01*
X190011000Y-56455428D01*
X190068142Y-56169714D01*
X190068142Y-55955428D01*
X190011000Y-55669714D01*
X189953857Y-55526857D01*
X189839571Y-55384000D01*
X189668142Y-55312571D01*
X189553857Y-55312571D01*
X189382428Y-55384000D01*
X189325285Y-55455428D01*
X188125285Y-56669714D02*
X188182428Y-56741142D01*
X188353857Y-56812571D01*
X188468142Y-56812571D01*
X188639571Y-56741142D01*
X188753857Y-56598285D01*
X188811000Y-56455428D01*
X188868142Y-56169714D01*
X188868142Y-55955428D01*
X188811000Y-55669714D01*
X188753857Y-55526857D01*
X188639571Y-55384000D01*
X188468142Y-55312571D01*
X188353857Y-55312571D01*
X188182428Y-55384000D01*
X188125285Y-55455428D01*
X201496364Y-57529433D02*
X201319250Y-57565258D01*
X201035665Y-57530438D01*
X200929195Y-57459793D01*
X200879442Y-57396112D01*
X200836653Y-57275715D01*
X200850581Y-57162281D01*
X200921226Y-57055811D01*
X200984907Y-57006058D01*
X201105305Y-56963269D01*
X201339136Y-56934408D01*
X201459534Y-56891619D01*
X201523215Y-56841866D01*
X201593860Y-56735396D01*
X201607788Y-56621962D01*
X201564999Y-56501564D01*
X201515246Y-56437883D01*
X201408776Y-56367239D01*
X201125191Y-56332419D01*
X200948076Y-56368244D01*
X200298345Y-57439907D02*
X200444588Y-56248851D01*
X199990853Y-56193140D01*
X199870455Y-56235929D01*
X199806774Y-56285681D01*
X199736129Y-56392151D01*
X199715237Y-56562302D01*
X199758026Y-56682700D01*
X199807779Y-56746381D01*
X199914249Y-56817026D01*
X200367985Y-56872737D01*
X199183893Y-56669777D02*
X198786875Y-56621029D01*
X198540120Y-57224024D02*
X199107290Y-57293663D01*
X199253533Y-56102608D01*
X198686364Y-56032968D01*
X198128169Y-56828011D02*
X197560999Y-56758371D01*
X198199819Y-57182240D02*
X197949044Y-55942437D01*
X197405782Y-57084745D01*
X197008763Y-57035997D02*
X197155007Y-55844941D01*
X196328160Y-56952429D02*
X196922180Y-56334502D01*
X196474404Y-55761374D02*
X197071439Y-56525544D01*
X195894312Y-56265867D02*
X195497293Y-56217120D01*
X195250539Y-56820114D02*
X195817708Y-56889754D01*
X195963951Y-55698698D01*
X195396782Y-55629059D01*
X194059483Y-56673871D02*
X194526141Y-56155449D01*
X194740086Y-56757438D02*
X194886330Y-55566383D01*
X194432594Y-55510671D01*
X194312196Y-55553460D01*
X194248516Y-55603213D01*
X194177871Y-55709683D01*
X194156979Y-55879834D01*
X194199768Y-56000232D01*
X194249521Y-56063912D01*
X194355991Y-56134557D01*
X194809726Y-56190269D01*
X169755428Y-119507142D02*
X169684000Y-119578571D01*
X169612571Y-119721428D01*
X169612571Y-120078571D01*
X169684000Y-120221428D01*
X169755428Y-120292857D01*
X169898285Y-120364285D01*
X170041142Y-120364285D01*
X170255428Y-120292857D01*
X171112571Y-119435714D01*
X171112571Y-120364285D01*
X169612571Y-121292857D02*
X169612571Y-121435714D01*
X169684000Y-121578571D01*
X169755428Y-121650000D01*
X169898285Y-121721428D01*
X170184000Y-121792857D01*
X170541142Y-121792857D01*
X170826857Y-121721428D01*
X170969714Y-121650000D01*
X171041142Y-121578571D01*
X171112571Y-121435714D01*
X171112571Y-121292857D01*
X171041142Y-121150000D01*
X170969714Y-121078571D01*
X170826857Y-121007142D01*
X170541142Y-120935714D01*
X170184000Y-120935714D01*
X169898285Y-121007142D01*
X169755428Y-121078571D01*
X169684000Y-121150000D01*
X169612571Y-121292857D01*
X119586428Y-125773571D02*
X120443571Y-125773571D01*
X120015000Y-125773571D02*
X120015000Y-124273571D01*
X120157857Y-124487857D01*
X120300714Y-124630714D01*
X120443571Y-124702142D01*
X107382000Y-147165142D02*
X107167714Y-147236571D01*
X106810571Y-147236571D01*
X106667714Y-147165142D01*
X106596285Y-147093714D01*
X106524857Y-146950857D01*
X106524857Y-146808000D01*
X106596285Y-146665142D01*
X106667714Y-146593714D01*
X106810571Y-146522285D01*
X107096285Y-146450857D01*
X107239142Y-146379428D01*
X107310571Y-146308000D01*
X107382000Y-146165142D01*
X107382000Y-146022285D01*
X107310571Y-145879428D01*
X107239142Y-145808000D01*
X107096285Y-145736571D01*
X106739142Y-145736571D01*
X106524857Y-145808000D01*
X106096285Y-145736571D02*
X105239142Y-145736571D01*
X105667714Y-147236571D02*
X105667714Y-145736571D01*
X104453428Y-146522285D02*
X104453428Y-147236571D01*
X104953428Y-145736571D02*
X104453428Y-146522285D01*
X103953428Y-145736571D01*
X102739142Y-147236571D02*
X103453428Y-147236571D01*
X103453428Y-145736571D01*
X102239142Y-145736571D02*
X102239142Y-146950857D01*
X102167714Y-147093714D01*
X102096285Y-147165142D01*
X101953428Y-147236571D01*
X101667714Y-147236571D01*
X101524857Y-147165142D01*
X101453428Y-147093714D01*
X101382000Y-146950857D01*
X101382000Y-145736571D01*
X100739142Y-147165142D02*
X100524857Y-147236571D01*
X100167714Y-147236571D01*
X100024857Y-147165142D01*
X99953428Y-147093714D01*
X99882000Y-146950857D01*
X99882000Y-146808000D01*
X99953428Y-146665142D01*
X100024857Y-146593714D01*
X100167714Y-146522285D01*
X100453428Y-146450857D01*
X100596285Y-146379428D01*
X100667714Y-146308000D01*
X100739142Y-146165142D01*
X100739142Y-146022285D01*
X100667714Y-145879428D01*
X100596285Y-145808000D01*
X100453428Y-145736571D01*
X100096285Y-145736571D01*
X99882000Y-145808000D01*
D12*
G04 #@! TO.P,CA3,2*
G04 #@! TO.N,GND*
X189865000Y-96901000D03*
D13*
X189865000Y-97710000D03*
G04 #@! TO.P,CA3,1*
G04 #@! TO.N,Net-(CA3-Pad1)*
X189865000Y-92710000D03*
D12*
X189865000Y-93599000D03*
G04 #@! TD*
D14*
G04 #@! TO.P,CA1,1*
G04 #@! TO.N,/+5V*
X197612000Y-88900000D03*
D13*
G04 #@! TO.P,CA1,2*
G04 #@! TO.N,GND*
X195112000Y-88900000D03*
G04 #@! TD*
D15*
G04 #@! TO.P,J1,1*
G04 #@! TO.N,/XH-M125-amp-board/OUT+*
X213230000Y-62890000D03*
D16*
G04 #@! TD*
G04 #@! TO.N,/XH-M125-amp-board/OUT+*
G04 #@! TO.C,J1*
X213537818Y-62044277D02*
X212922182Y-63735723D01*
D15*
G04 #@! TO.P,J1,4*
G04 #@! TO.N,Net-(J1-Pad4)*
X210263407Y-69578746D03*
D16*
G04 #@! TD*
G04 #@! TO.N,Net-(J1-Pad4)*
G04 #@! TO.C,J1*
X211109130Y-69886564D02*
X209417684Y-69270928D01*
D17*
G04 #@! TO.P,J1,5*
G04 #@! TO.N,Net-(J1-Pad4)*
X205566324Y-63186766D03*
D18*
G04 #@! TD*
G04 #@! TO.N,Net-(J1-Pad4)*
G04 #@! TO.C,J1*
X205913816Y-62232038D02*
X205218832Y-64141494D01*
D17*
G04 #@! TO.P,J1,2*
G04 #@! TO.N,/XH-M125-amp-board/OUT+*
X202618730Y-63390942D03*
D18*
G04 #@! TD*
G04 #@! TO.N,/XH-M125-amp-board/OUT+*
G04 #@! TO.C,J1*
X202966222Y-62436214D02*
X202271238Y-64345670D01*
D15*
G04 #@! TO.P,J1,3*
G04 #@! TO.N,/XH-M125-amp-board/OUT-*
X210241293Y-57651906D03*
D16*
G04 #@! TD*
G04 #@! TO.N,/XH-M125-amp-board/OUT-*
G04 #@! TO.C,J1*
X211087016Y-57959724D02*
X209395570Y-57344088D01*
D19*
G04 #@! TO.P,J30,1*
G04 #@! TO.N,GND*
X117475000Y-147320000D03*
G04 #@! TD*
D20*
G04 #@! TO.P,LS1,1*
G04 #@! TO.N,Net-(J1-Pad4)*
X197620000Y-61430000D03*
D21*
G04 #@! TO.P,LS1,2*
G04 #@! TO.N,/XH-M125-amp-board/OUT-*
X197620000Y-58890000D03*
G04 #@! TD*
D20*
G04 #@! TO.P,BT2,1*
G04 #@! TO.N,Net-(BT1-Pad2)*
X186055000Y-64135000D03*
D21*
G04 #@! TO.P,BT2,2*
G04 #@! TO.N,Net-(BT2-Pad2)*
X186055000Y-66675000D03*
G04 #@! TD*
D20*
G04 #@! TO.P,BT1,1*
G04 #@! TO.N,Net-(BT1-Pad1)*
X186055000Y-57150000D03*
D21*
G04 #@! TO.P,BT1,2*
G04 #@! TO.N,Net-(BT1-Pad2)*
X186055000Y-59690000D03*
G04 #@! TD*
D14*
G04 #@! TO.P,D1,1*
G04 #@! TO.N,Net-(D1-Pad1)*
X116078000Y-91694000D03*
D22*
G04 #@! TO.P,D1,2*
G04 #@! TO.N,/WRITE*
X116078000Y-84074000D03*
G04 #@! TD*
D23*
G04 #@! TO.P,CA4,2*
G04 #@! TO.N,/PWM_OUT*
X187579000Y-84836000D03*
D13*
X188388000Y-84836000D03*
G04 #@! TO.P,CA4,1*
G04 #@! TO.N,Net-(CA4-Pad1)*
X183388000Y-84836000D03*
D23*
X184277000Y-84836000D03*
G04 #@! TD*
G04 #@! TO.P,CA2,2*
G04 #@! TO.N,GND*
X193421000Y-85344000D03*
D13*
X192612000Y-85344000D03*
G04 #@! TO.P,CA2,1*
G04 #@! TO.N,/+5V*
X197612000Y-85344000D03*
D23*
X196723000Y-85344000D03*
G04 #@! TD*
D12*
G04 #@! TO.P,C1,2*
G04 #@! TO.N,Net-(C1-Pad2)*
X190500000Y-74549000D03*
D13*
X190500000Y-73740000D03*
G04 #@! TO.P,C1,1*
G04 #@! TO.N,/PWM_OUT*
X190500000Y-78740000D03*
D12*
X190500000Y-77851000D03*
G04 #@! TD*
D24*
G04 #@! TO.P,CL15,2*
G04 #@! TO.N,GND*
X138306661Y-60224848D03*
D25*
G04 #@! TD*
G04 #@! TO.N,GND*
G04 #@! TO.C,CL15*
G36*
X138849841Y-61036070D02*
X137606688Y-60905409D01*
X137763481Y-59413626D01*
X139006634Y-59544287D01*
X138849841Y-61036070D01*
X138849841Y-61036070D01*
G37*
D24*
G04 #@! TO.P,CL15,1*
G04 #@! TO.N,/+5V*
X138045339Y-62711152D03*
D25*
G04 #@! TD*
G04 #@! TO.N,/+5V*
G04 #@! TO.C,CL15*
G36*
X138588519Y-63522374D02*
X137345366Y-63391713D01*
X137502159Y-61899930D01*
X138745312Y-62030591D01*
X138588519Y-63522374D01*
X138588519Y-63522374D01*
G37*
D26*
G04 #@! TO.P,CL14,1*
G04 #@! TO.N,/+5V*
X129667000Y-68306000D03*
G04 #@! TO.P,CL14,2*
G04 #@! TO.N,GND*
X129667000Y-65806000D03*
G04 #@! TD*
D24*
G04 #@! TO.P,CL13,2*
G04 #@! TO.N,GND*
X122946000Y-74736468D03*
D25*
G04 #@! TD*
G04 #@! TO.N,GND*
G04 #@! TO.C,CL13*
G36*
X123862266Y-75073487D02*
X122779734Y-75698487D01*
X122029734Y-74399449D01*
X123112266Y-73774449D01*
X123862266Y-75073487D01*
X123862266Y-75073487D01*
G37*
D24*
G04 #@! TO.P,CL13,1*
G04 #@! TO.N,/+5V*
X124196000Y-76901532D03*
D25*
G04 #@! TD*
G04 #@! TO.N,/+5V*
G04 #@! TO.C,CL13*
G36*
X125112266Y-77238551D02*
X124029734Y-77863551D01*
X123279734Y-76564513D01*
X124362266Y-75939513D01*
X125112266Y-77238551D01*
X125112266Y-77238551D01*
G37*
D24*
G04 #@! TO.P,CL12,1*
G04 #@! TO.N,/+5V*
X122943940Y-86568971D03*
D25*
G04 #@! TD*
G04 #@! TO.N,/+5V*
G04 #@! TO.C,CL12*
G36*
X123916789Y-86487183D02*
X123199819Y-87511123D01*
X121971091Y-86650759D01*
X122688061Y-85626819D01*
X123916789Y-86487183D01*
X123916789Y-86487183D01*
G37*
D24*
G04 #@! TO.P,CL12,2*
G04 #@! TO.N,GND*
X120896060Y-85135029D03*
D25*
G04 #@! TD*
G04 #@! TO.N,GND*
G04 #@! TO.C,CL12*
G36*
X121868909Y-85053241D02*
X121151939Y-86077181D01*
X119923211Y-85216817D01*
X120640181Y-84192877D01*
X121868909Y-85053241D01*
X121868909Y-85053241D01*
G37*
D24*
G04 #@! TO.P,CL11,2*
G04 #@! TO.N,GND*
X122543151Y-95533646D03*
D25*
G04 #@! TD*
G04 #@! TO.N,GND*
G04 #@! TO.C,CL11*
G36*
X123475238Y-95243234D02*
X122996884Y-96398083D01*
X121611064Y-95824058D01*
X122089418Y-94669209D01*
X123475238Y-95243234D01*
X123475238Y-95243234D01*
G37*
D24*
G04 #@! TO.P,CL11,1*
G04 #@! TO.N,/+5V*
X124852849Y-96490354D03*
D25*
G04 #@! TD*
G04 #@! TO.N,/+5V*
G04 #@! TO.C,CL11*
G36*
X125784936Y-96199942D02*
X125306582Y-97354791D01*
X123920762Y-96780766D01*
X124399116Y-95625917D01*
X125784936Y-96199942D01*
X125784936Y-96199942D01*
G37*
D24*
G04 #@! TO.P,CL10,1*
G04 #@! TO.N,/+5V*
X130771010Y-104402940D03*
D25*
G04 #@! TD*
G04 #@! TO.N,/+5V*
G04 #@! TO.C,CL10*
G36*
X131401086Y-103657199D02*
X131618146Y-104888209D01*
X130140934Y-105148681D01*
X129923874Y-103917671D01*
X131401086Y-103657199D01*
X131401086Y-103657199D01*
G37*
D24*
G04 #@! TO.P,CL10,2*
G04 #@! TO.N,GND*
X128308990Y-104837060D03*
D25*
G04 #@! TD*
G04 #@! TO.N,GND*
G04 #@! TO.C,CL10*
G36*
X128939066Y-104091319D02*
X129156126Y-105322329D01*
X127678914Y-105582801D01*
X127461854Y-104351791D01*
X128939066Y-104091319D01*
X128939066Y-104091319D01*
G37*
D24*
G04 #@! TO.P,CL9,2*
G04 #@! TO.N,GND*
X137308308Y-111300952D03*
D25*
G04 #@! TD*
G04 #@! TO.N,GND*
G04 #@! TO.C,CL9*
G36*
X137522847Y-110348535D02*
X138283799Y-111340227D01*
X137093769Y-112253369D01*
X136332817Y-111261677D01*
X137522847Y-110348535D01*
X137522847Y-110348535D01*
G37*
D24*
G04 #@! TO.P,CL9,1*
G04 #@! TO.N,/+5V*
X139291692Y-109779048D03*
D25*
G04 #@! TD*
G04 #@! TO.N,/+5V*
G04 #@! TO.C,CL9*
G36*
X139506231Y-108826631D02*
X140267183Y-109818323D01*
X139077153Y-110731465D01*
X138316201Y-109739773D01*
X139506231Y-108826631D01*
X139506231Y-108826631D01*
G37*
D24*
G04 #@! TO.P,CL8,1*
G04 #@! TO.N,/+5V*
X149443484Y-111722445D03*
D25*
G04 #@! TD*
G04 #@! TO.N,/+5V*
G04 #@! TO.C,CL8*
G36*
X149446797Y-110746169D02*
X150404352Y-111549654D01*
X149440171Y-112698721D01*
X148482616Y-111895236D01*
X149446797Y-110746169D01*
X149446797Y-110746169D01*
G37*
D24*
G04 #@! TO.P,CL8,2*
G04 #@! TO.N,GND*
X147836516Y-113637555D03*
D25*
G04 #@! TD*
G04 #@! TO.N,GND*
G04 #@! TO.C,CL8*
G36*
X147839829Y-112661279D02*
X148797384Y-113464764D01*
X147833203Y-114613831D01*
X146875648Y-113810346D01*
X147839829Y-112661279D01*
X147839829Y-112661279D01*
G37*
D24*
G04 #@! TO.P,CL7,1*
G04 #@! TO.N,/+5V*
X158507060Y-109508990D03*
D25*
G04 #@! TD*
G04 #@! TO.N,/+5V*
G04 #@! TO.C,CL7*
G36*
X158021791Y-108661854D02*
X159252801Y-108878914D01*
X158992329Y-110356126D01*
X157761319Y-110139066D01*
X158021791Y-108661854D01*
X158021791Y-108661854D01*
G37*
D24*
G04 #@! TO.P,CL7,2*
G04 #@! TO.N,GND*
X158072940Y-111971010D03*
D25*
G04 #@! TD*
G04 #@! TO.N,GND*
G04 #@! TO.C,CL7*
G36*
X157587671Y-111123874D02*
X158818681Y-111340934D01*
X158558209Y-112818146D01*
X157327199Y-112601086D01*
X157587671Y-111123874D01*
X157587671Y-111123874D01*
G37*
D24*
G04 #@! TO.P,CL6,2*
G04 #@! TO.N,GND*
X167397060Y-106021010D03*
D25*
G04 #@! TD*
G04 #@! TO.N,GND*
G04 #@! TO.C,CL6*
G36*
X166651319Y-105390934D02*
X167882329Y-105173874D01*
X168142801Y-106651086D01*
X166911791Y-106868146D01*
X166651319Y-105390934D01*
X166651319Y-105390934D01*
G37*
D24*
G04 #@! TO.P,CL6,1*
G04 #@! TO.N,/+5V*
X166962940Y-103558990D03*
D25*
G04 #@! TD*
G04 #@! TO.N,/+5V*
G04 #@! TO.C,CL6*
G36*
X166217199Y-102928914D02*
X167448209Y-102711854D01*
X167708681Y-104189066D01*
X166477671Y-104406126D01*
X166217199Y-102928914D01*
X166217199Y-102928914D01*
G37*
D24*
G04 #@! TO.P,CL5,1*
G04 #@! TO.N,/+5V*
X172235000Y-95207468D03*
D25*
G04 #@! TD*
G04 #@! TO.N,/+5V*
G04 #@! TO.C,CL5*
G36*
X171318734Y-94870449D02*
X172401266Y-94245449D01*
X173151266Y-95544487D01*
X172068734Y-96169487D01*
X171318734Y-94870449D01*
X171318734Y-94870449D01*
G37*
D24*
G04 #@! TO.P,CL5,2*
G04 #@! TO.N,GND*
X173485000Y-97372532D03*
D25*
G04 #@! TD*
G04 #@! TO.N,GND*
G04 #@! TO.C,CL5*
G36*
X172568734Y-97035513D02*
X173651266Y-96410513D01*
X174401266Y-97709551D01*
X173318734Y-98334551D01*
X172568734Y-97035513D01*
X172568734Y-97035513D01*
G37*
D24*
G04 #@! TO.P,CL4,2*
G04 #@! TO.N,GND*
X176083940Y-86786971D03*
D25*
G04 #@! TD*
G04 #@! TO.N,GND*
G04 #@! TO.C,CL4*
G36*
X175111091Y-86868759D02*
X175828061Y-85844819D01*
X177056789Y-86705183D01*
X176339819Y-87729123D01*
X175111091Y-86868759D01*
X175111091Y-86868759D01*
G37*
D24*
G04 #@! TO.P,CL4,1*
G04 #@! TO.N,/+5V*
X174036060Y-85353029D03*
D25*
G04 #@! TD*
G04 #@! TO.N,/+5V*
G04 #@! TO.C,CL4*
G36*
X173063211Y-85434817D02*
X173780181Y-84410877D01*
X175008909Y-85271241D01*
X174291939Y-86295181D01*
X173063211Y-85434817D01*
X173063211Y-85434817D01*
G37*
D24*
G04 #@! TO.P,CL3,2*
G04 #@! TO.N,GND*
X174210683Y-75862337D03*
D25*
G04 #@! TD*
G04 #@! TO.N,GND*
G04 #@! TO.C,CL3*
G36*
X173390105Y-76391276D02*
X173542442Y-75150594D01*
X175031261Y-75333398D01*
X174878924Y-76574080D01*
X173390105Y-76391276D01*
X173390105Y-76391276D01*
G37*
D24*
G04 #@! TO.P,CL3,1*
G04 #@! TO.N,/+5V*
X171729317Y-75557663D03*
D25*
G04 #@! TD*
G04 #@! TO.N,/+5V*
G04 #@! TO.C,CL3*
G36*
X170908739Y-76086602D02*
X171061076Y-74845920D01*
X172549895Y-75028724D01*
X172397558Y-76269406D01*
X170908739Y-76086602D01*
X170908739Y-76086602D01*
G37*
D24*
G04 #@! TO.P,CL2,1*
G04 #@! TO.N,/+5V*
X166119317Y-67502337D03*
D25*
G04 #@! TD*
G04 #@! TO.N,/+5V*
G04 #@! TO.C,CL2*
G36*
X165451076Y-68214080D02*
X165298739Y-66973398D01*
X166787558Y-66790594D01*
X166939895Y-68031276D01*
X165451076Y-68214080D01*
X165451076Y-68214080D01*
G37*
D24*
G04 #@! TO.P,CL2,2*
G04 #@! TO.N,GND*
X168600683Y-67197663D03*
D25*
G04 #@! TD*
G04 #@! TO.N,GND*
G04 #@! TO.C,CL2*
G36*
X167932442Y-67909406D02*
X167780105Y-66668724D01*
X169268924Y-66485920D01*
X169421261Y-67726602D01*
X167932442Y-67909406D01*
X167932442Y-67909406D01*
G37*
D24*
G04 #@! TO.P,CL1,2*
G04 #@! TO.N,GND*
X159674849Y-61111646D03*
D25*
G04 #@! TD*
G04 #@! TO.N,GND*
G04 #@! TO.C,CL1*
G36*
X159221116Y-61976083D02*
X158742762Y-60821234D01*
X160128582Y-60247209D01*
X160606936Y-61402058D01*
X159221116Y-61976083D01*
X159221116Y-61976083D01*
G37*
D24*
G04 #@! TO.P,CL1,1*
G04 #@! TO.N,/+5V*
X157365151Y-62068354D03*
D25*
G04 #@! TD*
G04 #@! TO.N,/+5V*
G04 #@! TO.C,CL1*
G36*
X156911418Y-62932791D02*
X156433064Y-61777942D01*
X157818884Y-61203917D01*
X158297238Y-62358766D01*
X156911418Y-62932791D01*
X156911418Y-62932791D01*
G37*
D24*
G04 #@! TO.P,CL0,1*
G04 #@! TO.N,/+5V*
X142273100Y-61622740D03*
D25*
G04 #@! TD*
G04 #@! TO.N,/+5V*
G04 #@! TO.C,CL0*
G36*
X143045615Y-62219687D02*
X141825245Y-62490237D01*
X141500585Y-61025793D01*
X142720955Y-60755243D01*
X143045615Y-62219687D01*
X143045615Y-62219687D01*
G37*
D24*
G04 #@! TO.P,CL0,2*
G04 #@! TO.N,GND*
X141732000Y-59182000D03*
D25*
G04 #@! TD*
G04 #@! TO.N,GND*
G04 #@! TO.C,CL0*
G36*
X142504515Y-59778947D02*
X141284145Y-60049497D01*
X140959485Y-58585053D01*
X142179855Y-58314503D01*
X142504515Y-59778947D01*
X142504515Y-59778947D01*
G37*
D27*
G04 #@! TO.P,R2,2*
G04 #@! TO.N,Net-(C1-Pad2)*
X185724800Y-74168000D03*
D28*
X187452000Y-74168000D03*
D29*
G04 #@! TO.P,R2,1*
G04 #@! TO.N,GND*
X179832000Y-74168000D03*
D27*
X181533800Y-74168000D03*
G04 #@! TD*
G04 #@! TO.P,R1,2*
G04 #@! TO.N,/AUDIO_OUT*
X181432200Y-77470000D03*
D28*
X179705000Y-77470000D03*
D29*
G04 #@! TO.P,R1,1*
G04 #@! TO.N,Net-(C1-Pad2)*
X187325000Y-77470000D03*
D27*
X185623200Y-77470000D03*
G04 #@! TD*
G04 #@! TO.P,R3,2*
G04 #@! TO.N,Net-(CA4-Pad1)*
X184099200Y-88900000D03*
D28*
X182372000Y-88900000D03*
D29*
G04 #@! TO.P,R3,1*
G04 #@! TO.N,Net-(R3-Pad1)*
X189992000Y-88900000D03*
D27*
X188290200Y-88900000D03*
G04 #@! TD*
D25*
G04 #@! TO.N,GND*
G04 #@! TO.C,U1*
G36*
X122592345Y-141860835D02*
X122629329Y-141866321D01*
X122665598Y-141875406D01*
X122700802Y-141888002D01*
X122734602Y-141903988D01*
X122766672Y-141923210D01*
X122796704Y-141945483D01*
X122824408Y-141970592D01*
X122849517Y-141998296D01*
X122871790Y-142028328D01*
X122891012Y-142060398D01*
X122906998Y-142094198D01*
X122919594Y-142129402D01*
X122928679Y-142165671D01*
X122934165Y-142202655D01*
X122936000Y-142240000D01*
X122936000Y-146050000D01*
X122934165Y-146087345D01*
X122928679Y-146124329D01*
X122919594Y-146160598D01*
X122906998Y-146195802D01*
X122891012Y-146229602D01*
X122871790Y-146261672D01*
X122849517Y-146291704D01*
X122824408Y-146319408D01*
X122796704Y-146344517D01*
X122766672Y-146366790D01*
X122734602Y-146386012D01*
X122700802Y-146401998D01*
X122665598Y-146414594D01*
X122629329Y-146423679D01*
X122592345Y-146429165D01*
X122555000Y-146431000D01*
X121793000Y-146431000D01*
X121755655Y-146429165D01*
X121718671Y-146423679D01*
X121682402Y-146414594D01*
X121647198Y-146401998D01*
X121613398Y-146386012D01*
X121581328Y-146366790D01*
X121551296Y-146344517D01*
X121523592Y-146319408D01*
X121498483Y-146291704D01*
X121476210Y-146261672D01*
X121456988Y-146229602D01*
X121441002Y-146195802D01*
X121428406Y-146160598D01*
X121419321Y-146124329D01*
X121413835Y-146087345D01*
X121412000Y-146050000D01*
X121412000Y-142240000D01*
X121413835Y-142202655D01*
X121419321Y-142165671D01*
X121428406Y-142129402D01*
X121441002Y-142094198D01*
X121456988Y-142060398D01*
X121476210Y-142028328D01*
X121498483Y-141998296D01*
X121523592Y-141970592D01*
X121551296Y-141945483D01*
X121581328Y-141923210D01*
X121613398Y-141903988D01*
X121647198Y-141888002D01*
X121682402Y-141875406D01*
X121718671Y-141866321D01*
X121755655Y-141860835D01*
X121793000Y-141859000D01*
X122555000Y-141859000D01*
X122592345Y-141860835D01*
X122592345Y-141860835D01*
G37*
D30*
G04 #@! TD*
G04 #@! TO.P,U1,40*
G04 #@! TO.N,GND*
X122174000Y-144145000D03*
D25*
G04 #@! TO.N,GND*
G04 #@! TO.C,U1*
G36*
X125132345Y-141860835D02*
X125169329Y-141866321D01*
X125205598Y-141875406D01*
X125240802Y-141888002D01*
X125274602Y-141903988D01*
X125306672Y-141923210D01*
X125336704Y-141945483D01*
X125364408Y-141970592D01*
X125389517Y-141998296D01*
X125411790Y-142028328D01*
X125431012Y-142060398D01*
X125446998Y-142094198D01*
X125459594Y-142129402D01*
X125468679Y-142165671D01*
X125474165Y-142202655D01*
X125476000Y-142240000D01*
X125476000Y-146050000D01*
X125474165Y-146087345D01*
X125468679Y-146124329D01*
X125459594Y-146160598D01*
X125446998Y-146195802D01*
X125431012Y-146229602D01*
X125411790Y-146261672D01*
X125389517Y-146291704D01*
X125364408Y-146319408D01*
X125336704Y-146344517D01*
X125306672Y-146366790D01*
X125274602Y-146386012D01*
X125240802Y-146401998D01*
X125205598Y-146414594D01*
X125169329Y-146423679D01*
X125132345Y-146429165D01*
X125095000Y-146431000D01*
X124333000Y-146431000D01*
X124295655Y-146429165D01*
X124258671Y-146423679D01*
X124222402Y-146414594D01*
X124187198Y-146401998D01*
X124153398Y-146386012D01*
X124121328Y-146366790D01*
X124091296Y-146344517D01*
X124063592Y-146319408D01*
X124038483Y-146291704D01*
X124016210Y-146261672D01*
X123996988Y-146229602D01*
X123981002Y-146195802D01*
X123968406Y-146160598D01*
X123959321Y-146124329D01*
X123953835Y-146087345D01*
X123952000Y-146050000D01*
X123952000Y-142240000D01*
X123953835Y-142202655D01*
X123959321Y-142165671D01*
X123968406Y-142129402D01*
X123981002Y-142094198D01*
X123996988Y-142060398D01*
X124016210Y-142028328D01*
X124038483Y-141998296D01*
X124063592Y-141970592D01*
X124091296Y-141945483D01*
X124121328Y-141923210D01*
X124153398Y-141903988D01*
X124187198Y-141888002D01*
X124222402Y-141875406D01*
X124258671Y-141866321D01*
X124295655Y-141860835D01*
X124333000Y-141859000D01*
X125095000Y-141859000D01*
X125132345Y-141860835D01*
X125132345Y-141860835D01*
G37*
D30*
G04 #@! TD*
G04 #@! TO.P,U1,39*
G04 #@! TO.N,GND*
X124714000Y-144145000D03*
D25*
G04 #@! TO.N,Net-(U1-Pad38)*
G04 #@! TO.C,U1*
G36*
X127672345Y-141860835D02*
X127709329Y-141866321D01*
X127745598Y-141875406D01*
X127780802Y-141888002D01*
X127814602Y-141903988D01*
X127846672Y-141923210D01*
X127876704Y-141945483D01*
X127904408Y-141970592D01*
X127929517Y-141998296D01*
X127951790Y-142028328D01*
X127971012Y-142060398D01*
X127986998Y-142094198D01*
X127999594Y-142129402D01*
X128008679Y-142165671D01*
X128014165Y-142202655D01*
X128016000Y-142240000D01*
X128016000Y-146050000D01*
X128014165Y-146087345D01*
X128008679Y-146124329D01*
X127999594Y-146160598D01*
X127986998Y-146195802D01*
X127971012Y-146229602D01*
X127951790Y-146261672D01*
X127929517Y-146291704D01*
X127904408Y-146319408D01*
X127876704Y-146344517D01*
X127846672Y-146366790D01*
X127814602Y-146386012D01*
X127780802Y-146401998D01*
X127745598Y-146414594D01*
X127709329Y-146423679D01*
X127672345Y-146429165D01*
X127635000Y-146431000D01*
X126873000Y-146431000D01*
X126835655Y-146429165D01*
X126798671Y-146423679D01*
X126762402Y-146414594D01*
X126727198Y-146401998D01*
X126693398Y-146386012D01*
X126661328Y-146366790D01*
X126631296Y-146344517D01*
X126603592Y-146319408D01*
X126578483Y-146291704D01*
X126556210Y-146261672D01*
X126536988Y-146229602D01*
X126521002Y-146195802D01*
X126508406Y-146160598D01*
X126499321Y-146124329D01*
X126493835Y-146087345D01*
X126492000Y-146050000D01*
X126492000Y-142240000D01*
X126493835Y-142202655D01*
X126499321Y-142165671D01*
X126508406Y-142129402D01*
X126521002Y-142094198D01*
X126536988Y-142060398D01*
X126556210Y-142028328D01*
X126578483Y-141998296D01*
X126603592Y-141970592D01*
X126631296Y-141945483D01*
X126661328Y-141923210D01*
X126693398Y-141903988D01*
X126727198Y-141888002D01*
X126762402Y-141875406D01*
X126798671Y-141866321D01*
X126835655Y-141860835D01*
X126873000Y-141859000D01*
X127635000Y-141859000D01*
X127672345Y-141860835D01*
X127672345Y-141860835D01*
G37*
D30*
G04 #@! TD*
G04 #@! TO.P,U1,38*
G04 #@! TO.N,Net-(U1-Pad38)*
X127254000Y-144145000D03*
D25*
G04 #@! TO.N,Net-(U1-Pad37)*
G04 #@! TO.C,U1*
G36*
X130212345Y-141860835D02*
X130249329Y-141866321D01*
X130285598Y-141875406D01*
X130320802Y-141888002D01*
X130354602Y-141903988D01*
X130386672Y-141923210D01*
X130416704Y-141945483D01*
X130444408Y-141970592D01*
X130469517Y-141998296D01*
X130491790Y-142028328D01*
X130511012Y-142060398D01*
X130526998Y-142094198D01*
X130539594Y-142129402D01*
X130548679Y-142165671D01*
X130554165Y-142202655D01*
X130556000Y-142240000D01*
X130556000Y-146050000D01*
X130554165Y-146087345D01*
X130548679Y-146124329D01*
X130539594Y-146160598D01*
X130526998Y-146195802D01*
X130511012Y-146229602D01*
X130491790Y-146261672D01*
X130469517Y-146291704D01*
X130444408Y-146319408D01*
X130416704Y-146344517D01*
X130386672Y-146366790D01*
X130354602Y-146386012D01*
X130320802Y-146401998D01*
X130285598Y-146414594D01*
X130249329Y-146423679D01*
X130212345Y-146429165D01*
X130175000Y-146431000D01*
X129413000Y-146431000D01*
X129375655Y-146429165D01*
X129338671Y-146423679D01*
X129302402Y-146414594D01*
X129267198Y-146401998D01*
X129233398Y-146386012D01*
X129201328Y-146366790D01*
X129171296Y-146344517D01*
X129143592Y-146319408D01*
X129118483Y-146291704D01*
X129096210Y-146261672D01*
X129076988Y-146229602D01*
X129061002Y-146195802D01*
X129048406Y-146160598D01*
X129039321Y-146124329D01*
X129033835Y-146087345D01*
X129032000Y-146050000D01*
X129032000Y-142240000D01*
X129033835Y-142202655D01*
X129039321Y-142165671D01*
X129048406Y-142129402D01*
X129061002Y-142094198D01*
X129076988Y-142060398D01*
X129096210Y-142028328D01*
X129118483Y-141998296D01*
X129143592Y-141970592D01*
X129171296Y-141945483D01*
X129201328Y-141923210D01*
X129233398Y-141903988D01*
X129267198Y-141888002D01*
X129302402Y-141875406D01*
X129338671Y-141866321D01*
X129375655Y-141860835D01*
X129413000Y-141859000D01*
X130175000Y-141859000D01*
X130212345Y-141860835D01*
X130212345Y-141860835D01*
G37*
D30*
G04 #@! TD*
G04 #@! TO.P,U1,37*
G04 #@! TO.N,Net-(U1-Pad37)*
X129794000Y-144145000D03*
D25*
G04 #@! TO.N,/G#0*
G04 #@! TO.C,U1*
G36*
X132752345Y-141860835D02*
X132789329Y-141866321D01*
X132825598Y-141875406D01*
X132860802Y-141888002D01*
X132894602Y-141903988D01*
X132926672Y-141923210D01*
X132956704Y-141945483D01*
X132984408Y-141970592D01*
X133009517Y-141998296D01*
X133031790Y-142028328D01*
X133051012Y-142060398D01*
X133066998Y-142094198D01*
X133079594Y-142129402D01*
X133088679Y-142165671D01*
X133094165Y-142202655D01*
X133096000Y-142240000D01*
X133096000Y-146050000D01*
X133094165Y-146087345D01*
X133088679Y-146124329D01*
X133079594Y-146160598D01*
X133066998Y-146195802D01*
X133051012Y-146229602D01*
X133031790Y-146261672D01*
X133009517Y-146291704D01*
X132984408Y-146319408D01*
X132956704Y-146344517D01*
X132926672Y-146366790D01*
X132894602Y-146386012D01*
X132860802Y-146401998D01*
X132825598Y-146414594D01*
X132789329Y-146423679D01*
X132752345Y-146429165D01*
X132715000Y-146431000D01*
X131953000Y-146431000D01*
X131915655Y-146429165D01*
X131878671Y-146423679D01*
X131842402Y-146414594D01*
X131807198Y-146401998D01*
X131773398Y-146386012D01*
X131741328Y-146366790D01*
X131711296Y-146344517D01*
X131683592Y-146319408D01*
X131658483Y-146291704D01*
X131636210Y-146261672D01*
X131616988Y-146229602D01*
X131601002Y-146195802D01*
X131588406Y-146160598D01*
X131579321Y-146124329D01*
X131573835Y-146087345D01*
X131572000Y-146050000D01*
X131572000Y-142240000D01*
X131573835Y-142202655D01*
X131579321Y-142165671D01*
X131588406Y-142129402D01*
X131601002Y-142094198D01*
X131616988Y-142060398D01*
X131636210Y-142028328D01*
X131658483Y-141998296D01*
X131683592Y-141970592D01*
X131711296Y-141945483D01*
X131741328Y-141923210D01*
X131773398Y-141903988D01*
X131807198Y-141888002D01*
X131842402Y-141875406D01*
X131878671Y-141866321D01*
X131915655Y-141860835D01*
X131953000Y-141859000D01*
X132715000Y-141859000D01*
X132752345Y-141860835D01*
X132752345Y-141860835D01*
G37*
D30*
G04 #@! TD*
G04 #@! TO.P,U1,36*
G04 #@! TO.N,/G#0*
X132334000Y-144145000D03*
D25*
G04 #@! TO.N,/PATCH*
G04 #@! TO.C,U1*
G36*
X135292345Y-141860835D02*
X135329329Y-141866321D01*
X135365598Y-141875406D01*
X135400802Y-141888002D01*
X135434602Y-141903988D01*
X135466672Y-141923210D01*
X135496704Y-141945483D01*
X135524408Y-141970592D01*
X135549517Y-141998296D01*
X135571790Y-142028328D01*
X135591012Y-142060398D01*
X135606998Y-142094198D01*
X135619594Y-142129402D01*
X135628679Y-142165671D01*
X135634165Y-142202655D01*
X135636000Y-142240000D01*
X135636000Y-146050000D01*
X135634165Y-146087345D01*
X135628679Y-146124329D01*
X135619594Y-146160598D01*
X135606998Y-146195802D01*
X135591012Y-146229602D01*
X135571790Y-146261672D01*
X135549517Y-146291704D01*
X135524408Y-146319408D01*
X135496704Y-146344517D01*
X135466672Y-146366790D01*
X135434602Y-146386012D01*
X135400802Y-146401998D01*
X135365598Y-146414594D01*
X135329329Y-146423679D01*
X135292345Y-146429165D01*
X135255000Y-146431000D01*
X134493000Y-146431000D01*
X134455655Y-146429165D01*
X134418671Y-146423679D01*
X134382402Y-146414594D01*
X134347198Y-146401998D01*
X134313398Y-146386012D01*
X134281328Y-146366790D01*
X134251296Y-146344517D01*
X134223592Y-146319408D01*
X134198483Y-146291704D01*
X134176210Y-146261672D01*
X134156988Y-146229602D01*
X134141002Y-146195802D01*
X134128406Y-146160598D01*
X134119321Y-146124329D01*
X134113835Y-146087345D01*
X134112000Y-146050000D01*
X134112000Y-142240000D01*
X134113835Y-142202655D01*
X134119321Y-142165671D01*
X134128406Y-142129402D01*
X134141002Y-142094198D01*
X134156988Y-142060398D01*
X134176210Y-142028328D01*
X134198483Y-141998296D01*
X134223592Y-141970592D01*
X134251296Y-141945483D01*
X134281328Y-141923210D01*
X134313398Y-141903988D01*
X134347198Y-141888002D01*
X134382402Y-141875406D01*
X134418671Y-141866321D01*
X134455655Y-141860835D01*
X134493000Y-141859000D01*
X135255000Y-141859000D01*
X135292345Y-141860835D01*
X135292345Y-141860835D01*
G37*
D30*
G04 #@! TD*
G04 #@! TO.P,U1,35*
G04 #@! TO.N,/PATCH*
X134874000Y-144145000D03*
D25*
G04 #@! TO.N,/WRITE*
G04 #@! TO.C,U1*
G36*
X137832345Y-141860835D02*
X137869329Y-141866321D01*
X137905598Y-141875406D01*
X137940802Y-141888002D01*
X137974602Y-141903988D01*
X138006672Y-141923210D01*
X138036704Y-141945483D01*
X138064408Y-141970592D01*
X138089517Y-141998296D01*
X138111790Y-142028328D01*
X138131012Y-142060398D01*
X138146998Y-142094198D01*
X138159594Y-142129402D01*
X138168679Y-142165671D01*
X138174165Y-142202655D01*
X138176000Y-142240000D01*
X138176000Y-146050000D01*
X138174165Y-146087345D01*
X138168679Y-146124329D01*
X138159594Y-146160598D01*
X138146998Y-146195802D01*
X138131012Y-146229602D01*
X138111790Y-146261672D01*
X138089517Y-146291704D01*
X138064408Y-146319408D01*
X138036704Y-146344517D01*
X138006672Y-146366790D01*
X137974602Y-146386012D01*
X137940802Y-146401998D01*
X137905598Y-146414594D01*
X137869329Y-146423679D01*
X137832345Y-146429165D01*
X137795000Y-146431000D01*
X137033000Y-146431000D01*
X136995655Y-146429165D01*
X136958671Y-146423679D01*
X136922402Y-146414594D01*
X136887198Y-146401998D01*
X136853398Y-146386012D01*
X136821328Y-146366790D01*
X136791296Y-146344517D01*
X136763592Y-146319408D01*
X136738483Y-146291704D01*
X136716210Y-146261672D01*
X136696988Y-146229602D01*
X136681002Y-146195802D01*
X136668406Y-146160598D01*
X136659321Y-146124329D01*
X136653835Y-146087345D01*
X136652000Y-146050000D01*
X136652000Y-142240000D01*
X136653835Y-142202655D01*
X136659321Y-142165671D01*
X136668406Y-142129402D01*
X136681002Y-142094198D01*
X136696988Y-142060398D01*
X136716210Y-142028328D01*
X136738483Y-141998296D01*
X136763592Y-141970592D01*
X136791296Y-141945483D01*
X136821328Y-141923210D01*
X136853398Y-141903988D01*
X136887198Y-141888002D01*
X136922402Y-141875406D01*
X136958671Y-141866321D01*
X136995655Y-141860835D01*
X137033000Y-141859000D01*
X137795000Y-141859000D01*
X137832345Y-141860835D01*
X137832345Y-141860835D01*
G37*
D30*
G04 #@! TD*
G04 #@! TO.P,U1,34*
G04 #@! TO.N,/WRITE*
X137414000Y-144145000D03*
D25*
G04 #@! TO.N,/PARAM*
G04 #@! TO.C,U1*
G36*
X140372345Y-141860835D02*
X140409329Y-141866321D01*
X140445598Y-141875406D01*
X140480802Y-141888002D01*
X140514602Y-141903988D01*
X140546672Y-141923210D01*
X140576704Y-141945483D01*
X140604408Y-141970592D01*
X140629517Y-141998296D01*
X140651790Y-142028328D01*
X140671012Y-142060398D01*
X140686998Y-142094198D01*
X140699594Y-142129402D01*
X140708679Y-142165671D01*
X140714165Y-142202655D01*
X140716000Y-142240000D01*
X140716000Y-146050000D01*
X140714165Y-146087345D01*
X140708679Y-146124329D01*
X140699594Y-146160598D01*
X140686998Y-146195802D01*
X140671012Y-146229602D01*
X140651790Y-146261672D01*
X140629517Y-146291704D01*
X140604408Y-146319408D01*
X140576704Y-146344517D01*
X140546672Y-146366790D01*
X140514602Y-146386012D01*
X140480802Y-146401998D01*
X140445598Y-146414594D01*
X140409329Y-146423679D01*
X140372345Y-146429165D01*
X140335000Y-146431000D01*
X139573000Y-146431000D01*
X139535655Y-146429165D01*
X139498671Y-146423679D01*
X139462402Y-146414594D01*
X139427198Y-146401998D01*
X139393398Y-146386012D01*
X139361328Y-146366790D01*
X139331296Y-146344517D01*
X139303592Y-146319408D01*
X139278483Y-146291704D01*
X139256210Y-146261672D01*
X139236988Y-146229602D01*
X139221002Y-146195802D01*
X139208406Y-146160598D01*
X139199321Y-146124329D01*
X139193835Y-146087345D01*
X139192000Y-146050000D01*
X139192000Y-142240000D01*
X139193835Y-142202655D01*
X139199321Y-142165671D01*
X139208406Y-142129402D01*
X139221002Y-142094198D01*
X139236988Y-142060398D01*
X139256210Y-142028328D01*
X139278483Y-141998296D01*
X139303592Y-141970592D01*
X139331296Y-141945483D01*
X139361328Y-141923210D01*
X139393398Y-141903988D01*
X139427198Y-141888002D01*
X139462402Y-141875406D01*
X139498671Y-141866321D01*
X139535655Y-141860835D01*
X139573000Y-141859000D01*
X140335000Y-141859000D01*
X140372345Y-141860835D01*
X140372345Y-141860835D01*
G37*
D30*
G04 #@! TD*
G04 #@! TO.P,U1,33*
G04 #@! TO.N,/PARAM*
X139954000Y-144145000D03*
D25*
G04 #@! TO.N,/LED_DIN*
G04 #@! TO.C,U1*
G36*
X142912345Y-141860835D02*
X142949329Y-141866321D01*
X142985598Y-141875406D01*
X143020802Y-141888002D01*
X143054602Y-141903988D01*
X143086672Y-141923210D01*
X143116704Y-141945483D01*
X143144408Y-141970592D01*
X143169517Y-141998296D01*
X143191790Y-142028328D01*
X143211012Y-142060398D01*
X143226998Y-142094198D01*
X143239594Y-142129402D01*
X143248679Y-142165671D01*
X143254165Y-142202655D01*
X143256000Y-142240000D01*
X143256000Y-146050000D01*
X143254165Y-146087345D01*
X143248679Y-146124329D01*
X143239594Y-146160598D01*
X143226998Y-146195802D01*
X143211012Y-146229602D01*
X143191790Y-146261672D01*
X143169517Y-146291704D01*
X143144408Y-146319408D01*
X143116704Y-146344517D01*
X143086672Y-146366790D01*
X143054602Y-146386012D01*
X143020802Y-146401998D01*
X142985598Y-146414594D01*
X142949329Y-146423679D01*
X142912345Y-146429165D01*
X142875000Y-146431000D01*
X142113000Y-146431000D01*
X142075655Y-146429165D01*
X142038671Y-146423679D01*
X142002402Y-146414594D01*
X141967198Y-146401998D01*
X141933398Y-146386012D01*
X141901328Y-146366790D01*
X141871296Y-146344517D01*
X141843592Y-146319408D01*
X141818483Y-146291704D01*
X141796210Y-146261672D01*
X141776988Y-146229602D01*
X141761002Y-146195802D01*
X141748406Y-146160598D01*
X141739321Y-146124329D01*
X141733835Y-146087345D01*
X141732000Y-146050000D01*
X141732000Y-142240000D01*
X141733835Y-142202655D01*
X141739321Y-142165671D01*
X141748406Y-142129402D01*
X141761002Y-142094198D01*
X141776988Y-142060398D01*
X141796210Y-142028328D01*
X141818483Y-141998296D01*
X141843592Y-141970592D01*
X141871296Y-141945483D01*
X141901328Y-141923210D01*
X141933398Y-141903988D01*
X141967198Y-141888002D01*
X142002402Y-141875406D01*
X142038671Y-141866321D01*
X142075655Y-141860835D01*
X142113000Y-141859000D01*
X142875000Y-141859000D01*
X142912345Y-141860835D01*
X142912345Y-141860835D01*
G37*
D30*
G04 #@! TD*
G04 #@! TO.P,U1,32*
G04 #@! TO.N,/LED_DIN*
X142494000Y-144145000D03*
D25*
G04 #@! TO.N,/G0*
G04 #@! TO.C,U1*
G36*
X145452345Y-141860835D02*
X145489329Y-141866321D01*
X145525598Y-141875406D01*
X145560802Y-141888002D01*
X145594602Y-141903988D01*
X145626672Y-141923210D01*
X145656704Y-141945483D01*
X145684408Y-141970592D01*
X145709517Y-141998296D01*
X145731790Y-142028328D01*
X145751012Y-142060398D01*
X145766998Y-142094198D01*
X145779594Y-142129402D01*
X145788679Y-142165671D01*
X145794165Y-142202655D01*
X145796000Y-142240000D01*
X145796000Y-146050000D01*
X145794165Y-146087345D01*
X145788679Y-146124329D01*
X145779594Y-146160598D01*
X145766998Y-146195802D01*
X145751012Y-146229602D01*
X145731790Y-146261672D01*
X145709517Y-146291704D01*
X145684408Y-146319408D01*
X145656704Y-146344517D01*
X145626672Y-146366790D01*
X145594602Y-146386012D01*
X145560802Y-146401998D01*
X145525598Y-146414594D01*
X145489329Y-146423679D01*
X145452345Y-146429165D01*
X145415000Y-146431000D01*
X144653000Y-146431000D01*
X144615655Y-146429165D01*
X144578671Y-146423679D01*
X144542402Y-146414594D01*
X144507198Y-146401998D01*
X144473398Y-146386012D01*
X144441328Y-146366790D01*
X144411296Y-146344517D01*
X144383592Y-146319408D01*
X144358483Y-146291704D01*
X144336210Y-146261672D01*
X144316988Y-146229602D01*
X144301002Y-146195802D01*
X144288406Y-146160598D01*
X144279321Y-146124329D01*
X144273835Y-146087345D01*
X144272000Y-146050000D01*
X144272000Y-142240000D01*
X144273835Y-142202655D01*
X144279321Y-142165671D01*
X144288406Y-142129402D01*
X144301002Y-142094198D01*
X144316988Y-142060398D01*
X144336210Y-142028328D01*
X144358483Y-141998296D01*
X144383592Y-141970592D01*
X144411296Y-141945483D01*
X144441328Y-141923210D01*
X144473398Y-141903988D01*
X144507198Y-141888002D01*
X144542402Y-141875406D01*
X144578671Y-141866321D01*
X144615655Y-141860835D01*
X144653000Y-141859000D01*
X145415000Y-141859000D01*
X145452345Y-141860835D01*
X145452345Y-141860835D01*
G37*
D30*
G04 #@! TD*
G04 #@! TO.P,U1,31*
G04 #@! TO.N,/G0*
X145034000Y-144145000D03*
D25*
G04 #@! TO.N,/C2*
G04 #@! TO.C,U1*
G36*
X147992345Y-141860835D02*
X148029329Y-141866321D01*
X148065598Y-141875406D01*
X148100802Y-141888002D01*
X148134602Y-141903988D01*
X148166672Y-141923210D01*
X148196704Y-141945483D01*
X148224408Y-141970592D01*
X148249517Y-141998296D01*
X148271790Y-142028328D01*
X148291012Y-142060398D01*
X148306998Y-142094198D01*
X148319594Y-142129402D01*
X148328679Y-142165671D01*
X148334165Y-142202655D01*
X148336000Y-142240000D01*
X148336000Y-146050000D01*
X148334165Y-146087345D01*
X148328679Y-146124329D01*
X148319594Y-146160598D01*
X148306998Y-146195802D01*
X148291012Y-146229602D01*
X148271790Y-146261672D01*
X148249517Y-146291704D01*
X148224408Y-146319408D01*
X148196704Y-146344517D01*
X148166672Y-146366790D01*
X148134602Y-146386012D01*
X148100802Y-146401998D01*
X148065598Y-146414594D01*
X148029329Y-146423679D01*
X147992345Y-146429165D01*
X147955000Y-146431000D01*
X147193000Y-146431000D01*
X147155655Y-146429165D01*
X147118671Y-146423679D01*
X147082402Y-146414594D01*
X147047198Y-146401998D01*
X147013398Y-146386012D01*
X146981328Y-146366790D01*
X146951296Y-146344517D01*
X146923592Y-146319408D01*
X146898483Y-146291704D01*
X146876210Y-146261672D01*
X146856988Y-146229602D01*
X146841002Y-146195802D01*
X146828406Y-146160598D01*
X146819321Y-146124329D01*
X146813835Y-146087345D01*
X146812000Y-146050000D01*
X146812000Y-142240000D01*
X146813835Y-142202655D01*
X146819321Y-142165671D01*
X146828406Y-142129402D01*
X146841002Y-142094198D01*
X146856988Y-142060398D01*
X146876210Y-142028328D01*
X146898483Y-141998296D01*
X146923592Y-141970592D01*
X146951296Y-141945483D01*
X146981328Y-141923210D01*
X147013398Y-141903988D01*
X147047198Y-141888002D01*
X147082402Y-141875406D01*
X147118671Y-141866321D01*
X147155655Y-141860835D01*
X147193000Y-141859000D01*
X147955000Y-141859000D01*
X147992345Y-141860835D01*
X147992345Y-141860835D01*
G37*
D30*
G04 #@! TD*
G04 #@! TO.P,U1,30*
G04 #@! TO.N,/C2*
X147574000Y-144145000D03*
D25*
G04 #@! TO.N,/B1*
G04 #@! TO.C,U1*
G36*
X150532345Y-141860835D02*
X150569329Y-141866321D01*
X150605598Y-141875406D01*
X150640802Y-141888002D01*
X150674602Y-141903988D01*
X150706672Y-141923210D01*
X150736704Y-141945483D01*
X150764408Y-141970592D01*
X150789517Y-141998296D01*
X150811790Y-142028328D01*
X150831012Y-142060398D01*
X150846998Y-142094198D01*
X150859594Y-142129402D01*
X150868679Y-142165671D01*
X150874165Y-142202655D01*
X150876000Y-142240000D01*
X150876000Y-146050000D01*
X150874165Y-146087345D01*
X150868679Y-146124329D01*
X150859594Y-146160598D01*
X150846998Y-146195802D01*
X150831012Y-146229602D01*
X150811790Y-146261672D01*
X150789517Y-146291704D01*
X150764408Y-146319408D01*
X150736704Y-146344517D01*
X150706672Y-146366790D01*
X150674602Y-146386012D01*
X150640802Y-146401998D01*
X150605598Y-146414594D01*
X150569329Y-146423679D01*
X150532345Y-146429165D01*
X150495000Y-146431000D01*
X149733000Y-146431000D01*
X149695655Y-146429165D01*
X149658671Y-146423679D01*
X149622402Y-146414594D01*
X149587198Y-146401998D01*
X149553398Y-146386012D01*
X149521328Y-146366790D01*
X149491296Y-146344517D01*
X149463592Y-146319408D01*
X149438483Y-146291704D01*
X149416210Y-146261672D01*
X149396988Y-146229602D01*
X149381002Y-146195802D01*
X149368406Y-146160598D01*
X149359321Y-146124329D01*
X149353835Y-146087345D01*
X149352000Y-146050000D01*
X149352000Y-142240000D01*
X149353835Y-142202655D01*
X149359321Y-142165671D01*
X149368406Y-142129402D01*
X149381002Y-142094198D01*
X149396988Y-142060398D01*
X149416210Y-142028328D01*
X149438483Y-141998296D01*
X149463592Y-141970592D01*
X149491296Y-141945483D01*
X149521328Y-141923210D01*
X149553398Y-141903988D01*
X149587198Y-141888002D01*
X149622402Y-141875406D01*
X149658671Y-141866321D01*
X149695655Y-141860835D01*
X149733000Y-141859000D01*
X150495000Y-141859000D01*
X150532345Y-141860835D01*
X150532345Y-141860835D01*
G37*
D30*
G04 #@! TD*
G04 #@! TO.P,U1,29*
G04 #@! TO.N,/B1*
X150114000Y-144145000D03*
D25*
G04 #@! TO.N,/A#1*
G04 #@! TO.C,U1*
G36*
X153072345Y-141860835D02*
X153109329Y-141866321D01*
X153145598Y-141875406D01*
X153180802Y-141888002D01*
X153214602Y-141903988D01*
X153246672Y-141923210D01*
X153276704Y-141945483D01*
X153304408Y-141970592D01*
X153329517Y-141998296D01*
X153351790Y-142028328D01*
X153371012Y-142060398D01*
X153386998Y-142094198D01*
X153399594Y-142129402D01*
X153408679Y-142165671D01*
X153414165Y-142202655D01*
X153416000Y-142240000D01*
X153416000Y-146050000D01*
X153414165Y-146087345D01*
X153408679Y-146124329D01*
X153399594Y-146160598D01*
X153386998Y-146195802D01*
X153371012Y-146229602D01*
X153351790Y-146261672D01*
X153329517Y-146291704D01*
X153304408Y-146319408D01*
X153276704Y-146344517D01*
X153246672Y-146366790D01*
X153214602Y-146386012D01*
X153180802Y-146401998D01*
X153145598Y-146414594D01*
X153109329Y-146423679D01*
X153072345Y-146429165D01*
X153035000Y-146431000D01*
X152273000Y-146431000D01*
X152235655Y-146429165D01*
X152198671Y-146423679D01*
X152162402Y-146414594D01*
X152127198Y-146401998D01*
X152093398Y-146386012D01*
X152061328Y-146366790D01*
X152031296Y-146344517D01*
X152003592Y-146319408D01*
X151978483Y-146291704D01*
X151956210Y-146261672D01*
X151936988Y-146229602D01*
X151921002Y-146195802D01*
X151908406Y-146160598D01*
X151899321Y-146124329D01*
X151893835Y-146087345D01*
X151892000Y-146050000D01*
X151892000Y-142240000D01*
X151893835Y-142202655D01*
X151899321Y-142165671D01*
X151908406Y-142129402D01*
X151921002Y-142094198D01*
X151936988Y-142060398D01*
X151956210Y-142028328D01*
X151978483Y-141998296D01*
X152003592Y-141970592D01*
X152031296Y-141945483D01*
X152061328Y-141923210D01*
X152093398Y-141903988D01*
X152127198Y-141888002D01*
X152162402Y-141875406D01*
X152198671Y-141866321D01*
X152235655Y-141860835D01*
X152273000Y-141859000D01*
X153035000Y-141859000D01*
X153072345Y-141860835D01*
X153072345Y-141860835D01*
G37*
D30*
G04 #@! TD*
G04 #@! TO.P,U1,28*
G04 #@! TO.N,/A#1*
X152654000Y-144145000D03*
D25*
G04 #@! TO.N,/A1*
G04 #@! TO.C,U1*
G36*
X155612345Y-141860835D02*
X155649329Y-141866321D01*
X155685598Y-141875406D01*
X155720802Y-141888002D01*
X155754602Y-141903988D01*
X155786672Y-141923210D01*
X155816704Y-141945483D01*
X155844408Y-141970592D01*
X155869517Y-141998296D01*
X155891790Y-142028328D01*
X155911012Y-142060398D01*
X155926998Y-142094198D01*
X155939594Y-142129402D01*
X155948679Y-142165671D01*
X155954165Y-142202655D01*
X155956000Y-142240000D01*
X155956000Y-146050000D01*
X155954165Y-146087345D01*
X155948679Y-146124329D01*
X155939594Y-146160598D01*
X155926998Y-146195802D01*
X155911012Y-146229602D01*
X155891790Y-146261672D01*
X155869517Y-146291704D01*
X155844408Y-146319408D01*
X155816704Y-146344517D01*
X155786672Y-146366790D01*
X155754602Y-146386012D01*
X155720802Y-146401998D01*
X155685598Y-146414594D01*
X155649329Y-146423679D01*
X155612345Y-146429165D01*
X155575000Y-146431000D01*
X154813000Y-146431000D01*
X154775655Y-146429165D01*
X154738671Y-146423679D01*
X154702402Y-146414594D01*
X154667198Y-146401998D01*
X154633398Y-146386012D01*
X154601328Y-146366790D01*
X154571296Y-146344517D01*
X154543592Y-146319408D01*
X154518483Y-146291704D01*
X154496210Y-146261672D01*
X154476988Y-146229602D01*
X154461002Y-146195802D01*
X154448406Y-146160598D01*
X154439321Y-146124329D01*
X154433835Y-146087345D01*
X154432000Y-146050000D01*
X154432000Y-142240000D01*
X154433835Y-142202655D01*
X154439321Y-142165671D01*
X154448406Y-142129402D01*
X154461002Y-142094198D01*
X154476988Y-142060398D01*
X154496210Y-142028328D01*
X154518483Y-141998296D01*
X154543592Y-141970592D01*
X154571296Y-141945483D01*
X154601328Y-141923210D01*
X154633398Y-141903988D01*
X154667198Y-141888002D01*
X154702402Y-141875406D01*
X154738671Y-141866321D01*
X154775655Y-141860835D01*
X154813000Y-141859000D01*
X155575000Y-141859000D01*
X155612345Y-141860835D01*
X155612345Y-141860835D01*
G37*
D30*
G04 #@! TD*
G04 #@! TO.P,U1,27*
G04 #@! TO.N,/A1*
X155194000Y-144145000D03*
D25*
G04 #@! TO.N,/G#1*
G04 #@! TO.C,U1*
G36*
X158152345Y-141860835D02*
X158189329Y-141866321D01*
X158225598Y-141875406D01*
X158260802Y-141888002D01*
X158294602Y-141903988D01*
X158326672Y-141923210D01*
X158356704Y-141945483D01*
X158384408Y-141970592D01*
X158409517Y-141998296D01*
X158431790Y-142028328D01*
X158451012Y-142060398D01*
X158466998Y-142094198D01*
X158479594Y-142129402D01*
X158488679Y-142165671D01*
X158494165Y-142202655D01*
X158496000Y-142240000D01*
X158496000Y-146050000D01*
X158494165Y-146087345D01*
X158488679Y-146124329D01*
X158479594Y-146160598D01*
X158466998Y-146195802D01*
X158451012Y-146229602D01*
X158431790Y-146261672D01*
X158409517Y-146291704D01*
X158384408Y-146319408D01*
X158356704Y-146344517D01*
X158326672Y-146366790D01*
X158294602Y-146386012D01*
X158260802Y-146401998D01*
X158225598Y-146414594D01*
X158189329Y-146423679D01*
X158152345Y-146429165D01*
X158115000Y-146431000D01*
X157353000Y-146431000D01*
X157315655Y-146429165D01*
X157278671Y-146423679D01*
X157242402Y-146414594D01*
X157207198Y-146401998D01*
X157173398Y-146386012D01*
X157141328Y-146366790D01*
X157111296Y-146344517D01*
X157083592Y-146319408D01*
X157058483Y-146291704D01*
X157036210Y-146261672D01*
X157016988Y-146229602D01*
X157001002Y-146195802D01*
X156988406Y-146160598D01*
X156979321Y-146124329D01*
X156973835Y-146087345D01*
X156972000Y-146050000D01*
X156972000Y-142240000D01*
X156973835Y-142202655D01*
X156979321Y-142165671D01*
X156988406Y-142129402D01*
X157001002Y-142094198D01*
X157016988Y-142060398D01*
X157036210Y-142028328D01*
X157058483Y-141998296D01*
X157083592Y-141970592D01*
X157111296Y-141945483D01*
X157141328Y-141923210D01*
X157173398Y-141903988D01*
X157207198Y-141888002D01*
X157242402Y-141875406D01*
X157278671Y-141866321D01*
X157315655Y-141860835D01*
X157353000Y-141859000D01*
X158115000Y-141859000D01*
X158152345Y-141860835D01*
X158152345Y-141860835D01*
G37*
D30*
G04 #@! TD*
G04 #@! TO.P,U1,26*
G04 #@! TO.N,/G#1*
X157734000Y-144145000D03*
D25*
G04 #@! TO.N,/G1*
G04 #@! TO.C,U1*
G36*
X160692345Y-141860835D02*
X160729329Y-141866321D01*
X160765598Y-141875406D01*
X160800802Y-141888002D01*
X160834602Y-141903988D01*
X160866672Y-141923210D01*
X160896704Y-141945483D01*
X160924408Y-141970592D01*
X160949517Y-141998296D01*
X160971790Y-142028328D01*
X160991012Y-142060398D01*
X161006998Y-142094198D01*
X161019594Y-142129402D01*
X161028679Y-142165671D01*
X161034165Y-142202655D01*
X161036000Y-142240000D01*
X161036000Y-146050000D01*
X161034165Y-146087345D01*
X161028679Y-146124329D01*
X161019594Y-146160598D01*
X161006998Y-146195802D01*
X160991012Y-146229602D01*
X160971790Y-146261672D01*
X160949517Y-146291704D01*
X160924408Y-146319408D01*
X160896704Y-146344517D01*
X160866672Y-146366790D01*
X160834602Y-146386012D01*
X160800802Y-146401998D01*
X160765598Y-146414594D01*
X160729329Y-146423679D01*
X160692345Y-146429165D01*
X160655000Y-146431000D01*
X159893000Y-146431000D01*
X159855655Y-146429165D01*
X159818671Y-146423679D01*
X159782402Y-146414594D01*
X159747198Y-146401998D01*
X159713398Y-146386012D01*
X159681328Y-146366790D01*
X159651296Y-146344517D01*
X159623592Y-146319408D01*
X159598483Y-146291704D01*
X159576210Y-146261672D01*
X159556988Y-146229602D01*
X159541002Y-146195802D01*
X159528406Y-146160598D01*
X159519321Y-146124329D01*
X159513835Y-146087345D01*
X159512000Y-146050000D01*
X159512000Y-142240000D01*
X159513835Y-142202655D01*
X159519321Y-142165671D01*
X159528406Y-142129402D01*
X159541002Y-142094198D01*
X159556988Y-142060398D01*
X159576210Y-142028328D01*
X159598483Y-141998296D01*
X159623592Y-141970592D01*
X159651296Y-141945483D01*
X159681328Y-141923210D01*
X159713398Y-141903988D01*
X159747198Y-141888002D01*
X159782402Y-141875406D01*
X159818671Y-141866321D01*
X159855655Y-141860835D01*
X159893000Y-141859000D01*
X160655000Y-141859000D01*
X160692345Y-141860835D01*
X160692345Y-141860835D01*
G37*
D30*
G04 #@! TD*
G04 #@! TO.P,U1,25*
G04 #@! TO.N,/G1*
X160274000Y-144145000D03*
D25*
G04 #@! TO.N,/F#1*
G04 #@! TO.C,U1*
G36*
X163232345Y-141860835D02*
X163269329Y-141866321D01*
X163305598Y-141875406D01*
X163340802Y-141888002D01*
X163374602Y-141903988D01*
X163406672Y-141923210D01*
X163436704Y-141945483D01*
X163464408Y-141970592D01*
X163489517Y-141998296D01*
X163511790Y-142028328D01*
X163531012Y-142060398D01*
X163546998Y-142094198D01*
X163559594Y-142129402D01*
X163568679Y-142165671D01*
X163574165Y-142202655D01*
X163576000Y-142240000D01*
X163576000Y-146050000D01*
X163574165Y-146087345D01*
X163568679Y-146124329D01*
X163559594Y-146160598D01*
X163546998Y-146195802D01*
X163531012Y-146229602D01*
X163511790Y-146261672D01*
X163489517Y-146291704D01*
X163464408Y-146319408D01*
X163436704Y-146344517D01*
X163406672Y-146366790D01*
X163374602Y-146386012D01*
X163340802Y-146401998D01*
X163305598Y-146414594D01*
X163269329Y-146423679D01*
X163232345Y-146429165D01*
X163195000Y-146431000D01*
X162433000Y-146431000D01*
X162395655Y-146429165D01*
X162358671Y-146423679D01*
X162322402Y-146414594D01*
X162287198Y-146401998D01*
X162253398Y-146386012D01*
X162221328Y-146366790D01*
X162191296Y-146344517D01*
X162163592Y-146319408D01*
X162138483Y-146291704D01*
X162116210Y-146261672D01*
X162096988Y-146229602D01*
X162081002Y-146195802D01*
X162068406Y-146160598D01*
X162059321Y-146124329D01*
X162053835Y-146087345D01*
X162052000Y-146050000D01*
X162052000Y-142240000D01*
X162053835Y-142202655D01*
X162059321Y-142165671D01*
X162068406Y-142129402D01*
X162081002Y-142094198D01*
X162096988Y-142060398D01*
X162116210Y-142028328D01*
X162138483Y-141998296D01*
X162163592Y-141970592D01*
X162191296Y-141945483D01*
X162221328Y-141923210D01*
X162253398Y-141903988D01*
X162287198Y-141888002D01*
X162322402Y-141875406D01*
X162358671Y-141866321D01*
X162395655Y-141860835D01*
X162433000Y-141859000D01*
X163195000Y-141859000D01*
X163232345Y-141860835D01*
X163232345Y-141860835D01*
G37*
D30*
G04 #@! TD*
G04 #@! TO.P,U1,24*
G04 #@! TO.N,/F#1*
X162814000Y-144145000D03*
D25*
G04 #@! TO.N,/F1*
G04 #@! TO.C,U1*
G36*
X165772345Y-141860835D02*
X165809329Y-141866321D01*
X165845598Y-141875406D01*
X165880802Y-141888002D01*
X165914602Y-141903988D01*
X165946672Y-141923210D01*
X165976704Y-141945483D01*
X166004408Y-141970592D01*
X166029517Y-141998296D01*
X166051790Y-142028328D01*
X166071012Y-142060398D01*
X166086998Y-142094198D01*
X166099594Y-142129402D01*
X166108679Y-142165671D01*
X166114165Y-142202655D01*
X166116000Y-142240000D01*
X166116000Y-146050000D01*
X166114165Y-146087345D01*
X166108679Y-146124329D01*
X166099594Y-146160598D01*
X166086998Y-146195802D01*
X166071012Y-146229602D01*
X166051790Y-146261672D01*
X166029517Y-146291704D01*
X166004408Y-146319408D01*
X165976704Y-146344517D01*
X165946672Y-146366790D01*
X165914602Y-146386012D01*
X165880802Y-146401998D01*
X165845598Y-146414594D01*
X165809329Y-146423679D01*
X165772345Y-146429165D01*
X165735000Y-146431000D01*
X164973000Y-146431000D01*
X164935655Y-146429165D01*
X164898671Y-146423679D01*
X164862402Y-146414594D01*
X164827198Y-146401998D01*
X164793398Y-146386012D01*
X164761328Y-146366790D01*
X164731296Y-146344517D01*
X164703592Y-146319408D01*
X164678483Y-146291704D01*
X164656210Y-146261672D01*
X164636988Y-146229602D01*
X164621002Y-146195802D01*
X164608406Y-146160598D01*
X164599321Y-146124329D01*
X164593835Y-146087345D01*
X164592000Y-146050000D01*
X164592000Y-142240000D01*
X164593835Y-142202655D01*
X164599321Y-142165671D01*
X164608406Y-142129402D01*
X164621002Y-142094198D01*
X164636988Y-142060398D01*
X164656210Y-142028328D01*
X164678483Y-141998296D01*
X164703592Y-141970592D01*
X164731296Y-141945483D01*
X164761328Y-141923210D01*
X164793398Y-141903988D01*
X164827198Y-141888002D01*
X164862402Y-141875406D01*
X164898671Y-141866321D01*
X164935655Y-141860835D01*
X164973000Y-141859000D01*
X165735000Y-141859000D01*
X165772345Y-141860835D01*
X165772345Y-141860835D01*
G37*
D30*
G04 #@! TD*
G04 #@! TO.P,U1,23*
G04 #@! TO.N,/F1*
X165354000Y-144145000D03*
D25*
G04 #@! TO.N,/E1*
G04 #@! TO.C,U1*
G36*
X168312345Y-141860835D02*
X168349329Y-141866321D01*
X168385598Y-141875406D01*
X168420802Y-141888002D01*
X168454602Y-141903988D01*
X168486672Y-141923210D01*
X168516704Y-141945483D01*
X168544408Y-141970592D01*
X168569517Y-141998296D01*
X168591790Y-142028328D01*
X168611012Y-142060398D01*
X168626998Y-142094198D01*
X168639594Y-142129402D01*
X168648679Y-142165671D01*
X168654165Y-142202655D01*
X168656000Y-142240000D01*
X168656000Y-146050000D01*
X168654165Y-146087345D01*
X168648679Y-146124329D01*
X168639594Y-146160598D01*
X168626998Y-146195802D01*
X168611012Y-146229602D01*
X168591790Y-146261672D01*
X168569517Y-146291704D01*
X168544408Y-146319408D01*
X168516704Y-146344517D01*
X168486672Y-146366790D01*
X168454602Y-146386012D01*
X168420802Y-146401998D01*
X168385598Y-146414594D01*
X168349329Y-146423679D01*
X168312345Y-146429165D01*
X168275000Y-146431000D01*
X167513000Y-146431000D01*
X167475655Y-146429165D01*
X167438671Y-146423679D01*
X167402402Y-146414594D01*
X167367198Y-146401998D01*
X167333398Y-146386012D01*
X167301328Y-146366790D01*
X167271296Y-146344517D01*
X167243592Y-146319408D01*
X167218483Y-146291704D01*
X167196210Y-146261672D01*
X167176988Y-146229602D01*
X167161002Y-146195802D01*
X167148406Y-146160598D01*
X167139321Y-146124329D01*
X167133835Y-146087345D01*
X167132000Y-146050000D01*
X167132000Y-142240000D01*
X167133835Y-142202655D01*
X167139321Y-142165671D01*
X167148406Y-142129402D01*
X167161002Y-142094198D01*
X167176988Y-142060398D01*
X167196210Y-142028328D01*
X167218483Y-141998296D01*
X167243592Y-141970592D01*
X167271296Y-141945483D01*
X167301328Y-141923210D01*
X167333398Y-141903988D01*
X167367198Y-141888002D01*
X167402402Y-141875406D01*
X167438671Y-141866321D01*
X167475655Y-141860835D01*
X167513000Y-141859000D01*
X168275000Y-141859000D01*
X168312345Y-141860835D01*
X168312345Y-141860835D01*
G37*
D30*
G04 #@! TD*
G04 #@! TO.P,U1,22*
G04 #@! TO.N,/E1*
X167894000Y-144145000D03*
D25*
G04 #@! TO.N,Net-(U1-Pad21)*
G04 #@! TO.C,U1*
G36*
X170852345Y-141860835D02*
X170889329Y-141866321D01*
X170925598Y-141875406D01*
X170960802Y-141888002D01*
X170994602Y-141903988D01*
X171026672Y-141923210D01*
X171056704Y-141945483D01*
X171084408Y-141970592D01*
X171109517Y-141998296D01*
X171131790Y-142028328D01*
X171151012Y-142060398D01*
X171166998Y-142094198D01*
X171179594Y-142129402D01*
X171188679Y-142165671D01*
X171194165Y-142202655D01*
X171196000Y-142240000D01*
X171196000Y-146050000D01*
X171194165Y-146087345D01*
X171188679Y-146124329D01*
X171179594Y-146160598D01*
X171166998Y-146195802D01*
X171151012Y-146229602D01*
X171131790Y-146261672D01*
X171109517Y-146291704D01*
X171084408Y-146319408D01*
X171056704Y-146344517D01*
X171026672Y-146366790D01*
X170994602Y-146386012D01*
X170960802Y-146401998D01*
X170925598Y-146414594D01*
X170889329Y-146423679D01*
X170852345Y-146429165D01*
X170815000Y-146431000D01*
X170053000Y-146431000D01*
X170015655Y-146429165D01*
X169978671Y-146423679D01*
X169942402Y-146414594D01*
X169907198Y-146401998D01*
X169873398Y-146386012D01*
X169841328Y-146366790D01*
X169811296Y-146344517D01*
X169783592Y-146319408D01*
X169758483Y-146291704D01*
X169736210Y-146261672D01*
X169716988Y-146229602D01*
X169701002Y-146195802D01*
X169688406Y-146160598D01*
X169679321Y-146124329D01*
X169673835Y-146087345D01*
X169672000Y-146050000D01*
X169672000Y-142240000D01*
X169673835Y-142202655D01*
X169679321Y-142165671D01*
X169688406Y-142129402D01*
X169701002Y-142094198D01*
X169716988Y-142060398D01*
X169736210Y-142028328D01*
X169758483Y-141998296D01*
X169783592Y-141970592D01*
X169811296Y-141945483D01*
X169841328Y-141923210D01*
X169873398Y-141903988D01*
X169907198Y-141888002D01*
X169942402Y-141875406D01*
X169978671Y-141866321D01*
X170015655Y-141860835D01*
X170053000Y-141859000D01*
X170815000Y-141859000D01*
X170852345Y-141860835D01*
X170852345Y-141860835D01*
G37*
D30*
G04 #@! TD*
G04 #@! TO.P,U1,21*
G04 #@! TO.N,Net-(U1-Pad21)*
X170434000Y-144145000D03*
D25*
G04 #@! TO.N,Net-(U1-Pad20)*
G04 #@! TO.C,U1*
G36*
X170852345Y-123572835D02*
X170889329Y-123578321D01*
X170925598Y-123587406D01*
X170960802Y-123600002D01*
X170994602Y-123615988D01*
X171026672Y-123635210D01*
X171056704Y-123657483D01*
X171084408Y-123682592D01*
X171109517Y-123710296D01*
X171131790Y-123740328D01*
X171151012Y-123772398D01*
X171166998Y-123806198D01*
X171179594Y-123841402D01*
X171188679Y-123877671D01*
X171194165Y-123914655D01*
X171196000Y-123952000D01*
X171196000Y-127762000D01*
X171194165Y-127799345D01*
X171188679Y-127836329D01*
X171179594Y-127872598D01*
X171166998Y-127907802D01*
X171151012Y-127941602D01*
X171131790Y-127973672D01*
X171109517Y-128003704D01*
X171084408Y-128031408D01*
X171056704Y-128056517D01*
X171026672Y-128078790D01*
X170994602Y-128098012D01*
X170960802Y-128113998D01*
X170925598Y-128126594D01*
X170889329Y-128135679D01*
X170852345Y-128141165D01*
X170815000Y-128143000D01*
X170053000Y-128143000D01*
X170015655Y-128141165D01*
X169978671Y-128135679D01*
X169942402Y-128126594D01*
X169907198Y-128113998D01*
X169873398Y-128098012D01*
X169841328Y-128078790D01*
X169811296Y-128056517D01*
X169783592Y-128031408D01*
X169758483Y-128003704D01*
X169736210Y-127973672D01*
X169716988Y-127941602D01*
X169701002Y-127907802D01*
X169688406Y-127872598D01*
X169679321Y-127836329D01*
X169673835Y-127799345D01*
X169672000Y-127762000D01*
X169672000Y-123952000D01*
X169673835Y-123914655D01*
X169679321Y-123877671D01*
X169688406Y-123841402D01*
X169701002Y-123806198D01*
X169716988Y-123772398D01*
X169736210Y-123740328D01*
X169758483Y-123710296D01*
X169783592Y-123682592D01*
X169811296Y-123657483D01*
X169841328Y-123635210D01*
X169873398Y-123615988D01*
X169907198Y-123600002D01*
X169942402Y-123587406D01*
X169978671Y-123578321D01*
X170015655Y-123572835D01*
X170053000Y-123571000D01*
X170815000Y-123571000D01*
X170852345Y-123572835D01*
X170852345Y-123572835D01*
G37*
D30*
G04 #@! TD*
G04 #@! TO.P,U1,20*
G04 #@! TO.N,Net-(U1-Pad20)*
X170434000Y-125857000D03*
D25*
G04 #@! TO.N,GND*
G04 #@! TO.C,U1*
G36*
X168312345Y-123572835D02*
X168349329Y-123578321D01*
X168385598Y-123587406D01*
X168420802Y-123600002D01*
X168454602Y-123615988D01*
X168486672Y-123635210D01*
X168516704Y-123657483D01*
X168544408Y-123682592D01*
X168569517Y-123710296D01*
X168591790Y-123740328D01*
X168611012Y-123772398D01*
X168626998Y-123806198D01*
X168639594Y-123841402D01*
X168648679Y-123877671D01*
X168654165Y-123914655D01*
X168656000Y-123952000D01*
X168656000Y-127762000D01*
X168654165Y-127799345D01*
X168648679Y-127836329D01*
X168639594Y-127872598D01*
X168626998Y-127907802D01*
X168611012Y-127941602D01*
X168591790Y-127973672D01*
X168569517Y-128003704D01*
X168544408Y-128031408D01*
X168516704Y-128056517D01*
X168486672Y-128078790D01*
X168454602Y-128098012D01*
X168420802Y-128113998D01*
X168385598Y-128126594D01*
X168349329Y-128135679D01*
X168312345Y-128141165D01*
X168275000Y-128143000D01*
X167513000Y-128143000D01*
X167475655Y-128141165D01*
X167438671Y-128135679D01*
X167402402Y-128126594D01*
X167367198Y-128113998D01*
X167333398Y-128098012D01*
X167301328Y-128078790D01*
X167271296Y-128056517D01*
X167243592Y-128031408D01*
X167218483Y-128003704D01*
X167196210Y-127973672D01*
X167176988Y-127941602D01*
X167161002Y-127907802D01*
X167148406Y-127872598D01*
X167139321Y-127836329D01*
X167133835Y-127799345D01*
X167132000Y-127762000D01*
X167132000Y-123952000D01*
X167133835Y-123914655D01*
X167139321Y-123877671D01*
X167148406Y-123841402D01*
X167161002Y-123806198D01*
X167176988Y-123772398D01*
X167196210Y-123740328D01*
X167218483Y-123710296D01*
X167243592Y-123682592D01*
X167271296Y-123657483D01*
X167301328Y-123635210D01*
X167333398Y-123615988D01*
X167367198Y-123600002D01*
X167402402Y-123587406D01*
X167438671Y-123578321D01*
X167475655Y-123572835D01*
X167513000Y-123571000D01*
X168275000Y-123571000D01*
X168312345Y-123572835D01*
X168312345Y-123572835D01*
G37*
D30*
G04 #@! TD*
G04 #@! TO.P,U1,19*
G04 #@! TO.N,GND*
X167894000Y-125857000D03*
D25*
G04 #@! TO.N,/+5V*
G04 #@! TO.C,U1*
G36*
X165772345Y-123572835D02*
X165809329Y-123578321D01*
X165845598Y-123587406D01*
X165880802Y-123600002D01*
X165914602Y-123615988D01*
X165946672Y-123635210D01*
X165976704Y-123657483D01*
X166004408Y-123682592D01*
X166029517Y-123710296D01*
X166051790Y-123740328D01*
X166071012Y-123772398D01*
X166086998Y-123806198D01*
X166099594Y-123841402D01*
X166108679Y-123877671D01*
X166114165Y-123914655D01*
X166116000Y-123952000D01*
X166116000Y-127762000D01*
X166114165Y-127799345D01*
X166108679Y-127836329D01*
X166099594Y-127872598D01*
X166086998Y-127907802D01*
X166071012Y-127941602D01*
X166051790Y-127973672D01*
X166029517Y-128003704D01*
X166004408Y-128031408D01*
X165976704Y-128056517D01*
X165946672Y-128078790D01*
X165914602Y-128098012D01*
X165880802Y-128113998D01*
X165845598Y-128126594D01*
X165809329Y-128135679D01*
X165772345Y-128141165D01*
X165735000Y-128143000D01*
X164973000Y-128143000D01*
X164935655Y-128141165D01*
X164898671Y-128135679D01*
X164862402Y-128126594D01*
X164827198Y-128113998D01*
X164793398Y-128098012D01*
X164761328Y-128078790D01*
X164731296Y-128056517D01*
X164703592Y-128031408D01*
X164678483Y-128003704D01*
X164656210Y-127973672D01*
X164636988Y-127941602D01*
X164621002Y-127907802D01*
X164608406Y-127872598D01*
X164599321Y-127836329D01*
X164593835Y-127799345D01*
X164592000Y-127762000D01*
X164592000Y-123952000D01*
X164593835Y-123914655D01*
X164599321Y-123877671D01*
X164608406Y-123841402D01*
X164621002Y-123806198D01*
X164636988Y-123772398D01*
X164656210Y-123740328D01*
X164678483Y-123710296D01*
X164703592Y-123682592D01*
X164731296Y-123657483D01*
X164761328Y-123635210D01*
X164793398Y-123615988D01*
X164827198Y-123600002D01*
X164862402Y-123587406D01*
X164898671Y-123578321D01*
X164935655Y-123572835D01*
X164973000Y-123571000D01*
X165735000Y-123571000D01*
X165772345Y-123572835D01*
X165772345Y-123572835D01*
G37*
D30*
G04 #@! TD*
G04 #@! TO.P,U1,18*
G04 #@! TO.N,/+5V*
X165354000Y-125857000D03*
D25*
G04 #@! TO.N,/D#1*
G04 #@! TO.C,U1*
G36*
X163232345Y-123572835D02*
X163269329Y-123578321D01*
X163305598Y-123587406D01*
X163340802Y-123600002D01*
X163374602Y-123615988D01*
X163406672Y-123635210D01*
X163436704Y-123657483D01*
X163464408Y-123682592D01*
X163489517Y-123710296D01*
X163511790Y-123740328D01*
X163531012Y-123772398D01*
X163546998Y-123806198D01*
X163559594Y-123841402D01*
X163568679Y-123877671D01*
X163574165Y-123914655D01*
X163576000Y-123952000D01*
X163576000Y-127762000D01*
X163574165Y-127799345D01*
X163568679Y-127836329D01*
X163559594Y-127872598D01*
X163546998Y-127907802D01*
X163531012Y-127941602D01*
X163511790Y-127973672D01*
X163489517Y-128003704D01*
X163464408Y-128031408D01*
X163436704Y-128056517D01*
X163406672Y-128078790D01*
X163374602Y-128098012D01*
X163340802Y-128113998D01*
X163305598Y-128126594D01*
X163269329Y-128135679D01*
X163232345Y-128141165D01*
X163195000Y-128143000D01*
X162433000Y-128143000D01*
X162395655Y-128141165D01*
X162358671Y-128135679D01*
X162322402Y-128126594D01*
X162287198Y-128113998D01*
X162253398Y-128098012D01*
X162221328Y-128078790D01*
X162191296Y-128056517D01*
X162163592Y-128031408D01*
X162138483Y-128003704D01*
X162116210Y-127973672D01*
X162096988Y-127941602D01*
X162081002Y-127907802D01*
X162068406Y-127872598D01*
X162059321Y-127836329D01*
X162053835Y-127799345D01*
X162052000Y-127762000D01*
X162052000Y-123952000D01*
X162053835Y-123914655D01*
X162059321Y-123877671D01*
X162068406Y-123841402D01*
X162081002Y-123806198D01*
X162096988Y-123772398D01*
X162116210Y-123740328D01*
X162138483Y-123710296D01*
X162163592Y-123682592D01*
X162191296Y-123657483D01*
X162221328Y-123635210D01*
X162253398Y-123615988D01*
X162287198Y-123600002D01*
X162322402Y-123587406D01*
X162358671Y-123578321D01*
X162395655Y-123572835D01*
X162433000Y-123571000D01*
X163195000Y-123571000D01*
X163232345Y-123572835D01*
X163232345Y-123572835D01*
G37*
D30*
G04 #@! TD*
G04 #@! TO.P,U1,17*
G04 #@! TO.N,/D#1*
X162814000Y-125857000D03*
D25*
G04 #@! TO.N,/AUDIO_OUT*
G04 #@! TO.C,U1*
G36*
X160692345Y-123572835D02*
X160729329Y-123578321D01*
X160765598Y-123587406D01*
X160800802Y-123600002D01*
X160834602Y-123615988D01*
X160866672Y-123635210D01*
X160896704Y-123657483D01*
X160924408Y-123682592D01*
X160949517Y-123710296D01*
X160971790Y-123740328D01*
X160991012Y-123772398D01*
X161006998Y-123806198D01*
X161019594Y-123841402D01*
X161028679Y-123877671D01*
X161034165Y-123914655D01*
X161036000Y-123952000D01*
X161036000Y-127762000D01*
X161034165Y-127799345D01*
X161028679Y-127836329D01*
X161019594Y-127872598D01*
X161006998Y-127907802D01*
X160991012Y-127941602D01*
X160971790Y-127973672D01*
X160949517Y-128003704D01*
X160924408Y-128031408D01*
X160896704Y-128056517D01*
X160866672Y-128078790D01*
X160834602Y-128098012D01*
X160800802Y-128113998D01*
X160765598Y-128126594D01*
X160729329Y-128135679D01*
X160692345Y-128141165D01*
X160655000Y-128143000D01*
X159893000Y-128143000D01*
X159855655Y-128141165D01*
X159818671Y-128135679D01*
X159782402Y-128126594D01*
X159747198Y-128113998D01*
X159713398Y-128098012D01*
X159681328Y-128078790D01*
X159651296Y-128056517D01*
X159623592Y-128031408D01*
X159598483Y-128003704D01*
X159576210Y-127973672D01*
X159556988Y-127941602D01*
X159541002Y-127907802D01*
X159528406Y-127872598D01*
X159519321Y-127836329D01*
X159513835Y-127799345D01*
X159512000Y-127762000D01*
X159512000Y-123952000D01*
X159513835Y-123914655D01*
X159519321Y-123877671D01*
X159528406Y-123841402D01*
X159541002Y-123806198D01*
X159556988Y-123772398D01*
X159576210Y-123740328D01*
X159598483Y-123710296D01*
X159623592Y-123682592D01*
X159651296Y-123657483D01*
X159681328Y-123635210D01*
X159713398Y-123615988D01*
X159747198Y-123600002D01*
X159782402Y-123587406D01*
X159818671Y-123578321D01*
X159855655Y-123572835D01*
X159893000Y-123571000D01*
X160655000Y-123571000D01*
X160692345Y-123572835D01*
X160692345Y-123572835D01*
G37*
D30*
G04 #@! TD*
G04 #@! TO.P,U1,16*
G04 #@! TO.N,/AUDIO_OUT*
X160274000Y-125857000D03*
D25*
G04 #@! TO.N,/D1*
G04 #@! TO.C,U1*
G36*
X158152345Y-123572835D02*
X158189329Y-123578321D01*
X158225598Y-123587406D01*
X158260802Y-123600002D01*
X158294602Y-123615988D01*
X158326672Y-123635210D01*
X158356704Y-123657483D01*
X158384408Y-123682592D01*
X158409517Y-123710296D01*
X158431790Y-123740328D01*
X158451012Y-123772398D01*
X158466998Y-123806198D01*
X158479594Y-123841402D01*
X158488679Y-123877671D01*
X158494165Y-123914655D01*
X158496000Y-123952000D01*
X158496000Y-127762000D01*
X158494165Y-127799345D01*
X158488679Y-127836329D01*
X158479594Y-127872598D01*
X158466998Y-127907802D01*
X158451012Y-127941602D01*
X158431790Y-127973672D01*
X158409517Y-128003704D01*
X158384408Y-128031408D01*
X158356704Y-128056517D01*
X158326672Y-128078790D01*
X158294602Y-128098012D01*
X158260802Y-128113998D01*
X158225598Y-128126594D01*
X158189329Y-128135679D01*
X158152345Y-128141165D01*
X158115000Y-128143000D01*
X157353000Y-128143000D01*
X157315655Y-128141165D01*
X157278671Y-128135679D01*
X157242402Y-128126594D01*
X157207198Y-128113998D01*
X157173398Y-128098012D01*
X157141328Y-128078790D01*
X157111296Y-128056517D01*
X157083592Y-128031408D01*
X157058483Y-128003704D01*
X157036210Y-127973672D01*
X157016988Y-127941602D01*
X157001002Y-127907802D01*
X156988406Y-127872598D01*
X156979321Y-127836329D01*
X156973835Y-127799345D01*
X156972000Y-127762000D01*
X156972000Y-123952000D01*
X156973835Y-123914655D01*
X156979321Y-123877671D01*
X156988406Y-123841402D01*
X157001002Y-123806198D01*
X157016988Y-123772398D01*
X157036210Y-123740328D01*
X157058483Y-123710296D01*
X157083592Y-123682592D01*
X157111296Y-123657483D01*
X157141328Y-123635210D01*
X157173398Y-123615988D01*
X157207198Y-123600002D01*
X157242402Y-123587406D01*
X157278671Y-123578321D01*
X157315655Y-123572835D01*
X157353000Y-123571000D01*
X158115000Y-123571000D01*
X158152345Y-123572835D01*
X158152345Y-123572835D01*
G37*
D30*
G04 #@! TD*
G04 #@! TO.P,U1,15*
G04 #@! TO.N,/D1*
X157734000Y-125857000D03*
D25*
G04 #@! TO.N,/C#1*
G04 #@! TO.C,U1*
G36*
X155612345Y-123572835D02*
X155649329Y-123578321D01*
X155685598Y-123587406D01*
X155720802Y-123600002D01*
X155754602Y-123615988D01*
X155786672Y-123635210D01*
X155816704Y-123657483D01*
X155844408Y-123682592D01*
X155869517Y-123710296D01*
X155891790Y-123740328D01*
X155911012Y-123772398D01*
X155926998Y-123806198D01*
X155939594Y-123841402D01*
X155948679Y-123877671D01*
X155954165Y-123914655D01*
X155956000Y-123952000D01*
X155956000Y-127762000D01*
X155954165Y-127799345D01*
X155948679Y-127836329D01*
X155939594Y-127872598D01*
X155926998Y-127907802D01*
X155911012Y-127941602D01*
X155891790Y-127973672D01*
X155869517Y-128003704D01*
X155844408Y-128031408D01*
X155816704Y-128056517D01*
X155786672Y-128078790D01*
X155754602Y-128098012D01*
X155720802Y-128113998D01*
X155685598Y-128126594D01*
X155649329Y-128135679D01*
X155612345Y-128141165D01*
X155575000Y-128143000D01*
X154813000Y-128143000D01*
X154775655Y-128141165D01*
X154738671Y-128135679D01*
X154702402Y-128126594D01*
X154667198Y-128113998D01*
X154633398Y-128098012D01*
X154601328Y-128078790D01*
X154571296Y-128056517D01*
X154543592Y-128031408D01*
X154518483Y-128003704D01*
X154496210Y-127973672D01*
X154476988Y-127941602D01*
X154461002Y-127907802D01*
X154448406Y-127872598D01*
X154439321Y-127836329D01*
X154433835Y-127799345D01*
X154432000Y-127762000D01*
X154432000Y-123952000D01*
X154433835Y-123914655D01*
X154439321Y-123877671D01*
X154448406Y-123841402D01*
X154461002Y-123806198D01*
X154476988Y-123772398D01*
X154496210Y-123740328D01*
X154518483Y-123710296D01*
X154543592Y-123682592D01*
X154571296Y-123657483D01*
X154601328Y-123635210D01*
X154633398Y-123615988D01*
X154667198Y-123600002D01*
X154702402Y-123587406D01*
X154738671Y-123578321D01*
X154775655Y-123572835D01*
X154813000Y-123571000D01*
X155575000Y-123571000D01*
X155612345Y-123572835D01*
X155612345Y-123572835D01*
G37*
D30*
G04 #@! TD*
G04 #@! TO.P,U1,14*
G04 #@! TO.N,/C#1*
X155194000Y-125857000D03*
D25*
G04 #@! TO.N,/C1*
G04 #@! TO.C,U1*
G36*
X153072345Y-123572835D02*
X153109329Y-123578321D01*
X153145598Y-123587406D01*
X153180802Y-123600002D01*
X153214602Y-123615988D01*
X153246672Y-123635210D01*
X153276704Y-123657483D01*
X153304408Y-123682592D01*
X153329517Y-123710296D01*
X153351790Y-123740328D01*
X153371012Y-123772398D01*
X153386998Y-123806198D01*
X153399594Y-123841402D01*
X153408679Y-123877671D01*
X153414165Y-123914655D01*
X153416000Y-123952000D01*
X153416000Y-127762000D01*
X153414165Y-127799345D01*
X153408679Y-127836329D01*
X153399594Y-127872598D01*
X153386998Y-127907802D01*
X153371012Y-127941602D01*
X153351790Y-127973672D01*
X153329517Y-128003704D01*
X153304408Y-128031408D01*
X153276704Y-128056517D01*
X153246672Y-128078790D01*
X153214602Y-128098012D01*
X153180802Y-128113998D01*
X153145598Y-128126594D01*
X153109329Y-128135679D01*
X153072345Y-128141165D01*
X153035000Y-128143000D01*
X152273000Y-128143000D01*
X152235655Y-128141165D01*
X152198671Y-128135679D01*
X152162402Y-128126594D01*
X152127198Y-128113998D01*
X152093398Y-128098012D01*
X152061328Y-128078790D01*
X152031296Y-128056517D01*
X152003592Y-128031408D01*
X151978483Y-128003704D01*
X151956210Y-127973672D01*
X151936988Y-127941602D01*
X151921002Y-127907802D01*
X151908406Y-127872598D01*
X151899321Y-127836329D01*
X151893835Y-127799345D01*
X151892000Y-127762000D01*
X151892000Y-123952000D01*
X151893835Y-123914655D01*
X151899321Y-123877671D01*
X151908406Y-123841402D01*
X151921002Y-123806198D01*
X151936988Y-123772398D01*
X151956210Y-123740328D01*
X151978483Y-123710296D01*
X152003592Y-123682592D01*
X152031296Y-123657483D01*
X152061328Y-123635210D01*
X152093398Y-123615988D01*
X152127198Y-123600002D01*
X152162402Y-123587406D01*
X152198671Y-123578321D01*
X152235655Y-123572835D01*
X152273000Y-123571000D01*
X153035000Y-123571000D01*
X153072345Y-123572835D01*
X153072345Y-123572835D01*
G37*
D30*
G04 #@! TD*
G04 #@! TO.P,U1,13*
G04 #@! TO.N,/C1*
X152654000Y-125857000D03*
D25*
G04 #@! TO.N,/B0*
G04 #@! TO.C,U1*
G36*
X150532345Y-123572835D02*
X150569329Y-123578321D01*
X150605598Y-123587406D01*
X150640802Y-123600002D01*
X150674602Y-123615988D01*
X150706672Y-123635210D01*
X150736704Y-123657483D01*
X150764408Y-123682592D01*
X150789517Y-123710296D01*
X150811790Y-123740328D01*
X150831012Y-123772398D01*
X150846998Y-123806198D01*
X150859594Y-123841402D01*
X150868679Y-123877671D01*
X150874165Y-123914655D01*
X150876000Y-123952000D01*
X150876000Y-127762000D01*
X150874165Y-127799345D01*
X150868679Y-127836329D01*
X150859594Y-127872598D01*
X150846998Y-127907802D01*
X150831012Y-127941602D01*
X150811790Y-127973672D01*
X150789517Y-128003704D01*
X150764408Y-128031408D01*
X150736704Y-128056517D01*
X150706672Y-128078790D01*
X150674602Y-128098012D01*
X150640802Y-128113998D01*
X150605598Y-128126594D01*
X150569329Y-128135679D01*
X150532345Y-128141165D01*
X150495000Y-128143000D01*
X149733000Y-128143000D01*
X149695655Y-128141165D01*
X149658671Y-128135679D01*
X149622402Y-128126594D01*
X149587198Y-128113998D01*
X149553398Y-128098012D01*
X149521328Y-128078790D01*
X149491296Y-128056517D01*
X149463592Y-128031408D01*
X149438483Y-128003704D01*
X149416210Y-127973672D01*
X149396988Y-127941602D01*
X149381002Y-127907802D01*
X149368406Y-127872598D01*
X149359321Y-127836329D01*
X149353835Y-127799345D01*
X149352000Y-127762000D01*
X149352000Y-123952000D01*
X149353835Y-123914655D01*
X149359321Y-123877671D01*
X149368406Y-123841402D01*
X149381002Y-123806198D01*
X149396988Y-123772398D01*
X149416210Y-123740328D01*
X149438483Y-123710296D01*
X149463592Y-123682592D01*
X149491296Y-123657483D01*
X149521328Y-123635210D01*
X149553398Y-123615988D01*
X149587198Y-123600002D01*
X149622402Y-123587406D01*
X149658671Y-123578321D01*
X149695655Y-123572835D01*
X149733000Y-123571000D01*
X150495000Y-123571000D01*
X150532345Y-123572835D01*
X150532345Y-123572835D01*
G37*
D30*
G04 #@! TD*
G04 #@! TO.P,U1,12*
G04 #@! TO.N,/B0*
X150114000Y-125857000D03*
D25*
G04 #@! TO.N,/A#0*
G04 #@! TO.C,U1*
G36*
X147992345Y-123572835D02*
X148029329Y-123578321D01*
X148065598Y-123587406D01*
X148100802Y-123600002D01*
X148134602Y-123615988D01*
X148166672Y-123635210D01*
X148196704Y-123657483D01*
X148224408Y-123682592D01*
X148249517Y-123710296D01*
X148271790Y-123740328D01*
X148291012Y-123772398D01*
X148306998Y-123806198D01*
X148319594Y-123841402D01*
X148328679Y-123877671D01*
X148334165Y-123914655D01*
X148336000Y-123952000D01*
X148336000Y-127762000D01*
X148334165Y-127799345D01*
X148328679Y-127836329D01*
X148319594Y-127872598D01*
X148306998Y-127907802D01*
X148291012Y-127941602D01*
X148271790Y-127973672D01*
X148249517Y-128003704D01*
X148224408Y-128031408D01*
X148196704Y-128056517D01*
X148166672Y-128078790D01*
X148134602Y-128098012D01*
X148100802Y-128113998D01*
X148065598Y-128126594D01*
X148029329Y-128135679D01*
X147992345Y-128141165D01*
X147955000Y-128143000D01*
X147193000Y-128143000D01*
X147155655Y-128141165D01*
X147118671Y-128135679D01*
X147082402Y-128126594D01*
X147047198Y-128113998D01*
X147013398Y-128098012D01*
X146981328Y-128078790D01*
X146951296Y-128056517D01*
X146923592Y-128031408D01*
X146898483Y-128003704D01*
X146876210Y-127973672D01*
X146856988Y-127941602D01*
X146841002Y-127907802D01*
X146828406Y-127872598D01*
X146819321Y-127836329D01*
X146813835Y-127799345D01*
X146812000Y-127762000D01*
X146812000Y-123952000D01*
X146813835Y-123914655D01*
X146819321Y-123877671D01*
X146828406Y-123841402D01*
X146841002Y-123806198D01*
X146856988Y-123772398D01*
X146876210Y-123740328D01*
X146898483Y-123710296D01*
X146923592Y-123682592D01*
X146951296Y-123657483D01*
X146981328Y-123635210D01*
X147013398Y-123615988D01*
X147047198Y-123600002D01*
X147082402Y-123587406D01*
X147118671Y-123578321D01*
X147155655Y-123572835D01*
X147193000Y-123571000D01*
X147955000Y-123571000D01*
X147992345Y-123572835D01*
X147992345Y-123572835D01*
G37*
D30*
G04 #@! TD*
G04 #@! TO.P,U1,11*
G04 #@! TO.N,/A#0*
X147574000Y-125857000D03*
D25*
G04 #@! TO.N,/A0*
G04 #@! TO.C,U1*
G36*
X145452345Y-123572835D02*
X145489329Y-123578321D01*
X145525598Y-123587406D01*
X145560802Y-123600002D01*
X145594602Y-123615988D01*
X145626672Y-123635210D01*
X145656704Y-123657483D01*
X145684408Y-123682592D01*
X145709517Y-123710296D01*
X145731790Y-123740328D01*
X145751012Y-123772398D01*
X145766998Y-123806198D01*
X145779594Y-123841402D01*
X145788679Y-123877671D01*
X145794165Y-123914655D01*
X145796000Y-123952000D01*
X145796000Y-127762000D01*
X145794165Y-127799345D01*
X145788679Y-127836329D01*
X145779594Y-127872598D01*
X145766998Y-127907802D01*
X145751012Y-127941602D01*
X145731790Y-127973672D01*
X145709517Y-128003704D01*
X145684408Y-128031408D01*
X145656704Y-128056517D01*
X145626672Y-128078790D01*
X145594602Y-128098012D01*
X145560802Y-128113998D01*
X145525598Y-128126594D01*
X145489329Y-128135679D01*
X145452345Y-128141165D01*
X145415000Y-128143000D01*
X144653000Y-128143000D01*
X144615655Y-128141165D01*
X144578671Y-128135679D01*
X144542402Y-128126594D01*
X144507198Y-128113998D01*
X144473398Y-128098012D01*
X144441328Y-128078790D01*
X144411296Y-128056517D01*
X144383592Y-128031408D01*
X144358483Y-128003704D01*
X144336210Y-127973672D01*
X144316988Y-127941602D01*
X144301002Y-127907802D01*
X144288406Y-127872598D01*
X144279321Y-127836329D01*
X144273835Y-127799345D01*
X144272000Y-127762000D01*
X144272000Y-123952000D01*
X144273835Y-123914655D01*
X144279321Y-123877671D01*
X144288406Y-123841402D01*
X144301002Y-123806198D01*
X144316988Y-123772398D01*
X144336210Y-123740328D01*
X144358483Y-123710296D01*
X144383592Y-123682592D01*
X144411296Y-123657483D01*
X144441328Y-123635210D01*
X144473398Y-123615988D01*
X144507198Y-123600002D01*
X144542402Y-123587406D01*
X144578671Y-123578321D01*
X144615655Y-123572835D01*
X144653000Y-123571000D01*
X145415000Y-123571000D01*
X145452345Y-123572835D01*
X145452345Y-123572835D01*
G37*
D30*
G04 #@! TD*
G04 #@! TO.P,U1,10*
G04 #@! TO.N,/A0*
X145034000Y-125857000D03*
D25*
G04 #@! TO.N,Net-(J0-Pad3)*
G04 #@! TO.C,U1*
G36*
X142912345Y-123572835D02*
X142949329Y-123578321D01*
X142985598Y-123587406D01*
X143020802Y-123600002D01*
X143054602Y-123615988D01*
X143086672Y-123635210D01*
X143116704Y-123657483D01*
X143144408Y-123682592D01*
X143169517Y-123710296D01*
X143191790Y-123740328D01*
X143211012Y-123772398D01*
X143226998Y-123806198D01*
X143239594Y-123841402D01*
X143248679Y-123877671D01*
X143254165Y-123914655D01*
X143256000Y-123952000D01*
X143256000Y-127762000D01*
X143254165Y-127799345D01*
X143248679Y-127836329D01*
X143239594Y-127872598D01*
X143226998Y-127907802D01*
X143211012Y-127941602D01*
X143191790Y-127973672D01*
X143169517Y-128003704D01*
X143144408Y-128031408D01*
X143116704Y-128056517D01*
X143086672Y-128078790D01*
X143054602Y-128098012D01*
X143020802Y-128113998D01*
X142985598Y-128126594D01*
X142949329Y-128135679D01*
X142912345Y-128141165D01*
X142875000Y-128143000D01*
X142113000Y-128143000D01*
X142075655Y-128141165D01*
X142038671Y-128135679D01*
X142002402Y-128126594D01*
X141967198Y-128113998D01*
X141933398Y-128098012D01*
X141901328Y-128078790D01*
X141871296Y-128056517D01*
X141843592Y-128031408D01*
X141818483Y-128003704D01*
X141796210Y-127973672D01*
X141776988Y-127941602D01*
X141761002Y-127907802D01*
X141748406Y-127872598D01*
X141739321Y-127836329D01*
X141733835Y-127799345D01*
X141732000Y-127762000D01*
X141732000Y-123952000D01*
X141733835Y-123914655D01*
X141739321Y-123877671D01*
X141748406Y-123841402D01*
X141761002Y-123806198D01*
X141776988Y-123772398D01*
X141796210Y-123740328D01*
X141818483Y-123710296D01*
X141843592Y-123682592D01*
X141871296Y-123657483D01*
X141901328Y-123635210D01*
X141933398Y-123615988D01*
X141967198Y-123600002D01*
X142002402Y-123587406D01*
X142038671Y-123578321D01*
X142075655Y-123572835D01*
X142113000Y-123571000D01*
X142875000Y-123571000D01*
X142912345Y-123572835D01*
X142912345Y-123572835D01*
G37*
D30*
G04 #@! TD*
G04 #@! TO.P,U1,9*
G04 #@! TO.N,Net-(J0-Pad3)*
X142494000Y-125857000D03*
D25*
G04 #@! TO.N,Net-(J0-Pad2)*
G04 #@! TO.C,U1*
G36*
X140372345Y-123572835D02*
X140409329Y-123578321D01*
X140445598Y-123587406D01*
X140480802Y-123600002D01*
X140514602Y-123615988D01*
X140546672Y-123635210D01*
X140576704Y-123657483D01*
X140604408Y-123682592D01*
X140629517Y-123710296D01*
X140651790Y-123740328D01*
X140671012Y-123772398D01*
X140686998Y-123806198D01*
X140699594Y-123841402D01*
X140708679Y-123877671D01*
X140714165Y-123914655D01*
X140716000Y-123952000D01*
X140716000Y-127762000D01*
X140714165Y-127799345D01*
X140708679Y-127836329D01*
X140699594Y-127872598D01*
X140686998Y-127907802D01*
X140671012Y-127941602D01*
X140651790Y-127973672D01*
X140629517Y-128003704D01*
X140604408Y-128031408D01*
X140576704Y-128056517D01*
X140546672Y-128078790D01*
X140514602Y-128098012D01*
X140480802Y-128113998D01*
X140445598Y-128126594D01*
X140409329Y-128135679D01*
X140372345Y-128141165D01*
X140335000Y-128143000D01*
X139573000Y-128143000D01*
X139535655Y-128141165D01*
X139498671Y-128135679D01*
X139462402Y-128126594D01*
X139427198Y-128113998D01*
X139393398Y-128098012D01*
X139361328Y-128078790D01*
X139331296Y-128056517D01*
X139303592Y-128031408D01*
X139278483Y-128003704D01*
X139256210Y-127973672D01*
X139236988Y-127941602D01*
X139221002Y-127907802D01*
X139208406Y-127872598D01*
X139199321Y-127836329D01*
X139193835Y-127799345D01*
X139192000Y-127762000D01*
X139192000Y-123952000D01*
X139193835Y-123914655D01*
X139199321Y-123877671D01*
X139208406Y-123841402D01*
X139221002Y-123806198D01*
X139236988Y-123772398D01*
X139256210Y-123740328D01*
X139278483Y-123710296D01*
X139303592Y-123682592D01*
X139331296Y-123657483D01*
X139361328Y-123635210D01*
X139393398Y-123615988D01*
X139427198Y-123600002D01*
X139462402Y-123587406D01*
X139498671Y-123578321D01*
X139535655Y-123572835D01*
X139573000Y-123571000D01*
X140335000Y-123571000D01*
X140372345Y-123572835D01*
X140372345Y-123572835D01*
G37*
D30*
G04 #@! TD*
G04 #@! TO.P,U1,8*
G04 #@! TO.N,Net-(J0-Pad2)*
X139954000Y-125857000D03*
D25*
G04 #@! TO.N,/F#0*
G04 #@! TO.C,U1*
G36*
X137832345Y-123572835D02*
X137869329Y-123578321D01*
X137905598Y-123587406D01*
X137940802Y-123600002D01*
X137974602Y-123615988D01*
X138006672Y-123635210D01*
X138036704Y-123657483D01*
X138064408Y-123682592D01*
X138089517Y-123710296D01*
X138111790Y-123740328D01*
X138131012Y-123772398D01*
X138146998Y-123806198D01*
X138159594Y-123841402D01*
X138168679Y-123877671D01*
X138174165Y-123914655D01*
X138176000Y-123952000D01*
X138176000Y-127762000D01*
X138174165Y-127799345D01*
X138168679Y-127836329D01*
X138159594Y-127872598D01*
X138146998Y-127907802D01*
X138131012Y-127941602D01*
X138111790Y-127973672D01*
X138089517Y-128003704D01*
X138064408Y-128031408D01*
X138036704Y-128056517D01*
X138006672Y-128078790D01*
X137974602Y-128098012D01*
X137940802Y-128113998D01*
X137905598Y-128126594D01*
X137869329Y-128135679D01*
X137832345Y-128141165D01*
X137795000Y-128143000D01*
X137033000Y-128143000D01*
X136995655Y-128141165D01*
X136958671Y-128135679D01*
X136922402Y-128126594D01*
X136887198Y-128113998D01*
X136853398Y-128098012D01*
X136821328Y-128078790D01*
X136791296Y-128056517D01*
X136763592Y-128031408D01*
X136738483Y-128003704D01*
X136716210Y-127973672D01*
X136696988Y-127941602D01*
X136681002Y-127907802D01*
X136668406Y-127872598D01*
X136659321Y-127836329D01*
X136653835Y-127799345D01*
X136652000Y-127762000D01*
X136652000Y-123952000D01*
X136653835Y-123914655D01*
X136659321Y-123877671D01*
X136668406Y-123841402D01*
X136681002Y-123806198D01*
X136696988Y-123772398D01*
X136716210Y-123740328D01*
X136738483Y-123710296D01*
X136763592Y-123682592D01*
X136791296Y-123657483D01*
X136821328Y-123635210D01*
X136853398Y-123615988D01*
X136887198Y-123600002D01*
X136922402Y-123587406D01*
X136958671Y-123578321D01*
X136995655Y-123572835D01*
X137033000Y-123571000D01*
X137795000Y-123571000D01*
X137832345Y-123572835D01*
X137832345Y-123572835D01*
G37*
D30*
G04 #@! TD*
G04 #@! TO.P,U1,7*
G04 #@! TO.N,/F#0*
X137414000Y-125857000D03*
D25*
G04 #@! TO.N,/F0*
G04 #@! TO.C,U1*
G36*
X135292345Y-123572835D02*
X135329329Y-123578321D01*
X135365598Y-123587406D01*
X135400802Y-123600002D01*
X135434602Y-123615988D01*
X135466672Y-123635210D01*
X135496704Y-123657483D01*
X135524408Y-123682592D01*
X135549517Y-123710296D01*
X135571790Y-123740328D01*
X135591012Y-123772398D01*
X135606998Y-123806198D01*
X135619594Y-123841402D01*
X135628679Y-123877671D01*
X135634165Y-123914655D01*
X135636000Y-123952000D01*
X135636000Y-127762000D01*
X135634165Y-127799345D01*
X135628679Y-127836329D01*
X135619594Y-127872598D01*
X135606998Y-127907802D01*
X135591012Y-127941602D01*
X135571790Y-127973672D01*
X135549517Y-128003704D01*
X135524408Y-128031408D01*
X135496704Y-128056517D01*
X135466672Y-128078790D01*
X135434602Y-128098012D01*
X135400802Y-128113998D01*
X135365598Y-128126594D01*
X135329329Y-128135679D01*
X135292345Y-128141165D01*
X135255000Y-128143000D01*
X134493000Y-128143000D01*
X134455655Y-128141165D01*
X134418671Y-128135679D01*
X134382402Y-128126594D01*
X134347198Y-128113998D01*
X134313398Y-128098012D01*
X134281328Y-128078790D01*
X134251296Y-128056517D01*
X134223592Y-128031408D01*
X134198483Y-128003704D01*
X134176210Y-127973672D01*
X134156988Y-127941602D01*
X134141002Y-127907802D01*
X134128406Y-127872598D01*
X134119321Y-127836329D01*
X134113835Y-127799345D01*
X134112000Y-127762000D01*
X134112000Y-123952000D01*
X134113835Y-123914655D01*
X134119321Y-123877671D01*
X134128406Y-123841402D01*
X134141002Y-123806198D01*
X134156988Y-123772398D01*
X134176210Y-123740328D01*
X134198483Y-123710296D01*
X134223592Y-123682592D01*
X134251296Y-123657483D01*
X134281328Y-123635210D01*
X134313398Y-123615988D01*
X134347198Y-123600002D01*
X134382402Y-123587406D01*
X134418671Y-123578321D01*
X134455655Y-123572835D01*
X134493000Y-123571000D01*
X135255000Y-123571000D01*
X135292345Y-123572835D01*
X135292345Y-123572835D01*
G37*
D30*
G04 #@! TD*
G04 #@! TO.P,U1,6*
G04 #@! TO.N,/F0*
X134874000Y-125857000D03*
D25*
G04 #@! TO.N,/E0*
G04 #@! TO.C,U1*
G36*
X132752345Y-123572835D02*
X132789329Y-123578321D01*
X132825598Y-123587406D01*
X132860802Y-123600002D01*
X132894602Y-123615988D01*
X132926672Y-123635210D01*
X132956704Y-123657483D01*
X132984408Y-123682592D01*
X133009517Y-123710296D01*
X133031790Y-123740328D01*
X133051012Y-123772398D01*
X133066998Y-123806198D01*
X133079594Y-123841402D01*
X133088679Y-123877671D01*
X133094165Y-123914655D01*
X133096000Y-123952000D01*
X133096000Y-127762000D01*
X133094165Y-127799345D01*
X133088679Y-127836329D01*
X133079594Y-127872598D01*
X133066998Y-127907802D01*
X133051012Y-127941602D01*
X133031790Y-127973672D01*
X133009517Y-128003704D01*
X132984408Y-128031408D01*
X132956704Y-128056517D01*
X132926672Y-128078790D01*
X132894602Y-128098012D01*
X132860802Y-128113998D01*
X132825598Y-128126594D01*
X132789329Y-128135679D01*
X132752345Y-128141165D01*
X132715000Y-128143000D01*
X131953000Y-128143000D01*
X131915655Y-128141165D01*
X131878671Y-128135679D01*
X131842402Y-128126594D01*
X131807198Y-128113998D01*
X131773398Y-128098012D01*
X131741328Y-128078790D01*
X131711296Y-128056517D01*
X131683592Y-128031408D01*
X131658483Y-128003704D01*
X131636210Y-127973672D01*
X131616988Y-127941602D01*
X131601002Y-127907802D01*
X131588406Y-127872598D01*
X131579321Y-127836329D01*
X131573835Y-127799345D01*
X131572000Y-127762000D01*
X131572000Y-123952000D01*
X131573835Y-123914655D01*
X131579321Y-123877671D01*
X131588406Y-123841402D01*
X131601002Y-123806198D01*
X131616988Y-123772398D01*
X131636210Y-123740328D01*
X131658483Y-123710296D01*
X131683592Y-123682592D01*
X131711296Y-123657483D01*
X131741328Y-123635210D01*
X131773398Y-123615988D01*
X131807198Y-123600002D01*
X131842402Y-123587406D01*
X131878671Y-123578321D01*
X131915655Y-123572835D01*
X131953000Y-123571000D01*
X132715000Y-123571000D01*
X132752345Y-123572835D01*
X132752345Y-123572835D01*
G37*
D30*
G04 #@! TD*
G04 #@! TO.P,U1,5*
G04 #@! TO.N,/E0*
X132334000Y-125857000D03*
D25*
G04 #@! TO.N,/D#0*
G04 #@! TO.C,U1*
G36*
X130212345Y-123572835D02*
X130249329Y-123578321D01*
X130285598Y-123587406D01*
X130320802Y-123600002D01*
X130354602Y-123615988D01*
X130386672Y-123635210D01*
X130416704Y-123657483D01*
X130444408Y-123682592D01*
X130469517Y-123710296D01*
X130491790Y-123740328D01*
X130511012Y-123772398D01*
X130526998Y-123806198D01*
X130539594Y-123841402D01*
X130548679Y-123877671D01*
X130554165Y-123914655D01*
X130556000Y-123952000D01*
X130556000Y-127762000D01*
X130554165Y-127799345D01*
X130548679Y-127836329D01*
X130539594Y-127872598D01*
X130526998Y-127907802D01*
X130511012Y-127941602D01*
X130491790Y-127973672D01*
X130469517Y-128003704D01*
X130444408Y-128031408D01*
X130416704Y-128056517D01*
X130386672Y-128078790D01*
X130354602Y-128098012D01*
X130320802Y-128113998D01*
X130285598Y-128126594D01*
X130249329Y-128135679D01*
X130212345Y-128141165D01*
X130175000Y-128143000D01*
X129413000Y-128143000D01*
X129375655Y-128141165D01*
X129338671Y-128135679D01*
X129302402Y-128126594D01*
X129267198Y-128113998D01*
X129233398Y-128098012D01*
X129201328Y-128078790D01*
X129171296Y-128056517D01*
X129143592Y-128031408D01*
X129118483Y-128003704D01*
X129096210Y-127973672D01*
X129076988Y-127941602D01*
X129061002Y-127907802D01*
X129048406Y-127872598D01*
X129039321Y-127836329D01*
X129033835Y-127799345D01*
X129032000Y-127762000D01*
X129032000Y-123952000D01*
X129033835Y-123914655D01*
X129039321Y-123877671D01*
X129048406Y-123841402D01*
X129061002Y-123806198D01*
X129076988Y-123772398D01*
X129096210Y-123740328D01*
X129118483Y-123710296D01*
X129143592Y-123682592D01*
X129171296Y-123657483D01*
X129201328Y-123635210D01*
X129233398Y-123615988D01*
X129267198Y-123600002D01*
X129302402Y-123587406D01*
X129338671Y-123578321D01*
X129375655Y-123572835D01*
X129413000Y-123571000D01*
X130175000Y-123571000D01*
X130212345Y-123572835D01*
X130212345Y-123572835D01*
G37*
D30*
G04 #@! TD*
G04 #@! TO.P,U1,4*
G04 #@! TO.N,/D#0*
X129794000Y-125857000D03*
D25*
G04 #@! TO.N,/D0*
G04 #@! TO.C,U1*
G36*
X127672345Y-123572835D02*
X127709329Y-123578321D01*
X127745598Y-123587406D01*
X127780802Y-123600002D01*
X127814602Y-123615988D01*
X127846672Y-123635210D01*
X127876704Y-123657483D01*
X127904408Y-123682592D01*
X127929517Y-123710296D01*
X127951790Y-123740328D01*
X127971012Y-123772398D01*
X127986998Y-123806198D01*
X127999594Y-123841402D01*
X128008679Y-123877671D01*
X128014165Y-123914655D01*
X128016000Y-123952000D01*
X128016000Y-127762000D01*
X128014165Y-127799345D01*
X128008679Y-127836329D01*
X127999594Y-127872598D01*
X127986998Y-127907802D01*
X127971012Y-127941602D01*
X127951790Y-127973672D01*
X127929517Y-128003704D01*
X127904408Y-128031408D01*
X127876704Y-128056517D01*
X127846672Y-128078790D01*
X127814602Y-128098012D01*
X127780802Y-128113998D01*
X127745598Y-128126594D01*
X127709329Y-128135679D01*
X127672345Y-128141165D01*
X127635000Y-128143000D01*
X126873000Y-128143000D01*
X126835655Y-128141165D01*
X126798671Y-128135679D01*
X126762402Y-128126594D01*
X126727198Y-128113998D01*
X126693398Y-128098012D01*
X126661328Y-128078790D01*
X126631296Y-128056517D01*
X126603592Y-128031408D01*
X126578483Y-128003704D01*
X126556210Y-127973672D01*
X126536988Y-127941602D01*
X126521002Y-127907802D01*
X126508406Y-127872598D01*
X126499321Y-127836329D01*
X126493835Y-127799345D01*
X126492000Y-127762000D01*
X126492000Y-123952000D01*
X126493835Y-123914655D01*
X126499321Y-123877671D01*
X126508406Y-123841402D01*
X126521002Y-123806198D01*
X126536988Y-123772398D01*
X126556210Y-123740328D01*
X126578483Y-123710296D01*
X126603592Y-123682592D01*
X126631296Y-123657483D01*
X126661328Y-123635210D01*
X126693398Y-123615988D01*
X126727198Y-123600002D01*
X126762402Y-123587406D01*
X126798671Y-123578321D01*
X126835655Y-123572835D01*
X126873000Y-123571000D01*
X127635000Y-123571000D01*
X127672345Y-123572835D01*
X127672345Y-123572835D01*
G37*
D30*
G04 #@! TD*
G04 #@! TO.P,U1,3*
G04 #@! TO.N,/D0*
X127254000Y-125857000D03*
D25*
G04 #@! TO.N,/C#0*
G04 #@! TO.C,U1*
G36*
X125132345Y-123572835D02*
X125169329Y-123578321D01*
X125205598Y-123587406D01*
X125240802Y-123600002D01*
X125274602Y-123615988D01*
X125306672Y-123635210D01*
X125336704Y-123657483D01*
X125364408Y-123682592D01*
X125389517Y-123710296D01*
X125411790Y-123740328D01*
X125431012Y-123772398D01*
X125446998Y-123806198D01*
X125459594Y-123841402D01*
X125468679Y-123877671D01*
X125474165Y-123914655D01*
X125476000Y-123952000D01*
X125476000Y-127762000D01*
X125474165Y-127799345D01*
X125468679Y-127836329D01*
X125459594Y-127872598D01*
X125446998Y-127907802D01*
X125431012Y-127941602D01*
X125411790Y-127973672D01*
X125389517Y-128003704D01*
X125364408Y-128031408D01*
X125336704Y-128056517D01*
X125306672Y-128078790D01*
X125274602Y-128098012D01*
X125240802Y-128113998D01*
X125205598Y-128126594D01*
X125169329Y-128135679D01*
X125132345Y-128141165D01*
X125095000Y-128143000D01*
X124333000Y-128143000D01*
X124295655Y-128141165D01*
X124258671Y-128135679D01*
X124222402Y-128126594D01*
X124187198Y-128113998D01*
X124153398Y-128098012D01*
X124121328Y-128078790D01*
X124091296Y-128056517D01*
X124063592Y-128031408D01*
X124038483Y-128003704D01*
X124016210Y-127973672D01*
X123996988Y-127941602D01*
X123981002Y-127907802D01*
X123968406Y-127872598D01*
X123959321Y-127836329D01*
X123953835Y-127799345D01*
X123952000Y-127762000D01*
X123952000Y-123952000D01*
X123953835Y-123914655D01*
X123959321Y-123877671D01*
X123968406Y-123841402D01*
X123981002Y-123806198D01*
X123996988Y-123772398D01*
X124016210Y-123740328D01*
X124038483Y-123710296D01*
X124063592Y-123682592D01*
X124091296Y-123657483D01*
X124121328Y-123635210D01*
X124153398Y-123615988D01*
X124187198Y-123600002D01*
X124222402Y-123587406D01*
X124258671Y-123578321D01*
X124295655Y-123572835D01*
X124333000Y-123571000D01*
X125095000Y-123571000D01*
X125132345Y-123572835D01*
X125132345Y-123572835D01*
G37*
D30*
G04 #@! TD*
G04 #@! TO.P,U1,2*
G04 #@! TO.N,/C#0*
X124714000Y-125857000D03*
D31*
G04 #@! TO.P,U1,1*
G04 #@! TO.N,/C0*
X122174000Y-125857000D03*
G04 #@! TD*
D20*
G04 #@! TO.P,JL1,1*
G04 #@! TO.N,/LED_DIN*
X152273000Y-59436000D03*
D21*
G04 #@! TO.P,JL1,2*
G04 #@! TO.N,/+5V*
X149733000Y-59436000D03*
G04 #@! TO.P,JL1,3*
G04 #@! TO.N,GND*
X147193000Y-59436000D03*
G04 #@! TO.P,JL1,4*
G04 #@! TO.N,/WS2812B-16-LED-RING/DOUT*
X144653000Y-59436000D03*
G04 #@! TD*
D20*
G04 #@! TO.P,JA1,1*
G04 #@! TO.N,/+5V*
X196088000Y-81788000D03*
D21*
G04 #@! TO.P,JA1,2*
G04 #@! TO.N,GND*
X193548000Y-81788000D03*
G04 #@! TO.P,JA1,3*
X191008000Y-81788000D03*
G04 #@! TO.P,JA1,4*
G04 #@! TO.N,/PWM_OUT*
X188468000Y-81788000D03*
G04 #@! TO.P,JA1,5*
G04 #@! TO.N,/XH-M125-amp-board/OUT-*
X185928000Y-81788000D03*
G04 #@! TO.P,JA1,6*
G04 #@! TO.N,/XH-M125-amp-board/OUT+*
X183388000Y-81788000D03*
G04 #@! TD*
D32*
G04 #@! TO.P,U2,8*
G04 #@! TO.N,/XH-M125-amp-board/OUT-*
X193167000Y-100203000D03*
G04 #@! TO.P,U2,7*
G04 #@! TO.N,GND*
X194437000Y-100203000D03*
G04 #@! TO.P,U2,6*
G04 #@! TO.N,/+5V*
X195707000Y-100203000D03*
G04 #@! TO.P,U2,5*
G04 #@! TO.N,/XH-M125-amp-board/OUT+*
X196977000Y-100203000D03*
G04 #@! TO.P,U2,4*
G04 #@! TO.N,Net-(R3-Pad1)*
X196977000Y-93853000D03*
G04 #@! TO.P,U2,3*
G04 #@! TO.N,GND*
X195707000Y-93853000D03*
G04 #@! TO.P,U2,2*
G04 #@! TO.N,Net-(CA3-Pad1)*
X194437000Y-93853000D03*
G04 #@! TO.P,U2,1*
G04 #@! TO.N,GND*
X193167000Y-93853000D03*
G04 #@! TD*
D33*
G04 #@! TO.P,J0,5*
G04 #@! TO.N,Net-(J0-Pad5)*
X124554500Y-57657000D03*
X112554500Y-57657000D03*
D34*
G04 #@! TO.P,J0,3*
G04 #@! TO.N,Net-(J0-Pad3)*
X117284500Y-60357000D03*
G04 #@! TO.P,J0,4*
G04 #@! TO.N,GND*
X119824500Y-60357000D03*
G04 #@! TO.P,J0,1*
G04 #@! TO.N,Net-(D4-Pad2)*
X119824500Y-62357000D03*
G04 #@! TO.P,J0,2*
G04 #@! TO.N,Net-(J0-Pad2)*
X117284500Y-62357000D03*
G04 #@! TD*
D13*
G04 #@! TO.P,D2,2*
G04 #@! TO.N,/PARAM*
X100656846Y-100021846D03*
D35*
G04 #@! TD*
G04 #@! TO.N,/PARAM*
G04 #@! TO.C,D2*
X100656846Y-100021846D02*
X100656846Y-100021846D01*
D13*
G04 #@! TO.P,D2,1*
G04 #@! TO.N,Net-(D1-Pad1)*
X106045000Y-105410000D03*
D25*
G04 #@! TD*
G04 #@! TO.N,Net-(D1-Pad1)*
G04 #@! TO.C,D2*
G36*
X107176371Y-105410000D02*
X106045000Y-106541371D01*
X104913629Y-105410000D01*
X106045000Y-104278629D01*
X107176371Y-105410000D01*
X107176371Y-105410000D01*
G37*
D14*
G04 #@! TO.P,D3,1*
G04 #@! TO.N,/+5V*
X164465000Y-57150000D03*
D22*
G04 #@! TO.P,D3,2*
G04 #@! TO.N,Net-(D3-Pad2)*
X172085000Y-57150000D03*
G04 #@! TD*
D13*
G04 #@! TO.P,D4,2*
G04 #@! TO.N,Net-(D4-Pad2)*
X123190000Y-62615886D03*
D35*
G04 #@! TD*
G04 #@! TO.N,Net-(D4-Pad2)*
G04 #@! TO.C,D4*
X123190000Y-62615886D02*
X123190000Y-62615886D01*
D13*
G04 #@! TO.P,D4,1*
G04 #@! TO.N,/+5V*
X119380000Y-69215000D03*
D25*
G04 #@! TD*
G04 #@! TO.N,/+5V*
G04 #@! TO.C,D4*
G36*
X119672820Y-70307820D02*
X118287180Y-69507820D01*
X119087180Y-68122180D01*
X120472820Y-68922180D01*
X119672820Y-70307820D01*
X119672820Y-70307820D01*
G37*
D36*
G04 #@! TO.P,SW1,T2B*
G04 #@! TO.N,Net-(SW1-PadT2B)*
X180975000Y-59690000D03*
G04 #@! TO.P,SW1,P2*
G04 #@! TO.N,Net-(BT2-Pad2)*
X178435000Y-59690000D03*
G04 #@! TO.P,SW1,T2A*
G04 #@! TO.N,GND*
X175895000Y-59690000D03*
G04 #@! TO.P,SW1,P1*
G04 #@! TO.N,Net-(BT1-Pad1)*
X178435000Y-57150000D03*
G04 #@! TO.P,SW1,T1A*
G04 #@! TO.N,Net-(D3-Pad2)*
X175895000Y-57150000D03*
G04 #@! TD*
D37*
G04 #@! TO.P,REF\002A\002A,1*
G04 #@! TO.N,*
X74180000Y-60750000D03*
G04 #@! TD*
G04 #@! TO.P,REF\002A\002A,1*
G04 #@! TO.N,*
X222310000Y-60750000D03*
G04 #@! TD*
G04 #@! TO.P,REF\002A\002A,*
G04 #@! TO.N,*
X222270000Y-149400000D03*
G04 #@! TD*
G04 #@! TO.P,REF\002A\002A,*
G04 #@! TO.N,*
X74230000Y-149410000D03*
G04 #@! TD*
D38*
G04 #@! TO.N,/XH-M125-amp-board/OUT-*
X191516000Y-100076000D03*
G04 #@! TO.N,/XH-M125-amp-board/OUT+*
X184404000Y-91948000D03*
X217400000Y-67110000D03*
D39*
X200430000Y-61760000D03*
D38*
G04 #@! TO.N,Net-(BT1-Pad1)*
X184150000Y-55245000D03*
G04 #@! TO.N,/WRITE*
X77724000Y-88392000D03*
D39*
G04 #@! TO.N,/PARAM*
X87793384Y-95744531D03*
D38*
G04 #@! TO.N,GND*
X170561000Y-113919000D03*
X140600000Y-57840000D03*
X171412456Y-68050000D03*
X176591737Y-78160000D03*
X173970000Y-100550000D03*
X166540000Y-109130000D03*
X156180000Y-114360000D03*
X144860000Y-115130000D03*
X134050000Y-111490000D03*
X125360000Y-103830000D03*
X120280000Y-93540000D03*
X123070000Y-71550000D03*
X130619500Y-62734532D03*
X172720000Y-62865000D03*
X100965000Y-75565000D03*
X119320508Y-81915000D03*
G04 #@! TO.N,/+5V*
X168275000Y-114935000D03*
X154178000Y-62738000D03*
X135805877Y-65381097D03*
X162820000Y-66780000D03*
X169033560Y-73660000D03*
X172182578Y-82440000D03*
X171910000Y-91870000D03*
X167990000Y-100340000D03*
X160900000Y-106681924D03*
X152150000Y-110072000D03*
X142920000Y-109370923D03*
X134050000Y-105180986D03*
X127730000Y-98360000D03*
X124816210Y-80180000D03*
X124770000Y-89700000D03*
X129120000Y-71830000D03*
X116840000Y-68580000D03*
X173355000Y-66040000D03*
X199644000Y-90932000D03*
X187260000Y-101360000D03*
G04 #@! TO.N,Net-(J0-Pad3)*
X105410006Y-60325000D03*
G04 #@! TO.N,Net-(J0-Pad2)*
X102870000Y-63500008D03*
D39*
G04 #@! TO.N,Net-(J1-Pad4)*
X199620000Y-70285000D03*
D38*
X215780000Y-71300000D03*
X197640000Y-65040000D03*
G04 #@! TO.N,/PATCH*
X73645973Y-87869961D03*
G04 #@! TO.N,/LED_DIN*
X132080000Y-57785000D03*
G04 #@! TO.N,/C0*
X77001219Y-96495232D03*
G04 #@! TO.N,/C#0*
X78364086Y-99857550D03*
G04 #@! TO.N,/D0*
X80441810Y-101720273D03*
G04 #@! TO.N,/D#0*
X86106000Y-104267000D03*
G04 #@! TO.N,/E0*
X89839178Y-105968810D03*
G04 #@! TO.N,/F0*
X95119038Y-107846436D03*
G04 #@! TO.N,/F#0*
X102057199Y-110134401D03*
G04 #@! TO.N,/G0*
X110490000Y-113157000D03*
G04 #@! TO.N,/G#0*
X117986261Y-114127067D03*
G04 #@! TO.N,/A0*
X126936500Y-110236000D03*
G04 #@! TO.N,/A#0*
X136391308Y-115326479D03*
G04 #@! TO.N,/B0*
X142530761Y-117013372D03*
G04 #@! TO.N,/C1*
X148971000Y-118110000D03*
G04 #@! TO.N,/C#1*
X153797000Y-117983000D03*
G04 #@! TO.N,/D1*
X158891033Y-117235033D03*
G04 #@! TO.N,/D#1*
X166116000Y-116967000D03*
G04 #@! TO.N,/E1*
X181508400Y-112826802D03*
G04 #@! TO.N,/F1*
X184912000Y-111912400D03*
G04 #@! TO.N,/F#1*
X189230000Y-110490000D03*
G04 #@! TO.N,/G1*
X193548000Y-109220000D03*
G04 #@! TO.N,/G#1*
X203200000Y-106045000D03*
G04 #@! TO.N,/A1*
X209448400Y-103835210D03*
G04 #@! TO.N,/A#1*
X214426800Y-101295200D03*
D40*
G04 #@! TO.N,/B1*
X220916500Y-98234500D03*
G04 #@! TO.N,/C2*
X227139500Y-93218000D03*
G04 #@! TD*
D41*
G04 #@! TO.N,Net-(C1-Pad2)*
X190072000Y-74168000D02*
X190500000Y-73740000D01*
X187452000Y-74168000D02*
X190072000Y-74168000D01*
D42*
G04 #@! TO.N,Net-(R3-Pad1)*
X191846189Y-90754189D02*
X190691999Y-89599999D01*
X190691999Y-89599999D02*
X189992000Y-88900000D01*
X195566492Y-90754189D02*
X191846189Y-90754189D01*
X196977000Y-92164697D02*
X195566492Y-90754189D01*
X196977000Y-93853000D02*
X196977000Y-92164697D01*
D43*
G04 #@! TO.N,/XH-M125-amp-board/OUT-*
X191643000Y-100203000D02*
X191516000Y-100076000D01*
D44*
X192836800Y-100203000D02*
X191643000Y-100203000D01*
D45*
G04 #@! TO.N,/XH-M125-amp-board/OUT+*
X213230000Y-62890000D02*
X213230000Y-62940000D01*
X213230000Y-62940000D02*
X217400000Y-67110000D01*
D46*
X200430000Y-61760000D02*
X202618730Y-63390942D01*
X212440000Y-62380000D02*
X213230000Y-62890000D01*
X203330000Y-60460000D02*
X204280000Y-59510000D01*
X202618730Y-63390942D02*
X203330000Y-60460000D01*
X204280000Y-59510000D02*
X207260000Y-59510000D01*
X207260000Y-59510000D02*
X209890000Y-62140000D01*
X209890000Y-62140000D02*
X212200000Y-62140000D01*
X212200000Y-62140000D02*
X212440000Y-62380000D01*
D47*
X184404000Y-102870000D02*
X184404000Y-91948000D01*
D42*
X185953400Y-104698800D02*
X184404000Y-102870000D01*
X188163200Y-104698800D02*
X185953400Y-104698800D01*
X192201800Y-104038400D02*
X188163200Y-104698800D01*
X196469000Y-103632000D02*
X192201800Y-104038400D01*
X196977000Y-100203000D02*
X196977000Y-101981000D01*
X196977000Y-101981000D02*
X196469000Y-103632000D01*
D46*
G04 #@! TO.N,Net-(BT1-Pad1)*
X178435000Y-57150000D02*
X180272658Y-55182114D01*
X184154486Y-55240535D02*
X186055000Y-57150000D01*
X180272658Y-55182114D02*
X184154486Y-55240535D01*
X184150000Y-55245000D02*
X186055000Y-57150000D01*
D47*
G04 #@! TO.N,/WRITE*
X77724001Y-88645999D02*
X77724000Y-88392000D01*
X76543124Y-89826876D02*
X77724001Y-88645999D01*
X74102730Y-89826876D02*
X76543124Y-89826876D01*
X137414000Y-142621000D02*
X137414000Y-139750800D01*
X100287279Y-136042400D02*
X69875378Y-105630499D01*
X137414000Y-139750800D02*
X133705600Y-136042400D01*
X133705600Y-136042400D02*
X100287279Y-136042400D01*
X69875378Y-105630499D02*
X69875378Y-94054228D01*
X69875378Y-94054228D02*
X74102730Y-89826876D01*
G04 #@! TO.N,/PARAM*
X87793384Y-95490528D02*
X87793384Y-95744531D01*
X83704543Y-91401687D02*
X87793384Y-95490528D01*
X74755038Y-91401687D02*
X83704543Y-91401687D01*
X139954000Y-138938000D02*
X134721600Y-133705600D01*
X139954000Y-142621000D02*
X139954000Y-138938000D01*
X134721600Y-133705600D02*
X100177598Y-133705600D01*
X100177598Y-133705600D02*
X71450189Y-104978191D01*
X71450189Y-104978191D02*
X71450189Y-94706536D01*
X71450189Y-94706536D02*
X74755038Y-91401687D01*
G04 #@! TO.N,GND*
X141570000Y-57532405D02*
X141550000Y-57550000D01*
X173520000Y-70690000D02*
X173290000Y-70290000D01*
X175070000Y-73390000D02*
X173520000Y-70690000D01*
X141570000Y-57532405D02*
X144640000Y-56870000D01*
X147660000Y-56670000D02*
X149780000Y-56660000D01*
X164338000Y-61341000D02*
X166490000Y-62840000D01*
X152130000Y-56890000D02*
X149780000Y-56660000D01*
X171893000Y-68080000D02*
X173290000Y-70290000D01*
X164338000Y-61341000D02*
X163560000Y-60840000D01*
X166490000Y-62840000D02*
X168960000Y-64980000D01*
X163560000Y-60840000D02*
X160040000Y-59040000D01*
X160040000Y-59040000D02*
X156980000Y-57930000D01*
X156980000Y-57930000D02*
X154910000Y-57370000D01*
X154910000Y-57370000D02*
X152130000Y-56890000D01*
X168960000Y-64980000D02*
X169759732Y-65825267D01*
X169759732Y-65825267D02*
X171893000Y-68080000D01*
X134350000Y-60270000D02*
X139750000Y-57970000D01*
X139750000Y-57970000D02*
X141570000Y-57532405D01*
X130937000Y-62484000D02*
X131130000Y-62300000D01*
X175432000Y-74295000D02*
X175070000Y-73390000D01*
X144640000Y-56870000D02*
X147193000Y-56700928D01*
X147193000Y-56700928D02*
X147660000Y-56670000D01*
X167894000Y-127381000D02*
X167894000Y-121920000D01*
X170561000Y-119253000D02*
X170561000Y-113919000D01*
X167894000Y-121920000D02*
X170561000Y-119253000D01*
D41*
X159674849Y-61111646D02*
X161290000Y-60200000D01*
X168600683Y-67197663D02*
X170300000Y-66730000D01*
X174210683Y-75862337D02*
X176010000Y-76260000D01*
X167397060Y-106021010D02*
X167670000Y-107880000D01*
X147836516Y-113637555D02*
X146990000Y-115226000D01*
X137308308Y-111300952D02*
X135965618Y-112258544D01*
X128308990Y-104837060D02*
X126619000Y-105283000D01*
X122543151Y-95533646D02*
X120831869Y-95646968D01*
X120896060Y-85135029D02*
X119597000Y-84379000D01*
X141732000Y-59182000D02*
X141478000Y-57785000D01*
D47*
X130937000Y-62484000D02*
X134350000Y-60270000D01*
X131130000Y-62300000D02*
X130619500Y-62734532D01*
D41*
X158072940Y-111971010D02*
X158030000Y-113520000D01*
D47*
X171380000Y-104470000D02*
X172690000Y-102770000D01*
X169440000Y-106640000D02*
X171380000Y-104470000D01*
X166980000Y-108870000D02*
X169440000Y-106640000D01*
X129980000Y-108900000D02*
X132380000Y-110650000D01*
X161070000Y-112630000D02*
X164280000Y-110850000D01*
X157430000Y-114040000D02*
X161070000Y-112630000D01*
X152990000Y-115150000D02*
X157430000Y-114040000D01*
X165735000Y-109855000D02*
X166980000Y-108870000D01*
X150940000Y-115350000D02*
X152990000Y-115150000D01*
X147770000Y-115430000D02*
X150940000Y-115350000D01*
X136000000Y-112670000D02*
X139950000Y-114190000D01*
X132380000Y-110650000D02*
X136000000Y-112670000D01*
X127780000Y-106930000D02*
X129980000Y-108900000D01*
X164280000Y-110850000D02*
X165735000Y-109855000D01*
X125560000Y-104490000D02*
X127780000Y-106930000D01*
X123090000Y-100770000D02*
X125560000Y-104490000D01*
X177030000Y-77980000D02*
X175432000Y-74295000D01*
X139950000Y-114190000D02*
X141410000Y-114600000D01*
X121370000Y-97510000D02*
X122270000Y-99370000D01*
X127770000Y-65160000D02*
X125090000Y-68170000D01*
X130619500Y-62734532D02*
X127770000Y-65160000D01*
X119410000Y-90610000D02*
X120100000Y-93790000D01*
X125090000Y-68170000D02*
X124780000Y-68680000D01*
X141410000Y-114600000D02*
X145240000Y-115280000D01*
X122530000Y-72220000D02*
X120490000Y-77020000D01*
X124780000Y-68680000D02*
X122530000Y-72220000D01*
X145240000Y-115280000D02*
X147770000Y-115430000D01*
X120490000Y-77020000D02*
X119790000Y-78970000D01*
X119130000Y-83110000D02*
X119240000Y-89230000D01*
X122270000Y-99370000D02*
X123090000Y-100770000D01*
X119240000Y-89230000D02*
X119410000Y-90610000D01*
X120100000Y-93790000D02*
X121370000Y-97510000D01*
X172690000Y-102770000D02*
X175300000Y-98050000D01*
X175300000Y-98050000D02*
X176740000Y-94020000D01*
X176740000Y-94020000D02*
X177240000Y-92240000D01*
X177240000Y-92240000D02*
X177570000Y-90100000D01*
X177570000Y-90100000D02*
X178047762Y-88640144D01*
X178047762Y-88640144D02*
X177770000Y-83650000D01*
X177770000Y-83650000D02*
X177420000Y-80670000D01*
X177420000Y-80670000D02*
X177030000Y-77980000D01*
D41*
X176083940Y-86786971D02*
X177710000Y-87950000D01*
X173485000Y-97372532D02*
X174280000Y-98840000D01*
X193548000Y-81788000D02*
X191008000Y-81788000D01*
X193548000Y-81788000D02*
X193548000Y-85217000D01*
X193548000Y-85217000D02*
X193421000Y-85344000D01*
D42*
X195694301Y-96661443D02*
X195694301Y-93980000D01*
X194437000Y-100203000D02*
X194437000Y-97918744D01*
D43*
X194437000Y-97918744D02*
X195694301Y-96661443D01*
D41*
X178842051Y-74168000D02*
X176810051Y-76200000D01*
X179832000Y-74168000D02*
X178842051Y-74168000D01*
X193548000Y-80585919D02*
X193548000Y-81788000D01*
X193548000Y-73461254D02*
X193548000Y-80585919D01*
X191578945Y-71492199D02*
X193548000Y-73461254D01*
X182304601Y-71492199D02*
X191578945Y-71492199D01*
X181533800Y-74168000D02*
X181533800Y-72263000D01*
X181533800Y-72263000D02*
X182304601Y-71492199D01*
D46*
X172720000Y-62865000D02*
X169759732Y-65825268D01*
X169759732Y-65825268D02*
X169759732Y-65825267D01*
X174625000Y-62865000D02*
X175895000Y-61595000D01*
X172720000Y-62865000D02*
X174625000Y-62865000D01*
X175895000Y-61595000D02*
X175895000Y-59690000D01*
D47*
X119597000Y-82191492D02*
X119320508Y-81915000D01*
X119597000Y-84379000D02*
X119597000Y-82191492D01*
X119790000Y-78970000D02*
X119320508Y-81915000D01*
X119320508Y-81915000D02*
X119130000Y-83110000D01*
D45*
X122174000Y-142748000D02*
X117475000Y-147320000D01*
D47*
X69850000Y-75565000D02*
X100965000Y-75565000D01*
X65514066Y-85089998D02*
X65633814Y-84716921D01*
X67140718Y-80689353D02*
X67310418Y-80294014D01*
X65374468Y-85537067D02*
X65502403Y-85126338D01*
X66652310Y-81883596D02*
X66811647Y-81484191D01*
X65129238Y-86361791D02*
X65250084Y-85948868D01*
X67659983Y-79507872D02*
X67839818Y-79117136D01*
X65012043Y-86775444D02*
X65129238Y-86361791D01*
X65768853Y-84308348D02*
X65907320Y-83901219D01*
X64898303Y-87190520D02*
X65012043Y-86775444D01*
X69443600Y-75971400D02*
X69850000Y-75565000D01*
X64788213Y-87606316D02*
X64898303Y-87190520D01*
X99620645Y-144392761D02*
X64465190Y-109237307D01*
X65502403Y-85126338D02*
X65514066Y-85089998D01*
X68592624Y-77570201D02*
X68789247Y-77187370D01*
X69357636Y-76124670D02*
X69443600Y-75971400D01*
X65250084Y-85948868D02*
X65374468Y-85537067D01*
X117475000Y-147320000D02*
X115944761Y-144392761D01*
X64681720Y-88023024D02*
X64788213Y-87606316D01*
X64578813Y-88440678D02*
X64681720Y-88023024D01*
X66194863Y-83090342D02*
X66343874Y-82686781D01*
X115944761Y-144392761D02*
X99620645Y-144392761D01*
X64465190Y-109237307D02*
X64465190Y-88921968D01*
X64465190Y-88921968D02*
X64479518Y-88859179D01*
X64479518Y-88859179D02*
X64578813Y-88440678D01*
X68023045Y-78727906D02*
X68209561Y-78340399D01*
X65633814Y-84716921D02*
X65768853Y-84308348D01*
X69192067Y-76427424D02*
X69357636Y-76124670D01*
X65907320Y-83901219D02*
X66049341Y-83495166D01*
X66049341Y-83495166D02*
X66194863Y-83090342D01*
X66343874Y-82686781D02*
X66496333Y-82284592D01*
X66496333Y-82284592D02*
X66652310Y-81883596D01*
X66811647Y-81484191D02*
X66974525Y-81085927D01*
X66974525Y-81085927D02*
X67140718Y-80689353D01*
X68209561Y-78340399D02*
X68399473Y-77954391D01*
X67310418Y-80294014D02*
X67483536Y-79900120D01*
X67839818Y-79117136D02*
X68023045Y-78727906D01*
X67483536Y-79900120D02*
X67659983Y-79507872D01*
X68399473Y-77954391D02*
X68592624Y-77570201D01*
X68989038Y-76806491D02*
X69192067Y-76427424D01*
X68789247Y-77187370D02*
X68989038Y-76806491D01*
D41*
X138430000Y-60325000D02*
X138684000Y-58674000D01*
X129667000Y-65806000D02*
X129667000Y-63881000D01*
X122946000Y-74736468D02*
X122555000Y-72771000D01*
X193419256Y-96901000D02*
X193673256Y-97155000D01*
X189865000Y-96901000D02*
X193419256Y-96901000D01*
D42*
X193673256Y-97155000D02*
X194437000Y-97918744D01*
D41*
X193421000Y-86995000D02*
X195112000Y-88900000D01*
X193421000Y-85344000D02*
X193421000Y-86995000D01*
D42*
X192180000Y-94840000D02*
X192180000Y-96960000D01*
X193167000Y-93853000D02*
X192180000Y-94840000D01*
D41*
G04 #@! TO.N,/PWM_OUT*
X188468000Y-81788000D02*
X188468000Y-83947000D01*
X188468000Y-83947000D02*
X187579000Y-84836000D01*
X188468000Y-80772000D02*
X190500000Y-78740000D01*
X188468000Y-81788000D02*
X188468000Y-80772000D01*
G04 #@! TO.N,/+5V*
X174036060Y-85353029D02*
X172540000Y-84320000D01*
X172235000Y-95207468D02*
X171570000Y-93700000D01*
D46*
X165354000Y-120904000D02*
X168340186Y-118057626D01*
X165354000Y-120904000D02*
X165354000Y-127508000D01*
X168340186Y-118057626D02*
X168413465Y-115073465D01*
X168413465Y-115073465D02*
X168275000Y-114935000D01*
D47*
X158860000Y-64680000D02*
X160970000Y-65840000D01*
X155430000Y-63330000D02*
X157110000Y-63900000D01*
X149240000Y-62280000D02*
X147300000Y-62280000D01*
X154305000Y-62992000D02*
X151080000Y-62410000D01*
X157110000Y-63900000D02*
X158860000Y-64680000D01*
X151080000Y-62410000D02*
X149240000Y-62280000D01*
X154305000Y-62992000D02*
X155430000Y-63330000D01*
X160970000Y-65840000D02*
X161975963Y-66531600D01*
X171160000Y-93090000D02*
X170570000Y-94780000D01*
X166430000Y-101570000D02*
X165090000Y-103020000D01*
X165090000Y-103020000D02*
X163830000Y-104190000D01*
X170570000Y-94780000D02*
X169830000Y-96370000D01*
X167750000Y-99950000D02*
X166430000Y-101570000D01*
X168960000Y-98120000D02*
X167750000Y-99950000D01*
X161740000Y-105790000D02*
X161410712Y-105986927D01*
X169830000Y-96370000D02*
X168960000Y-98120000D01*
X172240000Y-85790000D02*
X172120000Y-87570000D01*
X170330000Y-76720000D02*
X171050000Y-78640000D01*
X163830000Y-104190000D02*
X161740000Y-105790000D01*
X171980000Y-89550000D02*
X171907071Y-89950000D01*
X169450000Y-74840000D02*
X170330000Y-76720000D01*
X171907071Y-89950000D02*
X171650000Y-91360000D01*
X162730000Y-67050000D02*
X164620000Y-68580000D01*
X171050000Y-78640000D02*
X171610000Y-80560000D01*
X164620000Y-68580000D02*
X166710000Y-70740000D01*
X168160000Y-72740000D02*
X169450000Y-74840000D01*
X172070000Y-83190000D02*
X172240000Y-85790000D01*
X172120000Y-87570000D02*
X171980000Y-89550000D01*
X171610000Y-80560000D02*
X172070000Y-83190000D01*
X166710000Y-70740000D02*
X168160000Y-72740000D01*
X171650000Y-91360000D02*
X171160000Y-93090000D01*
X161975963Y-66531600D02*
X162730000Y-67050000D01*
D41*
X157365151Y-62068354D02*
X156210000Y-63260000D01*
X166119317Y-67502337D02*
X164310000Y-67980000D01*
D47*
X161975963Y-66370037D02*
X161975963Y-66531599D01*
X162820000Y-66780000D02*
X161975963Y-66370037D01*
D41*
X171729317Y-75557663D02*
X169900000Y-75240000D01*
X166962940Y-103558990D02*
X166770000Y-101780000D01*
D45*
X160900000Y-106681924D02*
X161410712Y-105986927D01*
D47*
X143540000Y-62790000D02*
X145050000Y-62510000D01*
X140130000Y-63780000D02*
X143540000Y-62790000D01*
X153370000Y-109320000D02*
X151080000Y-109690000D01*
X138170000Y-64620000D02*
X140130000Y-63780000D01*
X155250000Y-108850000D02*
X153370000Y-109320000D01*
X135670000Y-66020000D02*
X136850000Y-65320000D01*
X131850000Y-69020000D02*
X134290000Y-66980000D01*
X136850000Y-65320000D02*
X138170000Y-64620000D01*
X128780000Y-72720000D02*
X129980000Y-71100000D01*
X127860000Y-74180000D02*
X128780000Y-72720000D01*
X126890000Y-76040000D02*
X127860000Y-74180000D01*
X126150000Y-77850000D02*
X126890000Y-76040000D01*
X125440000Y-80080000D02*
X126150000Y-77850000D01*
X125200000Y-81180000D02*
X125440000Y-80080000D01*
X124690000Y-86140000D02*
X124800000Y-83960000D01*
X124810000Y-88510000D02*
X124690000Y-86140000D01*
X134290000Y-66980000D02*
X135670000Y-66020000D01*
X125150000Y-90750000D02*
X124810000Y-88510000D01*
X151080000Y-109690000D02*
X148600000Y-109820000D01*
X159700000Y-107010000D02*
X157410000Y-108080000D01*
X136590000Y-106640000D02*
X134150000Y-105070000D01*
X127150000Y-96560000D02*
X125870000Y-93470000D01*
X148600000Y-109820000D02*
X146230000Y-109710000D01*
X129980000Y-71100000D02*
X131850000Y-69020000D01*
X142030000Y-108950000D02*
X139070000Y-107870000D01*
X161410712Y-105986927D02*
X159700000Y-107010000D01*
X134150000Y-105070000D02*
X131940000Y-103150000D01*
X124800000Y-83960000D02*
X125200000Y-81180000D01*
X146230000Y-109710000D02*
X144300000Y-109480000D01*
X157410000Y-108080000D02*
X155250000Y-108850000D01*
X144300000Y-109480000D02*
X142030000Y-108950000D01*
X129890000Y-100910000D02*
X128180000Y-98450000D01*
X139070000Y-107870000D02*
X136590000Y-106640000D01*
X125870000Y-93470000D02*
X125150000Y-90750000D01*
X131940000Y-103150000D02*
X129890000Y-100910000D01*
X128180000Y-98450000D02*
X127150000Y-96560000D01*
X145050000Y-62510000D02*
X147180000Y-62310000D01*
D41*
X158507060Y-109508990D02*
X159115032Y-107623869D01*
X149443484Y-111722445D02*
X150190000Y-110072000D01*
X139291692Y-109779048D02*
X141030000Y-108870000D01*
X130771010Y-104402940D02*
X132689341Y-104176563D01*
X132689341Y-104176563D02*
X132698281Y-104167623D01*
X124852849Y-96490354D02*
X127000000Y-96647000D01*
X122943940Y-86568971D02*
X124460000Y-87503000D01*
X124196000Y-76901532D02*
X125593544Y-78283382D01*
X142273100Y-61622740D02*
X142621000Y-62738000D01*
X196088000Y-81788000D02*
X196088000Y-83820000D01*
X196088000Y-83820000D02*
X197612000Y-85344000D01*
X197612000Y-88900000D02*
X197612000Y-85344000D01*
X197612000Y-88900000D02*
X199644000Y-90932000D01*
D45*
X119380000Y-69215000D02*
X117475000Y-69215000D01*
X117475000Y-69215000D02*
X116840000Y-68580000D01*
D46*
X176851389Y-69536389D02*
X173355000Y-66040000D01*
X192389068Y-69536389D02*
X176851389Y-69536389D01*
X196088000Y-81788000D02*
X196088000Y-73235321D01*
X196088000Y-73235321D02*
X192389068Y-69536389D01*
D41*
X138049000Y-62611000D02*
X137840000Y-64550000D01*
X129667000Y-68306000D02*
X129667000Y-70993000D01*
D42*
X195707000Y-101219000D02*
X195707000Y-100203000D01*
X194686000Y-102240000D02*
X195707000Y-101219000D01*
X187260000Y-101360000D02*
X188140000Y-102240000D01*
X188140000Y-102240000D02*
X194686000Y-102240000D01*
G04 #@! TO.N,Net-(CA3-Pad1)*
X189865000Y-93599000D02*
X189865000Y-92710000D01*
X194430000Y-92710000D02*
X194430000Y-93920000D01*
X193852801Y-92075000D02*
X194430000Y-92710000D01*
X189865000Y-92710000D02*
X190500000Y-92075000D01*
X190500000Y-92075000D02*
X193852801Y-92075000D01*
D41*
G04 #@! TO.N,Net-(CA4-Pad1)*
X183388000Y-84836000D02*
X183388000Y-87884000D01*
X183388000Y-87884000D02*
X182372000Y-88900000D01*
D47*
G04 #@! TO.N,Net-(J0-Pad3)*
X134359047Y-119227570D02*
X128059815Y-112928338D01*
X140674427Y-122377190D02*
X137524807Y-119227570D01*
X142494000Y-127381000D02*
X142494000Y-123883880D01*
X128059815Y-112928338D02*
X126136337Y-112928338D01*
X142494000Y-123883880D02*
X140987310Y-122377190D01*
X140987310Y-122377190D02*
X140674427Y-122377190D01*
X105410006Y-92202007D02*
X105410006Y-61402630D01*
X105410006Y-61402630D02*
X105410006Y-60325000D01*
X126136337Y-112928338D02*
X105410006Y-92202007D01*
X137524807Y-119227570D02*
X134359047Y-119227570D01*
G04 #@! TO.N,Net-(J0-Pad2)*
X129003134Y-116371258D02*
X128749133Y-116371258D01*
X103631999Y-64262007D02*
X102870000Y-63500008D01*
X103631999Y-93476619D02*
X103631999Y-64262007D01*
X128749133Y-116371258D02*
X126881024Y-114503149D01*
X126881024Y-114503149D02*
X124658526Y-114503146D01*
X138134427Y-122377190D02*
X136559617Y-120802380D01*
X124658526Y-114503146D02*
X103631999Y-93476619D01*
X133706738Y-120802380D02*
X132131926Y-119227568D01*
X136559617Y-120802380D02*
X133706738Y-120802380D01*
X131859444Y-119227568D02*
X129003134Y-116371258D01*
X138447310Y-122377190D02*
X138134427Y-122377190D01*
X139954000Y-123883880D02*
X138447310Y-122377190D01*
X139954000Y-127381000D02*
X139954000Y-123883880D01*
X132131926Y-119227568D02*
X131859444Y-119227568D01*
D46*
G04 #@! TO.N,Net-(J1-Pad4)*
X209146987Y-68961985D02*
X205240000Y-66540000D01*
X202773972Y-66996375D02*
X205240000Y-66540000D01*
X199620000Y-70150347D02*
X202773972Y-66996375D01*
X199620000Y-70285000D02*
X199620000Y-70150347D01*
D45*
X211105002Y-70920000D02*
X209146987Y-68961985D01*
X215780000Y-71300000D02*
X211105002Y-70920000D01*
D46*
X205240000Y-66540000D02*
X205566324Y-63186766D01*
X197620000Y-61430000D02*
X197640000Y-65040000D01*
X197640000Y-65040000D02*
X202773972Y-66996375D01*
D47*
G04 #@! TO.N,/PATCH*
X67818000Y-93697934D02*
X72883974Y-88631960D01*
X72883974Y-88631960D02*
X73645973Y-87869961D01*
X67818000Y-108135882D02*
X67818000Y-93697934D01*
X134874000Y-140868400D02*
X132054600Y-138049000D01*
X134874000Y-142621000D02*
X134874000Y-140868400D01*
X132054600Y-138049000D02*
X98747119Y-138049000D01*
X98747119Y-138049000D02*
X90353933Y-129655814D01*
X90353933Y-129655814D02*
X89337932Y-129655814D01*
X89337932Y-129655814D02*
X67818000Y-108135882D01*
G04 #@! TO.N,/LED_DIN*
X142494000Y-147701000D02*
X142494000Y-142748000D01*
D46*
X135733195Y-154461805D02*
X142494000Y-147701000D01*
X126159021Y-154461805D02*
X135733195Y-154461805D01*
X117606199Y-154353081D02*
X126159021Y-154461805D01*
X116769829Y-154340528D02*
X117606199Y-154353081D01*
X115935040Y-154324164D02*
X116769829Y-154340528D01*
X115100591Y-154303972D02*
X115935040Y-154324164D01*
X114265908Y-154279939D02*
X115100591Y-154303972D01*
X113431467Y-154252076D02*
X114265908Y-154279939D01*
X112597356Y-154220389D02*
X113431467Y-154252076D01*
X111763208Y-154184863D02*
X112597356Y-154220389D01*
X110929137Y-154145503D02*
X111763208Y-154184863D01*
X110095531Y-154102326D02*
X110929137Y-154145503D01*
X109261914Y-154055309D02*
X110095531Y-154102326D01*
X108428633Y-154004470D02*
X109261914Y-154055309D01*
X107595671Y-153949810D02*
X108428633Y-154004470D01*
X106762616Y-153891301D02*
X107595671Y-153949810D01*
X105930184Y-153828991D02*
X106762616Y-153891301D01*
X105097934Y-153762851D02*
X105930184Y-153828991D01*
X104265944Y-153692884D02*
X105097934Y-153762851D01*
X103434368Y-153619105D02*
X104265944Y-153692884D01*
X102603013Y-153541495D02*
X103434368Y-153619105D01*
X101772269Y-153460092D02*
X102603013Y-153541495D01*
X61034746Y-101813687D02*
X61014645Y-102344660D01*
X61058692Y-101282939D02*
X61034746Y-101813687D01*
X61086489Y-100752334D02*
X61058692Y-101282939D01*
X61118139Y-100221857D02*
X61086489Y-100752334D01*
X61192955Y-99161881D02*
X61153616Y-99691865D01*
X61236140Y-98632165D02*
X61192955Y-99161881D01*
X61283136Y-98103081D02*
X61236140Y-98632165D01*
X61333991Y-97574106D02*
X61283136Y-98103081D01*
X61447174Y-96517585D02*
X61388677Y-97045551D01*
X61509530Y-95989787D02*
X61447174Y-96517585D01*
X61645674Y-94935917D02*
X61575699Y-95462544D01*
X61797077Y-93884189D02*
X61719478Y-94409717D01*
X61878541Y-93358880D02*
X61797077Y-93884189D01*
X61963739Y-92834621D02*
X61878541Y-93358880D01*
X62052787Y-92310697D02*
X61963739Y-92834621D01*
X62342627Y-90743324D02*
X62242242Y-91264991D01*
X62821963Y-88473526D02*
X62723040Y-88907077D01*
X63031073Y-87608803D02*
X62924666Y-88040661D01*
X63141233Y-87177746D02*
X63031073Y-87608803D01*
X63372656Y-86318689D02*
X63255070Y-86747801D01*
X63747453Y-85038030D02*
X63618853Y-85463789D01*
X64015703Y-84189729D02*
X63879787Y-84613179D01*
X64155297Y-83767375D02*
X64015703Y-84189729D01*
X64445380Y-82926374D02*
X64298549Y-83346178D01*
X64595886Y-82507688D02*
X64445380Y-82926374D01*
X64749987Y-82090343D02*
X64595886Y-82507688D01*
X64907613Y-81674526D02*
X64749987Y-82090343D01*
X65068918Y-81259832D02*
X64907613Y-81674526D01*
X65233736Y-80846689D02*
X65068918Y-81259832D01*
X65402118Y-80434966D02*
X65233736Y-80846689D01*
X65574035Y-80024734D02*
X65402118Y-80434966D01*
X65749507Y-79615949D02*
X65574035Y-80024734D01*
X65928506Y-79208675D02*
X65749507Y-79615949D01*
X66110980Y-78803030D02*
X65928506Y-79208675D01*
X66296962Y-78398939D02*
X66110980Y-78803030D01*
X66486447Y-77996414D02*
X66296962Y-78398939D01*
X66679313Y-77595715D02*
X66486447Y-77996414D01*
X66875716Y-77196514D02*
X66679313Y-77595715D01*
X67075503Y-76799126D02*
X66875716Y-77196514D01*
X67278750Y-76403398D02*
X67075503Y-76799126D01*
X67485436Y-76009374D02*
X67278750Y-76403398D01*
X67695405Y-75617351D02*
X67485436Y-76009374D01*
X67868897Y-75300110D02*
X67695405Y-75617351D01*
X68045201Y-74985769D02*
X67868897Y-75300110D01*
X68224861Y-74673334D02*
X68045201Y-74985769D01*
X68407776Y-74362975D02*
X68224861Y-74673334D01*
X68594036Y-74054540D02*
X68407776Y-74362975D01*
X68783589Y-73748113D02*
X68594036Y-74054540D01*
X68976432Y-73443702D02*
X68783589Y-73748113D01*
X69172484Y-73141433D02*
X68976432Y-73443702D01*
X69371812Y-72841203D02*
X69172484Y-73141433D01*
X69574315Y-72543167D02*
X69371812Y-72841203D01*
X69780003Y-72247308D02*
X69574315Y-72543167D01*
X69988813Y-71953715D02*
X69780003Y-72247308D01*
X70200825Y-71662279D02*
X69988813Y-71953715D01*
X70415915Y-71373170D02*
X70200825Y-71662279D01*
X70634052Y-71086427D02*
X70415915Y-71373170D01*
X70855235Y-70802050D02*
X70634052Y-71086427D01*
X71079498Y-70519998D02*
X70855235Y-70802050D01*
X71306845Y-70240270D02*
X71079498Y-70519998D01*
X71537021Y-69963175D02*
X71306845Y-70240270D01*
X71770197Y-69688506D02*
X71537021Y-69963175D01*
X72006356Y-69416283D02*
X71770197Y-69688506D01*
X72245374Y-69146655D02*
X72006356Y-69416283D01*
X72487294Y-68879569D02*
X72245374Y-69146655D01*
X72731973Y-68615181D02*
X72487294Y-68879569D01*
X72979550Y-68353341D02*
X72731973Y-68615181D01*
X73229940Y-68094144D02*
X72979550Y-68353341D01*
X73482998Y-67837737D02*
X73229940Y-68094144D01*
X73738930Y-67583911D02*
X73482998Y-67837737D01*
X73997373Y-67333026D02*
X73738930Y-67583911D01*
X74258667Y-67084752D02*
X73997373Y-67333026D01*
X61719478Y-94409717D02*
X61645674Y-94935917D01*
X88371344Y-59135204D02*
X88000626Y-59248626D01*
X93267189Y-152128564D02*
X93774250Y-152237654D01*
X89741122Y-58745333D02*
X89241283Y-58883736D01*
X90242192Y-58610506D02*
X89741122Y-58745333D01*
X94791082Y-152444829D02*
X95300327Y-152542808D01*
X63493918Y-85890684D02*
X63372656Y-86318689D01*
X90744009Y-58479388D02*
X90242192Y-58610506D01*
X91246883Y-58351895D02*
X90744009Y-58479388D01*
X91750700Y-58228058D02*
X91246883Y-58351895D01*
X97344763Y-152897719D02*
X97857433Y-152977138D01*
X62447705Y-90217831D02*
X62342627Y-90743324D01*
X92255346Y-58107905D02*
X91750700Y-58228058D01*
X94282216Y-57664121D02*
X93774309Y-57769532D01*
X75603742Y-65886508D02*
X75329621Y-66120373D01*
X94791029Y-57562380D02*
X94282216Y-57664121D01*
X95300408Y-57464375D02*
X94791029Y-57562380D01*
X78560490Y-63688745D02*
X78236601Y-63902051D01*
X61153616Y-99691865D02*
X61118139Y-100221857D01*
X88743636Y-59025439D02*
X88371344Y-59135204D01*
X95810389Y-57370097D02*
X95300408Y-57464375D01*
X96321216Y-57279503D02*
X95810389Y-57370097D01*
X75329621Y-66120373D02*
X75058022Y-66357158D01*
X96832681Y-57192628D02*
X96321216Y-57279503D01*
X96321226Y-152727697D02*
X96832740Y-152814580D01*
X62536362Y-89776971D02*
X62447705Y-90217831D01*
X97095213Y-57150000D02*
X96832681Y-57192628D01*
X93774309Y-57769532D02*
X93267111Y-57878650D01*
X100428444Y-153318134D02*
X100943913Y-153375080D01*
X77915273Y-64118398D02*
X77595899Y-64338196D01*
X107315000Y-57150000D02*
X97095213Y-57150000D01*
X78236601Y-63902051D02*
X77915273Y-64118398D01*
X120823285Y-58276199D02*
X120823285Y-56688285D01*
X117606439Y-55654115D02*
X117057648Y-55662352D01*
X121905301Y-59675301D02*
X121905301Y-59358215D01*
X122557801Y-60327801D02*
X121905301Y-59675301D01*
X61388677Y-97045551D02*
X61333991Y-97574106D01*
X132080000Y-57785000D02*
X129537199Y-60327801D01*
X89241283Y-58883736D02*
X88743636Y-59025439D01*
X64298549Y-83346178D02*
X64155297Y-83767375D01*
X120823285Y-56688285D02*
X119789115Y-55654115D01*
X93267111Y-57878650D02*
X92760829Y-57991433D01*
X92760778Y-152015753D02*
X93267189Y-152128564D01*
X76159337Y-65427714D02*
X75880327Y-65655611D01*
X117057648Y-55662352D02*
X116285715Y-56434285D01*
X62145606Y-91787570D02*
X62052787Y-92310697D01*
X121905301Y-59358215D02*
X120823285Y-58276199D01*
X129537199Y-60327801D02*
X122557801Y-60327801D01*
X115203699Y-59358215D02*
X115203699Y-60056301D01*
X93774250Y-152237654D02*
X94282199Y-152343073D01*
X119789115Y-55654115D02*
X117606439Y-55654115D01*
X96832740Y-152814580D02*
X97344763Y-152897719D01*
X116285715Y-56434285D02*
X116285715Y-58276199D01*
X99398561Y-153192962D02*
X99913425Y-153257440D01*
X75880327Y-65655611D02*
X75603742Y-65886508D01*
X62924666Y-88040661D02*
X62821963Y-88473526D01*
X92760829Y-57991433D02*
X92255346Y-58107905D01*
X94282199Y-152343073D02*
X94791082Y-152444829D01*
X116285715Y-58276199D02*
X115203699Y-59358215D01*
X115203699Y-60056301D02*
X114300000Y-60960000D01*
X114300000Y-60960000D02*
X111125000Y-60960000D01*
X111125000Y-60960000D02*
X107315000Y-57150000D01*
X88000626Y-59248626D02*
X87631195Y-59365785D01*
X62627818Y-89341657D02*
X62536362Y-89776971D01*
X87631195Y-59365785D02*
X87262860Y-59486744D01*
X87262860Y-59486744D02*
X86896020Y-59611370D01*
X86896020Y-59611370D02*
X86530150Y-59739840D01*
X98370534Y-153052806D02*
X98884360Y-153124763D01*
X86530150Y-59739840D02*
X86165854Y-59871946D01*
X86165854Y-59871946D02*
X85802837Y-60007792D01*
X85802837Y-60007792D02*
X85441182Y-60147348D01*
X63618853Y-85463789D02*
X63493918Y-85890684D01*
X85441182Y-60147348D02*
X85080962Y-60290586D01*
X76440927Y-65202693D02*
X76159337Y-65427714D01*
X85080962Y-60290586D02*
X84722337Y-60437443D01*
X95300327Y-152542808D02*
X95810419Y-152637106D01*
X84722337Y-60437443D02*
X84365142Y-60587983D01*
X84365142Y-60587983D02*
X84009545Y-60742139D01*
X63255070Y-86747801D02*
X63141233Y-87177746D01*
X84009545Y-60742139D02*
X83655485Y-60899935D01*
X95810419Y-152637106D02*
X96321226Y-152727697D01*
X83655485Y-60899935D02*
X83303111Y-61061306D01*
X62723040Y-88907077D02*
X62627818Y-89341657D01*
X83303111Y-61061306D02*
X82952340Y-61226289D01*
X82952340Y-61226289D02*
X82603308Y-61394821D01*
X98884360Y-153124763D02*
X99398561Y-153192962D01*
X82603308Y-61394821D02*
X82256025Y-61566897D01*
X82256025Y-61566897D02*
X81910522Y-61742501D01*
X81910522Y-61742501D02*
X81566727Y-61921670D01*
X81566727Y-61921670D02*
X81224881Y-62104281D01*
X81224881Y-62104281D02*
X80884863Y-62290394D01*
X80884863Y-62290394D02*
X80546729Y-62479981D01*
X80546729Y-62479981D02*
X80210680Y-62672930D01*
X74522453Y-66839431D02*
X74258667Y-67084752D01*
X80210680Y-62672930D02*
X79876503Y-62869360D01*
X79876503Y-62869360D02*
X79544312Y-63069208D01*
X63879787Y-84613179D02*
X63747453Y-85038030D01*
X79544312Y-63069208D02*
X79214293Y-63272360D01*
X62242242Y-91264991D02*
X62145606Y-91787570D01*
X79214293Y-63272360D02*
X78886338Y-63478880D01*
X61575699Y-95462544D02*
X61509530Y-95989787D01*
X78886338Y-63478880D02*
X78560490Y-63688745D01*
X77289488Y-64553708D02*
X77011047Y-64761920D01*
X77595899Y-64338196D02*
X77289488Y-64553708D01*
X77011047Y-64761920D02*
X76724815Y-64980774D01*
X76724815Y-64980774D02*
X76440927Y-65202693D01*
X75058022Y-66357158D02*
X74788915Y-66596889D01*
X74788915Y-66596889D02*
X74522453Y-66839431D01*
X61014645Y-102344660D02*
X60998397Y-102875710D01*
X60998397Y-102875710D02*
X60985997Y-103406949D01*
X60985997Y-103406949D02*
X60977452Y-103938193D01*
X60977452Y-103938193D02*
X60972759Y-104469482D01*
X60972759Y-104469482D02*
X60971911Y-105003750D01*
X60971911Y-105003750D02*
X60972757Y-105537699D01*
X60972757Y-105537699D02*
X60977450Y-106068983D01*
X60977450Y-106068983D02*
X60985995Y-106600230D01*
X60985995Y-106600230D02*
X60998395Y-107131454D01*
X60998395Y-107131454D02*
X61014645Y-107662571D01*
X61014645Y-107662571D02*
X61034742Y-108193459D01*
X61034742Y-108193459D02*
X61058692Y-108724272D01*
X61058692Y-108724272D02*
X61086491Y-109254916D01*
X61086491Y-109254916D02*
X61118138Y-109785352D01*
X61118138Y-109785352D02*
X61153613Y-110315303D01*
X61153613Y-110315303D02*
X61192958Y-110845369D01*
X61192958Y-110845369D02*
X61236132Y-111374965D01*
X61236132Y-111374965D02*
X61283130Y-111904069D01*
X61283130Y-111904069D02*
X61333994Y-112433134D01*
X61333994Y-112433134D02*
X61388675Y-112961642D01*
X61388675Y-112961642D02*
X61447174Y-113489618D01*
X61447174Y-113489618D02*
X61509529Y-114017416D01*
X61509529Y-114017416D02*
X61575699Y-114544659D01*
X61575699Y-114544659D02*
X61645680Y-115071335D01*
X61645680Y-115071335D02*
X61719484Y-115597526D01*
X61719484Y-115597526D02*
X61797082Y-116123048D01*
X61797082Y-116123048D02*
X61878533Y-116648279D01*
X61878533Y-116648279D02*
X61963732Y-117172541D01*
X61963732Y-117172541D02*
X62052786Y-117696502D01*
X62052786Y-117696502D02*
X62145593Y-118219561D01*
X62145593Y-118219561D02*
X62242250Y-118742253D01*
X62242250Y-118742253D02*
X62342629Y-119263890D01*
X62342629Y-119263890D02*
X62447608Y-119788890D01*
X62447608Y-119788890D02*
X62536331Y-120230082D01*
X62536331Y-120230082D02*
X62627837Y-120665637D01*
X62627837Y-120665637D02*
X62723032Y-121100093D01*
X62723032Y-121100093D02*
X62821975Y-121533728D01*
X62821975Y-121533728D02*
X62924681Y-121966602D01*
X62924681Y-121966602D02*
X63031105Y-122398529D01*
X63031105Y-122398529D02*
X63141235Y-122829466D01*
X63141235Y-122829466D02*
X63255081Y-123259446D01*
X63255081Y-123259446D02*
X63372654Y-123688508D01*
X63372654Y-123688508D02*
X63493898Y-124116452D01*
X63493898Y-124116452D02*
X63618838Y-124543363D01*
X63618838Y-124543363D02*
X63747480Y-124969259D01*
X63747480Y-124969259D02*
X63879790Y-125394033D01*
X63879790Y-125394033D02*
X64015706Y-125817484D01*
X64015706Y-125817484D02*
X64155283Y-126239786D01*
X64155283Y-126239786D02*
X64298558Y-126661050D01*
X64298558Y-126661050D02*
X64445381Y-127080832D01*
X64445381Y-127080832D02*
X64595893Y-127499535D01*
X64595893Y-127499535D02*
X64749981Y-127916843D01*
X64749981Y-127916843D02*
X64907639Y-128332742D01*
X64907639Y-128332742D02*
X65068904Y-128747332D01*
X65068904Y-128747332D02*
X65233745Y-129160534D01*
X65233745Y-129160534D02*
X65402100Y-129572191D01*
X65402100Y-129572191D02*
X65574053Y-129982508D01*
X65574053Y-129982508D02*
X65749508Y-130391253D01*
X65749508Y-130391253D02*
X65928492Y-130798495D01*
X65928492Y-130798495D02*
X66110975Y-131204159D01*
X66110975Y-131204159D02*
X66296986Y-131608312D01*
X66296986Y-131608312D02*
X66486404Y-132010693D01*
X66486404Y-132010693D02*
X66679341Y-132411541D01*
X66679341Y-132411541D02*
X66875741Y-132810735D01*
X66875741Y-132810735D02*
X67075493Y-133208055D01*
X67075493Y-133208055D02*
X67278741Y-133603786D01*
X67278741Y-133603786D02*
X67485401Y-133997760D01*
X67485401Y-133997760D02*
X67695354Y-134389753D01*
X67695354Y-134389753D02*
X67868915Y-134707123D01*
X67868915Y-134707123D02*
X68045218Y-135021463D01*
X68045218Y-135021463D02*
X68224799Y-135333759D01*
X68224799Y-135333759D02*
X68407773Y-135644219D01*
X68407773Y-135644219D02*
X68594045Y-135952675D01*
X68594045Y-135952675D02*
X68783597Y-136259100D01*
X68783597Y-136259100D02*
X68976395Y-136563442D01*
X68976395Y-136563442D02*
X69172520Y-136865822D01*
X69172520Y-136865822D02*
X69371749Y-137165903D01*
X69371749Y-137165903D02*
X69574302Y-137464015D01*
X69574302Y-137464015D02*
X69779955Y-137759823D01*
X69779955Y-137759823D02*
X69988843Y-138053527D01*
X69988843Y-138053527D02*
X70200791Y-138344875D01*
X70200791Y-138344875D02*
X70415909Y-138634023D01*
X70415909Y-138634023D02*
X70634012Y-138920721D01*
X70634012Y-138920721D02*
X70855254Y-139205172D01*
X70855254Y-139205172D02*
X71079511Y-139487217D01*
X71079511Y-139487217D02*
X71306842Y-139766926D01*
X71306842Y-139766926D02*
X71537013Y-140044015D01*
X71537013Y-140044015D02*
X71770237Y-140318741D01*
X71770237Y-140318741D02*
X72006352Y-140590911D01*
X72006352Y-140590911D02*
X72245347Y-140860515D01*
X72245347Y-140860515D02*
X72487314Y-141127654D01*
X72487314Y-141127654D02*
X72731930Y-141391974D01*
X72731930Y-141391974D02*
X72979541Y-141653848D01*
X72979541Y-141653848D02*
X73229953Y-141913069D01*
X73229953Y-141913069D02*
X73482983Y-142169449D01*
X73482983Y-142169449D02*
X73738908Y-142423267D01*
X73738908Y-142423267D02*
X73997400Y-142674200D01*
X73997400Y-142674200D02*
X74258596Y-142922380D01*
X74258596Y-142922380D02*
X74522449Y-143167764D01*
X74522449Y-143167764D02*
X74788948Y-143410340D01*
X74788948Y-143410340D02*
X75058007Y-143650028D01*
X75058007Y-143650028D02*
X75329628Y-143886831D01*
X75329628Y-143886831D02*
X75603762Y-144120708D01*
X75603762Y-144120708D02*
X75880359Y-144351614D01*
X75880359Y-144351614D02*
X76159389Y-144579527D01*
X76159389Y-144579527D02*
X76440827Y-144804427D01*
X76440827Y-144804427D02*
X76454000Y-144814724D01*
X76454000Y-144814724D02*
X76724828Y-145026434D01*
X76724828Y-145026434D02*
X77011025Y-145245261D01*
X77011025Y-145245261D02*
X77289506Y-145453503D01*
X77289506Y-145453503D02*
X77595870Y-145668983D01*
X77595870Y-145668983D02*
X77915226Y-145888768D01*
X77915226Y-145888768D02*
X78236662Y-146105189D01*
X78236662Y-146105189D02*
X78560440Y-146318421D01*
X78560440Y-146318421D02*
X78886354Y-146528328D01*
X78886354Y-146528328D02*
X79214294Y-146734839D01*
X79214294Y-146734839D02*
X79544324Y-146937998D01*
X79544324Y-146937998D02*
X79876507Y-147137841D01*
X79876507Y-147137841D02*
X80210667Y-147334261D01*
X80210667Y-147334261D02*
X80546735Y-147527220D01*
X80546735Y-147527220D02*
X80884901Y-147716825D01*
X80884901Y-147716825D02*
X81224876Y-147902915D01*
X81224876Y-147902915D02*
X81566784Y-148085557D01*
X81566784Y-148085557D02*
X81910533Y-148264703D01*
X81910533Y-148264703D02*
X82256007Y-148440292D01*
X82256007Y-148440292D02*
X82603300Y-148612373D01*
X82603300Y-148612373D02*
X82952338Y-148780908D01*
X82952338Y-148780908D02*
X83303136Y-148945904D01*
X83303136Y-148945904D02*
X83655439Y-149107243D01*
X83655439Y-149107243D02*
X84009590Y-149265079D01*
X84009590Y-149265079D02*
X84365182Y-149419232D01*
X84365182Y-149419232D02*
X84722360Y-149569765D01*
X84722360Y-149569765D02*
X85080995Y-149716626D01*
X85080995Y-149716626D02*
X85441165Y-149859844D01*
X85441165Y-149859844D02*
X85802832Y-149999405D01*
X85802832Y-149999405D02*
X86165816Y-150135238D01*
X86165816Y-150135238D02*
X86530227Y-150267386D01*
X86530227Y-150267386D02*
X86895871Y-150395777D01*
X86895871Y-150395777D02*
X87262971Y-150520491D01*
X87262971Y-150520491D02*
X87631141Y-150641396D01*
X87631141Y-150641396D02*
X88000591Y-150758562D01*
X88000591Y-150758562D02*
X88371280Y-150871975D01*
X88371280Y-150871975D02*
X88743586Y-150981744D01*
X88743586Y-150981744D02*
X89241298Y-151123467D01*
X89241298Y-151123467D02*
X89741125Y-151261866D01*
X89741125Y-151261866D02*
X90242221Y-151396699D01*
X90242221Y-151396699D02*
X90744005Y-151527809D01*
X90744005Y-151527809D02*
X91246881Y-151655302D01*
X91246881Y-151655302D02*
X91750744Y-151779151D01*
X91750744Y-151779151D02*
X92255293Y-151899281D01*
X92255293Y-151899281D02*
X92590281Y-151899281D01*
X92590281Y-151899281D02*
X92690578Y-151999578D01*
X92690578Y-151999578D02*
X92760778Y-152015753D01*
X97857433Y-152977138D02*
X98370534Y-153052806D01*
X99913425Y-153257440D02*
X100428444Y-153318134D01*
X100943913Y-153375080D02*
X101772269Y-153460092D01*
D47*
G04 #@! TO.N,/C0*
X76239220Y-97257231D02*
X77001219Y-96495232D01*
X101033118Y-127381000D02*
X76239220Y-102587102D01*
X122174000Y-127381000D02*
X101033118Y-127381000D01*
X76239220Y-102587102D02*
X76239220Y-97257231D01*
G04 #@! TO.N,/C#0*
X91779472Y-115900236D02*
X94164760Y-115900236D01*
X123619491Y-122377200D02*
X124714000Y-123471714D01*
X100641722Y-122377200D02*
X123619491Y-122377200D01*
X78364086Y-99857550D02*
X78364086Y-102484850D01*
X124714000Y-123471714D02*
X124714000Y-127381000D01*
X78364086Y-102484850D02*
X91779472Y-115900236D01*
X94164760Y-115900236D02*
X100641722Y-122377200D01*
G04 #@! TO.N,/D0*
X94817068Y-114325426D02*
X92431779Y-114325425D01*
X127254000Y-123784592D02*
X124271798Y-120802390D01*
X101294031Y-120802390D02*
X94817068Y-114325426D01*
X127254000Y-127381000D02*
X127254000Y-123784592D01*
X81203809Y-102482272D02*
X80441810Y-101720273D01*
X92431779Y-114325425D02*
X81203809Y-103097455D01*
X81203809Y-103097455D02*
X81203809Y-102482272D01*
X124271798Y-120802390D02*
X101294031Y-120802390D01*
G04 #@! TO.N,/D#0*
X101946339Y-119227579D02*
X124924106Y-119227579D01*
X93511985Y-112750615D02*
X95469375Y-112750615D01*
X129794000Y-123843474D02*
X129794000Y-127381000D01*
X127046203Y-121095675D02*
X129794000Y-123843474D01*
X126792195Y-121095674D02*
X127046203Y-121095675D01*
X124924106Y-119227579D02*
X126792195Y-121095674D01*
X95469375Y-112750615D02*
X101946339Y-119227579D01*
X86106000Y-105344630D02*
X93511985Y-112750615D01*
X86106000Y-104267000D02*
X86106000Y-105344630D01*
D46*
G04 #@! TO.N,/E0*
X132334000Y-127508000D02*
X132334000Y-124968000D01*
D47*
X90601177Y-106730809D02*
X89839178Y-105968810D01*
X132334000Y-127381000D02*
X132334000Y-123883880D01*
X102598647Y-117652766D02*
X96121684Y-111175803D01*
X96121684Y-111175803D02*
X95046171Y-111175803D01*
X130554833Y-122377190D02*
X127698512Y-119520867D01*
X130827310Y-122377190D02*
X130554833Y-122377190D01*
X125576406Y-117652766D02*
X102598647Y-117652766D01*
X127698512Y-119520867D02*
X127444506Y-119520866D01*
X132334000Y-123883880D02*
X130827310Y-122377190D01*
X127444506Y-119520866D02*
X125576406Y-117652766D01*
X95046171Y-111175803D02*
X90601177Y-106730809D01*
G04 #@! TO.N,/F0*
X134874000Y-127508000D02*
X134874000Y-127957120D01*
X133367310Y-129463810D02*
X100390046Y-129463810D01*
X74599811Y-103673575D02*
X74599811Y-96011152D01*
X76059654Y-94551309D02*
X79233533Y-94551309D01*
X79233533Y-94551309D02*
X80173699Y-95491475D01*
X80173699Y-98077525D02*
X84204174Y-102108000D01*
X89380602Y-102108000D02*
X94357039Y-107084437D01*
X80173699Y-95491475D02*
X80173699Y-98077525D01*
X134874000Y-127957120D02*
X133367310Y-129463810D01*
X84204174Y-102108000D02*
X89380602Y-102108000D01*
X74599811Y-96011152D02*
X76059654Y-94551309D01*
X94357039Y-107084437D02*
X95119038Y-107846436D01*
X100390046Y-129463810D02*
X74599811Y-103673575D01*
G04 #@! TO.N,/F#0*
X128350824Y-117946067D02*
X128096825Y-117946067D01*
X137414000Y-127381000D02*
X137414000Y-123883880D01*
X126228719Y-116077961D02*
X108000759Y-116077961D01*
X108000759Y-116077961D02*
X102819198Y-110896400D01*
X131207136Y-120802379D02*
X128350824Y-117946067D01*
X133054428Y-122377190D02*
X131479618Y-120802379D01*
X137414000Y-123883880D02*
X135907310Y-122377190D01*
X135907310Y-122377190D02*
X133054428Y-122377190D01*
X102819198Y-110896400D02*
X102057199Y-110134401D01*
X128096825Y-117946067D02*
X126228719Y-116077961D01*
X131479618Y-120802379D02*
X131207136Y-120802379D01*
G04 #@! TO.N,/G0*
X109412370Y-113157000D02*
X110490000Y-113157000D01*
X103046785Y-108026199D02*
X108177586Y-113157000D01*
X102336599Y-108026199D02*
X103046785Y-108026199D01*
X92264733Y-97954333D02*
X102336599Y-108026199D01*
X86732678Y-97954333D02*
X92264733Y-97954333D01*
X85583582Y-95548463D02*
X85583582Y-96805237D01*
X83011617Y-92976498D02*
X85583582Y-95548463D01*
X75407346Y-92976498D02*
X83011617Y-92976498D01*
X145034000Y-140233400D02*
X136321800Y-131521200D01*
X108177586Y-113157000D02*
X109412370Y-113157000D01*
X145034000Y-142621000D02*
X145034000Y-140233400D01*
X85583582Y-96805237D02*
X86732678Y-97954333D01*
X136321800Y-131521200D02*
X100220317Y-131521200D01*
X100220317Y-131521200D02*
X73025000Y-104325883D01*
X73025000Y-104325883D02*
X73025000Y-95358844D01*
X73025000Y-95358844D02*
X75407346Y-92976498D01*
G04 #@! TO.N,/G#0*
X98806000Y-140335000D02*
X89701625Y-131230625D01*
X66040000Y-92710000D02*
X74371200Y-84378800D01*
X74371200Y-84378800D02*
X81127600Y-84378800D01*
X108194903Y-110947198D02*
X114806392Y-110947198D01*
X103200188Y-106451388D02*
X103699093Y-106451388D01*
X117224262Y-113365068D02*
X117986261Y-114127067D01*
X132334000Y-142621000D02*
X132334000Y-142171880D01*
X103699093Y-106451388D02*
X108194903Y-110947198D01*
X81127600Y-84378800D02*
X103200188Y-106451388D01*
X89701625Y-131230625D02*
X88685625Y-131230625D01*
X132334000Y-142171880D02*
X130497120Y-140335000D01*
X114806392Y-110947198D02*
X117224262Y-113365068D01*
X130497120Y-140335000D02*
X98806000Y-140335000D01*
X88685625Y-131230625D02*
X66040000Y-108585000D01*
X66040000Y-108585000D02*
X66040000Y-92710000D01*
G04 #@! TO.N,/A0*
X127594593Y-110236000D02*
X126936500Y-110236000D01*
X145034000Y-123883880D02*
X141952500Y-120802380D01*
X145034000Y-127381000D02*
X145034000Y-123883880D01*
X141952500Y-120802380D02*
X141326733Y-120802380D01*
X141326733Y-120802380D02*
X138177113Y-117652760D01*
X138177113Y-117652760D02*
X135011353Y-117652760D01*
X135011353Y-117652760D02*
X127594593Y-110236000D01*
G04 #@! TO.N,/A#0*
X146989810Y-127381000D02*
X146989810Y-123299690D01*
X142917690Y-119227570D02*
X141979038Y-119227570D01*
X146989810Y-123299690D02*
X142917690Y-119227570D01*
X138077947Y-115326479D02*
X136391308Y-115326479D01*
X147574000Y-127381000D02*
X146989810Y-127381000D01*
X141979038Y-119227570D02*
X138077947Y-115326479D01*
G04 #@! TO.N,/B0*
X143243492Y-117013372D02*
X142530761Y-117013372D01*
X150114000Y-127381000D02*
X150114000Y-123883880D01*
X150114000Y-123883880D02*
X143243492Y-117013372D01*
G04 #@! TO.N,/C1*
X152654000Y-119634000D02*
X152654000Y-127508000D01*
X151003000Y-118110000D02*
X152654000Y-119634000D01*
X148971000Y-118110000D02*
X151003000Y-118110000D01*
G04 #@! TO.N,/C#1*
X153797000Y-117983000D02*
X155194000Y-119126000D01*
X155194000Y-119126000D02*
X155194000Y-127508000D01*
G04 #@! TO.N,/D1*
X157734000Y-118392066D02*
X158129034Y-117997032D01*
X158129034Y-117997032D02*
X158891033Y-117235033D01*
X157734000Y-127508000D02*
X157734000Y-118392066D01*
D46*
G04 #@! TO.N,/D#1*
X163068000Y-126365000D02*
X163068000Y-119888000D01*
X163068000Y-119888000D02*
X166116000Y-116967000D01*
G04 #@! TO.N,/E1*
X181508400Y-113904432D02*
X181508400Y-112826802D01*
X181508400Y-133451600D02*
X181508400Y-113904432D01*
X174777400Y-140182600D02*
X181508400Y-133451600D01*
X168986200Y-140182600D02*
X174777400Y-140182600D01*
X167894000Y-142748000D02*
X167894000Y-141274800D01*
X167894000Y-141274800D02*
X168986200Y-140182600D01*
G04 #@! TO.N,/F1*
X184150001Y-111150401D02*
X184912000Y-111912400D01*
X180711884Y-110388401D02*
X183388004Y-110388404D01*
X165354000Y-139852400D02*
X167665400Y-137541000D01*
X165354000Y-142748000D02*
X165354000Y-139852400D01*
X183388004Y-110388404D02*
X184150001Y-111150401D01*
X172770800Y-137541000D02*
X179425681Y-130886119D01*
X179425681Y-130886119D02*
X179425681Y-111674600D01*
X167665400Y-137541000D02*
X172770800Y-137541000D01*
X179425681Y-111674600D02*
X180711884Y-110388401D01*
G04 #@! TO.N,/F#1*
X189230000Y-129793997D02*
X189230000Y-111567630D01*
X177012619Y-142011378D02*
X189230000Y-129793997D01*
X177012619Y-142259105D02*
X177012619Y-142011378D01*
X171519914Y-147751810D02*
X177012619Y-142259105D01*
X164268086Y-147751810D02*
X171519914Y-147751810D01*
X162814000Y-142748000D02*
X163271190Y-143205190D01*
X163271190Y-146754914D02*
X164268086Y-147751810D01*
X163271190Y-143205190D02*
X163271190Y-146754914D01*
X189230000Y-111567630D02*
X189230000Y-110490000D01*
G04 #@! TO.N,/G1*
X161442379Y-147466101D02*
X161442379Y-147512432D01*
X161442379Y-147512432D02*
X163510568Y-149580621D01*
X175799722Y-148742378D02*
X196215000Y-128327100D01*
X196215000Y-109662630D02*
X193548000Y-109220000D01*
X196215000Y-128327100D02*
X196215000Y-109662630D01*
X160731192Y-146754913D02*
X161442379Y-147466101D01*
X172277432Y-149580621D02*
X173115675Y-148742378D01*
X160731192Y-143205192D02*
X160731192Y-146754913D01*
X160274000Y-142748000D02*
X160731192Y-143205192D01*
X173115675Y-148742378D02*
X175799722Y-148742378D01*
X163510568Y-149580621D02*
X172277432Y-149580621D01*
G04 #@! TO.N,/G#1*
X157734000Y-142748000D02*
X158191190Y-143205190D01*
X158191190Y-143205190D02*
X158191191Y-146754913D01*
X158191191Y-146754913D02*
X158902381Y-147466103D01*
X158902381Y-147512432D02*
X159613568Y-148223619D01*
X203200000Y-107122630D02*
X203200000Y-106045000D01*
X173873193Y-150571189D02*
X176563209Y-150571189D01*
X173034950Y-151409432D02*
X173873193Y-150571189D01*
X162753050Y-151409432D02*
X173034950Y-151409432D01*
X159613568Y-148269950D02*
X162753050Y-151409432D01*
X159613568Y-148223619D02*
X159613568Y-148269950D01*
X203200000Y-123934398D02*
X203200000Y-107122630D01*
X176563209Y-150571189D02*
X203200000Y-123934398D01*
X158902381Y-147466103D02*
X158902381Y-147512432D01*
G04 #@! TO.N,/A1*
X161995532Y-153238243D02*
X173792468Y-153238243D01*
X177341566Y-152400000D02*
X209448400Y-120293166D01*
X173792468Y-153238243D02*
X174630711Y-152400000D01*
X174630711Y-152400000D02*
X177341566Y-152400000D01*
X209448400Y-120293166D02*
X209448400Y-104912840D01*
X155194000Y-146436711D02*
X161995532Y-153238243D01*
X209448400Y-104912840D02*
X209448400Y-103835210D01*
X155194000Y-142748000D02*
X155194000Y-146436711D01*
G04 #@! TO.N,/A#1*
X213969600Y-101752400D02*
X214426800Y-101295200D01*
X209092800Y-101701600D02*
X213969600Y-101752400D01*
D47*
X201930000Y-104140000D02*
X209092800Y-101701600D01*
X200152000Y-106299000D02*
X201930000Y-104140000D01*
X188061600Y-108559600D02*
X193040000Y-107315000D01*
X193040000Y-107315000D02*
X200152000Y-106299000D01*
D46*
X184145523Y-108559594D02*
X188061600Y-108559600D01*
X180167772Y-108559590D02*
X184145523Y-108559594D01*
X179954368Y-108559590D02*
X180167772Y-108559590D01*
X177596873Y-110917079D02*
X179954368Y-108559590D01*
X152654000Y-140624558D02*
X158658558Y-134620000D01*
X152654000Y-142748000D02*
X152654000Y-140624558D01*
X158658558Y-134620000D02*
X171724927Y-134620000D01*
X171724927Y-134620000D02*
X177596870Y-128748057D01*
X177596870Y-128748057D02*
X177596870Y-112432116D01*
X177596870Y-112432116D02*
X177596873Y-110917079D01*
G04 #@! TO.N,/B1*
X150114000Y-147256500D02*
X157312448Y-154454948D01*
X150114000Y-142621000D02*
X150114000Y-147256500D01*
X157312448Y-154454948D02*
X157312587Y-154454948D01*
X220916500Y-133350000D02*
X220916500Y-98234500D01*
X208258563Y-146007937D02*
X220916500Y-133350000D01*
X157312448Y-154454948D02*
X157988000Y-155130500D01*
X174486538Y-155130500D02*
X175388228Y-154228810D01*
X175388228Y-154228810D02*
X178099083Y-154228810D01*
X178099083Y-154228810D02*
X186319955Y-146007937D01*
X157988000Y-155130500D02*
X174486538Y-155130500D01*
X186319955Y-146007937D02*
X208258563Y-146007937D01*
G04 #@! TO.N,/C2*
X226241475Y-93218000D02*
X227139500Y-93218000D01*
X217958801Y-95621015D02*
X217958801Y-96113600D01*
D47*
X187807600Y-106680000D02*
X193040000Y-105537000D01*
X193040000Y-105537000D02*
X199263000Y-104775000D01*
X199263000Y-104775000D02*
X201295000Y-102438075D01*
X201295000Y-102438075D02*
X208432400Y-99872800D01*
D46*
X208432400Y-99872800D02*
X212317199Y-95621015D01*
X212317199Y-95621015D02*
X213784015Y-94154199D01*
X213784015Y-94154199D02*
X216491985Y-94154199D01*
X216491985Y-94154199D02*
X217958801Y-95621015D01*
X217958801Y-96113600D02*
X223345875Y-96113600D01*
X223345875Y-96113600D02*
X226241475Y-93218000D01*
X147574000Y-140335000D02*
X155625800Y-132283200D01*
X147574000Y-142621000D02*
X147574000Y-140335000D01*
X180162222Y-106730777D02*
X187807600Y-106680000D01*
X155625800Y-132283200D02*
X170738800Y-132283200D01*
X179196819Y-106730777D02*
X180162222Y-106730777D01*
X170738800Y-132283200D02*
X175767977Y-127254023D01*
X175767977Y-127254023D02*
X175767977Y-110159619D01*
X175767977Y-110159619D02*
X179196819Y-106730777D01*
D47*
G04 #@! TO.N,/AUDIO_OUT*
X179832000Y-88900000D02*
X179832000Y-77485000D01*
X160274000Y-118618000D02*
X172720000Y-105664000D01*
X160274000Y-127508000D02*
X160274000Y-118618000D01*
X172720000Y-105664000D02*
X175768000Y-101600000D01*
X175768000Y-101600000D02*
X177292000Y-98044000D01*
X177292000Y-98044000D02*
X178308000Y-94488000D01*
X178308000Y-94488000D02*
X179832000Y-88900000D01*
D46*
G04 #@! TO.N,Net-(D3-Pad2)*
X175895000Y-57150000D02*
X172085000Y-57150000D01*
D45*
G04 #@! TO.N,Net-(D4-Pad2)*
X120945205Y-62691801D02*
X119824500Y-62691801D01*
X121982715Y-62691801D02*
X120945205Y-62691801D01*
X123190000Y-62615886D02*
X122058630Y-62615886D01*
X122058630Y-62615886D02*
X121982715Y-62691801D01*
D46*
G04 #@! TO.N,Net-(BT2-Pad2)*
X178435000Y-59690000D02*
X178435000Y-63500000D01*
X181610000Y-66675000D02*
X186055000Y-66675000D01*
X178435000Y-63500000D02*
X181610000Y-66675000D01*
G04 #@! TD*
M02*
