G04 #@! TF.GenerationSoftware,KiCad,Pcbnew,(6.0.0-rc1-dev-890-g6c34fdefd)*
G04 #@! TF.CreationDate,2018-10-17T06:06:35-07:00*
G04 #@! TF.ProjectId,Stylish-Belt-Synth - Full,5374796C6973682D42656C742D53796E,rev?*
G04 #@! TF.SameCoordinates,Original*
G04 #@! TF.FileFunction,Soldermask,Top*
G04 #@! TF.FilePolarity,Negative*
%FSLAX46Y46*%
G04 Gerber Fmt 4.6, Leading zero omitted, Abs format (unit mm)*
G04 Created by KiCad (PCBNEW (6.0.0-rc1-dev-890-g6c34fdefd)) date 10/17/2018 6:06:35 AM*
%MOMM*%
%LPD*%
G01*
G04 APERTURE LIST*
%ADD10C,1.270000*%
%ADD11C,0.300000*%
%ADD12C,0.375000*%
%ADD13C,0.150000*%
%ADD14C,0.100000*%
G04 APERTURE END LIST*
D10*
X201561095Y-82447190D02*
X202286809Y-82689095D01*
X203496333Y-82689095D01*
X203980142Y-82447190D01*
X204222047Y-82205285D01*
X204463952Y-81721476D01*
X204463952Y-81237666D01*
X204222047Y-80753857D01*
X203980142Y-80511952D01*
X203496333Y-80270047D01*
X202528714Y-80028142D01*
X202044904Y-79786238D01*
X201803000Y-79544333D01*
X201561095Y-79060523D01*
X201561095Y-78576714D01*
X201803000Y-78092904D01*
X202044904Y-77851000D01*
X202528714Y-77609095D01*
X203738238Y-77609095D01*
X204463952Y-77851000D01*
X205915380Y-79302428D02*
X207850619Y-79302428D01*
X206641095Y-77609095D02*
X206641095Y-81963380D01*
X206883000Y-82447190D01*
X207366809Y-82689095D01*
X207850619Y-82689095D01*
X209060142Y-79302428D02*
X210269666Y-82689095D01*
X211479190Y-79302428D02*
X210269666Y-82689095D01*
X209785857Y-83898619D01*
X209543952Y-84140523D01*
X209060142Y-84382428D01*
X214140142Y-82689095D02*
X213656333Y-82447190D01*
X213414428Y-81963380D01*
X213414428Y-77609095D01*
X216075380Y-82689095D02*
X216075380Y-79302428D01*
X216075380Y-77609095D02*
X215833476Y-77851000D01*
X216075380Y-78092904D01*
X216317285Y-77851000D01*
X216075380Y-77609095D01*
X216075380Y-78092904D01*
X218252523Y-82447190D02*
X218736333Y-82689095D01*
X219703952Y-82689095D01*
X220187761Y-82447190D01*
X220429666Y-81963380D01*
X220429666Y-81721476D01*
X220187761Y-81237666D01*
X219703952Y-80995761D01*
X218978238Y-80995761D01*
X218494428Y-80753857D01*
X218252523Y-80270047D01*
X218252523Y-80028142D01*
X218494428Y-79544333D01*
X218978238Y-79302428D01*
X219703952Y-79302428D01*
X220187761Y-79544333D01*
X222606809Y-82689095D02*
X222606809Y-77609095D01*
X224783952Y-82689095D02*
X224783952Y-80028142D01*
X224542047Y-79544333D01*
X224058238Y-79302428D01*
X223332523Y-79302428D01*
X222848714Y-79544333D01*
X222606809Y-79786238D01*
X227203000Y-82205285D02*
X227444904Y-82447190D01*
X227203000Y-82689095D01*
X226961095Y-82447190D01*
X227203000Y-82205285D01*
X227203000Y-82689095D01*
X227203000Y-80753857D02*
X226961095Y-77851000D01*
X227203000Y-77609095D01*
X227444904Y-77851000D01*
X227203000Y-80753857D01*
X227203000Y-77609095D01*
D11*
X108410714Y-89578571D02*
X108410714Y-88078571D01*
X108910714Y-89150000D01*
X109410714Y-88078571D01*
X109410714Y-89578571D01*
X110410714Y-88078571D02*
X110696428Y-88078571D01*
X110839285Y-88150000D01*
X110982142Y-88292857D01*
X111053571Y-88578571D01*
X111053571Y-89078571D01*
X110982142Y-89364285D01*
X110839285Y-89507142D01*
X110696428Y-89578571D01*
X110410714Y-89578571D01*
X110267857Y-89507142D01*
X110125000Y-89364285D01*
X110053571Y-89078571D01*
X110053571Y-88578571D01*
X110125000Y-88292857D01*
X110267857Y-88150000D01*
X110410714Y-88078571D01*
X111696428Y-89578571D02*
X111696428Y-88078571D01*
X112053571Y-88078571D01*
X112267857Y-88150000D01*
X112410714Y-88292857D01*
X112482142Y-88435714D01*
X112553571Y-88721428D01*
X112553571Y-88935714D01*
X112482142Y-89221428D01*
X112410714Y-89364285D01*
X112267857Y-89507142D01*
X112053571Y-89578571D01*
X111696428Y-89578571D01*
X113196428Y-88792857D02*
X113696428Y-88792857D01*
X113910714Y-89578571D02*
X113196428Y-89578571D01*
X113196428Y-88078571D01*
X113910714Y-88078571D01*
X95210714Y-81093571D02*
X95710714Y-82593571D01*
X96210714Y-81093571D01*
X96639285Y-82165000D02*
X97353571Y-82165000D01*
X96496428Y-82593571D02*
X96996428Y-81093571D01*
X97496428Y-82593571D01*
X98710714Y-82593571D02*
X97996428Y-82593571D01*
X97996428Y-81093571D01*
X99210714Y-81093571D02*
X99210714Y-82307857D01*
X99282142Y-82450714D01*
X99353571Y-82522142D01*
X99496428Y-82593571D01*
X99782142Y-82593571D01*
X99925000Y-82522142D01*
X99996428Y-82450714D01*
X100067857Y-82307857D01*
X100067857Y-81093571D01*
X100782142Y-81807857D02*
X101282142Y-81807857D01*
X101496428Y-82593571D02*
X100782142Y-82593571D01*
X100782142Y-81093571D01*
X101496428Y-81093571D01*
D12*
X108156714Y-89324571D02*
X108156714Y-87824571D01*
X108656714Y-88896000D01*
X109156714Y-87824571D01*
X109156714Y-89324571D01*
X110156714Y-87824571D02*
X110442428Y-87824571D01*
X110585285Y-87896000D01*
X110728142Y-88038857D01*
X110799571Y-88324571D01*
X110799571Y-88824571D01*
X110728142Y-89110285D01*
X110585285Y-89253142D01*
X110442428Y-89324571D01*
X110156714Y-89324571D01*
X110013857Y-89253142D01*
X109871000Y-89110285D01*
X109799571Y-88824571D01*
X109799571Y-88324571D01*
X109871000Y-88038857D01*
X110013857Y-87896000D01*
X110156714Y-87824571D01*
X111442428Y-89324571D02*
X111442428Y-87824571D01*
X111799571Y-87824571D01*
X112013857Y-87896000D01*
X112156714Y-88038857D01*
X112228142Y-88181714D01*
X112299571Y-88467428D01*
X112299571Y-88681714D01*
X112228142Y-88967428D01*
X112156714Y-89110285D01*
X112013857Y-89253142D01*
X111799571Y-89324571D01*
X111442428Y-89324571D01*
X112942428Y-88538857D02*
X113442428Y-88538857D01*
X113656714Y-89324571D02*
X112942428Y-89324571D01*
X112942428Y-87824571D01*
X113656714Y-87824571D01*
X82471000Y-74489571D02*
X82828142Y-75989571D01*
X83113857Y-74918142D01*
X83399571Y-75989571D01*
X83756714Y-74489571D01*
X85185285Y-75989571D02*
X84685285Y-75275285D01*
X84328142Y-75989571D02*
X84328142Y-74489571D01*
X84899571Y-74489571D01*
X85042428Y-74561000D01*
X85113857Y-74632428D01*
X85185285Y-74775285D01*
X85185285Y-74989571D01*
X85113857Y-75132428D01*
X85042428Y-75203857D01*
X84899571Y-75275285D01*
X84328142Y-75275285D01*
X85828142Y-75989571D02*
X85828142Y-74489571D01*
X86328142Y-74489571D02*
X87185285Y-74489571D01*
X86756714Y-75989571D02*
X86756714Y-74489571D01*
X87685285Y-75203857D02*
X88185285Y-75203857D01*
X88399571Y-75989571D02*
X87685285Y-75989571D01*
X87685285Y-74489571D01*
X88399571Y-74489571D01*
X94956714Y-80839571D02*
X95456714Y-82339571D01*
X95956714Y-80839571D01*
X96385285Y-81911000D02*
X97099571Y-81911000D01*
X96242428Y-82339571D02*
X96742428Y-80839571D01*
X97242428Y-82339571D01*
X98456714Y-82339571D02*
X97742428Y-82339571D01*
X97742428Y-80839571D01*
X98956714Y-80839571D02*
X98956714Y-82053857D01*
X99028142Y-82196714D01*
X99099571Y-82268142D01*
X99242428Y-82339571D01*
X99528142Y-82339571D01*
X99671000Y-82268142D01*
X99742428Y-82196714D01*
X99813857Y-82053857D01*
X99813857Y-80839571D01*
X100528142Y-81553857D02*
X101028142Y-81553857D01*
X101242428Y-82339571D02*
X100528142Y-82339571D01*
X100528142Y-80839571D01*
X101242428Y-80839571D01*
D11*
X72422142Y-70528571D02*
X72422142Y-69028571D01*
X72993571Y-69028571D01*
X73136428Y-69100000D01*
X73207857Y-69171428D01*
X73279285Y-69314285D01*
X73279285Y-69528571D01*
X73207857Y-69671428D01*
X73136428Y-69742857D01*
X72993571Y-69814285D01*
X72422142Y-69814285D01*
X73850714Y-70100000D02*
X74565000Y-70100000D01*
X73707857Y-70528571D02*
X74207857Y-69028571D01*
X74707857Y-70528571D01*
X74993571Y-69028571D02*
X75850714Y-69028571D01*
X75422142Y-70528571D02*
X75422142Y-69028571D01*
X77207857Y-70385714D02*
X77136428Y-70457142D01*
X76922142Y-70528571D01*
X76779285Y-70528571D01*
X76565000Y-70457142D01*
X76422142Y-70314285D01*
X76350714Y-70171428D01*
X76279285Y-69885714D01*
X76279285Y-69671428D01*
X76350714Y-69385714D01*
X76422142Y-69242857D01*
X76565000Y-69100000D01*
X76779285Y-69028571D01*
X76922142Y-69028571D01*
X77136428Y-69100000D01*
X77207857Y-69171428D01*
X77850714Y-70528571D02*
X77850714Y-69028571D01*
X77850714Y-69742857D02*
X78707857Y-69742857D01*
X78707857Y-70528571D02*
X78707857Y-69028571D01*
D12*
X72168142Y-70274571D02*
X72168142Y-68774571D01*
X72739571Y-68774571D01*
X72882428Y-68846000D01*
X72953857Y-68917428D01*
X73025285Y-69060285D01*
X73025285Y-69274571D01*
X72953857Y-69417428D01*
X72882428Y-69488857D01*
X72739571Y-69560285D01*
X72168142Y-69560285D01*
X73596714Y-69846000D02*
X74311000Y-69846000D01*
X73453857Y-70274571D02*
X73953857Y-68774571D01*
X74453857Y-70274571D01*
X74739571Y-68774571D02*
X75596714Y-68774571D01*
X75168142Y-70274571D02*
X75168142Y-68774571D01*
X76953857Y-70131714D02*
X76882428Y-70203142D01*
X76668142Y-70274571D01*
X76525285Y-70274571D01*
X76311000Y-70203142D01*
X76168142Y-70060285D01*
X76096714Y-69917428D01*
X76025285Y-69631714D01*
X76025285Y-69417428D01*
X76096714Y-69131714D01*
X76168142Y-68988857D01*
X76311000Y-68846000D01*
X76525285Y-68774571D01*
X76668142Y-68774571D01*
X76882428Y-68846000D01*
X76953857Y-68917428D01*
X77596714Y-70274571D02*
X77596714Y-68774571D01*
X77596714Y-69488857D02*
X78453857Y-69488857D01*
X78453857Y-70274571D02*
X78453857Y-68774571D01*
D11*
X82725000Y-74743571D02*
X83082142Y-76243571D01*
X83367857Y-75172142D01*
X83653571Y-76243571D01*
X84010714Y-74743571D01*
X85439285Y-76243571D02*
X84939285Y-75529285D01*
X84582142Y-76243571D02*
X84582142Y-74743571D01*
X85153571Y-74743571D01*
X85296428Y-74815000D01*
X85367857Y-74886428D01*
X85439285Y-75029285D01*
X85439285Y-75243571D01*
X85367857Y-75386428D01*
X85296428Y-75457857D01*
X85153571Y-75529285D01*
X84582142Y-75529285D01*
X86082142Y-76243571D02*
X86082142Y-74743571D01*
X86582142Y-74743571D02*
X87439285Y-74743571D01*
X87010714Y-76243571D02*
X87010714Y-74743571D01*
X87939285Y-75457857D02*
X88439285Y-75457857D01*
X88653571Y-76243571D02*
X87939285Y-76243571D01*
X87939285Y-74743571D01*
X88653571Y-74743571D01*
D13*
G04 #@! TO.C,KB1*
G36*
X64753000Y-93128000D02*
X71103000Y-97118000D01*
X77453000Y-100708000D01*
X84113000Y-104088000D01*
X90793000Y-107088000D01*
X97353000Y-109658000D01*
X104053000Y-111908000D01*
X111103000Y-113958000D01*
X118013000Y-115608000D01*
X124913000Y-116908000D01*
X132053000Y-117838000D01*
X138783000Y-118458000D01*
X146073000Y-118748000D01*
X153443000Y-118678000D01*
X160963000Y-118228000D01*
X168353000Y-117398000D01*
X175463000Y-116318000D01*
X182793000Y-114818000D01*
X189673000Y-113028000D01*
X196393000Y-110968000D01*
X203003000Y-108568000D01*
X209683000Y-105768000D01*
X215883000Y-102888000D01*
X222023000Y-99548000D01*
X228733000Y-95578000D01*
X235313000Y-91308000D01*
X235513000Y-91868000D01*
X235783000Y-92828000D01*
X236193000Y-94878000D01*
X236483000Y-97098000D01*
X236743000Y-99598000D01*
X236813000Y-100948000D01*
X236833000Y-103348000D01*
X236823000Y-106178000D01*
X236763000Y-109158000D01*
X236643000Y-111178000D01*
X236423000Y-113168000D01*
X236163000Y-115188000D01*
X235793000Y-117648000D01*
X235353000Y-120028000D01*
X234873000Y-122188000D01*
X234433000Y-123968000D01*
X233753000Y-126328000D01*
X233233000Y-127868000D01*
X232653000Y-129368000D01*
X232133000Y-130668000D01*
X231733000Y-131528000D01*
X231553000Y-131898000D01*
X231303000Y-132038000D01*
X230503000Y-134428000D01*
X229953000Y-135528000D01*
X228993000Y-137298000D01*
X227033000Y-140098000D01*
X225293000Y-142168000D01*
X223013000Y-144538000D01*
X221133000Y-146158000D01*
X217883000Y-148408000D01*
X215323000Y-149788000D01*
X211633000Y-151508000D01*
X208223000Y-152718000D01*
X205873000Y-153238000D01*
X202303000Y-153978000D01*
X198233000Y-154668000D01*
X194493000Y-155098000D01*
X188983000Y-155518000D01*
X183813000Y-155828000D01*
X181413000Y-155928000D01*
X155253000Y-156068000D01*
X129043000Y-155978000D01*
X123833000Y-155968000D01*
X120123000Y-155928000D01*
X117253000Y-155928000D01*
X113713000Y-155858000D01*
X112043000Y-155828000D01*
X106473000Y-155468000D01*
X102683000Y-155168000D01*
X97783000Y-154588000D01*
X93393000Y-153808000D01*
X89523000Y-152878000D01*
X85993000Y-151648000D01*
X83523000Y-150648000D01*
X81003000Y-149388000D01*
X78763000Y-148098000D01*
X76033000Y-146238000D01*
X74343000Y-144798000D01*
X71413000Y-141798000D01*
X70083000Y-140158000D01*
X68173000Y-137508000D01*
X66463000Y-134628000D01*
X65243000Y-131578000D01*
X63723000Y-127728000D01*
X62433000Y-123288000D01*
X61633000Y-119698000D01*
X60783000Y-114928000D01*
X60303000Y-110118000D01*
X60163000Y-105798000D01*
X60163000Y-101288000D01*
X60303000Y-98728000D01*
X60773000Y-94868000D01*
X61393000Y-91988000D01*
X61613000Y-91418000D01*
X61923000Y-91348000D01*
X62893000Y-91898000D01*
X64753000Y-93128000D01*
G37*
X64753000Y-93128000D02*
X71103000Y-97118000D01*
X77453000Y-100708000D01*
X84113000Y-104088000D01*
X90793000Y-107088000D01*
X97353000Y-109658000D01*
X104053000Y-111908000D01*
X111103000Y-113958000D01*
X118013000Y-115608000D01*
X124913000Y-116908000D01*
X132053000Y-117838000D01*
X138783000Y-118458000D01*
X146073000Y-118748000D01*
X153443000Y-118678000D01*
X160963000Y-118228000D01*
X168353000Y-117398000D01*
X175463000Y-116318000D01*
X182793000Y-114818000D01*
X189673000Y-113028000D01*
X196393000Y-110968000D01*
X203003000Y-108568000D01*
X209683000Y-105768000D01*
X215883000Y-102888000D01*
X222023000Y-99548000D01*
X228733000Y-95578000D01*
X235313000Y-91308000D01*
X235513000Y-91868000D01*
X235783000Y-92828000D01*
X236193000Y-94878000D01*
X236483000Y-97098000D01*
X236743000Y-99598000D01*
X236813000Y-100948000D01*
X236833000Y-103348000D01*
X236823000Y-106178000D01*
X236763000Y-109158000D01*
X236643000Y-111178000D01*
X236423000Y-113168000D01*
X236163000Y-115188000D01*
X235793000Y-117648000D01*
X235353000Y-120028000D01*
X234873000Y-122188000D01*
X234433000Y-123968000D01*
X233753000Y-126328000D01*
X233233000Y-127868000D01*
X232653000Y-129368000D01*
X232133000Y-130668000D01*
X231733000Y-131528000D01*
X231553000Y-131898000D01*
X231303000Y-132038000D01*
X230503000Y-134428000D01*
X229953000Y-135528000D01*
X228993000Y-137298000D01*
X227033000Y-140098000D01*
X225293000Y-142168000D01*
X223013000Y-144538000D01*
X221133000Y-146158000D01*
X217883000Y-148408000D01*
X215323000Y-149788000D01*
X211633000Y-151508000D01*
X208223000Y-152718000D01*
X205873000Y-153238000D01*
X202303000Y-153978000D01*
X198233000Y-154668000D01*
X194493000Y-155098000D01*
X188983000Y-155518000D01*
X183813000Y-155828000D01*
X181413000Y-155928000D01*
X155253000Y-156068000D01*
X129043000Y-155978000D01*
X123833000Y-155968000D01*
X120123000Y-155928000D01*
X117253000Y-155928000D01*
X113713000Y-155858000D01*
X112043000Y-155828000D01*
X106473000Y-155468000D01*
X102683000Y-155168000D01*
X97783000Y-154588000D01*
X93393000Y-153808000D01*
X89523000Y-152878000D01*
X85993000Y-151648000D01*
X83523000Y-150648000D01*
X81003000Y-149388000D01*
X78763000Y-148098000D01*
X76033000Y-146238000D01*
X74343000Y-144798000D01*
X71413000Y-141798000D01*
X70083000Y-140158000D01*
X68173000Y-137508000D01*
X66463000Y-134628000D01*
X65243000Y-131578000D01*
X63723000Y-127728000D01*
X62433000Y-123288000D01*
X61633000Y-119698000D01*
X60783000Y-114928000D01*
X60303000Y-110118000D01*
X60163000Y-105798000D01*
X60163000Y-101288000D01*
X60303000Y-98728000D01*
X60773000Y-94868000D01*
X61393000Y-91988000D01*
X61613000Y-91418000D01*
X61923000Y-91348000D01*
X62893000Y-91898000D01*
X64753000Y-93128000D01*
D14*
G36*
X146330603Y-118835968D02*
X146370266Y-118852397D01*
X146505678Y-118908486D01*
X146529378Y-118924322D01*
X146663241Y-119013767D01*
X146797233Y-119147759D01*
X146832592Y-119200678D01*
X146902514Y-119305322D01*
X146948371Y-119416031D01*
X146975032Y-119480397D01*
X147012000Y-119666250D01*
X147012000Y-119855750D01*
X146975032Y-120041603D01*
X146975031Y-120041605D01*
X146902514Y-120216678D01*
X146882092Y-120247241D01*
X146797233Y-120374241D01*
X146663241Y-120508233D01*
X146587217Y-120559031D01*
X146505678Y-120613514D01*
X146370266Y-120669603D01*
X146330603Y-120686032D01*
X146144750Y-120723000D01*
X145955250Y-120723000D01*
X145769397Y-120686032D01*
X145729734Y-120669603D01*
X145594322Y-120613514D01*
X145512783Y-120559031D01*
X145436759Y-120508233D01*
X145302767Y-120374241D01*
X145217908Y-120247241D01*
X145197486Y-120216678D01*
X145124969Y-120041605D01*
X145124968Y-120041603D01*
X145088000Y-119855750D01*
X145088000Y-119666250D01*
X145124968Y-119480397D01*
X145151629Y-119416031D01*
X145197486Y-119305322D01*
X145267408Y-119200678D01*
X145302767Y-119147759D01*
X145436759Y-119013767D01*
X145570622Y-118924322D01*
X145594322Y-118908486D01*
X145729734Y-118852397D01*
X145769397Y-118835968D01*
X145955250Y-118799000D01*
X146144750Y-118799000D01*
X146330603Y-118835968D01*
X146330603Y-118835968D01*
G37*
G36*
X153696603Y-118708968D02*
X153696606Y-118708969D01*
X153696605Y-118708969D01*
X153871678Y-118781486D01*
X153895378Y-118797322D01*
X154029241Y-118886767D01*
X154163233Y-119020759D01*
X154166471Y-119025605D01*
X154268514Y-119178322D01*
X154293330Y-119238234D01*
X154341032Y-119353397D01*
X154378000Y-119539250D01*
X154378000Y-119728750D01*
X154341032Y-119914603D01*
X154341031Y-119914605D01*
X154268514Y-120089678D01*
X154216232Y-120167923D01*
X154163233Y-120247241D01*
X154029241Y-120381233D01*
X153949923Y-120434232D01*
X153871678Y-120486514D01*
X153736266Y-120542603D01*
X153696603Y-120559032D01*
X153510750Y-120596000D01*
X153321250Y-120596000D01*
X153135397Y-120559032D01*
X153095734Y-120542603D01*
X152960322Y-120486514D01*
X152882077Y-120434232D01*
X152802759Y-120381233D01*
X152668767Y-120247241D01*
X152615768Y-120167923D01*
X152563486Y-120089678D01*
X152490969Y-119914605D01*
X152490968Y-119914603D01*
X152454000Y-119728750D01*
X152454000Y-119539250D01*
X152490968Y-119353397D01*
X152538670Y-119238234D01*
X152563486Y-119178322D01*
X152665529Y-119025605D01*
X152668767Y-119020759D01*
X152802759Y-118886767D01*
X152936622Y-118797322D01*
X152960322Y-118781486D01*
X153135395Y-118708969D01*
X153135394Y-118708969D01*
X153135397Y-118708968D01*
X153321250Y-118672000D01*
X153510750Y-118672000D01*
X153696603Y-118708968D01*
X153696603Y-118708968D01*
G37*
G36*
X138964603Y-118454968D02*
X138999056Y-118469239D01*
X139139678Y-118527486D01*
X139139679Y-118527487D01*
X139297241Y-118632767D01*
X139431233Y-118766759D01*
X139452776Y-118799000D01*
X139536514Y-118924322D01*
X139578466Y-119025605D01*
X139609032Y-119099397D01*
X139646000Y-119285250D01*
X139646000Y-119474750D01*
X139609032Y-119660603D01*
X139605127Y-119670031D01*
X139536514Y-119835678D01*
X139516092Y-119866241D01*
X139431233Y-119993241D01*
X139297241Y-120127233D01*
X139221217Y-120178031D01*
X139139678Y-120232514D01*
X139004266Y-120288603D01*
X138964603Y-120305032D01*
X138778750Y-120342000D01*
X138589250Y-120342000D01*
X138403397Y-120305032D01*
X138363734Y-120288603D01*
X138228322Y-120232514D01*
X138146783Y-120178031D01*
X138070759Y-120127233D01*
X137936767Y-119993241D01*
X137851908Y-119866241D01*
X137831486Y-119835678D01*
X137762873Y-119670031D01*
X137758968Y-119660603D01*
X137722000Y-119474750D01*
X137722000Y-119285250D01*
X137758968Y-119099397D01*
X137789534Y-119025605D01*
X137831486Y-118924322D01*
X137915224Y-118799000D01*
X137936767Y-118766759D01*
X138070759Y-118632767D01*
X138228321Y-118527487D01*
X138228322Y-118527486D01*
X138368944Y-118469239D01*
X138403397Y-118454968D01*
X138589250Y-118418000D01*
X138778750Y-118418000D01*
X138964603Y-118454968D01*
X138964603Y-118454968D01*
G37*
G36*
X161189603Y-118327968D02*
X161189606Y-118327969D01*
X161189605Y-118327969D01*
X161364678Y-118400486D01*
X161364679Y-118400487D01*
X161522241Y-118505767D01*
X161656233Y-118639759D01*
X161677776Y-118672000D01*
X161761514Y-118797322D01*
X161798563Y-118886767D01*
X161834032Y-118972397D01*
X161871000Y-119158250D01*
X161871000Y-119347750D01*
X161834032Y-119533603D01*
X161817603Y-119573266D01*
X161761514Y-119708678D01*
X161761513Y-119708679D01*
X161656233Y-119866241D01*
X161522241Y-120000233D01*
X161460327Y-120041603D01*
X161364678Y-120105514D01*
X161229266Y-120161603D01*
X161189603Y-120178032D01*
X161003750Y-120215000D01*
X160814250Y-120215000D01*
X160628397Y-120178032D01*
X160588734Y-120161603D01*
X160453322Y-120105514D01*
X160357673Y-120041603D01*
X160295759Y-120000233D01*
X160161767Y-119866241D01*
X160056487Y-119708679D01*
X160056486Y-119708678D01*
X160000397Y-119573266D01*
X159983968Y-119533603D01*
X159947000Y-119347750D01*
X159947000Y-119158250D01*
X159983968Y-118972397D01*
X160019437Y-118886767D01*
X160056486Y-118797322D01*
X160140224Y-118672000D01*
X160161767Y-118639759D01*
X160295759Y-118505767D01*
X160453321Y-118400487D01*
X160453322Y-118400486D01*
X160628395Y-118327969D01*
X160628394Y-118327969D01*
X160628397Y-118327968D01*
X160814250Y-118291000D01*
X161003750Y-118291000D01*
X161189603Y-118327968D01*
X161189603Y-118327968D01*
G37*
G36*
X132233603Y-117819968D02*
X132233606Y-117819969D01*
X132233605Y-117819969D01*
X132408678Y-117892486D01*
X132408679Y-117892487D01*
X132566241Y-117997767D01*
X132700233Y-118131759D01*
X132703471Y-118136605D01*
X132805514Y-118289322D01*
X132821522Y-118327969D01*
X132878032Y-118464397D01*
X132915000Y-118650250D01*
X132915000Y-118839750D01*
X132878032Y-119025603D01*
X132878031Y-119025605D01*
X132805514Y-119200678D01*
X132753232Y-119278923D01*
X132700233Y-119358241D01*
X132566241Y-119492233D01*
X132504327Y-119533603D01*
X132408678Y-119597514D01*
X132273266Y-119653603D01*
X132233603Y-119670032D01*
X132047750Y-119707000D01*
X131858250Y-119707000D01*
X131672397Y-119670032D01*
X131632734Y-119653603D01*
X131497322Y-119597514D01*
X131401673Y-119533603D01*
X131339759Y-119492233D01*
X131205767Y-119358241D01*
X131152768Y-119278923D01*
X131100486Y-119200678D01*
X131027969Y-119025605D01*
X131027968Y-119025603D01*
X130991000Y-118839750D01*
X130991000Y-118650250D01*
X131027968Y-118464397D01*
X131084478Y-118327969D01*
X131100486Y-118289322D01*
X131202529Y-118136605D01*
X131205767Y-118131759D01*
X131339759Y-117997767D01*
X131497321Y-117892487D01*
X131497322Y-117892486D01*
X131672395Y-117819969D01*
X131672394Y-117819969D01*
X131672397Y-117819968D01*
X131858250Y-117783000D01*
X132047750Y-117783000D01*
X132233603Y-117819968D01*
X132233603Y-117819968D01*
G37*
G36*
X168682603Y-117565968D02*
X168722266Y-117582397D01*
X168857678Y-117638486D01*
X168857679Y-117638487D01*
X169015241Y-117743767D01*
X169149233Y-117877759D01*
X169149234Y-117877761D01*
X169254514Y-118035322D01*
X169296466Y-118136605D01*
X169327032Y-118210397D01*
X169364000Y-118396250D01*
X169364000Y-118585750D01*
X169327032Y-118771603D01*
X169327031Y-118771605D01*
X169254514Y-118946678D01*
X169254513Y-118946679D01*
X169149233Y-119104241D01*
X169015241Y-119238233D01*
X168944875Y-119285250D01*
X168857678Y-119343514D01*
X168722266Y-119399603D01*
X168682603Y-119416032D01*
X168496750Y-119453000D01*
X168307250Y-119453000D01*
X168121397Y-119416032D01*
X168081734Y-119399603D01*
X167946322Y-119343514D01*
X167859125Y-119285250D01*
X167788759Y-119238233D01*
X167654767Y-119104241D01*
X167549487Y-118946679D01*
X167549486Y-118946678D01*
X167476969Y-118771605D01*
X167476968Y-118771603D01*
X167440000Y-118585750D01*
X167440000Y-118396250D01*
X167476968Y-118210397D01*
X167507534Y-118136605D01*
X167549486Y-118035322D01*
X167654766Y-117877761D01*
X167654767Y-117877759D01*
X167788759Y-117743767D01*
X167946321Y-117638487D01*
X167946322Y-117638486D01*
X168081734Y-117582397D01*
X168121397Y-117565968D01*
X168307250Y-117529000D01*
X168496750Y-117529000D01*
X168682603Y-117565968D01*
X168682603Y-117565968D01*
G37*
G36*
X124994603Y-116930968D02*
X124994606Y-116930969D01*
X124994605Y-116930969D01*
X125169678Y-117003486D01*
X125169679Y-117003487D01*
X125327241Y-117108767D01*
X125461233Y-117242759D01*
X125507173Y-117311513D01*
X125566514Y-117400322D01*
X125584088Y-117442750D01*
X125639032Y-117575397D01*
X125676000Y-117761250D01*
X125676000Y-117950750D01*
X125639032Y-118136603D01*
X125639031Y-118136605D01*
X125566514Y-118311678D01*
X125514232Y-118389923D01*
X125461233Y-118469241D01*
X125327241Y-118603233D01*
X125283042Y-118632766D01*
X125169678Y-118708514D01*
X125034266Y-118764603D01*
X124994603Y-118781032D01*
X124808750Y-118818000D01*
X124619250Y-118818000D01*
X124433397Y-118781032D01*
X124393734Y-118764603D01*
X124258322Y-118708514D01*
X124144958Y-118632766D01*
X124100759Y-118603233D01*
X123966767Y-118469241D01*
X123913768Y-118389923D01*
X123861486Y-118311678D01*
X123788969Y-118136605D01*
X123788968Y-118136603D01*
X123752000Y-117950750D01*
X123752000Y-117761250D01*
X123788968Y-117575397D01*
X123843912Y-117442750D01*
X123861486Y-117400322D01*
X123920827Y-117311513D01*
X123966767Y-117242759D01*
X124100759Y-117108767D01*
X124258321Y-117003487D01*
X124258322Y-117003486D01*
X124433395Y-116930969D01*
X124433394Y-116930969D01*
X124433397Y-116930968D01*
X124619250Y-116894000D01*
X124808750Y-116894000D01*
X124994603Y-116930968D01*
X124994603Y-116930968D01*
G37*
G36*
X175794603Y-116422968D02*
X175794606Y-116422969D01*
X175794605Y-116422969D01*
X175969678Y-116495486D01*
X175969679Y-116495487D01*
X176127241Y-116600767D01*
X176261233Y-116734759D01*
X176264471Y-116739605D01*
X176366514Y-116892322D01*
X176382522Y-116930969D01*
X176439032Y-117067397D01*
X176476000Y-117253250D01*
X176476000Y-117442750D01*
X176439032Y-117628603D01*
X176439031Y-117628605D01*
X176366514Y-117803678D01*
X176317014Y-117877759D01*
X176261233Y-117961241D01*
X176127241Y-118095233D01*
X176072576Y-118131759D01*
X175969678Y-118200514D01*
X175834266Y-118256603D01*
X175794603Y-118273032D01*
X175608750Y-118310000D01*
X175419250Y-118310000D01*
X175233397Y-118273032D01*
X175193734Y-118256603D01*
X175058322Y-118200514D01*
X174955424Y-118131759D01*
X174900759Y-118095233D01*
X174766767Y-117961241D01*
X174710986Y-117877759D01*
X174661486Y-117803678D01*
X174588969Y-117628605D01*
X174588968Y-117628603D01*
X174552000Y-117442750D01*
X174552000Y-117253250D01*
X174588968Y-117067397D01*
X174645478Y-116930969D01*
X174661486Y-116892322D01*
X174763529Y-116739605D01*
X174766767Y-116734759D01*
X174900759Y-116600767D01*
X175058321Y-116495487D01*
X175058322Y-116495486D01*
X175233395Y-116422969D01*
X175233394Y-116422969D01*
X175233397Y-116422968D01*
X175419250Y-116386000D01*
X175608750Y-116386000D01*
X175794603Y-116422968D01*
X175794603Y-116422968D01*
G37*
G36*
X118136603Y-115533968D02*
X118171056Y-115548239D01*
X118311678Y-115606486D01*
X118311679Y-115606487D01*
X118469241Y-115711767D01*
X118603233Y-115845759D01*
X118603234Y-115845761D01*
X118708514Y-116003322D01*
X118750466Y-116104605D01*
X118781032Y-116178397D01*
X118818000Y-116364250D01*
X118818000Y-116553750D01*
X118781032Y-116739603D01*
X118781031Y-116739605D01*
X118708514Y-116914678D01*
X118656232Y-116992923D01*
X118603233Y-117072241D01*
X118469241Y-117206233D01*
X118414576Y-117242759D01*
X118311678Y-117311514D01*
X118176266Y-117367603D01*
X118136603Y-117384032D01*
X117950750Y-117421000D01*
X117761250Y-117421000D01*
X117575397Y-117384032D01*
X117535734Y-117367603D01*
X117400322Y-117311514D01*
X117297424Y-117242759D01*
X117242759Y-117206233D01*
X117108767Y-117072241D01*
X117055768Y-116992923D01*
X117003486Y-116914678D01*
X116930969Y-116739605D01*
X116930968Y-116739603D01*
X116894000Y-116553750D01*
X116894000Y-116364250D01*
X116930968Y-116178397D01*
X116961534Y-116104605D01*
X117003486Y-116003322D01*
X117108766Y-115845761D01*
X117108767Y-115845759D01*
X117242759Y-115711767D01*
X117400321Y-115606487D01*
X117400322Y-115606486D01*
X117540944Y-115548239D01*
X117575397Y-115533968D01*
X117761250Y-115497000D01*
X117950750Y-115497000D01*
X118136603Y-115533968D01*
X118136603Y-115533968D01*
G37*
G36*
X183160603Y-114898968D02*
X183160606Y-114898969D01*
X183160605Y-114898969D01*
X183335678Y-114971486D01*
X183335679Y-114971487D01*
X183493241Y-115076767D01*
X183627233Y-115210759D01*
X183630471Y-115215605D01*
X183732514Y-115368322D01*
X183741774Y-115390678D01*
X183805032Y-115543397D01*
X183842000Y-115729250D01*
X183842000Y-115918750D01*
X183805032Y-116104603D01*
X183805031Y-116104605D01*
X183732514Y-116279678D01*
X183732513Y-116279679D01*
X183627233Y-116437241D01*
X183493241Y-116571233D01*
X183449042Y-116600766D01*
X183335678Y-116676514D01*
X183200266Y-116732603D01*
X183160603Y-116749032D01*
X182974750Y-116786000D01*
X182785250Y-116786000D01*
X182599397Y-116749032D01*
X182559734Y-116732603D01*
X182424322Y-116676514D01*
X182310958Y-116600766D01*
X182266759Y-116571233D01*
X182132767Y-116437241D01*
X182027487Y-116279679D01*
X182027486Y-116279678D01*
X181954969Y-116104605D01*
X181954968Y-116104603D01*
X181918000Y-115918750D01*
X181918000Y-115729250D01*
X181954968Y-115543397D01*
X182018226Y-115390678D01*
X182027486Y-115368322D01*
X182129529Y-115215605D01*
X182132767Y-115210759D01*
X182266759Y-115076767D01*
X182424321Y-114971487D01*
X182424322Y-114971486D01*
X182599395Y-114898969D01*
X182599394Y-114898969D01*
X182599397Y-114898968D01*
X182785250Y-114862000D01*
X182974750Y-114862000D01*
X183160603Y-114898968D01*
X183160603Y-114898968D01*
G37*
G36*
X150890000Y-116251500D02*
X149490000Y-116251500D01*
X149490000Y-114200500D01*
X150890000Y-114200500D01*
X150890000Y-116251500D01*
X150890000Y-116251500D01*
G37*
G36*
X147690000Y-116251500D02*
X146290000Y-116251500D01*
X146290000Y-114200500D01*
X147690000Y-114200500D01*
X147690000Y-116251500D01*
X147690000Y-116251500D01*
G37*
G36*
X111151603Y-114009968D02*
X111151606Y-114009969D01*
X111151605Y-114009969D01*
X111326678Y-114082486D01*
X111326679Y-114082487D01*
X111484241Y-114187767D01*
X111618233Y-114321759D01*
X111621471Y-114326605D01*
X111723514Y-114479322D01*
X111732774Y-114501678D01*
X111796032Y-114654397D01*
X111833000Y-114840250D01*
X111833000Y-115029750D01*
X111796032Y-115215603D01*
X111796031Y-115215605D01*
X111723514Y-115390678D01*
X111723513Y-115390679D01*
X111618233Y-115548241D01*
X111484241Y-115682233D01*
X111440042Y-115711766D01*
X111326678Y-115787514D01*
X111191266Y-115843603D01*
X111151603Y-115860032D01*
X110965750Y-115897000D01*
X110776250Y-115897000D01*
X110590397Y-115860032D01*
X110550734Y-115843603D01*
X110415322Y-115787514D01*
X110301958Y-115711766D01*
X110257759Y-115682233D01*
X110123767Y-115548241D01*
X110018487Y-115390679D01*
X110018486Y-115390678D01*
X109945969Y-115215605D01*
X109945968Y-115215603D01*
X109909000Y-115029750D01*
X109909000Y-114840250D01*
X109945968Y-114654397D01*
X110009226Y-114501678D01*
X110018486Y-114479322D01*
X110120529Y-114326605D01*
X110123767Y-114321759D01*
X110257759Y-114187767D01*
X110415321Y-114082487D01*
X110415322Y-114082486D01*
X110590395Y-114009969D01*
X110590394Y-114009969D01*
X110590397Y-114009968D01*
X110776250Y-113973000D01*
X110965750Y-113973000D01*
X111151603Y-114009968D01*
X111151603Y-114009968D01*
G37*
G36*
X190018603Y-113120968D02*
X190018606Y-113120969D01*
X190018605Y-113120969D01*
X190193678Y-113193486D01*
X190193679Y-113193487D01*
X190351241Y-113298767D01*
X190485233Y-113432759D01*
X190538232Y-113512077D01*
X190590514Y-113590322D01*
X190615330Y-113650234D01*
X190663032Y-113765397D01*
X190700000Y-113951250D01*
X190700000Y-114140750D01*
X190663032Y-114326603D01*
X190663031Y-114326605D01*
X190590514Y-114501678D01*
X190590513Y-114501679D01*
X190485233Y-114659241D01*
X190351241Y-114793233D01*
X190303028Y-114825448D01*
X190193678Y-114898514D01*
X190058266Y-114954603D01*
X190018603Y-114971032D01*
X189832750Y-115008000D01*
X189643250Y-115008000D01*
X189457397Y-114971032D01*
X189417734Y-114954603D01*
X189282322Y-114898514D01*
X189172972Y-114825448D01*
X189124759Y-114793233D01*
X188990767Y-114659241D01*
X188885487Y-114501679D01*
X188885486Y-114501678D01*
X188812969Y-114326605D01*
X188812968Y-114326603D01*
X188776000Y-114140750D01*
X188776000Y-113951250D01*
X188812968Y-113765397D01*
X188860670Y-113650234D01*
X188885486Y-113590322D01*
X188937768Y-113512077D01*
X188990767Y-113432759D01*
X189124759Y-113298767D01*
X189282321Y-113193487D01*
X189282322Y-113193486D01*
X189457395Y-113120969D01*
X189457394Y-113120969D01*
X189457397Y-113120968D01*
X189643250Y-113084000D01*
X189832750Y-113084000D01*
X190018603Y-113120968D01*
X190018603Y-113120968D01*
G37*
G36*
X159133182Y-114200500D02*
X159170126Y-114289692D01*
X157876694Y-114825448D01*
X157091810Y-112930571D01*
X157091810Y-112930570D01*
X158385242Y-112394814D01*
X159133182Y-114200500D01*
X159133182Y-114200500D01*
G37*
G36*
X139961190Y-112803570D02*
X139961190Y-112803571D01*
X139407312Y-114140750D01*
X139176306Y-114698448D01*
X137882874Y-114162692D01*
X137891963Y-114140750D01*
X138667758Y-112267814D01*
X139961190Y-112803570D01*
X139961190Y-112803570D01*
G37*
G36*
X104039603Y-111977968D02*
X104039606Y-111977969D01*
X104039605Y-111977969D01*
X104214678Y-112050486D01*
X104214679Y-112050487D01*
X104372241Y-112155767D01*
X104506233Y-112289759D01*
X104509471Y-112294605D01*
X104611514Y-112447322D01*
X104620774Y-112469678D01*
X104684032Y-112622397D01*
X104721000Y-112808250D01*
X104721000Y-112997750D01*
X104684032Y-113183603D01*
X104684031Y-113183605D01*
X104611514Y-113358678D01*
X104611513Y-113358679D01*
X104506233Y-113516241D01*
X104372241Y-113650233D01*
X104292923Y-113703232D01*
X104214678Y-113755514D01*
X104079266Y-113811603D01*
X104039603Y-113828032D01*
X103853750Y-113865000D01*
X103664250Y-113865000D01*
X103478397Y-113828032D01*
X103438734Y-113811603D01*
X103303322Y-113755514D01*
X103225077Y-113703232D01*
X103145759Y-113650233D01*
X103011767Y-113516241D01*
X102906487Y-113358679D01*
X102906486Y-113358678D01*
X102833969Y-113183605D01*
X102833968Y-113183603D01*
X102797000Y-112997750D01*
X102797000Y-112808250D01*
X102833968Y-112622397D01*
X102897226Y-112469678D01*
X102906486Y-112447322D01*
X103008529Y-112294605D01*
X103011767Y-112289759D01*
X103145759Y-112155767D01*
X103303321Y-112050487D01*
X103303322Y-112050486D01*
X103478395Y-111977969D01*
X103478394Y-111977969D01*
X103478397Y-111977968D01*
X103664250Y-111941000D01*
X103853750Y-111941000D01*
X104039603Y-111977968D01*
X104039603Y-111977968D01*
G37*
G36*
X162098641Y-112997749D02*
X162126540Y-113065105D01*
X160833108Y-113600861D01*
X160732793Y-113358679D01*
X160048224Y-111705984D01*
X160048224Y-111705983D01*
X161341656Y-111170227D01*
X162098641Y-112997749D01*
X162098641Y-112997749D01*
G37*
G36*
X137004776Y-111578983D02*
X137004776Y-111578984D01*
X136219892Y-113473861D01*
X134926460Y-112938105D01*
X134929581Y-112930571D01*
X135711344Y-111043227D01*
X137004776Y-111578983D01*
X137004776Y-111578983D01*
G37*
G36*
X196749603Y-111088968D02*
X196749606Y-111088969D01*
X196749605Y-111088969D01*
X196924678Y-111161486D01*
X196981836Y-111199678D01*
X197082241Y-111266767D01*
X197216233Y-111400759D01*
X197216234Y-111400761D01*
X197321514Y-111558322D01*
X197367371Y-111669031D01*
X197394032Y-111733397D01*
X197431000Y-111919250D01*
X197431000Y-112108750D01*
X197394032Y-112294603D01*
X197394031Y-112294605D01*
X197321514Y-112469678D01*
X197321513Y-112469679D01*
X197216233Y-112627241D01*
X197082241Y-112761233D01*
X197018879Y-112803570D01*
X196924678Y-112866514D01*
X196789266Y-112922603D01*
X196749603Y-112939032D01*
X196563750Y-112976000D01*
X196374250Y-112976000D01*
X196188397Y-112939032D01*
X196148734Y-112922603D01*
X196013322Y-112866514D01*
X195919121Y-112803570D01*
X195855759Y-112761233D01*
X195721767Y-112627241D01*
X195616487Y-112469679D01*
X195616486Y-112469678D01*
X195543969Y-112294605D01*
X195543968Y-112294603D01*
X195507000Y-112108750D01*
X195507000Y-111919250D01*
X195543968Y-111733397D01*
X195570629Y-111669031D01*
X195616486Y-111558322D01*
X195721766Y-111400761D01*
X195721767Y-111400759D01*
X195855759Y-111266767D01*
X195956164Y-111199678D01*
X196013322Y-111161486D01*
X196188395Y-111088969D01*
X196188394Y-111088969D01*
X196188397Y-111088968D01*
X196374250Y-111052000D01*
X196563750Y-111052000D01*
X196749603Y-111088968D01*
X196749603Y-111088968D01*
G37*
G36*
X97435603Y-109818968D02*
X97435606Y-109818969D01*
X97435605Y-109818969D01*
X97610678Y-109891486D01*
X97610679Y-109891487D01*
X97768241Y-109996767D01*
X97902233Y-110130759D01*
X97902234Y-110130761D01*
X98007514Y-110288322D01*
X98032330Y-110348234D01*
X98080032Y-110463397D01*
X98117000Y-110649250D01*
X98117000Y-110838750D01*
X98080032Y-111024603D01*
X98080031Y-111024605D01*
X98007514Y-111199678D01*
X98007513Y-111199679D01*
X97902233Y-111357241D01*
X97768241Y-111491233D01*
X97688923Y-111544232D01*
X97610678Y-111596514D01*
X97475266Y-111652603D01*
X97435603Y-111669032D01*
X97249750Y-111706000D01*
X97060250Y-111706000D01*
X96874397Y-111669032D01*
X96834734Y-111652603D01*
X96699322Y-111596514D01*
X96621077Y-111544232D01*
X96541759Y-111491233D01*
X96407767Y-111357241D01*
X96302487Y-111199679D01*
X96302486Y-111199678D01*
X96229969Y-111024605D01*
X96229968Y-111024603D01*
X96193000Y-110838750D01*
X96193000Y-110649250D01*
X96229968Y-110463397D01*
X96277670Y-110348234D01*
X96302486Y-110288322D01*
X96407766Y-110130761D01*
X96407767Y-110130759D01*
X96541759Y-109996767D01*
X96699321Y-109891487D01*
X96699322Y-109891486D01*
X96874395Y-109818969D01*
X96874394Y-109818969D01*
X96874397Y-109818968D01*
X97060250Y-109782000D01*
X97249750Y-109782000D01*
X97435603Y-109818968D01*
X97435603Y-109818968D01*
G37*
G36*
X150890000Y-111097500D02*
X149490000Y-111097500D01*
X149490000Y-109046500D01*
X150890000Y-109046500D01*
X150890000Y-111097500D01*
X150890000Y-111097500D01*
G37*
G36*
X147690000Y-111097500D02*
X146290000Y-111097500D01*
X146290000Y-109046500D01*
X147690000Y-109046500D01*
X147690000Y-111097500D01*
X147690000Y-111097500D01*
G37*
G36*
X203353603Y-108675968D02*
X203353606Y-108675969D01*
X203353605Y-108675969D01*
X203528678Y-108748486D01*
X203528679Y-108748487D01*
X203686241Y-108853767D01*
X203820233Y-108987759D01*
X203820234Y-108987761D01*
X203925514Y-109145322D01*
X203981603Y-109280734D01*
X203998032Y-109320397D01*
X204035000Y-109506250D01*
X204035000Y-109695750D01*
X203998032Y-109881603D01*
X203998031Y-109881605D01*
X203925514Y-110056678D01*
X203925513Y-110056679D01*
X203820233Y-110214241D01*
X203686241Y-110348233D01*
X203606923Y-110401232D01*
X203528678Y-110453514D01*
X203393266Y-110509603D01*
X203353603Y-110526032D01*
X203167750Y-110563000D01*
X202978250Y-110563000D01*
X202792397Y-110526032D01*
X202752734Y-110509603D01*
X202617322Y-110453514D01*
X202539077Y-110401232D01*
X202459759Y-110348233D01*
X202325767Y-110214241D01*
X202220487Y-110056679D01*
X202220486Y-110056678D01*
X202147969Y-109881605D01*
X202147968Y-109881603D01*
X202111000Y-109695750D01*
X202111000Y-109506250D01*
X202147968Y-109320397D01*
X202164397Y-109280734D01*
X202220486Y-109145322D01*
X202325766Y-108987761D01*
X202325767Y-108987759D01*
X202459759Y-108853767D01*
X202617321Y-108748487D01*
X202617322Y-108748486D01*
X202792395Y-108675969D01*
X202792394Y-108675969D01*
X202792397Y-108675968D01*
X202978250Y-108639000D01*
X203167750Y-108639000D01*
X203353603Y-108675968D01*
X203353603Y-108675968D01*
G37*
G36*
X157188761Y-109506251D02*
X157197776Y-109528017D01*
X155904344Y-110063773D01*
X155119460Y-108168896D01*
X155119460Y-108168895D01*
X156412892Y-107633139D01*
X157188761Y-109506251D01*
X157188761Y-109506251D01*
G37*
G36*
X141933540Y-108041895D02*
X141933540Y-108041896D01*
X141148656Y-109936773D01*
X139855224Y-109401017D01*
X139888618Y-109320397D01*
X140640108Y-107506139D01*
X141933540Y-108041895D01*
X141933540Y-108041895D01*
G37*
G36*
X169169956Y-108085748D02*
X168180006Y-109075698D01*
X166729730Y-107625422D01*
X167719680Y-106635472D01*
X169169956Y-108085748D01*
X169169956Y-108085748D01*
G37*
G36*
X90704603Y-107151968D02*
X90704606Y-107151969D01*
X90704605Y-107151969D01*
X90879678Y-107224486D01*
X90879679Y-107224487D01*
X91037241Y-107329767D01*
X91171233Y-107463759D01*
X91224232Y-107543077D01*
X91276514Y-107621322D01*
X91322371Y-107732031D01*
X91349032Y-107796397D01*
X91386000Y-107982250D01*
X91386000Y-108171750D01*
X91349032Y-108357603D01*
X91349031Y-108357605D01*
X91276514Y-108532678D01*
X91276513Y-108532679D01*
X91171233Y-108690241D01*
X91037241Y-108824233D01*
X91014862Y-108839186D01*
X90879678Y-108929514D01*
X90744266Y-108985603D01*
X90704603Y-109002032D01*
X90518750Y-109039000D01*
X90329250Y-109039000D01*
X90143397Y-109002032D01*
X90103734Y-108985603D01*
X89968322Y-108929514D01*
X89833138Y-108839186D01*
X89810759Y-108824233D01*
X89676767Y-108690241D01*
X89571487Y-108532679D01*
X89571486Y-108532678D01*
X89498969Y-108357605D01*
X89498968Y-108357603D01*
X89462000Y-108171750D01*
X89462000Y-107982250D01*
X89498968Y-107796397D01*
X89525629Y-107732031D01*
X89571486Y-107621322D01*
X89623768Y-107543077D01*
X89676767Y-107463759D01*
X89810759Y-107329767D01*
X89968321Y-107224487D01*
X89968322Y-107224486D01*
X90143395Y-107151969D01*
X90143394Y-107151969D01*
X90143397Y-107151968D01*
X90329250Y-107115000D01*
X90518750Y-107115000D01*
X90704603Y-107151968D01*
X90704603Y-107151968D01*
G37*
G36*
X160101585Y-108176429D02*
X160154190Y-108303430D01*
X158860758Y-108839186D01*
X158638840Y-108303429D01*
X158075874Y-106944309D01*
X158075874Y-106944308D01*
X159369306Y-106408552D01*
X160101585Y-108176429D01*
X160101585Y-108176429D01*
G37*
G36*
X130196270Y-107371422D02*
X128745994Y-108821698D01*
X127756044Y-107831748D01*
X129206320Y-106381472D01*
X130196270Y-107371422D01*
X130196270Y-107371422D01*
G37*
G36*
X138977126Y-106817308D02*
X138977126Y-106817309D01*
X138192242Y-108712186D01*
X136898810Y-108176430D01*
X136900749Y-108171750D01*
X137683694Y-106281552D01*
X138977126Y-106817308D01*
X138977126Y-106817308D01*
G37*
G36*
X210084603Y-105881968D02*
X210084606Y-105881969D01*
X210084605Y-105881969D01*
X210259678Y-105954486D01*
X210259679Y-105954487D01*
X210417241Y-106059767D01*
X210551233Y-106193759D01*
X210551234Y-106193761D01*
X210656514Y-106351322D01*
X210669002Y-106381472D01*
X210729032Y-106526397D01*
X210766000Y-106712250D01*
X210766000Y-106901750D01*
X210729032Y-107087603D01*
X210729031Y-107087605D01*
X210656514Y-107262678D01*
X210656513Y-107262679D01*
X210551233Y-107420241D01*
X210417241Y-107554233D01*
X210337923Y-107607232D01*
X210259678Y-107659514D01*
X210124266Y-107715603D01*
X210084603Y-107732032D01*
X209898750Y-107769000D01*
X209709250Y-107769000D01*
X209523397Y-107732032D01*
X209483734Y-107715603D01*
X209348322Y-107659514D01*
X209270077Y-107607232D01*
X209190759Y-107554233D01*
X209056767Y-107420241D01*
X208951487Y-107262679D01*
X208951486Y-107262678D01*
X208878969Y-107087605D01*
X208878968Y-107087603D01*
X208842000Y-106901750D01*
X208842000Y-106712250D01*
X208878968Y-106526397D01*
X208938998Y-106381472D01*
X208951486Y-106351322D01*
X209056766Y-106193761D01*
X209056767Y-106193759D01*
X209190759Y-106059767D01*
X209348321Y-105954487D01*
X209348322Y-105954486D01*
X209523395Y-105881969D01*
X209523394Y-105881969D01*
X209523397Y-105881968D01*
X209709250Y-105845000D01*
X209898750Y-105845000D01*
X210084603Y-105881968D01*
X210084603Y-105881968D01*
G37*
G36*
X105839940Y-104024071D02*
X105858882Y-104039617D01*
X105880493Y-104051168D01*
X105903942Y-104058281D01*
X105928328Y-104060683D01*
X105952714Y-104058281D01*
X105976163Y-104051168D01*
X105997774Y-104039617D01*
X106016706Y-104024080D01*
X106045000Y-103995786D01*
X107459214Y-105410000D01*
X106045000Y-106824214D01*
X104630786Y-105410000D01*
X104659080Y-105381706D01*
X104674616Y-105362775D01*
X104686168Y-105341164D01*
X104693281Y-105317715D01*
X104695683Y-105293329D01*
X104693281Y-105268942D01*
X104686168Y-105245493D01*
X104674617Y-105223882D01*
X104659071Y-105204940D01*
X102996237Y-103542106D01*
X104177106Y-102361237D01*
X105839940Y-104024071D01*
X105839940Y-104024071D01*
G37*
G36*
X171432698Y-105823006D02*
X170442748Y-106812956D01*
X168992472Y-105362680D01*
X169982422Y-104372730D01*
X171432698Y-105823006D01*
X171432698Y-105823006D01*
G37*
G36*
X127933528Y-105108680D02*
X126483252Y-106558956D01*
X125493302Y-105569006D01*
X126943578Y-104118730D01*
X127933528Y-105108680D01*
X127933528Y-105108680D01*
G37*
G36*
X83973603Y-104103968D02*
X83973606Y-104103969D01*
X83973605Y-104103969D01*
X84148678Y-104176486D01*
X84148679Y-104176487D01*
X84306241Y-104281767D01*
X84440233Y-104415759D01*
X84440234Y-104415761D01*
X84545514Y-104573322D01*
X84570330Y-104633234D01*
X84618032Y-104748397D01*
X84655000Y-104934250D01*
X84655000Y-105123750D01*
X84618032Y-105309603D01*
X84618031Y-105309605D01*
X84545514Y-105484678D01*
X84545513Y-105484679D01*
X84440233Y-105642241D01*
X84306241Y-105776233D01*
X84226923Y-105829232D01*
X84148678Y-105881514D01*
X84013266Y-105937603D01*
X83973603Y-105954032D01*
X83787750Y-105991000D01*
X83598250Y-105991000D01*
X83412397Y-105954032D01*
X83372734Y-105937603D01*
X83237322Y-105881514D01*
X83159077Y-105829232D01*
X83079759Y-105776233D01*
X82945767Y-105642241D01*
X82840487Y-105484679D01*
X82840486Y-105484678D01*
X82767969Y-105309605D01*
X82767968Y-105309603D01*
X82731000Y-105123750D01*
X82731000Y-104934250D01*
X82767968Y-104748397D01*
X82815670Y-104633234D01*
X82840486Y-104573322D01*
X82945766Y-104415761D01*
X82945767Y-104415759D01*
X83079759Y-104281767D01*
X83237321Y-104176487D01*
X83237322Y-104176486D01*
X83412395Y-104103969D01*
X83412394Y-104103969D01*
X83412397Y-104103968D01*
X83598250Y-104067000D01*
X83787750Y-104067000D01*
X83973603Y-104103968D01*
X83973603Y-104103968D01*
G37*
G36*
X165525528Y-104441320D02*
X164535578Y-105431270D01*
X163085302Y-103980994D01*
X164075252Y-102991044D01*
X165525528Y-104441320D01*
X165525528Y-104441320D01*
G37*
G36*
X133840698Y-103726994D02*
X132390422Y-105177270D01*
X131400472Y-104187320D01*
X132850748Y-102737044D01*
X133840698Y-103726994D01*
X133840698Y-103726994D01*
G37*
G36*
X216307603Y-102960968D02*
X216307606Y-102960969D01*
X216307605Y-102960969D01*
X216482678Y-103033486D01*
X216482679Y-103033487D01*
X216640241Y-103138767D01*
X216774233Y-103272759D01*
X216774234Y-103272761D01*
X216879514Y-103430322D01*
X216925816Y-103542106D01*
X216952032Y-103605397D01*
X216989000Y-103791250D01*
X216989000Y-103980750D01*
X216952032Y-104166603D01*
X216952031Y-104166605D01*
X216879514Y-104341678D01*
X216879513Y-104341679D01*
X216774233Y-104499241D01*
X216640241Y-104633233D01*
X216560923Y-104686232D01*
X216482678Y-104738514D01*
X216347266Y-104794603D01*
X216307603Y-104811032D01*
X216121750Y-104848000D01*
X215932250Y-104848000D01*
X215746397Y-104811032D01*
X215706734Y-104794603D01*
X215571322Y-104738514D01*
X215493077Y-104686232D01*
X215413759Y-104633233D01*
X215279767Y-104499241D01*
X215174487Y-104341679D01*
X215174486Y-104341678D01*
X215101969Y-104166605D01*
X215101968Y-104166603D01*
X215065000Y-103980750D01*
X215065000Y-103791250D01*
X215101968Y-103605397D01*
X215128184Y-103542106D01*
X215174486Y-103430322D01*
X215279766Y-103272761D01*
X215279767Y-103272759D01*
X215413759Y-103138767D01*
X215571321Y-103033487D01*
X215571322Y-103033486D01*
X215746395Y-102960969D01*
X215746394Y-102960969D01*
X215746397Y-102960968D01*
X215932250Y-102924000D01*
X216121750Y-102924000D01*
X216307603Y-102960968D01*
X216307603Y-102960968D01*
G37*
G36*
X111885194Y-91695819D02*
X112970565Y-91911712D01*
X114162589Y-92405465D01*
X114883563Y-92887205D01*
X114905165Y-92898751D01*
X114912939Y-92901109D01*
X114918092Y-92907388D01*
X114937028Y-92922929D01*
X115235382Y-93122283D01*
X116147717Y-94034618D01*
X116864535Y-95107411D01*
X117358288Y-96299435D01*
X117525971Y-97142437D01*
X117610000Y-97564880D01*
X117610000Y-98855120D01*
X117597446Y-98918233D01*
X117358288Y-100120565D01*
X116864535Y-101312589D01*
X116147717Y-102385382D01*
X115235382Y-103297717D01*
X114162589Y-104014535D01*
X112970565Y-104508288D01*
X111885194Y-104724181D01*
X111705120Y-104760000D01*
X110414880Y-104760000D01*
X110234806Y-104724181D01*
X109149435Y-104508288D01*
X107957411Y-104014535D01*
X106884618Y-103297717D01*
X105972283Y-102385382D01*
X105255465Y-101312589D01*
X104761712Y-100120565D01*
X104522554Y-98918233D01*
X104510000Y-98855120D01*
X104510000Y-97564880D01*
X104594029Y-97142437D01*
X104761712Y-96299435D01*
X105255465Y-95107411D01*
X105972283Y-94034618D01*
X106884618Y-93122283D01*
X107957411Y-92405465D01*
X109149435Y-91911712D01*
X110234806Y-91695819D01*
X110414880Y-91660000D01*
X111705120Y-91660000D01*
X111885194Y-91695819D01*
X111885194Y-91695819D01*
G37*
G36*
X167788270Y-102178578D02*
X166798320Y-103168528D01*
X165348044Y-101718252D01*
X166337994Y-100728302D01*
X167788270Y-102178578D01*
X167788270Y-102178578D01*
G37*
G36*
X100852876Y-99036315D02*
X100852879Y-99036316D01*
X100852880Y-99036316D01*
X101041381Y-99093497D01*
X101041383Y-99093498D01*
X101215106Y-99186355D01*
X101367374Y-99311318D01*
X101492337Y-99463586D01*
X101585194Y-99637309D01*
X101633590Y-99796849D01*
X101642968Y-99819488D01*
X101656582Y-99839862D01*
X101664820Y-99848951D01*
X103705609Y-101889740D01*
X102524740Y-103070609D01*
X100483951Y-101029820D01*
X100465009Y-101014274D01*
X100443398Y-101002723D01*
X100431853Y-100998591D01*
X100272311Y-100950195D01*
X100130671Y-100874487D01*
X100098586Y-100857337D01*
X99946318Y-100732374D01*
X99821355Y-100580106D01*
X99728498Y-100406383D01*
X99671315Y-100217876D01*
X99652008Y-100021846D01*
X99671315Y-99825816D01*
X99671316Y-99825812D01*
X99728497Y-99637311D01*
X99821354Y-99463588D01*
X99821355Y-99463586D01*
X99946318Y-99311318D01*
X100098586Y-99186355D01*
X100272309Y-99093498D01*
X100272311Y-99093497D01*
X100460812Y-99036316D01*
X100460813Y-99036316D01*
X100460816Y-99036315D01*
X100607722Y-99021846D01*
X100705970Y-99021846D01*
X100852876Y-99036315D01*
X100852876Y-99036315D01*
G37*
G36*
X131577956Y-101464252D02*
X130127680Y-102914528D01*
X129137730Y-101924578D01*
X130588006Y-100474302D01*
X131577956Y-101464252D01*
X131577956Y-101464252D01*
G37*
G36*
X77242603Y-100801968D02*
X77282266Y-100818397D01*
X77417678Y-100874486D01*
X77417679Y-100874487D01*
X77575241Y-100979767D01*
X77709233Y-101113759D01*
X77709234Y-101113761D01*
X77814514Y-101271322D01*
X77870603Y-101406734D01*
X77887032Y-101446397D01*
X77924000Y-101632250D01*
X77924000Y-101821750D01*
X77887032Y-102007603D01*
X77887031Y-102007605D01*
X77814514Y-102182678D01*
X77814513Y-102182679D01*
X77709233Y-102340241D01*
X77575241Y-102474233D01*
X77495923Y-102527232D01*
X77417678Y-102579514D01*
X77282266Y-102635603D01*
X77242603Y-102652032D01*
X77056750Y-102689000D01*
X76867250Y-102689000D01*
X76681397Y-102652032D01*
X76641734Y-102635603D01*
X76506322Y-102579514D01*
X76428077Y-102527232D01*
X76348759Y-102474233D01*
X76214767Y-102340241D01*
X76109487Y-102182679D01*
X76109486Y-102182678D01*
X76036969Y-102007605D01*
X76036968Y-102007603D01*
X76000000Y-101821750D01*
X76000000Y-101632250D01*
X76036968Y-101446397D01*
X76053397Y-101406734D01*
X76109486Y-101271322D01*
X76214766Y-101113761D01*
X76214767Y-101113759D01*
X76348759Y-100979767D01*
X76506321Y-100874487D01*
X76506322Y-100874486D01*
X76641734Y-100818397D01*
X76681397Y-100801968D01*
X76867250Y-100765000D01*
X77056750Y-100765000D01*
X77242603Y-100801968D01*
X77242603Y-100801968D01*
G37*
G36*
X222403603Y-99785968D02*
X222403606Y-99785969D01*
X222403605Y-99785969D01*
X222578678Y-99858486D01*
X222578679Y-99858487D01*
X222736241Y-99963767D01*
X222870233Y-100097759D01*
X222923232Y-100177077D01*
X222975514Y-100255322D01*
X223031603Y-100390734D01*
X223048032Y-100430397D01*
X223085000Y-100616250D01*
X223085000Y-100805750D01*
X223048032Y-100991603D01*
X223038641Y-101014274D01*
X222975514Y-101166678D01*
X222975513Y-101166679D01*
X222870233Y-101324241D01*
X222736241Y-101458233D01*
X222727233Y-101464252D01*
X222578678Y-101563514D01*
X222443266Y-101619603D01*
X222403603Y-101636032D01*
X222217750Y-101673000D01*
X222028250Y-101673000D01*
X221842397Y-101636032D01*
X221802734Y-101619603D01*
X221667322Y-101563514D01*
X221518767Y-101464252D01*
X221509759Y-101458233D01*
X221375767Y-101324241D01*
X221270487Y-101166679D01*
X221270486Y-101166678D01*
X221207359Y-101014274D01*
X221197968Y-100991603D01*
X221161000Y-100805750D01*
X221161000Y-100616250D01*
X221197968Y-100430397D01*
X221214397Y-100390734D01*
X221270486Y-100255322D01*
X221322768Y-100177077D01*
X221375767Y-100097759D01*
X221509759Y-99963767D01*
X221667321Y-99858487D01*
X221667322Y-99858486D01*
X221842395Y-99785969D01*
X221842394Y-99785969D01*
X221842397Y-99785968D01*
X222028250Y-99749000D01*
X222217750Y-99749000D01*
X222403603Y-99785968D01*
X222403603Y-99785968D01*
G37*
G36*
X175898701Y-98451603D02*
X175957861Y-98476108D01*
X175422105Y-99769540D01*
X175422104Y-99769540D01*
X173527227Y-98984656D01*
X173579832Y-98857656D01*
X174062983Y-97691224D01*
X174062984Y-97691224D01*
X175898701Y-98451603D01*
X175898701Y-98451603D01*
G37*
G36*
X123241363Y-98784239D02*
X123271773Y-98857656D01*
X121376896Y-99642540D01*
X121376895Y-99642540D01*
X120841139Y-98349108D01*
X121430523Y-98104977D01*
X122736016Y-97564224D01*
X122736017Y-97564224D01*
X123241363Y-98784239D01*
X123241363Y-98784239D01*
G37*
G36*
X70892603Y-97245968D02*
X70892606Y-97245969D01*
X70892605Y-97245969D01*
X71067678Y-97318486D01*
X71145923Y-97370768D01*
X71225241Y-97423767D01*
X71359233Y-97557759D01*
X71380609Y-97589750D01*
X71464514Y-97715322D01*
X71515447Y-97838287D01*
X71537032Y-97890397D01*
X71574000Y-98076250D01*
X71574000Y-98265750D01*
X71537032Y-98451603D01*
X71523406Y-98484500D01*
X71464514Y-98626678D01*
X71464513Y-98626679D01*
X71359233Y-98784241D01*
X71225241Y-98918233D01*
X71145923Y-98971232D01*
X71067678Y-99023514D01*
X70932266Y-99079603D01*
X70892603Y-99096032D01*
X70706750Y-99133000D01*
X70517250Y-99133000D01*
X70331397Y-99096032D01*
X70291734Y-99079603D01*
X70156322Y-99023514D01*
X70078077Y-98971232D01*
X69998759Y-98918233D01*
X69864767Y-98784241D01*
X69759487Y-98626679D01*
X69759486Y-98626678D01*
X69700594Y-98484500D01*
X69686968Y-98451603D01*
X69650000Y-98265750D01*
X69650000Y-98076250D01*
X69686968Y-97890397D01*
X69708553Y-97838287D01*
X69759486Y-97715322D01*
X69843391Y-97589750D01*
X69864767Y-97557759D01*
X69998759Y-97423767D01*
X70078077Y-97370768D01*
X70156322Y-97318486D01*
X70331395Y-97245969D01*
X70331394Y-97245969D01*
X70331397Y-97245968D01*
X70517250Y-97209000D01*
X70706750Y-97209000D01*
X70892603Y-97245968D01*
X70892603Y-97245968D01*
G37*
G36*
X215454984Y-95304747D02*
X215633872Y-95340330D01*
X215943252Y-95468479D01*
X216221687Y-95654523D01*
X216458477Y-95891313D01*
X216644521Y-96169748D01*
X216706062Y-96318322D01*
X216772670Y-96479129D01*
X216838000Y-96807563D01*
X216838000Y-97142437D01*
X216820646Y-97229679D01*
X216772670Y-97470872D01*
X216644521Y-97780252D01*
X216458477Y-98058687D01*
X216221687Y-98295477D01*
X215943252Y-98481521D01*
X215633872Y-98609670D01*
X215548367Y-98626678D01*
X215305437Y-98675000D01*
X214970563Y-98675000D01*
X214727633Y-98626678D01*
X214642128Y-98609670D01*
X214332748Y-98481521D01*
X214054313Y-98295477D01*
X213817523Y-98058687D01*
X213631479Y-97780252D01*
X213503330Y-97470872D01*
X213455354Y-97229679D01*
X213438000Y-97142437D01*
X213438000Y-96807563D01*
X213503330Y-96479129D01*
X213569938Y-96318322D01*
X213631479Y-96169748D01*
X213817523Y-95891313D01*
X214054313Y-95654523D01*
X214332748Y-95468479D01*
X214642128Y-95340330D01*
X214821016Y-95304747D01*
X214970563Y-95275000D01*
X215305437Y-95275000D01*
X215454984Y-95304747D01*
X215454984Y-95304747D01*
G37*
G36*
X83253893Y-95128053D02*
X83363372Y-95149830D01*
X83672752Y-95277979D01*
X83951187Y-95464023D01*
X84187977Y-95700813D01*
X84374021Y-95979248D01*
X84502170Y-96288628D01*
X84504320Y-96299436D01*
X84567500Y-96617063D01*
X84567500Y-96951937D01*
X84547078Y-97054603D01*
X84502170Y-97280372D01*
X84374021Y-97589752D01*
X84187977Y-97868187D01*
X83951187Y-98104977D01*
X83672752Y-98291021D01*
X83363372Y-98419170D01*
X83253893Y-98440947D01*
X83034937Y-98484500D01*
X82700063Y-98484500D01*
X82481107Y-98440947D01*
X82371628Y-98419170D01*
X82062248Y-98291021D01*
X81783813Y-98104977D01*
X81547023Y-97868187D01*
X81360979Y-97589752D01*
X81232830Y-97280372D01*
X81187922Y-97054603D01*
X81167500Y-96951937D01*
X81167500Y-96617063D01*
X81230680Y-96299436D01*
X81232830Y-96288628D01*
X81360979Y-95979248D01*
X81547023Y-95700813D01*
X81783813Y-95464023D01*
X82062248Y-95277979D01*
X82371628Y-95149830D01*
X82481107Y-95128053D01*
X82700063Y-95084500D01*
X83034937Y-95084500D01*
X83253893Y-95128053D01*
X83253893Y-95128053D01*
G37*
G36*
X99097202Y-85002349D02*
X100300565Y-85241712D01*
X101492589Y-85735465D01*
X102565382Y-86452283D01*
X103477717Y-87364618D01*
X104194535Y-88437411D01*
X104688288Y-89629435D01*
X104940000Y-90894881D01*
X104940000Y-92185119D01*
X104688288Y-93450565D01*
X104194535Y-94642589D01*
X103477717Y-95715382D01*
X102565382Y-96627717D01*
X101492589Y-97344535D01*
X100300565Y-97838288D01*
X99215194Y-98054181D01*
X99035120Y-98090000D01*
X97744880Y-98090000D01*
X97564806Y-98054181D01*
X96479435Y-97838288D01*
X95287411Y-97344535D01*
X94214618Y-96627717D01*
X93302283Y-95715382D01*
X92585465Y-94642589D01*
X92091712Y-93450565D01*
X91840000Y-92185119D01*
X91840000Y-90894881D01*
X92091712Y-89629435D01*
X92585465Y-88437411D01*
X93302283Y-87364618D01*
X94214618Y-86452283D01*
X95287411Y-85735465D01*
X96479435Y-85241712D01*
X97682798Y-85002349D01*
X97744880Y-84990000D01*
X99035120Y-84990000D01*
X99097202Y-85002349D01*
X99097202Y-85002349D01*
G37*
G36*
X190484000Y-98028000D02*
X188484000Y-98028000D01*
X188484000Y-96028000D01*
X190484000Y-96028000D01*
X190484000Y-98028000D01*
X190484000Y-98028000D01*
G37*
G36*
X171171172Y-96493397D02*
X171196186Y-96503758D01*
X170660430Y-97797190D01*
X170660429Y-97797190D01*
X168765552Y-97012306D01*
X168924854Y-96627717D01*
X169301308Y-95718874D01*
X169301309Y-95718874D01*
X171171172Y-96493397D01*
X171171172Y-96493397D01*
G37*
G36*
X229134603Y-95848968D02*
X229134606Y-95848969D01*
X229134605Y-95848969D01*
X229309678Y-95921486D01*
X229309679Y-95921487D01*
X229467241Y-96026767D01*
X229601233Y-96160759D01*
X229654232Y-96240077D01*
X229706514Y-96318322D01*
X229762603Y-96453734D01*
X229779032Y-96493397D01*
X229816000Y-96679250D01*
X229816000Y-96868750D01*
X229779032Y-97054603D01*
X229779031Y-97054605D01*
X229706514Y-97229678D01*
X229672642Y-97280371D01*
X229601233Y-97387241D01*
X229467241Y-97521233D01*
X229412576Y-97557759D01*
X229309678Y-97626514D01*
X229204234Y-97670190D01*
X229134603Y-97699032D01*
X228948750Y-97736000D01*
X228759250Y-97736000D01*
X228573397Y-97699032D01*
X228503766Y-97670190D01*
X228398322Y-97626514D01*
X228295424Y-97557759D01*
X228240759Y-97521233D01*
X228106767Y-97387241D01*
X228035358Y-97280371D01*
X228001486Y-97229678D01*
X227928969Y-97054605D01*
X227928968Y-97054603D01*
X227892000Y-96868750D01*
X227892000Y-96679250D01*
X227928968Y-96493397D01*
X227945397Y-96453734D01*
X228001486Y-96318322D01*
X228053768Y-96240077D01*
X228106767Y-96160759D01*
X228240759Y-96026767D01*
X228398321Y-95921487D01*
X228398322Y-95921486D01*
X228573395Y-95848969D01*
X228573394Y-95848969D01*
X228573397Y-95848968D01*
X228759250Y-95812000D01*
X228948750Y-95812000D01*
X229134603Y-95848968D01*
X229134603Y-95848968D01*
G37*
G36*
X127926751Y-96627717D02*
X128033448Y-96885306D01*
X126138571Y-97670190D01*
X126138570Y-97670190D01*
X125602814Y-96376758D01*
X125815579Y-96288628D01*
X127497691Y-95591874D01*
X127497692Y-95591874D01*
X127926751Y-96627717D01*
X127926751Y-96627717D01*
G37*
G36*
X176663520Y-95304747D02*
X177182448Y-95519694D01*
X176646692Y-96813126D01*
X176646691Y-96813126D01*
X174751814Y-96028242D01*
X174881405Y-95715382D01*
X175287570Y-94734810D01*
X175287571Y-94734810D01*
X176663520Y-95304747D01*
X176663520Y-95304747D01*
G37*
G36*
X121889144Y-95519694D02*
X122047186Y-95901242D01*
X120152309Y-96686126D01*
X120152308Y-96686126D01*
X119616552Y-95392694D01*
X119828875Y-95304747D01*
X121511429Y-94607810D01*
X121511430Y-94607810D01*
X121889144Y-95519694D01*
X121889144Y-95519694D01*
G37*
G36*
X189659770Y-93543372D02*
X189775689Y-93566429D01*
X189957678Y-93641811D01*
X190121463Y-93751249D01*
X190260751Y-93890537D01*
X190370189Y-94054322D01*
X190445571Y-94236311D01*
X190463958Y-94328749D01*
X190484000Y-94429507D01*
X190484000Y-94626493D01*
X190471431Y-94689679D01*
X190445571Y-94819689D01*
X190370189Y-95001678D01*
X190260751Y-95165463D01*
X190121463Y-95304751D01*
X189957678Y-95414189D01*
X189775689Y-95489571D01*
X189659770Y-95512628D01*
X189582493Y-95528000D01*
X189385507Y-95528000D01*
X189308230Y-95512628D01*
X189192311Y-95489571D01*
X189010322Y-95414189D01*
X188846537Y-95304751D01*
X188707249Y-95165463D01*
X188597811Y-95001678D01*
X188522429Y-94819689D01*
X188496569Y-94689679D01*
X188484000Y-94626493D01*
X188484000Y-94429507D01*
X188504042Y-94328749D01*
X188522429Y-94236311D01*
X188597811Y-94054322D01*
X188707249Y-93890537D01*
X188846537Y-93751249D01*
X189010322Y-93641811D01*
X189192311Y-93566429D01*
X189308230Y-93543372D01*
X189385507Y-93528000D01*
X189582493Y-93528000D01*
X189659770Y-93543372D01*
X189659770Y-93543372D01*
G37*
G36*
X64542603Y-93308968D02*
X64542606Y-93308969D01*
X64542605Y-93308969D01*
X64717678Y-93381486D01*
X64717679Y-93381487D01*
X64875241Y-93486767D01*
X65009233Y-93620759D01*
X65062232Y-93700077D01*
X65114514Y-93778322D01*
X65170603Y-93913734D01*
X65187032Y-93953397D01*
X65224000Y-94139250D01*
X65224000Y-94328750D01*
X65187032Y-94514603D01*
X65187031Y-94514605D01*
X65114514Y-94689678D01*
X65114513Y-94689679D01*
X65009233Y-94847241D01*
X64875241Y-94981233D01*
X64844643Y-95001678D01*
X64717678Y-95086514D01*
X64582266Y-95142603D01*
X64542603Y-95159032D01*
X64356750Y-95196000D01*
X64167250Y-95196000D01*
X63981397Y-95159032D01*
X63941734Y-95142603D01*
X63806322Y-95086514D01*
X63679357Y-95001678D01*
X63648759Y-94981233D01*
X63514767Y-94847241D01*
X63409487Y-94689679D01*
X63409486Y-94689678D01*
X63336969Y-94514605D01*
X63336968Y-94514603D01*
X63300000Y-94328750D01*
X63300000Y-94139250D01*
X63336968Y-93953397D01*
X63353397Y-93913734D01*
X63409486Y-93778322D01*
X63461768Y-93700077D01*
X63514767Y-93620759D01*
X63648759Y-93486767D01*
X63806321Y-93381487D01*
X63806322Y-93381486D01*
X63981395Y-93308969D01*
X63981394Y-93308969D01*
X63981397Y-93308968D01*
X64167250Y-93272000D01*
X64356750Y-93272000D01*
X64542603Y-93308968D01*
X64542603Y-93308968D01*
G37*
G36*
X171845285Y-93308969D02*
X172420773Y-93547344D01*
X171885017Y-94840776D01*
X171885016Y-94840776D01*
X169990139Y-94055892D01*
X170058631Y-93890537D01*
X170525895Y-92762460D01*
X170525896Y-92762460D01*
X171845285Y-93308969D01*
X171845285Y-93308969D01*
G37*
G36*
X126746493Y-93778322D02*
X126808861Y-93928892D01*
X124913984Y-94713776D01*
X124913983Y-94713776D01*
X124378227Y-93420344D01*
X124472036Y-93381487D01*
X126273104Y-92635460D01*
X126273105Y-92635460D01*
X126746493Y-93778322D01*
X126746493Y-93778322D01*
G37*
G36*
X116913000Y-90569000D02*
X116915402Y-90593386D01*
X116922515Y-90616835D01*
X116934066Y-90638446D01*
X116949612Y-90657388D01*
X116968554Y-90672934D01*
X116990165Y-90684485D01*
X117013614Y-90691598D01*
X117038000Y-90694000D01*
X117078000Y-90694000D01*
X117078000Y-92694000D01*
X115078000Y-92694000D01*
X115078000Y-90694000D01*
X115118000Y-90694000D01*
X115142386Y-90691598D01*
X115165835Y-90684485D01*
X115187446Y-90672934D01*
X115206388Y-90657388D01*
X115221934Y-90638446D01*
X115233485Y-90616835D01*
X115240598Y-90593386D01*
X115243000Y-90569000D01*
X115243000Y-88217400D01*
X116913000Y-88217400D01*
X116913000Y-90569000D01*
X116913000Y-90569000D01*
G37*
G36*
X86503661Y-78305514D02*
X87590565Y-78521712D01*
X88782589Y-79015465D01*
X89855382Y-79732283D01*
X90767717Y-80644618D01*
X91484535Y-81717411D01*
X91978288Y-82909435D01*
X92170940Y-83877966D01*
X92207000Y-84059249D01*
X92230000Y-84174881D01*
X92230000Y-85465119D01*
X91978288Y-86730565D01*
X91484535Y-87922589D01*
X90767717Y-88995382D01*
X89855382Y-89907717D01*
X88782589Y-90624535D01*
X87590565Y-91118288D01*
X86505194Y-91334181D01*
X86325120Y-91370000D01*
X85034880Y-91370000D01*
X84854806Y-91334181D01*
X83769435Y-91118288D01*
X82577411Y-90624535D01*
X81504618Y-89907717D01*
X80592283Y-88995382D01*
X79875465Y-87922589D01*
X79381712Y-86730565D01*
X79130000Y-85465119D01*
X79130000Y-84174881D01*
X79153001Y-84059249D01*
X79189060Y-83877966D01*
X79381712Y-82909435D01*
X79875465Y-81717411D01*
X80592283Y-80644618D01*
X81504618Y-79732283D01*
X82577411Y-79015465D01*
X83769435Y-78521712D01*
X84856339Y-78305514D01*
X85034880Y-78270000D01*
X86325120Y-78270000D01*
X86503661Y-78305514D01*
X86503661Y-78305514D01*
G37*
G36*
X197787770Y-87915372D02*
X197903689Y-87938429D01*
X198085678Y-88013811D01*
X198249463Y-88123249D01*
X198388751Y-88262537D01*
X198498189Y-88426322D01*
X198573571Y-88608311D01*
X198612000Y-88801509D01*
X198612000Y-88998491D01*
X198573571Y-89191689D01*
X198498189Y-89373678D01*
X198388751Y-89537463D01*
X198249463Y-89676751D01*
X198085678Y-89786189D01*
X197903689Y-89861571D01*
X197787770Y-89884628D01*
X197710493Y-89900000D01*
X197513507Y-89900000D01*
X197436230Y-89884628D01*
X197320311Y-89861571D01*
X197138322Y-89786189D01*
X196974537Y-89676751D01*
X196835249Y-89537463D01*
X196725811Y-89373678D01*
X196650429Y-89191689D01*
X196612000Y-88998491D01*
X196612000Y-88801509D01*
X196650429Y-88608311D01*
X196725811Y-88426322D01*
X196835249Y-88262537D01*
X196974537Y-88123249D01*
X197138322Y-88013811D01*
X197320311Y-87938429D01*
X197436230Y-87915372D01*
X197513507Y-87900000D01*
X197710493Y-87900000D01*
X197787770Y-87915372D01*
X197787770Y-87915372D01*
G37*
G36*
X192787770Y-87915372D02*
X192903689Y-87938429D01*
X193085678Y-88013811D01*
X193249463Y-88123249D01*
X193388751Y-88262537D01*
X193498189Y-88426322D01*
X193573571Y-88608311D01*
X193612000Y-88801509D01*
X193612000Y-88998491D01*
X193573571Y-89191689D01*
X193498189Y-89373678D01*
X193388751Y-89537463D01*
X193249463Y-89676751D01*
X193085678Y-89786189D01*
X192903689Y-89861571D01*
X192787770Y-89884628D01*
X192710493Y-89900000D01*
X192513507Y-89900000D01*
X192436230Y-89884628D01*
X192320311Y-89861571D01*
X192138322Y-89786189D01*
X191974537Y-89676751D01*
X191835249Y-89537463D01*
X191725811Y-89373678D01*
X191650429Y-89191689D01*
X191612000Y-88998491D01*
X191612000Y-88801509D01*
X191650429Y-88608311D01*
X191725811Y-88426322D01*
X191835249Y-88262537D01*
X191974537Y-88123249D01*
X192138322Y-88013811D01*
X192320311Y-87938429D01*
X192436230Y-87915372D01*
X192513507Y-87900000D01*
X192710493Y-87900000D01*
X192787770Y-87915372D01*
X192787770Y-87915372D01*
G37*
G36*
X190254521Y-88034586D02*
X190418309Y-88102429D01*
X190565720Y-88200926D01*
X190691074Y-88326280D01*
X190789571Y-88473691D01*
X190857414Y-88637479D01*
X190892000Y-88811356D01*
X190892000Y-88988644D01*
X190857414Y-89162521D01*
X190789571Y-89326309D01*
X190691074Y-89473720D01*
X190565720Y-89599074D01*
X190418309Y-89697571D01*
X190254521Y-89765414D01*
X190080644Y-89800000D01*
X189903356Y-89800000D01*
X189729479Y-89765414D01*
X189565691Y-89697571D01*
X189418280Y-89599074D01*
X189292926Y-89473720D01*
X189194429Y-89326309D01*
X189126586Y-89162521D01*
X189092000Y-88988644D01*
X189092000Y-88811356D01*
X189126586Y-88637479D01*
X189194429Y-88473691D01*
X189292926Y-88326280D01*
X189418280Y-88200926D01*
X189565691Y-88102429D01*
X189729479Y-88034586D01*
X189903356Y-88000000D01*
X190080644Y-88000000D01*
X190254521Y-88034586D01*
X190254521Y-88034586D01*
G37*
G36*
X182548432Y-88013022D02*
X182718081Y-88064485D01*
X182874433Y-88148056D01*
X183011475Y-88260525D01*
X183123944Y-88397567D01*
X183207515Y-88553919D01*
X183258978Y-88723568D01*
X183276354Y-88900000D01*
X183258978Y-89076432D01*
X183207515Y-89246081D01*
X183123944Y-89402433D01*
X183011475Y-89539475D01*
X182874433Y-89651944D01*
X182718081Y-89735515D01*
X182548432Y-89786978D01*
X182416211Y-89800000D01*
X182327789Y-89800000D01*
X182195568Y-89786978D01*
X182025919Y-89735515D01*
X181869567Y-89651944D01*
X181732525Y-89539475D01*
X181620056Y-89402433D01*
X181536485Y-89246081D01*
X181485022Y-89076432D01*
X181467646Y-88900000D01*
X181485022Y-88723568D01*
X181536485Y-88553919D01*
X181620056Y-88397567D01*
X181732525Y-88260525D01*
X181869567Y-88148056D01*
X182025919Y-88064485D01*
X182195568Y-88013022D01*
X182327789Y-88000000D01*
X182416211Y-88000000D01*
X182548432Y-88013022D01*
X182548432Y-88013022D01*
G37*
G36*
X173454500Y-88406000D02*
X171403500Y-88406000D01*
X171403500Y-87006000D01*
X173454500Y-87006000D01*
X173454500Y-88406000D01*
X173454500Y-88406000D01*
G37*
G36*
X178608500Y-88406000D02*
X176557500Y-88406000D01*
X176557500Y-87006000D01*
X178608500Y-87006000D01*
X178608500Y-88406000D01*
X178608500Y-88406000D01*
G37*
G36*
X120622500Y-88279000D02*
X118571500Y-88279000D01*
X118571500Y-86879000D01*
X120622500Y-86879000D01*
X120622500Y-88279000D01*
X120622500Y-88279000D01*
G37*
G36*
X125776500Y-88279000D02*
X123725500Y-88279000D01*
X123725500Y-86879000D01*
X125776500Y-86879000D01*
X125776500Y-88279000D01*
X125776500Y-88279000D01*
G37*
G36*
X116274030Y-83088469D02*
X116274033Y-83088470D01*
X116274034Y-83088470D01*
X116462535Y-83145651D01*
X116462537Y-83145652D01*
X116636260Y-83238509D01*
X116788528Y-83363472D01*
X116913491Y-83515740D01*
X117006348Y-83689463D01*
X117063531Y-83877970D01*
X117082838Y-84074000D01*
X117063531Y-84270030D01*
X117063530Y-84270033D01*
X117063530Y-84270034D01*
X117006569Y-84457811D01*
X117006348Y-84458537D01*
X116927760Y-84605565D01*
X116918382Y-84628204D01*
X116913602Y-84652238D01*
X116913000Y-84664490D01*
X116913000Y-87550600D01*
X115243000Y-87550600D01*
X115243000Y-84664490D01*
X115240598Y-84640104D01*
X115233485Y-84616655D01*
X115228240Y-84605565D01*
X115149652Y-84458537D01*
X115149432Y-84457811D01*
X115092470Y-84270034D01*
X115092470Y-84270033D01*
X115092469Y-84270030D01*
X115073162Y-84074000D01*
X115092469Y-83877970D01*
X115149652Y-83689463D01*
X115242509Y-83515740D01*
X115367472Y-83363472D01*
X115519740Y-83238509D01*
X115693463Y-83145652D01*
X115693465Y-83145651D01*
X115881966Y-83088470D01*
X115881967Y-83088470D01*
X115881970Y-83088469D01*
X116028876Y-83074000D01*
X116127124Y-83074000D01*
X116274030Y-83088469D01*
X116274030Y-83088469D01*
G37*
G36*
X192787770Y-84359372D02*
X192903689Y-84382429D01*
X193085678Y-84457811D01*
X193249463Y-84567249D01*
X193388751Y-84706537D01*
X193498189Y-84870322D01*
X193573571Y-85052311D01*
X193588564Y-85127686D01*
X193612000Y-85245507D01*
X193612000Y-85442493D01*
X193605839Y-85473466D01*
X193573571Y-85635689D01*
X193498189Y-85817678D01*
X193388751Y-85981463D01*
X193249463Y-86120751D01*
X193085678Y-86230189D01*
X192903689Y-86305571D01*
X192787770Y-86328628D01*
X192710493Y-86344000D01*
X192513507Y-86344000D01*
X192436230Y-86328628D01*
X192320311Y-86305571D01*
X192138322Y-86230189D01*
X191974537Y-86120751D01*
X191835249Y-85981463D01*
X191725811Y-85817678D01*
X191650429Y-85635689D01*
X191618161Y-85473466D01*
X191612000Y-85442493D01*
X191612000Y-85245507D01*
X191635436Y-85127686D01*
X191650429Y-85052311D01*
X191725811Y-84870322D01*
X191835249Y-84706537D01*
X191974537Y-84567249D01*
X192138322Y-84457811D01*
X192320311Y-84382429D01*
X192436230Y-84359372D01*
X192513507Y-84344000D01*
X192710493Y-84344000D01*
X192787770Y-84359372D01*
X192787770Y-84359372D01*
G37*
G36*
X197787770Y-84359372D02*
X197903689Y-84382429D01*
X198085678Y-84457811D01*
X198249463Y-84567249D01*
X198388751Y-84706537D01*
X198498189Y-84870322D01*
X198573571Y-85052311D01*
X198588564Y-85127686D01*
X198612000Y-85245507D01*
X198612000Y-85442493D01*
X198605839Y-85473466D01*
X198573571Y-85635689D01*
X198498189Y-85817678D01*
X198388751Y-85981463D01*
X198249463Y-86120751D01*
X198085678Y-86230189D01*
X197903689Y-86305571D01*
X197787770Y-86328628D01*
X197710493Y-86344000D01*
X197513507Y-86344000D01*
X197436230Y-86328628D01*
X197320311Y-86305571D01*
X197138322Y-86230189D01*
X196974537Y-86120751D01*
X196835249Y-85981463D01*
X196725811Y-85817678D01*
X196650429Y-85635689D01*
X196618161Y-85473466D01*
X196612000Y-85442493D01*
X196612000Y-85245507D01*
X196635436Y-85127686D01*
X196650429Y-85052311D01*
X196725811Y-84870322D01*
X196835249Y-84706537D01*
X196974537Y-84567249D01*
X197138322Y-84457811D01*
X197320311Y-84382429D01*
X197436230Y-84359372D01*
X197513507Y-84344000D01*
X197710493Y-84344000D01*
X197787770Y-84359372D01*
X197787770Y-84359372D01*
G37*
G36*
X183563770Y-83851372D02*
X183679689Y-83874429D01*
X183861678Y-83949811D01*
X184025463Y-84059249D01*
X184164751Y-84198537D01*
X184274189Y-84362322D01*
X184349571Y-84544311D01*
X184368625Y-84640104D01*
X184381840Y-84706537D01*
X184388000Y-84737509D01*
X184388000Y-84934491D01*
X184349571Y-85127689D01*
X184274189Y-85309678D01*
X184164751Y-85473463D01*
X184025463Y-85612751D01*
X183861678Y-85722189D01*
X183679689Y-85797571D01*
X183578618Y-85817675D01*
X183486493Y-85836000D01*
X183289507Y-85836000D01*
X183197382Y-85817675D01*
X183096311Y-85797571D01*
X182914322Y-85722189D01*
X182750537Y-85612751D01*
X182611249Y-85473463D01*
X182501811Y-85309678D01*
X182426429Y-85127689D01*
X182388000Y-84934491D01*
X182388000Y-84737509D01*
X182394161Y-84706537D01*
X182407375Y-84640104D01*
X182426429Y-84544311D01*
X182501811Y-84362322D01*
X182611249Y-84198537D01*
X182750537Y-84059249D01*
X182914322Y-83949811D01*
X183096311Y-83874429D01*
X183212230Y-83851372D01*
X183289507Y-83836000D01*
X183486493Y-83836000D01*
X183563770Y-83851372D01*
X183563770Y-83851372D01*
G37*
G36*
X188563770Y-83851372D02*
X188679689Y-83874429D01*
X188861678Y-83949811D01*
X189025463Y-84059249D01*
X189164751Y-84198537D01*
X189274189Y-84362322D01*
X189349571Y-84544311D01*
X189368625Y-84640104D01*
X189381840Y-84706537D01*
X189388000Y-84737509D01*
X189388000Y-84934491D01*
X189349571Y-85127689D01*
X189274189Y-85309678D01*
X189164751Y-85473463D01*
X189025463Y-85612751D01*
X188861678Y-85722189D01*
X188679689Y-85797571D01*
X188578618Y-85817675D01*
X188486493Y-85836000D01*
X188289507Y-85836000D01*
X188197382Y-85817675D01*
X188096311Y-85797571D01*
X187914322Y-85722189D01*
X187750537Y-85612751D01*
X187611249Y-85473463D01*
X187501811Y-85309678D01*
X187426429Y-85127689D01*
X187388000Y-84934491D01*
X187388000Y-84737509D01*
X187394161Y-84706537D01*
X187407375Y-84640104D01*
X187426429Y-84544311D01*
X187501811Y-84362322D01*
X187611249Y-84198537D01*
X187750537Y-84059249D01*
X187914322Y-83949811D01*
X188096311Y-83874429D01*
X188212230Y-83851372D01*
X188289507Y-83836000D01*
X188486493Y-83836000D01*
X188563770Y-83851372D01*
X188563770Y-83851372D01*
G37*
G36*
X178608500Y-85206000D02*
X176557500Y-85206000D01*
X176557500Y-83806000D01*
X178608500Y-83806000D01*
X178608500Y-85206000D01*
X178608500Y-85206000D01*
G37*
G36*
X173454500Y-85206000D02*
X171403500Y-85206000D01*
X171403500Y-83806000D01*
X173454500Y-83806000D01*
X173454500Y-85206000D01*
X173454500Y-85206000D01*
G37*
G36*
X125776500Y-85079000D02*
X123725500Y-85079000D01*
X123725500Y-83679000D01*
X125776500Y-83679000D01*
X125776500Y-85079000D01*
X125776500Y-85079000D01*
G37*
G36*
X120622500Y-85079000D02*
X118571500Y-85079000D01*
X118571500Y-83679000D01*
X120622500Y-83679000D01*
X120622500Y-85079000D01*
X120622500Y-85079000D01*
G37*
G36*
X73805194Y-71605819D02*
X74890565Y-71821712D01*
X76082589Y-72315465D01*
X77155382Y-73032283D01*
X78067717Y-73944618D01*
X78784535Y-75017411D01*
X79278288Y-76209435D01*
X79476811Y-77207479D01*
X79530000Y-77474880D01*
X79530000Y-78765120D01*
X79515405Y-78838493D01*
X79278288Y-80030565D01*
X78784535Y-81222589D01*
X78067717Y-82295382D01*
X77155382Y-83207717D01*
X76082589Y-83924535D01*
X74890565Y-84418288D01*
X73893303Y-84616655D01*
X73625120Y-84670000D01*
X72334880Y-84670000D01*
X72066697Y-84616655D01*
X71069435Y-84418288D01*
X69877411Y-83924535D01*
X68804618Y-83207717D01*
X67892283Y-82295382D01*
X67175465Y-81222589D01*
X66681712Y-80030565D01*
X66444595Y-78838493D01*
X66430000Y-78765120D01*
X66430000Y-77474880D01*
X66483189Y-77207479D01*
X66681712Y-76209435D01*
X67175465Y-75017411D01*
X67892283Y-73944618D01*
X68804618Y-73032283D01*
X69877411Y-72315465D01*
X71069435Y-71821712D01*
X72154806Y-71605819D01*
X72334880Y-71570000D01*
X73625120Y-71570000D01*
X73805194Y-71605819D01*
X73805194Y-71605819D01*
G37*
G36*
X197138000Y-82838000D02*
X195038000Y-82838000D01*
X195038000Y-80738000D01*
X197138000Y-80738000D01*
X197138000Y-82838000D01*
X197138000Y-82838000D01*
G37*
G36*
X193676707Y-80745597D02*
X193753836Y-80753193D01*
X193885787Y-80793220D01*
X193951763Y-80813233D01*
X194134172Y-80910733D01*
X194294054Y-81041946D01*
X194425267Y-81201828D01*
X194522767Y-81384237D01*
X194522767Y-81384238D01*
X194582807Y-81582164D01*
X194603080Y-81788000D01*
X194582807Y-81993836D01*
X194542780Y-82125787D01*
X194522767Y-82191763D01*
X194425267Y-82374172D01*
X194294054Y-82534054D01*
X194134172Y-82665267D01*
X193951763Y-82762767D01*
X193885787Y-82782780D01*
X193753836Y-82822807D01*
X193676707Y-82830403D01*
X193599580Y-82838000D01*
X193496420Y-82838000D01*
X193419293Y-82830403D01*
X193342164Y-82822807D01*
X193210213Y-82782780D01*
X193144237Y-82762767D01*
X192961828Y-82665267D01*
X192801946Y-82534054D01*
X192670733Y-82374172D01*
X192573233Y-82191763D01*
X192553220Y-82125787D01*
X192513193Y-81993836D01*
X192492920Y-81788000D01*
X192513193Y-81582164D01*
X192573233Y-81384238D01*
X192573233Y-81384237D01*
X192670733Y-81201828D01*
X192801946Y-81041946D01*
X192961828Y-80910733D01*
X193144237Y-80813233D01*
X193210213Y-80793220D01*
X193342164Y-80753193D01*
X193419293Y-80745597D01*
X193496420Y-80738000D01*
X193599580Y-80738000D01*
X193676707Y-80745597D01*
X193676707Y-80745597D01*
G37*
G36*
X191136707Y-80745597D02*
X191213836Y-80753193D01*
X191345787Y-80793220D01*
X191411763Y-80813233D01*
X191594172Y-80910733D01*
X191754054Y-81041946D01*
X191885267Y-81201828D01*
X191982767Y-81384237D01*
X191982767Y-81384238D01*
X192042807Y-81582164D01*
X192063080Y-81788000D01*
X192042807Y-81993836D01*
X192002780Y-82125787D01*
X191982767Y-82191763D01*
X191885267Y-82374172D01*
X191754054Y-82534054D01*
X191594172Y-82665267D01*
X191411763Y-82762767D01*
X191345787Y-82782780D01*
X191213836Y-82822807D01*
X191136707Y-82830403D01*
X191059580Y-82838000D01*
X190956420Y-82838000D01*
X190879293Y-82830403D01*
X190802164Y-82822807D01*
X190670213Y-82782780D01*
X190604237Y-82762767D01*
X190421828Y-82665267D01*
X190261946Y-82534054D01*
X190130733Y-82374172D01*
X190033233Y-82191763D01*
X190013220Y-82125787D01*
X189973193Y-81993836D01*
X189952920Y-81788000D01*
X189973193Y-81582164D01*
X190033233Y-81384238D01*
X190033233Y-81384237D01*
X190130733Y-81201828D01*
X190261946Y-81041946D01*
X190421828Y-80910733D01*
X190604237Y-80813233D01*
X190670213Y-80793220D01*
X190802164Y-80753193D01*
X190879293Y-80745597D01*
X190956420Y-80738000D01*
X191059580Y-80738000D01*
X191136707Y-80745597D01*
X191136707Y-80745597D01*
G37*
G36*
X188596707Y-80745597D02*
X188673836Y-80753193D01*
X188805787Y-80793220D01*
X188871763Y-80813233D01*
X189054172Y-80910733D01*
X189214054Y-81041946D01*
X189345267Y-81201828D01*
X189442767Y-81384237D01*
X189442767Y-81384238D01*
X189502807Y-81582164D01*
X189523080Y-81788000D01*
X189502807Y-81993836D01*
X189462780Y-82125787D01*
X189442767Y-82191763D01*
X189345267Y-82374172D01*
X189214054Y-82534054D01*
X189054172Y-82665267D01*
X188871763Y-82762767D01*
X188805787Y-82782780D01*
X188673836Y-82822807D01*
X188596707Y-82830403D01*
X188519580Y-82838000D01*
X188416420Y-82838000D01*
X188339293Y-82830403D01*
X188262164Y-82822807D01*
X188130213Y-82782780D01*
X188064237Y-82762767D01*
X187881828Y-82665267D01*
X187721946Y-82534054D01*
X187590733Y-82374172D01*
X187493233Y-82191763D01*
X187473220Y-82125787D01*
X187433193Y-81993836D01*
X187412920Y-81788000D01*
X187433193Y-81582164D01*
X187493233Y-81384238D01*
X187493233Y-81384237D01*
X187590733Y-81201828D01*
X187721946Y-81041946D01*
X187881828Y-80910733D01*
X188064237Y-80813233D01*
X188130213Y-80793220D01*
X188262164Y-80753193D01*
X188339293Y-80745597D01*
X188416420Y-80738000D01*
X188519580Y-80738000D01*
X188596707Y-80745597D01*
X188596707Y-80745597D01*
G37*
G36*
X186056707Y-80745597D02*
X186133836Y-80753193D01*
X186265787Y-80793220D01*
X186331763Y-80813233D01*
X186514172Y-80910733D01*
X186674054Y-81041946D01*
X186805267Y-81201828D01*
X186902767Y-81384237D01*
X186902767Y-81384238D01*
X186962807Y-81582164D01*
X186983080Y-81788000D01*
X186962807Y-81993836D01*
X186922780Y-82125787D01*
X186902767Y-82191763D01*
X186805267Y-82374172D01*
X186674054Y-82534054D01*
X186514172Y-82665267D01*
X186331763Y-82762767D01*
X186265787Y-82782780D01*
X186133836Y-82822807D01*
X186056707Y-82830403D01*
X185979580Y-82838000D01*
X185876420Y-82838000D01*
X185799293Y-82830403D01*
X185722164Y-82822807D01*
X185590213Y-82782780D01*
X185524237Y-82762767D01*
X185341828Y-82665267D01*
X185181946Y-82534054D01*
X185050733Y-82374172D01*
X184953233Y-82191763D01*
X184933220Y-82125787D01*
X184893193Y-81993836D01*
X184872920Y-81788000D01*
X184893193Y-81582164D01*
X184953233Y-81384238D01*
X184953233Y-81384237D01*
X185050733Y-81201828D01*
X185181946Y-81041946D01*
X185341828Y-80910733D01*
X185524237Y-80813233D01*
X185590213Y-80793220D01*
X185722164Y-80753193D01*
X185799293Y-80745597D01*
X185876420Y-80738000D01*
X185979580Y-80738000D01*
X186056707Y-80745597D01*
X186056707Y-80745597D01*
G37*
G36*
X183516707Y-80745597D02*
X183593836Y-80753193D01*
X183725787Y-80793220D01*
X183791763Y-80813233D01*
X183974172Y-80910733D01*
X184134054Y-81041946D01*
X184265267Y-81201828D01*
X184362767Y-81384237D01*
X184362767Y-81384238D01*
X184422807Y-81582164D01*
X184443080Y-81788000D01*
X184422807Y-81993836D01*
X184382780Y-82125787D01*
X184362767Y-82191763D01*
X184265267Y-82374172D01*
X184134054Y-82534054D01*
X183974172Y-82665267D01*
X183791763Y-82762767D01*
X183725787Y-82782780D01*
X183593836Y-82822807D01*
X183516707Y-82830403D01*
X183439580Y-82838000D01*
X183336420Y-82838000D01*
X183259293Y-82830403D01*
X183182164Y-82822807D01*
X183050213Y-82782780D01*
X182984237Y-82762767D01*
X182801828Y-82665267D01*
X182641946Y-82534054D01*
X182510733Y-82374172D01*
X182413233Y-82191763D01*
X182393220Y-82125787D01*
X182353193Y-81993836D01*
X182332920Y-81788000D01*
X182353193Y-81582164D01*
X182413233Y-81384238D01*
X182413233Y-81384237D01*
X182510733Y-81201828D01*
X182641946Y-81041946D01*
X182801828Y-80910733D01*
X182984237Y-80813233D01*
X183050213Y-80793220D01*
X183182164Y-80753193D01*
X183259293Y-80745597D01*
X183336420Y-80738000D01*
X183439580Y-80738000D01*
X183516707Y-80745597D01*
X183516707Y-80745597D01*
G37*
G36*
X190675770Y-77755372D02*
X190791689Y-77778429D01*
X190973678Y-77853811D01*
X191137463Y-77963249D01*
X191276751Y-78102537D01*
X191386189Y-78266322D01*
X191461571Y-78448311D01*
X191500000Y-78641509D01*
X191500000Y-78838491D01*
X191461571Y-79031689D01*
X191386189Y-79213678D01*
X191276751Y-79377463D01*
X191137463Y-79516751D01*
X190973678Y-79626189D01*
X190791689Y-79701571D01*
X190675770Y-79724628D01*
X190598493Y-79740000D01*
X190401507Y-79740000D01*
X190324230Y-79724628D01*
X190208311Y-79701571D01*
X190026322Y-79626189D01*
X189862537Y-79516751D01*
X189723249Y-79377463D01*
X189613811Y-79213678D01*
X189538429Y-79031689D01*
X189500000Y-78838491D01*
X189500000Y-78641509D01*
X189538429Y-78448311D01*
X189613811Y-78266322D01*
X189723249Y-78102537D01*
X189862537Y-77963249D01*
X190026322Y-77853811D01*
X190208311Y-77778429D01*
X190324230Y-77755372D01*
X190401507Y-77740000D01*
X190598493Y-77740000D01*
X190675770Y-77755372D01*
X190675770Y-77755372D01*
G37*
G36*
X126294568Y-77816081D02*
X126808861Y-78029108D01*
X126273105Y-79322540D01*
X126273104Y-79322540D01*
X124378227Y-78537656D01*
X124508999Y-78221944D01*
X124913983Y-77244224D01*
X124913984Y-77244224D01*
X126294568Y-77816081D01*
X126294568Y-77816081D01*
G37*
G36*
X172290001Y-78221944D02*
X172420773Y-78537656D01*
X170525896Y-79322540D01*
X170525895Y-79322540D01*
X169990139Y-78029108D01*
X170504432Y-77816081D01*
X171885016Y-77244224D01*
X171885017Y-77244224D01*
X172290001Y-78221944D01*
X172290001Y-78221944D01*
G37*
G36*
X187587521Y-76604586D02*
X187751309Y-76672429D01*
X187898720Y-76770926D01*
X188024074Y-76896280D01*
X188122571Y-77043691D01*
X188190414Y-77207479D01*
X188225000Y-77381356D01*
X188225000Y-77558644D01*
X188190414Y-77732521D01*
X188122571Y-77896309D01*
X188024074Y-78043720D01*
X187898720Y-78169074D01*
X187751309Y-78267571D01*
X187587521Y-78335414D01*
X187413644Y-78370000D01*
X187236356Y-78370000D01*
X187062479Y-78335414D01*
X186898691Y-78267571D01*
X186751280Y-78169074D01*
X186625926Y-78043720D01*
X186527429Y-77896309D01*
X186459586Y-77732521D01*
X186425000Y-77558644D01*
X186425000Y-77381356D01*
X186459586Y-77207479D01*
X186527429Y-77043691D01*
X186625926Y-76896280D01*
X186751280Y-76770926D01*
X186898691Y-76672429D01*
X187062479Y-76604586D01*
X187236356Y-76570000D01*
X187413644Y-76570000D01*
X187587521Y-76604586D01*
X187587521Y-76604586D01*
G37*
G36*
X179881432Y-76583022D02*
X180051081Y-76634485D01*
X180207433Y-76718056D01*
X180344475Y-76830525D01*
X180456944Y-76967567D01*
X180540515Y-77123919D01*
X180591978Y-77293568D01*
X180609354Y-77470000D01*
X180591978Y-77646432D01*
X180540515Y-77816081D01*
X180456944Y-77972433D01*
X180344475Y-78109475D01*
X180207433Y-78221944D01*
X180051081Y-78305515D01*
X179881432Y-78356978D01*
X179749211Y-78370000D01*
X179660789Y-78370000D01*
X179528568Y-78356978D01*
X179358919Y-78305515D01*
X179202567Y-78221944D01*
X179065525Y-78109475D01*
X178953056Y-77972433D01*
X178869485Y-77816081D01*
X178818022Y-77646432D01*
X178800646Y-77470000D01*
X178818022Y-77293568D01*
X178869485Y-77123919D01*
X178953056Y-76967567D01*
X179065525Y-76830525D01*
X179202567Y-76718056D01*
X179358919Y-76634485D01*
X179528568Y-76583022D01*
X179660789Y-76570000D01*
X179749211Y-76570000D01*
X179881432Y-76583022D01*
X179881432Y-76583022D01*
G37*
G36*
X177035042Y-76209436D02*
X177182448Y-76565306D01*
X175287571Y-77350190D01*
X175287570Y-77350190D01*
X174751814Y-76056758D01*
X175899811Y-75581242D01*
X176646691Y-75271874D01*
X176646692Y-75271874D01*
X177035042Y-76209436D01*
X177035042Y-76209436D01*
G37*
G36*
X120899189Y-75581242D02*
X122047186Y-76056758D01*
X121511430Y-77350190D01*
X121511429Y-77350190D01*
X119616552Y-76565306D01*
X119763958Y-76209436D01*
X120152308Y-75271874D01*
X120152309Y-75271874D01*
X120899189Y-75581242D01*
X120899189Y-75581242D01*
G37*
G36*
X170985539Y-75072694D02*
X171196186Y-75581242D01*
X169301309Y-76366126D01*
X169301308Y-76366126D01*
X168765552Y-75072694D01*
X169134323Y-74919944D01*
X170660429Y-74287810D01*
X170660430Y-74287810D01*
X170985539Y-75072694D01*
X170985539Y-75072694D01*
G37*
G36*
X127664677Y-74919944D02*
X128033448Y-75072694D01*
X127497692Y-76366126D01*
X127497691Y-76366126D01*
X125602814Y-75581242D01*
X125813461Y-75072694D01*
X126138570Y-74287810D01*
X126138571Y-74287810D01*
X127664677Y-74919944D01*
X127664677Y-74919944D01*
G37*
G36*
X187628432Y-73281022D02*
X187798081Y-73332485D01*
X187954433Y-73416056D01*
X188091475Y-73528525D01*
X188203944Y-73665567D01*
X188287515Y-73821919D01*
X188338978Y-73991568D01*
X188356354Y-74168000D01*
X188338978Y-74344432D01*
X188287515Y-74514081D01*
X188203944Y-74670433D01*
X188091475Y-74807475D01*
X187954433Y-74919944D01*
X187798081Y-75003515D01*
X187628432Y-75054978D01*
X187496211Y-75068000D01*
X187407789Y-75068000D01*
X187275568Y-75054978D01*
X187105919Y-75003515D01*
X186949567Y-74919944D01*
X186812525Y-74807475D01*
X186700056Y-74670433D01*
X186616485Y-74514081D01*
X186565022Y-74344432D01*
X186547646Y-74168000D01*
X186565022Y-73991568D01*
X186616485Y-73821919D01*
X186700056Y-73665567D01*
X186812525Y-73528525D01*
X186949567Y-73416056D01*
X187105919Y-73332485D01*
X187275568Y-73281022D01*
X187407789Y-73268000D01*
X187496211Y-73268000D01*
X187628432Y-73281022D01*
X187628432Y-73281022D01*
G37*
G36*
X180094521Y-73302586D02*
X180258309Y-73370429D01*
X180405720Y-73468926D01*
X180531074Y-73594280D01*
X180629571Y-73741691D01*
X180697414Y-73905479D01*
X180732000Y-74079356D01*
X180732000Y-74256644D01*
X180697414Y-74430521D01*
X180629571Y-74594309D01*
X180531074Y-74741720D01*
X180405720Y-74867074D01*
X180258309Y-74965571D01*
X180094521Y-75033414D01*
X179920644Y-75068000D01*
X179743356Y-75068000D01*
X179569479Y-75033414D01*
X179405691Y-74965571D01*
X179258280Y-74867074D01*
X179132926Y-74741720D01*
X179034429Y-74594309D01*
X178966586Y-74430521D01*
X178932000Y-74256644D01*
X178932000Y-74079356D01*
X178966586Y-73905479D01*
X179034429Y-73741691D01*
X179132926Y-73594280D01*
X179258280Y-73468926D01*
X179405691Y-73370429D01*
X179569479Y-73302586D01*
X179743356Y-73268000D01*
X179920644Y-73268000D01*
X180094521Y-73302586D01*
X180094521Y-73302586D01*
G37*
G36*
X190675770Y-72755372D02*
X190791689Y-72778429D01*
X190973678Y-72853811D01*
X191137463Y-72963249D01*
X191276751Y-73102537D01*
X191386189Y-73266322D01*
X191461571Y-73448311D01*
X191500000Y-73641509D01*
X191500000Y-73838491D01*
X191461571Y-74031689D01*
X191386189Y-74213678D01*
X191276751Y-74377463D01*
X191137463Y-74516751D01*
X190973678Y-74626189D01*
X190791689Y-74701571D01*
X190675770Y-74724628D01*
X190598493Y-74740000D01*
X190401507Y-74740000D01*
X190324230Y-74724628D01*
X190208311Y-74701571D01*
X190026322Y-74626189D01*
X189862537Y-74516751D01*
X189723249Y-74377463D01*
X189613811Y-74213678D01*
X189538429Y-74031689D01*
X189500000Y-73838491D01*
X189500000Y-73641509D01*
X189538429Y-73448311D01*
X189613811Y-73266322D01*
X189723249Y-73102537D01*
X189862537Y-72963249D01*
X190026322Y-72853811D01*
X190208311Y-72778429D01*
X190324230Y-72755372D01*
X190401507Y-72740000D01*
X190598493Y-72740000D01*
X190675770Y-72755372D01*
X190675770Y-72755372D01*
G37*
G36*
X175899884Y-73468924D02*
X175957861Y-73608892D01*
X174062984Y-74393776D01*
X174062983Y-74393776D01*
X173527227Y-73100344D01*
X174239944Y-72805127D01*
X175422104Y-72315460D01*
X175422105Y-72315460D01*
X175899884Y-73468924D01*
X175899884Y-73468924D01*
G37*
G36*
X122559056Y-72805127D02*
X123271773Y-73100344D01*
X122736017Y-74393776D01*
X122736016Y-74393776D01*
X120841139Y-73608892D01*
X120899116Y-73468924D01*
X121376895Y-72315460D01*
X121376896Y-72315460D01*
X122559056Y-72805127D01*
X122559056Y-72805127D01*
G37*
G36*
X214658068Y-69956870D02*
X214907456Y-70015020D01*
X215082256Y-70094220D01*
X216751717Y-71058084D01*
X216907706Y-71169865D01*
X217082759Y-71356765D01*
X217217985Y-71574227D01*
X217308189Y-71813891D01*
X217349902Y-72066548D01*
X217341524Y-72322489D01*
X217283375Y-72571877D01*
X217177690Y-72805129D01*
X217028530Y-73013282D01*
X216847746Y-73182604D01*
X216841627Y-73188335D01*
X216646384Y-73309744D01*
X216624166Y-73323560D01*
X216384502Y-73413764D01*
X216131845Y-73455477D01*
X215875905Y-73447099D01*
X215626517Y-73388950D01*
X215451717Y-73309749D01*
X215451707Y-73309744D01*
X213782262Y-72345889D01*
X213782261Y-72345888D01*
X213782257Y-72345886D01*
X213626267Y-72234105D01*
X213451214Y-72047204D01*
X213315989Y-71829741D01*
X213225785Y-71590078D01*
X213184072Y-71337420D01*
X213192449Y-71081481D01*
X213250599Y-70832093D01*
X213356284Y-70598841D01*
X213505444Y-70390688D01*
X213692345Y-70215635D01*
X213909808Y-70080410D01*
X214149471Y-69990206D01*
X214233690Y-69976302D01*
X214402127Y-69948493D01*
X214402129Y-69948493D01*
X214658068Y-69956870D01*
X214658068Y-69956870D01*
G37*
G36*
X167788270Y-70033422D02*
X166337994Y-71483698D01*
X165348044Y-70493748D01*
X166798320Y-69043472D01*
X167788270Y-70033422D01*
X167788270Y-70033422D01*
G37*
G36*
X131577956Y-70239748D02*
X130588006Y-71229698D01*
X129137730Y-69779422D01*
X130127680Y-68789472D01*
X131577956Y-70239748D01*
X131577956Y-70239748D01*
G37*
G36*
X121841431Y-66621676D02*
X121132850Y-67848975D01*
X120665631Y-68658221D01*
X120655518Y-68680541D01*
X120649953Y-68704405D01*
X120649152Y-68728896D01*
X120653143Y-68753073D01*
X120661775Y-68776007D01*
X120674715Y-68796816D01*
X120691466Y-68814701D01*
X120711384Y-68828974D01*
X120746026Y-68848974D01*
X119746026Y-70581026D01*
X118013974Y-69581026D01*
X119013974Y-67848974D01*
X119048616Y-67868974D01*
X119070936Y-67879087D01*
X119094801Y-67884652D01*
X119119292Y-67885453D01*
X119143469Y-67881462D01*
X119166402Y-67872830D01*
X119187211Y-67859890D01*
X119205096Y-67843139D01*
X119219369Y-67823221D01*
X120395169Y-65786676D01*
X121841431Y-66621676D01*
X121841431Y-66621676D01*
G37*
G36*
X165525528Y-67770680D02*
X164075252Y-69220956D01*
X163085302Y-68231006D01*
X164535578Y-66780730D01*
X165525528Y-67770680D01*
X165525528Y-67770680D01*
G37*
G36*
X133840698Y-67977006D02*
X132850748Y-68966956D01*
X131400472Y-67516680D01*
X132390422Y-66526730D01*
X133840698Y-67977006D01*
X133840698Y-67977006D01*
G37*
G36*
X171432698Y-66388994D02*
X169982422Y-67839270D01*
X168992472Y-66849320D01*
X170442748Y-65399044D01*
X171432698Y-66388994D01*
X171432698Y-66388994D01*
G37*
G36*
X186183707Y-65632597D02*
X186260836Y-65640193D01*
X186392787Y-65680220D01*
X186458763Y-65700233D01*
X186641172Y-65797733D01*
X186801054Y-65928946D01*
X186932267Y-66088828D01*
X187029767Y-66271237D01*
X187029767Y-66271238D01*
X187089807Y-66469164D01*
X187110080Y-66675000D01*
X187089807Y-66880836D01*
X187057548Y-66987179D01*
X187029767Y-67078763D01*
X186932267Y-67261172D01*
X186801054Y-67421054D01*
X186641172Y-67552267D01*
X186458763Y-67649767D01*
X186392787Y-67669780D01*
X186260836Y-67709807D01*
X186183707Y-67717404D01*
X186106580Y-67725000D01*
X186003420Y-67725000D01*
X185926293Y-67717404D01*
X185849164Y-67709807D01*
X185717213Y-67669780D01*
X185651237Y-67649767D01*
X185468828Y-67552267D01*
X185308946Y-67421054D01*
X185177733Y-67261172D01*
X185080233Y-67078763D01*
X185052452Y-66987179D01*
X185020193Y-66880836D01*
X184999920Y-66675000D01*
X185020193Y-66469164D01*
X185080233Y-66271238D01*
X185080233Y-66271237D01*
X185177733Y-66088828D01*
X185308946Y-65928946D01*
X185468828Y-65797733D01*
X185651237Y-65700233D01*
X185717213Y-65680220D01*
X185849164Y-65640193D01*
X185926293Y-65632597D01*
X186003420Y-65625000D01*
X186106580Y-65625000D01*
X186183707Y-65632597D01*
X186183707Y-65632597D01*
G37*
G36*
X219970504Y-63555463D02*
X220219892Y-63613612D01*
X220453144Y-63719297D01*
X220661297Y-63868457D01*
X220774460Y-63989281D01*
X220836350Y-64055360D01*
X220880433Y-64126252D01*
X220971575Y-64272821D01*
X221061779Y-64512485D01*
X221103492Y-64765142D01*
X221095114Y-65021082D01*
X221036965Y-65270470D01*
X220958429Y-65443803D01*
X220957759Y-65445280D01*
X220278566Y-66621676D01*
X219993901Y-67114730D01*
X219882120Y-67270720D01*
X219695219Y-67445773D01*
X219477756Y-67580998D01*
X219238093Y-67671202D01*
X219153874Y-67685106D01*
X218985437Y-67712915D01*
X218985435Y-67712915D01*
X218729496Y-67704538D01*
X218480108Y-67646388D01*
X218246856Y-67540703D01*
X218038703Y-67391543D01*
X217863650Y-67204642D01*
X217728425Y-66987179D01*
X217638221Y-66747516D01*
X217613094Y-66595320D01*
X217596508Y-66494860D01*
X217597349Y-66469164D01*
X217604885Y-66238919D01*
X217663035Y-65989531D01*
X217742235Y-65814731D01*
X218706099Y-64145270D01*
X218817880Y-63989281D01*
X219004780Y-63814228D01*
X219222242Y-63679002D01*
X219461906Y-63588798D01*
X219714563Y-63547085D01*
X219970504Y-63555463D01*
X219970504Y-63555463D01*
G37*
G36*
X127933528Y-66595320D02*
X126943578Y-67585270D01*
X125493302Y-66134994D01*
X126483252Y-65145044D01*
X127933528Y-66595320D01*
X127933528Y-66595320D01*
G37*
G36*
X212200060Y-62620073D02*
X212402052Y-62626684D01*
X212610958Y-62675396D01*
X212610959Y-62675397D01*
X212610961Y-62675397D01*
X212806354Y-62763928D01*
X212917326Y-62843450D01*
X212980722Y-62888879D01*
X213127361Y-63045442D01*
X213240641Y-63227613D01*
X213316203Y-63428375D01*
X213351146Y-63640023D01*
X213344128Y-63854420D01*
X213339970Y-63872252D01*
X213295416Y-64063334D01*
X213229070Y-64209763D01*
X212703766Y-65119615D01*
X212178889Y-66028730D01*
X212159573Y-66062185D01*
X212065935Y-66192857D01*
X212039551Y-66217568D01*
X211909367Y-66339500D01*
X211727204Y-66452775D01*
X211526437Y-66528339D01*
X211314790Y-66563282D01*
X211100393Y-66556264D01*
X211041574Y-66542549D01*
X210891479Y-66507552D01*
X210696086Y-66419020D01*
X210521719Y-66294071D01*
X210430597Y-66196781D01*
X210375076Y-66137503D01*
X210261801Y-65955340D01*
X210186237Y-65754573D01*
X210151294Y-65542926D01*
X210158312Y-65328529D01*
X210180784Y-65232154D01*
X210207024Y-65119615D01*
X210273370Y-64973186D01*
X211342866Y-63120763D01*
X211436504Y-62990091D01*
X211593070Y-62843450D01*
X211593072Y-62843448D01*
X211775235Y-62730173D01*
X211976002Y-62654610D01*
X212187649Y-62619667D01*
X212187651Y-62619667D01*
X212200060Y-62620073D01*
X212200060Y-62620073D01*
G37*
G36*
X209261791Y-62309303D02*
X209463783Y-62315914D01*
X209672689Y-62364626D01*
X209672690Y-62364627D01*
X209672692Y-62364627D01*
X209816936Y-62429983D01*
X209864541Y-62451552D01*
X209868085Y-62453158D01*
X209979057Y-62532680D01*
X210042453Y-62578109D01*
X210189092Y-62734672D01*
X210302372Y-62916843D01*
X210377934Y-63117605D01*
X210412877Y-63329253D01*
X210405859Y-63543650D01*
X210392390Y-63601416D01*
X210357147Y-63752564D01*
X210290801Y-63898993D01*
X209765497Y-64808845D01*
X209341677Y-65542924D01*
X209221304Y-65751415D01*
X209127666Y-65882087D01*
X209077635Y-65928946D01*
X208971098Y-66028730D01*
X208788935Y-66142005D01*
X208588168Y-66217569D01*
X208376521Y-66252512D01*
X208162124Y-66245494D01*
X208103305Y-66231779D01*
X207953210Y-66196782D01*
X207757817Y-66108250D01*
X207583450Y-65983301D01*
X207517329Y-65912704D01*
X207436807Y-65826733D01*
X207323532Y-65644570D01*
X207247968Y-65443803D01*
X207213025Y-65232156D01*
X207220043Y-65017759D01*
X207237591Y-64942499D01*
X207268755Y-64808845D01*
X207335101Y-64662416D01*
X208404597Y-62809993D01*
X208498235Y-62679321D01*
X208654801Y-62532680D01*
X208654803Y-62532678D01*
X208836966Y-62419403D01*
X209037733Y-62343840D01*
X209249380Y-62308897D01*
X209249382Y-62308897D01*
X209261791Y-62309303D01*
X209261791Y-62309303D01*
G37*
G36*
X123386030Y-61630355D02*
X123386033Y-61630356D01*
X123386034Y-61630356D01*
X123574535Y-61687537D01*
X123574537Y-61687538D01*
X123748260Y-61780395D01*
X123900528Y-61905358D01*
X124025491Y-62057626D01*
X124025492Y-62057628D01*
X124118349Y-62231351D01*
X124175141Y-62418570D01*
X124175531Y-62419856D01*
X124194838Y-62615886D01*
X124175531Y-62811916D01*
X124175530Y-62811919D01*
X124175530Y-62811920D01*
X124121483Y-62990091D01*
X124118348Y-63000423D01*
X124025491Y-63174146D01*
X123900528Y-63326414D01*
X123748260Y-63451377D01*
X123669158Y-63493658D01*
X123648784Y-63507272D01*
X123631457Y-63524599D01*
X123619832Y-63541395D01*
X122623154Y-65267692D01*
X122174831Y-66044210D01*
X120728569Y-65209210D01*
X121239148Y-64324861D01*
X122171006Y-62710836D01*
X122181119Y-62688516D01*
X122186684Y-62664652D01*
X122187151Y-62636084D01*
X122185162Y-62615886D01*
X122204469Y-62419856D01*
X122204859Y-62418570D01*
X122261651Y-62231351D01*
X122354508Y-62057628D01*
X122354509Y-62057626D01*
X122479472Y-61905358D01*
X122631740Y-61780395D01*
X122805463Y-61687538D01*
X122805465Y-61687537D01*
X122993966Y-61630356D01*
X122993967Y-61630356D01*
X122993970Y-61630355D01*
X123140876Y-61615886D01*
X123239124Y-61615886D01*
X123386030Y-61630355D01*
X123386030Y-61630355D01*
G37*
G36*
X160281190Y-63908570D02*
X160281190Y-63908571D01*
X159732944Y-65232154D01*
X159496306Y-65803448D01*
X158202874Y-65267692D01*
X158306400Y-65017759D01*
X158987758Y-63372814D01*
X160281190Y-63908570D01*
X160281190Y-63908570D01*
G37*
G36*
X169169956Y-64126252D02*
X167719680Y-65576528D01*
X166729730Y-64586578D01*
X168180006Y-63136302D01*
X169169956Y-64126252D01*
X169169956Y-64126252D01*
G37*
G36*
X138620174Y-64765142D02*
X138723126Y-65013692D01*
X137429694Y-65549448D01*
X136644810Y-63654571D01*
X136644810Y-63654570D01*
X137938242Y-63118814D01*
X138620174Y-64765142D01*
X138620174Y-64765142D01*
G37*
G36*
X130196270Y-64332578D02*
X129206320Y-65322528D01*
X127756044Y-63872252D01*
X128745994Y-62882302D01*
X130196270Y-64332578D01*
X130196270Y-64332578D01*
G37*
G36*
X187105000Y-65185000D02*
X185005000Y-65185000D01*
X185005000Y-63085000D01*
X187105000Y-63085000D01*
X187105000Y-65185000D01*
X187105000Y-65185000D01*
G37*
G36*
X157324776Y-62683983D02*
X157324776Y-62683984D01*
X156539892Y-64578861D01*
X155246460Y-64043105D01*
X155268755Y-63989281D01*
X156031344Y-62148227D01*
X157324776Y-62683983D01*
X157324776Y-62683983D01*
G37*
G36*
X141664405Y-63752564D02*
X141679540Y-63789105D01*
X140386108Y-64324861D01*
X140364552Y-64272821D01*
X139601224Y-62429984D01*
X139601224Y-62429983D01*
X140894656Y-61894227D01*
X141664405Y-63752564D01*
X141664405Y-63752564D01*
G37*
G36*
X117471787Y-59415446D02*
X117564522Y-59433892D01*
X117739231Y-59506259D01*
X117824428Y-59563186D01*
X117896467Y-59611321D01*
X118030179Y-59745033D01*
X118030181Y-59745036D01*
X118135241Y-59902269D01*
X118207608Y-60076978D01*
X118210947Y-60093763D01*
X118237747Y-60228495D01*
X118244500Y-60262448D01*
X118244500Y-60451552D01*
X118207608Y-60637022D01*
X118135241Y-60811731D01*
X118031579Y-60966872D01*
X118030179Y-60968967D01*
X117896467Y-61102679D01*
X117896464Y-61102681D01*
X117739231Y-61207741D01*
X117739230Y-61207742D01*
X117739229Y-61207742D01*
X117657694Y-61241515D01*
X117636083Y-61253066D01*
X117617141Y-61268612D01*
X117601595Y-61287554D01*
X117590044Y-61309165D01*
X117582931Y-61332614D01*
X117580529Y-61357000D01*
X117582931Y-61381386D01*
X117590044Y-61404835D01*
X117601595Y-61426446D01*
X117617141Y-61445388D01*
X117636083Y-61460934D01*
X117657694Y-61472485D01*
X117739231Y-61506259D01*
X117840726Y-61574076D01*
X117896467Y-61611321D01*
X118030179Y-61745033D01*
X118030181Y-61745036D01*
X118053807Y-61780394D01*
X118135242Y-61902271D01*
X118207608Y-62076979D01*
X118238315Y-62231351D01*
X118244500Y-62262448D01*
X118244500Y-62451552D01*
X118207608Y-62637022D01*
X118135241Y-62811731D01*
X118114048Y-62843448D01*
X118030179Y-62968967D01*
X117896467Y-63102679D01*
X117896464Y-63102681D01*
X117739231Y-63207741D01*
X117564522Y-63280108D01*
X117471787Y-63298554D01*
X117379053Y-63317000D01*
X117189947Y-63317000D01*
X117097213Y-63298554D01*
X117004478Y-63280108D01*
X116829769Y-63207741D01*
X116672536Y-63102681D01*
X116672533Y-63102679D01*
X116538821Y-62968967D01*
X116454952Y-62843448D01*
X116433759Y-62811731D01*
X116361392Y-62637022D01*
X116324500Y-62451552D01*
X116324500Y-62262448D01*
X116330686Y-62231351D01*
X116361392Y-62076979D01*
X116433758Y-61902271D01*
X116515194Y-61780394D01*
X116538819Y-61745036D01*
X116538821Y-61745033D01*
X116672533Y-61611321D01*
X116728274Y-61574076D01*
X116829769Y-61506259D01*
X116911306Y-61472485D01*
X116932917Y-61460934D01*
X116951859Y-61445388D01*
X116967405Y-61426446D01*
X116978956Y-61404835D01*
X116986069Y-61381386D01*
X116988471Y-61357000D01*
X116986069Y-61332614D01*
X116978956Y-61309165D01*
X116967405Y-61287554D01*
X116951859Y-61268612D01*
X116932917Y-61253066D01*
X116911306Y-61241515D01*
X116829771Y-61207742D01*
X116829770Y-61207742D01*
X116829769Y-61207741D01*
X116672536Y-61102681D01*
X116672533Y-61102679D01*
X116538821Y-60968967D01*
X116537421Y-60966872D01*
X116433759Y-60811731D01*
X116361392Y-60637022D01*
X116324500Y-60451552D01*
X116324500Y-60262448D01*
X116331254Y-60228495D01*
X116358053Y-60093763D01*
X116361392Y-60076978D01*
X116433759Y-59902269D01*
X116538819Y-59745036D01*
X116538821Y-59745033D01*
X116672533Y-59611321D01*
X116744572Y-59563186D01*
X116829769Y-59506259D01*
X117004478Y-59433892D01*
X117097213Y-59415446D01*
X117189947Y-59397000D01*
X117379053Y-59397000D01*
X117471787Y-59415446D01*
X117471787Y-59415446D01*
G37*
G36*
X120011787Y-59415446D02*
X120104522Y-59433892D01*
X120279231Y-59506259D01*
X120364428Y-59563186D01*
X120436467Y-59611321D01*
X120570179Y-59745033D01*
X120570181Y-59745036D01*
X120675241Y-59902269D01*
X120747608Y-60076978D01*
X120750947Y-60093763D01*
X120777747Y-60228495D01*
X120784500Y-60262448D01*
X120784500Y-60451552D01*
X120747608Y-60637022D01*
X120675241Y-60811731D01*
X120571579Y-60966872D01*
X120570179Y-60968967D01*
X120436467Y-61102679D01*
X120436464Y-61102681D01*
X120279231Y-61207741D01*
X120279230Y-61207742D01*
X120279229Y-61207742D01*
X120197694Y-61241515D01*
X120176083Y-61253066D01*
X120157141Y-61268612D01*
X120141595Y-61287554D01*
X120130044Y-61309165D01*
X120122931Y-61332614D01*
X120120529Y-61357000D01*
X120122931Y-61381386D01*
X120130044Y-61404835D01*
X120141595Y-61426446D01*
X120157141Y-61445388D01*
X120176083Y-61460934D01*
X120197694Y-61472485D01*
X120279231Y-61506259D01*
X120380726Y-61574076D01*
X120436467Y-61611321D01*
X120570179Y-61745033D01*
X120570181Y-61745036D01*
X120593807Y-61780394D01*
X120675242Y-61902271D01*
X120747608Y-62076979D01*
X120778315Y-62231351D01*
X120784500Y-62262448D01*
X120784500Y-62451552D01*
X120747608Y-62637022D01*
X120675241Y-62811731D01*
X120654048Y-62843448D01*
X120570179Y-62968967D01*
X120436467Y-63102679D01*
X120436464Y-63102681D01*
X120279231Y-63207741D01*
X120104522Y-63280108D01*
X120011787Y-63298554D01*
X119919053Y-63317000D01*
X119729947Y-63317000D01*
X119637213Y-63298554D01*
X119544478Y-63280108D01*
X119369769Y-63207741D01*
X119212536Y-63102681D01*
X119212533Y-63102679D01*
X119078821Y-62968967D01*
X118994952Y-62843448D01*
X118973759Y-62811731D01*
X118901392Y-62637022D01*
X118864500Y-62451552D01*
X118864500Y-62262448D01*
X118870686Y-62231351D01*
X118901392Y-62076979D01*
X118973758Y-61902271D01*
X119055194Y-61780394D01*
X119078819Y-61745036D01*
X119078821Y-61745033D01*
X119212533Y-61611321D01*
X119268274Y-61574076D01*
X119369769Y-61506259D01*
X119451306Y-61472485D01*
X119472917Y-61460934D01*
X119491859Y-61445388D01*
X119507405Y-61426446D01*
X119518956Y-61404835D01*
X119526069Y-61381386D01*
X119528471Y-61357000D01*
X119526069Y-61332614D01*
X119518956Y-61309165D01*
X119507405Y-61287554D01*
X119491859Y-61268612D01*
X119472917Y-61253066D01*
X119451306Y-61241515D01*
X119369771Y-61207742D01*
X119369770Y-61207742D01*
X119369769Y-61207741D01*
X119212536Y-61102681D01*
X119212533Y-61102679D01*
X119078821Y-60968967D01*
X119077421Y-60966872D01*
X118973759Y-60811731D01*
X118901392Y-60637022D01*
X118864500Y-60451552D01*
X118864500Y-60262448D01*
X118871254Y-60228495D01*
X118898053Y-60093763D01*
X118901392Y-60076978D01*
X118973759Y-59902269D01*
X119078819Y-59745036D01*
X119078821Y-59745033D01*
X119212533Y-59611321D01*
X119284572Y-59563186D01*
X119369769Y-59506259D01*
X119544478Y-59433892D01*
X119637213Y-59415446D01*
X119729947Y-59397000D01*
X119919053Y-59397000D01*
X120011787Y-59415446D01*
X120011787Y-59415446D01*
G37*
G36*
X147436000Y-63038500D02*
X146036000Y-63038500D01*
X146036000Y-60987500D01*
X147436000Y-60987500D01*
X147436000Y-63038500D01*
X147436000Y-63038500D01*
G37*
G36*
X150636000Y-63038500D02*
X149236000Y-63038500D01*
X149236000Y-60987500D01*
X150636000Y-60987500D01*
X150636000Y-63038500D01*
X150636000Y-63038500D01*
G37*
G36*
X181255603Y-58764968D02*
X181255606Y-58764969D01*
X181255605Y-58764969D01*
X181430678Y-58837486D01*
X181430679Y-58837487D01*
X181588241Y-58942767D01*
X181722233Y-59076759D01*
X181769097Y-59146895D01*
X181827514Y-59234322D01*
X181867972Y-59331997D01*
X181900032Y-59409397D01*
X181937000Y-59595250D01*
X181937000Y-59784750D01*
X181900032Y-59970603D01*
X181900031Y-59970605D01*
X181827514Y-60145678D01*
X181803208Y-60182054D01*
X181722233Y-60303241D01*
X181720882Y-60304592D01*
X181705336Y-60323534D01*
X181693785Y-60345145D01*
X181686672Y-60368594D01*
X181684270Y-60392980D01*
X181684270Y-62418570D01*
X180184450Y-62418570D01*
X180184450Y-60276331D01*
X180182048Y-60251945D01*
X180174935Y-60228496D01*
X180163383Y-60206884D01*
X180146792Y-60182054D01*
X180122486Y-60145678D01*
X180049969Y-59970605D01*
X180049968Y-59970603D01*
X180013000Y-59784750D01*
X180013000Y-59595250D01*
X180049968Y-59409397D01*
X180082028Y-59331997D01*
X180122486Y-59234322D01*
X180180903Y-59146895D01*
X180227767Y-59076759D01*
X180361759Y-58942767D01*
X180519321Y-58837487D01*
X180519322Y-58837486D01*
X180694395Y-58764969D01*
X180694394Y-58764969D01*
X180694397Y-58764968D01*
X180880250Y-58728000D01*
X181069750Y-58728000D01*
X181255603Y-58764968D01*
X181255603Y-58764968D01*
G37*
G36*
X176175603Y-58764968D02*
X176175606Y-58764969D01*
X176175605Y-58764969D01*
X176350678Y-58837486D01*
X176350679Y-58837487D01*
X176508241Y-58942767D01*
X176642233Y-59076759D01*
X176689097Y-59146895D01*
X176747514Y-59234322D01*
X176787972Y-59331997D01*
X176820032Y-59409397D01*
X176857000Y-59595250D01*
X176857000Y-59784750D01*
X176820032Y-59970603D01*
X176820031Y-59970605D01*
X176747514Y-60145678D01*
X176723208Y-60182054D01*
X176706617Y-60206884D01*
X176695065Y-60228495D01*
X176687952Y-60251944D01*
X176685550Y-60276331D01*
X176685550Y-62418570D01*
X175185730Y-62418570D01*
X175185730Y-60392980D01*
X175183328Y-60368594D01*
X175176215Y-60345145D01*
X175164664Y-60323534D01*
X175149118Y-60304592D01*
X175147767Y-60303241D01*
X175066792Y-60182054D01*
X175042486Y-60145678D01*
X174969969Y-59970605D01*
X174969968Y-59970603D01*
X174933000Y-59784750D01*
X174933000Y-59595250D01*
X174969968Y-59409397D01*
X175002028Y-59331997D01*
X175042486Y-59234322D01*
X175100903Y-59146895D01*
X175147767Y-59076759D01*
X175281759Y-58942767D01*
X175439321Y-58837487D01*
X175439322Y-58837486D01*
X175614395Y-58764969D01*
X175614394Y-58764969D01*
X175614397Y-58764968D01*
X175800250Y-58728000D01*
X175989750Y-58728000D01*
X176175603Y-58764968D01*
X176175603Y-58764968D01*
G37*
G36*
X178715603Y-58764968D02*
X178715606Y-58764969D01*
X178715605Y-58764969D01*
X178890678Y-58837486D01*
X178890679Y-58837487D01*
X179048241Y-58942767D01*
X179182233Y-59076759D01*
X179229097Y-59146895D01*
X179287514Y-59234322D01*
X179327972Y-59331997D01*
X179360032Y-59409397D01*
X179397000Y-59595250D01*
X179397000Y-59784750D01*
X179360032Y-59970603D01*
X179360031Y-59970605D01*
X179287514Y-60145678D01*
X179263208Y-60182054D01*
X179205976Y-60267707D01*
X179194425Y-60289317D01*
X179187312Y-60312766D01*
X179184910Y-60337153D01*
X179184910Y-62418570D01*
X177685090Y-62418570D01*
X177685090Y-60337153D01*
X177682688Y-60312767D01*
X177675575Y-60289318D01*
X177664024Y-60267707D01*
X177606792Y-60182054D01*
X177582486Y-60145678D01*
X177509969Y-59970605D01*
X177509968Y-59970603D01*
X177473000Y-59784750D01*
X177473000Y-59595250D01*
X177509968Y-59409397D01*
X177542028Y-59331997D01*
X177582486Y-59234322D01*
X177640903Y-59146895D01*
X177687767Y-59076759D01*
X177821759Y-58942767D01*
X177979321Y-58837487D01*
X177979322Y-58837486D01*
X178154395Y-58764969D01*
X178154394Y-58764969D01*
X178154397Y-58764968D01*
X178340250Y-58728000D01*
X178529750Y-58728000D01*
X178715603Y-58764968D01*
X178715603Y-58764968D01*
G37*
G36*
X202345000Y-62010000D02*
X200245000Y-62010000D01*
X200245000Y-59910000D01*
X202345000Y-59910000D01*
X202345000Y-62010000D01*
X202345000Y-62010000D01*
G37*
G36*
X216707364Y-58207386D02*
X216956752Y-58265536D01*
X217131552Y-58344736D01*
X218801013Y-59308600D01*
X218957002Y-59420381D01*
X219132055Y-59607281D01*
X219267281Y-59824743D01*
X219357485Y-60064407D01*
X219399198Y-60317064D01*
X219390820Y-60573005D01*
X219332671Y-60822393D01*
X219226986Y-61055645D01*
X219077826Y-61263798D01*
X218904168Y-61426446D01*
X218890923Y-61438851D01*
X218695680Y-61560260D01*
X218673462Y-61574076D01*
X218433798Y-61664280D01*
X218181141Y-61705993D01*
X217925201Y-61697615D01*
X217675813Y-61639466D01*
X217501013Y-61560265D01*
X217501003Y-61560260D01*
X215831558Y-60596405D01*
X215831557Y-60596404D01*
X215831553Y-60596402D01*
X215675563Y-60484621D01*
X215500510Y-60297720D01*
X215365285Y-60080257D01*
X215275081Y-59840594D01*
X215250218Y-59690000D01*
X215233368Y-59587938D01*
X215234178Y-59563186D01*
X215241745Y-59331997D01*
X215299895Y-59082609D01*
X215405580Y-58849357D01*
X215554740Y-58641204D01*
X215741641Y-58466151D01*
X215959104Y-58330926D01*
X216198767Y-58240722D01*
X216282986Y-58226818D01*
X216451423Y-58199009D01*
X216451425Y-58199009D01*
X216707364Y-58207386D01*
X216707364Y-58207386D01*
G37*
G36*
X162253540Y-59146895D02*
X162253540Y-59146896D01*
X161468656Y-61041773D01*
X160175224Y-60506017D01*
X160184087Y-60484621D01*
X160960108Y-58611139D01*
X162253540Y-59146895D01*
X162253540Y-59146895D01*
G37*
G36*
X136750747Y-60251945D02*
X136750776Y-60252017D01*
X135457344Y-60787773D01*
X134672460Y-58892896D01*
X134672460Y-58892895D01*
X135965892Y-58357139D01*
X136750747Y-60251945D01*
X136750747Y-60251945D01*
G37*
G36*
X186183707Y-58647597D02*
X186260836Y-58655193D01*
X186392787Y-58695220D01*
X186458763Y-58715233D01*
X186641172Y-58812733D01*
X186801054Y-58943946D01*
X186932267Y-59103828D01*
X187029767Y-59286237D01*
X187043648Y-59331997D01*
X187089807Y-59484164D01*
X187110080Y-59690000D01*
X187089807Y-59895836D01*
X187049780Y-60027787D01*
X187029767Y-60093763D01*
X186932267Y-60276172D01*
X186801054Y-60436054D01*
X186641172Y-60567267D01*
X186458763Y-60664767D01*
X186392787Y-60684780D01*
X186260836Y-60724807D01*
X186183707Y-60732403D01*
X186106580Y-60740000D01*
X186003420Y-60740000D01*
X185926293Y-60732403D01*
X185849164Y-60724807D01*
X185717213Y-60684780D01*
X185651237Y-60664767D01*
X185468828Y-60567267D01*
X185308946Y-60436054D01*
X185177733Y-60276172D01*
X185080233Y-60093763D01*
X185060220Y-60027787D01*
X185020193Y-59895836D01*
X184999920Y-59690000D01*
X185020193Y-59484164D01*
X185066352Y-59331997D01*
X185080233Y-59286237D01*
X185177733Y-59103828D01*
X185308946Y-58943946D01*
X185468828Y-58812733D01*
X185651237Y-58715233D01*
X185717213Y-58695220D01*
X185849164Y-58655193D01*
X185926293Y-58647597D01*
X186003420Y-58640000D01*
X186106580Y-58640000D01*
X186183707Y-58647597D01*
X186183707Y-58647597D01*
G37*
G36*
X153323000Y-60486000D02*
X151223000Y-60486000D01*
X151223000Y-58386000D01*
X153323000Y-58386000D01*
X153323000Y-60486000D01*
X153323000Y-60486000D01*
G37*
G36*
X149861707Y-58393596D02*
X149938836Y-58401193D01*
X150070787Y-58441220D01*
X150136763Y-58461233D01*
X150319172Y-58558733D01*
X150479054Y-58689946D01*
X150610267Y-58849828D01*
X150707767Y-59032237D01*
X150707767Y-59032238D01*
X150767807Y-59230164D01*
X150788080Y-59436000D01*
X150767807Y-59641836D01*
X150736503Y-59745033D01*
X150707767Y-59839763D01*
X150610267Y-60022172D01*
X150479054Y-60182054D01*
X150319172Y-60313267D01*
X150136763Y-60410767D01*
X150070787Y-60430780D01*
X149938836Y-60470807D01*
X149861707Y-60478403D01*
X149784580Y-60486000D01*
X149681420Y-60486000D01*
X149604293Y-60478403D01*
X149527164Y-60470807D01*
X149395213Y-60430780D01*
X149329237Y-60410767D01*
X149146828Y-60313267D01*
X148986946Y-60182054D01*
X148855733Y-60022172D01*
X148758233Y-59839763D01*
X148729497Y-59745033D01*
X148698193Y-59641836D01*
X148677920Y-59436000D01*
X148698193Y-59230164D01*
X148758233Y-59032238D01*
X148758233Y-59032237D01*
X148855733Y-58849828D01*
X148986946Y-58689946D01*
X149146828Y-58558733D01*
X149329237Y-58461233D01*
X149395213Y-58441220D01*
X149527164Y-58401193D01*
X149604293Y-58393596D01*
X149681420Y-58386000D01*
X149784580Y-58386000D01*
X149861707Y-58393596D01*
X149861707Y-58393596D01*
G37*
G36*
X147321707Y-58393596D02*
X147398836Y-58401193D01*
X147530787Y-58441220D01*
X147596763Y-58461233D01*
X147779172Y-58558733D01*
X147939054Y-58689946D01*
X148070267Y-58849828D01*
X148167767Y-59032237D01*
X148167767Y-59032238D01*
X148227807Y-59230164D01*
X148248080Y-59436000D01*
X148227807Y-59641836D01*
X148196503Y-59745033D01*
X148167767Y-59839763D01*
X148070267Y-60022172D01*
X147939054Y-60182054D01*
X147779172Y-60313267D01*
X147596763Y-60410767D01*
X147530787Y-60430780D01*
X147398836Y-60470807D01*
X147321707Y-60478403D01*
X147244580Y-60486000D01*
X147141420Y-60486000D01*
X147064293Y-60478403D01*
X146987164Y-60470807D01*
X146855213Y-60430780D01*
X146789237Y-60410767D01*
X146606828Y-60313267D01*
X146446946Y-60182054D01*
X146315733Y-60022172D01*
X146218233Y-59839763D01*
X146189497Y-59745033D01*
X146158193Y-59641836D01*
X146137920Y-59436000D01*
X146158193Y-59230164D01*
X146218233Y-59032238D01*
X146218233Y-59032237D01*
X146315733Y-58849828D01*
X146446946Y-58689946D01*
X146606828Y-58558733D01*
X146789237Y-58461233D01*
X146855213Y-58441220D01*
X146987164Y-58401193D01*
X147064293Y-58393596D01*
X147141420Y-58386000D01*
X147244580Y-58386000D01*
X147321707Y-58393596D01*
X147321707Y-58393596D01*
G37*
G36*
X144781707Y-58393596D02*
X144858836Y-58401193D01*
X144990787Y-58441220D01*
X145056763Y-58461233D01*
X145239172Y-58558733D01*
X145399054Y-58689946D01*
X145530267Y-58849828D01*
X145627767Y-59032237D01*
X145627767Y-59032238D01*
X145687807Y-59230164D01*
X145708080Y-59436000D01*
X145687807Y-59641836D01*
X145656503Y-59745033D01*
X145627767Y-59839763D01*
X145530267Y-60022172D01*
X145399054Y-60182054D01*
X145239172Y-60313267D01*
X145056763Y-60410767D01*
X144990787Y-60430780D01*
X144858836Y-60470807D01*
X144781707Y-60478403D01*
X144704580Y-60486000D01*
X144601420Y-60486000D01*
X144524293Y-60478403D01*
X144447164Y-60470807D01*
X144315213Y-60430780D01*
X144249237Y-60410767D01*
X144066828Y-60313267D01*
X143906946Y-60182054D01*
X143775733Y-60022172D01*
X143678233Y-59839763D01*
X143649497Y-59745033D01*
X143618193Y-59641836D01*
X143597920Y-59436000D01*
X143618193Y-59230164D01*
X143678233Y-59032238D01*
X143678233Y-59032237D01*
X143775733Y-58849828D01*
X143906946Y-58689946D01*
X144066828Y-58558733D01*
X144249237Y-58461233D01*
X144315213Y-58441220D01*
X144447164Y-58401193D01*
X144524293Y-58393596D01*
X144601420Y-58386000D01*
X144704580Y-58386000D01*
X144781707Y-58393596D01*
X144781707Y-58393596D01*
G37*
G36*
X159297126Y-57922308D02*
X159297126Y-57922309D01*
X158512242Y-59817186D01*
X157218810Y-59281430D01*
X157238323Y-59234322D01*
X158003694Y-57386552D01*
X159297126Y-57922308D01*
X159297126Y-57922308D01*
G37*
G36*
X139698385Y-59006171D02*
X139707190Y-59027430D01*
X138413758Y-59563186D01*
X137628874Y-57668309D01*
X137628874Y-57668308D01*
X138922306Y-57132552D01*
X139698385Y-59006171D01*
X139698385Y-59006171D01*
G37*
G36*
X201423707Y-57377596D02*
X201500836Y-57385193D01*
X201632745Y-57425207D01*
X201698763Y-57445233D01*
X201881172Y-57542733D01*
X202041054Y-57673946D01*
X202172267Y-57833828D01*
X202269767Y-58016237D01*
X202269767Y-58016238D01*
X202329807Y-58214164D01*
X202350080Y-58420000D01*
X202329807Y-58625836D01*
X202302689Y-58715233D01*
X202269767Y-58823763D01*
X202172267Y-59006172D01*
X202041054Y-59166054D01*
X201881172Y-59297267D01*
X201698763Y-59394767D01*
X201650540Y-59409395D01*
X201500836Y-59454807D01*
X201423707Y-59462403D01*
X201346580Y-59470000D01*
X201243420Y-59470000D01*
X201166293Y-59462403D01*
X201089164Y-59454807D01*
X200939460Y-59409395D01*
X200891237Y-59394767D01*
X200708828Y-59297267D01*
X200548946Y-59166054D01*
X200417733Y-59006172D01*
X200320233Y-58823763D01*
X200287311Y-58715233D01*
X200260193Y-58625836D01*
X200239920Y-58420000D01*
X200260193Y-58214164D01*
X200320233Y-58016238D01*
X200320233Y-58016237D01*
X200417733Y-57833828D01*
X200548946Y-57673946D01*
X200708828Y-57542733D01*
X200891237Y-57445233D01*
X200957255Y-57425207D01*
X201089164Y-57385193D01*
X201166293Y-57377596D01*
X201243420Y-57370000D01*
X201346580Y-57370000D01*
X201423707Y-57377596D01*
X201423707Y-57377596D01*
G37*
G36*
X112806981Y-56126855D02*
X113006618Y-56166565D01*
X113178678Y-56237835D01*
X113288701Y-56283408D01*
X113542571Y-56453038D01*
X113758462Y-56668929D01*
X113928092Y-56922799D01*
X113941003Y-56953970D01*
X114044935Y-57204882D01*
X114104500Y-57504338D01*
X114104500Y-57809662D01*
X114044935Y-58109118D01*
X114004230Y-58207387D01*
X113928092Y-58391201D01*
X113758462Y-58645071D01*
X113542571Y-58860962D01*
X113288701Y-59030592D01*
X113194673Y-59069540D01*
X113006618Y-59147435D01*
X112806981Y-59187145D01*
X112707163Y-59207000D01*
X112401837Y-59207000D01*
X112302019Y-59187145D01*
X112102382Y-59147435D01*
X111914327Y-59069540D01*
X111820299Y-59030592D01*
X111566429Y-58860962D01*
X111350538Y-58645071D01*
X111180908Y-58391201D01*
X111104770Y-58207387D01*
X111064065Y-58109118D01*
X111004500Y-57809662D01*
X111004500Y-57504338D01*
X111064065Y-57204882D01*
X111167997Y-56953970D01*
X111180908Y-56922799D01*
X111350538Y-56668929D01*
X111566429Y-56453038D01*
X111820299Y-56283408D01*
X111930322Y-56237835D01*
X112102382Y-56166565D01*
X112302019Y-56126855D01*
X112401837Y-56107000D01*
X112707163Y-56107000D01*
X112806981Y-56126855D01*
X112806981Y-56126855D01*
G37*
G36*
X124806981Y-56126855D02*
X125006618Y-56166565D01*
X125178678Y-56237835D01*
X125288701Y-56283408D01*
X125542571Y-56453038D01*
X125758462Y-56668929D01*
X125928092Y-56922799D01*
X125941003Y-56953970D01*
X126044935Y-57204882D01*
X126104500Y-57504338D01*
X126104500Y-57809662D01*
X126044935Y-58109118D01*
X126004230Y-58207387D01*
X125928092Y-58391201D01*
X125758462Y-58645071D01*
X125542571Y-58860962D01*
X125288701Y-59030592D01*
X125194673Y-59069540D01*
X125006618Y-59147435D01*
X124806981Y-59187145D01*
X124707163Y-59207000D01*
X124401837Y-59207000D01*
X124302019Y-59187145D01*
X124102382Y-59147435D01*
X123914327Y-59069540D01*
X123820299Y-59030592D01*
X123566429Y-58860962D01*
X123350538Y-58645071D01*
X123180908Y-58391201D01*
X123104770Y-58207387D01*
X123064065Y-58109118D01*
X123004500Y-57809662D01*
X123004500Y-57504338D01*
X123064065Y-57204882D01*
X123167997Y-56953970D01*
X123180908Y-56922799D01*
X123350538Y-56668929D01*
X123566429Y-56453038D01*
X123820299Y-56283408D01*
X123930322Y-56237835D01*
X124102382Y-56166565D01*
X124302019Y-56126855D01*
X124401837Y-56107000D01*
X124707163Y-56107000D01*
X124806981Y-56126855D01*
X124806981Y-56126855D01*
G37*
G36*
X187105000Y-58200000D02*
X185005000Y-58200000D01*
X185005000Y-56100000D01*
X187105000Y-56100000D01*
X187105000Y-58200000D01*
X187105000Y-58200000D01*
G37*
G36*
X172281030Y-56164469D02*
X172281033Y-56164470D01*
X172281034Y-56164470D01*
X172469535Y-56221651D01*
X172469537Y-56221652D01*
X172643260Y-56314509D01*
X172795528Y-56439472D01*
X172920491Y-56591740D01*
X172920492Y-56591742D01*
X173013349Y-56765465D01*
X173061076Y-56922800D01*
X173070531Y-56953970D01*
X173089838Y-57150000D01*
X173070531Y-57346030D01*
X173070530Y-57346033D01*
X173070530Y-57346034D01*
X173044876Y-57430605D01*
X173013348Y-57534537D01*
X172920491Y-57708260D01*
X172795528Y-57860528D01*
X172643260Y-57985491D01*
X172499813Y-58062165D01*
X172469535Y-58078349D01*
X172281034Y-58135530D01*
X172281033Y-58135530D01*
X172281030Y-58135531D01*
X172134124Y-58150000D01*
X172035876Y-58150000D01*
X171888970Y-58135531D01*
X171888967Y-58135530D01*
X171888966Y-58135530D01*
X171700465Y-58078349D01*
X171670187Y-58062165D01*
X171553435Y-57999760D01*
X171530796Y-57990382D01*
X171506762Y-57985602D01*
X171494510Y-57985000D01*
X168608400Y-57985000D01*
X168608400Y-56315000D01*
X171494510Y-56315000D01*
X171518896Y-56312598D01*
X171542345Y-56305485D01*
X171553435Y-56300240D01*
X171700463Y-56221652D01*
X171700465Y-56221651D01*
X171888966Y-56164470D01*
X171888967Y-56164470D01*
X171888970Y-56164469D01*
X172035876Y-56150000D01*
X172134124Y-56150000D01*
X172281030Y-56164469D01*
X172281030Y-56164469D01*
G37*
G36*
X165465000Y-56190000D02*
X165467402Y-56214386D01*
X165474515Y-56237835D01*
X165486066Y-56259446D01*
X165501612Y-56278388D01*
X165520554Y-56293934D01*
X165542165Y-56305485D01*
X165565614Y-56312598D01*
X165590000Y-56315000D01*
X167941600Y-56315000D01*
X167941600Y-57985000D01*
X165590000Y-57985000D01*
X165565614Y-57987402D01*
X165542165Y-57994515D01*
X165520554Y-58006066D01*
X165501612Y-58021612D01*
X165486066Y-58040554D01*
X165474515Y-58062165D01*
X165467402Y-58085614D01*
X165465000Y-58110000D01*
X165465000Y-58150000D01*
X163465000Y-58150000D01*
X163465000Y-56150000D01*
X165465000Y-56150000D01*
X165465000Y-56190000D01*
X165465000Y-56190000D01*
G37*
G36*
X176685550Y-56563669D02*
X176687952Y-56588055D01*
X176695065Y-56611504D01*
X176706617Y-56633116D01*
X176747514Y-56694322D01*
X176787425Y-56790677D01*
X176820032Y-56869397D01*
X176857000Y-57055250D01*
X176857000Y-57244750D01*
X176820032Y-57430603D01*
X176820031Y-57430605D01*
X176747514Y-57605678D01*
X176705665Y-57668309D01*
X176642233Y-57763241D01*
X176508241Y-57897233D01*
X176470714Y-57922308D01*
X176350678Y-58002514D01*
X176215266Y-58058603D01*
X176175603Y-58075032D01*
X175989750Y-58112000D01*
X175800250Y-58112000D01*
X175614397Y-58075032D01*
X175574734Y-58058603D01*
X175439322Y-58002514D01*
X175319286Y-57922308D01*
X175281759Y-57897233D01*
X175147767Y-57763241D01*
X175084335Y-57668309D01*
X175042486Y-57605678D01*
X174969969Y-57430605D01*
X174969968Y-57430603D01*
X174933000Y-57244750D01*
X174933000Y-57055250D01*
X174969968Y-56869397D01*
X175013019Y-56765463D01*
X175042486Y-56694322D01*
X175129786Y-56563669D01*
X175147767Y-56536759D01*
X175149118Y-56535408D01*
X175164664Y-56516466D01*
X175176215Y-56494855D01*
X175183328Y-56471406D01*
X175185730Y-56447020D01*
X175185730Y-54421430D01*
X176685550Y-54421430D01*
X176685550Y-56563669D01*
X176685550Y-56563669D01*
G37*
G36*
X179184910Y-56502847D02*
X179187312Y-56527233D01*
X179194425Y-56550682D01*
X179205976Y-56572293D01*
X179287514Y-56694322D01*
X179316981Y-56765463D01*
X179360032Y-56869397D01*
X179397000Y-57055250D01*
X179397000Y-57244750D01*
X179360032Y-57430603D01*
X179360031Y-57430605D01*
X179287514Y-57605678D01*
X179245665Y-57668309D01*
X179182233Y-57763241D01*
X179048241Y-57897233D01*
X179010714Y-57922308D01*
X178890678Y-58002514D01*
X178755266Y-58058603D01*
X178715603Y-58075032D01*
X178529750Y-58112000D01*
X178340250Y-58112000D01*
X178154397Y-58075032D01*
X178114734Y-58058603D01*
X177979322Y-58002514D01*
X177859286Y-57922308D01*
X177821759Y-57897233D01*
X177687767Y-57763241D01*
X177624335Y-57668309D01*
X177582486Y-57605678D01*
X177509969Y-57430605D01*
X177509968Y-57430603D01*
X177473000Y-57244750D01*
X177473000Y-57055250D01*
X177509968Y-56869397D01*
X177553019Y-56765463D01*
X177582486Y-56694322D01*
X177664024Y-56572293D01*
X177675575Y-56550683D01*
X177682688Y-56527234D01*
X177685090Y-56502847D01*
X177685090Y-54421430D01*
X179184910Y-54421430D01*
X179184910Y-56502847D01*
X179184910Y-56502847D01*
G37*
G36*
X147436000Y-57884500D02*
X146036000Y-57884500D01*
X146036000Y-55833500D01*
X147436000Y-55833500D01*
X147436000Y-57884500D01*
X147436000Y-57884500D01*
G37*
G36*
X150636000Y-57884500D02*
X149236000Y-57884500D01*
X149236000Y-55833500D01*
X150636000Y-55833500D01*
X150636000Y-57884500D01*
X150636000Y-57884500D01*
G37*
G36*
X181684270Y-56769610D02*
X181633383Y-56769610D01*
X181608997Y-56772012D01*
X181585548Y-56779125D01*
X181563937Y-56790676D01*
X181544995Y-56806222D01*
X181529449Y-56825164D01*
X181517898Y-56846775D01*
X181510785Y-56870224D01*
X181508383Y-56894610D01*
X181510785Y-56918996D01*
X181517898Y-56942446D01*
X181533673Y-56980531D01*
X181556000Y-57092775D01*
X181556000Y-57207225D01*
X181533673Y-57319469D01*
X181489875Y-57425207D01*
X181426290Y-57520369D01*
X181345369Y-57601290D01*
X181250207Y-57664875D01*
X181144469Y-57708673D01*
X181032225Y-57731000D01*
X180917775Y-57731000D01*
X180805531Y-57708673D01*
X180699793Y-57664875D01*
X180604631Y-57601290D01*
X180523710Y-57520369D01*
X180460125Y-57425207D01*
X180416327Y-57319469D01*
X180394000Y-57207225D01*
X180394000Y-57092775D01*
X180416327Y-56980531D01*
X180432102Y-56942446D01*
X180439215Y-56918997D01*
X180441617Y-56894611D01*
X180439215Y-56870224D01*
X180432102Y-56846775D01*
X180420551Y-56825164D01*
X180405006Y-56806222D01*
X180386064Y-56790677D01*
X180364453Y-56779125D01*
X180341004Y-56772012D01*
X180316617Y-56769610D01*
X180184450Y-56769610D01*
X180184450Y-54421430D01*
X181684270Y-54421430D01*
X181684270Y-56769610D01*
X181684270Y-56769610D01*
G37*
M02*
