G04 #@! TF.GenerationSoftware,KiCad,Pcbnew,(6.0.0-rc1-dev-1127-g569d4a0f6)*
G04 #@! TF.CreationDate,2018-12-11T03:09:38-08:00*
G04 #@! TF.ProjectId,Stylish-Belt-Synth - Full,5374796c-6973-4682-9d42-656c742d5379,rev?*
G04 #@! TF.SameCoordinates,Original*
G04 #@! TF.FileFunction,Soldermask,Bot*
G04 #@! TF.FilePolarity,Negative*
%FSLAX46Y46*%
G04 Gerber Fmt 4.6, Leading zero omitted, Abs format (unit mm)*
G04 Created by KiCad (PCBNEW (6.0.0-rc1-dev-1127-g569d4a0f6)) date 12/11/2018 3:09:38 AM*
%MOMM*%
%LPD*%
G01*
G04 APERTURE LIST*
%ADD10C,0.100000*%
G04 APERTURE END LIST*
D10*
G36*
X122799024Y-141667634D02*
X122877423Y-141691416D01*
X122949668Y-141730032D01*
X123012997Y-141782003D01*
X123064968Y-141845332D01*
X123103584Y-141917577D01*
X123127366Y-141995976D01*
X123136000Y-142083640D01*
X123136000Y-146206360D01*
X123127366Y-146294024D01*
X123103584Y-146372423D01*
X123064968Y-146444668D01*
X123012997Y-146507997D01*
X122949668Y-146559968D01*
X122877422Y-146598585D01*
X122832604Y-146612180D01*
X122809965Y-146621558D01*
X122789590Y-146635172D01*
X122772263Y-146652499D01*
X122758649Y-146672873D01*
X122749272Y-146695512D01*
X122744491Y-146719546D01*
X122744491Y-146744050D01*
X122746289Y-146756173D01*
X122755000Y-146799965D01*
X122755000Y-147840035D01*
X122552093Y-148860119D01*
X122154076Y-149821018D01*
X121576244Y-150685804D01*
X120840804Y-151421244D01*
X119976018Y-151999076D01*
X119015119Y-152397093D01*
X118140195Y-152571126D01*
X117995036Y-152600000D01*
X116954964Y-152600000D01*
X116809805Y-152571126D01*
X115934881Y-152397093D01*
X114973982Y-151999076D01*
X114109196Y-151421244D01*
X113373756Y-150685804D01*
X112795924Y-149821018D01*
X112397907Y-148860119D01*
X112195000Y-147840035D01*
X112195000Y-146799965D01*
X112397907Y-145779881D01*
X112795924Y-144818982D01*
X113373756Y-143954196D01*
X114109196Y-143218756D01*
X114973982Y-142640924D01*
X115934881Y-142242907D01*
X116923986Y-142046162D01*
X116954964Y-142040000D01*
X117995036Y-142040000D01*
X118026014Y-142046162D01*
X119015119Y-142242907D01*
X119976018Y-142640924D01*
X120840804Y-143218756D01*
X120998618Y-143376570D01*
X121017554Y-143392111D01*
X121039165Y-143403662D01*
X121062614Y-143410775D01*
X121087000Y-143413177D01*
X121111386Y-143410775D01*
X121134835Y-143403662D01*
X121156446Y-143392111D01*
X121175388Y-143376565D01*
X121190934Y-143357623D01*
X121202485Y-143336012D01*
X121209598Y-143312563D01*
X121212000Y-143288177D01*
X121212000Y-142083640D01*
X121220634Y-141995976D01*
X121244416Y-141917577D01*
X121283032Y-141845332D01*
X121335003Y-141782003D01*
X121398332Y-141730032D01*
X121470577Y-141691416D01*
X121548976Y-141667634D01*
X121636640Y-141659000D01*
X122711360Y-141659000D01*
X122799024Y-141667634D01*
X122799024Y-141667634D01*
G37*
G36*
X74733017Y-147751771D02*
X75046856Y-147881767D01*
X75329308Y-148070495D01*
X75569505Y-148310692D01*
X75758233Y-148593144D01*
X75888229Y-148906983D01*
X75954500Y-149240150D01*
X75954500Y-149579850D01*
X75888229Y-149913017D01*
X75758233Y-150226856D01*
X75569505Y-150509308D01*
X75329308Y-150749505D01*
X75046856Y-150938233D01*
X74733017Y-151068229D01*
X74399850Y-151134500D01*
X74060150Y-151134500D01*
X73726983Y-151068229D01*
X73413144Y-150938233D01*
X73130692Y-150749505D01*
X72890495Y-150509308D01*
X72701767Y-150226856D01*
X72571771Y-149913017D01*
X72505500Y-149579850D01*
X72505500Y-149240150D01*
X72571771Y-148906983D01*
X72701767Y-148593144D01*
X72890495Y-148310692D01*
X73130692Y-148070495D01*
X73413144Y-147881767D01*
X73726983Y-147751771D01*
X74060150Y-147685500D01*
X74399850Y-147685500D01*
X74733017Y-147751771D01*
X74733017Y-147751771D01*
G37*
G36*
X222773017Y-147741771D02*
X223086856Y-147871767D01*
X223369308Y-148060495D01*
X223609505Y-148300692D01*
X223798233Y-148583144D01*
X223928229Y-148896983D01*
X223994500Y-149230150D01*
X223994500Y-149569850D01*
X223928229Y-149903017D01*
X223798233Y-150216856D01*
X223609505Y-150499308D01*
X223369308Y-150739505D01*
X223086856Y-150928233D01*
X222773017Y-151058229D01*
X222439850Y-151124500D01*
X222100150Y-151124500D01*
X221766983Y-151058229D01*
X221453144Y-150928233D01*
X221170692Y-150739505D01*
X220930495Y-150499308D01*
X220741767Y-150216856D01*
X220611771Y-149903017D01*
X220545500Y-149569850D01*
X220545500Y-149230150D01*
X220611771Y-148896983D01*
X220741767Y-148583144D01*
X220930495Y-148300692D01*
X221170692Y-148060495D01*
X221453144Y-147871767D01*
X221766983Y-147741771D01*
X222100150Y-147675500D01*
X222439850Y-147675500D01*
X222773017Y-147741771D01*
X222773017Y-147741771D01*
G37*
G36*
X171059024Y-141667634D02*
X171137423Y-141691416D01*
X171209668Y-141730032D01*
X171272997Y-141782003D01*
X171324968Y-141845332D01*
X171363584Y-141917577D01*
X171387366Y-141995976D01*
X171396000Y-142083640D01*
X171396000Y-146206360D01*
X171387366Y-146294024D01*
X171363584Y-146372423D01*
X171324968Y-146444668D01*
X171272997Y-146507997D01*
X171209668Y-146559968D01*
X171137423Y-146598584D01*
X171059024Y-146622366D01*
X170971360Y-146631000D01*
X169896640Y-146631000D01*
X169808976Y-146622366D01*
X169730577Y-146598584D01*
X169658332Y-146559968D01*
X169595003Y-146507997D01*
X169543032Y-146444668D01*
X169504416Y-146372423D01*
X169480634Y-146294024D01*
X169472000Y-146206360D01*
X169472000Y-142083640D01*
X169480634Y-141995976D01*
X169504416Y-141917577D01*
X169543032Y-141845332D01*
X169595003Y-141782003D01*
X169658332Y-141730032D01*
X169730577Y-141691416D01*
X169808976Y-141667634D01*
X169896640Y-141659000D01*
X170971360Y-141659000D01*
X171059024Y-141667634D01*
X171059024Y-141667634D01*
G37*
G36*
X125339024Y-141667634D02*
X125417423Y-141691416D01*
X125489668Y-141730032D01*
X125552997Y-141782003D01*
X125604968Y-141845332D01*
X125643584Y-141917577D01*
X125667366Y-141995976D01*
X125676000Y-142083640D01*
X125676000Y-146206360D01*
X125667366Y-146294024D01*
X125643584Y-146372423D01*
X125604968Y-146444668D01*
X125552997Y-146507997D01*
X125489668Y-146559968D01*
X125417423Y-146598584D01*
X125339024Y-146622366D01*
X125251360Y-146631000D01*
X124176640Y-146631000D01*
X124088976Y-146622366D01*
X124010577Y-146598584D01*
X123938332Y-146559968D01*
X123875003Y-146507997D01*
X123823032Y-146444668D01*
X123784416Y-146372423D01*
X123760634Y-146294024D01*
X123752000Y-146206360D01*
X123752000Y-142083640D01*
X123760634Y-141995976D01*
X123784416Y-141917577D01*
X123823032Y-141845332D01*
X123875003Y-141782003D01*
X123938332Y-141730032D01*
X124010577Y-141691416D01*
X124088976Y-141667634D01*
X124176640Y-141659000D01*
X125251360Y-141659000D01*
X125339024Y-141667634D01*
X125339024Y-141667634D01*
G37*
G36*
X127879024Y-141667634D02*
X127957423Y-141691416D01*
X128029668Y-141730032D01*
X128092997Y-141782003D01*
X128144968Y-141845332D01*
X128183584Y-141917577D01*
X128207366Y-141995976D01*
X128216000Y-142083640D01*
X128216000Y-146206360D01*
X128207366Y-146294024D01*
X128183584Y-146372423D01*
X128144968Y-146444668D01*
X128092997Y-146507997D01*
X128029668Y-146559968D01*
X127957423Y-146598584D01*
X127879024Y-146622366D01*
X127791360Y-146631000D01*
X126716640Y-146631000D01*
X126628976Y-146622366D01*
X126550577Y-146598584D01*
X126478332Y-146559968D01*
X126415003Y-146507997D01*
X126363032Y-146444668D01*
X126324416Y-146372423D01*
X126300634Y-146294024D01*
X126292000Y-146206360D01*
X126292000Y-142083640D01*
X126300634Y-141995976D01*
X126324416Y-141917577D01*
X126363032Y-141845332D01*
X126415003Y-141782003D01*
X126478332Y-141730032D01*
X126550577Y-141691416D01*
X126628976Y-141667634D01*
X126716640Y-141659000D01*
X127791360Y-141659000D01*
X127879024Y-141667634D01*
X127879024Y-141667634D01*
G37*
G36*
X130419024Y-141667634D02*
X130497423Y-141691416D01*
X130569668Y-141730032D01*
X130632997Y-141782003D01*
X130684968Y-141845332D01*
X130723584Y-141917577D01*
X130747366Y-141995976D01*
X130756000Y-142083640D01*
X130756000Y-146206360D01*
X130747366Y-146294024D01*
X130723584Y-146372423D01*
X130684968Y-146444668D01*
X130632997Y-146507997D01*
X130569668Y-146559968D01*
X130497423Y-146598584D01*
X130419024Y-146622366D01*
X130331360Y-146631000D01*
X129256640Y-146631000D01*
X129168976Y-146622366D01*
X129090577Y-146598584D01*
X129018332Y-146559968D01*
X128955003Y-146507997D01*
X128903032Y-146444668D01*
X128864416Y-146372423D01*
X128840634Y-146294024D01*
X128832000Y-146206360D01*
X128832000Y-142083640D01*
X128840634Y-141995976D01*
X128864416Y-141917577D01*
X128903032Y-141845332D01*
X128955003Y-141782003D01*
X129018332Y-141730032D01*
X129090577Y-141691416D01*
X129168976Y-141667634D01*
X129256640Y-141659000D01*
X130331360Y-141659000D01*
X130419024Y-141667634D01*
X130419024Y-141667634D01*
G37*
G36*
X132959024Y-141667634D02*
X133037423Y-141691416D01*
X133109668Y-141730032D01*
X133172997Y-141782003D01*
X133224968Y-141845332D01*
X133263584Y-141917577D01*
X133287366Y-141995976D01*
X133296000Y-142083640D01*
X133296000Y-146206360D01*
X133287366Y-146294024D01*
X133263584Y-146372423D01*
X133224968Y-146444668D01*
X133172997Y-146507997D01*
X133109668Y-146559968D01*
X133037423Y-146598584D01*
X132959024Y-146622366D01*
X132871360Y-146631000D01*
X131796640Y-146631000D01*
X131708976Y-146622366D01*
X131630577Y-146598584D01*
X131558332Y-146559968D01*
X131495003Y-146507997D01*
X131443032Y-146444668D01*
X131404416Y-146372423D01*
X131380634Y-146294024D01*
X131372000Y-146206360D01*
X131372000Y-142083640D01*
X131380634Y-141995976D01*
X131404416Y-141917577D01*
X131443032Y-141845332D01*
X131495003Y-141782003D01*
X131558332Y-141730032D01*
X131630577Y-141691416D01*
X131708976Y-141667634D01*
X131796640Y-141659000D01*
X132871360Y-141659000D01*
X132959024Y-141667634D01*
X132959024Y-141667634D01*
G37*
G36*
X135499024Y-141667634D02*
X135577423Y-141691416D01*
X135649668Y-141730032D01*
X135712997Y-141782003D01*
X135764968Y-141845332D01*
X135803584Y-141917577D01*
X135827366Y-141995976D01*
X135836000Y-142083640D01*
X135836000Y-146206360D01*
X135827366Y-146294024D01*
X135803584Y-146372423D01*
X135764968Y-146444668D01*
X135712997Y-146507997D01*
X135649668Y-146559968D01*
X135577423Y-146598584D01*
X135499024Y-146622366D01*
X135411360Y-146631000D01*
X134336640Y-146631000D01*
X134248976Y-146622366D01*
X134170577Y-146598584D01*
X134098332Y-146559968D01*
X134035003Y-146507997D01*
X133983032Y-146444668D01*
X133944416Y-146372423D01*
X133920634Y-146294024D01*
X133912000Y-146206360D01*
X133912000Y-142083640D01*
X133920634Y-141995976D01*
X133944416Y-141917577D01*
X133983032Y-141845332D01*
X134035003Y-141782003D01*
X134098332Y-141730032D01*
X134170577Y-141691416D01*
X134248976Y-141667634D01*
X134336640Y-141659000D01*
X135411360Y-141659000D01*
X135499024Y-141667634D01*
X135499024Y-141667634D01*
G37*
G36*
X138039024Y-141667634D02*
X138117423Y-141691416D01*
X138189668Y-141730032D01*
X138252997Y-141782003D01*
X138304968Y-141845332D01*
X138343584Y-141917577D01*
X138367366Y-141995976D01*
X138376000Y-142083640D01*
X138376000Y-146206360D01*
X138367366Y-146294024D01*
X138343584Y-146372423D01*
X138304968Y-146444668D01*
X138252997Y-146507997D01*
X138189668Y-146559968D01*
X138117423Y-146598584D01*
X138039024Y-146622366D01*
X137951360Y-146631000D01*
X136876640Y-146631000D01*
X136788976Y-146622366D01*
X136710577Y-146598584D01*
X136638332Y-146559968D01*
X136575003Y-146507997D01*
X136523032Y-146444668D01*
X136484416Y-146372423D01*
X136460634Y-146294024D01*
X136452000Y-146206360D01*
X136452000Y-142083640D01*
X136460634Y-141995976D01*
X136484416Y-141917577D01*
X136523032Y-141845332D01*
X136575003Y-141782003D01*
X136638332Y-141730032D01*
X136710577Y-141691416D01*
X136788976Y-141667634D01*
X136876640Y-141659000D01*
X137951360Y-141659000D01*
X138039024Y-141667634D01*
X138039024Y-141667634D01*
G37*
G36*
X140579024Y-141667634D02*
X140657423Y-141691416D01*
X140729668Y-141730032D01*
X140792997Y-141782003D01*
X140844968Y-141845332D01*
X140883584Y-141917577D01*
X140907366Y-141995976D01*
X140916000Y-142083640D01*
X140916000Y-146206360D01*
X140907366Y-146294024D01*
X140883584Y-146372423D01*
X140844968Y-146444668D01*
X140792997Y-146507997D01*
X140729668Y-146559968D01*
X140657423Y-146598584D01*
X140579024Y-146622366D01*
X140491360Y-146631000D01*
X139416640Y-146631000D01*
X139328976Y-146622366D01*
X139250577Y-146598584D01*
X139178332Y-146559968D01*
X139115003Y-146507997D01*
X139063032Y-146444668D01*
X139024416Y-146372423D01*
X139000634Y-146294024D01*
X138992000Y-146206360D01*
X138992000Y-142083640D01*
X139000634Y-141995976D01*
X139024416Y-141917577D01*
X139063032Y-141845332D01*
X139115003Y-141782003D01*
X139178332Y-141730032D01*
X139250577Y-141691416D01*
X139328976Y-141667634D01*
X139416640Y-141659000D01*
X140491360Y-141659000D01*
X140579024Y-141667634D01*
X140579024Y-141667634D01*
G37*
G36*
X143119024Y-141667634D02*
X143197423Y-141691416D01*
X143269668Y-141730032D01*
X143332997Y-141782003D01*
X143384968Y-141845332D01*
X143423584Y-141917577D01*
X143447366Y-141995976D01*
X143456000Y-142083640D01*
X143456000Y-146206360D01*
X143447366Y-146294024D01*
X143423584Y-146372423D01*
X143384968Y-146444668D01*
X143332997Y-146507997D01*
X143269668Y-146559968D01*
X143197423Y-146598584D01*
X143119024Y-146622366D01*
X143031360Y-146631000D01*
X141956640Y-146631000D01*
X141868976Y-146622366D01*
X141790577Y-146598584D01*
X141718332Y-146559968D01*
X141655003Y-146507997D01*
X141603032Y-146444668D01*
X141564416Y-146372423D01*
X141540634Y-146294024D01*
X141532000Y-146206360D01*
X141532000Y-142083640D01*
X141540634Y-141995976D01*
X141564416Y-141917577D01*
X141603032Y-141845332D01*
X141655003Y-141782003D01*
X141718332Y-141730032D01*
X141790577Y-141691416D01*
X141868976Y-141667634D01*
X141956640Y-141659000D01*
X143031360Y-141659000D01*
X143119024Y-141667634D01*
X143119024Y-141667634D01*
G37*
G36*
X148199024Y-141667634D02*
X148277423Y-141691416D01*
X148349668Y-141730032D01*
X148412997Y-141782003D01*
X148464968Y-141845332D01*
X148503584Y-141917577D01*
X148527366Y-141995976D01*
X148536000Y-142083640D01*
X148536000Y-146206360D01*
X148527366Y-146294024D01*
X148503584Y-146372423D01*
X148464968Y-146444668D01*
X148412997Y-146507997D01*
X148349668Y-146559968D01*
X148277423Y-146598584D01*
X148199024Y-146622366D01*
X148111360Y-146631000D01*
X147036640Y-146631000D01*
X146948976Y-146622366D01*
X146870577Y-146598584D01*
X146798332Y-146559968D01*
X146735003Y-146507997D01*
X146683032Y-146444668D01*
X146644416Y-146372423D01*
X146620634Y-146294024D01*
X146612000Y-146206360D01*
X146612000Y-142083640D01*
X146620634Y-141995976D01*
X146644416Y-141917577D01*
X146683032Y-141845332D01*
X146735003Y-141782003D01*
X146798332Y-141730032D01*
X146870577Y-141691416D01*
X146948976Y-141667634D01*
X147036640Y-141659000D01*
X148111360Y-141659000D01*
X148199024Y-141667634D01*
X148199024Y-141667634D01*
G37*
G36*
X150739024Y-141667634D02*
X150817423Y-141691416D01*
X150889668Y-141730032D01*
X150952997Y-141782003D01*
X151004968Y-141845332D01*
X151043584Y-141917577D01*
X151067366Y-141995976D01*
X151076000Y-142083640D01*
X151076000Y-146206360D01*
X151067366Y-146294024D01*
X151043584Y-146372423D01*
X151004968Y-146444668D01*
X150952997Y-146507997D01*
X150889668Y-146559968D01*
X150817423Y-146598584D01*
X150739024Y-146622366D01*
X150651360Y-146631000D01*
X149576640Y-146631000D01*
X149488976Y-146622366D01*
X149410577Y-146598584D01*
X149338332Y-146559968D01*
X149275003Y-146507997D01*
X149223032Y-146444668D01*
X149184416Y-146372423D01*
X149160634Y-146294024D01*
X149152000Y-146206360D01*
X149152000Y-142083640D01*
X149160634Y-141995976D01*
X149184416Y-141917577D01*
X149223032Y-141845332D01*
X149275003Y-141782003D01*
X149338332Y-141730032D01*
X149410577Y-141691416D01*
X149488976Y-141667634D01*
X149576640Y-141659000D01*
X150651360Y-141659000D01*
X150739024Y-141667634D01*
X150739024Y-141667634D01*
G37*
G36*
X153279024Y-141667634D02*
X153357423Y-141691416D01*
X153429668Y-141730032D01*
X153492997Y-141782003D01*
X153544968Y-141845332D01*
X153583584Y-141917577D01*
X153607366Y-141995976D01*
X153616000Y-142083640D01*
X153616000Y-146206360D01*
X153607366Y-146294024D01*
X153583584Y-146372423D01*
X153544968Y-146444668D01*
X153492997Y-146507997D01*
X153429668Y-146559968D01*
X153357423Y-146598584D01*
X153279024Y-146622366D01*
X153191360Y-146631000D01*
X152116640Y-146631000D01*
X152028976Y-146622366D01*
X151950577Y-146598584D01*
X151878332Y-146559968D01*
X151815003Y-146507997D01*
X151763032Y-146444668D01*
X151724416Y-146372423D01*
X151700634Y-146294024D01*
X151692000Y-146206360D01*
X151692000Y-142083640D01*
X151700634Y-141995976D01*
X151724416Y-141917577D01*
X151763032Y-141845332D01*
X151815003Y-141782003D01*
X151878332Y-141730032D01*
X151950577Y-141691416D01*
X152028976Y-141667634D01*
X152116640Y-141659000D01*
X153191360Y-141659000D01*
X153279024Y-141667634D01*
X153279024Y-141667634D01*
G37*
G36*
X155819024Y-141667634D02*
X155897423Y-141691416D01*
X155969668Y-141730032D01*
X156032997Y-141782003D01*
X156084968Y-141845332D01*
X156123584Y-141917577D01*
X156147366Y-141995976D01*
X156156000Y-142083640D01*
X156156000Y-146206360D01*
X156147366Y-146294024D01*
X156123584Y-146372423D01*
X156084968Y-146444668D01*
X156032997Y-146507997D01*
X155969668Y-146559968D01*
X155897423Y-146598584D01*
X155819024Y-146622366D01*
X155731360Y-146631000D01*
X154656640Y-146631000D01*
X154568976Y-146622366D01*
X154490577Y-146598584D01*
X154418332Y-146559968D01*
X154355003Y-146507997D01*
X154303032Y-146444668D01*
X154264416Y-146372423D01*
X154240634Y-146294024D01*
X154232000Y-146206360D01*
X154232000Y-142083640D01*
X154240634Y-141995976D01*
X154264416Y-141917577D01*
X154303032Y-141845332D01*
X154355003Y-141782003D01*
X154418332Y-141730032D01*
X154490577Y-141691416D01*
X154568976Y-141667634D01*
X154656640Y-141659000D01*
X155731360Y-141659000D01*
X155819024Y-141667634D01*
X155819024Y-141667634D01*
G37*
G36*
X158359024Y-141667634D02*
X158437423Y-141691416D01*
X158509668Y-141730032D01*
X158572997Y-141782003D01*
X158624968Y-141845332D01*
X158663584Y-141917577D01*
X158687366Y-141995976D01*
X158696000Y-142083640D01*
X158696000Y-146206360D01*
X158687366Y-146294024D01*
X158663584Y-146372423D01*
X158624968Y-146444668D01*
X158572997Y-146507997D01*
X158509668Y-146559968D01*
X158437423Y-146598584D01*
X158359024Y-146622366D01*
X158271360Y-146631000D01*
X157196640Y-146631000D01*
X157108976Y-146622366D01*
X157030577Y-146598584D01*
X156958332Y-146559968D01*
X156895003Y-146507997D01*
X156843032Y-146444668D01*
X156804416Y-146372423D01*
X156780634Y-146294024D01*
X156772000Y-146206360D01*
X156772000Y-142083640D01*
X156780634Y-141995976D01*
X156804416Y-141917577D01*
X156843032Y-141845332D01*
X156895003Y-141782003D01*
X156958332Y-141730032D01*
X157030577Y-141691416D01*
X157108976Y-141667634D01*
X157196640Y-141659000D01*
X158271360Y-141659000D01*
X158359024Y-141667634D01*
X158359024Y-141667634D01*
G37*
G36*
X160899024Y-141667634D02*
X160977423Y-141691416D01*
X161049668Y-141730032D01*
X161112997Y-141782003D01*
X161164968Y-141845332D01*
X161203584Y-141917577D01*
X161227366Y-141995976D01*
X161236000Y-142083640D01*
X161236000Y-146206360D01*
X161227366Y-146294024D01*
X161203584Y-146372423D01*
X161164968Y-146444668D01*
X161112997Y-146507997D01*
X161049668Y-146559968D01*
X160977423Y-146598584D01*
X160899024Y-146622366D01*
X160811360Y-146631000D01*
X159736640Y-146631000D01*
X159648976Y-146622366D01*
X159570577Y-146598584D01*
X159498332Y-146559968D01*
X159435003Y-146507997D01*
X159383032Y-146444668D01*
X159344416Y-146372423D01*
X159320634Y-146294024D01*
X159312000Y-146206360D01*
X159312000Y-142083640D01*
X159320634Y-141995976D01*
X159344416Y-141917577D01*
X159383032Y-141845332D01*
X159435003Y-141782003D01*
X159498332Y-141730032D01*
X159570577Y-141691416D01*
X159648976Y-141667634D01*
X159736640Y-141659000D01*
X160811360Y-141659000D01*
X160899024Y-141667634D01*
X160899024Y-141667634D01*
G37*
G36*
X163439024Y-141667634D02*
X163517423Y-141691416D01*
X163589668Y-141730032D01*
X163652997Y-141782003D01*
X163704968Y-141845332D01*
X163743584Y-141917577D01*
X163767366Y-141995976D01*
X163776000Y-142083640D01*
X163776000Y-146206360D01*
X163767366Y-146294024D01*
X163743584Y-146372423D01*
X163704968Y-146444668D01*
X163652997Y-146507997D01*
X163589668Y-146559968D01*
X163517423Y-146598584D01*
X163439024Y-146622366D01*
X163351360Y-146631000D01*
X162276640Y-146631000D01*
X162188976Y-146622366D01*
X162110577Y-146598584D01*
X162038332Y-146559968D01*
X161975003Y-146507997D01*
X161923032Y-146444668D01*
X161884416Y-146372423D01*
X161860634Y-146294024D01*
X161852000Y-146206360D01*
X161852000Y-142083640D01*
X161860634Y-141995976D01*
X161884416Y-141917577D01*
X161923032Y-141845332D01*
X161975003Y-141782003D01*
X162038332Y-141730032D01*
X162110577Y-141691416D01*
X162188976Y-141667634D01*
X162276640Y-141659000D01*
X163351360Y-141659000D01*
X163439024Y-141667634D01*
X163439024Y-141667634D01*
G37*
G36*
X165979024Y-141667634D02*
X166057423Y-141691416D01*
X166129668Y-141730032D01*
X166192997Y-141782003D01*
X166244968Y-141845332D01*
X166283584Y-141917577D01*
X166307366Y-141995976D01*
X166316000Y-142083640D01*
X166316000Y-146206360D01*
X166307366Y-146294024D01*
X166283584Y-146372423D01*
X166244968Y-146444668D01*
X166192997Y-146507997D01*
X166129668Y-146559968D01*
X166057423Y-146598584D01*
X165979024Y-146622366D01*
X165891360Y-146631000D01*
X164816640Y-146631000D01*
X164728976Y-146622366D01*
X164650577Y-146598584D01*
X164578332Y-146559968D01*
X164515003Y-146507997D01*
X164463032Y-146444668D01*
X164424416Y-146372423D01*
X164400634Y-146294024D01*
X164392000Y-146206360D01*
X164392000Y-142083640D01*
X164400634Y-141995976D01*
X164424416Y-141917577D01*
X164463032Y-141845332D01*
X164515003Y-141782003D01*
X164578332Y-141730032D01*
X164650577Y-141691416D01*
X164728976Y-141667634D01*
X164816640Y-141659000D01*
X165891360Y-141659000D01*
X165979024Y-141667634D01*
X165979024Y-141667634D01*
G37*
G36*
X168519024Y-141667634D02*
X168597423Y-141691416D01*
X168669668Y-141730032D01*
X168732997Y-141782003D01*
X168784968Y-141845332D01*
X168823584Y-141917577D01*
X168847366Y-141995976D01*
X168856000Y-142083640D01*
X168856000Y-146206360D01*
X168847366Y-146294024D01*
X168823584Y-146372423D01*
X168784968Y-146444668D01*
X168732997Y-146507997D01*
X168669668Y-146559968D01*
X168597423Y-146598584D01*
X168519024Y-146622366D01*
X168431360Y-146631000D01*
X167356640Y-146631000D01*
X167268976Y-146622366D01*
X167190577Y-146598584D01*
X167118332Y-146559968D01*
X167055003Y-146507997D01*
X167003032Y-146444668D01*
X166964416Y-146372423D01*
X166940634Y-146294024D01*
X166932000Y-146206360D01*
X166932000Y-142083640D01*
X166940634Y-141995976D01*
X166964416Y-141917577D01*
X167003032Y-141845332D01*
X167055003Y-141782003D01*
X167118332Y-141730032D01*
X167190577Y-141691416D01*
X167268976Y-141667634D01*
X167356640Y-141659000D01*
X168431360Y-141659000D01*
X168519024Y-141667634D01*
X168519024Y-141667634D01*
G37*
G36*
X145659024Y-141667634D02*
X145737423Y-141691416D01*
X145809668Y-141730032D01*
X145872997Y-141782003D01*
X145924968Y-141845332D01*
X145963584Y-141917577D01*
X145987366Y-141995976D01*
X145996000Y-142083640D01*
X145996000Y-146206360D01*
X145987366Y-146294024D01*
X145963584Y-146372423D01*
X145924968Y-146444668D01*
X145872997Y-146507997D01*
X145809668Y-146559968D01*
X145737423Y-146598584D01*
X145659024Y-146622366D01*
X145571360Y-146631000D01*
X144496640Y-146631000D01*
X144408976Y-146622366D01*
X144330577Y-146598584D01*
X144258332Y-146559968D01*
X144195003Y-146507997D01*
X144143032Y-146444668D01*
X144104416Y-146372423D01*
X144080634Y-146294024D01*
X144072000Y-146206360D01*
X144072000Y-142083640D01*
X144080634Y-141995976D01*
X144104416Y-141917577D01*
X144143032Y-141845332D01*
X144195003Y-141782003D01*
X144258332Y-141730032D01*
X144330577Y-141691416D01*
X144408976Y-141667634D01*
X144496640Y-141659000D01*
X145571360Y-141659000D01*
X145659024Y-141667634D01*
X145659024Y-141667634D01*
G37*
G36*
X140579024Y-123379634D02*
X140657423Y-123403416D01*
X140729668Y-123442032D01*
X140792997Y-123494003D01*
X140844968Y-123557332D01*
X140883584Y-123629577D01*
X140907366Y-123707976D01*
X140916000Y-123795640D01*
X140916000Y-127918360D01*
X140907366Y-128006024D01*
X140883584Y-128084423D01*
X140844968Y-128156668D01*
X140792997Y-128219997D01*
X140729668Y-128271968D01*
X140657423Y-128310584D01*
X140579024Y-128334366D01*
X140491360Y-128343000D01*
X139416640Y-128343000D01*
X139328976Y-128334366D01*
X139250577Y-128310584D01*
X139178332Y-128271968D01*
X139115003Y-128219997D01*
X139063032Y-128156668D01*
X139024416Y-128084423D01*
X139000634Y-128006024D01*
X138992000Y-127918360D01*
X138992000Y-123795640D01*
X139000634Y-123707976D01*
X139024416Y-123629577D01*
X139063032Y-123557332D01*
X139115003Y-123494003D01*
X139178332Y-123442032D01*
X139250577Y-123403416D01*
X139328976Y-123379634D01*
X139416640Y-123371000D01*
X140491360Y-123371000D01*
X140579024Y-123379634D01*
X140579024Y-123379634D01*
G37*
G36*
X145659024Y-123379634D02*
X145737423Y-123403416D01*
X145809668Y-123442032D01*
X145872997Y-123494003D01*
X145924968Y-123557332D01*
X145963584Y-123629577D01*
X145987366Y-123707976D01*
X145996000Y-123795640D01*
X145996000Y-127918360D01*
X145987366Y-128006024D01*
X145963584Y-128084423D01*
X145924968Y-128156668D01*
X145872997Y-128219997D01*
X145809668Y-128271968D01*
X145737423Y-128310584D01*
X145659024Y-128334366D01*
X145571360Y-128343000D01*
X144496640Y-128343000D01*
X144408976Y-128334366D01*
X144330577Y-128310584D01*
X144258332Y-128271968D01*
X144195003Y-128219997D01*
X144143032Y-128156668D01*
X144104416Y-128084423D01*
X144080634Y-128006024D01*
X144072000Y-127918360D01*
X144072000Y-123795640D01*
X144080634Y-123707976D01*
X144104416Y-123629577D01*
X144143032Y-123557332D01*
X144195003Y-123494003D01*
X144258332Y-123442032D01*
X144330577Y-123403416D01*
X144408976Y-123379634D01*
X144496640Y-123371000D01*
X145571360Y-123371000D01*
X145659024Y-123379634D01*
X145659024Y-123379634D01*
G37*
G36*
X123136000Y-128343000D02*
X121212000Y-128343000D01*
X121212000Y-123371000D01*
X123136000Y-123371000D01*
X123136000Y-128343000D01*
X123136000Y-128343000D01*
G37*
G36*
X125339024Y-123379634D02*
X125417423Y-123403416D01*
X125489668Y-123442032D01*
X125552997Y-123494003D01*
X125604968Y-123557332D01*
X125643584Y-123629577D01*
X125667366Y-123707976D01*
X125676000Y-123795640D01*
X125676000Y-127918360D01*
X125667366Y-128006024D01*
X125643584Y-128084423D01*
X125604968Y-128156668D01*
X125552997Y-128219997D01*
X125489668Y-128271968D01*
X125417423Y-128310584D01*
X125339024Y-128334366D01*
X125251360Y-128343000D01*
X124176640Y-128343000D01*
X124088976Y-128334366D01*
X124010577Y-128310584D01*
X123938332Y-128271968D01*
X123875003Y-128219997D01*
X123823032Y-128156668D01*
X123784416Y-128084423D01*
X123760634Y-128006024D01*
X123752000Y-127918360D01*
X123752000Y-123795640D01*
X123760634Y-123707976D01*
X123784416Y-123629577D01*
X123823032Y-123557332D01*
X123875003Y-123494003D01*
X123938332Y-123442032D01*
X124010577Y-123403416D01*
X124088976Y-123379634D01*
X124176640Y-123371000D01*
X125251360Y-123371000D01*
X125339024Y-123379634D01*
X125339024Y-123379634D01*
G37*
G36*
X127879024Y-123379634D02*
X127957423Y-123403416D01*
X128029668Y-123442032D01*
X128092997Y-123494003D01*
X128144968Y-123557332D01*
X128183584Y-123629577D01*
X128207366Y-123707976D01*
X128216000Y-123795640D01*
X128216000Y-127918360D01*
X128207366Y-128006024D01*
X128183584Y-128084423D01*
X128144968Y-128156668D01*
X128092997Y-128219997D01*
X128029668Y-128271968D01*
X127957423Y-128310584D01*
X127879024Y-128334366D01*
X127791360Y-128343000D01*
X126716640Y-128343000D01*
X126628976Y-128334366D01*
X126550577Y-128310584D01*
X126478332Y-128271968D01*
X126415003Y-128219997D01*
X126363032Y-128156668D01*
X126324416Y-128084423D01*
X126300634Y-128006024D01*
X126292000Y-127918360D01*
X126292000Y-123795640D01*
X126300634Y-123707976D01*
X126324416Y-123629577D01*
X126363032Y-123557332D01*
X126415003Y-123494003D01*
X126478332Y-123442032D01*
X126550577Y-123403416D01*
X126628976Y-123379634D01*
X126716640Y-123371000D01*
X127791360Y-123371000D01*
X127879024Y-123379634D01*
X127879024Y-123379634D01*
G37*
G36*
X130419024Y-123379634D02*
X130497423Y-123403416D01*
X130569668Y-123442032D01*
X130632997Y-123494003D01*
X130684968Y-123557332D01*
X130723584Y-123629577D01*
X130747366Y-123707976D01*
X130756000Y-123795640D01*
X130756000Y-127918360D01*
X130747366Y-128006024D01*
X130723584Y-128084423D01*
X130684968Y-128156668D01*
X130632997Y-128219997D01*
X130569668Y-128271968D01*
X130497423Y-128310584D01*
X130419024Y-128334366D01*
X130331360Y-128343000D01*
X129256640Y-128343000D01*
X129168976Y-128334366D01*
X129090577Y-128310584D01*
X129018332Y-128271968D01*
X128955003Y-128219997D01*
X128903032Y-128156668D01*
X128864416Y-128084423D01*
X128840634Y-128006024D01*
X128832000Y-127918360D01*
X128832000Y-123795640D01*
X128840634Y-123707976D01*
X128864416Y-123629577D01*
X128903032Y-123557332D01*
X128955003Y-123494003D01*
X129018332Y-123442032D01*
X129090577Y-123403416D01*
X129168976Y-123379634D01*
X129256640Y-123371000D01*
X130331360Y-123371000D01*
X130419024Y-123379634D01*
X130419024Y-123379634D01*
G37*
G36*
X132959024Y-123379634D02*
X133037423Y-123403416D01*
X133109668Y-123442032D01*
X133172997Y-123494003D01*
X133224968Y-123557332D01*
X133263584Y-123629577D01*
X133287366Y-123707976D01*
X133296000Y-123795640D01*
X133296000Y-127918360D01*
X133287366Y-128006024D01*
X133263584Y-128084423D01*
X133224968Y-128156668D01*
X133172997Y-128219997D01*
X133109668Y-128271968D01*
X133037423Y-128310584D01*
X132959024Y-128334366D01*
X132871360Y-128343000D01*
X131796640Y-128343000D01*
X131708976Y-128334366D01*
X131630577Y-128310584D01*
X131558332Y-128271968D01*
X131495003Y-128219997D01*
X131443032Y-128156668D01*
X131404416Y-128084423D01*
X131380634Y-128006024D01*
X131372000Y-127918360D01*
X131372000Y-123795640D01*
X131380634Y-123707976D01*
X131404416Y-123629577D01*
X131443032Y-123557332D01*
X131495003Y-123494003D01*
X131558332Y-123442032D01*
X131630577Y-123403416D01*
X131708976Y-123379634D01*
X131796640Y-123371000D01*
X132871360Y-123371000D01*
X132959024Y-123379634D01*
X132959024Y-123379634D01*
G37*
G36*
X135499024Y-123379634D02*
X135577423Y-123403416D01*
X135649668Y-123442032D01*
X135712997Y-123494003D01*
X135764968Y-123557332D01*
X135803584Y-123629577D01*
X135827366Y-123707976D01*
X135836000Y-123795640D01*
X135836000Y-127918360D01*
X135827366Y-128006024D01*
X135803584Y-128084423D01*
X135764968Y-128156668D01*
X135712997Y-128219997D01*
X135649668Y-128271968D01*
X135577423Y-128310584D01*
X135499024Y-128334366D01*
X135411360Y-128343000D01*
X134336640Y-128343000D01*
X134248976Y-128334366D01*
X134170577Y-128310584D01*
X134098332Y-128271968D01*
X134035003Y-128219997D01*
X133983032Y-128156668D01*
X133944416Y-128084423D01*
X133920634Y-128006024D01*
X133912000Y-127918360D01*
X133912000Y-123795640D01*
X133920634Y-123707976D01*
X133944416Y-123629577D01*
X133983032Y-123557332D01*
X134035003Y-123494003D01*
X134098332Y-123442032D01*
X134170577Y-123403416D01*
X134248976Y-123379634D01*
X134336640Y-123371000D01*
X135411360Y-123371000D01*
X135499024Y-123379634D01*
X135499024Y-123379634D01*
G37*
G36*
X138039024Y-123379634D02*
X138117423Y-123403416D01*
X138189668Y-123442032D01*
X138252997Y-123494003D01*
X138304968Y-123557332D01*
X138343584Y-123629577D01*
X138367366Y-123707976D01*
X138376000Y-123795640D01*
X138376000Y-127918360D01*
X138367366Y-128006024D01*
X138343584Y-128084423D01*
X138304968Y-128156668D01*
X138252997Y-128219997D01*
X138189668Y-128271968D01*
X138117423Y-128310584D01*
X138039024Y-128334366D01*
X137951360Y-128343000D01*
X136876640Y-128343000D01*
X136788976Y-128334366D01*
X136710577Y-128310584D01*
X136638332Y-128271968D01*
X136575003Y-128219997D01*
X136523032Y-128156668D01*
X136484416Y-128084423D01*
X136460634Y-128006024D01*
X136452000Y-127918360D01*
X136452000Y-123795640D01*
X136460634Y-123707976D01*
X136484416Y-123629577D01*
X136523032Y-123557332D01*
X136575003Y-123494003D01*
X136638332Y-123442032D01*
X136710577Y-123403416D01*
X136788976Y-123379634D01*
X136876640Y-123371000D01*
X137951360Y-123371000D01*
X138039024Y-123379634D01*
X138039024Y-123379634D01*
G37*
G36*
X143119024Y-123379634D02*
X143197423Y-123403416D01*
X143269668Y-123442032D01*
X143332997Y-123494003D01*
X143384968Y-123557332D01*
X143423584Y-123629577D01*
X143447366Y-123707976D01*
X143456000Y-123795640D01*
X143456000Y-127918360D01*
X143447366Y-128006024D01*
X143423584Y-128084423D01*
X143384968Y-128156668D01*
X143332997Y-128219997D01*
X143269668Y-128271968D01*
X143197423Y-128310584D01*
X143119024Y-128334366D01*
X143031360Y-128343000D01*
X141956640Y-128343000D01*
X141868976Y-128334366D01*
X141790577Y-128310584D01*
X141718332Y-128271968D01*
X141655003Y-128219997D01*
X141603032Y-128156668D01*
X141564416Y-128084423D01*
X141540634Y-128006024D01*
X141532000Y-127918360D01*
X141532000Y-123795640D01*
X141540634Y-123707976D01*
X141564416Y-123629577D01*
X141603032Y-123557332D01*
X141655003Y-123494003D01*
X141718332Y-123442032D01*
X141790577Y-123403416D01*
X141868976Y-123379634D01*
X141956640Y-123371000D01*
X143031360Y-123371000D01*
X143119024Y-123379634D01*
X143119024Y-123379634D01*
G37*
G36*
X148199024Y-123379634D02*
X148277423Y-123403416D01*
X148349668Y-123442032D01*
X148412997Y-123494003D01*
X148464968Y-123557332D01*
X148503584Y-123629577D01*
X148527366Y-123707976D01*
X148536000Y-123795640D01*
X148536000Y-127918360D01*
X148527366Y-128006024D01*
X148503584Y-128084423D01*
X148464968Y-128156668D01*
X148412997Y-128219997D01*
X148349668Y-128271968D01*
X148277423Y-128310584D01*
X148199024Y-128334366D01*
X148111360Y-128343000D01*
X147036640Y-128343000D01*
X146948976Y-128334366D01*
X146870577Y-128310584D01*
X146798332Y-128271968D01*
X146735003Y-128219997D01*
X146683032Y-128156668D01*
X146644416Y-128084423D01*
X146620634Y-128006024D01*
X146612000Y-127918360D01*
X146612000Y-123795640D01*
X146620634Y-123707976D01*
X146644416Y-123629577D01*
X146683032Y-123557332D01*
X146735003Y-123494003D01*
X146798332Y-123442032D01*
X146870577Y-123403416D01*
X146948976Y-123379634D01*
X147036640Y-123371000D01*
X148111360Y-123371000D01*
X148199024Y-123379634D01*
X148199024Y-123379634D01*
G37*
G36*
X150739024Y-123379634D02*
X150817423Y-123403416D01*
X150889668Y-123442032D01*
X150952997Y-123494003D01*
X151004968Y-123557332D01*
X151043584Y-123629577D01*
X151067366Y-123707976D01*
X151076000Y-123795640D01*
X151076000Y-127918360D01*
X151067366Y-128006024D01*
X151043584Y-128084423D01*
X151004968Y-128156668D01*
X150952997Y-128219997D01*
X150889668Y-128271968D01*
X150817423Y-128310584D01*
X150739024Y-128334366D01*
X150651360Y-128343000D01*
X149576640Y-128343000D01*
X149488976Y-128334366D01*
X149410577Y-128310584D01*
X149338332Y-128271968D01*
X149275003Y-128219997D01*
X149223032Y-128156668D01*
X149184416Y-128084423D01*
X149160634Y-128006024D01*
X149152000Y-127918360D01*
X149152000Y-123795640D01*
X149160634Y-123707976D01*
X149184416Y-123629577D01*
X149223032Y-123557332D01*
X149275003Y-123494003D01*
X149338332Y-123442032D01*
X149410577Y-123403416D01*
X149488976Y-123379634D01*
X149576640Y-123371000D01*
X150651360Y-123371000D01*
X150739024Y-123379634D01*
X150739024Y-123379634D01*
G37*
G36*
X153279024Y-123379634D02*
X153357423Y-123403416D01*
X153429668Y-123442032D01*
X153492997Y-123494003D01*
X153544968Y-123557332D01*
X153583584Y-123629577D01*
X153607366Y-123707976D01*
X153616000Y-123795640D01*
X153616000Y-127918360D01*
X153607366Y-128006024D01*
X153583584Y-128084423D01*
X153544968Y-128156668D01*
X153492997Y-128219997D01*
X153429668Y-128271968D01*
X153357423Y-128310584D01*
X153279024Y-128334366D01*
X153191360Y-128343000D01*
X152116640Y-128343000D01*
X152028976Y-128334366D01*
X151950577Y-128310584D01*
X151878332Y-128271968D01*
X151815003Y-128219997D01*
X151763032Y-128156668D01*
X151724416Y-128084423D01*
X151700634Y-128006024D01*
X151692000Y-127918360D01*
X151692000Y-123795640D01*
X151700634Y-123707976D01*
X151724416Y-123629577D01*
X151763032Y-123557332D01*
X151815003Y-123494003D01*
X151878332Y-123442032D01*
X151950577Y-123403416D01*
X152028976Y-123379634D01*
X152116640Y-123371000D01*
X153191360Y-123371000D01*
X153279024Y-123379634D01*
X153279024Y-123379634D01*
G37*
G36*
X155819024Y-123379634D02*
X155897423Y-123403416D01*
X155969668Y-123442032D01*
X156032997Y-123494003D01*
X156084968Y-123557332D01*
X156123584Y-123629577D01*
X156147366Y-123707976D01*
X156156000Y-123795640D01*
X156156000Y-127918360D01*
X156147366Y-128006024D01*
X156123584Y-128084423D01*
X156084968Y-128156668D01*
X156032997Y-128219997D01*
X155969668Y-128271968D01*
X155897423Y-128310584D01*
X155819024Y-128334366D01*
X155731360Y-128343000D01*
X154656640Y-128343000D01*
X154568976Y-128334366D01*
X154490577Y-128310584D01*
X154418332Y-128271968D01*
X154355003Y-128219997D01*
X154303032Y-128156668D01*
X154264416Y-128084423D01*
X154240634Y-128006024D01*
X154232000Y-127918360D01*
X154232000Y-123795640D01*
X154240634Y-123707976D01*
X154264416Y-123629577D01*
X154303032Y-123557332D01*
X154355003Y-123494003D01*
X154418332Y-123442032D01*
X154490577Y-123403416D01*
X154568976Y-123379634D01*
X154656640Y-123371000D01*
X155731360Y-123371000D01*
X155819024Y-123379634D01*
X155819024Y-123379634D01*
G37*
G36*
X158359024Y-123379634D02*
X158437423Y-123403416D01*
X158509668Y-123442032D01*
X158572997Y-123494003D01*
X158624968Y-123557332D01*
X158663584Y-123629577D01*
X158687366Y-123707976D01*
X158696000Y-123795640D01*
X158696000Y-127918360D01*
X158687366Y-128006024D01*
X158663584Y-128084423D01*
X158624968Y-128156668D01*
X158572997Y-128219997D01*
X158509668Y-128271968D01*
X158437423Y-128310584D01*
X158359024Y-128334366D01*
X158271360Y-128343000D01*
X157196640Y-128343000D01*
X157108976Y-128334366D01*
X157030577Y-128310584D01*
X156958332Y-128271968D01*
X156895003Y-128219997D01*
X156843032Y-128156668D01*
X156804416Y-128084423D01*
X156780634Y-128006024D01*
X156772000Y-127918360D01*
X156772000Y-123795640D01*
X156780634Y-123707976D01*
X156804416Y-123629577D01*
X156843032Y-123557332D01*
X156895003Y-123494003D01*
X156958332Y-123442032D01*
X157030577Y-123403416D01*
X157108976Y-123379634D01*
X157196640Y-123371000D01*
X158271360Y-123371000D01*
X158359024Y-123379634D01*
X158359024Y-123379634D01*
G37*
G36*
X160899024Y-123379634D02*
X160977423Y-123403416D01*
X161049668Y-123442032D01*
X161112997Y-123494003D01*
X161164968Y-123557332D01*
X161203584Y-123629577D01*
X161227366Y-123707976D01*
X161236000Y-123795640D01*
X161236000Y-127918360D01*
X161227366Y-128006024D01*
X161203584Y-128084423D01*
X161164968Y-128156668D01*
X161112997Y-128219997D01*
X161049668Y-128271968D01*
X160977423Y-128310584D01*
X160899024Y-128334366D01*
X160811360Y-128343000D01*
X159736640Y-128343000D01*
X159648976Y-128334366D01*
X159570577Y-128310584D01*
X159498332Y-128271968D01*
X159435003Y-128219997D01*
X159383032Y-128156668D01*
X159344416Y-128084423D01*
X159320634Y-128006024D01*
X159312000Y-127918360D01*
X159312000Y-123795640D01*
X159320634Y-123707976D01*
X159344416Y-123629577D01*
X159383032Y-123557332D01*
X159435003Y-123494003D01*
X159498332Y-123442032D01*
X159570577Y-123403416D01*
X159648976Y-123379634D01*
X159736640Y-123371000D01*
X160811360Y-123371000D01*
X160899024Y-123379634D01*
X160899024Y-123379634D01*
G37*
G36*
X163439024Y-123379634D02*
X163517423Y-123403416D01*
X163589668Y-123442032D01*
X163652997Y-123494003D01*
X163704968Y-123557332D01*
X163743584Y-123629577D01*
X163767366Y-123707976D01*
X163776000Y-123795640D01*
X163776000Y-127918360D01*
X163767366Y-128006024D01*
X163743584Y-128084423D01*
X163704968Y-128156668D01*
X163652997Y-128219997D01*
X163589668Y-128271968D01*
X163517423Y-128310584D01*
X163439024Y-128334366D01*
X163351360Y-128343000D01*
X162276640Y-128343000D01*
X162188976Y-128334366D01*
X162110577Y-128310584D01*
X162038332Y-128271968D01*
X161975003Y-128219997D01*
X161923032Y-128156668D01*
X161884416Y-128084423D01*
X161860634Y-128006024D01*
X161852000Y-127918360D01*
X161852000Y-123795640D01*
X161860634Y-123707976D01*
X161884416Y-123629577D01*
X161923032Y-123557332D01*
X161975003Y-123494003D01*
X162038332Y-123442032D01*
X162110577Y-123403416D01*
X162188976Y-123379634D01*
X162276640Y-123371000D01*
X163351360Y-123371000D01*
X163439024Y-123379634D01*
X163439024Y-123379634D01*
G37*
G36*
X165979024Y-123379634D02*
X166057423Y-123403416D01*
X166129668Y-123442032D01*
X166192997Y-123494003D01*
X166244968Y-123557332D01*
X166283584Y-123629577D01*
X166307366Y-123707976D01*
X166316000Y-123795640D01*
X166316000Y-127918360D01*
X166307366Y-128006024D01*
X166283584Y-128084423D01*
X166244968Y-128156668D01*
X166192997Y-128219997D01*
X166129668Y-128271968D01*
X166057423Y-128310584D01*
X165979024Y-128334366D01*
X165891360Y-128343000D01*
X164816640Y-128343000D01*
X164728976Y-128334366D01*
X164650577Y-128310584D01*
X164578332Y-128271968D01*
X164515003Y-128219997D01*
X164463032Y-128156668D01*
X164424416Y-128084423D01*
X164400634Y-128006024D01*
X164392000Y-127918360D01*
X164392000Y-123795640D01*
X164400634Y-123707976D01*
X164424416Y-123629577D01*
X164463032Y-123557332D01*
X164515003Y-123494003D01*
X164578332Y-123442032D01*
X164650577Y-123403416D01*
X164728976Y-123379634D01*
X164816640Y-123371000D01*
X165891360Y-123371000D01*
X165979024Y-123379634D01*
X165979024Y-123379634D01*
G37*
G36*
X171059024Y-123379634D02*
X171137423Y-123403416D01*
X171209668Y-123442032D01*
X171272997Y-123494003D01*
X171324968Y-123557332D01*
X171363584Y-123629577D01*
X171387366Y-123707976D01*
X171396000Y-123795640D01*
X171396000Y-127918360D01*
X171387366Y-128006024D01*
X171363584Y-128084423D01*
X171324968Y-128156668D01*
X171272997Y-128219997D01*
X171209668Y-128271968D01*
X171137423Y-128310584D01*
X171059024Y-128334366D01*
X170971360Y-128343000D01*
X169896640Y-128343000D01*
X169808976Y-128334366D01*
X169730577Y-128310584D01*
X169658332Y-128271968D01*
X169595003Y-128219997D01*
X169543032Y-128156668D01*
X169504416Y-128084423D01*
X169480634Y-128006024D01*
X169472000Y-127918360D01*
X169472000Y-123795640D01*
X169480634Y-123707976D01*
X169504416Y-123629577D01*
X169543032Y-123557332D01*
X169595003Y-123494003D01*
X169658332Y-123442032D01*
X169730577Y-123403416D01*
X169808976Y-123379634D01*
X169896640Y-123371000D01*
X170971360Y-123371000D01*
X171059024Y-123379634D01*
X171059024Y-123379634D01*
G37*
G36*
X168519024Y-123379634D02*
X168597423Y-123403416D01*
X168669668Y-123442032D01*
X168732997Y-123494003D01*
X168784968Y-123557332D01*
X168823584Y-123629577D01*
X168847366Y-123707976D01*
X168856000Y-123795640D01*
X168856000Y-127918360D01*
X168847366Y-128006024D01*
X168823584Y-128084423D01*
X168784968Y-128156668D01*
X168732997Y-128219997D01*
X168669668Y-128271968D01*
X168597423Y-128310584D01*
X168519024Y-128334366D01*
X168431360Y-128343000D01*
X167356640Y-128343000D01*
X167268976Y-128334366D01*
X167190577Y-128310584D01*
X167118332Y-128271968D01*
X167055003Y-128219997D01*
X167003032Y-128156668D01*
X166964416Y-128084423D01*
X166940634Y-128006024D01*
X166932000Y-127918360D01*
X166932000Y-123795640D01*
X166940634Y-123707976D01*
X166964416Y-123629577D01*
X167003032Y-123557332D01*
X167055003Y-123494003D01*
X167118332Y-123442032D01*
X167190577Y-123403416D01*
X167268976Y-123379634D01*
X167356640Y-123371000D01*
X168431360Y-123371000D01*
X168519024Y-123379634D01*
X168519024Y-123379634D01*
G37*
G36*
X148391873Y-112863417D02*
X149079151Y-113440112D01*
X149079151Y-113440113D01*
X148747803Y-113834998D01*
X147857855Y-114895597D01*
X147857854Y-114895597D01*
X147281159Y-114411693D01*
X146593881Y-113834998D01*
X146593881Y-113834997D01*
X147252709Y-113049837D01*
X147815177Y-112379513D01*
X147815178Y-112379513D01*
X148391873Y-112863417D01*
X148391873Y-112863417D01*
G37*
G36*
X159050372Y-111178702D02*
X158720441Y-113049837D01*
X157095508Y-112763318D01*
X157425439Y-110892183D01*
X159050372Y-111178702D01*
X159050372Y-111178702D01*
G37*
G36*
X149931954Y-110892183D02*
X150686119Y-111525002D01*
X150686119Y-111525003D01*
X150354771Y-111919888D01*
X149464823Y-112980487D01*
X149464822Y-112980487D01*
X148888127Y-112496583D01*
X148200849Y-111919888D01*
X148200849Y-111919887D01*
X148784131Y-111224759D01*
X149422145Y-110464403D01*
X149422146Y-110464403D01*
X149931954Y-110892183D01*
X149931954Y-110892183D01*
G37*
G36*
X138564222Y-111377145D02*
X137056851Y-112533792D01*
X136052394Y-111224759D01*
X137559765Y-110068112D01*
X138564222Y-111377145D01*
X138564222Y-111377145D01*
G37*
G36*
X140547606Y-109855241D02*
X139040235Y-111011888D01*
X138035778Y-109702855D01*
X139543149Y-108546208D01*
X140547606Y-109855241D01*
X140547606Y-109855241D01*
G37*
G36*
X159484492Y-108716682D02*
X159154561Y-110587817D01*
X157529628Y-110301298D01*
X157859559Y-108430163D01*
X159484492Y-108716682D01*
X159484492Y-108716682D01*
G37*
G36*
X168374492Y-106813318D02*
X166749559Y-107099837D01*
X166419628Y-105228702D01*
X168044561Y-104942183D01*
X168374492Y-106813318D01*
X168374492Y-106813318D01*
G37*
G36*
X107459214Y-105410000D02*
X106045000Y-106824214D01*
X104630786Y-105410000D01*
X106045000Y-103995786D01*
X107459214Y-105410000D01*
X107459214Y-105410000D01*
G37*
G36*
X129387817Y-105484561D02*
X127516682Y-105814492D01*
X127230163Y-104189559D01*
X129101298Y-103859628D01*
X129387817Y-105484561D01*
X129387817Y-105484561D01*
G37*
G36*
X131849837Y-105050441D02*
X129978702Y-105380372D01*
X129692183Y-103755439D01*
X131563318Y-103425508D01*
X131849837Y-105050441D01*
X131849837Y-105050441D01*
G37*
G36*
X167940372Y-104351298D02*
X166315439Y-104637817D01*
X165985508Y-102766682D01*
X167610441Y-102480163D01*
X167940372Y-104351298D01*
X167940372Y-104351298D01*
G37*
G36*
X100852876Y-99036315D02*
X100852879Y-99036316D01*
X100852880Y-99036316D01*
X101041381Y-99093497D01*
X101041383Y-99093498D01*
X101215106Y-99186355D01*
X101367374Y-99311318D01*
X101492337Y-99463586D01*
X101585194Y-99637309D01*
X101642377Y-99825816D01*
X101661684Y-100021846D01*
X101642377Y-100217876D01*
X101585194Y-100406383D01*
X101492337Y-100580106D01*
X101367374Y-100732374D01*
X101215106Y-100857337D01*
X101215104Y-100857338D01*
X101041381Y-100950195D01*
X100852880Y-101007376D01*
X100852879Y-101007376D01*
X100852876Y-101007377D01*
X100705970Y-101021846D01*
X100607722Y-101021846D01*
X100460816Y-101007377D01*
X100460813Y-101007376D01*
X100460812Y-101007376D01*
X100272311Y-100950195D01*
X100098588Y-100857338D01*
X100098586Y-100857337D01*
X99946318Y-100732374D01*
X99821355Y-100580106D01*
X99728498Y-100406383D01*
X99671315Y-100217876D01*
X99652008Y-100021846D01*
X99671315Y-99825816D01*
X99728498Y-99637309D01*
X99821355Y-99463586D01*
X99946318Y-99311318D01*
X100098586Y-99186355D01*
X100272309Y-99093498D01*
X100272311Y-99093497D01*
X100460812Y-99036316D01*
X100460813Y-99036316D01*
X100460816Y-99036315D01*
X100607722Y-99021846D01*
X100705970Y-99021846D01*
X100852876Y-99036315D01*
X100852876Y-99036315D01*
G37*
G36*
X194891000Y-100974500D02*
X193983000Y-100974500D01*
X193983000Y-99431500D01*
X194891000Y-99431500D01*
X194891000Y-100974500D01*
X194891000Y-100974500D01*
G37*
G36*
X193621000Y-100974500D02*
X192713000Y-100974500D01*
X192713000Y-99431500D01*
X193621000Y-99431500D01*
X193621000Y-100974500D01*
X193621000Y-100974500D01*
G37*
G36*
X196161000Y-100974500D02*
X195253000Y-100974500D01*
X195253000Y-99431500D01*
X196161000Y-99431500D01*
X196161000Y-100974500D01*
X196161000Y-100974500D01*
G37*
G36*
X197431000Y-100974500D02*
X196523000Y-100974500D01*
X196523000Y-99431500D01*
X197431000Y-99431500D01*
X197431000Y-100974500D01*
X197431000Y-100974500D01*
G37*
G36*
X190700000Y-97121796D02*
X190702402Y-97146182D01*
X190709515Y-97169631D01*
X190721063Y-97191235D01*
X190751189Y-97236322D01*
X190826571Y-97418311D01*
X190837026Y-97470872D01*
X190865000Y-97611507D01*
X190865000Y-97808493D01*
X190849628Y-97885770D01*
X190826571Y-98001689D01*
X190751189Y-98183678D01*
X190721063Y-98228765D01*
X190709515Y-98250368D01*
X190703998Y-98268555D01*
X190689307Y-98280612D01*
X190673771Y-98299542D01*
X190641751Y-98347463D01*
X190502463Y-98486751D01*
X190338678Y-98596189D01*
X190156689Y-98671571D01*
X190040770Y-98694628D01*
X189963493Y-98710000D01*
X189766507Y-98710000D01*
X189689230Y-98694628D01*
X189573311Y-98671571D01*
X189391322Y-98596189D01*
X189227537Y-98486751D01*
X189088249Y-98347463D01*
X189056229Y-98299542D01*
X189040694Y-98280612D01*
X189026001Y-98268554D01*
X189020485Y-98250369D01*
X189008937Y-98228765D01*
X188978811Y-98183678D01*
X188903429Y-98001689D01*
X188880372Y-97885770D01*
X188865000Y-97808493D01*
X188865000Y-97611507D01*
X188892974Y-97470872D01*
X188903429Y-97418311D01*
X188978811Y-97236322D01*
X189008937Y-97191235D01*
X189020485Y-97169632D01*
X189027598Y-97146183D01*
X189030000Y-97121796D01*
X189030000Y-95558000D01*
X190700000Y-95558000D01*
X190700000Y-97121796D01*
X190700000Y-97121796D01*
G37*
G36*
X215524393Y-95318553D02*
X215633872Y-95340330D01*
X215943252Y-95468479D01*
X216221687Y-95654523D01*
X216458477Y-95891313D01*
X216644521Y-96169748D01*
X216772670Y-96479128D01*
X216772670Y-96479129D01*
X216838000Y-96807563D01*
X216838000Y-97142437D01*
X216828292Y-97191243D01*
X216772670Y-97470872D01*
X216644521Y-97780252D01*
X216458477Y-98058687D01*
X216221687Y-98295477D01*
X215943252Y-98481521D01*
X215633872Y-98609670D01*
X215524393Y-98631447D01*
X215305437Y-98675000D01*
X214970563Y-98675000D01*
X214751607Y-98631447D01*
X214642128Y-98609670D01*
X214332748Y-98481521D01*
X214054313Y-98295477D01*
X213817523Y-98058687D01*
X213631479Y-97780252D01*
X213503330Y-97470872D01*
X213447708Y-97191243D01*
X213438000Y-97142437D01*
X213438000Y-96807563D01*
X213503330Y-96479129D01*
X213503330Y-96479128D01*
X213631479Y-96169748D01*
X213817523Y-95891313D01*
X214054313Y-95654523D01*
X214332748Y-95468479D01*
X214642128Y-95340330D01*
X214751607Y-95318553D01*
X214970563Y-95275000D01*
X215305437Y-95275000D01*
X215524393Y-95318553D01*
X215524393Y-95318553D01*
G37*
G36*
X174674471Y-97782756D02*
X173245529Y-98607756D01*
X172295529Y-96962308D01*
X173724471Y-96137308D01*
X174674471Y-97782756D01*
X174674471Y-97782756D01*
G37*
G36*
X83253893Y-95128053D02*
X83363372Y-95149830D01*
X83672752Y-95277979D01*
X83951187Y-95464023D01*
X84187977Y-95700813D01*
X84374021Y-95979248D01*
X84502170Y-96288628D01*
X84567500Y-96617065D01*
X84567500Y-96951935D01*
X84502170Y-97280372D01*
X84374021Y-97589752D01*
X84187977Y-97868187D01*
X83951187Y-98104977D01*
X83672752Y-98291021D01*
X83363372Y-98419170D01*
X83253893Y-98440947D01*
X83034937Y-98484500D01*
X82700063Y-98484500D01*
X82481107Y-98440947D01*
X82371628Y-98419170D01*
X82062248Y-98291021D01*
X81783813Y-98104977D01*
X81547023Y-97868187D01*
X81360979Y-97589752D01*
X81232830Y-97280372D01*
X81167500Y-96951935D01*
X81167500Y-96617065D01*
X81232830Y-96288628D01*
X81360979Y-95979248D01*
X81547023Y-95700813D01*
X81783813Y-95464023D01*
X82062248Y-95277979D01*
X82371628Y-95149830D01*
X82481107Y-95128053D01*
X82700063Y-95084500D01*
X83034937Y-95084500D01*
X83253893Y-95128053D01*
X83253893Y-95128053D01*
G37*
G36*
X126046249Y-96091702D02*
X125414821Y-97616104D01*
X123659449Y-96889006D01*
X124290877Y-95364604D01*
X126046249Y-96091702D01*
X126046249Y-96091702D01*
G37*
G36*
X123736551Y-95134994D02*
X123105123Y-96659396D01*
X121349751Y-95932298D01*
X121981179Y-94407896D01*
X123736551Y-95134994D01*
X123736551Y-95134994D01*
G37*
G36*
X173424471Y-95617692D02*
X171995529Y-96442692D01*
X171045529Y-94797244D01*
X172474471Y-93972244D01*
X173424471Y-95617692D01*
X173424471Y-95617692D01*
G37*
G36*
X190040770Y-91725372D02*
X190156689Y-91748429D01*
X190338678Y-91823811D01*
X190502463Y-91933249D01*
X190641751Y-92072537D01*
X190751189Y-92236322D01*
X190826571Y-92418311D01*
X190865000Y-92611509D01*
X190865000Y-92808491D01*
X190826571Y-93001689D01*
X190751189Y-93183678D01*
X190721063Y-93228765D01*
X190709515Y-93250368D01*
X190702402Y-93273817D01*
X190700000Y-93298204D01*
X190700000Y-94942000D01*
X189030000Y-94942000D01*
X189030000Y-93298204D01*
X189027598Y-93273818D01*
X189020485Y-93250369D01*
X189008937Y-93228765D01*
X188978811Y-93183678D01*
X188903429Y-93001689D01*
X188865000Y-92808491D01*
X188865000Y-92611509D01*
X188903429Y-92418311D01*
X188978811Y-92236322D01*
X189088249Y-92072537D01*
X189227537Y-91933249D01*
X189391322Y-91823811D01*
X189573311Y-91748429D01*
X189689230Y-91725372D01*
X189766507Y-91710000D01*
X189963493Y-91710000D01*
X190040770Y-91725372D01*
X190040770Y-91725372D01*
G37*
G36*
X194891000Y-94624500D02*
X193983000Y-94624500D01*
X193983000Y-93081500D01*
X194891000Y-93081500D01*
X194891000Y-94624500D01*
X194891000Y-94624500D01*
G37*
G36*
X193621000Y-94624500D02*
X192713000Y-94624500D01*
X192713000Y-93081500D01*
X193621000Y-93081500D01*
X193621000Y-94624500D01*
X193621000Y-94624500D01*
G37*
G36*
X196161000Y-94624500D02*
X195253000Y-94624500D01*
X195253000Y-93081500D01*
X196161000Y-93081500D01*
X196161000Y-94624500D01*
X196161000Y-94624500D01*
G37*
G36*
X197431000Y-94624500D02*
X196523000Y-94624500D01*
X196523000Y-93081500D01*
X197431000Y-93081500D01*
X197431000Y-94624500D01*
X197431000Y-94624500D01*
G37*
G36*
X117078000Y-92694000D02*
X115078000Y-92694000D01*
X115078000Y-90694000D01*
X117078000Y-90694000D01*
X117078000Y-92694000D01*
X117078000Y-92694000D01*
G37*
G36*
X215514393Y-86888553D02*
X215623872Y-86910330D01*
X215933252Y-87038479D01*
X216211687Y-87224523D01*
X216448477Y-87461313D01*
X216634521Y-87739748D01*
X216762670Y-88049128D01*
X216777414Y-88123253D01*
X216828000Y-88377563D01*
X216828000Y-88712437D01*
X216808323Y-88811358D01*
X216762670Y-89040872D01*
X216634521Y-89350252D01*
X216448477Y-89628687D01*
X216211687Y-89865477D01*
X215933252Y-90051521D01*
X215623872Y-90179670D01*
X215514393Y-90201447D01*
X215295437Y-90245000D01*
X214960563Y-90245000D01*
X214741607Y-90201447D01*
X214632128Y-90179670D01*
X214322748Y-90051521D01*
X214044313Y-89865477D01*
X213807523Y-89628687D01*
X213621479Y-89350252D01*
X213493330Y-89040872D01*
X213447677Y-88811358D01*
X213428000Y-88712437D01*
X213428000Y-88377563D01*
X213478586Y-88123253D01*
X213493330Y-88049128D01*
X213621479Y-87739748D01*
X213807523Y-87461313D01*
X214044313Y-87224523D01*
X214322748Y-87038479D01*
X214632128Y-86910330D01*
X214741607Y-86888553D01*
X214960563Y-86845000D01*
X215295437Y-86845000D01*
X215514393Y-86888553D01*
X215514393Y-86888553D01*
G37*
G36*
X195287770Y-87915372D02*
X195403689Y-87938429D01*
X195585678Y-88013811D01*
X195749463Y-88123249D01*
X195888751Y-88262537D01*
X195998189Y-88426322D01*
X196073571Y-88608311D01*
X196112000Y-88801509D01*
X196112000Y-88998491D01*
X196073571Y-89191689D01*
X195998189Y-89373678D01*
X195888751Y-89537463D01*
X195749463Y-89676751D01*
X195585678Y-89786189D01*
X195403689Y-89861571D01*
X195287770Y-89884628D01*
X195210493Y-89900000D01*
X195013507Y-89900000D01*
X194936230Y-89884628D01*
X194820311Y-89861571D01*
X194638322Y-89786189D01*
X194474537Y-89676751D01*
X194335249Y-89537463D01*
X194225811Y-89373678D01*
X194150429Y-89191689D01*
X194112000Y-88998491D01*
X194112000Y-88801509D01*
X194150429Y-88608311D01*
X194225811Y-88426322D01*
X194335249Y-88262537D01*
X194474537Y-88123249D01*
X194638322Y-88013811D01*
X194820311Y-87938429D01*
X194936230Y-87915372D01*
X195013507Y-87900000D01*
X195210493Y-87900000D01*
X195287770Y-87915372D01*
X195287770Y-87915372D01*
G37*
G36*
X198612000Y-89900000D02*
X196612000Y-89900000D01*
X196612000Y-87900000D01*
X198612000Y-87900000D01*
X198612000Y-89900000D01*
X198612000Y-89900000D01*
G37*
G36*
X190254521Y-88034586D02*
X190418309Y-88102429D01*
X190565720Y-88200926D01*
X190691074Y-88326280D01*
X190789571Y-88473691D01*
X190857414Y-88637479D01*
X190892000Y-88811356D01*
X190892000Y-88988644D01*
X190857414Y-89162521D01*
X190789571Y-89326309D01*
X190691074Y-89473720D01*
X190565720Y-89599074D01*
X190418309Y-89697571D01*
X190254521Y-89765414D01*
X190080644Y-89800000D01*
X189903356Y-89800000D01*
X189729480Y-89765414D01*
X189679025Y-89744515D01*
X189655576Y-89737402D01*
X189631190Y-89735000D01*
X186566200Y-89735000D01*
X186566200Y-88065000D01*
X189631190Y-88065000D01*
X189655576Y-88062598D01*
X189679025Y-88055485D01*
X189729480Y-88034586D01*
X189903356Y-88000000D01*
X190080644Y-88000000D01*
X190254521Y-88034586D01*
X190254521Y-88034586D01*
G37*
G36*
X182548432Y-88013022D02*
X182702033Y-88059617D01*
X182726067Y-88064398D01*
X182738319Y-88065000D01*
X185823200Y-88065000D01*
X185823200Y-89735000D01*
X182738319Y-89735000D01*
X182713933Y-89737402D01*
X182702033Y-89740383D01*
X182548432Y-89786978D01*
X182416211Y-89800000D01*
X182327789Y-89800000D01*
X182195568Y-89786978D01*
X182025919Y-89735515D01*
X181869567Y-89651944D01*
X181732525Y-89539475D01*
X181620056Y-89402433D01*
X181536485Y-89246081D01*
X181485022Y-89076432D01*
X181467646Y-88900000D01*
X181485022Y-88723568D01*
X181536485Y-88553919D01*
X181620056Y-88397567D01*
X181732525Y-88260525D01*
X181869567Y-88148056D01*
X182025919Y-88064485D01*
X182195568Y-88013022D01*
X182327789Y-88000000D01*
X182416211Y-88000000D01*
X182548432Y-88013022D01*
X182548432Y-88013022D01*
G37*
G36*
X177335335Y-86656068D02*
X176388934Y-88007669D01*
X174832545Y-86917874D01*
X175778946Y-85566273D01*
X177335335Y-86656068D01*
X177335335Y-86656068D01*
G37*
G36*
X124195335Y-86438068D02*
X123248934Y-87789669D01*
X121692545Y-86699874D01*
X122638946Y-85348273D01*
X124195335Y-86438068D01*
X124195335Y-86438068D01*
G37*
G36*
X175287455Y-85222126D02*
X174341054Y-86573727D01*
X172784665Y-85483932D01*
X173731066Y-84132331D01*
X175287455Y-85222126D01*
X175287455Y-85222126D01*
G37*
G36*
X122147455Y-85004126D02*
X121201054Y-86355727D01*
X119644665Y-85265932D01*
X120591066Y-83914331D01*
X122147455Y-85004126D01*
X122147455Y-85004126D01*
G37*
G36*
X192787770Y-84359372D02*
X192903689Y-84382429D01*
X193085678Y-84457811D01*
X193130765Y-84487937D01*
X193152368Y-84499485D01*
X193175817Y-84506598D01*
X193200204Y-84509000D01*
X194764000Y-84509000D01*
X194764000Y-86179000D01*
X193200204Y-86179000D01*
X193175818Y-86181402D01*
X193152369Y-86188515D01*
X193130765Y-86200063D01*
X193085678Y-86230189D01*
X192903689Y-86305571D01*
X192787770Y-86328628D01*
X192710493Y-86344000D01*
X192513507Y-86344000D01*
X192436230Y-86328628D01*
X192320311Y-86305571D01*
X192138322Y-86230189D01*
X192093235Y-86200063D01*
X192071632Y-86188515D01*
X192053445Y-86182998D01*
X192041388Y-86168307D01*
X192022458Y-86152771D01*
X191974537Y-86120751D01*
X191835249Y-85981463D01*
X191725811Y-85817678D01*
X191650429Y-85635689D01*
X191618161Y-85473466D01*
X191612000Y-85442493D01*
X191612000Y-85245507D01*
X191648993Y-85059531D01*
X191650429Y-85052311D01*
X191725811Y-84870322D01*
X191835249Y-84706537D01*
X191974537Y-84567249D01*
X192022458Y-84535229D01*
X192041388Y-84519694D01*
X192053446Y-84505001D01*
X192071631Y-84499485D01*
X192093235Y-84487937D01*
X192138322Y-84457811D01*
X192320311Y-84382429D01*
X192436230Y-84359372D01*
X192513507Y-84344000D01*
X192710493Y-84344000D01*
X192787770Y-84359372D01*
X192787770Y-84359372D01*
G37*
G36*
X197787770Y-84359372D02*
X197903689Y-84382429D01*
X198085678Y-84457811D01*
X198249463Y-84567249D01*
X198388751Y-84706537D01*
X198498189Y-84870322D01*
X198573571Y-85052311D01*
X198575007Y-85059531D01*
X198612000Y-85245507D01*
X198612000Y-85442493D01*
X198605839Y-85473466D01*
X198573571Y-85635689D01*
X198498189Y-85817678D01*
X198388751Y-85981463D01*
X198249463Y-86120751D01*
X198085678Y-86230189D01*
X197903689Y-86305571D01*
X197787770Y-86328628D01*
X197710493Y-86344000D01*
X197513507Y-86344000D01*
X197436230Y-86328628D01*
X197320311Y-86305571D01*
X197138322Y-86230189D01*
X197093235Y-86200063D01*
X197071632Y-86188515D01*
X197048183Y-86181402D01*
X197023796Y-86179000D01*
X195380000Y-86179000D01*
X195380000Y-84509000D01*
X197023796Y-84509000D01*
X197048182Y-84506598D01*
X197071631Y-84499485D01*
X197093235Y-84487937D01*
X197138322Y-84457811D01*
X197320311Y-84382429D01*
X197436230Y-84359372D01*
X197513507Y-84344000D01*
X197710493Y-84344000D01*
X197787770Y-84359372D01*
X197787770Y-84359372D01*
G37*
G36*
X188563770Y-83851372D02*
X188679689Y-83874429D01*
X188861678Y-83949811D01*
X188906765Y-83979937D01*
X188928368Y-83991485D01*
X188946555Y-83997002D01*
X188958612Y-84011693D01*
X188977542Y-84027229D01*
X189025463Y-84059249D01*
X189164751Y-84198537D01*
X189274189Y-84362322D01*
X189349571Y-84544311D01*
X189367065Y-84632260D01*
X189381840Y-84706537D01*
X189388000Y-84737509D01*
X189388000Y-84934491D01*
X189349571Y-85127689D01*
X189274189Y-85309678D01*
X189164751Y-85473463D01*
X189025463Y-85612751D01*
X188977542Y-85644771D01*
X188958612Y-85660306D01*
X188946554Y-85674999D01*
X188928369Y-85680515D01*
X188906765Y-85692063D01*
X188861678Y-85722189D01*
X188679689Y-85797571D01*
X188578618Y-85817675D01*
X188486493Y-85836000D01*
X188289507Y-85836000D01*
X188197382Y-85817675D01*
X188096311Y-85797571D01*
X187914322Y-85722189D01*
X187869235Y-85692063D01*
X187847632Y-85680515D01*
X187824183Y-85673402D01*
X187799796Y-85671000D01*
X186236000Y-85671000D01*
X186236000Y-84001000D01*
X187799796Y-84001000D01*
X187824182Y-83998598D01*
X187847631Y-83991485D01*
X187869235Y-83979937D01*
X187914322Y-83949811D01*
X188096311Y-83874429D01*
X188212230Y-83851372D01*
X188289507Y-83836000D01*
X188486493Y-83836000D01*
X188563770Y-83851372D01*
X188563770Y-83851372D01*
G37*
G36*
X183563770Y-83851372D02*
X183679689Y-83874429D01*
X183861678Y-83949811D01*
X183906765Y-83979937D01*
X183928368Y-83991485D01*
X183951817Y-83998598D01*
X183976204Y-84001000D01*
X185620000Y-84001000D01*
X185620000Y-85671000D01*
X183976204Y-85671000D01*
X183951818Y-85673402D01*
X183928369Y-85680515D01*
X183906765Y-85692063D01*
X183861678Y-85722189D01*
X183679689Y-85797571D01*
X183578618Y-85817675D01*
X183486493Y-85836000D01*
X183289507Y-85836000D01*
X183197382Y-85817675D01*
X183096311Y-85797571D01*
X182914322Y-85722189D01*
X182750537Y-85612751D01*
X182611249Y-85473463D01*
X182501811Y-85309678D01*
X182426429Y-85127689D01*
X182388000Y-84934491D01*
X182388000Y-84737509D01*
X182394161Y-84706537D01*
X182408935Y-84632260D01*
X182426429Y-84544311D01*
X182501811Y-84362322D01*
X182611249Y-84198537D01*
X182750537Y-84059249D01*
X182914322Y-83949811D01*
X183096311Y-83874429D01*
X183212230Y-83851372D01*
X183289507Y-83836000D01*
X183486493Y-83836000D01*
X183563770Y-83851372D01*
X183563770Y-83851372D01*
G37*
G36*
X116274030Y-83088469D02*
X116274033Y-83088470D01*
X116274034Y-83088470D01*
X116462535Y-83145651D01*
X116462537Y-83145652D01*
X116636260Y-83238509D01*
X116788528Y-83363472D01*
X116913491Y-83515740D01*
X117006348Y-83689463D01*
X117063531Y-83877970D01*
X117082838Y-84074000D01*
X117063531Y-84270030D01*
X117063530Y-84270033D01*
X117063530Y-84270034D01*
X117006569Y-84457811D01*
X117006348Y-84458537D01*
X116913491Y-84632260D01*
X116788528Y-84784528D01*
X116636260Y-84909491D01*
X116462537Y-85002348D01*
X116462535Y-85002349D01*
X116274034Y-85059530D01*
X116274033Y-85059530D01*
X116274030Y-85059531D01*
X116127124Y-85074000D01*
X116028876Y-85074000D01*
X115881970Y-85059531D01*
X115881967Y-85059530D01*
X115881966Y-85059530D01*
X115693465Y-85002349D01*
X115693463Y-85002348D01*
X115519740Y-84909491D01*
X115367472Y-84784528D01*
X115242509Y-84632260D01*
X115149652Y-84458537D01*
X115149432Y-84457811D01*
X115092470Y-84270034D01*
X115092470Y-84270033D01*
X115092469Y-84270030D01*
X115073162Y-84074000D01*
X115092469Y-83877970D01*
X115149652Y-83689463D01*
X115242509Y-83515740D01*
X115367472Y-83363472D01*
X115519740Y-83238509D01*
X115693463Y-83145652D01*
X115693465Y-83145651D01*
X115881966Y-83088470D01*
X115881967Y-83088470D01*
X115881970Y-83088469D01*
X116028876Y-83074000D01*
X116127124Y-83074000D01*
X116274030Y-83088469D01*
X116274030Y-83088469D01*
G37*
G36*
X188596707Y-80745597D02*
X188673836Y-80753193D01*
X188805787Y-80793220D01*
X188871763Y-80813233D01*
X189054172Y-80910733D01*
X189214054Y-81041946D01*
X189345267Y-81201828D01*
X189442767Y-81384237D01*
X189442767Y-81384238D01*
X189502807Y-81582164D01*
X189523080Y-81788000D01*
X189502807Y-81993836D01*
X189462780Y-82125787D01*
X189442767Y-82191763D01*
X189345267Y-82374172D01*
X189214054Y-82534054D01*
X189054172Y-82665267D01*
X188871763Y-82762767D01*
X188805787Y-82782780D01*
X188673836Y-82822807D01*
X188596707Y-82830403D01*
X188519580Y-82838000D01*
X188416420Y-82838000D01*
X188339293Y-82830403D01*
X188262164Y-82822807D01*
X188130213Y-82782780D01*
X188064237Y-82762767D01*
X187881828Y-82665267D01*
X187721946Y-82534054D01*
X187590733Y-82374172D01*
X187493233Y-82191763D01*
X187473220Y-82125787D01*
X187433193Y-81993836D01*
X187412920Y-81788000D01*
X187433193Y-81582164D01*
X187493233Y-81384238D01*
X187493233Y-81384237D01*
X187590733Y-81201828D01*
X187721946Y-81041946D01*
X187881828Y-80910733D01*
X188064237Y-80813233D01*
X188130213Y-80793220D01*
X188262164Y-80753193D01*
X188339293Y-80745597D01*
X188416420Y-80738000D01*
X188519580Y-80738000D01*
X188596707Y-80745597D01*
X188596707Y-80745597D01*
G37*
G36*
X191136707Y-80745597D02*
X191213836Y-80753193D01*
X191345787Y-80793220D01*
X191411763Y-80813233D01*
X191594172Y-80910733D01*
X191754054Y-81041946D01*
X191885267Y-81201828D01*
X191982767Y-81384237D01*
X191982767Y-81384238D01*
X192042807Y-81582164D01*
X192063080Y-81788000D01*
X192042807Y-81993836D01*
X192002780Y-82125787D01*
X191982767Y-82191763D01*
X191885267Y-82374172D01*
X191754054Y-82534054D01*
X191594172Y-82665267D01*
X191411763Y-82762767D01*
X191345787Y-82782780D01*
X191213836Y-82822807D01*
X191136707Y-82830403D01*
X191059580Y-82838000D01*
X190956420Y-82838000D01*
X190879293Y-82830403D01*
X190802164Y-82822807D01*
X190670213Y-82782780D01*
X190604237Y-82762767D01*
X190421828Y-82665267D01*
X190261946Y-82534054D01*
X190130733Y-82374172D01*
X190033233Y-82191763D01*
X190013220Y-82125787D01*
X189973193Y-81993836D01*
X189952920Y-81788000D01*
X189973193Y-81582164D01*
X190033233Y-81384238D01*
X190033233Y-81384237D01*
X190130733Y-81201828D01*
X190261946Y-81041946D01*
X190421828Y-80910733D01*
X190604237Y-80813233D01*
X190670213Y-80793220D01*
X190802164Y-80753193D01*
X190879293Y-80745597D01*
X190956420Y-80738000D01*
X191059580Y-80738000D01*
X191136707Y-80745597D01*
X191136707Y-80745597D01*
G37*
G36*
X193676707Y-80745597D02*
X193753836Y-80753193D01*
X193885787Y-80793220D01*
X193951763Y-80813233D01*
X194134172Y-80910733D01*
X194294054Y-81041946D01*
X194425267Y-81201828D01*
X194522767Y-81384237D01*
X194522767Y-81384238D01*
X194582807Y-81582164D01*
X194603080Y-81788000D01*
X194582807Y-81993836D01*
X194542780Y-82125787D01*
X194522767Y-82191763D01*
X194425267Y-82374172D01*
X194294054Y-82534054D01*
X194134172Y-82665267D01*
X193951763Y-82762767D01*
X193885787Y-82782780D01*
X193753836Y-82822807D01*
X193676707Y-82830403D01*
X193599580Y-82838000D01*
X193496420Y-82838000D01*
X193419293Y-82830403D01*
X193342164Y-82822807D01*
X193210213Y-82782780D01*
X193144237Y-82762767D01*
X192961828Y-82665267D01*
X192801946Y-82534054D01*
X192670733Y-82374172D01*
X192573233Y-82191763D01*
X192553220Y-82125787D01*
X192513193Y-81993836D01*
X192492920Y-81788000D01*
X192513193Y-81582164D01*
X192573233Y-81384238D01*
X192573233Y-81384237D01*
X192670733Y-81201828D01*
X192801946Y-81041946D01*
X192961828Y-80910733D01*
X193144237Y-80813233D01*
X193210213Y-80793220D01*
X193342164Y-80753193D01*
X193419293Y-80745597D01*
X193496420Y-80738000D01*
X193599580Y-80738000D01*
X193676707Y-80745597D01*
X193676707Y-80745597D01*
G37*
G36*
X186056707Y-80745597D02*
X186133836Y-80753193D01*
X186265787Y-80793220D01*
X186331763Y-80813233D01*
X186514172Y-80910733D01*
X186674054Y-81041946D01*
X186805267Y-81201828D01*
X186902767Y-81384237D01*
X186902767Y-81384238D01*
X186962807Y-81582164D01*
X186983080Y-81788000D01*
X186962807Y-81993836D01*
X186922780Y-82125787D01*
X186902767Y-82191763D01*
X186805267Y-82374172D01*
X186674054Y-82534054D01*
X186514172Y-82665267D01*
X186331763Y-82762767D01*
X186265787Y-82782780D01*
X186133836Y-82822807D01*
X186056707Y-82830403D01*
X185979580Y-82838000D01*
X185876420Y-82838000D01*
X185799293Y-82830403D01*
X185722164Y-82822807D01*
X185590213Y-82782780D01*
X185524237Y-82762767D01*
X185341828Y-82665267D01*
X185181946Y-82534054D01*
X185050733Y-82374172D01*
X184953233Y-82191763D01*
X184933220Y-82125787D01*
X184893193Y-81993836D01*
X184872920Y-81788000D01*
X184893193Y-81582164D01*
X184953233Y-81384238D01*
X184953233Y-81384237D01*
X185050733Y-81201828D01*
X185181946Y-81041946D01*
X185341828Y-80910733D01*
X185524237Y-80813233D01*
X185590213Y-80793220D01*
X185722164Y-80753193D01*
X185799293Y-80745597D01*
X185876420Y-80738000D01*
X185979580Y-80738000D01*
X186056707Y-80745597D01*
X186056707Y-80745597D01*
G37*
G36*
X197138000Y-82838000D02*
X195038000Y-82838000D01*
X195038000Y-80738000D01*
X197138000Y-80738000D01*
X197138000Y-82838000D01*
X197138000Y-82838000D01*
G37*
G36*
X183516707Y-80745597D02*
X183593836Y-80753193D01*
X183725787Y-80793220D01*
X183791763Y-80813233D01*
X183974172Y-80910733D01*
X184134054Y-81041946D01*
X184265267Y-81201828D01*
X184362767Y-81384237D01*
X184362767Y-81384238D01*
X184422807Y-81582164D01*
X184443080Y-81788000D01*
X184422807Y-81993836D01*
X184382780Y-82125787D01*
X184362767Y-82191763D01*
X184265267Y-82374172D01*
X184134054Y-82534054D01*
X183974172Y-82665267D01*
X183791763Y-82762767D01*
X183725787Y-82782780D01*
X183593836Y-82822807D01*
X183516707Y-82830403D01*
X183439580Y-82838000D01*
X183336420Y-82838000D01*
X183259293Y-82830403D01*
X183182164Y-82822807D01*
X183050213Y-82782780D01*
X182984237Y-82762767D01*
X182801828Y-82665267D01*
X182641946Y-82534054D01*
X182510733Y-82374172D01*
X182413233Y-82191763D01*
X182393220Y-82125787D01*
X182353193Y-81993836D01*
X182332920Y-81788000D01*
X182353193Y-81582164D01*
X182413233Y-81384238D01*
X182413233Y-81384237D01*
X182510733Y-81201828D01*
X182641946Y-81041946D01*
X182801828Y-80910733D01*
X182984237Y-80813233D01*
X183050213Y-80793220D01*
X183182164Y-80753193D01*
X183259293Y-80745597D01*
X183336420Y-80738000D01*
X183439580Y-80738000D01*
X183516707Y-80745597D01*
X183516707Y-80745597D01*
G37*
G36*
X191335000Y-78151796D02*
X191337402Y-78176182D01*
X191344515Y-78199631D01*
X191356063Y-78221235D01*
X191386189Y-78266322D01*
X191461571Y-78448311D01*
X191500000Y-78641509D01*
X191500000Y-78838491D01*
X191461571Y-79031689D01*
X191386189Y-79213678D01*
X191276751Y-79377463D01*
X191137463Y-79516751D01*
X190973678Y-79626189D01*
X190791689Y-79701571D01*
X190675770Y-79724628D01*
X190598493Y-79740000D01*
X190401507Y-79740000D01*
X190324230Y-79724628D01*
X190208311Y-79701571D01*
X190026322Y-79626189D01*
X189862537Y-79516751D01*
X189723249Y-79377463D01*
X189613811Y-79213678D01*
X189538429Y-79031689D01*
X189500000Y-78838491D01*
X189500000Y-78641509D01*
X189538429Y-78448311D01*
X189613811Y-78266322D01*
X189643937Y-78221235D01*
X189655485Y-78199632D01*
X189662598Y-78176183D01*
X189665000Y-78151796D01*
X189665000Y-76508000D01*
X191335000Y-76508000D01*
X191335000Y-78151796D01*
X191335000Y-78151796D01*
G37*
G36*
X179881432Y-76583022D02*
X180035033Y-76629617D01*
X180059067Y-76634398D01*
X180071319Y-76635000D01*
X183156200Y-76635000D01*
X183156200Y-78305000D01*
X180071319Y-78305000D01*
X180046933Y-78307402D01*
X180035033Y-78310383D01*
X179881432Y-78356978D01*
X179749211Y-78370000D01*
X179660789Y-78370000D01*
X179528568Y-78356978D01*
X179358919Y-78305515D01*
X179202567Y-78221944D01*
X179065525Y-78109475D01*
X178953056Y-77972433D01*
X178869485Y-77816081D01*
X178818022Y-77646432D01*
X178800646Y-77470000D01*
X178818022Y-77293568D01*
X178869485Y-77123919D01*
X178953056Y-76967567D01*
X179065525Y-76830525D01*
X179202567Y-76718056D01*
X179358919Y-76634485D01*
X179528568Y-76583022D01*
X179660789Y-76570000D01*
X179749211Y-76570000D01*
X179881432Y-76583022D01*
X179881432Y-76583022D01*
G37*
G36*
X187587521Y-76604586D02*
X187751309Y-76672429D01*
X187898720Y-76770926D01*
X188024074Y-76896280D01*
X188122571Y-77043691D01*
X188190414Y-77207479D01*
X188225000Y-77381356D01*
X188225000Y-77558644D01*
X188190414Y-77732521D01*
X188122571Y-77896309D01*
X188024074Y-78043720D01*
X187898720Y-78169074D01*
X187751309Y-78267571D01*
X187587521Y-78335414D01*
X187413644Y-78370000D01*
X187236356Y-78370000D01*
X187062480Y-78335414D01*
X187012025Y-78314515D01*
X186988576Y-78307402D01*
X186964190Y-78305000D01*
X183899200Y-78305000D01*
X183899200Y-76635000D01*
X186964190Y-76635000D01*
X186988576Y-76632598D01*
X187012025Y-76625485D01*
X187062480Y-76604586D01*
X187236356Y-76570000D01*
X187413644Y-76570000D01*
X187587521Y-76604586D01*
X187587521Y-76604586D01*
G37*
G36*
X125385471Y-77311756D02*
X123956529Y-78136756D01*
X123006529Y-76491308D01*
X124435471Y-75666308D01*
X125385471Y-77311756D01*
X125385471Y-77311756D01*
G37*
G36*
X175254144Y-75159262D02*
X175053060Y-76796963D01*
X173167222Y-76565412D01*
X173368306Y-74927711D01*
X175254144Y-75159262D01*
X175254144Y-75159262D01*
G37*
G36*
X172772778Y-74854588D02*
X172571694Y-76492289D01*
X170685856Y-76260738D01*
X170886940Y-74623037D01*
X172772778Y-74854588D01*
X172772778Y-74854588D01*
G37*
G36*
X124135471Y-75146692D02*
X122706529Y-75971692D01*
X121756529Y-74326244D01*
X123185471Y-73501244D01*
X124135471Y-75146692D01*
X124135471Y-75146692D01*
G37*
G36*
X190675770Y-72755372D02*
X190791689Y-72778429D01*
X190973678Y-72853811D01*
X191137463Y-72963249D01*
X191276751Y-73102537D01*
X191308771Y-73150458D01*
X191324306Y-73169388D01*
X191338999Y-73181446D01*
X191344515Y-73199631D01*
X191356063Y-73221235D01*
X191386189Y-73266322D01*
X191461571Y-73448311D01*
X191500000Y-73641509D01*
X191500000Y-73838491D01*
X191461571Y-74031689D01*
X191386189Y-74213678D01*
X191356063Y-74258765D01*
X191344515Y-74280368D01*
X191337402Y-74303817D01*
X191335000Y-74328204D01*
X191335000Y-75892000D01*
X189665000Y-75892000D01*
X189665000Y-74328204D01*
X189662598Y-74303818D01*
X189655485Y-74280369D01*
X189643937Y-74258765D01*
X189613811Y-74213678D01*
X189538429Y-74031689D01*
X189500000Y-73838491D01*
X189500000Y-73641509D01*
X189538429Y-73448311D01*
X189613811Y-73266322D01*
X189643937Y-73221235D01*
X189655485Y-73199632D01*
X189661002Y-73181445D01*
X189675693Y-73169388D01*
X189691229Y-73150458D01*
X189723249Y-73102537D01*
X189862537Y-72963249D01*
X190026322Y-72853811D01*
X190208311Y-72778429D01*
X190324230Y-72755372D01*
X190401507Y-72740000D01*
X190598493Y-72740000D01*
X190675770Y-72755372D01*
X190675770Y-72755372D01*
G37*
G36*
X187628432Y-73281022D02*
X187798081Y-73332485D01*
X187954433Y-73416056D01*
X188091475Y-73528525D01*
X188203944Y-73665567D01*
X188287515Y-73821919D01*
X188338978Y-73991568D01*
X188356354Y-74168000D01*
X188338978Y-74344432D01*
X188287515Y-74514081D01*
X188203944Y-74670433D01*
X188091475Y-74807475D01*
X187954433Y-74919944D01*
X187798081Y-75003515D01*
X187628432Y-75054978D01*
X187496211Y-75068000D01*
X187407789Y-75068000D01*
X187275568Y-75054978D01*
X187121967Y-75008383D01*
X187097933Y-75003602D01*
X187085681Y-75003000D01*
X184000800Y-75003000D01*
X184000800Y-73333000D01*
X187085681Y-73333000D01*
X187110067Y-73330598D01*
X187121967Y-73327617D01*
X187275568Y-73281022D01*
X187407789Y-73268000D01*
X187496211Y-73268000D01*
X187628432Y-73281022D01*
X187628432Y-73281022D01*
G37*
G36*
X180094520Y-73302586D02*
X180144975Y-73323485D01*
X180168424Y-73330598D01*
X180192810Y-73333000D01*
X183257800Y-73333000D01*
X183257800Y-75003000D01*
X180192810Y-75003000D01*
X180168424Y-75005402D01*
X180144975Y-75012515D01*
X180094520Y-75033414D01*
X179920644Y-75068000D01*
X179743356Y-75068000D01*
X179569479Y-75033414D01*
X179405691Y-74965571D01*
X179258280Y-74867074D01*
X179132926Y-74741720D01*
X179034429Y-74594309D01*
X178966586Y-74430521D01*
X178932000Y-74256644D01*
X178932000Y-74079356D01*
X178966586Y-73905479D01*
X179034429Y-73741691D01*
X179132926Y-73594280D01*
X179258280Y-73468926D01*
X179405691Y-73370429D01*
X179569479Y-73302586D01*
X179743356Y-73268000D01*
X179920644Y-73268000D01*
X180094520Y-73302586D01*
X180094520Y-73302586D01*
G37*
G36*
X209603163Y-67979119D02*
X209616401Y-67979842D01*
X209802297Y-68027485D01*
X211613768Y-68686807D01*
X211786798Y-68769802D01*
X211991647Y-68923466D01*
X212162580Y-69114143D01*
X212293031Y-69334501D01*
X212377983Y-69576076D01*
X212414177Y-69829584D01*
X212400216Y-70085280D01*
X212336640Y-70333341D01*
X212225892Y-70564232D01*
X212072228Y-70769081D01*
X211881551Y-70940014D01*
X211661192Y-71070465D01*
X211419616Y-71155417D01*
X211166109Y-71191611D01*
X210910412Y-71177650D01*
X210724516Y-71130007D01*
X208913046Y-70470685D01*
X208740016Y-70387690D01*
X208535167Y-70234026D01*
X208364234Y-70043349D01*
X208233783Y-69822990D01*
X208148830Y-69581415D01*
X208112637Y-69327907D01*
X208126598Y-69072212D01*
X208190173Y-68824151D01*
X208300922Y-68593260D01*
X208454586Y-68388411D01*
X208645263Y-68217478D01*
X208865622Y-68087027D01*
X209107197Y-68002074D01*
X209360705Y-67965881D01*
X209603163Y-67979119D01*
X209603163Y-67979119D01*
G37*
G36*
X120746026Y-68848974D02*
X119746026Y-70581026D01*
X118013974Y-69581026D01*
X119013974Y-67848974D01*
X120746026Y-68848974D01*
X120746026Y-68848974D01*
G37*
G36*
X130492000Y-69256000D02*
X128842000Y-69256000D01*
X128842000Y-67356000D01*
X130492000Y-67356000D01*
X130492000Y-69256000D01*
X130492000Y-69256000D01*
G37*
G36*
X167162778Y-68205412D02*
X165276940Y-68436963D01*
X165075856Y-66799262D01*
X166961694Y-66567711D01*
X167162778Y-68205412D01*
X167162778Y-68205412D01*
G37*
G36*
X169644144Y-67900738D02*
X167758306Y-68132289D01*
X167557222Y-66494588D01*
X169443060Y-66263037D01*
X169644144Y-67900738D01*
X169644144Y-67900738D01*
G37*
G36*
X186183707Y-65632597D02*
X186260836Y-65640193D01*
X186392787Y-65680220D01*
X186458763Y-65700233D01*
X186641172Y-65797733D01*
X186801054Y-65928946D01*
X186932267Y-66088828D01*
X187029767Y-66271237D01*
X187029767Y-66271238D01*
X187089807Y-66469164D01*
X187110080Y-66675000D01*
X187089807Y-66880836D01*
X187049780Y-67012787D01*
X187029767Y-67078763D01*
X186932267Y-67261172D01*
X186801054Y-67421054D01*
X186641172Y-67552267D01*
X186458763Y-67649767D01*
X186392787Y-67669780D01*
X186260836Y-67709807D01*
X186183707Y-67717404D01*
X186106580Y-67725000D01*
X186003420Y-67725000D01*
X185926293Y-67717404D01*
X185849164Y-67709807D01*
X185717213Y-67669780D01*
X185651237Y-67649767D01*
X185468828Y-67552267D01*
X185308946Y-67421054D01*
X185177733Y-67261172D01*
X185080233Y-67078763D01*
X185060220Y-67012787D01*
X185020193Y-66880836D01*
X184999920Y-66675000D01*
X185020193Y-66469164D01*
X185080233Y-66271238D01*
X185080233Y-66271237D01*
X185177733Y-66088828D01*
X185308946Y-65928946D01*
X185468828Y-65797733D01*
X185651237Y-65700233D01*
X185717213Y-65680220D01*
X185849164Y-65640193D01*
X185926293Y-65632597D01*
X186003420Y-65625000D01*
X186106580Y-65625000D01*
X186183707Y-65632597D01*
X186183707Y-65632597D01*
G37*
G36*
X130492000Y-66756000D02*
X128842000Y-66756000D01*
X128842000Y-64856000D01*
X130492000Y-64856000D01*
X130492000Y-66756000D01*
X130492000Y-66756000D01*
G37*
G36*
X203132687Y-61354681D02*
X203340478Y-61407936D01*
X203340481Y-61407938D01*
X203340483Y-61407938D01*
X203517326Y-61492762D01*
X203533902Y-61500713D01*
X203631971Y-61574279D01*
X203705499Y-61629434D01*
X203736810Y-61664362D01*
X203848689Y-61789163D01*
X203915646Y-61902269D01*
X203957966Y-61973756D01*
X203987460Y-62057628D01*
X204029131Y-62176124D01*
X204059450Y-62388482D01*
X204047755Y-62602680D01*
X204007847Y-62758395D01*
X203931206Y-62968964D01*
X203297824Y-64709170D01*
X203276263Y-64768407D01*
X203266303Y-64789171D01*
X203206742Y-64913346D01*
X203123766Y-65023961D01*
X203078019Y-65084946D01*
X202918289Y-65228137D01*
X202828697Y-65281174D01*
X202733696Y-65337414D01*
X202594860Y-65386237D01*
X202531328Y-65408579D01*
X202318971Y-65438898D01*
X202104773Y-65427203D01*
X201896982Y-65373948D01*
X201896979Y-65373946D01*
X201896977Y-65373946D01*
X201703562Y-65281174D01*
X201531961Y-65152450D01*
X201514738Y-65133238D01*
X201388771Y-64992721D01*
X201279495Y-64808129D01*
X201279494Y-64808128D01*
X201208330Y-64605762D01*
X201208329Y-64605760D01*
X201178010Y-64393403D01*
X201189705Y-64179205D01*
X201229613Y-64023490D01*
X201526521Y-63207741D01*
X201961194Y-62013485D01*
X201973755Y-61987298D01*
X201990888Y-61951577D01*
X202030718Y-61868538D01*
X202131796Y-61733792D01*
X202159441Y-61696938D01*
X202169928Y-61687537D01*
X202319169Y-61553748D01*
X202503763Y-61444470D01*
X202683152Y-61381386D01*
X202706131Y-61373305D01*
X202918488Y-61342986D01*
X203132687Y-61354681D01*
X203132687Y-61354681D01*
G37*
G36*
X206080281Y-61150505D02*
X206288072Y-61203760D01*
X206288075Y-61203762D01*
X206288077Y-61203762D01*
X206462768Y-61287554D01*
X206481496Y-61296537D01*
X206552196Y-61349572D01*
X206653093Y-61425258D01*
X206713606Y-61492761D01*
X206796283Y-61584987D01*
X206852600Y-61680120D01*
X206905560Y-61769580D01*
X206940360Y-61868539D01*
X206976725Y-61971948D01*
X207007044Y-62184306D01*
X206995349Y-62398504D01*
X206955441Y-62554219D01*
X206925303Y-62637022D01*
X206223860Y-64564224D01*
X206154336Y-64709170D01*
X206109905Y-64768400D01*
X206025613Y-64880770D01*
X205865883Y-65023961D01*
X205734781Y-65101571D01*
X205681290Y-65133238D01*
X205542454Y-65182061D01*
X205478922Y-65204403D01*
X205266565Y-65234722D01*
X205052367Y-65223027D01*
X204844576Y-65169772D01*
X204844573Y-65169770D01*
X204844571Y-65169770D01*
X204651156Y-65076998D01*
X204479555Y-64948274D01*
X204419041Y-64880770D01*
X204336365Y-64788545D01*
X204258755Y-64657443D01*
X204227088Y-64603952D01*
X204155924Y-64401586D01*
X204155923Y-64401584D01*
X204125604Y-64189227D01*
X204137299Y-63975029D01*
X204177207Y-63819314D01*
X204412029Y-63174146D01*
X204908788Y-61809309D01*
X204922657Y-61780395D01*
X204962687Y-61696938D01*
X204978312Y-61664362D01*
X205093881Y-61510298D01*
X205107035Y-61492762D01*
X205142539Y-61460934D01*
X205266763Y-61349572D01*
X205451357Y-61240294D01*
X205590193Y-61191471D01*
X205653725Y-61169129D01*
X205866082Y-61138810D01*
X206080281Y-61150505D01*
X206080281Y-61150505D01*
G37*
G36*
X187105000Y-65185000D02*
X185005000Y-65185000D01*
X185005000Y-63085000D01*
X187105000Y-63085000D01*
X187105000Y-65185000D01*
X187105000Y-65185000D01*
G37*
G36*
X213723297Y-60752468D02*
X213736535Y-60753191D01*
X213823283Y-60775424D01*
X213984595Y-60816767D01*
X214215486Y-60927515D01*
X214420335Y-61081179D01*
X214591268Y-61271856D01*
X214721719Y-61492215D01*
X214806671Y-61733791D01*
X214842865Y-61987298D01*
X214828904Y-62242995D01*
X214781261Y-62428891D01*
X214121939Y-64240361D01*
X214038944Y-64413391D01*
X213885280Y-64618240D01*
X213694603Y-64789173D01*
X213474244Y-64919624D01*
X213232669Y-65004577D01*
X212979161Y-65040770D01*
X212736703Y-65027532D01*
X212723465Y-65026809D01*
X212673854Y-65014094D01*
X212475405Y-64963234D01*
X212244514Y-64852485D01*
X212039665Y-64698821D01*
X211868732Y-64508144D01*
X211738281Y-64287785D01*
X211653328Y-64046210D01*
X211617135Y-63792702D01*
X211631096Y-63537007D01*
X211653042Y-63451378D01*
X211678739Y-63351110D01*
X211806379Y-63000423D01*
X212338061Y-61539639D01*
X212421056Y-61366609D01*
X212430004Y-61354681D01*
X212446557Y-61332614D01*
X212574720Y-61161760D01*
X212765397Y-60990827D01*
X212985755Y-60860376D01*
X213227330Y-60775424D01*
X213480838Y-60739230D01*
X213723297Y-60752468D01*
X213723297Y-60752468D01*
G37*
G36*
X138965122Y-61852592D02*
X138766518Y-63742184D01*
X137125556Y-63569712D01*
X137324160Y-61680120D01*
X138965122Y-61852592D01*
X138965122Y-61852592D01*
G37*
G36*
X123386030Y-61630355D02*
X123386033Y-61630356D01*
X123386034Y-61630356D01*
X123574535Y-61687537D01*
X123574537Y-61687538D01*
X123748260Y-61780395D01*
X123900528Y-61905358D01*
X124025491Y-62057626D01*
X124088830Y-62176124D01*
X124118349Y-62231351D01*
X124169054Y-62398504D01*
X124175531Y-62419856D01*
X124194838Y-62615886D01*
X124175531Y-62811916D01*
X124118348Y-63000423D01*
X124025491Y-63174146D01*
X123900528Y-63326414D01*
X123748260Y-63451377D01*
X123588058Y-63537007D01*
X123574535Y-63544235D01*
X123386034Y-63601416D01*
X123386033Y-63601416D01*
X123386030Y-63601417D01*
X123239124Y-63615886D01*
X123140876Y-63615886D01*
X122993970Y-63601417D01*
X122993967Y-63601416D01*
X122993966Y-63601416D01*
X122805465Y-63544235D01*
X122791942Y-63537007D01*
X122631740Y-63451377D01*
X122479472Y-63326414D01*
X122354509Y-63174146D01*
X122261652Y-63000423D01*
X122204469Y-62811916D01*
X122185162Y-62615886D01*
X122204469Y-62419856D01*
X122210946Y-62398504D01*
X122261651Y-62231351D01*
X122291170Y-62176124D01*
X122354509Y-62057626D01*
X122479472Y-61905358D01*
X122631740Y-61780395D01*
X122805463Y-61687538D01*
X122805465Y-61687537D01*
X122993966Y-61630356D01*
X122993967Y-61630356D01*
X122993970Y-61630355D01*
X123140876Y-61615886D01*
X123239124Y-61615886D01*
X123386030Y-61630355D01*
X123386030Y-61630355D01*
G37*
G36*
X117471787Y-59415446D02*
X117564522Y-59433892D01*
X117739231Y-59506259D01*
X117872415Y-59595250D01*
X117896467Y-59611321D01*
X118030179Y-59745033D01*
X118030181Y-59745036D01*
X118130943Y-59895836D01*
X118135242Y-59902271D01*
X118148030Y-59933144D01*
X118207608Y-60076978D01*
X118244500Y-60262448D01*
X118244500Y-60451552D01*
X118207608Y-60637022D01*
X118135241Y-60811731D01*
X118062999Y-60919848D01*
X118030179Y-60968967D01*
X117896467Y-61102679D01*
X117896464Y-61102681D01*
X117739231Y-61207741D01*
X117739230Y-61207742D01*
X117739229Y-61207742D01*
X117657694Y-61241515D01*
X117636083Y-61253066D01*
X117617141Y-61268612D01*
X117601595Y-61287554D01*
X117590044Y-61309165D01*
X117582931Y-61332614D01*
X117580529Y-61357000D01*
X117582931Y-61381386D01*
X117590044Y-61404835D01*
X117601595Y-61426446D01*
X117617141Y-61445388D01*
X117636083Y-61460934D01*
X117657694Y-61472485D01*
X117725837Y-61500711D01*
X117739231Y-61506259D01*
X117829922Y-61566857D01*
X117896467Y-61611321D01*
X118030179Y-61745033D01*
X118030181Y-61745036D01*
X118135241Y-61902269D01*
X118164852Y-61973755D01*
X118207608Y-62076979D01*
X118244500Y-62262447D01*
X118244500Y-62451553D01*
X118226054Y-62544287D01*
X118207608Y-62637022D01*
X118135241Y-62811731D01*
X118031579Y-62966872D01*
X118030179Y-62968967D01*
X117896467Y-63102679D01*
X117896464Y-63102681D01*
X117739231Y-63207741D01*
X117564522Y-63280108D01*
X117471787Y-63298554D01*
X117379053Y-63317000D01*
X117189947Y-63317000D01*
X117097213Y-63298554D01*
X117004478Y-63280108D01*
X116829769Y-63207741D01*
X116672536Y-63102681D01*
X116672533Y-63102679D01*
X116538821Y-62968967D01*
X116537421Y-62966872D01*
X116433759Y-62811731D01*
X116361392Y-62637022D01*
X116342946Y-62544287D01*
X116324500Y-62451553D01*
X116324500Y-62262447D01*
X116361392Y-62076979D01*
X116404149Y-61973755D01*
X116433759Y-61902269D01*
X116538819Y-61745036D01*
X116538821Y-61745033D01*
X116672533Y-61611321D01*
X116739078Y-61566857D01*
X116829769Y-61506259D01*
X116843163Y-61500711D01*
X116911306Y-61472485D01*
X116932917Y-61460934D01*
X116951859Y-61445388D01*
X116967405Y-61426446D01*
X116978956Y-61404835D01*
X116986069Y-61381386D01*
X116988471Y-61357000D01*
X116986069Y-61332614D01*
X116978956Y-61309165D01*
X116967405Y-61287554D01*
X116951859Y-61268612D01*
X116932917Y-61253066D01*
X116911306Y-61241515D01*
X116829771Y-61207742D01*
X116829770Y-61207742D01*
X116829769Y-61207741D01*
X116672536Y-61102681D01*
X116672533Y-61102679D01*
X116538821Y-60968967D01*
X116506001Y-60919848D01*
X116433759Y-60811731D01*
X116361392Y-60637022D01*
X116324500Y-60451552D01*
X116324500Y-60262448D01*
X116361392Y-60076978D01*
X116420970Y-59933144D01*
X116433758Y-59902271D01*
X116438058Y-59895836D01*
X116538819Y-59745036D01*
X116538821Y-59745033D01*
X116672533Y-59611321D01*
X116696585Y-59595250D01*
X116829769Y-59506259D01*
X117004478Y-59433892D01*
X117097213Y-59415446D01*
X117189947Y-59397000D01*
X117379053Y-59397000D01*
X117471787Y-59415446D01*
X117471787Y-59415446D01*
G37*
G36*
X120011787Y-59415446D02*
X120104522Y-59433892D01*
X120279231Y-59506259D01*
X120412415Y-59595250D01*
X120436467Y-59611321D01*
X120570179Y-59745033D01*
X120570181Y-59745036D01*
X120670943Y-59895836D01*
X120675242Y-59902271D01*
X120688030Y-59933144D01*
X120747608Y-60076978D01*
X120784500Y-60262448D01*
X120784500Y-60451552D01*
X120747608Y-60637022D01*
X120675241Y-60811731D01*
X120602999Y-60919848D01*
X120570179Y-60968967D01*
X120436467Y-61102679D01*
X120436464Y-61102681D01*
X120279231Y-61207741D01*
X120279230Y-61207742D01*
X120279229Y-61207742D01*
X120197694Y-61241515D01*
X120176083Y-61253066D01*
X120157141Y-61268612D01*
X120141595Y-61287554D01*
X120130044Y-61309165D01*
X120122931Y-61332614D01*
X120120529Y-61357000D01*
X120122931Y-61381386D01*
X120130044Y-61404835D01*
X120141595Y-61426446D01*
X120157141Y-61445388D01*
X120176083Y-61460934D01*
X120197694Y-61472485D01*
X120265837Y-61500711D01*
X120279231Y-61506259D01*
X120369922Y-61566857D01*
X120436467Y-61611321D01*
X120570179Y-61745033D01*
X120570181Y-61745036D01*
X120675241Y-61902269D01*
X120704852Y-61973755D01*
X120747608Y-62076979D01*
X120784500Y-62262447D01*
X120784500Y-62451553D01*
X120766054Y-62544287D01*
X120747608Y-62637022D01*
X120675241Y-62811731D01*
X120571579Y-62966872D01*
X120570179Y-62968967D01*
X120436467Y-63102679D01*
X120436464Y-63102681D01*
X120279231Y-63207741D01*
X120104522Y-63280108D01*
X120011787Y-63298554D01*
X119919053Y-63317000D01*
X119729947Y-63317000D01*
X119637213Y-63298554D01*
X119544478Y-63280108D01*
X119369769Y-63207741D01*
X119212536Y-63102681D01*
X119212533Y-63102679D01*
X119078821Y-62968967D01*
X119077421Y-62966872D01*
X118973759Y-62811731D01*
X118901392Y-62637022D01*
X118882946Y-62544287D01*
X118864500Y-62451553D01*
X118864500Y-62262447D01*
X118901392Y-62076979D01*
X118944149Y-61973755D01*
X118973759Y-61902269D01*
X119078819Y-61745036D01*
X119078821Y-61745033D01*
X119212533Y-61611321D01*
X119279078Y-61566857D01*
X119369769Y-61506259D01*
X119383163Y-61500711D01*
X119451306Y-61472485D01*
X119472917Y-61460934D01*
X119491859Y-61445388D01*
X119507405Y-61426446D01*
X119518956Y-61404835D01*
X119526069Y-61381386D01*
X119528471Y-61357000D01*
X119526069Y-61332614D01*
X119518956Y-61309165D01*
X119507405Y-61287554D01*
X119491859Y-61268612D01*
X119472917Y-61253066D01*
X119451306Y-61241515D01*
X119369771Y-61207742D01*
X119369770Y-61207742D01*
X119369769Y-61207741D01*
X119212536Y-61102681D01*
X119212533Y-61102679D01*
X119078821Y-60968967D01*
X119046001Y-60919848D01*
X118973759Y-60811731D01*
X118901392Y-60637022D01*
X118864500Y-60451552D01*
X118864500Y-60262448D01*
X118901392Y-60076978D01*
X118960970Y-59933144D01*
X118973758Y-59902271D01*
X118978058Y-59895836D01*
X119078819Y-59745036D01*
X119078821Y-59745033D01*
X119212533Y-59611321D01*
X119236585Y-59595250D01*
X119369769Y-59506259D01*
X119544478Y-59433892D01*
X119637213Y-59415446D01*
X119729947Y-59397000D01*
X119919053Y-59397000D01*
X120011787Y-59415446D01*
X120011787Y-59415446D01*
G37*
G36*
X158558551Y-62467006D02*
X156803179Y-63194104D01*
X156171751Y-61669702D01*
X157927123Y-60942604D01*
X158558551Y-62467006D01*
X158558551Y-62467006D01*
G37*
G36*
X143284162Y-62371659D02*
X141673273Y-62728784D01*
X141262038Y-60873821D01*
X142872927Y-60516696D01*
X143284162Y-62371659D01*
X143284162Y-62371659D01*
G37*
G36*
X198670000Y-62480000D02*
X196570000Y-62480000D01*
X196570000Y-60380000D01*
X198670000Y-60380000D01*
X198670000Y-62480000D01*
X198670000Y-62480000D01*
G37*
G36*
X74683017Y-59091771D02*
X74996856Y-59221767D01*
X75279308Y-59410495D01*
X75519505Y-59650692D01*
X75708233Y-59933144D01*
X75838229Y-60246983D01*
X75904500Y-60580150D01*
X75904500Y-60919850D01*
X75838229Y-61253017D01*
X75708233Y-61566856D01*
X75519505Y-61849308D01*
X75279308Y-62089505D01*
X74996856Y-62278233D01*
X74683017Y-62408229D01*
X74349850Y-62474500D01*
X74010150Y-62474500D01*
X73676983Y-62408229D01*
X73363144Y-62278233D01*
X73080692Y-62089505D01*
X72840495Y-61849308D01*
X72651767Y-61566856D01*
X72521771Y-61253017D01*
X72455500Y-60919850D01*
X72455500Y-60580150D01*
X72521771Y-60246983D01*
X72651767Y-59933144D01*
X72840495Y-59650692D01*
X73080692Y-59410495D01*
X73363144Y-59221767D01*
X73676983Y-59091771D01*
X74010150Y-59025500D01*
X74349850Y-59025500D01*
X74683017Y-59091771D01*
X74683017Y-59091771D01*
G37*
G36*
X222813017Y-59091771D02*
X223126856Y-59221767D01*
X223409308Y-59410495D01*
X223649505Y-59650692D01*
X223838233Y-59933144D01*
X223968229Y-60246983D01*
X224034500Y-60580150D01*
X224034500Y-60919850D01*
X223968229Y-61253017D01*
X223838233Y-61566856D01*
X223649505Y-61849308D01*
X223409308Y-62089505D01*
X223126856Y-62278233D01*
X222813017Y-62408229D01*
X222479850Y-62474500D01*
X222140150Y-62474500D01*
X221806983Y-62408229D01*
X221493144Y-62278233D01*
X221210692Y-62089505D01*
X220970495Y-61849308D01*
X220781767Y-61566856D01*
X220651771Y-61253017D01*
X220585500Y-60919850D01*
X220585500Y-60580150D01*
X220651771Y-60246983D01*
X220781767Y-59933144D01*
X220970495Y-59650692D01*
X221210692Y-59410495D01*
X221493144Y-59221767D01*
X221806983Y-59091771D01*
X222140150Y-59025500D01*
X222479850Y-59025500D01*
X222813017Y-59091771D01*
X222813017Y-59091771D01*
G37*
G36*
X160868249Y-61510298D02*
X159112877Y-62237396D01*
X158481449Y-60712994D01*
X160236821Y-59985896D01*
X160868249Y-61510298D01*
X160868249Y-61510298D01*
G37*
G36*
X139226444Y-59366288D02*
X139027840Y-61255880D01*
X137386878Y-61083408D01*
X137585482Y-59193816D01*
X139226444Y-59366288D01*
X139226444Y-59366288D01*
G37*
G36*
X186183707Y-58647597D02*
X186260836Y-58655193D01*
X186392787Y-58695220D01*
X186458763Y-58715233D01*
X186641172Y-58812733D01*
X186801054Y-58943946D01*
X186932267Y-59103828D01*
X187029767Y-59286237D01*
X187032050Y-59293763D01*
X187089807Y-59484164D01*
X187110080Y-59690000D01*
X187089807Y-59895836D01*
X187049780Y-60027787D01*
X187029767Y-60093763D01*
X186932267Y-60276172D01*
X186801054Y-60436054D01*
X186641172Y-60567267D01*
X186458763Y-60664767D01*
X186392787Y-60684780D01*
X186260836Y-60724807D01*
X186183707Y-60732403D01*
X186106580Y-60740000D01*
X186003420Y-60740000D01*
X185926293Y-60732403D01*
X185849164Y-60724807D01*
X185717213Y-60684780D01*
X185651237Y-60664767D01*
X185468828Y-60567267D01*
X185308946Y-60436054D01*
X185177733Y-60276172D01*
X185080233Y-60093763D01*
X185060220Y-60027787D01*
X185020193Y-59895836D01*
X184999920Y-59690000D01*
X185020193Y-59484164D01*
X185077950Y-59293763D01*
X185080233Y-59286237D01*
X185177733Y-59103828D01*
X185308946Y-58943946D01*
X185468828Y-58812733D01*
X185651237Y-58715233D01*
X185717213Y-58695220D01*
X185849164Y-58655193D01*
X185926293Y-58647597D01*
X186003420Y-58640000D01*
X186106580Y-58640000D01*
X186183707Y-58647597D01*
X186183707Y-58647597D01*
G37*
G36*
X178715603Y-58764968D02*
X178715606Y-58764969D01*
X178715605Y-58764969D01*
X178890678Y-58837486D01*
X178890679Y-58837487D01*
X179048241Y-58942767D01*
X179182233Y-59076759D01*
X179226910Y-59143623D01*
X179287514Y-59234322D01*
X179312135Y-59293763D01*
X179360032Y-59409397D01*
X179397000Y-59595250D01*
X179397000Y-59784750D01*
X179360032Y-59970603D01*
X179360031Y-59970605D01*
X179287514Y-60145678D01*
X179287513Y-60145679D01*
X179182233Y-60303241D01*
X179048241Y-60437233D01*
X178997994Y-60470807D01*
X178890678Y-60542514D01*
X178799811Y-60580152D01*
X178715603Y-60615032D01*
X178529750Y-60652000D01*
X178340250Y-60652000D01*
X178154397Y-60615032D01*
X178070189Y-60580152D01*
X177979322Y-60542514D01*
X177872006Y-60470807D01*
X177821759Y-60437233D01*
X177687767Y-60303241D01*
X177582487Y-60145679D01*
X177582486Y-60145678D01*
X177509969Y-59970605D01*
X177509968Y-59970603D01*
X177473000Y-59784750D01*
X177473000Y-59595250D01*
X177509968Y-59409397D01*
X177557865Y-59293763D01*
X177582486Y-59234322D01*
X177643090Y-59143623D01*
X177687767Y-59076759D01*
X177821759Y-58942767D01*
X177979321Y-58837487D01*
X177979322Y-58837486D01*
X178154395Y-58764969D01*
X178154394Y-58764969D01*
X178154397Y-58764968D01*
X178340250Y-58728000D01*
X178529750Y-58728000D01*
X178715603Y-58764968D01*
X178715603Y-58764968D01*
G37*
G36*
X181255603Y-58764968D02*
X181255606Y-58764969D01*
X181255605Y-58764969D01*
X181430678Y-58837486D01*
X181430679Y-58837487D01*
X181588241Y-58942767D01*
X181722233Y-59076759D01*
X181766910Y-59143623D01*
X181827514Y-59234322D01*
X181852135Y-59293763D01*
X181900032Y-59409397D01*
X181937000Y-59595250D01*
X181937000Y-59784750D01*
X181900032Y-59970603D01*
X181900031Y-59970605D01*
X181827514Y-60145678D01*
X181827513Y-60145679D01*
X181722233Y-60303241D01*
X181588241Y-60437233D01*
X181537994Y-60470807D01*
X181430678Y-60542514D01*
X181339811Y-60580152D01*
X181255603Y-60615032D01*
X181069750Y-60652000D01*
X180880250Y-60652000D01*
X180694397Y-60615032D01*
X180610189Y-60580152D01*
X180519322Y-60542514D01*
X180412006Y-60470807D01*
X180361759Y-60437233D01*
X180227767Y-60303241D01*
X180122487Y-60145679D01*
X180122486Y-60145678D01*
X180049969Y-59970605D01*
X180049968Y-59970603D01*
X180013000Y-59784750D01*
X180013000Y-59595250D01*
X180049968Y-59409397D01*
X180097865Y-59293763D01*
X180122486Y-59234322D01*
X180183090Y-59143623D01*
X180227767Y-59076759D01*
X180361759Y-58942767D01*
X180519321Y-58837487D01*
X180519322Y-58837486D01*
X180694395Y-58764969D01*
X180694394Y-58764969D01*
X180694397Y-58764968D01*
X180880250Y-58728000D01*
X181069750Y-58728000D01*
X181255603Y-58764968D01*
X181255603Y-58764968D01*
G37*
G36*
X176175603Y-58764968D02*
X176175606Y-58764969D01*
X176175605Y-58764969D01*
X176350678Y-58837486D01*
X176350679Y-58837487D01*
X176508241Y-58942767D01*
X176642233Y-59076759D01*
X176686910Y-59143623D01*
X176747514Y-59234322D01*
X176772135Y-59293763D01*
X176820032Y-59409397D01*
X176857000Y-59595250D01*
X176857000Y-59784750D01*
X176820032Y-59970603D01*
X176820031Y-59970605D01*
X176747514Y-60145678D01*
X176747513Y-60145679D01*
X176642233Y-60303241D01*
X176508241Y-60437233D01*
X176457994Y-60470807D01*
X176350678Y-60542514D01*
X176259811Y-60580152D01*
X176175603Y-60615032D01*
X175989750Y-60652000D01*
X175800250Y-60652000D01*
X175614397Y-60615032D01*
X175530189Y-60580152D01*
X175439322Y-60542514D01*
X175332006Y-60470807D01*
X175281759Y-60437233D01*
X175147767Y-60303241D01*
X175042487Y-60145679D01*
X175042486Y-60145678D01*
X174969969Y-59970605D01*
X174969968Y-59970603D01*
X174933000Y-59784750D01*
X174933000Y-59595250D01*
X174969968Y-59409397D01*
X175017865Y-59293763D01*
X175042486Y-59234322D01*
X175103090Y-59143623D01*
X175147767Y-59076759D01*
X175281759Y-58942767D01*
X175439321Y-58837487D01*
X175439322Y-58837486D01*
X175614395Y-58764969D01*
X175614394Y-58764969D01*
X175614397Y-58764968D01*
X175800250Y-58728000D01*
X175989750Y-58728000D01*
X176175603Y-58764968D01*
X176175603Y-58764968D01*
G37*
G36*
X147321707Y-58393596D02*
X147398836Y-58401193D01*
X147503957Y-58433081D01*
X147596763Y-58461233D01*
X147779172Y-58558733D01*
X147939054Y-58689946D01*
X148070267Y-58849828D01*
X148167767Y-59032237D01*
X148167767Y-59032238D01*
X148227807Y-59230164D01*
X148248080Y-59436000D01*
X148227807Y-59641836D01*
X148196503Y-59745033D01*
X148167767Y-59839763D01*
X148070267Y-60022172D01*
X147939054Y-60182054D01*
X147779172Y-60313267D01*
X147596763Y-60410767D01*
X147530787Y-60430780D01*
X147398836Y-60470807D01*
X147321707Y-60478403D01*
X147244580Y-60486000D01*
X147141420Y-60486000D01*
X147064293Y-60478403D01*
X146987164Y-60470807D01*
X146855213Y-60430780D01*
X146789237Y-60410767D01*
X146606828Y-60313267D01*
X146446946Y-60182054D01*
X146315733Y-60022172D01*
X146218233Y-59839763D01*
X146189497Y-59745033D01*
X146158193Y-59641836D01*
X146137920Y-59436000D01*
X146158193Y-59230164D01*
X146218233Y-59032238D01*
X146218233Y-59032237D01*
X146315733Y-58849828D01*
X146446946Y-58689946D01*
X146606828Y-58558733D01*
X146789237Y-58461233D01*
X146882043Y-58433081D01*
X146987164Y-58401193D01*
X147064293Y-58393596D01*
X147141420Y-58386000D01*
X147244580Y-58386000D01*
X147321707Y-58393596D01*
X147321707Y-58393596D01*
G37*
G36*
X149861707Y-58393596D02*
X149938836Y-58401193D01*
X150043957Y-58433081D01*
X150136763Y-58461233D01*
X150319172Y-58558733D01*
X150479054Y-58689946D01*
X150610267Y-58849828D01*
X150707767Y-59032237D01*
X150707767Y-59032238D01*
X150767807Y-59230164D01*
X150788080Y-59436000D01*
X150767807Y-59641836D01*
X150736503Y-59745033D01*
X150707767Y-59839763D01*
X150610267Y-60022172D01*
X150479054Y-60182054D01*
X150319172Y-60313267D01*
X150136763Y-60410767D01*
X150070787Y-60430780D01*
X149938836Y-60470807D01*
X149861707Y-60478403D01*
X149784580Y-60486000D01*
X149681420Y-60486000D01*
X149604293Y-60478403D01*
X149527164Y-60470807D01*
X149395213Y-60430780D01*
X149329237Y-60410767D01*
X149146828Y-60313267D01*
X148986946Y-60182054D01*
X148855733Y-60022172D01*
X148758233Y-59839763D01*
X148729497Y-59745033D01*
X148698193Y-59641836D01*
X148677920Y-59436000D01*
X148698193Y-59230164D01*
X148758233Y-59032238D01*
X148758233Y-59032237D01*
X148855733Y-58849828D01*
X148986946Y-58689946D01*
X149146828Y-58558733D01*
X149329237Y-58461233D01*
X149422043Y-58433081D01*
X149527164Y-58401193D01*
X149604293Y-58393596D01*
X149681420Y-58386000D01*
X149784580Y-58386000D01*
X149861707Y-58393596D01*
X149861707Y-58393596D01*
G37*
G36*
X153323000Y-60486000D02*
X151223000Y-60486000D01*
X151223000Y-58386000D01*
X153323000Y-58386000D01*
X153323000Y-60486000D01*
X153323000Y-60486000D01*
G37*
G36*
X144781707Y-58393596D02*
X144858836Y-58401193D01*
X144963957Y-58433081D01*
X145056763Y-58461233D01*
X145239172Y-58558733D01*
X145399054Y-58689946D01*
X145530267Y-58849828D01*
X145627767Y-59032237D01*
X145627767Y-59032238D01*
X145687807Y-59230164D01*
X145708080Y-59436000D01*
X145687807Y-59641836D01*
X145656503Y-59745033D01*
X145627767Y-59839763D01*
X145530267Y-60022172D01*
X145399054Y-60182054D01*
X145239172Y-60313267D01*
X145056763Y-60410767D01*
X144990787Y-60430780D01*
X144858836Y-60470807D01*
X144781707Y-60478403D01*
X144704580Y-60486000D01*
X144601420Y-60486000D01*
X144524293Y-60478403D01*
X144447164Y-60470807D01*
X144315213Y-60430780D01*
X144249237Y-60410767D01*
X144066828Y-60313267D01*
X143906946Y-60182054D01*
X143775733Y-60022172D01*
X143678233Y-59839763D01*
X143649497Y-59745033D01*
X143618193Y-59641836D01*
X143597920Y-59436000D01*
X143618193Y-59230164D01*
X143678233Y-59032238D01*
X143678233Y-59032237D01*
X143775733Y-58849828D01*
X143906946Y-58689946D01*
X144066828Y-58558733D01*
X144249237Y-58461233D01*
X144342043Y-58433081D01*
X144447164Y-58401193D01*
X144524293Y-58393596D01*
X144601420Y-58386000D01*
X144704580Y-58386000D01*
X144781707Y-58393596D01*
X144781707Y-58393596D01*
G37*
G36*
X142743062Y-59930919D02*
X141132173Y-60288044D01*
X140720938Y-58433081D01*
X142331827Y-58075956D01*
X142743062Y-59930919D01*
X142743062Y-59930919D01*
G37*
G36*
X197748707Y-57847596D02*
X197825836Y-57855193D01*
X197957787Y-57895220D01*
X198023763Y-57915233D01*
X198206172Y-58012733D01*
X198366054Y-58143946D01*
X198497267Y-58303828D01*
X198594767Y-58486237D01*
X198594767Y-58486238D01*
X198654807Y-58684164D01*
X198675080Y-58890000D01*
X198654807Y-59095836D01*
X198621086Y-59207000D01*
X198594767Y-59293763D01*
X198497267Y-59476172D01*
X198366054Y-59636054D01*
X198206172Y-59767267D01*
X198023763Y-59864767D01*
X197957787Y-59884780D01*
X197825836Y-59924807D01*
X197763779Y-59930919D01*
X197671580Y-59940000D01*
X197568420Y-59940000D01*
X197476221Y-59930919D01*
X197414164Y-59924807D01*
X197282213Y-59884780D01*
X197216237Y-59864767D01*
X197033828Y-59767267D01*
X196873946Y-59636054D01*
X196742733Y-59476172D01*
X196645233Y-59293763D01*
X196618914Y-59207000D01*
X196585193Y-59095836D01*
X196564920Y-58890000D01*
X196585193Y-58684164D01*
X196645233Y-58486238D01*
X196645233Y-58486237D01*
X196742733Y-58303828D01*
X196873946Y-58143946D01*
X197033828Y-58012733D01*
X197216237Y-57915233D01*
X197282213Y-57895220D01*
X197414164Y-57855193D01*
X197491293Y-57847596D01*
X197568420Y-57840000D01*
X197671580Y-57840000D01*
X197748707Y-57847596D01*
X197748707Y-57847596D01*
G37*
G36*
X209581049Y-56052279D02*
X209594287Y-56053002D01*
X209777666Y-56100000D01*
X209780183Y-56100645D01*
X211591654Y-56759967D01*
X211764684Y-56842962D01*
X211969533Y-56996626D01*
X212140466Y-57187303D01*
X212270917Y-57407661D01*
X212355869Y-57649236D01*
X212392063Y-57902744D01*
X212378102Y-58158440D01*
X212314526Y-58406501D01*
X212203778Y-58637392D01*
X212050114Y-58842241D01*
X211859437Y-59013174D01*
X211639078Y-59143625D01*
X211397502Y-59228577D01*
X211143995Y-59264771D01*
X210888298Y-59250810D01*
X210702402Y-59203167D01*
X208890932Y-58543845D01*
X208717902Y-58460850D01*
X208513053Y-58307186D01*
X208342120Y-58116509D01*
X208211669Y-57896150D01*
X208126716Y-57654575D01*
X208090523Y-57401067D01*
X208104484Y-57145372D01*
X208168059Y-56897311D01*
X208278808Y-56666420D01*
X208432472Y-56461571D01*
X208623149Y-56290638D01*
X208843508Y-56160187D01*
X209085083Y-56075234D01*
X209338591Y-56039041D01*
X209581049Y-56052279D01*
X209581049Y-56052279D01*
G37*
G36*
X112806981Y-56126855D02*
X113006618Y-56166565D01*
X113194673Y-56244460D01*
X113288701Y-56283408D01*
X113542571Y-56453038D01*
X113758462Y-56668929D01*
X113928092Y-56922799D01*
X113941003Y-56953970D01*
X114044935Y-57204882D01*
X114067728Y-57319471D01*
X114104500Y-57504337D01*
X114104500Y-57809663D01*
X114094382Y-57860528D01*
X114044935Y-58109118D01*
X114007290Y-58200000D01*
X113928092Y-58391201D01*
X113758462Y-58645071D01*
X113542571Y-58860962D01*
X113288701Y-59030592D01*
X113194673Y-59069540D01*
X113006618Y-59147435D01*
X112806981Y-59187145D01*
X112707163Y-59207000D01*
X112401837Y-59207000D01*
X112302019Y-59187145D01*
X112102382Y-59147435D01*
X111914327Y-59069540D01*
X111820299Y-59030592D01*
X111566429Y-58860962D01*
X111350538Y-58645071D01*
X111180908Y-58391201D01*
X111101710Y-58200000D01*
X111064065Y-58109118D01*
X111014618Y-57860528D01*
X111004500Y-57809663D01*
X111004500Y-57504337D01*
X111041272Y-57319471D01*
X111064065Y-57204882D01*
X111167997Y-56953970D01*
X111180908Y-56922799D01*
X111350538Y-56668929D01*
X111566429Y-56453038D01*
X111820299Y-56283408D01*
X111914327Y-56244460D01*
X112102382Y-56166565D01*
X112302019Y-56126855D01*
X112401837Y-56107000D01*
X112707163Y-56107000D01*
X112806981Y-56126855D01*
X112806981Y-56126855D01*
G37*
G36*
X124806981Y-56126855D02*
X125006618Y-56166565D01*
X125194673Y-56244460D01*
X125288701Y-56283408D01*
X125542571Y-56453038D01*
X125758462Y-56668929D01*
X125928092Y-56922799D01*
X125941003Y-56953970D01*
X126044935Y-57204882D01*
X126067728Y-57319471D01*
X126104500Y-57504337D01*
X126104500Y-57809663D01*
X126094382Y-57860528D01*
X126044935Y-58109118D01*
X126007290Y-58200000D01*
X125928092Y-58391201D01*
X125758462Y-58645071D01*
X125542571Y-58860962D01*
X125288701Y-59030592D01*
X125194673Y-59069540D01*
X125006618Y-59147435D01*
X124806981Y-59187145D01*
X124707163Y-59207000D01*
X124401837Y-59207000D01*
X124302019Y-59187145D01*
X124102382Y-59147435D01*
X123914327Y-59069540D01*
X123820299Y-59030592D01*
X123566429Y-58860962D01*
X123350538Y-58645071D01*
X123180908Y-58391201D01*
X123101710Y-58200000D01*
X123064065Y-58109118D01*
X123014618Y-57860528D01*
X123004500Y-57809663D01*
X123004500Y-57504337D01*
X123041272Y-57319471D01*
X123064065Y-57204882D01*
X123167997Y-56953970D01*
X123180908Y-56922799D01*
X123350538Y-56668929D01*
X123566429Y-56453038D01*
X123820299Y-56283408D01*
X123914327Y-56244460D01*
X124102382Y-56166565D01*
X124302019Y-56126855D01*
X124401837Y-56107000D01*
X124707163Y-56107000D01*
X124806981Y-56126855D01*
X124806981Y-56126855D01*
G37*
G36*
X187105000Y-58200000D02*
X185005000Y-58200000D01*
X185005000Y-56100000D01*
X187105000Y-56100000D01*
X187105000Y-58200000D01*
X187105000Y-58200000D01*
G37*
G36*
X172281030Y-56164469D02*
X172281033Y-56164470D01*
X172281034Y-56164470D01*
X172469535Y-56221651D01*
X172469537Y-56221652D01*
X172643260Y-56314509D01*
X172795528Y-56439472D01*
X172920491Y-56591740D01*
X172920492Y-56591742D01*
X173013349Y-56765465D01*
X173061076Y-56922800D01*
X173070531Y-56953970D01*
X173089838Y-57150000D01*
X173070531Y-57346030D01*
X173070530Y-57346033D01*
X173070530Y-57346034D01*
X173044876Y-57430605D01*
X173013348Y-57534537D01*
X172920491Y-57708260D01*
X172795528Y-57860528D01*
X172643260Y-57985491D01*
X172643258Y-57985492D01*
X172469535Y-58078349D01*
X172281034Y-58135530D01*
X172281033Y-58135530D01*
X172281030Y-58135531D01*
X172134124Y-58150000D01*
X172035876Y-58150000D01*
X171888970Y-58135531D01*
X171888967Y-58135530D01*
X171888966Y-58135530D01*
X171700465Y-58078349D01*
X171526742Y-57985492D01*
X171526740Y-57985491D01*
X171374472Y-57860528D01*
X171249509Y-57708260D01*
X171156652Y-57534537D01*
X171125125Y-57430605D01*
X171099470Y-57346034D01*
X171099470Y-57346033D01*
X171099469Y-57346030D01*
X171080162Y-57150000D01*
X171099469Y-56953970D01*
X171108924Y-56922800D01*
X171156651Y-56765465D01*
X171249508Y-56591742D01*
X171249509Y-56591740D01*
X171374472Y-56439472D01*
X171526740Y-56314509D01*
X171700463Y-56221652D01*
X171700465Y-56221651D01*
X171888966Y-56164470D01*
X171888967Y-56164470D01*
X171888970Y-56164469D01*
X172035876Y-56150000D01*
X172134124Y-56150000D01*
X172281030Y-56164469D01*
X172281030Y-56164469D01*
G37*
G36*
X165465000Y-58150000D02*
X163465000Y-58150000D01*
X163465000Y-56150000D01*
X165465000Y-56150000D01*
X165465000Y-58150000D01*
X165465000Y-58150000D01*
G37*
G36*
X176175603Y-56224968D02*
X176175606Y-56224969D01*
X176175605Y-56224969D01*
X176350678Y-56297486D01*
X176350679Y-56297487D01*
X176508241Y-56402767D01*
X176642233Y-56536759D01*
X176642234Y-56536761D01*
X176747514Y-56694322D01*
X176774704Y-56759965D01*
X176820032Y-56869397D01*
X176857000Y-57055250D01*
X176857000Y-57244750D01*
X176820032Y-57430603D01*
X176820031Y-57430605D01*
X176747514Y-57605678D01*
X176747513Y-57605679D01*
X176642233Y-57763241D01*
X176508241Y-57897233D01*
X176499993Y-57902744D01*
X176350678Y-58002514D01*
X176215266Y-58058603D01*
X176175603Y-58075032D01*
X175989750Y-58112000D01*
X175800250Y-58112000D01*
X175614397Y-58075032D01*
X175574734Y-58058603D01*
X175439322Y-58002514D01*
X175290007Y-57902744D01*
X175281759Y-57897233D01*
X175147767Y-57763241D01*
X175042487Y-57605679D01*
X175042486Y-57605678D01*
X174969969Y-57430605D01*
X174969968Y-57430603D01*
X174933000Y-57244750D01*
X174933000Y-57055250D01*
X174969968Y-56869397D01*
X175015296Y-56759965D01*
X175042486Y-56694322D01*
X175147766Y-56536761D01*
X175147767Y-56536759D01*
X175281759Y-56402767D01*
X175439321Y-56297487D01*
X175439322Y-56297486D01*
X175614395Y-56224969D01*
X175614394Y-56224969D01*
X175614397Y-56224968D01*
X175800250Y-56188000D01*
X175989750Y-56188000D01*
X176175603Y-56224968D01*
X176175603Y-56224968D01*
G37*
G36*
X178715603Y-56224968D02*
X178715606Y-56224969D01*
X178715605Y-56224969D01*
X178890678Y-56297486D01*
X178890679Y-56297487D01*
X179048241Y-56402767D01*
X179182233Y-56536759D01*
X179182234Y-56536761D01*
X179287514Y-56694322D01*
X179314704Y-56759965D01*
X179360032Y-56869397D01*
X179397000Y-57055250D01*
X179397000Y-57244750D01*
X179360032Y-57430603D01*
X179360031Y-57430605D01*
X179287514Y-57605678D01*
X179287513Y-57605679D01*
X179182233Y-57763241D01*
X179048241Y-57897233D01*
X179039993Y-57902744D01*
X178890678Y-58002514D01*
X178755266Y-58058603D01*
X178715603Y-58075032D01*
X178529750Y-58112000D01*
X178340250Y-58112000D01*
X178154397Y-58075032D01*
X178114734Y-58058603D01*
X177979322Y-58002514D01*
X177830007Y-57902744D01*
X177821759Y-57897233D01*
X177687767Y-57763241D01*
X177582487Y-57605679D01*
X177582486Y-57605678D01*
X177509969Y-57430605D01*
X177509968Y-57430603D01*
X177473000Y-57244750D01*
X177473000Y-57055250D01*
X177509968Y-56869397D01*
X177555296Y-56759965D01*
X177582486Y-56694322D01*
X177687766Y-56536761D01*
X177687767Y-56536759D01*
X177821759Y-56402767D01*
X177979321Y-56297487D01*
X177979322Y-56297486D01*
X178154395Y-56224969D01*
X178154394Y-56224969D01*
X178154397Y-56224968D01*
X178340250Y-56188000D01*
X178529750Y-56188000D01*
X178715603Y-56224968D01*
X178715603Y-56224968D01*
G37*
G36*
X181144469Y-56591327D02*
X181250207Y-56635125D01*
X181345369Y-56698710D01*
X181426290Y-56779631D01*
X181489875Y-56874793D01*
X181533673Y-56980531D01*
X181556000Y-57092775D01*
X181556000Y-57207225D01*
X181533673Y-57319469D01*
X181489875Y-57425207D01*
X181426290Y-57520369D01*
X181345369Y-57601290D01*
X181250207Y-57664875D01*
X181144469Y-57708673D01*
X181032225Y-57731000D01*
X180917775Y-57731000D01*
X180805531Y-57708673D01*
X180699793Y-57664875D01*
X180604631Y-57601290D01*
X180523710Y-57520369D01*
X180460125Y-57425207D01*
X180416327Y-57319469D01*
X180394000Y-57207225D01*
X180394000Y-57092775D01*
X180416327Y-56980531D01*
X180460125Y-56874793D01*
X180523710Y-56779631D01*
X180604631Y-56698710D01*
X180699793Y-56635125D01*
X180805531Y-56591327D01*
X180917775Y-56569000D01*
X181032225Y-56569000D01*
X181144469Y-56591327D01*
X181144469Y-56591327D01*
G37*
M02*
