G04 #@! TF.GenerationSoftware,KiCad,Pcbnew,(6.0.0-rc1-dev-454-g181ce46b9)*
G04 #@! TF.CreationDate,2018-09-10T02:16:32-07:00*
G04 #@! TF.ProjectId,Stylish-Belt-Synth - Full,5374796C6973682D42656C742D53796E,rev?*
G04 #@! TF.SameCoordinates,Original*
G04 #@! TF.FileFunction,Profile,NP*
%FSLAX46Y46*%
G04 Gerber Fmt 4.6, Leading zero omitted, Abs format (unit mm)*
G04 Created by KiCad (PCBNEW (6.0.0-rc1-dev-454-g181ce46b9)) date 09/10/18 02:16:32*
%MOMM*%
%LPD*%
G01*
G04 APERTURE LIST*
%ADD10C,0.200000*%
%ADD11C,0.100000*%
G04 APERTURE END LIST*
D10*
X171632991Y-86051776D02*
G75*
G03X171632991Y-86051776I-23169991J0D01*
G01*
D11*
X179415123Y-54283441D02*
G75*
G02X196203694Y-55269032I-2328060J-183137393D01*
G01*
X179415124Y-54283442D02*
X170851904Y-54174585D01*
X117587076Y-54283442D02*
X126150296Y-54174585D01*
X160037453Y-54174585D02*
X148501100Y-54203600D01*
X136964747Y-54174585D02*
X148501100Y-54203600D01*
X170851904Y-54174585D02*
X160037453Y-54174585D01*
X126150296Y-54174585D02*
X136964747Y-54174585D01*
X117587077Y-155723759D02*
G75*
G02X100798506Y-154738168I2328060J183137393D01*
G01*
X66489823Y-135042325D02*
G75*
G02X61103601Y-120058635I46561744J25197603D01*
G01*
X88362058Y-152298406D02*
G75*
G02X76484537Y-146563252I10946241J37836466D01*
G01*
X196203695Y-154738167D02*
G75*
G02X179415124Y-155723758I-19116632J182151801D01*
G01*
X230512378Y-135042325D02*
G75*
G02X220517663Y-146563252I-30819117J16640608D01*
G01*
X235898599Y-120058635D02*
G75*
G02X230512377Y-135042325I-51947966J10213913D01*
G01*
X208640141Y-152298406D02*
G75*
G02X196203694Y-154738168I-20151862J69805482D01*
G01*
X76484538Y-146563252D02*
G75*
G02X66489823Y-135042325I20824401J28161535D01*
G01*
X220517663Y-146563252D02*
G75*
G02X208640142Y-152298406I-22823762J32101312D01*
G01*
X117587076Y-155723758D02*
X126150296Y-155832615D01*
X61103600Y-120058635D02*
G75*
G02X59601100Y-105003600I73147618J14902665D01*
G01*
X126150296Y-155832615D02*
X136964747Y-155832615D01*
X170851904Y-155832615D02*
X160037453Y-155832615D01*
X136964747Y-155832615D02*
X148501100Y-155803600D01*
X100798505Y-154738168D02*
G75*
G02X88362058Y-152298406I7715416J72245244D01*
G01*
X237401099Y-105003600D02*
G75*
G02X235898599Y-120058635I-74650117J-152370D01*
G01*
X179415124Y-155723758D02*
X170851904Y-155832615D01*
X160037453Y-155832615D02*
X148501100Y-155803600D01*
X235898600Y-89948565D02*
G75*
G02X237401100Y-105003600I-73147618J-14902665D01*
G01*
X230512377Y-74964875D02*
G75*
G02X235898599Y-89948565I-46561744J-25197603D01*
G01*
X220517662Y-63443948D02*
G75*
G02X230512377Y-74964875I-20824401J-28161535D01*
G01*
X208640142Y-57708794D02*
G75*
G02X220517663Y-63443948I-10946241J-37836466D01*
G01*
X196203695Y-55269032D02*
G75*
G02X208640142Y-57708794I-7715416J-72245244D01*
G01*
X100798505Y-55269033D02*
G75*
G02X117587076Y-54283442I19116632J-182151801D01*
G01*
X88362059Y-57708794D02*
G75*
G02X100798506Y-55269032I20151862J-69805482D01*
G01*
X76484537Y-63443948D02*
G75*
G02X88362058Y-57708794I22823762J-32101312D01*
G01*
X66489822Y-74964875D02*
G75*
G02X76484537Y-63443948I30819117J-16640608D01*
G01*
X61103601Y-89948565D02*
G75*
G02X66489823Y-74964875I51947966J-10213913D01*
G01*
X59601101Y-105003600D02*
G75*
G02X61103601Y-89948565I74650117J152370D01*
G01*
M02*
