G04 #@! TF.GenerationSoftware,KiCad,Pcbnew,(6.0.0-rc1-dev-890-g6c34fdefd)*
G04 #@! TF.CreationDate,2018-10-17T06:06:35-07:00*
G04 #@! TF.ProjectId,Stylish-Belt-Synth - Full,5374796C6973682D42656C742D53796E,rev?*
G04 #@! TF.SameCoordinates,Original*
G04 #@! TF.FileFunction,Legend,Bot*
G04 #@! TF.FilePolarity,Positive*
%FSLAX46Y46*%
G04 Gerber Fmt 4.6, Leading zero omitted, Abs format (unit mm)*
G04 Created by KiCad (PCBNEW (6.0.0-rc1-dev-890-g6c34fdefd)) date 10/17/2018 6:06:35 AM*
%MOMM*%
%LPD*%
G01*
G04 APERTURE LIST*
%ADD10C,0.120000*%
%ADD11C,0.150000*%
%ADD12C,0.200000*%
G04 APERTURE END LIST*
D10*
G04 #@! TO.C,LS1*
X199965000Y-57090000D02*
X202625000Y-57090000D01*
X199965000Y-59690000D02*
X199965000Y-57090000D01*
X202625000Y-59690000D02*
X202625000Y-57090000D01*
X199965000Y-59690000D02*
X202625000Y-59690000D01*
X199965000Y-60960000D02*
X199965000Y-62290000D01*
X199965000Y-62290000D02*
X201295000Y-62290000D01*
G04 #@! TO.C,BT2*
X187385000Y-68005000D02*
X184725000Y-68005000D01*
X187385000Y-65405000D02*
X187385000Y-68005000D01*
X184725000Y-65405000D02*
X184725000Y-68005000D01*
X187385000Y-65405000D02*
X184725000Y-65405000D01*
X187385000Y-64135000D02*
X187385000Y-62805000D01*
X187385000Y-62805000D02*
X186055000Y-62805000D01*
G04 #@! TO.C,BT1*
X187385000Y-61020000D02*
X184725000Y-61020000D01*
X187385000Y-58420000D02*
X187385000Y-61020000D01*
X184725000Y-58420000D02*
X184725000Y-61020000D01*
X187385000Y-58420000D02*
X184725000Y-58420000D01*
X187385000Y-57150000D02*
X187385000Y-55820000D01*
X187385000Y-55820000D02*
X186055000Y-55820000D01*
D11*
G04 #@! TO.C,J1*
X212896926Y-55207053D02*
X208896926Y-62135256D01*
X206996926Y-65426152D02*
X205646926Y-67764421D01*
X205646926Y-67764421D02*
X215866025Y-73664421D01*
X215866025Y-73664421D02*
X215916025Y-73577818D01*
X217216025Y-71326152D02*
X219266025Y-67775448D01*
X221166025Y-64484552D02*
X223116025Y-61107053D01*
X223116025Y-61107053D02*
X212896926Y-55207053D01*
X215581604Y-56757053D02*
X217381604Y-53639361D01*
X217381604Y-53639361D02*
X222750962Y-56739361D01*
X222750962Y-56739361D02*
X220950962Y-59857053D01*
D10*
G04 #@! TO.C,CA4*
X188448000Y-83840000D02*
X188448000Y-83526000D01*
X188448000Y-86146000D02*
X188448000Y-85832000D01*
X183328000Y-83840000D02*
X183328000Y-83526000D01*
X183328000Y-86146000D02*
X183328000Y-85832000D01*
X183328000Y-83526000D02*
X188448000Y-83526000D01*
X183328000Y-86146000D02*
X188448000Y-86146000D01*
G04 #@! TO.C,CA1*
X192552000Y-89896000D02*
X192552000Y-90210000D01*
X192552000Y-87590000D02*
X192552000Y-87904000D01*
X197672000Y-89896000D02*
X197672000Y-90210000D01*
X197672000Y-87590000D02*
X197672000Y-87904000D01*
X197672000Y-90210000D02*
X192552000Y-90210000D01*
X197672000Y-87590000D02*
X192552000Y-87590000D01*
G04 #@! TO.C,CA2*
X192552000Y-86340000D02*
X192552000Y-86654000D01*
X192552000Y-84034000D02*
X192552000Y-84348000D01*
X197672000Y-86340000D02*
X197672000Y-86654000D01*
X197672000Y-84034000D02*
X197672000Y-84348000D01*
X197672000Y-86654000D02*
X192552000Y-86654000D01*
X197672000Y-84034000D02*
X192552000Y-84034000D01*
G04 #@! TO.C,C1*
X189504000Y-73680000D02*
X189190000Y-73680000D01*
X191810000Y-73680000D02*
X191496000Y-73680000D01*
X189504000Y-78800000D02*
X189190000Y-78800000D01*
X191810000Y-78800000D02*
X191496000Y-78800000D01*
X189190000Y-78800000D02*
X189190000Y-73680000D01*
X191810000Y-78800000D02*
X191810000Y-73680000D01*
G04 #@! TO.C,CL15*
X137199361Y-61604659D02*
X137582044Y-60680779D01*
X139152639Y-61331341D02*
X138769956Y-62255221D01*
G04 #@! TO.C,CL14*
X130517000Y-66556000D02*
X130517000Y-67556000D01*
X128817000Y-67556000D02*
X128817000Y-66556000D01*
G04 #@! TO.C,CL13*
X123084878Y-76677013D02*
X122584878Y-75810987D01*
X124057122Y-74960987D02*
X124557122Y-75827013D01*
G04 #@! TO.C,CL12*
X121997964Y-84868933D02*
X122817116Y-85442509D01*
X121842036Y-86835067D02*
X121022884Y-86261491D01*
G04 #@! TO.C,CL11*
X123834659Y-96988639D02*
X122910779Y-96605956D01*
X123561341Y-95035361D02*
X124485221Y-95418044D01*
G04 #@! TO.C,CL10*
X128899995Y-103869737D02*
X129884803Y-103696089D01*
X130180005Y-105370263D02*
X129195197Y-105543911D01*
G04 #@! TO.C,CL9*
X139214124Y-110909970D02*
X138420771Y-111518731D01*
X137385876Y-110170030D02*
X138179229Y-109561269D01*
G04 #@! TO.C,CL8*
X147667468Y-112516653D02*
X148310256Y-111750608D01*
X149612532Y-112843347D02*
X148969744Y-113609392D01*
G04 #@! TO.C,CL7*
X157366089Y-111084803D02*
X157539737Y-110099995D01*
X159213911Y-110395197D02*
X159040263Y-111380005D01*
G04 #@! TO.C,CL6*
X167930263Y-104149995D02*
X168103911Y-105134803D01*
X166429737Y-105430005D02*
X166256089Y-104445197D01*
G04 #@! TO.C,CL5*
X172373878Y-97148013D02*
X171873878Y-96281987D01*
X173346122Y-95431987D02*
X173846122Y-96298013D01*
G04 #@! TO.C,CL4*
X175137964Y-85086933D02*
X175957116Y-85660509D01*
X174982036Y-87053067D02*
X174162884Y-86479491D01*
G04 #@! TO.C,CL3*
X172577316Y-74805401D02*
X173569862Y-74927270D01*
X173362684Y-76614599D02*
X172370138Y-76492730D01*
G04 #@! TO.C,CL2*
X167959862Y-68132730D02*
X166967316Y-68254599D01*
X166760138Y-66567270D02*
X167752684Y-66445401D01*
G04 #@! TO.C,CL1*
X157732779Y-60996044D02*
X158656659Y-60613361D01*
X159307221Y-62183956D02*
X158383341Y-62566639D01*
G04 #@! TO.C,CL0*
X142724182Y-59730248D02*
X142940621Y-60706544D01*
X141280918Y-61074492D02*
X141064479Y-60098196D01*
G04 #@! TO.C,R2*
X185502000Y-75028000D02*
X181782000Y-75028000D01*
X181782000Y-73308000D02*
X185502000Y-73308000D01*
G04 #@! TO.C,R1*
X181655000Y-76610000D02*
X185375000Y-76610000D01*
X185375000Y-78330000D02*
X181655000Y-78330000D01*
G04 #@! TO.C,R3*
X184322000Y-88040000D02*
X188042000Y-88040000D01*
X188042000Y-89760000D02*
X184322000Y-89760000D01*
D12*
G04 #@! TO.C,REF\002A\002A*
X211006469Y-76143674D02*
X211006469Y-77899296D01*
X211006469Y-76639768D02*
X211006469Y-76143674D01*
X211006469Y-81104615D02*
X211006469Y-76639768D01*
X214479127Y-81104615D02*
X211006469Y-81104615D01*
X214479127Y-76639768D02*
X214479127Y-81104615D01*
X214479127Y-76143674D02*
X214479127Y-76639768D01*
X219241631Y-76639768D02*
X219241631Y-76143674D01*
X219241631Y-81104615D02*
X219241631Y-76639768D01*
X215768972Y-81104615D02*
X219241631Y-81104615D01*
X215768972Y-76639768D02*
X215768972Y-81104615D01*
X215768972Y-76143674D02*
X215768972Y-76639768D01*
X83498472Y-75953174D02*
X83498472Y-76449268D01*
X83498472Y-76449268D02*
X83498472Y-80914115D01*
X83498472Y-80914115D02*
X86971131Y-80914115D01*
X86971131Y-80914115D02*
X86971131Y-76449268D01*
X86971131Y-76449268D02*
X86971131Y-75953174D01*
X82208627Y-75953174D02*
X82208627Y-76449268D01*
X82208627Y-76449268D02*
X82208627Y-80914115D01*
X82208627Y-80914115D02*
X78735969Y-80914115D01*
X78735969Y-80914115D02*
X78735969Y-76449268D01*
X78735969Y-76449268D02*
X78735969Y-75953174D01*
X78735969Y-75953174D02*
X78735969Y-77708796D01*
D11*
G04 #@! TO.C,U1*
X119634000Y-146431000D02*
X119634000Y-123571000D01*
X172974000Y-123571000D02*
X172974000Y-146431000D01*
X172974000Y-146431000D02*
X119634000Y-146431000D01*
X119634000Y-123571000D02*
X172974000Y-123571000D01*
D10*
G04 #@! TO.C,CA3*
X190665189Y-93758002D02*
G75*
G02X190664000Y-97798693I-1181189J-2019998D01*
G01*
X188302811Y-93758002D02*
G75*
G03X188304000Y-97798693I1181189J-2019998D01*
G01*
X188302811Y-93758002D02*
G75*
G02X190664000Y-93757307I1181189J-2019998D01*
G01*
X189484000Y-99228000D02*
X189484000Y-98028000D01*
X190134000Y-98628000D02*
X188834000Y-98628000D01*
D11*
G04 #@! TO.C,U2*
X192532000Y-99314000D02*
X197612000Y-99314000D01*
X197612000Y-99314000D02*
X197612000Y-94742000D01*
X197612000Y-94742000D02*
X192532000Y-94742000D01*
X192532000Y-94742000D02*
X192532000Y-99314000D01*
X192532000Y-97790000D02*
X193040000Y-97790000D01*
X193040000Y-97790000D02*
X193040000Y-96520000D01*
X193040000Y-96520000D02*
X192532000Y-96520000D01*
D10*
G04 #@! TO.C,J0*
X112454500Y-64387000D02*
X124654500Y-64387000D01*
X124654500Y-47367000D02*
X112454500Y-47367000D01*
X124654500Y-64387000D02*
X124654500Y-59307000D01*
X124654500Y-56007000D02*
X124654500Y-47367000D01*
X112454500Y-64387000D02*
X112454500Y-59307000D01*
X112454500Y-56007000D02*
X112454500Y-47367000D01*
G04 #@! TO.C,BT2*
D11*
X182455714Y-61793571D02*
X182312857Y-61841190D01*
X182265238Y-61888809D01*
X182217619Y-61984047D01*
X182217619Y-62126904D01*
X182265238Y-62222142D01*
X182312857Y-62269761D01*
X182408095Y-62317380D01*
X182789047Y-62317380D01*
X182789047Y-61317380D01*
X182455714Y-61317380D01*
X182360476Y-61365000D01*
X182312857Y-61412619D01*
X182265238Y-61507857D01*
X182265238Y-61603095D01*
X182312857Y-61698333D01*
X182360476Y-61745952D01*
X182455714Y-61793571D01*
X182789047Y-61793571D01*
X181931904Y-61317380D02*
X181360476Y-61317380D01*
X181646190Y-62317380D02*
X181646190Y-61317380D01*
X181074761Y-61412619D02*
X181027142Y-61365000D01*
X180931904Y-61317380D01*
X180693809Y-61317380D01*
X180598571Y-61365000D01*
X180550952Y-61412619D01*
X180503333Y-61507857D01*
X180503333Y-61603095D01*
X180550952Y-61745952D01*
X181122380Y-62317380D01*
X180503333Y-62317380D01*
G04 #@! TO.C,BT1*
X184408214Y-55443571D02*
X184265357Y-55491190D01*
X184217738Y-55538809D01*
X184170119Y-55634047D01*
X184170119Y-55776904D01*
X184217738Y-55872142D01*
X184265357Y-55919761D01*
X184360595Y-55967380D01*
X184741547Y-55967380D01*
X184741547Y-54967380D01*
X184408214Y-54967380D01*
X184312976Y-55015000D01*
X184265357Y-55062619D01*
X184217738Y-55157857D01*
X184217738Y-55253095D01*
X184265357Y-55348333D01*
X184312976Y-55395952D01*
X184408214Y-55443571D01*
X184741547Y-55443571D01*
X183884404Y-54967380D02*
X183312976Y-54967380D01*
X183598690Y-55967380D02*
X183598690Y-54967380D01*
X182455833Y-55967380D02*
X183027261Y-55967380D01*
X182741547Y-55967380D02*
X182741547Y-54967380D01*
X182836785Y-55110238D01*
X182932023Y-55205476D01*
X183027261Y-55253095D01*
G04 #@! TO.C,J1*
X205674039Y-60282220D02*
X206292629Y-60639363D01*
X206440156Y-60669552D01*
X206570254Y-60634692D01*
X206682922Y-60534784D01*
X206730541Y-60452305D01*
X206040065Y-61648245D02*
X206325779Y-61153374D01*
X206182922Y-61400809D02*
X205316896Y-60900809D01*
X205488233Y-60889759D01*
X205618331Y-60854900D01*
X205707189Y-60796231D01*
G04 #@! TO.C,CA4*
X183983238Y-86943142D02*
X184030857Y-86990761D01*
X184173714Y-87038380D01*
X184268952Y-87038380D01*
X184411809Y-86990761D01*
X184507047Y-86895523D01*
X184554666Y-86800285D01*
X184602285Y-86609809D01*
X184602285Y-86466952D01*
X184554666Y-86276476D01*
X184507047Y-86181238D01*
X184411809Y-86086000D01*
X184268952Y-86038380D01*
X184173714Y-86038380D01*
X184030857Y-86086000D01*
X183983238Y-86133619D01*
X183602285Y-86752666D02*
X183126095Y-86752666D01*
X183697523Y-87038380D02*
X183364190Y-86038380D01*
X183030857Y-87038380D01*
X182268952Y-86371714D02*
X182268952Y-87038380D01*
X182507047Y-85990761D02*
X182745142Y-86705047D01*
X182126095Y-86705047D01*
G04 #@! TO.C,CA1*
X201362238Y-89257142D02*
X201409857Y-89304761D01*
X201552714Y-89352380D01*
X201647952Y-89352380D01*
X201790809Y-89304761D01*
X201886047Y-89209523D01*
X201933666Y-89114285D01*
X201981285Y-88923809D01*
X201981285Y-88780952D01*
X201933666Y-88590476D01*
X201886047Y-88495238D01*
X201790809Y-88400000D01*
X201647952Y-88352380D01*
X201552714Y-88352380D01*
X201409857Y-88400000D01*
X201362238Y-88447619D01*
X200981285Y-89066666D02*
X200505095Y-89066666D01*
X201076523Y-89352380D02*
X200743190Y-88352380D01*
X200409857Y-89352380D01*
X199552714Y-89352380D02*
X200124142Y-89352380D01*
X199838428Y-89352380D02*
X199838428Y-88352380D01*
X199933666Y-88495238D01*
X200028904Y-88590476D01*
X200124142Y-88638095D01*
G04 #@! TO.C,CA2*
X201402238Y-85701142D02*
X201449857Y-85748761D01*
X201592714Y-85796380D01*
X201687952Y-85796380D01*
X201830809Y-85748761D01*
X201926047Y-85653523D01*
X201973666Y-85558285D01*
X202021285Y-85367809D01*
X202021285Y-85224952D01*
X201973666Y-85034476D01*
X201926047Y-84939238D01*
X201830809Y-84844000D01*
X201687952Y-84796380D01*
X201592714Y-84796380D01*
X201449857Y-84844000D01*
X201402238Y-84891619D01*
X201021285Y-85510666D02*
X200545095Y-85510666D01*
X201116523Y-85796380D02*
X200783190Y-84796380D01*
X200449857Y-85796380D01*
X200164142Y-84891619D02*
X200116523Y-84844000D01*
X200021285Y-84796380D01*
X199783190Y-84796380D01*
X199687952Y-84844000D01*
X199640333Y-84891619D01*
X199592714Y-84986857D01*
X199592714Y-85082095D01*
X199640333Y-85224952D01*
X200211761Y-85796380D01*
X199592714Y-85796380D01*
G04 #@! TO.C,C1*
X190857142Y-75418333D02*
X190904761Y-75370714D01*
X190952380Y-75227857D01*
X190952380Y-75132619D01*
X190904761Y-74989761D01*
X190809523Y-74894523D01*
X190714285Y-74846904D01*
X190523809Y-74799285D01*
X190380952Y-74799285D01*
X190190476Y-74846904D01*
X190095238Y-74894523D01*
X190000000Y-74989761D01*
X189952380Y-75132619D01*
X189952380Y-75227857D01*
X190000000Y-75370714D01*
X190047619Y-75418333D01*
X190952380Y-76370714D02*
X190952380Y-75799285D01*
X190952380Y-76085000D02*
X189952380Y-76085000D01*
X190095238Y-75989761D01*
X190190476Y-75894523D01*
X190238095Y-75799285D01*
G04 #@! TO.C,CL15*
X140523652Y-61306494D02*
X140585869Y-61280723D01*
X140684533Y-61166963D01*
X140720979Y-61078975D01*
X140731653Y-60928769D01*
X140680111Y-60804334D01*
X140610345Y-60723894D01*
X140452591Y-60607008D01*
X140320609Y-60552339D01*
X140126408Y-60523441D01*
X140020197Y-60530989D01*
X139895762Y-60582532D01*
X139797099Y-60696291D01*
X139760653Y-60784280D01*
X139749978Y-60934486D01*
X139775749Y-60996703D01*
X140265403Y-62178831D02*
X140447633Y-61738889D01*
X139523754Y-61356205D01*
X139937389Y-62970728D02*
X140156065Y-62442797D01*
X140046727Y-62706763D02*
X139122847Y-62324079D01*
X139291276Y-62290760D01*
X139415711Y-62239217D01*
X139496151Y-62169452D01*
X138667272Y-63423936D02*
X138849502Y-62983993D01*
X139307668Y-63122229D01*
X139245450Y-63148000D01*
X139165010Y-63217766D01*
X139073895Y-63437737D01*
X139081443Y-63543949D01*
X139107214Y-63606166D01*
X139176980Y-63686606D01*
X139396951Y-63777721D01*
X139503163Y-63770173D01*
X139565380Y-63744402D01*
X139645820Y-63674636D01*
X139736935Y-63454665D01*
X139729387Y-63348453D01*
X139703616Y-63286236D01*
G04 #@! TO.C,CL14*
X131774142Y-66008380D02*
X131821761Y-65960761D01*
X131869380Y-65817904D01*
X131869380Y-65722666D01*
X131821761Y-65579809D01*
X131726523Y-65484571D01*
X131631285Y-65436952D01*
X131440809Y-65389333D01*
X131297952Y-65389333D01*
X131107476Y-65436952D01*
X131012238Y-65484571D01*
X130917000Y-65579809D01*
X130869380Y-65722666D01*
X130869380Y-65817904D01*
X130917000Y-65960761D01*
X130964619Y-66008380D01*
X131869380Y-66913142D02*
X131869380Y-66436952D01*
X130869380Y-66436952D01*
X131869380Y-67770285D02*
X131869380Y-67198857D01*
X131869380Y-67484571D02*
X130869380Y-67484571D01*
X131012238Y-67389333D01*
X131107476Y-67294095D01*
X131155095Y-67198857D01*
X131202714Y-68627428D02*
X131869380Y-68627428D01*
X130821761Y-68389333D02*
X131536047Y-68151238D01*
X131536047Y-68770285D01*
G04 #@! TO.C,CL13*
X125301058Y-76029836D02*
X125283628Y-76094884D01*
X125313818Y-76242412D01*
X125361437Y-76324891D01*
X125474105Y-76424799D01*
X125604202Y-76459658D01*
X125710490Y-76453279D01*
X125899257Y-76399280D01*
X126022975Y-76327851D01*
X126164123Y-76191374D01*
X126222792Y-76102516D01*
X126257651Y-75972418D01*
X126227462Y-75824891D01*
X126179843Y-75742412D01*
X126067175Y-75642504D01*
X126002126Y-75625074D01*
X124766199Y-75293908D02*
X125004294Y-75706301D01*
X125870319Y-75206301D01*
X124337627Y-74551600D02*
X124623342Y-75046472D01*
X124480484Y-74799036D02*
X125346510Y-74299036D01*
X125270411Y-74452943D01*
X125235551Y-74583041D01*
X125241931Y-74689329D01*
X125036986Y-73762925D02*
X124727462Y-73226814D01*
X124564214Y-73705966D01*
X124492786Y-73582248D01*
X124403927Y-73523579D01*
X124338879Y-73506149D01*
X124232591Y-73512529D01*
X124026394Y-73631576D01*
X123967725Y-73720435D01*
X123950295Y-73785483D01*
X123956675Y-73891772D01*
X124099532Y-74139207D01*
X124188390Y-74197876D01*
X124253439Y-74215306D01*
G04 #@! TO.C,CL12*
X123577069Y-85311927D02*
X123588763Y-85378248D01*
X123678472Y-85499195D01*
X123756486Y-85553821D01*
X123900821Y-85596753D01*
X124033462Y-85573365D01*
X124127095Y-85522664D01*
X124275355Y-85393948D01*
X124357295Y-85276926D01*
X124427540Y-85093584D01*
X124443159Y-84988256D01*
X124419771Y-84855616D01*
X124330063Y-84734669D01*
X124252048Y-84680042D01*
X124107713Y-84637110D01*
X124041393Y-84648804D01*
X122781305Y-84870992D02*
X123171378Y-85144123D01*
X123744954Y-84324971D01*
X122079175Y-84379355D02*
X122547262Y-84707113D01*
X122313218Y-84543234D02*
X122886795Y-83724082D01*
X122882870Y-83895730D01*
X122906258Y-84028371D01*
X122956959Y-84122004D01*
X122286067Y-83419712D02*
X122274373Y-83353392D01*
X122223672Y-83259758D01*
X122028635Y-83123192D01*
X121923308Y-83107573D01*
X121856987Y-83119267D01*
X121763354Y-83169968D01*
X121708727Y-83247983D01*
X121665795Y-83392318D01*
X121806124Y-84188163D01*
X121299030Y-83833092D01*
G04 #@! TO.C,CL11*
X125198897Y-95126074D02*
X125224668Y-95188291D01*
X125338428Y-95286955D01*
X125426416Y-95323401D01*
X125576622Y-95334075D01*
X125701057Y-95282533D01*
X125781497Y-95212767D01*
X125898383Y-95055013D01*
X125953052Y-94923031D01*
X125981950Y-94728830D01*
X125974402Y-94622619D01*
X125922859Y-94498184D01*
X125809100Y-94399521D01*
X125721111Y-94363075D01*
X125570905Y-94352400D01*
X125508688Y-94378171D01*
X124326560Y-94867825D02*
X124766502Y-95050055D01*
X125149186Y-94126176D01*
X123534663Y-94539811D02*
X124062594Y-94758487D01*
X123798628Y-94649149D02*
X124181312Y-93725269D01*
X124214631Y-93893698D01*
X124266174Y-94018133D01*
X124335939Y-94098573D01*
X122654778Y-94175350D02*
X123182709Y-94394027D01*
X122918743Y-94284688D02*
X123301427Y-93360809D01*
X123334746Y-93529238D01*
X123386289Y-93653672D01*
X123456054Y-93734113D01*
G04 #@! TO.C,CL10*
X130329836Y-103066385D02*
X130385001Y-103105012D01*
X130533956Y-103127101D01*
X130627748Y-103110563D01*
X130760165Y-103038860D01*
X130837419Y-102928531D01*
X130867776Y-102826471D01*
X130881596Y-102630620D01*
X130856789Y-102489933D01*
X130776818Y-102310619D01*
X130713384Y-102225097D01*
X130603055Y-102147844D01*
X130454099Y-102125755D01*
X130360308Y-102142293D01*
X130227890Y-102213996D01*
X130189264Y-102269160D01*
X129455357Y-103317287D02*
X129924314Y-103234597D01*
X129750665Y-102249790D01*
X128611237Y-103466128D02*
X129173984Y-103366901D01*
X128892610Y-103416514D02*
X128718962Y-102431707D01*
X128837560Y-102555856D01*
X128947889Y-102633109D01*
X129049949Y-102663467D01*
X127827945Y-102588817D02*
X127734154Y-102605355D01*
X127648632Y-102668788D01*
X127610005Y-102723953D01*
X127579648Y-102826013D01*
X127565828Y-103021865D01*
X127607173Y-103256343D01*
X127687144Y-103435656D01*
X127750578Y-103521178D01*
X127805742Y-103559805D01*
X127907802Y-103590163D01*
X128001594Y-103573625D01*
X128087116Y-103510191D01*
X128125743Y-103455027D01*
X128156100Y-103352966D01*
X128169920Y-103157115D01*
X128128575Y-102922637D01*
X128048604Y-102743324D01*
X127985170Y-102657801D01*
X127930006Y-102619175D01*
X127827945Y-102588817D01*
G04 #@! TO.C,CL9*
X137905426Y-109087108D02*
X137972193Y-109095898D01*
X138114518Y-109046711D01*
X138190076Y-108988734D01*
X138274423Y-108863989D01*
X138292003Y-108730455D01*
X138271805Y-108625908D01*
X138193629Y-108445805D01*
X138106663Y-108332469D01*
X137952930Y-108210342D01*
X137857174Y-108163774D01*
X137723639Y-108146193D01*
X137581314Y-108195381D01*
X137505757Y-108253358D01*
X137421409Y-108378103D01*
X137412619Y-108444870D01*
X137245607Y-109713450D02*
X137623395Y-109423564D01*
X137014633Y-108630210D01*
X136943378Y-109945359D02*
X136792263Y-110061314D01*
X136687717Y-110081512D01*
X136620949Y-110072722D01*
X136458426Y-110017363D01*
X136304693Y-109895237D01*
X136072783Y-109593007D01*
X136052585Y-109488461D01*
X136061375Y-109421694D01*
X136107944Y-109325938D01*
X136259059Y-109209983D01*
X136363605Y-109189784D01*
X136430372Y-109198575D01*
X136526128Y-109245143D01*
X136671071Y-109434037D01*
X136691270Y-109538583D01*
X136682480Y-109605350D01*
X136635911Y-109701106D01*
X136484796Y-109817061D01*
X136380250Y-109837260D01*
X136313483Y-109828469D01*
X136217727Y-109781901D01*
G04 #@! TO.C,CL8*
X147940316Y-111346949D02*
X148007403Y-111341079D01*
X148135708Y-111262253D01*
X148196926Y-111189297D01*
X148252275Y-111049253D01*
X148240536Y-110915079D01*
X148198188Y-110817382D01*
X148082884Y-110658468D01*
X147973449Y-110566641D01*
X147796927Y-110480684D01*
X147693361Y-110455945D01*
X147559187Y-110467683D01*
X147430882Y-110546509D01*
X147369664Y-110619466D01*
X147314315Y-110759510D01*
X147320185Y-110826597D01*
X147431703Y-112101255D02*
X147737792Y-111736471D01*
X146971748Y-111093684D01*
X146687874Y-112098730D02*
X146712613Y-111995165D01*
X146706744Y-111928078D01*
X146664396Y-111830381D01*
X146627918Y-111799772D01*
X146524353Y-111775033D01*
X146457265Y-111780902D01*
X146359569Y-111823250D01*
X146237133Y-111969163D01*
X146212394Y-112072729D01*
X146218263Y-112139816D01*
X146260611Y-112237512D01*
X146297089Y-112268121D01*
X146400655Y-112292861D01*
X146467742Y-112286991D01*
X146565438Y-112244644D01*
X146687874Y-112098730D01*
X146785570Y-112056383D01*
X146852657Y-112050513D01*
X146956223Y-112075253D01*
X147102136Y-112197689D01*
X147144484Y-112295385D01*
X147150353Y-112362472D01*
X147125614Y-112466038D01*
X147003178Y-112611951D01*
X146905482Y-112654298D01*
X146838394Y-112660168D01*
X146734829Y-112635428D01*
X146588916Y-112512993D01*
X146546568Y-112415296D01*
X146540699Y-112348209D01*
X146565438Y-112244644D01*
G04 #@! TO.C,CL7*
X157017530Y-109935385D02*
X157072695Y-109896759D01*
X157144397Y-109764341D01*
X157160935Y-109670550D01*
X157138846Y-109521594D01*
X157061593Y-109411265D01*
X156976071Y-109347831D01*
X156796757Y-109267860D01*
X156656071Y-109243053D01*
X156460219Y-109256873D01*
X156358159Y-109287230D01*
X156247830Y-109364484D01*
X156176127Y-109496902D01*
X156159589Y-109590693D01*
X156181678Y-109739649D01*
X156220305Y-109794813D01*
X156954211Y-110842940D02*
X157036901Y-110373984D01*
X156052093Y-110200336D01*
X155928058Y-110903770D02*
X155812293Y-111560308D01*
X156871521Y-111311896D01*
G04 #@! TO.C,CL6*
X165204096Y-105718648D02*
X165165469Y-105773813D01*
X165143381Y-105922768D01*
X165159919Y-106016560D01*
X165231621Y-106148977D01*
X165341950Y-106226231D01*
X165444010Y-106256588D01*
X165639862Y-106270408D01*
X165780549Y-106245601D01*
X165959862Y-106165630D01*
X166045384Y-106102196D01*
X166122638Y-105991867D01*
X166144726Y-105842911D01*
X166128188Y-105749120D01*
X166056486Y-105616702D01*
X166001321Y-105578076D01*
X164953195Y-104844169D02*
X165035884Y-105313125D01*
X166020692Y-105139477D01*
X165805699Y-103920191D02*
X165838775Y-104107774D01*
X165808417Y-104209834D01*
X165769790Y-104264999D01*
X165645641Y-104383597D01*
X165466328Y-104463568D01*
X165091163Y-104529720D01*
X164989103Y-104499362D01*
X164933938Y-104460736D01*
X164870505Y-104375213D01*
X164837429Y-104187631D01*
X164867787Y-104085571D01*
X164906413Y-104030406D01*
X164991936Y-103966973D01*
X165226414Y-103925628D01*
X165328474Y-103955985D01*
X165383638Y-103994612D01*
X165447072Y-104080134D01*
X165480148Y-104267717D01*
X165449790Y-104369777D01*
X165411163Y-104424942D01*
X165325641Y-104488375D01*
G04 #@! TO.C,CL5*
X171786419Y-98663443D02*
X171768989Y-98728491D01*
X171799178Y-98876019D01*
X171846798Y-98958497D01*
X171959465Y-99058406D01*
X172089563Y-99093265D01*
X172195851Y-99086886D01*
X172384618Y-99032887D01*
X172508336Y-98961458D01*
X172649484Y-98824981D01*
X172708153Y-98736123D01*
X172743012Y-98606025D01*
X172712823Y-98458497D01*
X172665204Y-98376019D01*
X172552536Y-98276110D01*
X172487487Y-98258681D01*
X171251559Y-97927515D02*
X171489655Y-98339908D01*
X172355680Y-97839908D01*
X171712823Y-96726447D02*
X171950918Y-97138840D01*
X171562335Y-97418174D01*
X171579764Y-97353125D01*
X171573385Y-97246837D01*
X171454337Y-97040641D01*
X171365479Y-96981972D01*
X171300430Y-96964542D01*
X171194142Y-96970922D01*
X170987945Y-97089969D01*
X170929276Y-97178828D01*
X170911846Y-97243876D01*
X170918226Y-97350165D01*
X171037274Y-97556361D01*
X171126132Y-97615030D01*
X171191181Y-97632460D01*
G04 #@! TO.C,CL4*
X174319479Y-88123828D02*
X174331173Y-88190148D01*
X174420881Y-88311095D01*
X174498896Y-88365721D01*
X174643231Y-88408653D01*
X174775871Y-88385265D01*
X174869505Y-88334564D01*
X175017765Y-88205848D01*
X175099704Y-88088826D01*
X175169950Y-87905484D01*
X175185569Y-87800157D01*
X175162181Y-87667516D01*
X175072472Y-87546569D01*
X174994458Y-87491943D01*
X174850123Y-87449011D01*
X174783802Y-87460705D01*
X173523715Y-87682892D02*
X173913787Y-87956024D01*
X174487364Y-87136872D01*
X173281983Y-86699780D02*
X172899599Y-87245882D01*
X173695525Y-86524288D02*
X173480863Y-87245962D01*
X172973769Y-86890891D01*
G04 #@! TO.C,CL3*
X173280373Y-77871076D02*
X173321834Y-77924143D01*
X173457823Y-77988817D01*
X173552351Y-78000424D01*
X173699947Y-77970570D01*
X173806081Y-77887648D01*
X173864952Y-77798923D01*
X173935429Y-77615670D01*
X173952839Y-77473878D01*
X173928788Y-77279018D01*
X173893131Y-77178687D01*
X173810209Y-77072552D01*
X173674220Y-77007878D01*
X173579692Y-76996271D01*
X173432097Y-77026125D01*
X173379029Y-77067586D01*
X172370748Y-77855341D02*
X172843389Y-77913374D01*
X172965259Y-76920828D01*
X172256297Y-76833779D02*
X171641864Y-76758336D01*
X171926286Y-77177072D01*
X171784494Y-77159662D01*
X171684162Y-77195319D01*
X171631095Y-77236780D01*
X171572224Y-77325505D01*
X171543208Y-77561826D01*
X171578865Y-77662157D01*
X171620326Y-77715224D01*
X171709051Y-77774095D01*
X171992636Y-77808915D01*
X172092967Y-77773257D01*
X172146035Y-77731797D01*
G04 #@! TO.C,CL2*
X168183964Y-69371797D02*
X168237032Y-69413257D01*
X168384628Y-69443112D01*
X168479156Y-69431505D01*
X168615145Y-69366831D01*
X168698066Y-69260696D01*
X168733724Y-69160365D01*
X168757775Y-68965505D01*
X168740365Y-68823713D01*
X168669887Y-68640460D01*
X168611017Y-68551735D01*
X168504882Y-68468813D01*
X168357286Y-68438959D01*
X168262758Y-68450565D01*
X168126769Y-68515239D01*
X168085308Y-68568307D01*
X167297553Y-69576588D02*
X167770194Y-69518555D01*
X167648325Y-68526008D01*
X166903706Y-68713389D02*
X166850638Y-68671929D01*
X166750307Y-68636271D01*
X166513986Y-68665288D01*
X166425261Y-68724158D01*
X166383801Y-68777226D01*
X166348143Y-68877557D01*
X166359750Y-68972085D01*
X166424424Y-69108074D01*
X167061233Y-69605604D01*
X166446799Y-69681047D01*
G04 #@! TO.C,CL1*
X159854299Y-63318069D02*
X159916517Y-63343840D01*
X160066722Y-63333166D01*
X160154711Y-63296720D01*
X160268471Y-63198056D01*
X160320013Y-63073622D01*
X160327561Y-62967410D01*
X160298664Y-62773210D01*
X160243995Y-62641227D01*
X160127108Y-62483473D01*
X160046668Y-62413708D01*
X159922233Y-62362165D01*
X159772028Y-62372840D01*
X159684039Y-62409286D01*
X159570279Y-62507949D01*
X159544508Y-62570167D01*
X159054854Y-63752295D02*
X159494797Y-63570065D01*
X159112114Y-62646185D01*
X158262958Y-64080310D02*
X158790889Y-63861633D01*
X158526923Y-63970971D02*
X158144240Y-63047092D01*
X158286897Y-63142629D01*
X158411332Y-63194171D01*
X158517543Y-63201719D01*
G04 #@! TO.C,CL0*
X143486070Y-60658784D02*
X143449886Y-60715581D01*
X143434316Y-60865358D01*
X143454929Y-60958339D01*
X143532340Y-61087503D01*
X143645934Y-61159870D01*
X143749221Y-61185747D01*
X143945489Y-61191011D01*
X144084959Y-61160091D01*
X144260614Y-61072374D01*
X144343288Y-61005271D01*
X144415655Y-60891677D01*
X144431225Y-60741899D01*
X144410612Y-60648919D01*
X144333202Y-60519754D01*
X144276405Y-60483571D01*
X143197263Y-59796082D02*
X143300330Y-60260985D01*
X144276626Y-60044545D01*
X144060186Y-59068249D02*
X144039573Y-58975268D01*
X143972469Y-58892594D01*
X143915672Y-58856411D01*
X143812385Y-58830534D01*
X143616117Y-58825270D01*
X143383666Y-58876803D01*
X143208011Y-58964520D01*
X143125337Y-59031624D01*
X143089154Y-59088421D01*
X143063277Y-59191708D01*
X143083890Y-59284689D01*
X143150994Y-59367362D01*
X143207791Y-59403546D01*
X143311078Y-59429423D01*
X143507346Y-59434687D01*
X143739797Y-59383154D01*
X143915452Y-59295437D01*
X143998125Y-59228333D01*
X144034309Y-59171536D01*
X144060186Y-59068249D01*
G04 #@! TO.C,R2*
X176268666Y-74620380D02*
X176602000Y-74144190D01*
X176840095Y-74620380D02*
X176840095Y-73620380D01*
X176459142Y-73620380D01*
X176363904Y-73668000D01*
X176316285Y-73715619D01*
X176268666Y-73810857D01*
X176268666Y-73953714D01*
X176316285Y-74048952D01*
X176363904Y-74096571D01*
X176459142Y-74144190D01*
X176840095Y-74144190D01*
X175887714Y-73715619D02*
X175840095Y-73668000D01*
X175744857Y-73620380D01*
X175506761Y-73620380D01*
X175411523Y-73668000D01*
X175363904Y-73715619D01*
X175316285Y-73810857D01*
X175316285Y-73906095D01*
X175363904Y-74048952D01*
X175935333Y-74620380D01*
X175316285Y-74620380D01*
G04 #@! TO.C,R1*
X184871666Y-79827380D02*
X185205000Y-79351190D01*
X185443095Y-79827380D02*
X185443095Y-78827380D01*
X185062142Y-78827380D01*
X184966904Y-78875000D01*
X184919285Y-78922619D01*
X184871666Y-79017857D01*
X184871666Y-79160714D01*
X184919285Y-79255952D01*
X184966904Y-79303571D01*
X185062142Y-79351190D01*
X185443095Y-79351190D01*
X183919285Y-79827380D02*
X184490714Y-79827380D01*
X184205000Y-79827380D02*
X184205000Y-78827380D01*
X184300238Y-78970238D01*
X184395476Y-79065476D01*
X184490714Y-79113095D01*
G04 #@! TO.C,R3*
X190158666Y-87652380D02*
X190492000Y-87176190D01*
X190730095Y-87652380D02*
X190730095Y-86652380D01*
X190349142Y-86652380D01*
X190253904Y-86700000D01*
X190206285Y-86747619D01*
X190158666Y-86842857D01*
X190158666Y-86985714D01*
X190206285Y-87080952D01*
X190253904Y-87128571D01*
X190349142Y-87176190D01*
X190730095Y-87176190D01*
X189825333Y-86652380D02*
X189206285Y-86652380D01*
X189539619Y-87033333D01*
X189396761Y-87033333D01*
X189301523Y-87080952D01*
X189253904Y-87128571D01*
X189206285Y-87223809D01*
X189206285Y-87461904D01*
X189253904Y-87557142D01*
X189301523Y-87604761D01*
X189396761Y-87652380D01*
X189682476Y-87652380D01*
X189777714Y-87604761D01*
X189825333Y-87557142D01*
G04 #@! TO.C,REF\002A\002A*
X215245142Y-120558571D02*
X215245142Y-121701428D01*
X215816571Y-121130000D02*
X214673714Y-121130000D01*
X215245142Y-142148571D02*
X215245142Y-143291428D01*
X82974642Y-141958071D02*
X82974642Y-143100928D01*
X82974642Y-120368071D02*
X82974642Y-121510928D01*
X83546071Y-120939500D02*
X82403214Y-120939500D01*
G04 #@! TO.C,J30*
X127961923Y-149998180D02*
X127961923Y-150712466D01*
X128009542Y-150855323D01*
X128104780Y-150950561D01*
X128247638Y-150998180D01*
X128342876Y-150998180D01*
X127580971Y-149998180D02*
X126961923Y-149998180D01*
X127295257Y-150379133D01*
X127152400Y-150379133D01*
X127057161Y-150426752D01*
X127009542Y-150474371D01*
X126961923Y-150569609D01*
X126961923Y-150807704D01*
X127009542Y-150902942D01*
X127057161Y-150950561D01*
X127152400Y-150998180D01*
X127438114Y-150998180D01*
X127533352Y-150950561D01*
X127580971Y-150902942D01*
X126342876Y-149998180D02*
X126247638Y-149998180D01*
X126152400Y-150045800D01*
X126104780Y-150093419D01*
X126057161Y-150188657D01*
X126009542Y-150379133D01*
X126009542Y-150617228D01*
X126057161Y-150807704D01*
X126104780Y-150902942D01*
X126152400Y-150950561D01*
X126247638Y-150998180D01*
X126342876Y-150998180D01*
X126438114Y-150950561D01*
X126485733Y-150902942D01*
X126533352Y-150807704D01*
X126580971Y-150617228D01*
X126580971Y-150379133D01*
X126533352Y-150188657D01*
X126485733Y-150093419D01*
X126438114Y-150045800D01*
X126342876Y-149998180D01*
G04 #@! TO.C,U1*
X147065904Y-133183380D02*
X147065904Y-133992904D01*
X147018285Y-134088142D01*
X146970666Y-134135761D01*
X146875428Y-134183380D01*
X146684952Y-134183380D01*
X146589714Y-134135761D01*
X146542095Y-134088142D01*
X146494476Y-133992904D01*
X146494476Y-133183380D01*
X145494476Y-134183380D02*
X146065904Y-134183380D01*
X145780190Y-134183380D02*
X145780190Y-133183380D01*
X145875428Y-133326238D01*
X145970666Y-133421476D01*
X146065904Y-133469095D01*
X157780190Y-136675761D02*
X157684952Y-136723380D01*
X157494476Y-136723380D01*
X157399238Y-136675761D01*
X157351619Y-136580523D01*
X157351619Y-136532904D01*
X157399238Y-136437666D01*
X157494476Y-136390047D01*
X157637333Y-136390047D01*
X157732571Y-136342428D01*
X157780190Y-136247190D01*
X157780190Y-136199571D01*
X157732571Y-136104333D01*
X157637333Y-136056714D01*
X157494476Y-136056714D01*
X157399238Y-136104333D01*
X157065904Y-136056714D02*
X156684952Y-136056714D01*
X156923047Y-135723380D02*
X156923047Y-136580523D01*
X156875428Y-136675761D01*
X156780190Y-136723380D01*
X156684952Y-136723380D01*
X156351619Y-136723380D02*
X156351619Y-136056714D01*
X156351619Y-136151952D02*
X156304000Y-136104333D01*
X156208761Y-136056714D01*
X156065904Y-136056714D01*
X155970666Y-136104333D01*
X155923047Y-136199571D01*
X155923047Y-136723380D01*
X155923047Y-136199571D02*
X155875428Y-136104333D01*
X155780190Y-136056714D01*
X155637333Y-136056714D01*
X155542095Y-136104333D01*
X155494476Y-136199571D01*
X155494476Y-136723380D01*
X155113523Y-135723380D02*
X154494476Y-135723380D01*
X154827809Y-136104333D01*
X154684952Y-136104333D01*
X154589714Y-136151952D01*
X154542095Y-136199571D01*
X154494476Y-136294809D01*
X154494476Y-136532904D01*
X154542095Y-136628142D01*
X154589714Y-136675761D01*
X154684952Y-136723380D01*
X154970666Y-136723380D01*
X155065904Y-136675761D01*
X155113523Y-136628142D01*
X154113523Y-135818619D02*
X154065904Y-135771000D01*
X153970666Y-135723380D01*
X153732571Y-135723380D01*
X153637333Y-135771000D01*
X153589714Y-135818619D01*
X153542095Y-135913857D01*
X153542095Y-136009095D01*
X153589714Y-136151952D01*
X154161142Y-136723380D01*
X153542095Y-136723380D01*
X153256380Y-136056714D02*
X152875428Y-136056714D01*
X153113523Y-136723380D02*
X153113523Y-135866238D01*
X153065904Y-135771000D01*
X152970666Y-135723380D01*
X152875428Y-135723380D01*
X152018285Y-136723380D02*
X152589714Y-136723380D01*
X152304000Y-136723380D02*
X152304000Y-135723380D01*
X152399238Y-135866238D01*
X152494476Y-135961476D01*
X152589714Y-136009095D01*
X151399238Y-135723380D02*
X151304000Y-135723380D01*
X151208761Y-135771000D01*
X151161142Y-135818619D01*
X151113523Y-135913857D01*
X151065904Y-136104333D01*
X151065904Y-136342428D01*
X151113523Y-136532904D01*
X151161142Y-136628142D01*
X151208761Y-136675761D01*
X151304000Y-136723380D01*
X151399238Y-136723380D01*
X151494476Y-136675761D01*
X151542095Y-136628142D01*
X151589714Y-136532904D01*
X151637333Y-136342428D01*
X151637333Y-136104333D01*
X151589714Y-135913857D01*
X151542095Y-135818619D01*
X151494476Y-135771000D01*
X151399238Y-135723380D01*
X150732571Y-135723380D02*
X150113523Y-135723380D01*
X150446857Y-136104333D01*
X150304000Y-136104333D01*
X150208761Y-136151952D01*
X150161142Y-136199571D01*
X150113523Y-136294809D01*
X150113523Y-136532904D01*
X150161142Y-136628142D01*
X150208761Y-136675761D01*
X150304000Y-136723380D01*
X150589714Y-136723380D01*
X150684952Y-136675761D01*
X150732571Y-136628142D01*
X149256380Y-136675761D02*
X149351619Y-136723380D01*
X149542095Y-136723380D01*
X149637333Y-136675761D01*
X149684952Y-136628142D01*
X149732571Y-136532904D01*
X149732571Y-136247190D01*
X149684952Y-136151952D01*
X149637333Y-136104333D01*
X149542095Y-136056714D01*
X149351619Y-136056714D01*
X149256380Y-136104333D01*
X148684952Y-136151952D02*
X148780190Y-136104333D01*
X148827809Y-136056714D01*
X148875428Y-135961476D01*
X148875428Y-135913857D01*
X148827809Y-135818619D01*
X148780190Y-135771000D01*
X148684952Y-135723380D01*
X148494476Y-135723380D01*
X148399238Y-135771000D01*
X148351619Y-135818619D01*
X148304000Y-135913857D01*
X148304000Y-135961476D01*
X148351619Y-136056714D01*
X148399238Y-136104333D01*
X148494476Y-136151952D01*
X148684952Y-136151952D01*
X148780190Y-136199571D01*
X148827809Y-136247190D01*
X148875428Y-136342428D01*
X148875428Y-136532904D01*
X148827809Y-136628142D01*
X148780190Y-136675761D01*
X148684952Y-136723380D01*
X148494476Y-136723380D01*
X148399238Y-136675761D01*
X148351619Y-136628142D01*
X148304000Y-136532904D01*
X148304000Y-136342428D01*
X148351619Y-136247190D01*
X148399238Y-136199571D01*
X148494476Y-136151952D01*
X148018285Y-136056714D02*
X147637333Y-136056714D01*
X147875428Y-135723380D02*
X147875428Y-136580523D01*
X147827809Y-136675761D01*
X147732571Y-136723380D01*
X147637333Y-136723380D01*
X146875428Y-135723380D02*
X147065904Y-135723380D01*
X147161142Y-135771000D01*
X147208761Y-135818619D01*
X147304000Y-135961476D01*
X147351619Y-136151952D01*
X147351619Y-136532904D01*
X147304000Y-136628142D01*
X147256380Y-136675761D01*
X147161142Y-136723380D01*
X146970666Y-136723380D01*
X146875428Y-136675761D01*
X146827809Y-136628142D01*
X146780190Y-136532904D01*
X146780190Y-136294809D01*
X146827809Y-136199571D01*
X146875428Y-136151952D01*
X146970666Y-136104333D01*
X147161142Y-136104333D01*
X147256380Y-136151952D01*
X147304000Y-136199571D01*
X147351619Y-136294809D01*
X146351619Y-136342428D02*
X145589714Y-136342428D01*
X145113523Y-136723380D02*
X145113523Y-136056714D01*
X145113523Y-136151952D02*
X145065904Y-136104333D01*
X144970666Y-136056714D01*
X144827809Y-136056714D01*
X144732571Y-136104333D01*
X144684952Y-136199571D01*
X144684952Y-136723380D01*
X144684952Y-136199571D02*
X144637333Y-136104333D01*
X144542095Y-136056714D01*
X144399238Y-136056714D01*
X144304000Y-136104333D01*
X144256380Y-136199571D01*
X144256380Y-136723380D01*
X143637333Y-136723380D02*
X143732571Y-136675761D01*
X143780190Y-136628142D01*
X143827809Y-136532904D01*
X143827809Y-136247190D01*
X143780190Y-136151952D01*
X143732571Y-136104333D01*
X143637333Y-136056714D01*
X143494476Y-136056714D01*
X143399238Y-136104333D01*
X143351619Y-136151952D01*
X143304000Y-136247190D01*
X143304000Y-136532904D01*
X143351619Y-136628142D01*
X143399238Y-136675761D01*
X143494476Y-136723380D01*
X143637333Y-136723380D01*
X142446857Y-136723380D02*
X142446857Y-135723380D01*
X142446857Y-136675761D02*
X142542095Y-136723380D01*
X142732571Y-136723380D01*
X142827809Y-136675761D01*
X142875428Y-136628142D01*
X142923047Y-136532904D01*
X142923047Y-136247190D01*
X142875428Y-136151952D01*
X142827809Y-136104333D01*
X142732571Y-136056714D01*
X142542095Y-136056714D01*
X142446857Y-136104333D01*
X141542095Y-136056714D02*
X141542095Y-136723380D01*
X141970666Y-136056714D02*
X141970666Y-136580523D01*
X141923047Y-136675761D01*
X141827809Y-136723380D01*
X141684952Y-136723380D01*
X141589714Y-136675761D01*
X141542095Y-136628142D01*
X140923047Y-136723380D02*
X141018285Y-136675761D01*
X141065904Y-136580523D01*
X141065904Y-135723380D01*
X140161142Y-136675761D02*
X140256380Y-136723380D01*
X140446857Y-136723380D01*
X140542095Y-136675761D01*
X140589714Y-136580523D01*
X140589714Y-136199571D01*
X140542095Y-136104333D01*
X140446857Y-136056714D01*
X140256380Y-136056714D01*
X140161142Y-136104333D01*
X140113523Y-136199571D01*
X140113523Y-136294809D01*
X140589714Y-136390047D01*
X139684952Y-136342428D02*
X138923047Y-136342428D01*
X138018285Y-136675761D02*
X138113523Y-136723380D01*
X138304000Y-136723380D01*
X138399238Y-136675761D01*
X138446857Y-136628142D01*
X138494476Y-136532904D01*
X138494476Y-136247190D01*
X138446857Y-136151952D01*
X138399238Y-136104333D01*
X138304000Y-136056714D01*
X138113523Y-136056714D01*
X138018285Y-136104333D01*
X137589714Y-136723380D02*
X137589714Y-135723380D01*
X137161142Y-136723380D02*
X137161142Y-136199571D01*
X137208761Y-136104333D01*
X137304000Y-136056714D01*
X137446857Y-136056714D01*
X137542095Y-136104333D01*
X137589714Y-136151952D01*
X136684952Y-136723380D02*
X136684952Y-136056714D01*
X136684952Y-135723380D02*
X136732571Y-135771000D01*
X136684952Y-135818619D01*
X136637333Y-135771000D01*
X136684952Y-135723380D01*
X136684952Y-135818619D01*
X136208761Y-136056714D02*
X136208761Y-136723380D01*
X136208761Y-136151952D02*
X136161142Y-136104333D01*
X136065904Y-136056714D01*
X135923047Y-136056714D01*
X135827809Y-136104333D01*
X135780190Y-136199571D01*
X135780190Y-136723380D01*
X134875428Y-136723380D02*
X134875428Y-136199571D01*
X134923047Y-136104333D01*
X135018285Y-136056714D01*
X135208761Y-136056714D01*
X135304000Y-136104333D01*
X134875428Y-136675761D02*
X134970666Y-136723380D01*
X135208761Y-136723380D01*
X135304000Y-136675761D01*
X135351619Y-136580523D01*
X135351619Y-136485285D01*
X135304000Y-136390047D01*
X135208761Y-136342428D01*
X134970666Y-136342428D01*
X134875428Y-136294809D01*
X122721619Y-136262904D02*
X121912095Y-136262904D01*
X121816857Y-136215285D01*
X121769238Y-136167666D01*
X121721619Y-136072428D01*
X121721619Y-135881952D01*
X121769238Y-135786714D01*
X121816857Y-135739095D01*
X121912095Y-135691476D01*
X122721619Y-135691476D01*
X121769238Y-135262904D02*
X121721619Y-135120047D01*
X121721619Y-134881952D01*
X121769238Y-134786714D01*
X121816857Y-134739095D01*
X121912095Y-134691476D01*
X122007333Y-134691476D01*
X122102571Y-134739095D01*
X122150190Y-134786714D01*
X122197809Y-134881952D01*
X122245428Y-135072428D01*
X122293047Y-135167666D01*
X122340666Y-135215285D01*
X122435904Y-135262904D01*
X122531142Y-135262904D01*
X122626380Y-135215285D01*
X122674000Y-135167666D01*
X122721619Y-135072428D01*
X122721619Y-134834333D01*
X122674000Y-134691476D01*
X122245428Y-133929571D02*
X122197809Y-133786714D01*
X122150190Y-133739095D01*
X122054952Y-133691476D01*
X121912095Y-133691476D01*
X121816857Y-133739095D01*
X121769238Y-133786714D01*
X121721619Y-133881952D01*
X121721619Y-134262904D01*
X122721619Y-134262904D01*
X122721619Y-133929571D01*
X122674000Y-133834333D01*
X122626380Y-133786714D01*
X122531142Y-133739095D01*
X122435904Y-133739095D01*
X122340666Y-133786714D01*
X122293047Y-133834333D01*
X122245428Y-133929571D01*
X122245428Y-134262904D01*
X165544476Y-124293380D02*
X166020666Y-124293380D01*
X166068285Y-124769571D01*
X166020666Y-124721952D01*
X165925428Y-124674333D01*
X165687333Y-124674333D01*
X165592095Y-124721952D01*
X165544476Y-124769571D01*
X165496857Y-124864809D01*
X165496857Y-125102904D01*
X165544476Y-125198142D01*
X165592095Y-125245761D01*
X165687333Y-125293380D01*
X165925428Y-125293380D01*
X166020666Y-125245761D01*
X166068285Y-125198142D01*
X165211142Y-124293380D02*
X164877809Y-125293380D01*
X164544476Y-124293380D01*
X171267333Y-144613380D02*
X170934000Y-145613380D01*
X170600666Y-144613380D01*
X169934000Y-145089571D02*
X169791142Y-145137190D01*
X169743523Y-145184809D01*
X169695904Y-145280047D01*
X169695904Y-145422904D01*
X169743523Y-145518142D01*
X169791142Y-145565761D01*
X169886380Y-145613380D01*
X170267333Y-145613380D01*
X170267333Y-144613380D01*
X169934000Y-144613380D01*
X169838761Y-144661000D01*
X169791142Y-144708619D01*
X169743523Y-144803857D01*
X169743523Y-144899095D01*
X169791142Y-144994333D01*
X169838761Y-145041952D01*
X169934000Y-145089571D01*
X170267333Y-145089571D01*
X167632095Y-128786000D02*
X167727333Y-128738380D01*
X167870190Y-128738380D01*
X168013047Y-128786000D01*
X168108285Y-128881238D01*
X168155904Y-128976476D01*
X168203523Y-129166952D01*
X168203523Y-129309809D01*
X168155904Y-129500285D01*
X168108285Y-129595523D01*
X168013047Y-129690761D01*
X167870190Y-129738380D01*
X167774952Y-129738380D01*
X167632095Y-129690761D01*
X167584476Y-129643142D01*
X167584476Y-129309809D01*
X167774952Y-129309809D01*
X124452095Y-140216000D02*
X124547333Y-140168380D01*
X124690190Y-140168380D01*
X124833047Y-140216000D01*
X124928285Y-140311238D01*
X124975904Y-140406476D01*
X125023523Y-140596952D01*
X125023523Y-140739809D01*
X124975904Y-140930285D01*
X124928285Y-141025523D01*
X124833047Y-141120761D01*
X124690190Y-141168380D01*
X124594952Y-141168380D01*
X124452095Y-141120761D01*
X124404476Y-141073142D01*
X124404476Y-140739809D01*
X124594952Y-140739809D01*
X170211619Y-130643380D02*
X169592571Y-130643380D01*
X169925904Y-131024333D01*
X169783047Y-131024333D01*
X169687809Y-131071952D01*
X169640190Y-131119571D01*
X169592571Y-131214809D01*
X169592571Y-131452904D01*
X169640190Y-131548142D01*
X169687809Y-131595761D01*
X169783047Y-131643380D01*
X170068761Y-131643380D01*
X170164000Y-131595761D01*
X170211619Y-131548142D01*
X169164000Y-131548142D02*
X169116380Y-131595761D01*
X169164000Y-131643380D01*
X169211619Y-131595761D01*
X169164000Y-131548142D01*
X169164000Y-131643380D01*
X168783047Y-130643380D02*
X168164000Y-130643380D01*
X168497333Y-131024333D01*
X168354476Y-131024333D01*
X168259238Y-131071952D01*
X168211619Y-131119571D01*
X168164000Y-131214809D01*
X168164000Y-131452904D01*
X168211619Y-131548142D01*
X168259238Y-131595761D01*
X168354476Y-131643380D01*
X168640190Y-131643380D01*
X168735428Y-131595761D01*
X168783047Y-131548142D01*
X129865428Y-144565761D02*
X130722571Y-145851476D01*
X128960666Y-145613380D02*
X129294000Y-145137190D01*
X129532095Y-145613380D02*
X129532095Y-144613380D01*
X129151142Y-144613380D01*
X129055904Y-144661000D01*
X129008285Y-144708619D01*
X128960666Y-144803857D01*
X128960666Y-144946714D01*
X129008285Y-145041952D01*
X129055904Y-145089571D01*
X129151142Y-145137190D01*
X129532095Y-145137190D01*
X167632095Y-128786000D02*
X167727333Y-128738380D01*
X167870190Y-128738380D01*
X168013047Y-128786000D01*
X168108285Y-128881238D01*
X168155904Y-128976476D01*
X168203523Y-129166952D01*
X168203523Y-129309809D01*
X168155904Y-129500285D01*
X168108285Y-129595523D01*
X168013047Y-129690761D01*
X167870190Y-129738380D01*
X167774952Y-129738380D01*
X167632095Y-129690761D01*
X167584476Y-129643142D01*
X167584476Y-129309809D01*
X167774952Y-129309809D01*
X171481619Y-128738380D02*
X170862571Y-128738380D01*
X171195904Y-129119333D01*
X171053047Y-129119333D01*
X170957809Y-129166952D01*
X170910190Y-129214571D01*
X170862571Y-129309809D01*
X170862571Y-129547904D01*
X170910190Y-129643142D01*
X170957809Y-129690761D01*
X171053047Y-129738380D01*
X171338761Y-129738380D01*
X171434000Y-129690761D01*
X171481619Y-129643142D01*
X170434000Y-129643142D02*
X170386380Y-129690761D01*
X170434000Y-129738380D01*
X170481619Y-129690761D01*
X170434000Y-129643142D01*
X170434000Y-129738380D01*
X170053047Y-128738380D02*
X169434000Y-128738380D01*
X169767333Y-129119333D01*
X169624476Y-129119333D01*
X169529238Y-129166952D01*
X169481619Y-129214571D01*
X169434000Y-129309809D01*
X169434000Y-129547904D01*
X169481619Y-129643142D01*
X169529238Y-129690761D01*
X169624476Y-129738380D01*
X169910190Y-129738380D01*
X170005428Y-129690761D01*
X170053047Y-129643142D01*
X169925904Y-138311000D02*
X170021142Y-138263380D01*
X170164000Y-138263380D01*
X170306857Y-138311000D01*
X170402095Y-138406238D01*
X170449714Y-138501476D01*
X170497333Y-138691952D01*
X170497333Y-138834809D01*
X170449714Y-139025285D01*
X170402095Y-139120523D01*
X170306857Y-139215761D01*
X170164000Y-139263380D01*
X170068761Y-139263380D01*
X169925904Y-139215761D01*
X169878285Y-139168142D01*
X169878285Y-138834809D01*
X170068761Y-138834809D01*
X169449714Y-139263380D02*
X169449714Y-138263380D01*
X168878285Y-139263380D01*
X168878285Y-138263380D01*
X168402095Y-139263380D02*
X168402095Y-138263380D01*
X168164000Y-138263380D01*
X168021142Y-138311000D01*
X167925904Y-138406238D01*
X167878285Y-138501476D01*
X167830666Y-138691952D01*
X167830666Y-138834809D01*
X167878285Y-139025285D01*
X167925904Y-139120523D01*
X168021142Y-139215761D01*
X168164000Y-139263380D01*
X168402095Y-139263380D01*
X171425904Y-136675761D02*
X171283047Y-136723380D01*
X171044952Y-136723380D01*
X170949714Y-136675761D01*
X170902095Y-136628142D01*
X170854476Y-136532904D01*
X170854476Y-136437666D01*
X170902095Y-136342428D01*
X170949714Y-136294809D01*
X171044952Y-136247190D01*
X171235428Y-136199571D01*
X171330666Y-136151952D01*
X171378285Y-136104333D01*
X171425904Y-136009095D01*
X171425904Y-135913857D01*
X171378285Y-135818619D01*
X171330666Y-135771000D01*
X171235428Y-135723380D01*
X170997333Y-135723380D01*
X170854476Y-135771000D01*
X170521142Y-135723380D02*
X170283047Y-136723380D01*
X170092571Y-136009095D01*
X169902095Y-136723380D01*
X169664000Y-135723380D01*
X168711619Y-136628142D02*
X168759238Y-136675761D01*
X168902095Y-136723380D01*
X168997333Y-136723380D01*
X169140190Y-136675761D01*
X169235428Y-136580523D01*
X169283047Y-136485285D01*
X169330666Y-136294809D01*
X169330666Y-136151952D01*
X169283047Y-135961476D01*
X169235428Y-135866238D01*
X169140190Y-135771000D01*
X168997333Y-135723380D01*
X168902095Y-135723380D01*
X168759238Y-135771000D01*
X168711619Y-135818619D01*
X167806857Y-136723380D02*
X168283047Y-136723380D01*
X168283047Y-135723380D01*
X167473523Y-136723380D02*
X167473523Y-135723380D01*
X166902095Y-136723380D02*
X167330666Y-136151952D01*
X166902095Y-135723380D02*
X167473523Y-136294809D01*
X171283047Y-134135761D02*
X171140190Y-134183380D01*
X170902095Y-134183380D01*
X170806857Y-134135761D01*
X170759238Y-134088142D01*
X170711619Y-133992904D01*
X170711619Y-133897666D01*
X170759238Y-133802428D01*
X170806857Y-133754809D01*
X170902095Y-133707190D01*
X171092571Y-133659571D01*
X171187809Y-133611952D01*
X171235428Y-133564333D01*
X171283047Y-133469095D01*
X171283047Y-133373857D01*
X171235428Y-133278619D01*
X171187809Y-133231000D01*
X171092571Y-133183380D01*
X170854476Y-133183380D01*
X170711619Y-133231000D01*
X170378285Y-133183380D02*
X170140190Y-134183380D01*
X169949714Y-133469095D01*
X169759238Y-134183380D01*
X169521142Y-133183380D01*
X169140190Y-134183380D02*
X169140190Y-133183380D01*
X168902095Y-133183380D01*
X168759238Y-133231000D01*
X168664000Y-133326238D01*
X168616380Y-133421476D01*
X168568761Y-133611952D01*
X168568761Y-133754809D01*
X168616380Y-133945285D01*
X168664000Y-134040523D01*
X168759238Y-134135761D01*
X168902095Y-134183380D01*
X169140190Y-134183380D01*
X168140190Y-134183380D02*
X168140190Y-133183380D01*
X167473523Y-133183380D02*
X167283047Y-133183380D01*
X167187809Y-133231000D01*
X167092571Y-133326238D01*
X167044952Y-133516714D01*
X167044952Y-133850047D01*
X167092571Y-134040523D01*
X167187809Y-134135761D01*
X167283047Y-134183380D01*
X167473523Y-134183380D01*
X167568761Y-134135761D01*
X167664000Y-134040523D01*
X167711619Y-133850047D01*
X167711619Y-133516714D01*
X167664000Y-133326238D01*
X167568761Y-133231000D01*
X167473523Y-133183380D01*
X170211619Y-130643380D02*
X169592571Y-130643380D01*
X169925904Y-131024333D01*
X169783047Y-131024333D01*
X169687809Y-131071952D01*
X169640190Y-131119571D01*
X169592571Y-131214809D01*
X169592571Y-131452904D01*
X169640190Y-131548142D01*
X169687809Y-131595761D01*
X169783047Y-131643380D01*
X170068761Y-131643380D01*
X170164000Y-131595761D01*
X170211619Y-131548142D01*
X169164000Y-131548142D02*
X169116380Y-131595761D01*
X169164000Y-131643380D01*
X169211619Y-131595761D01*
X169164000Y-131548142D01*
X169164000Y-131643380D01*
X168783047Y-130643380D02*
X168164000Y-130643380D01*
X168497333Y-131024333D01*
X168354476Y-131024333D01*
X168259238Y-131071952D01*
X168211619Y-131119571D01*
X168164000Y-131214809D01*
X168164000Y-131452904D01*
X168211619Y-131548142D01*
X168259238Y-131595761D01*
X168354476Y-131643380D01*
X168640190Y-131643380D01*
X168735428Y-131595761D01*
X168783047Y-131548142D01*
X135635904Y-124293380D02*
X135064476Y-124293380D01*
X135350190Y-125293380D02*
X135350190Y-124293380D01*
X134207333Y-125293380D02*
X134778761Y-125293380D01*
X134493047Y-125293380D02*
X134493047Y-124293380D01*
X134588285Y-124436238D01*
X134683523Y-124531476D01*
X134778761Y-124579095D01*
X137580666Y-125293380D02*
X137914000Y-124817190D01*
X138152095Y-125293380D02*
X138152095Y-124293380D01*
X137771142Y-124293380D01*
X137675904Y-124341000D01*
X137628285Y-124388619D01*
X137580666Y-124483857D01*
X137580666Y-124626714D01*
X137628285Y-124721952D01*
X137675904Y-124769571D01*
X137771142Y-124817190D01*
X138152095Y-124817190D01*
X136628285Y-125293380D02*
X137199714Y-125293380D01*
X136914000Y-125293380D02*
X136914000Y-124293380D01*
X137009238Y-124436238D01*
X137104476Y-124531476D01*
X137199714Y-124579095D01*
X140858761Y-124293380D02*
X140858761Y-125102904D01*
X140811142Y-125198142D01*
X140763523Y-125245761D01*
X140668285Y-125293380D01*
X140477809Y-125293380D01*
X140382571Y-125245761D01*
X140334952Y-125198142D01*
X140287333Y-125102904D01*
X140287333Y-124293380D01*
X139811142Y-124912428D02*
X139049238Y-124912428D01*
X143398761Y-124293380D02*
X143398761Y-125102904D01*
X143351142Y-125198142D01*
X143303523Y-125245761D01*
X143208285Y-125293380D01*
X143017809Y-125293380D01*
X142922571Y-125245761D01*
X142874952Y-125198142D01*
X142827333Y-125102904D01*
X142827333Y-124293380D01*
X142351142Y-124912428D02*
X141589238Y-124912428D01*
X141970190Y-125293380D02*
X141970190Y-124531476D01*
X160464476Y-125198142D02*
X160512095Y-125245761D01*
X160654952Y-125293380D01*
X160750190Y-125293380D01*
X160893047Y-125245761D01*
X160988285Y-125150523D01*
X161035904Y-125055285D01*
X161083523Y-124864809D01*
X161083523Y-124721952D01*
X161035904Y-124531476D01*
X160988285Y-124436238D01*
X160893047Y-124341000D01*
X160750190Y-124293380D01*
X160654952Y-124293380D01*
X160512095Y-124341000D01*
X160464476Y-124388619D01*
X159464476Y-125293380D02*
X159797809Y-124817190D01*
X160035904Y-125293380D02*
X160035904Y-124293380D01*
X159654952Y-124293380D01*
X159559714Y-124341000D01*
X159512095Y-124388619D01*
X159464476Y-124483857D01*
X159464476Y-124626714D01*
X159512095Y-124721952D01*
X159559714Y-124769571D01*
X159654952Y-124817190D01*
X160035904Y-124817190D01*
X162885428Y-125198142D02*
X162933047Y-125245761D01*
X163075904Y-125293380D01*
X163171142Y-125293380D01*
X163314000Y-125245761D01*
X163409238Y-125150523D01*
X163456857Y-125055285D01*
X163504476Y-124864809D01*
X163504476Y-124721952D01*
X163456857Y-124531476D01*
X163409238Y-124436238D01*
X163314000Y-124341000D01*
X163171142Y-124293380D01*
X163075904Y-124293380D01*
X162933047Y-124341000D01*
X162885428Y-124388619D01*
X162599714Y-124293380D02*
X162028285Y-124293380D01*
X162314000Y-125293380D02*
X162314000Y-124293380D01*
X132500666Y-145613380D02*
X132834000Y-145137190D01*
X133072095Y-145613380D02*
X133072095Y-144613380D01*
X132691142Y-144613380D01*
X132595904Y-144661000D01*
X132548285Y-144708619D01*
X132500666Y-144803857D01*
X132500666Y-144946714D01*
X132548285Y-145041952D01*
X132595904Y-145089571D01*
X132691142Y-145137190D01*
X133072095Y-145137190D01*
X132167333Y-144613380D02*
X131548285Y-144613380D01*
X131881619Y-144994333D01*
X131738761Y-144994333D01*
X131643523Y-145041952D01*
X131595904Y-145089571D01*
X131548285Y-145184809D01*
X131548285Y-145422904D01*
X131595904Y-145518142D01*
X131643523Y-145565761D01*
X131738761Y-145613380D01*
X132024476Y-145613380D01*
X132119714Y-145565761D01*
X132167333Y-145518142D01*
X135635904Y-144613380D02*
X135064476Y-144613380D01*
X135350190Y-145613380D02*
X135350190Y-144613380D01*
X134826380Y-144613380D02*
X134207333Y-144613380D01*
X134540666Y-144994333D01*
X134397809Y-144994333D01*
X134302571Y-145041952D01*
X134254952Y-145089571D01*
X134207333Y-145184809D01*
X134207333Y-145422904D01*
X134254952Y-145518142D01*
X134302571Y-145565761D01*
X134397809Y-145613380D01*
X134683523Y-145613380D01*
X134778761Y-145565761D01*
X134826380Y-145518142D01*
X143851142Y-145613380D02*
X143851142Y-144946714D01*
X143851142Y-145041952D02*
X143803523Y-144994333D01*
X143708285Y-144946714D01*
X143565428Y-144946714D01*
X143470190Y-144994333D01*
X143422571Y-145089571D01*
X143422571Y-145613380D01*
X143422571Y-145089571D02*
X143374952Y-144994333D01*
X143279714Y-144946714D01*
X143136857Y-144946714D01*
X143041619Y-144994333D01*
X142994000Y-145089571D01*
X142994000Y-145613380D01*
X142374952Y-145613380D02*
X142470190Y-145565761D01*
X142517809Y-145518142D01*
X142565428Y-145422904D01*
X142565428Y-145137190D01*
X142517809Y-145041952D01*
X142470190Y-144994333D01*
X142374952Y-144946714D01*
X142232095Y-144946714D01*
X142136857Y-144994333D01*
X142089238Y-145041952D01*
X142041619Y-145137190D01*
X142041619Y-145422904D01*
X142089238Y-145518142D01*
X142136857Y-145565761D01*
X142232095Y-145613380D01*
X142374952Y-145613380D01*
X141089238Y-145613380D02*
X141660666Y-145613380D01*
X141374952Y-145613380D02*
X141374952Y-144613380D01*
X141470190Y-144756238D01*
X141565428Y-144851476D01*
X141660666Y-144899095D01*
X145510190Y-145613380D02*
X145510190Y-144946714D01*
X145510190Y-144613380D02*
X145557809Y-144661000D01*
X145510190Y-144708619D01*
X145462571Y-144661000D01*
X145510190Y-144613380D01*
X145510190Y-144708619D01*
X144510190Y-145613380D02*
X145081619Y-145613380D01*
X144795904Y-145613380D02*
X144795904Y-144613380D01*
X144891142Y-144756238D01*
X144986380Y-144851476D01*
X145081619Y-144899095D01*
X147812095Y-145565761D02*
X147907333Y-145613380D01*
X148097809Y-145613380D01*
X148193047Y-145565761D01*
X148240666Y-145518142D01*
X148288285Y-145422904D01*
X148288285Y-145137190D01*
X148240666Y-145041952D01*
X148193047Y-144994333D01*
X148097809Y-144946714D01*
X147907333Y-144946714D01*
X147812095Y-144994333D01*
X146859714Y-145613380D02*
X147431142Y-145613380D01*
X147145428Y-145613380D02*
X147145428Y-144613380D01*
X147240666Y-144756238D01*
X147335904Y-144851476D01*
X147431142Y-144899095D01*
X151209238Y-145565761D02*
X151114000Y-145613380D01*
X150923523Y-145613380D01*
X150828285Y-145565761D01*
X150780666Y-145470523D01*
X150780666Y-145422904D01*
X150828285Y-145327666D01*
X150923523Y-145280047D01*
X151066380Y-145280047D01*
X151161619Y-145232428D01*
X151209238Y-145137190D01*
X151209238Y-145089571D01*
X151161619Y-144994333D01*
X151066380Y-144946714D01*
X150923523Y-144946714D01*
X150828285Y-144994333D01*
X150399714Y-145565761D02*
X150304476Y-145613380D01*
X150114000Y-145613380D01*
X150018761Y-145565761D01*
X149971142Y-145470523D01*
X149971142Y-145422904D01*
X150018761Y-145327666D01*
X150114000Y-145280047D01*
X150256857Y-145280047D01*
X150352095Y-145232428D01*
X150399714Y-145137190D01*
X150399714Y-145089571D01*
X150352095Y-144994333D01*
X150256857Y-144946714D01*
X150114000Y-144946714D01*
X150018761Y-144994333D01*
X149018761Y-145613380D02*
X149590190Y-145613380D01*
X149304476Y-145613380D02*
X149304476Y-144613380D01*
X149399714Y-144756238D01*
X149494952Y-144851476D01*
X149590190Y-144899095D01*
X152820666Y-145613380D02*
X153154000Y-145137190D01*
X153392095Y-145613380D02*
X153392095Y-144613380D01*
X153011142Y-144613380D01*
X152915904Y-144661000D01*
X152868285Y-144708619D01*
X152820666Y-144803857D01*
X152820666Y-144946714D01*
X152868285Y-145041952D01*
X152915904Y-145089571D01*
X153011142Y-145137190D01*
X153392095Y-145137190D01*
X152439714Y-144708619D02*
X152392095Y-144661000D01*
X152296857Y-144613380D01*
X152058761Y-144613380D01*
X151963523Y-144661000D01*
X151915904Y-144708619D01*
X151868285Y-144803857D01*
X151868285Y-144899095D01*
X151915904Y-145041952D01*
X152487333Y-145613380D01*
X151868285Y-145613380D01*
X155955904Y-144613380D02*
X155384476Y-144613380D01*
X155670190Y-145613380D02*
X155670190Y-144613380D01*
X155098761Y-144708619D02*
X155051142Y-144661000D01*
X154955904Y-144613380D01*
X154717809Y-144613380D01*
X154622571Y-144661000D01*
X154574952Y-144708619D01*
X154527333Y-144803857D01*
X154527333Y-144899095D01*
X154574952Y-145041952D01*
X155146380Y-145613380D01*
X154527333Y-145613380D01*
X156313047Y-125245761D02*
X156217809Y-125293380D01*
X156027333Y-125293380D01*
X155932095Y-125245761D01*
X155884476Y-125150523D01*
X155884476Y-125102904D01*
X155932095Y-125007666D01*
X156027333Y-124960047D01*
X156170190Y-124960047D01*
X156265428Y-124912428D01*
X156313047Y-124817190D01*
X156313047Y-124769571D01*
X156265428Y-124674333D01*
X156170190Y-124626714D01*
X156027333Y-124626714D01*
X155932095Y-124674333D01*
X155027333Y-125245761D02*
X155122571Y-125293380D01*
X155313047Y-125293380D01*
X155408285Y-125245761D01*
X155455904Y-125198142D01*
X155503523Y-125102904D01*
X155503523Y-124817190D01*
X155455904Y-124721952D01*
X155408285Y-124674333D01*
X155313047Y-124626714D01*
X155122571Y-124626714D01*
X155027333Y-124674333D01*
X154074952Y-125293380D02*
X154646380Y-125293380D01*
X154360666Y-125293380D02*
X154360666Y-124293380D01*
X154455904Y-124436238D01*
X154551142Y-124531476D01*
X154646380Y-124579095D01*
X157995904Y-125293380D02*
X157995904Y-124293380D01*
X157995904Y-125245761D02*
X158091142Y-125293380D01*
X158281619Y-125293380D01*
X158376857Y-125245761D01*
X158424476Y-125198142D01*
X158472095Y-125102904D01*
X158472095Y-124817190D01*
X158424476Y-124721952D01*
X158376857Y-124674333D01*
X158281619Y-124626714D01*
X158091142Y-124626714D01*
X157995904Y-124674333D01*
X156995904Y-125293380D02*
X157567333Y-125293380D01*
X157281619Y-125293380D02*
X157281619Y-124293380D01*
X157376857Y-124436238D01*
X157472095Y-124531476D01*
X157567333Y-124579095D01*
X123269238Y-125245761D02*
X123174000Y-125293380D01*
X122983523Y-125293380D01*
X122888285Y-125245761D01*
X122840666Y-125150523D01*
X122840666Y-125102904D01*
X122888285Y-125007666D01*
X122983523Y-124960047D01*
X123126380Y-124960047D01*
X123221619Y-124912428D01*
X123269238Y-124817190D01*
X123269238Y-124769571D01*
X123221619Y-124674333D01*
X123126380Y-124626714D01*
X122983523Y-124626714D01*
X122888285Y-124674333D01*
X122459714Y-125245761D02*
X122364476Y-125293380D01*
X122174000Y-125293380D01*
X122078761Y-125245761D01*
X122031142Y-125150523D01*
X122031142Y-125102904D01*
X122078761Y-125007666D01*
X122174000Y-124960047D01*
X122316857Y-124960047D01*
X122412095Y-124912428D01*
X122459714Y-124817190D01*
X122459714Y-124769571D01*
X122412095Y-124674333D01*
X122316857Y-124626714D01*
X122174000Y-124626714D01*
X122078761Y-124674333D01*
X121650190Y-124388619D02*
X121602571Y-124341000D01*
X121507333Y-124293380D01*
X121269238Y-124293380D01*
X121174000Y-124341000D01*
X121126380Y-124388619D01*
X121078761Y-124483857D01*
X121078761Y-124579095D01*
X121126380Y-124721952D01*
X121697809Y-125293380D01*
X121078761Y-125293380D01*
X124952095Y-125245761D02*
X125047333Y-125293380D01*
X125237809Y-125293380D01*
X125333047Y-125245761D01*
X125380666Y-125198142D01*
X125428285Y-125102904D01*
X125428285Y-124817190D01*
X125380666Y-124721952D01*
X125333047Y-124674333D01*
X125237809Y-124626714D01*
X125047333Y-124626714D01*
X124952095Y-124674333D01*
X124571142Y-124388619D02*
X124523523Y-124341000D01*
X124428285Y-124293380D01*
X124190190Y-124293380D01*
X124094952Y-124341000D01*
X124047333Y-124388619D01*
X123999714Y-124483857D01*
X123999714Y-124579095D01*
X124047333Y-124721952D01*
X124618761Y-125293380D01*
X123999714Y-125293380D01*
X127730190Y-125293380D02*
X127730190Y-124626714D01*
X127730190Y-124293380D02*
X127777809Y-124341000D01*
X127730190Y-124388619D01*
X127682571Y-124341000D01*
X127730190Y-124293380D01*
X127730190Y-124388619D01*
X127301619Y-124388619D02*
X127254000Y-124341000D01*
X127158761Y-124293380D01*
X126920666Y-124293380D01*
X126825428Y-124341000D01*
X126777809Y-124388619D01*
X126730190Y-124483857D01*
X126730190Y-124579095D01*
X126777809Y-124721952D01*
X127349238Y-125293380D01*
X126730190Y-125293380D01*
X131151142Y-125293380D02*
X131151142Y-124626714D01*
X131151142Y-124721952D02*
X131103523Y-124674333D01*
X131008285Y-124626714D01*
X130865428Y-124626714D01*
X130770190Y-124674333D01*
X130722571Y-124769571D01*
X130722571Y-125293380D01*
X130722571Y-124769571D02*
X130674952Y-124674333D01*
X130579714Y-124626714D01*
X130436857Y-124626714D01*
X130341619Y-124674333D01*
X130294000Y-124769571D01*
X130294000Y-125293380D01*
X129674952Y-125293380D02*
X129770190Y-125245761D01*
X129817809Y-125198142D01*
X129865428Y-125102904D01*
X129865428Y-124817190D01*
X129817809Y-124721952D01*
X129770190Y-124674333D01*
X129674952Y-124626714D01*
X129532095Y-124626714D01*
X129436857Y-124674333D01*
X129389238Y-124721952D01*
X129341619Y-124817190D01*
X129341619Y-125102904D01*
X129389238Y-125198142D01*
X129436857Y-125245761D01*
X129532095Y-125293380D01*
X129674952Y-125293380D01*
X128960666Y-124388619D02*
X128913047Y-124341000D01*
X128817809Y-124293380D01*
X128579714Y-124293380D01*
X128484476Y-124341000D01*
X128436857Y-124388619D01*
X128389238Y-124483857D01*
X128389238Y-124579095D01*
X128436857Y-124721952D01*
X129008285Y-125293380D01*
X128389238Y-125293380D01*
X131929238Y-141223857D02*
X131881619Y-141128619D01*
X131881619Y-140938142D01*
X131929238Y-140842904D01*
X132024476Y-140795285D01*
X132072095Y-140795285D01*
X132167333Y-140842904D01*
X132214952Y-140938142D01*
X132214952Y-141081000D01*
X132262571Y-141176238D01*
X132357809Y-141223857D01*
X132405428Y-141223857D01*
X132500666Y-141176238D01*
X132548285Y-141081000D01*
X132548285Y-140938142D01*
X132500666Y-140842904D01*
X131881619Y-139938142D02*
X132881619Y-139938142D01*
X131929238Y-139938142D02*
X131881619Y-140033380D01*
X131881619Y-140223857D01*
X131929238Y-140319095D01*
X131976857Y-140366714D01*
X132072095Y-140414333D01*
X132357809Y-140414333D01*
X132453047Y-140366714D01*
X132500666Y-140319095D01*
X132548285Y-140223857D01*
X132548285Y-140033380D01*
X132500666Y-139938142D01*
X132786380Y-139509571D02*
X132834000Y-139461952D01*
X132881619Y-139366714D01*
X132881619Y-139128619D01*
X132834000Y-139033380D01*
X132786380Y-138985761D01*
X132691142Y-138938142D01*
X132595904Y-138938142D01*
X132453047Y-138985761D01*
X131881619Y-139557190D01*
X131881619Y-138938142D01*
X134469238Y-141200047D02*
X134421619Y-141104809D01*
X134421619Y-140914333D01*
X134469238Y-140819095D01*
X134564476Y-140771476D01*
X134612095Y-140771476D01*
X134707333Y-140819095D01*
X134754952Y-140914333D01*
X134754952Y-141057190D01*
X134802571Y-141152428D01*
X134897809Y-141200047D01*
X134945428Y-141200047D01*
X135040666Y-141152428D01*
X135088285Y-141057190D01*
X135088285Y-140914333D01*
X135040666Y-140819095D01*
X134469238Y-139914333D02*
X134421619Y-140009571D01*
X134421619Y-140200047D01*
X134469238Y-140295285D01*
X134516857Y-140342904D01*
X134612095Y-140390523D01*
X134897809Y-140390523D01*
X134993047Y-140342904D01*
X135040666Y-140295285D01*
X135088285Y-140200047D01*
X135088285Y-140009571D01*
X135040666Y-139914333D01*
X135326380Y-139533380D02*
X135374000Y-139485761D01*
X135421619Y-139390523D01*
X135421619Y-139152428D01*
X135374000Y-139057190D01*
X135326380Y-139009571D01*
X135231142Y-138961952D01*
X135135904Y-138961952D01*
X134993047Y-139009571D01*
X134421619Y-139581000D01*
X134421619Y-138961952D01*
G04 #@! TO.C,CA3*
X191591142Y-96432761D02*
X191638761Y-96385142D01*
X191686380Y-96242285D01*
X191686380Y-96147047D01*
X191638761Y-96004190D01*
X191543523Y-95908952D01*
X191448285Y-95861333D01*
X191257809Y-95813714D01*
X191114952Y-95813714D01*
X190924476Y-95861333D01*
X190829238Y-95908952D01*
X190734000Y-96004190D01*
X190686380Y-96147047D01*
X190686380Y-96242285D01*
X190734000Y-96385142D01*
X190781619Y-96432761D01*
X191400666Y-96813714D02*
X191400666Y-97289904D01*
X191686380Y-96718476D02*
X190686380Y-97051809D01*
X191686380Y-97385142D01*
X190686380Y-97623238D02*
X190686380Y-98242285D01*
X191067333Y-97908952D01*
X191067333Y-98051809D01*
X191114952Y-98147047D01*
X191162571Y-98194666D01*
X191257809Y-98242285D01*
X191495904Y-98242285D01*
X191591142Y-98194666D01*
X191638761Y-98147047D01*
X191686380Y-98051809D01*
X191686380Y-97766095D01*
X191638761Y-97670857D01*
X191591142Y-97623238D01*
G04 #@! TO.C,U2*
X195833904Y-97750380D02*
X195833904Y-98559904D01*
X195786285Y-98655142D01*
X195738666Y-98702761D01*
X195643428Y-98750380D01*
X195452952Y-98750380D01*
X195357714Y-98702761D01*
X195310095Y-98655142D01*
X195262476Y-98559904D01*
X195262476Y-97750380D01*
X194833904Y-97845619D02*
X194786285Y-97798000D01*
X194691047Y-97750380D01*
X194452952Y-97750380D01*
X194357714Y-97798000D01*
X194310095Y-97845619D01*
X194262476Y-97940857D01*
X194262476Y-98036095D01*
X194310095Y-98178952D01*
X194881523Y-98750380D01*
X194262476Y-98750380D01*
G04 #@! TO.C,J0*
X118887833Y-50759380D02*
X118887833Y-51473666D01*
X118935452Y-51616523D01*
X119030690Y-51711761D01*
X119173547Y-51759380D01*
X119268785Y-51759380D01*
X118221166Y-50759380D02*
X118125928Y-50759380D01*
X118030690Y-50807000D01*
X117983071Y-50854619D01*
X117935452Y-50949857D01*
X117887833Y-51140333D01*
X117887833Y-51378428D01*
X117935452Y-51568904D01*
X117983071Y-51664142D01*
X118030690Y-51711761D01*
X118125928Y-51759380D01*
X118221166Y-51759380D01*
X118316404Y-51711761D01*
X118364023Y-51664142D01*
X118411642Y-51568904D01*
X118459261Y-51378428D01*
X118459261Y-51140333D01*
X118411642Y-50949857D01*
X118364023Y-50854619D01*
X118316404Y-50807000D01*
X118221166Y-50759380D01*
G04 #@! TD*
M02*
