M48
;DRILL file {KiCad (6.0.0-rc1-dev-1127-g569d4a0f6)} date 12/11/2018 3:09:48 AM
;FORMAT={-:-/ absolute / inch / decimal}
FMAT,2
INCH
T1C0.0276
T2C0.0300
T3C0.0315
T4C0.0319
T5C0.0320
T6C0.0394
T7C0.0512
T8C0.0906
T9C0.0300
T10C0.1181
T11C0.1200
%
G90
G05
M72
T1
X7.18Y-3.5
X7.48Y-3.5
X7.08Y-2.92
X7.38Y-2.92
X7.075Y-3.05
X7.375Y-3.05
T2
X5.865Y-4.65
X6.055Y-4.645
X6.925Y-2.25
X6.925Y-2.35
X7.025Y-2.25
X7.025Y-2.35
X7.125Y-2.35
T3
X7.5Y-2.9031
X7.5Y-3.1
X4.7Y-2.725
X4.85Y-2.4652
X7.22Y-3.34
X7.4169Y-3.34
X7.475Y-3.65
X7.475Y-3.8469
X7.5831Y-3.36
X7.78Y-3.36
X7.6816Y-3.5
X7.78Y-3.5
X4.57Y-3.31
X4.57Y-3.61
X6.475Y-2.25
X6.775Y-2.25
X3.9629Y-3.9379
X4.175Y-4.15
T4
X4.6175Y-2.3763
X4.6175Y-2.455
X4.7175Y-2.3763
X4.7175Y-2.455
T5
X2.8994Y-3.4594
X3.0315Y-3.799
X3.06Y-3.48
X3.0852Y-3.9314
X3.167Y-4.0047
X3.39Y-4.105
X3.4564Y-3.7695
X3.537Y-4.172
X3.7448Y-4.2459
X3.975Y-2.975
X4.018Y-4.336
X4.05Y-2.5
X4.15Y-2.375
X4.35Y-4.455
X4.6Y-2.7
X4.6451Y-4.4932
X4.6977Y-3.225
X4.7354Y-3.6827
X4.8453Y-2.8169
X4.9122Y-3.5315
X4.914Y-3.1567
X4.9354Y-4.0878
X4.9975Y-4.34
X5.0287Y-3.8724
X5.0835Y-2.828
X5.1425Y-2.4699
X5.2Y-2.275
X5.2776Y-4.141
X5.2776Y-4.3894
X5.3467Y-2.5741
X5.3697Y-4.5404
X5.5354Y-2.2772
X5.6114Y-4.6068
X5.6268Y-4.3059
X5.7031Y-4.5327
X5.9902Y-4.3335
X6.07Y-2.47
X6.1488Y-4.5024
X6.2556Y-4.6156
X6.3346Y-4.2001
X6.4102Y-2.6291
X6.54Y-4.605
X6.5567Y-4.2965
X6.6138Y-3.9504
X6.625Y-4.525
X6.6549Y-2.9
X6.715Y-4.485
X6.7485Y-2.6791
X6.7681Y-3.6169
X6.7788Y-3.2457
X6.8Y-2.475
X6.825Y-2.6
X6.8492Y-3.9587
X6.9524Y-3.0772
X7.146Y-4.442
X7.25Y-2.175
X7.26Y-3.62
X7.28Y-4.406
X7.3724Y-3.9906
X7.45Y-4.35
X7.54Y-3.94
X7.62Y-4.3
X7.7811Y-2.5606
X7.8591Y-2.7671
X7.86Y-3.58
X7.8909Y-2.4315
X8.0Y-4.175
X8.246Y-4.088
X8.442Y-3.988
X8.4953Y-2.8071
X8.5591Y-2.6421
X8.6975Y-3.8675
X8.9425Y-3.67
T6
X5.695Y-2.34
X5.795Y-2.34
X5.895Y-2.34
X5.995Y-2.34
X7.7803Y-2.3185
X7.7803Y-2.4185
X7.325Y-2.25
X7.325Y-2.35
X7.22Y-3.22
X7.32Y-3.22
X7.42Y-3.22
X7.52Y-3.22
X7.62Y-3.22
X7.72Y-3.22
X7.325Y-2.525
X7.325Y-2.625
T7
X7.9771Y-2.4957
X8.0932Y-2.4877
X8.2772Y-2.2698
X8.2781Y-2.7393
X8.3949Y-2.476
T8
X4.4313Y-2.27
X4.9037Y-2.27
T9
X7.125Y-2.25
T10
X8.4696Y-3.486
X8.47Y-3.8179
X3.2625Y-3.8104
T11
X2.9205Y-2.3917
X8.7524Y-2.3917
X8.7508Y-5.8819
X2.9224Y-5.8823
T0
M30
