G04 #@! TF.GenerationSoftware,KiCad,Pcbnew,(5.1.0-998-gf550ecaf1)*
G04 #@! TF.CreationDate,2019-06-15T22:28:28-07:00*
G04 #@! TF.ProjectId,Stylish-Belt-Synth - Full,5374796c-6973-4682-9d42-656c742d5379,rev?*
G04 #@! TF.SameCoordinates,Original*
G04 #@! TF.FileFunction,Profile,NP*
%FSLAX46Y46*%
G04 Gerber Fmt 4.6, Leading zero omitted, Abs format (unit mm)*
G04 Created by KiCad (PCBNEW (5.1.0-998-gf550ecaf1)) date 2019-06-15 22:28:28*
%MOMM*%
%LPD*%
G04 APERTURE LIST*
%ADD10C,0.099822*%
%ADD11C,0.150000*%
%ADD12C,0.200000*%
%ADD13C,0.100000*%
G04 APERTURE END LIST*
D10*
X179829857Y-150848612D02*
X180213000Y-155702000D01*
X179829857Y-150848612D02*
G75*
G03X178053601Y-147724182I-4265057J-357588D01*
G01*
X178053601Y-147724182D02*
G75*
G02X177506526Y-143943704I1041799J2080582D01*
G01*
X177506526Y-143943704D02*
G75*
G03X177816876Y-138874023I-2449726J2694304D01*
G01*
X177816876Y-138874023D02*
G75*
G02X177790107Y-131315435I4936124J3796823D01*
G01*
X177790108Y-131315435D02*
G75*
G03X176970323Y-128161000I-1895108J1191235D01*
G01*
X176970323Y-128161000D02*
G75*
G02X173956340Y-116282504I4487277J7460200D01*
G01*
X173956340Y-116282504D02*
G75*
G03X171845485Y-110218169I-3268340J2261904D01*
G01*
X171845485Y-110218169D02*
G75*
G02X172542843Y-106390835I772915J1836369D01*
G01*
X172542843Y-106390836D02*
G75*
G03X173339564Y-104477882I-26043J1133236D01*
G01*
X173339565Y-104477882D02*
G75*
G02X175622604Y-102320290I1361635J845882D01*
G01*
X175622604Y-102320290D02*
G75*
G03X176971145Y-99630936I551796J1406090D01*
G01*
X176971145Y-99630936D02*
G75*
G02X178724993Y-95813438I1743255J1510736D01*
G01*
X178724993Y-95813438D02*
G75*
G03X179445618Y-91988126I-162993J2011238D01*
G01*
X179445618Y-91988125D02*
G75*
G02X179877293Y-89571786I640382J1132325D01*
G01*
X179877293Y-89571786D02*
G75*
G03X179910005Y-87630967I-350093J976586D01*
G01*
X179910005Y-87630967D02*
G75*
G02X180011867Y-84302279I455395J1651967D01*
G01*
X180011867Y-84302279D02*
G75*
G03X179386268Y-80956490I-1246667J1498279D01*
G01*
X179386268Y-80956490D02*
G75*
G02X178382547Y-77149832I1360132J2394290D01*
G01*
X178382547Y-77149832D02*
G75*
G03X176629694Y-73027588I-3071747J1127632D01*
G01*
X176629694Y-73027588D02*
G75*
G02X176189696Y-71225835I1094106J1221788D01*
G01*
X176189696Y-71225835D02*
G75*
G03X176111990Y-70243530I-1056696J410635D01*
G01*
X176111990Y-70243530D02*
G75*
G02X176014733Y-66993554I4634410J1765130D01*
G01*
X176014732Y-66993554D02*
G75*
G03X174130256Y-63829499I-2253332J801154D01*
G01*
X174130256Y-63829499D02*
G75*
G02X171472941Y-60595250I875744J3428299D01*
G01*
X171472941Y-60595250D02*
G75*
G03X170840401Y-59944001I-556341J92450D01*
G01*
X170829339Y-59949824D02*
G75*
G02X170170591Y-59359800I-65139J590024D01*
G01*
X170170591Y-59359899D02*
G75*
G03X168314245Y-58602140I-1082791J99D01*
G01*
X168314660Y-58601926D02*
G75*
G02X167039980Y-57445926I-420660J816926D01*
G01*
X167039977Y-57445938D02*
G75*
G03X164545460Y-56768464I-1279577J219738D01*
G01*
X164545666Y-56768145D02*
G75*
G02X162752938Y-56234085I-817266J532545D01*
G01*
X162752162Y-56231491D02*
G75*
G03X160705799Y-54152801I-2986162J-893109D01*
G01*
D11*
X76430000Y-63510000D02*
X77630000Y-62660000D01*
X217940000Y-61910000D02*
X220470000Y-63500000D01*
X75400000Y-145760000D02*
X74080000Y-144620000D01*
X77180000Y-147070000D02*
X75400000Y-145760000D01*
X78880000Y-148150000D02*
X77180000Y-147070000D01*
X81060000Y-149370000D02*
X78880000Y-148150000D01*
X217510000Y-148490000D02*
X215870000Y-149390000D01*
X219450000Y-147300000D02*
X217510000Y-148490000D01*
X221230000Y-146050000D02*
X219450000Y-147300000D01*
X222560000Y-144940000D02*
X221230000Y-146050000D01*
X220470000Y-63500000D02*
X222650000Y-65120000D01*
X215630000Y-60670000D02*
X217940000Y-61910000D01*
X79820000Y-61260000D02*
X80970000Y-60620000D01*
X78620000Y-62010000D02*
X79820000Y-61260000D01*
X77630000Y-62660000D02*
X78620000Y-62010000D01*
X75150000Y-64520000D02*
X76430000Y-63510000D01*
X73930000Y-65560000D02*
X75150000Y-64520000D01*
X88362058Y-152298406D02*
X85490000Y-151360000D01*
X67450000Y-136710000D02*
X66489823Y-135042325D01*
X68520000Y-138340000D02*
X67450000Y-136710000D01*
X70530000Y-140970000D02*
X68520000Y-138340000D01*
X72140000Y-142750000D02*
X70530000Y-140970000D01*
X74080000Y-144620000D02*
X72140000Y-142750000D01*
X82680000Y-150170000D02*
X81060000Y-149370000D01*
X85490000Y-151360000D02*
X82680000Y-150170000D01*
X209960000Y-151900000D02*
X208640141Y-152298406D01*
X211950000Y-151180000D02*
X209960000Y-151900000D01*
X214200000Y-150210000D02*
X211950000Y-151180000D01*
X215870000Y-149390000D02*
X214200000Y-150210000D01*
X224620000Y-143000000D02*
X222560000Y-144940000D01*
X225670000Y-141890000D02*
X224620000Y-143000000D01*
X227690000Y-139440000D02*
X225670000Y-141890000D01*
X228710000Y-138020000D02*
X227690000Y-139440000D01*
X229860000Y-136200000D02*
X228710000Y-138020000D01*
X230512377Y-135042325D02*
X229860000Y-136200000D01*
X67760000Y-72800000D02*
X66489823Y-74964875D01*
X69770000Y-69980000D02*
X67760000Y-72800000D01*
X71850000Y-67560000D02*
X69770000Y-69980000D01*
X73930000Y-65560000D02*
X71850000Y-67560000D01*
X83290000Y-59530000D02*
X80970000Y-60620000D01*
X85990000Y-58460000D02*
X83290000Y-59530000D01*
X88362059Y-57708794D02*
X85990000Y-58460000D01*
X229720000Y-73590000D02*
X230512377Y-74964875D01*
X228620000Y-71870000D02*
X229720000Y-73590000D01*
X227780000Y-70680000D02*
X228620000Y-71870000D01*
X226530000Y-69100000D02*
X227780000Y-70680000D01*
X225500000Y-67920000D02*
X226530000Y-69100000D01*
X224340000Y-66710000D02*
X225500000Y-67920000D01*
X222650000Y-65120000D02*
X224340000Y-66710000D01*
X214010000Y-59880000D02*
X215630000Y-60670000D01*
X212609999Y-59279999D02*
X214010000Y-59880000D01*
X206630000Y-57280000D02*
X207405115Y-57413627D01*
X204880000Y-56810000D02*
X206630000Y-57280000D01*
X202570000Y-56300000D02*
X204880000Y-56810000D01*
X199890000Y-55750000D02*
X202570000Y-56300000D01*
X196203694Y-55269032D02*
X199890000Y-55750000D01*
X207405115Y-57413627D02*
G75*
G02X212609999Y-59279999I2604885J-926373D01*
G01*
D12*
X171632991Y-86051776D02*
G75*
G03X171632991Y-86051776I-23169991J0D01*
G01*
D13*
X179296496Y-54281971D02*
G75*
G02X196203694Y-55269032I-2209433J-183138863D01*
G01*
X179296496Y-54281971D02*
X170851904Y-54174585D01*
X117587076Y-54283442D02*
X126150296Y-54174585D01*
X160037453Y-54174585D02*
X148501100Y-54203600D01*
X136964747Y-54174585D02*
X148501100Y-54203600D01*
X170851904Y-54174585D02*
X160037453Y-54174585D01*
X126150296Y-54174585D02*
X136964747Y-54174585D01*
X117587077Y-155723759D02*
G75*
G02X100798506Y-154738168I2328060J183137393D01*
G01*
X66489823Y-135042325D02*
G75*
G02X61103601Y-120058635I46561744J25197603D01*
G01*
X196203695Y-154738167D02*
G75*
G02X179415124Y-155723758I-19116632J182151801D01*
G01*
X235898599Y-120058635D02*
G75*
G02X230512377Y-135042325I-51947966J10213913D01*
G01*
X208640141Y-152298406D02*
G75*
G02X196203694Y-154738168I-20151862J69805482D01*
G01*
X117587076Y-155723758D02*
X126150296Y-155832615D01*
X61103600Y-120058635D02*
G75*
G02X59601100Y-105003600I73147618J14902665D01*
G01*
X126150296Y-155832615D02*
X136964747Y-155832615D01*
X170851904Y-155832615D02*
X160037453Y-155832615D01*
X136964747Y-155832615D02*
X148501100Y-155803600D01*
X100798505Y-154738168D02*
G75*
G02X88362058Y-152298406I7715416J72245244D01*
G01*
X237401099Y-105003600D02*
G75*
G02X235898599Y-120058635I-74650117J-152370D01*
G01*
X179415124Y-155723758D02*
X170851904Y-155832615D01*
X160037453Y-155832615D02*
X148501100Y-155803600D01*
X235898600Y-89948565D02*
G75*
G02X237401100Y-105003600I-73147618J-14902665D01*
G01*
X230512377Y-74964875D02*
G75*
G02X235898599Y-89948565I-46561744J-25197603D01*
G01*
X100798505Y-55269033D02*
G75*
G02X117587076Y-54283442I19116632J-182151801D01*
G01*
X88362059Y-57708794D02*
G75*
G02X100798506Y-55269032I20151862J-69805482D01*
G01*
X61103601Y-89948565D02*
G75*
G02X66489823Y-74964875I51947966J-10213913D01*
G01*
X59601101Y-105003600D02*
G75*
G02X61103601Y-89948565I74650117J152370D01*
G01*
M02*
