M48
; DRILL file {KiCad (5.1.0-998-gf550ecaf1)} date 7/2/2019 6:40:58 PM
; FORMAT={-:-/ absolute / inch / decimal}
; #@! TF.CreationDate,2019-07-02T18:40:58-07:00
; #@! TF.GenerationSoftware,Kicad,Pcbnew,(5.1.0-998-gf550ecaf1)
FMAT,2
INCH
T1C0.0236
T2C0.0276
T3C0.0300
T4C0.0315
T5C0.0319
T6C0.0320
T7C0.0394
T8C0.0400
T9C0.0402
T10C0.0512
T11C0.1420
T12C0.2250
T13C0.0320
T14C0.1200
T15C0.1417
%
G90
G05
T2
X4.4Y-2.6299
X4.4Y-2.9299
X4.6304Y-4.2567
X4.9304Y-4.2567
X4.0031Y-2.8724
X4.3031Y-2.8724
X4.25Y-2.225
X4.25Y-2.525
X3.625Y-2.875
X3.825Y-2.875
T3
X5.882Y-4.632
X6.04Y-4.6
T4
X4.5256Y-2.7327
X4.5256Y-2.9295
X4.125Y-2.295
X4.125Y-2.4919
X3.7315Y-3.2724
X3.9629Y-3.9379
X4.175Y-4.15
X3.45Y-2.755
X4.0315Y-3.2724
X3.75Y-2.755
X6.8232Y-2.324
X6.8232Y-2.4224
X3.15Y-2.85
X3.45Y-2.85
X4.0201Y-2.7724
X4.2169Y-2.7724
X4.7517Y-4.0039
X4.8646Y-4.1652
X7.0Y-2.225
X7.0Y-2.4219
T5
X4.6175Y-2.3763
X4.6175Y-2.455
X4.7175Y-2.3763
X4.7175Y-2.455
T6
X2.575Y-3.175
X2.685Y-3.5
X3.017Y-3.431
X3.11Y-3.43
X3.25Y-3.73
X3.39Y-3.815
X3.515Y-3.91
X3.5593Y-3.6621
X3.6Y-2.66
X3.6Y-4.005
X3.705Y-4.105
X3.795Y-4.21
X3.9012Y-2.7898
X3.9049Y-4.3201
X4.285Y-4.355
X4.38Y-4.266
X4.5442Y-2.579
X4.68Y-4.355
X4.7185Y-2.6083
X4.7354Y-3.1965
X4.7354Y-3.6827
X4.8453Y-2.8169
X4.9122Y-3.5315
X4.914Y-3.1567
X4.9354Y-4.0878
X5.0287Y-3.8724
X5.0835Y-2.828
X5.1425Y-2.4699
X5.2776Y-4.141
X5.2776Y-4.3894
X5.333Y-4.516
X5.3467Y-2.5741
X5.53Y-4.56
X5.5354Y-2.2772
X5.6268Y-4.3059
X5.678Y-4.514
X5.7Y-2.447
X5.727Y-4.617
X5.9902Y-4.3335
X6.006Y-2.256
X6.07Y-2.47
X6.1488Y-4.5024
X6.2556Y-4.58
X6.3346Y-4.2001
X6.4Y-4.57
X6.4102Y-2.6291
X6.488Y-2.4275
X6.51Y-4.483
X6.5526Y-4.2932
X6.6138Y-3.9504
X6.6549Y-2.9
X6.7102Y-2.274
X6.7485Y-2.6791
X6.7681Y-3.6169
X6.7788Y-3.2457
X6.8492Y-3.9587
X6.9524Y-3.0772
X6.99Y-3.57
X7.048Y-2.5177
X7.15Y-4.475
X7.25Y-2.275
X7.315Y-4.35
X7.3819Y-3.3909
X7.45Y-4.35
X7.62Y-4.3
X7.65Y-2.225
X7.6819Y-2.489
X7.8374Y-2.574
X7.8909Y-2.4315
X7.9083Y-2.2969
X8.0Y-4.175
X8.05Y-2.7125
X8.246Y-4.097
X8.45Y-4.0
X8.4953Y-2.8071
X8.5591Y-2.6421
X8.6975Y-3.917
X8.855Y-3.7425
T7
X7.22Y-2.61
X7.645Y-2.61
X7.645Y-2.8069
X7.22Y-2.8069
X7.7803Y-2.3185
X7.7803Y-2.4185
T9
X3.7685Y-3.0752
X4.2835Y-3.0752
X7.3904Y-3.0744
X7.9054Y-3.0744
T10
X7.9771Y-2.4957
X8.0932Y-2.4877
X8.2772Y-2.2698
X8.2781Y-2.7393
X8.3949Y-2.476
T11
X8.5Y-3.25
T12
X8.5Y-3.6
T13
X3.9445Y-2.26
T14
X8.745Y-2.765
X3.12Y-2.615
T15
X3.71Y-2.34
T1
G00X7.8734Y-3.075
M15
G01X7.9766Y-3.075
M16
G05
G00X3.8016Y-3.075
M15
G01X3.6984Y-3.075
M16
G05
G00X4.2484Y-3.075
M15
G01X4.3516Y-3.075
M16
G05
G00X7.4266Y-3.075
M15
G01X7.3234Y-3.075
M16
G05
T6
G00X3.4744Y-2.42
M15
G01X3.4623Y-2.3627
M16
G05
G00X3.6153Y-2.5776
M15
G01X3.5895Y-2.5667
M16
G05
G00X3.7761Y-2.5836
M15
G01X3.7487Y-2.5894
M16
G05
G00X3.9123Y-2.4981
M15
G01X3.8932Y-2.5186
M16
G05
G00X3.9577Y-2.3173
M15
G01X3.9456Y-2.26
M16
G05
T8
G00X4.4313Y-2.2952
M15
G01X4.4313Y-2.2447
M16
G05
G00X4.9037Y-2.2952
M15
G01X4.9037Y-2.2447
M16
G05
T0
M30
