G04 #@! TF.GenerationSoftware,KiCad,Pcbnew,(5.1.0-998-gf550ecaf1)*
G04 #@! TF.CreationDate,2019-07-11T01:53:52-07:00*
G04 #@! TF.ProjectId,Stylish-Belt-Synth - Full,5374796c-6973-4682-9d42-656c742d5379,rev?*
G04 #@! TF.SameCoordinates,Original*
G04 #@! TF.FileFunction,Legend,Top*
G04 #@! TF.FilePolarity,Positive*
%FSLAX46Y46*%
G04 Gerber Fmt 4.6, Leading zero omitted, Abs format (unit mm)*
G04 Created by KiCad (PCBNEW (5.1.0-998-gf550ecaf1)) date 2019-07-11 01:53:52*
%MOMM*%
%LPD*%
G04 APERTURE LIST*
%ADD10C,0.762000*%
%ADD11C,0.200000*%
%ADD12C,0.100000*%
%ADD13C,0.120000*%
%ADD14C,0.101600*%
%ADD15C,0.203200*%
%ADD16C,0.010000*%
%ADD17C,0.150000*%
%ADD18C,0.050000*%
G04 APERTURE END LIST*
D10*
X184924095Y-100227190D02*
X185649809Y-100469095D01*
X186859333Y-100469095D01*
X187343142Y-100227190D01*
X187585047Y-99985285D01*
X187826952Y-99501476D01*
X187826952Y-99017666D01*
X187585047Y-98533857D01*
X187343142Y-98291952D01*
X186859333Y-98050047D01*
X185891714Y-97808142D01*
X185407904Y-97566238D01*
X185166000Y-97324333D01*
X184924095Y-96840523D01*
X184924095Y-96356714D01*
X185166000Y-95872904D01*
X185407904Y-95631000D01*
X185891714Y-95389095D01*
X187101238Y-95389095D01*
X187826952Y-95631000D01*
X189278380Y-97082428D02*
X191213619Y-97082428D01*
X190004095Y-95389095D02*
X190004095Y-99743380D01*
X190246000Y-100227190D01*
X190729809Y-100469095D01*
X191213619Y-100469095D01*
X192423142Y-97082428D02*
X193632666Y-100469095D01*
X194842190Y-97082428D02*
X193632666Y-100469095D01*
X193148857Y-101678619D01*
X192906952Y-101920523D01*
X192423142Y-102162428D01*
X197503142Y-100469095D02*
X197019333Y-100227190D01*
X196777428Y-99743380D01*
X196777428Y-95389095D01*
X199438380Y-100469095D02*
X199438380Y-97082428D01*
X199438380Y-95389095D02*
X199196476Y-95631000D01*
X199438380Y-95872904D01*
X199680285Y-95631000D01*
X199438380Y-95389095D01*
X199438380Y-95872904D01*
X201615523Y-100227190D02*
X202099333Y-100469095D01*
X203066952Y-100469095D01*
X203550761Y-100227190D01*
X203792666Y-99743380D01*
X203792666Y-99501476D01*
X203550761Y-99017666D01*
X203066952Y-98775761D01*
X202341238Y-98775761D01*
X201857428Y-98533857D01*
X201615523Y-98050047D01*
X201615523Y-97808142D01*
X201857428Y-97324333D01*
X202341238Y-97082428D01*
X203066952Y-97082428D01*
X203550761Y-97324333D01*
X205969809Y-100469095D02*
X205969809Y-95389095D01*
X208146952Y-100469095D02*
X208146952Y-97808142D01*
X207905047Y-97324333D01*
X207421238Y-97082428D01*
X206695523Y-97082428D01*
X206211714Y-97324333D01*
X205969809Y-97566238D01*
X210566000Y-99985285D02*
X210807904Y-100227190D01*
X210566000Y-100469095D01*
X210324095Y-100227190D01*
X210566000Y-99985285D01*
X210566000Y-100469095D01*
X210566000Y-98533857D02*
X210324095Y-95631000D01*
X210566000Y-95389095D01*
X210807904Y-95631000D01*
X210566000Y-98533857D01*
X210566000Y-95389095D01*
D11*
X155370230Y-62843433D02*
X157283647Y-58224035D01*
X159989628Y-64756850D02*
X155370230Y-62843433D01*
X161903045Y-60137453D02*
X159989628Y-64756850D01*
X157283647Y-58224035D02*
X161903045Y-60137453D01*
X163725897Y-67253345D02*
X167261431Y-63717812D01*
X167261431Y-70788879D02*
X163725897Y-67253345D01*
X170796964Y-67253345D02*
X167261431Y-70788879D01*
X167261431Y-63717812D02*
X170796964Y-67253345D01*
X169757926Y-74525148D02*
X174377323Y-72611731D01*
X171671343Y-79144546D02*
X169757926Y-74525148D01*
X176290741Y-77231129D02*
X171671343Y-79144546D01*
X174377323Y-72611731D02*
X176290741Y-77231129D01*
X172547995Y-83551776D02*
X177547995Y-83551776D01*
X172547995Y-88551776D02*
X172547995Y-83551776D01*
X177547995Y-88551776D02*
X172547995Y-88551776D01*
X177547995Y-83551776D02*
X177547995Y-88551776D01*
X171671343Y-92959006D02*
X176290741Y-94872423D01*
X169757926Y-97578404D02*
X171671343Y-92959006D01*
X174377323Y-99491821D02*
X169757926Y-97578404D01*
X176290741Y-94872423D02*
X174377323Y-99491821D01*
X167261431Y-101314673D02*
X170796964Y-104850207D01*
X163725897Y-104850207D02*
X167261431Y-101314673D01*
X167261431Y-108385740D02*
X163725897Y-104850207D01*
X170796964Y-104850207D02*
X167261431Y-108385740D01*
X159989628Y-107346702D02*
X161903045Y-111966099D01*
X155370230Y-109260119D02*
X159989628Y-107346702D01*
X157283647Y-113879517D02*
X155370230Y-109260119D01*
X161903045Y-111966099D02*
X157283647Y-113879517D01*
X150963000Y-110136771D02*
X150963000Y-115136771D01*
X145963000Y-110136771D02*
X150963000Y-110136771D01*
X145963000Y-115136771D02*
X145963000Y-110136771D01*
X150963000Y-115136771D02*
X145963000Y-115136771D01*
X141555770Y-109260119D02*
X139642353Y-113879517D01*
X136936372Y-107346702D02*
X141555770Y-109260119D01*
X135022955Y-111966099D02*
X136936372Y-107346702D01*
X139642353Y-113879517D02*
X135022955Y-111966099D01*
X133200103Y-104850207D02*
X129664569Y-108385740D01*
X129664569Y-101314673D02*
X133200103Y-104850207D01*
X126129036Y-104850207D02*
X129664569Y-101314673D01*
X129664569Y-108385740D02*
X126129036Y-104850207D01*
X127168074Y-97578404D02*
X122548677Y-99491821D01*
X125254657Y-92959006D02*
X127168074Y-97578404D01*
X120635259Y-94872423D02*
X125254657Y-92959006D01*
X122548677Y-99491821D02*
X120635259Y-94872423D01*
X124378005Y-88551776D02*
X119378005Y-88551776D01*
X124378005Y-83551776D02*
X124378005Y-88551776D01*
X119378005Y-83551776D02*
X124378005Y-83551776D01*
X119378005Y-88551776D02*
X119378005Y-83551776D01*
X125254657Y-79144546D02*
X120635259Y-77231129D01*
X127168074Y-74525148D02*
X125254657Y-79144546D01*
X122548677Y-72611731D02*
X127168074Y-74525148D01*
X120635259Y-77231129D02*
X122548677Y-72611731D01*
X129664569Y-70788879D02*
X126129036Y-67253345D01*
X133200103Y-67253345D02*
X129664569Y-70788879D01*
X129664569Y-63717812D02*
X133200103Y-67253345D01*
X126129036Y-67253345D02*
X129664569Y-63717812D01*
X136936372Y-64756850D02*
X135022955Y-60137453D01*
X141555770Y-62843433D02*
X136936372Y-64756850D01*
X139642353Y-58224035D02*
X141555770Y-62843433D01*
X135022955Y-60137453D02*
X139642353Y-58224035D01*
X150963000Y-61966781D02*
X145963000Y-56966781D01*
X145963000Y-61966781D02*
X150963000Y-56966781D01*
X145963000Y-56966781D02*
X145963000Y-61966781D01*
X150963000Y-56966781D02*
X145963000Y-56966781D01*
X150963000Y-61966781D02*
X150963000Y-56966781D01*
X145963000Y-61966781D02*
X150963000Y-61966781D01*
X148463000Y-62881785D02*
X148463000Y-56051776D01*
X178463000Y-86051776D02*
G75*
G03X178463000Y-86051776I-30000000J0D01*
G01*
D12*
X171671091Y-86026376D02*
G75*
G03X171671091Y-86026376I-23169991J0D01*
G01*
X178501100Y-86026376D02*
G75*
G03X178501100Y-86026376I-30000000J0D01*
G01*
D13*
X122523184Y-106595600D02*
X119586473Y-102401542D01*
X124669363Y-105092830D02*
X121732651Y-100898772D01*
X122523184Y-106595600D02*
X122780398Y-106415497D01*
X124412149Y-105272933D02*
X124669363Y-105092830D01*
X119586473Y-102401542D02*
X119843687Y-102221439D01*
X121475438Y-101078875D02*
X121732651Y-100898772D01*
X218186000Y-82550000D02*
G75*
G03X218186000Y-82550000I-2286000J0D01*
G01*
X218186000Y-91440000D02*
G75*
G03X218186000Y-91440000I-2286000J0D01*
G01*
X81534000Y-66421000D02*
G75*
G03X81534000Y-66421000I-2286000J0D01*
G01*
X224409000Y-70231000D02*
G75*
G03X224409000Y-70231000I-2286000J0D01*
G01*
D14*
X193325000Y-76855000D02*
X181325000Y-76855000D01*
X181325000Y-76855000D02*
X181325000Y-79355000D01*
X181325000Y-79355000D02*
X193325000Y-79355000D01*
X193325000Y-79355000D02*
X193325000Y-76855000D01*
D13*
X100650000Y-82060000D02*
X96530000Y-82060000D01*
X96530000Y-84180000D02*
X100650000Y-84180000D01*
X99990000Y-84180000D02*
X99990000Y-82060000D01*
X105557096Y-103423030D02*
X102643816Y-100509750D01*
X101144750Y-102008816D02*
X104058030Y-104922096D01*
X103591339Y-104455406D02*
X105090406Y-102956339D01*
X85880000Y-71330000D02*
X81760000Y-71330000D01*
X81760000Y-73450000D02*
X85880000Y-73450000D01*
X85220000Y-73450000D02*
X85220000Y-71330000D01*
X89380000Y-71037000D02*
X93500000Y-71037000D01*
X93500000Y-68917000D02*
X89380000Y-68917000D01*
X90040000Y-68917000D02*
X90040000Y-71037000D01*
D14*
X101250000Y-79355000D02*
X101250000Y-76855000D01*
X89250000Y-79355000D02*
X101250000Y-79355000D01*
X89250000Y-76855000D02*
X89250000Y-79355000D01*
X101250000Y-76855000D02*
X89250000Y-76855000D01*
X103220000Y-76855000D02*
X103220000Y-79355000D01*
X115220000Y-76855000D02*
X103220000Y-76855000D01*
X115220000Y-79355000D02*
X115220000Y-76855000D01*
X103220000Y-79355000D02*
X115220000Y-79355000D01*
X195295000Y-79355000D02*
X207295000Y-79355000D01*
X207295000Y-79355000D02*
X207295000Y-76855000D01*
X207295000Y-76855000D02*
X195295000Y-76855000D01*
X195295000Y-76855000D02*
X195295000Y-79355000D01*
D15*
X145973800Y-61925200D02*
X145719800Y-61925200D01*
X145719800Y-61925200D02*
X145719800Y-61874400D01*
X145719800Y-61874400D02*
X145724880Y-61874400D01*
X145724880Y-61874400D02*
X145724880Y-56923940D01*
X145724880Y-56923940D02*
X145956020Y-56923940D01*
X150655020Y-61945520D02*
X150926800Y-61945520D01*
X150926800Y-61945520D02*
X150926800Y-61894720D01*
X150926800Y-61894720D02*
X150929340Y-61894720D01*
X150929340Y-61894720D02*
X150929340Y-56926480D01*
X150929340Y-56926480D02*
X150703280Y-56926480D01*
X147472400Y-56896000D02*
X148336000Y-56896000D01*
X148336000Y-56896000D02*
X149199600Y-56896000D01*
X148336000Y-56896000D02*
X150876000Y-59436000D01*
D13*
X108810000Y-62185000D02*
X108810000Y-58465000D01*
X107090000Y-58465000D02*
X107090000Y-62185000D01*
X106085000Y-58233000D02*
X106085000Y-63353000D01*
X103465000Y-58233000D02*
X103465000Y-63353000D01*
X106085000Y-58233000D02*
X105771000Y-58233000D01*
X103779000Y-58233000D02*
X103465000Y-58233000D01*
X106085000Y-63353000D02*
X105771000Y-63353000D01*
X103779000Y-63353000D02*
X103465000Y-63353000D01*
X123281800Y-107260000D02*
X119561800Y-107260000D01*
X119561800Y-108980000D02*
X123281800Y-108980000D01*
D15*
X127028696Y-97368813D02*
X127125897Y-97603478D01*
X127125897Y-97603478D02*
X127078964Y-97622918D01*
X127078964Y-97622918D02*
X127077020Y-97618225D01*
X127077020Y-97618225D02*
X122503392Y-99512684D01*
X122503392Y-99512684D02*
X122414938Y-99299139D01*
X125256044Y-93036153D02*
X125152038Y-92785061D01*
X125152038Y-92785061D02*
X125105105Y-92804501D01*
X125105105Y-92804501D02*
X125104133Y-92802155D01*
X125104133Y-92802155D02*
X120514078Y-94703418D01*
X120514078Y-94703418D02*
X120600587Y-94912270D01*
X121808831Y-97908878D02*
X121478346Y-97111016D01*
X121478346Y-97111016D02*
X121147861Y-96313154D01*
X121478346Y-97111016D02*
X122852984Y-93792346D01*
X124663200Y-88341200D02*
X124663200Y-88595200D01*
X124663200Y-88595200D02*
X124612400Y-88595200D01*
X124612400Y-88595200D02*
X124612400Y-88590120D01*
X124612400Y-88590120D02*
X119661940Y-88590120D01*
X119661940Y-88590120D02*
X119661940Y-88358980D01*
X124683520Y-83659980D02*
X124683520Y-83388200D01*
X124683520Y-83388200D02*
X124632720Y-83388200D01*
X124632720Y-83388200D02*
X124632720Y-83385660D01*
X124632720Y-83385660D02*
X119664480Y-83385660D01*
X119664480Y-83385660D02*
X119664480Y-83611720D01*
X119634000Y-86842600D02*
X119634000Y-85979000D01*
X119634000Y-85979000D02*
X119634000Y-85115400D01*
X119634000Y-85979000D02*
X122174000Y-83439000D01*
X125220746Y-78953964D02*
X125123545Y-79188629D01*
X125123545Y-79188629D02*
X125076611Y-79169189D01*
X125076611Y-79169189D02*
X125078555Y-79164496D01*
X125078555Y-79164496D02*
X120504927Y-77270037D01*
X120504927Y-77270037D02*
X120593380Y-77056491D01*
X127030945Y-74636857D02*
X127134950Y-74385765D01*
X127134950Y-74385765D02*
X127088017Y-74366324D01*
X127088017Y-74366324D02*
X127088989Y-74363978D01*
X127088989Y-74363978D02*
X122498934Y-72462715D01*
X122498934Y-72462715D02*
X122412425Y-72671567D01*
X121147861Y-75644846D02*
X121478346Y-74846984D01*
X121478346Y-74846984D02*
X121808831Y-74049122D01*
X121478346Y-74846984D02*
X124797016Y-73472346D01*
X129756803Y-70486458D02*
X129577197Y-70666063D01*
X129577197Y-70666063D02*
X129541276Y-70630142D01*
X129541276Y-70630142D02*
X129544869Y-70626550D01*
X129544869Y-70626550D02*
X126044365Y-67126046D01*
X126044365Y-67126046D02*
X126207805Y-66962605D01*
X133081293Y-67190704D02*
X133273471Y-66998526D01*
X133273471Y-66998526D02*
X133237550Y-66962605D01*
X133237550Y-66962605D02*
X133239346Y-66960809D01*
X133239346Y-66960809D02*
X129726270Y-63447733D01*
X129726270Y-63447733D02*
X129566421Y-63607582D01*
X127260291Y-65870606D02*
X127870949Y-65259949D01*
X127870949Y-65259949D02*
X128481606Y-64649291D01*
X127870949Y-65259949D02*
X131463051Y-65259949D01*
X136946187Y-64544696D02*
X136711522Y-64641897D01*
X136711522Y-64641897D02*
X136692082Y-64594964D01*
X136692082Y-64594964D02*
X136696775Y-64593020D01*
X136696775Y-64593020D02*
X134802316Y-60019392D01*
X134802316Y-60019392D02*
X135015861Y-59930938D01*
X141278847Y-62772044D02*
X141529939Y-62668038D01*
X141529939Y-62668038D02*
X141510499Y-62621105D01*
X141510499Y-62621105D02*
X141512845Y-62620133D01*
X141512845Y-62620133D02*
X139611582Y-58030078D01*
X139611582Y-58030078D02*
X139402730Y-58116587D01*
X136406122Y-59324831D02*
X137203984Y-58994346D01*
X137203984Y-58994346D02*
X138001846Y-58663861D01*
X137203984Y-58994346D02*
X140522654Y-60368984D01*
X141564964Y-109094254D02*
X141799629Y-109191455D01*
X141799629Y-109191455D02*
X141780189Y-109238389D01*
X141780189Y-109238389D02*
X141775496Y-109236445D01*
X141775496Y-109236445D02*
X139881037Y-113810073D01*
X139881037Y-113810073D02*
X139667491Y-113721620D01*
X137247857Y-107284055D02*
X136996765Y-107180050D01*
X136996765Y-107180050D02*
X136977324Y-107226983D01*
X136977324Y-107226983D02*
X136974978Y-107226011D01*
X136974978Y-107226011D02*
X135073715Y-111816066D01*
X135073715Y-111816066D02*
X135282567Y-111902575D01*
X138255846Y-113167139D02*
X137457984Y-112836654D01*
X137457984Y-112836654D02*
X136660122Y-112506169D01*
X137457984Y-112836654D02*
X136083346Y-109517984D01*
X150952200Y-110159800D02*
X151206200Y-110159800D01*
X151206200Y-110159800D02*
X151206200Y-110210600D01*
X151206200Y-110210600D02*
X151201120Y-110210600D01*
X151201120Y-110210600D02*
X151201120Y-115161060D01*
X151201120Y-115161060D02*
X150969980Y-115161060D01*
X146270980Y-110139480D02*
X145999200Y-110139480D01*
X145999200Y-110139480D02*
X145999200Y-110190280D01*
X145999200Y-110190280D02*
X145996660Y-110190280D01*
X145996660Y-110190280D02*
X145996660Y-115158520D01*
X145996660Y-115158520D02*
X146222720Y-115158520D01*
X149453600Y-115189000D02*
X148590000Y-115189000D01*
X148590000Y-115189000D02*
X147726400Y-115189000D01*
X148590000Y-115189000D02*
X146050000Y-112649000D01*
X159852813Y-107413304D02*
X160087478Y-107316103D01*
X160087478Y-107316103D02*
X160106918Y-107363036D01*
X160106918Y-107363036D02*
X160102225Y-107364980D01*
X160102225Y-107364980D02*
X161996684Y-111938608D01*
X161996684Y-111938608D02*
X161783139Y-112027062D01*
X155520153Y-109185956D02*
X155269061Y-109289962D01*
X155269061Y-109289962D02*
X155288501Y-109336895D01*
X155288501Y-109336895D02*
X155286155Y-109337867D01*
X155286155Y-109337867D02*
X157187418Y-113927922D01*
X157187418Y-113927922D02*
X157396270Y-113841413D01*
X160392878Y-112633169D02*
X159595016Y-112963654D01*
X159595016Y-112963654D02*
X158797154Y-113294139D01*
X159595016Y-112963654D02*
X156276346Y-111589016D01*
X167169197Y-101471542D02*
X167348803Y-101291937D01*
X167348803Y-101291937D02*
X167384724Y-101327858D01*
X167384724Y-101327858D02*
X167381131Y-101331450D01*
X167381131Y-101331450D02*
X170881635Y-104831954D01*
X170881635Y-104831954D02*
X170718195Y-104995395D01*
X163844707Y-104767296D02*
X163652529Y-104959474D01*
X163652529Y-104959474D02*
X163688450Y-104995395D01*
X163688450Y-104995395D02*
X163686654Y-104997191D01*
X163686654Y-104997191D02*
X167199730Y-108510267D01*
X167199730Y-108510267D02*
X167359579Y-108350418D01*
X169665709Y-106087394D02*
X169055051Y-106698051D01*
X169055051Y-106698051D02*
X168444394Y-107308709D01*
X169055051Y-106698051D02*
X165462949Y-106698051D01*
X133097458Y-104558197D02*
X133277063Y-104737803D01*
X133277063Y-104737803D02*
X133241142Y-104773724D01*
X133241142Y-104773724D02*
X133237550Y-104770131D01*
X133237550Y-104770131D02*
X129737046Y-108270635D01*
X129737046Y-108270635D02*
X129573605Y-108107195D01*
X129801704Y-101233707D02*
X129609526Y-101041529D01*
X129609526Y-101041529D02*
X129573605Y-101077450D01*
X129573605Y-101077450D02*
X129571809Y-101075654D01*
X129571809Y-101075654D02*
X126058733Y-104588730D01*
X126058733Y-104588730D02*
X126218582Y-104748579D01*
X128481606Y-107054709D02*
X127870949Y-106444051D01*
X127870949Y-106444051D02*
X127260291Y-105833394D01*
X127870949Y-106444051D02*
X127870949Y-102851949D01*
X172516800Y-83743800D02*
X172516800Y-83489800D01*
X172516800Y-83489800D02*
X172567600Y-83489800D01*
X172567600Y-83489800D02*
X172567600Y-83494880D01*
X172567600Y-83494880D02*
X177518060Y-83494880D01*
X177518060Y-83494880D02*
X177518060Y-83726020D01*
X172496480Y-88425020D02*
X172496480Y-88696800D01*
X172496480Y-88696800D02*
X172547280Y-88696800D01*
X172547280Y-88696800D02*
X172547280Y-88699340D01*
X172547280Y-88699340D02*
X177515520Y-88699340D01*
X177515520Y-88699340D02*
X177515520Y-88473280D01*
X177546000Y-85242400D02*
X177546000Y-86106000D01*
X177546000Y-86106000D02*
X177546000Y-86969600D01*
X177546000Y-86106000D02*
X175006000Y-88646000D01*
X169770304Y-74589187D02*
X169673103Y-74354522D01*
X169673103Y-74354522D02*
X169720036Y-74335082D01*
X169720036Y-74335082D02*
X169721980Y-74339775D01*
X169721980Y-74339775D02*
X174295608Y-72445316D01*
X174295608Y-72445316D02*
X174384062Y-72658861D01*
X171542956Y-78921847D02*
X171646962Y-79172939D01*
X171646962Y-79172939D02*
X171693895Y-79153499D01*
X171693895Y-79153499D02*
X171694867Y-79155845D01*
X171694867Y-79155845D02*
X176284922Y-77254582D01*
X176284922Y-77254582D02*
X176198413Y-77045730D01*
X174990169Y-74049122D02*
X175320654Y-74846984D01*
X175320654Y-74846984D02*
X175651139Y-75644846D01*
X175320654Y-74846984D02*
X173946016Y-78165654D01*
X163828542Y-67399803D02*
X163648937Y-67220197D01*
X163648937Y-67220197D02*
X163684858Y-67184276D01*
X163684858Y-67184276D02*
X163688450Y-67187869D01*
X163688450Y-67187869D02*
X167188954Y-63687365D01*
X167188954Y-63687365D02*
X167352395Y-63850805D01*
X167124296Y-70724293D02*
X167316474Y-70916471D01*
X167316474Y-70916471D02*
X167352395Y-70880550D01*
X167352395Y-70880550D02*
X167354191Y-70882346D01*
X167354191Y-70882346D02*
X170867267Y-67369270D01*
X170867267Y-67369270D02*
X170707418Y-67209421D01*
X168444394Y-64903291D02*
X169055051Y-65513949D01*
X169055051Y-65513949D02*
X169665709Y-66124606D01*
X169055051Y-65513949D02*
X169055051Y-69106051D01*
X155615036Y-62990746D02*
X155380371Y-62893545D01*
X155380371Y-62893545D02*
X155399811Y-62846611D01*
X155399811Y-62846611D02*
X155404504Y-62848555D01*
X155404504Y-62848555D02*
X157298963Y-58274927D01*
X157298963Y-58274927D02*
X157512509Y-58363380D01*
X159932143Y-64800945D02*
X160183235Y-64904950D01*
X160183235Y-64904950D02*
X160202676Y-64858017D01*
X160202676Y-64858017D02*
X160205022Y-64858989D01*
X160205022Y-64858989D02*
X162106285Y-60268934D01*
X162106285Y-60268934D02*
X161897433Y-60182425D01*
X158924154Y-58917861D02*
X159722016Y-59248346D01*
X159722016Y-59248346D02*
X160519878Y-59578831D01*
X159722016Y-59248346D02*
X161096654Y-62567016D01*
X171578254Y-93131036D02*
X171675455Y-92896371D01*
X171675455Y-92896371D02*
X171722389Y-92915811D01*
X171722389Y-92915811D02*
X171720445Y-92920504D01*
X171720445Y-92920504D02*
X176294073Y-94814963D01*
X176294073Y-94814963D02*
X176205620Y-95028509D01*
X169768055Y-97448143D02*
X169664050Y-97699235D01*
X169664050Y-97699235D02*
X169710983Y-97718676D01*
X169710983Y-97718676D02*
X169710011Y-97721022D01*
X169710011Y-97721022D02*
X174300066Y-99622285D01*
X174300066Y-99622285D02*
X174386575Y-99413433D01*
X175651139Y-96440154D02*
X175320654Y-97238016D01*
X175320654Y-97238016D02*
X174990169Y-98035878D01*
X175320654Y-97238016D02*
X172001984Y-98612654D01*
D16*
G36*
X202900594Y-82576876D02*
G01*
X202959643Y-82704311D01*
X202988279Y-82875415D01*
X202985385Y-83055160D01*
X202949839Y-83208518D01*
X202922433Y-83260247D01*
X202901181Y-83287921D01*
X202874232Y-83309555D01*
X202831781Y-83325893D01*
X202764024Y-83337677D01*
X202661156Y-83345653D01*
X202513371Y-83350563D01*
X202310865Y-83353151D01*
X202043833Y-83354159D01*
X201702469Y-83354333D01*
X201681691Y-83354333D01*
X201304397Y-83355424D01*
X201004744Y-83358893D01*
X200775734Y-83365037D01*
X200610365Y-83374155D01*
X200501639Y-83386542D01*
X200442556Y-83402495D01*
X200434481Y-83407250D01*
X200411869Y-83430528D01*
X200394736Y-83469851D01*
X200382508Y-83535485D01*
X200374609Y-83637695D01*
X200370466Y-83786746D01*
X200369503Y-83992903D01*
X200371147Y-84266433D01*
X200373474Y-84497333D01*
X200384834Y-85534500D01*
X201547358Y-85555667D01*
X202709882Y-85576833D01*
X202810545Y-85725000D01*
X202871942Y-85834011D01*
X202896635Y-85944342D01*
X202893309Y-86095865D01*
X202892777Y-86102589D01*
X202871252Y-86255465D01*
X202828383Y-86356462D01*
X202759645Y-86430673D01*
X202723278Y-86460323D01*
X202684478Y-86483344D01*
X202632757Y-86500575D01*
X202557622Y-86512855D01*
X202448583Y-86521022D01*
X202295150Y-86525914D01*
X202086832Y-86528371D01*
X201813138Y-86529231D01*
X201525473Y-86529333D01*
X200406000Y-86529333D01*
X200406000Y-88815333D01*
X202855188Y-88815333D01*
X202942928Y-88926876D01*
X203009641Y-89070365D01*
X203032420Y-89253827D01*
X203011095Y-89444760D01*
X202946464Y-89609083D01*
X202862578Y-89746667D01*
X201216139Y-89746667D01*
X200775373Y-89746043D01*
X200412903Y-89744040D01*
X200122366Y-89740458D01*
X199897401Y-89735097D01*
X199731645Y-89727759D01*
X199618735Y-89718244D01*
X199552310Y-89706352D01*
X199527244Y-89693750D01*
X199518550Y-89641764D01*
X199510046Y-89512770D01*
X199501790Y-89314428D01*
X199493843Y-89054397D01*
X199486263Y-88740335D01*
X199479111Y-88379902D01*
X199472446Y-87980757D01*
X199466327Y-87550559D01*
X199460815Y-87096966D01*
X199455967Y-86627639D01*
X199451845Y-86150235D01*
X199448507Y-85672415D01*
X199446013Y-85201837D01*
X199444422Y-84746160D01*
X199443795Y-84313043D01*
X199444190Y-83910146D01*
X199445667Y-83545126D01*
X199448285Y-83225645D01*
X199452105Y-82959360D01*
X199457185Y-82753930D01*
X199463585Y-82617015D01*
X199471365Y-82556274D01*
X199471781Y-82555391D01*
X199485547Y-82532621D01*
X199505449Y-82514053D01*
X199539556Y-82499260D01*
X199595939Y-82487813D01*
X199682666Y-82479282D01*
X199807807Y-82473239D01*
X199979431Y-82469255D01*
X200205609Y-82466902D01*
X200494409Y-82465749D01*
X200853901Y-82465369D01*
X201166417Y-82465333D01*
X202812855Y-82465333D01*
X202900594Y-82576876D01*
X202900594Y-82576876D01*
G37*
X202900594Y-82576876D02*
X202959643Y-82704311D01*
X202988279Y-82875415D01*
X202985385Y-83055160D01*
X202949839Y-83208518D01*
X202922433Y-83260247D01*
X202901181Y-83287921D01*
X202874232Y-83309555D01*
X202831781Y-83325893D01*
X202764024Y-83337677D01*
X202661156Y-83345653D01*
X202513371Y-83350563D01*
X202310865Y-83353151D01*
X202043833Y-83354159D01*
X201702469Y-83354333D01*
X201681691Y-83354333D01*
X201304397Y-83355424D01*
X201004744Y-83358893D01*
X200775734Y-83365037D01*
X200610365Y-83374155D01*
X200501639Y-83386542D01*
X200442556Y-83402495D01*
X200434481Y-83407250D01*
X200411869Y-83430528D01*
X200394736Y-83469851D01*
X200382508Y-83535485D01*
X200374609Y-83637695D01*
X200370466Y-83786746D01*
X200369503Y-83992903D01*
X200371147Y-84266433D01*
X200373474Y-84497333D01*
X200384834Y-85534500D01*
X201547358Y-85555667D01*
X202709882Y-85576833D01*
X202810545Y-85725000D01*
X202871942Y-85834011D01*
X202896635Y-85944342D01*
X202893309Y-86095865D01*
X202892777Y-86102589D01*
X202871252Y-86255465D01*
X202828383Y-86356462D01*
X202759645Y-86430673D01*
X202723278Y-86460323D01*
X202684478Y-86483344D01*
X202632757Y-86500575D01*
X202557622Y-86512855D01*
X202448583Y-86521022D01*
X202295150Y-86525914D01*
X202086832Y-86528371D01*
X201813138Y-86529231D01*
X201525473Y-86529333D01*
X200406000Y-86529333D01*
X200406000Y-88815333D01*
X202855188Y-88815333D01*
X202942928Y-88926876D01*
X203009641Y-89070365D01*
X203032420Y-89253827D01*
X203011095Y-89444760D01*
X202946464Y-89609083D01*
X202862578Y-89746667D01*
X201216139Y-89746667D01*
X200775373Y-89746043D01*
X200412903Y-89744040D01*
X200122366Y-89740458D01*
X199897401Y-89735097D01*
X199731645Y-89727759D01*
X199618735Y-89718244D01*
X199552310Y-89706352D01*
X199527244Y-89693750D01*
X199518550Y-89641764D01*
X199510046Y-89512770D01*
X199501790Y-89314428D01*
X199493843Y-89054397D01*
X199486263Y-88740335D01*
X199479111Y-88379902D01*
X199472446Y-87980757D01*
X199466327Y-87550559D01*
X199460815Y-87096966D01*
X199455967Y-86627639D01*
X199451845Y-86150235D01*
X199448507Y-85672415D01*
X199446013Y-85201837D01*
X199444422Y-84746160D01*
X199443795Y-84313043D01*
X199444190Y-83910146D01*
X199445667Y-83545126D01*
X199448285Y-83225645D01*
X199452105Y-82959360D01*
X199457185Y-82753930D01*
X199463585Y-82617015D01*
X199471365Y-82556274D01*
X199471781Y-82555391D01*
X199485547Y-82532621D01*
X199505449Y-82514053D01*
X199539556Y-82499260D01*
X199595939Y-82487813D01*
X199682666Y-82479282D01*
X199807807Y-82473239D01*
X199979431Y-82469255D01*
X200205609Y-82466902D01*
X200494409Y-82465749D01*
X200853901Y-82465369D01*
X201166417Y-82465333D01*
X202812855Y-82465333D01*
X202900594Y-82576876D01*
G36*
X197233145Y-82349117D02*
G01*
X197422715Y-82397066D01*
X197562666Y-82489307D01*
X197597259Y-82532699D01*
X197637093Y-82627826D01*
X197651222Y-82764666D01*
X197646636Y-82910449D01*
X197628700Y-83088144D01*
X197591892Y-83207720D01*
X197521462Y-83281089D01*
X197402658Y-83320159D01*
X197220731Y-83336840D01*
X197114355Y-83340216D01*
X196930682Y-83347003D01*
X196811498Y-83360033D01*
X196736642Y-83383896D01*
X196685955Y-83423180D01*
X196670303Y-83441286D01*
X196586998Y-83591819D01*
X196520805Y-83808101D01*
X196476012Y-84072194D01*
X196457677Y-84330795D01*
X196447834Y-84687833D01*
X196855470Y-84699888D01*
X197263106Y-84711942D01*
X197280596Y-84318888D01*
X197293517Y-84114303D01*
X197315095Y-83965554D01*
X197351871Y-83843838D01*
X197410391Y-83720349D01*
X197421025Y-83700668D01*
X197557854Y-83489322D01*
X197700781Y-83338519D01*
X197841637Y-83253006D01*
X197972254Y-83237530D01*
X198084463Y-83296838D01*
X198095743Y-83308585D01*
X198125162Y-83354300D01*
X198147427Y-83426077D01*
X198164285Y-83537176D01*
X198177482Y-83700858D01*
X198188766Y-83930383D01*
X198193348Y-84049418D01*
X198217422Y-84709000D01*
X198606650Y-84709000D01*
X198828987Y-84715440D01*
X198981456Y-84741396D01*
X199078310Y-84796820D01*
X199133805Y-84891664D01*
X199162197Y-85035880D01*
X199168483Y-85101239D01*
X199172424Y-85250870D01*
X199148833Y-85353667D01*
X199095986Y-85437686D01*
X199047461Y-85492204D01*
X198992960Y-85526897D01*
X198912283Y-85547105D01*
X198785232Y-85558168D01*
X198615575Y-85564686D01*
X198225834Y-85576833D01*
X198214728Y-87160423D01*
X198212134Y-87571937D01*
X198210896Y-87907078D01*
X198211311Y-88174131D01*
X198213675Y-88381383D01*
X198218284Y-88537121D01*
X198225436Y-88649631D01*
X198235427Y-88727198D01*
X198248553Y-88778110D01*
X198265112Y-88810654D01*
X198274206Y-88822006D01*
X198389271Y-88887820D01*
X198552508Y-88888370D01*
X198758555Y-88823986D01*
X198837183Y-88787476D01*
X198998651Y-88719969D01*
X199107819Y-88712008D01*
X199177236Y-88768701D01*
X199219446Y-88895155D01*
X199228579Y-88946819D01*
X199244351Y-89207304D01*
X199205365Y-89421290D01*
X199113643Y-89578618D01*
X199100023Y-89592410D01*
X198952123Y-89688689D01*
X198746979Y-89762302D01*
X198510010Y-89808888D01*
X198266636Y-89824085D01*
X198042278Y-89803532D01*
X197970150Y-89786278D01*
X197799954Y-89702182D01*
X197629049Y-89559052D01*
X197480409Y-89379140D01*
X197395755Y-89229925D01*
X197370710Y-89173013D01*
X197350113Y-89117967D01*
X197333461Y-89056142D01*
X197320249Y-88978896D01*
X197309974Y-88877584D01*
X197302130Y-88743565D01*
X197296214Y-88568193D01*
X197291722Y-88342827D01*
X197288148Y-88058822D01*
X197284990Y-87707536D01*
X197281741Y-87280324D01*
X197281703Y-87275115D01*
X197268905Y-85544398D01*
X197048869Y-85570831D01*
X196868699Y-85587214D01*
X196679785Y-85596711D01*
X196621401Y-85597632D01*
X196413969Y-85598000D01*
X196475389Y-89574792D01*
X196368286Y-89681896D01*
X196291077Y-89744952D01*
X196201750Y-89777381D01*
X196069377Y-89788453D01*
X196010967Y-89789000D01*
X195837128Y-89778928D01*
X195716838Y-89743999D01*
X195649618Y-89701582D01*
X195538484Y-89614165D01*
X195516500Y-85576833D01*
X195284169Y-85563688D01*
X195094982Y-85535945D01*
X194971835Y-85471581D01*
X194900318Y-85360362D01*
X194877669Y-85274966D01*
X194872770Y-85064482D01*
X194944853Y-84887127D01*
X195008298Y-84811187D01*
X195096516Y-84744546D01*
X195207072Y-84714414D01*
X195324076Y-84709000D01*
X195537667Y-84709000D01*
X195537667Y-84313605D01*
X195561958Y-83922107D01*
X195631637Y-83553634D01*
X195741914Y-83222252D01*
X195887999Y-82942026D01*
X196065102Y-82727019D01*
X196083800Y-82710116D01*
X196288842Y-82563877D01*
X196521806Y-82452839D01*
X196767183Y-82378822D01*
X197009465Y-82343642D01*
X197233145Y-82349117D01*
X197233145Y-82349117D01*
G37*
X197233145Y-82349117D02*
X197422715Y-82397066D01*
X197562666Y-82489307D01*
X197597259Y-82532699D01*
X197637093Y-82627826D01*
X197651222Y-82764666D01*
X197646636Y-82910449D01*
X197628700Y-83088144D01*
X197591892Y-83207720D01*
X197521462Y-83281089D01*
X197402658Y-83320159D01*
X197220731Y-83336840D01*
X197114355Y-83340216D01*
X196930682Y-83347003D01*
X196811498Y-83360033D01*
X196736642Y-83383896D01*
X196685955Y-83423180D01*
X196670303Y-83441286D01*
X196586998Y-83591819D01*
X196520805Y-83808101D01*
X196476012Y-84072194D01*
X196457677Y-84330795D01*
X196447834Y-84687833D01*
X196855470Y-84699888D01*
X197263106Y-84711942D01*
X197280596Y-84318888D01*
X197293517Y-84114303D01*
X197315095Y-83965554D01*
X197351871Y-83843838D01*
X197410391Y-83720349D01*
X197421025Y-83700668D01*
X197557854Y-83489322D01*
X197700781Y-83338519D01*
X197841637Y-83253006D01*
X197972254Y-83237530D01*
X198084463Y-83296838D01*
X198095743Y-83308585D01*
X198125162Y-83354300D01*
X198147427Y-83426077D01*
X198164285Y-83537176D01*
X198177482Y-83700858D01*
X198188766Y-83930383D01*
X198193348Y-84049418D01*
X198217422Y-84709000D01*
X198606650Y-84709000D01*
X198828987Y-84715440D01*
X198981456Y-84741396D01*
X199078310Y-84796820D01*
X199133805Y-84891664D01*
X199162197Y-85035880D01*
X199168483Y-85101239D01*
X199172424Y-85250870D01*
X199148833Y-85353667D01*
X199095986Y-85437686D01*
X199047461Y-85492204D01*
X198992960Y-85526897D01*
X198912283Y-85547105D01*
X198785232Y-85558168D01*
X198615575Y-85564686D01*
X198225834Y-85576833D01*
X198214728Y-87160423D01*
X198212134Y-87571937D01*
X198210896Y-87907078D01*
X198211311Y-88174131D01*
X198213675Y-88381383D01*
X198218284Y-88537121D01*
X198225436Y-88649631D01*
X198235427Y-88727198D01*
X198248553Y-88778110D01*
X198265112Y-88810654D01*
X198274206Y-88822006D01*
X198389271Y-88887820D01*
X198552508Y-88888370D01*
X198758555Y-88823986D01*
X198837183Y-88787476D01*
X198998651Y-88719969D01*
X199107819Y-88712008D01*
X199177236Y-88768701D01*
X199219446Y-88895155D01*
X199228579Y-88946819D01*
X199244351Y-89207304D01*
X199205365Y-89421290D01*
X199113643Y-89578618D01*
X199100023Y-89592410D01*
X198952123Y-89688689D01*
X198746979Y-89762302D01*
X198510010Y-89808888D01*
X198266636Y-89824085D01*
X198042278Y-89803532D01*
X197970150Y-89786278D01*
X197799954Y-89702182D01*
X197629049Y-89559052D01*
X197480409Y-89379140D01*
X197395755Y-89229925D01*
X197370710Y-89173013D01*
X197350113Y-89117967D01*
X197333461Y-89056142D01*
X197320249Y-88978896D01*
X197309974Y-88877584D01*
X197302130Y-88743565D01*
X197296214Y-88568193D01*
X197291722Y-88342827D01*
X197288148Y-88058822D01*
X197284990Y-87707536D01*
X197281741Y-87280324D01*
X197281703Y-87275115D01*
X197268905Y-85544398D01*
X197048869Y-85570831D01*
X196868699Y-85587214D01*
X196679785Y-85596711D01*
X196621401Y-85597632D01*
X196413969Y-85598000D01*
X196475389Y-89574792D01*
X196368286Y-89681896D01*
X196291077Y-89744952D01*
X196201750Y-89777381D01*
X196069377Y-89788453D01*
X196010967Y-89789000D01*
X195837128Y-89778928D01*
X195716838Y-89743999D01*
X195649618Y-89701582D01*
X195538484Y-89614165D01*
X195516500Y-85576833D01*
X195284169Y-85563688D01*
X195094982Y-85535945D01*
X194971835Y-85471581D01*
X194900318Y-85360362D01*
X194877669Y-85274966D01*
X194872770Y-85064482D01*
X194944853Y-84887127D01*
X195008298Y-84811187D01*
X195096516Y-84744546D01*
X195207072Y-84714414D01*
X195324076Y-84709000D01*
X195537667Y-84709000D01*
X195537667Y-84313605D01*
X195561958Y-83922107D01*
X195631637Y-83553634D01*
X195741914Y-83222252D01*
X195887999Y-82942026D01*
X196065102Y-82727019D01*
X196083800Y-82710116D01*
X196288842Y-82563877D01*
X196521806Y-82452839D01*
X196767183Y-82378822D01*
X197009465Y-82343642D01*
X197233145Y-82349117D01*
G36*
X193322843Y-84604398D02*
G01*
X193480616Y-84610755D01*
X193599907Y-84626225D01*
X193703805Y-84654800D01*
X193815399Y-84700471D01*
X193903414Y-84741410D01*
X194223839Y-84937630D01*
X194514858Y-85203390D01*
X194766841Y-85525903D01*
X194970158Y-85892385D01*
X195115178Y-86290049D01*
X195138472Y-86381167D01*
X195183481Y-86656737D01*
X195205051Y-86980050D01*
X195203181Y-87317491D01*
X195177869Y-87635446D01*
X195138502Y-87862833D01*
X195005138Y-88279658D01*
X194813116Y-88665554D01*
X194570962Y-89011169D01*
X194287203Y-89307152D01*
X193970364Y-89544151D01*
X193628973Y-89712815D01*
X193387166Y-89783697D01*
X193102173Y-89820990D01*
X192807164Y-89820188D01*
X192563926Y-89785445D01*
X192243246Y-89670632D01*
X191930142Y-89485291D01*
X191642825Y-89242889D01*
X191399504Y-88956896D01*
X191354843Y-88891243D01*
X191134091Y-88479102D01*
X190984080Y-88037913D01*
X190903751Y-87578945D01*
X190892996Y-87151216D01*
X191813733Y-87151216D01*
X191843404Y-87484175D01*
X191910588Y-87796608D01*
X191962447Y-87947500D01*
X192085605Y-88184827D01*
X192253805Y-88414553D01*
X192449463Y-88618354D01*
X192654999Y-88777906D01*
X192852093Y-88874653D01*
X193128804Y-88922673D01*
X193406185Y-88897660D01*
X193623953Y-88819778D01*
X193742891Y-88741221D01*
X193880223Y-88624839D01*
X193979504Y-88524513D01*
X194173041Y-88248453D01*
X194305260Y-87929028D01*
X194376858Y-87580512D01*
X194388534Y-87217183D01*
X194340984Y-86853315D01*
X194234906Y-86503185D01*
X194070996Y-86181069D01*
X193851435Y-85902752D01*
X193599279Y-85695042D01*
X193334830Y-85566685D01*
X193066492Y-85514938D01*
X192802670Y-85537058D01*
X192551768Y-85630300D01*
X192322192Y-85791921D01*
X192122346Y-86019177D01*
X191960635Y-86309325D01*
X191874725Y-86548047D01*
X191823524Y-86828812D01*
X191813733Y-87151216D01*
X190892996Y-87151216D01*
X190892046Y-87113467D01*
X190947905Y-86652747D01*
X191070269Y-86208053D01*
X191258079Y-85790655D01*
X191510275Y-85411820D01*
X191701993Y-85197777D01*
X192015900Y-84925784D01*
X192299167Y-84750819D01*
X192428378Y-84688195D01*
X192532526Y-84646369D01*
X192634450Y-84621146D01*
X192756991Y-84608335D01*
X192922987Y-84603741D01*
X193103500Y-84603167D01*
X193322843Y-84604398D01*
X193322843Y-84604398D01*
G37*
X193322843Y-84604398D02*
X193480616Y-84610755D01*
X193599907Y-84626225D01*
X193703805Y-84654800D01*
X193815399Y-84700471D01*
X193903414Y-84741410D01*
X194223839Y-84937630D01*
X194514858Y-85203390D01*
X194766841Y-85525903D01*
X194970158Y-85892385D01*
X195115178Y-86290049D01*
X195138472Y-86381167D01*
X195183481Y-86656737D01*
X195205051Y-86980050D01*
X195203181Y-87317491D01*
X195177869Y-87635446D01*
X195138502Y-87862833D01*
X195005138Y-88279658D01*
X194813116Y-88665554D01*
X194570962Y-89011169D01*
X194287203Y-89307152D01*
X193970364Y-89544151D01*
X193628973Y-89712815D01*
X193387166Y-89783697D01*
X193102173Y-89820990D01*
X192807164Y-89820188D01*
X192563926Y-89785445D01*
X192243246Y-89670632D01*
X191930142Y-89485291D01*
X191642825Y-89242889D01*
X191399504Y-88956896D01*
X191354843Y-88891243D01*
X191134091Y-88479102D01*
X190984080Y-88037913D01*
X190903751Y-87578945D01*
X190892996Y-87151216D01*
X191813733Y-87151216D01*
X191843404Y-87484175D01*
X191910588Y-87796608D01*
X191962447Y-87947500D01*
X192085605Y-88184827D01*
X192253805Y-88414553D01*
X192449463Y-88618354D01*
X192654999Y-88777906D01*
X192852093Y-88874653D01*
X193128804Y-88922673D01*
X193406185Y-88897660D01*
X193623953Y-88819778D01*
X193742891Y-88741221D01*
X193880223Y-88624839D01*
X193979504Y-88524513D01*
X194173041Y-88248453D01*
X194305260Y-87929028D01*
X194376858Y-87580512D01*
X194388534Y-87217183D01*
X194340984Y-86853315D01*
X194234906Y-86503185D01*
X194070996Y-86181069D01*
X193851435Y-85902752D01*
X193599279Y-85695042D01*
X193334830Y-85566685D01*
X193066492Y-85514938D01*
X192802670Y-85537058D01*
X192551768Y-85630300D01*
X192322192Y-85791921D01*
X192122346Y-86019177D01*
X191960635Y-86309325D01*
X191874725Y-86548047D01*
X191823524Y-86828812D01*
X191813733Y-87151216D01*
X190892996Y-87151216D01*
X190892046Y-87113467D01*
X190947905Y-86652747D01*
X191070269Y-86208053D01*
X191258079Y-85790655D01*
X191510275Y-85411820D01*
X191701993Y-85197777D01*
X192015900Y-84925784D01*
X192299167Y-84750819D01*
X192428378Y-84688195D01*
X192532526Y-84646369D01*
X192634450Y-84621146D01*
X192756991Y-84608335D01*
X192922987Y-84603741D01*
X193103500Y-84603167D01*
X193322843Y-84604398D01*
G36*
X209442127Y-84582489D02*
G01*
X209677765Y-84587171D01*
X209849172Y-84600863D01*
X209966565Y-84628384D01*
X210040160Y-84674553D01*
X210080174Y-84744189D01*
X210096823Y-84842111D01*
X210100326Y-84973137D01*
X210100334Y-85038702D01*
X210092369Y-85237694D01*
X210063294Y-85366601D01*
X210005337Y-85438944D01*
X209910727Y-85468248D01*
X209851900Y-85471000D01*
X209742745Y-85476028D01*
X209675920Y-85488470D01*
X209670120Y-85491991D01*
X209667066Y-85540517D01*
X209677208Y-85651499D01*
X209698424Y-85804127D01*
X209707884Y-85862408D01*
X209738829Y-86132500D01*
X209748591Y-86427242D01*
X209738205Y-86720515D01*
X209708702Y-86986199D01*
X209661116Y-87198177D01*
X209654244Y-87218753D01*
X209550516Y-87421523D01*
X209387841Y-87630239D01*
X209187061Y-87822526D01*
X208969016Y-87976007D01*
X208927812Y-87998696D01*
X208763965Y-88075952D01*
X208559945Y-88160043D01*
X208356867Y-88234136D01*
X208335153Y-88241346D01*
X208080697Y-88335196D01*
X207905781Y-88426537D01*
X207805674Y-88521031D01*
X207775643Y-88624339D01*
X207810958Y-88742123D01*
X207856121Y-88814567D01*
X207933549Y-88897094D01*
X208045046Y-88966830D01*
X208202546Y-89028210D01*
X208417983Y-89085672D01*
X208703292Y-89143653D01*
X208777358Y-89157049D01*
X209131085Y-89230729D01*
X209412310Y-89316349D01*
X209633055Y-89420924D01*
X209805343Y-89551471D01*
X209941194Y-89715004D01*
X210041604Y-89894833D01*
X210126082Y-90162478D01*
X210149838Y-90461848D01*
X210113386Y-90766201D01*
X210019527Y-91043985D01*
X209844209Y-91344823D01*
X209628912Y-91584015D01*
X209367356Y-91764858D01*
X209053257Y-91890650D01*
X208680334Y-91964687D01*
X208242305Y-91990267D01*
X208216500Y-91990333D01*
X207824166Y-91973944D01*
X207493364Y-91920772D01*
X207206751Y-91824808D01*
X206946984Y-91680042D01*
X206696718Y-91480467D01*
X206667805Y-91453769D01*
X206472538Y-91271120D01*
X206301225Y-91474287D01*
X206062989Y-91694047D01*
X205765458Y-91866638D01*
X205422114Y-91988159D01*
X205046436Y-92054714D01*
X204651904Y-92062402D01*
X204375317Y-92031278D01*
X203967430Y-91933217D01*
X203622574Y-91787985D01*
X203343981Y-91597586D01*
X203134885Y-91364021D01*
X203045604Y-91207167D01*
X202991754Y-91071227D01*
X202961128Y-90930749D01*
X202948284Y-90754256D01*
X202946827Y-90635667D01*
X202953631Y-90537733D01*
X203750334Y-90537733D01*
X203786796Y-90653659D01*
X203884222Y-90783168D01*
X204024671Y-90909146D01*
X204190199Y-91014479D01*
X204301250Y-91063238D01*
X204585571Y-91127244D01*
X204897575Y-91135634D01*
X205204638Y-91090170D01*
X205457811Y-91000790D01*
X205670312Y-90866780D01*
X205804052Y-90717179D01*
X205861689Y-90559634D01*
X205859541Y-90538189D01*
X207196113Y-90538189D01*
X207217907Y-90646945D01*
X207321773Y-90807607D01*
X207491675Y-90941268D01*
X207712077Y-91043618D01*
X207967446Y-91110343D01*
X208242248Y-91137133D01*
X208520947Y-91119676D01*
X208740659Y-91069583D01*
X208946332Y-90979107D01*
X209123249Y-90855068D01*
X209135963Y-90843305D01*
X209259655Y-90682930D01*
X209300958Y-90519999D01*
X209261808Y-90359540D01*
X209144144Y-90206580D01*
X208949902Y-90066146D01*
X208809167Y-89995190D01*
X208599317Y-89932714D01*
X208344436Y-89903038D01*
X208077809Y-89906785D01*
X207832720Y-89944582D01*
X207732574Y-89974975D01*
X207505366Y-90085558D01*
X207335316Y-90222690D01*
X207229780Y-90376768D01*
X207196113Y-90538189D01*
X205859541Y-90538189D01*
X205845878Y-90401790D01*
X205759275Y-90251291D01*
X205604537Y-90115783D01*
X205384319Y-90002912D01*
X205101278Y-89920322D01*
X205081020Y-89916233D01*
X204824259Y-89892202D01*
X204566920Y-89914950D01*
X204322725Y-89978069D01*
X204105397Y-90075149D01*
X203928659Y-90199782D01*
X203806234Y-90345557D01*
X203751844Y-90506067D01*
X203750334Y-90537733D01*
X202953631Y-90537733D01*
X202967659Y-90335836D01*
X203036951Y-90087100D01*
X203164897Y-89865025D01*
X203358996Y-89647788D01*
X203570109Y-89443077D01*
X203490888Y-89234584D01*
X203419509Y-88932847D01*
X203429924Y-88630329D01*
X203520386Y-88340022D01*
X203637886Y-88140626D01*
X203774524Y-87952752D01*
X203589895Y-87768123D01*
X203472766Y-87628527D01*
X203354505Y-87451873D01*
X203274744Y-87304574D01*
X203170184Y-86996851D01*
X203118470Y-86650016D01*
X203120461Y-86394577D01*
X203974240Y-86394577D01*
X204020016Y-86651842D01*
X204145027Y-86902134D01*
X204185403Y-86958245D01*
X204359902Y-87138193D01*
X204556873Y-87260817D01*
X204760556Y-87320390D01*
X204955191Y-87311186D01*
X205054186Y-87273946D01*
X205260492Y-87120299D01*
X205413416Y-86909786D01*
X205504576Y-86657259D01*
X205527404Y-86435443D01*
X205485943Y-86151986D01*
X205364519Y-85895818D01*
X205209449Y-85710834D01*
X205009166Y-85562942D01*
X204802800Y-85497802D01*
X204596348Y-85514363D01*
X204395811Y-85611576D01*
X204207186Y-85788392D01*
X204122860Y-85900904D01*
X204008315Y-86140784D01*
X203974240Y-86394577D01*
X203120461Y-86394577D01*
X203121258Y-86292395D01*
X203180203Y-85952315D01*
X203193088Y-85907525D01*
X203329435Y-85569361D01*
X203519472Y-85258405D01*
X203750399Y-84990589D01*
X204009411Y-84781845D01*
X204168485Y-84693647D01*
X204231455Y-84666528D01*
X204296376Y-84645434D01*
X204374384Y-84629610D01*
X204476614Y-84618305D01*
X204614201Y-84610765D01*
X204798281Y-84606239D01*
X205039988Y-84603974D01*
X205350458Y-84603216D01*
X205507167Y-84603167D01*
X206650167Y-84603167D01*
X206662331Y-84968978D01*
X206662579Y-85184938D01*
X206641736Y-85330273D01*
X206592915Y-85417827D01*
X206509231Y-85460442D01*
X206393143Y-85471000D01*
X206313879Y-85471868D01*
X206270310Y-85485924D01*
X206258064Y-85530348D01*
X206272769Y-85622318D01*
X206310054Y-85779013D01*
X206312347Y-85788500D01*
X206358860Y-86079708D01*
X206371488Y-86401576D01*
X206350306Y-86715186D01*
X206310107Y-86930020D01*
X206205204Y-87235759D01*
X206056479Y-87500467D01*
X205856130Y-87731206D01*
X205596359Y-87935037D01*
X205269365Y-88119022D01*
X204867348Y-88290222D01*
X204766541Y-88327420D01*
X204580857Y-88399046D01*
X204460100Y-88459324D01*
X204387285Y-88518312D01*
X204351155Y-88573355D01*
X204311911Y-88688420D01*
X204320312Y-88782780D01*
X204383129Y-88860797D01*
X204507132Y-88926839D01*
X204699092Y-88985268D01*
X204965780Y-89040450D01*
X205115213Y-89065912D01*
X205479147Y-89131808D01*
X205771192Y-89200397D01*
X206004127Y-89275096D01*
X206167633Y-89347194D01*
X206265797Y-89416719D01*
X206379588Y-89523322D01*
X206482827Y-89639627D01*
X206549339Y-89738259D01*
X206555815Y-89753148D01*
X206589317Y-89771252D01*
X206657465Y-89723055D01*
X206698294Y-89682058D01*
X206802478Y-89580748D01*
X206903030Y-89496161D01*
X206918053Y-89485259D01*
X206980555Y-89435369D01*
X206992984Y-89387172D01*
X206959722Y-89306777D01*
X206944883Y-89277873D01*
X206906732Y-89179133D01*
X206888464Y-89056058D01*
X206887385Y-88884151D01*
X206891403Y-88791617D01*
X206905398Y-88604047D01*
X206930584Y-88466246D01*
X206977047Y-88343327D01*
X207054873Y-88200400D01*
X207069408Y-88175863D01*
X207140818Y-88045338D01*
X207183408Y-87945696D01*
X207189445Y-87895613D01*
X207186352Y-87893395D01*
X207117956Y-87840967D01*
X207026943Y-87732397D01*
X206926750Y-87588150D01*
X206830816Y-87428691D01*
X206752578Y-87274482D01*
X206712914Y-87172406D01*
X206620646Y-86758799D01*
X206601624Y-86364038D01*
X207411776Y-86364038D01*
X207436397Y-86606860D01*
X207505273Y-86804500D01*
X207617259Y-86972973D01*
X207759601Y-87128617D01*
X207907248Y-87246201D01*
X207983667Y-87286320D01*
X208186105Y-87329850D01*
X208394934Y-87313643D01*
X208574846Y-87240598D01*
X208579649Y-87237409D01*
X208768152Y-87062401D01*
X208899456Y-86840935D01*
X208970748Y-86591335D01*
X208979212Y-86331922D01*
X208922035Y-86081017D01*
X208796400Y-85856943D01*
X208792483Y-85852000D01*
X208602888Y-85669623D01*
X208390415Y-85556793D01*
X208168655Y-85512935D01*
X207951200Y-85537472D01*
X207751641Y-85629829D01*
X207583567Y-85789430D01*
X207509108Y-85906358D01*
X207436061Y-86119119D01*
X207411776Y-86364038D01*
X206601624Y-86364038D01*
X206601397Y-86359337D01*
X206651117Y-85981760D01*
X206765758Y-85633806D01*
X206941269Y-85323213D01*
X207173600Y-85057718D01*
X207458703Y-84845060D01*
X207792527Y-84692977D01*
X208044358Y-84628282D01*
X208166687Y-84613665D01*
X208355290Y-84600947D01*
X208591779Y-84590908D01*
X208857770Y-84584332D01*
X209132041Y-84582000D01*
X209442127Y-84582489D01*
X209442127Y-84582489D01*
G37*
X209442127Y-84582489D02*
X209677765Y-84587171D01*
X209849172Y-84600863D01*
X209966565Y-84628384D01*
X210040160Y-84674553D01*
X210080174Y-84744189D01*
X210096823Y-84842111D01*
X210100326Y-84973137D01*
X210100334Y-85038702D01*
X210092369Y-85237694D01*
X210063294Y-85366601D01*
X210005337Y-85438944D01*
X209910727Y-85468248D01*
X209851900Y-85471000D01*
X209742745Y-85476028D01*
X209675920Y-85488470D01*
X209670120Y-85491991D01*
X209667066Y-85540517D01*
X209677208Y-85651499D01*
X209698424Y-85804127D01*
X209707884Y-85862408D01*
X209738829Y-86132500D01*
X209748591Y-86427242D01*
X209738205Y-86720515D01*
X209708702Y-86986199D01*
X209661116Y-87198177D01*
X209654244Y-87218753D01*
X209550516Y-87421523D01*
X209387841Y-87630239D01*
X209187061Y-87822526D01*
X208969016Y-87976007D01*
X208927812Y-87998696D01*
X208763965Y-88075952D01*
X208559945Y-88160043D01*
X208356867Y-88234136D01*
X208335153Y-88241346D01*
X208080697Y-88335196D01*
X207905781Y-88426537D01*
X207805674Y-88521031D01*
X207775643Y-88624339D01*
X207810958Y-88742123D01*
X207856121Y-88814567D01*
X207933549Y-88897094D01*
X208045046Y-88966830D01*
X208202546Y-89028210D01*
X208417983Y-89085672D01*
X208703292Y-89143653D01*
X208777358Y-89157049D01*
X209131085Y-89230729D01*
X209412310Y-89316349D01*
X209633055Y-89420924D01*
X209805343Y-89551471D01*
X209941194Y-89715004D01*
X210041604Y-89894833D01*
X210126082Y-90162478D01*
X210149838Y-90461848D01*
X210113386Y-90766201D01*
X210019527Y-91043985D01*
X209844209Y-91344823D01*
X209628912Y-91584015D01*
X209367356Y-91764858D01*
X209053257Y-91890650D01*
X208680334Y-91964687D01*
X208242305Y-91990267D01*
X208216500Y-91990333D01*
X207824166Y-91973944D01*
X207493364Y-91920772D01*
X207206751Y-91824808D01*
X206946984Y-91680042D01*
X206696718Y-91480467D01*
X206667805Y-91453769D01*
X206472538Y-91271120D01*
X206301225Y-91474287D01*
X206062989Y-91694047D01*
X205765458Y-91866638D01*
X205422114Y-91988159D01*
X205046436Y-92054714D01*
X204651904Y-92062402D01*
X204375317Y-92031278D01*
X203967430Y-91933217D01*
X203622574Y-91787985D01*
X203343981Y-91597586D01*
X203134885Y-91364021D01*
X203045604Y-91207167D01*
X202991754Y-91071227D01*
X202961128Y-90930749D01*
X202948284Y-90754256D01*
X202946827Y-90635667D01*
X202953631Y-90537733D01*
X203750334Y-90537733D01*
X203786796Y-90653659D01*
X203884222Y-90783168D01*
X204024671Y-90909146D01*
X204190199Y-91014479D01*
X204301250Y-91063238D01*
X204585571Y-91127244D01*
X204897575Y-91135634D01*
X205204638Y-91090170D01*
X205457811Y-91000790D01*
X205670312Y-90866780D01*
X205804052Y-90717179D01*
X205861689Y-90559634D01*
X205859541Y-90538189D01*
X207196113Y-90538189D01*
X207217907Y-90646945D01*
X207321773Y-90807607D01*
X207491675Y-90941268D01*
X207712077Y-91043618D01*
X207967446Y-91110343D01*
X208242248Y-91137133D01*
X208520947Y-91119676D01*
X208740659Y-91069583D01*
X208946332Y-90979107D01*
X209123249Y-90855068D01*
X209135963Y-90843305D01*
X209259655Y-90682930D01*
X209300958Y-90519999D01*
X209261808Y-90359540D01*
X209144144Y-90206580D01*
X208949902Y-90066146D01*
X208809167Y-89995190D01*
X208599317Y-89932714D01*
X208344436Y-89903038D01*
X208077809Y-89906785D01*
X207832720Y-89944582D01*
X207732574Y-89974975D01*
X207505366Y-90085558D01*
X207335316Y-90222690D01*
X207229780Y-90376768D01*
X207196113Y-90538189D01*
X205859541Y-90538189D01*
X205845878Y-90401790D01*
X205759275Y-90251291D01*
X205604537Y-90115783D01*
X205384319Y-90002912D01*
X205101278Y-89920322D01*
X205081020Y-89916233D01*
X204824259Y-89892202D01*
X204566920Y-89914950D01*
X204322725Y-89978069D01*
X204105397Y-90075149D01*
X203928659Y-90199782D01*
X203806234Y-90345557D01*
X203751844Y-90506067D01*
X203750334Y-90537733D01*
X202953631Y-90537733D01*
X202967659Y-90335836D01*
X203036951Y-90087100D01*
X203164897Y-89865025D01*
X203358996Y-89647788D01*
X203570109Y-89443077D01*
X203490888Y-89234584D01*
X203419509Y-88932847D01*
X203429924Y-88630329D01*
X203520386Y-88340022D01*
X203637886Y-88140626D01*
X203774524Y-87952752D01*
X203589895Y-87768123D01*
X203472766Y-87628527D01*
X203354505Y-87451873D01*
X203274744Y-87304574D01*
X203170184Y-86996851D01*
X203118470Y-86650016D01*
X203120461Y-86394577D01*
X203974240Y-86394577D01*
X204020016Y-86651842D01*
X204145027Y-86902134D01*
X204185403Y-86958245D01*
X204359902Y-87138193D01*
X204556873Y-87260817D01*
X204760556Y-87320390D01*
X204955191Y-87311186D01*
X205054186Y-87273946D01*
X205260492Y-87120299D01*
X205413416Y-86909786D01*
X205504576Y-86657259D01*
X205527404Y-86435443D01*
X205485943Y-86151986D01*
X205364519Y-85895818D01*
X205209449Y-85710834D01*
X205009166Y-85562942D01*
X204802800Y-85497802D01*
X204596348Y-85514363D01*
X204395811Y-85611576D01*
X204207186Y-85788392D01*
X204122860Y-85900904D01*
X204008315Y-86140784D01*
X203974240Y-86394577D01*
X203120461Y-86394577D01*
X203121258Y-86292395D01*
X203180203Y-85952315D01*
X203193088Y-85907525D01*
X203329435Y-85569361D01*
X203519472Y-85258405D01*
X203750399Y-84990589D01*
X204009411Y-84781845D01*
X204168485Y-84693647D01*
X204231455Y-84666528D01*
X204296376Y-84645434D01*
X204374384Y-84629610D01*
X204476614Y-84618305D01*
X204614201Y-84610765D01*
X204798281Y-84606239D01*
X205039988Y-84603974D01*
X205350458Y-84603216D01*
X205507167Y-84603167D01*
X206650167Y-84603167D01*
X206662331Y-84968978D01*
X206662579Y-85184938D01*
X206641736Y-85330273D01*
X206592915Y-85417827D01*
X206509231Y-85460442D01*
X206393143Y-85471000D01*
X206313879Y-85471868D01*
X206270310Y-85485924D01*
X206258064Y-85530348D01*
X206272769Y-85622318D01*
X206310054Y-85779013D01*
X206312347Y-85788500D01*
X206358860Y-86079708D01*
X206371488Y-86401576D01*
X206350306Y-86715186D01*
X206310107Y-86930020D01*
X206205204Y-87235759D01*
X206056479Y-87500467D01*
X205856130Y-87731206D01*
X205596359Y-87935037D01*
X205269365Y-88119022D01*
X204867348Y-88290222D01*
X204766541Y-88327420D01*
X204580857Y-88399046D01*
X204460100Y-88459324D01*
X204387285Y-88518312D01*
X204351155Y-88573355D01*
X204311911Y-88688420D01*
X204320312Y-88782780D01*
X204383129Y-88860797D01*
X204507132Y-88926839D01*
X204699092Y-88985268D01*
X204965780Y-89040450D01*
X205115213Y-89065912D01*
X205479147Y-89131808D01*
X205771192Y-89200397D01*
X206004127Y-89275096D01*
X206167633Y-89347194D01*
X206265797Y-89416719D01*
X206379588Y-89523322D01*
X206482827Y-89639627D01*
X206549339Y-89738259D01*
X206555815Y-89753148D01*
X206589317Y-89771252D01*
X206657465Y-89723055D01*
X206698294Y-89682058D01*
X206802478Y-89580748D01*
X206903030Y-89496161D01*
X206918053Y-89485259D01*
X206980555Y-89435369D01*
X206992984Y-89387172D01*
X206959722Y-89306777D01*
X206944883Y-89277873D01*
X206906732Y-89179133D01*
X206888464Y-89056058D01*
X206887385Y-88884151D01*
X206891403Y-88791617D01*
X206905398Y-88604047D01*
X206930584Y-88466246D01*
X206977047Y-88343327D01*
X207054873Y-88200400D01*
X207069408Y-88175863D01*
X207140818Y-88045338D01*
X207183408Y-87945696D01*
X207189445Y-87895613D01*
X207186352Y-87893395D01*
X207117956Y-87840967D01*
X207026943Y-87732397D01*
X206926750Y-87588150D01*
X206830816Y-87428691D01*
X206752578Y-87274482D01*
X206712914Y-87172406D01*
X206620646Y-86758799D01*
X206601624Y-86364038D01*
X207411776Y-86364038D01*
X207436397Y-86606860D01*
X207505273Y-86804500D01*
X207617259Y-86972973D01*
X207759601Y-87128617D01*
X207907248Y-87246201D01*
X207983667Y-87286320D01*
X208186105Y-87329850D01*
X208394934Y-87313643D01*
X208574846Y-87240598D01*
X208579649Y-87237409D01*
X208768152Y-87062401D01*
X208899456Y-86840935D01*
X208970748Y-86591335D01*
X208979212Y-86331922D01*
X208922035Y-86081017D01*
X208796400Y-85856943D01*
X208792483Y-85852000D01*
X208602888Y-85669623D01*
X208390415Y-85556793D01*
X208168655Y-85512935D01*
X207951200Y-85537472D01*
X207751641Y-85629829D01*
X207583567Y-85789430D01*
X207509108Y-85906358D01*
X207436061Y-86119119D01*
X207411776Y-86364038D01*
X206601624Y-86364038D01*
X206601397Y-86359337D01*
X206651117Y-85981760D01*
X206765758Y-85633806D01*
X206941269Y-85323213D01*
X207173600Y-85057718D01*
X207458703Y-84845060D01*
X207792527Y-84692977D01*
X208044358Y-84628282D01*
X208166687Y-84613665D01*
X208355290Y-84600947D01*
X208591779Y-84590908D01*
X208857770Y-84584332D01*
X209132041Y-84582000D01*
X209442127Y-84582489D01*
G36*
X189217083Y-81009385D02*
G01*
X189375711Y-81018092D01*
X189496312Y-81037692D01*
X189602148Y-81071402D01*
X189672571Y-81101726D01*
X189990156Y-81288916D01*
X190300902Y-81550893D01*
X190597030Y-81877780D01*
X190870763Y-82259703D01*
X191114325Y-82686786D01*
X191319936Y-83149154D01*
X191351739Y-83233788D01*
X191419387Y-83432597D01*
X191490358Y-83664399D01*
X191559858Y-83910715D01*
X191623093Y-84153063D01*
X191675270Y-84372963D01*
X191711596Y-84551936D01*
X191727277Y-84671502D01*
X191727553Y-84682686D01*
X191710174Y-84764643D01*
X191651693Y-84865119D01*
X191542813Y-84998167D01*
X191457231Y-85091214D01*
X191214531Y-85388925D01*
X191024715Y-85715993D01*
X190883873Y-86083387D01*
X190788091Y-86502071D01*
X190733461Y-86983013D01*
X190724279Y-87146233D01*
X190715654Y-87425306D01*
X190720582Y-87653781D01*
X190743488Y-87855962D01*
X190788797Y-88056154D01*
X190860935Y-88278662D01*
X190964328Y-88547791D01*
X190991945Y-88616253D01*
X191065921Y-88806948D01*
X191125872Y-88977292D01*
X191165150Y-89107330D01*
X191177334Y-89172710D01*
X191154050Y-89346480D01*
X191089178Y-89571466D01*
X190990186Y-89829875D01*
X190864543Y-90103917D01*
X190719718Y-90375800D01*
X190572096Y-90614500D01*
X190330630Y-90925188D01*
X190027215Y-91238508D01*
X189681602Y-91538643D01*
X189313538Y-91809772D01*
X188942774Y-92036077D01*
X188591852Y-92200663D01*
X188204695Y-92320183D01*
X187770534Y-92403916D01*
X187320673Y-92448278D01*
X186886413Y-92449685D01*
X186626500Y-92425751D01*
X186179976Y-92323593D01*
X185740884Y-92146388D01*
X185324671Y-91903374D01*
X184946781Y-91603790D01*
X184622660Y-91256875D01*
X184579706Y-91201422D01*
X184406889Y-90944478D01*
X184230249Y-90632915D01*
X184063871Y-90294867D01*
X183921842Y-89958467D01*
X183905636Y-89912161D01*
X185246371Y-89912161D01*
X185361169Y-90157497D01*
X185501477Y-90388763D01*
X185701961Y-90627225D01*
X185942442Y-90853400D01*
X186202743Y-91047808D01*
X186402509Y-91162867D01*
X186866373Y-91348574D01*
X187343283Y-91456222D01*
X187822948Y-91484606D01*
X188295076Y-91432521D01*
X188434464Y-91400830D01*
X188886626Y-91245792D01*
X189304449Y-91024385D01*
X189677607Y-90744701D01*
X189995777Y-90414835D01*
X190248632Y-90042880D01*
X190305398Y-89934179D01*
X190470871Y-89502351D01*
X190562106Y-89043598D01*
X190579535Y-88570918D01*
X190523584Y-88097306D01*
X190394684Y-87635759D01*
X190216572Y-87241269D01*
X190073967Y-87042444D01*
X189852534Y-86823167D01*
X189555077Y-86585447D01*
X189184398Y-86331294D01*
X188743303Y-86062720D01*
X188234595Y-85781735D01*
X188037830Y-85679153D01*
X187742136Y-85521236D01*
X187514018Y-85383823D01*
X187341860Y-85257459D01*
X187214049Y-85132691D01*
X187118970Y-85000062D01*
X187058746Y-84882117D01*
X186984933Y-84639069D01*
X186951428Y-84352764D01*
X186959801Y-84055231D01*
X187005654Y-83799807D01*
X187121665Y-83517823D01*
X187296025Y-83287161D01*
X187517031Y-83111589D01*
X187772980Y-82994878D01*
X188052169Y-82940797D01*
X188342895Y-82953117D01*
X188633454Y-83035606D01*
X188906071Y-83187661D01*
X189135468Y-83351928D01*
X189415729Y-82961547D01*
X189695990Y-82571167D01*
X189474057Y-82363507D01*
X189162793Y-82127139D01*
X188818577Y-81963074D01*
X188451166Y-81870507D01*
X188070315Y-81848634D01*
X187685779Y-81896649D01*
X187307314Y-82013750D01*
X186944676Y-82199131D01*
X186607621Y-82451989D01*
X186442343Y-82613457D01*
X186189716Y-82940780D01*
X185986565Y-83321170D01*
X185837728Y-83736594D01*
X185748044Y-84169019D01*
X185722352Y-84600411D01*
X185765491Y-85012739D01*
X185780279Y-85080749D01*
X185856652Y-85342047D01*
X185959978Y-85575428D01*
X186098012Y-85788334D01*
X186278509Y-85988209D01*
X186509223Y-86182495D01*
X186797908Y-86378634D01*
X187152320Y-86584069D01*
X187575762Y-86804023D01*
X187802630Y-86919679D01*
X188027020Y-87038326D01*
X188226253Y-87147699D01*
X188377653Y-87235533D01*
X188405509Y-87252776D01*
X188675318Y-87453088D01*
X188919607Y-87691079D01*
X189117826Y-87944730D01*
X189221708Y-88127305D01*
X189275981Y-88253252D01*
X189309734Y-88367223D01*
X189327532Y-88496258D01*
X189333936Y-88667398D01*
X189334237Y-88794167D01*
X189318855Y-89098972D01*
X189269704Y-89344471D01*
X189178409Y-89552126D01*
X189036596Y-89743398D01*
X188915642Y-89866951D01*
X188678098Y-90063749D01*
X188434689Y-90201145D01*
X188153054Y-90295899D01*
X188035189Y-90322985D01*
X187646413Y-90362597D01*
X187266185Y-90321278D01*
X186903579Y-90202761D01*
X186567669Y-90010779D01*
X186267530Y-89749067D01*
X186077088Y-89517335D01*
X185982368Y-89388067D01*
X185906277Y-89290660D01*
X185861804Y-89241536D01*
X185856668Y-89238667D01*
X185818786Y-89268693D01*
X185738870Y-89349628D01*
X185629581Y-89467751D01*
X185503585Y-89609344D01*
X185373542Y-89760687D01*
X185360243Y-89776497D01*
X185246371Y-89912161D01*
X183905636Y-89912161D01*
X183839209Y-89722371D01*
X183666779Y-89028063D01*
X183577395Y-88321469D01*
X183570772Y-87605288D01*
X183646627Y-86882218D01*
X183804673Y-86154958D01*
X184044628Y-85426207D01*
X184366206Y-84698662D01*
X184369388Y-84692292D01*
X184685456Y-84104777D01*
X185017724Y-83579867D01*
X185381554Y-83095503D01*
X185792308Y-82629626D01*
X185842540Y-82576975D01*
X186324399Y-82125903D01*
X186833865Y-81750122D01*
X187383768Y-81441557D01*
X187986937Y-81192132D01*
X188108167Y-81150910D01*
X188319100Y-81085073D01*
X188490560Y-81043393D01*
X188657080Y-81020332D01*
X188853197Y-81010353D01*
X188997167Y-81008355D01*
X189217083Y-81009385D01*
X189217083Y-81009385D01*
G37*
X189217083Y-81009385D02*
X189375711Y-81018092D01*
X189496312Y-81037692D01*
X189602148Y-81071402D01*
X189672571Y-81101726D01*
X189990156Y-81288916D01*
X190300902Y-81550893D01*
X190597030Y-81877780D01*
X190870763Y-82259703D01*
X191114325Y-82686786D01*
X191319936Y-83149154D01*
X191351739Y-83233788D01*
X191419387Y-83432597D01*
X191490358Y-83664399D01*
X191559858Y-83910715D01*
X191623093Y-84153063D01*
X191675270Y-84372963D01*
X191711596Y-84551936D01*
X191727277Y-84671502D01*
X191727553Y-84682686D01*
X191710174Y-84764643D01*
X191651693Y-84865119D01*
X191542813Y-84998167D01*
X191457231Y-85091214D01*
X191214531Y-85388925D01*
X191024715Y-85715993D01*
X190883873Y-86083387D01*
X190788091Y-86502071D01*
X190733461Y-86983013D01*
X190724279Y-87146233D01*
X190715654Y-87425306D01*
X190720582Y-87653781D01*
X190743488Y-87855962D01*
X190788797Y-88056154D01*
X190860935Y-88278662D01*
X190964328Y-88547791D01*
X190991945Y-88616253D01*
X191065921Y-88806948D01*
X191125872Y-88977292D01*
X191165150Y-89107330D01*
X191177334Y-89172710D01*
X191154050Y-89346480D01*
X191089178Y-89571466D01*
X190990186Y-89829875D01*
X190864543Y-90103917D01*
X190719718Y-90375800D01*
X190572096Y-90614500D01*
X190330630Y-90925188D01*
X190027215Y-91238508D01*
X189681602Y-91538643D01*
X189313538Y-91809772D01*
X188942774Y-92036077D01*
X188591852Y-92200663D01*
X188204695Y-92320183D01*
X187770534Y-92403916D01*
X187320673Y-92448278D01*
X186886413Y-92449685D01*
X186626500Y-92425751D01*
X186179976Y-92323593D01*
X185740884Y-92146388D01*
X185324671Y-91903374D01*
X184946781Y-91603790D01*
X184622660Y-91256875D01*
X184579706Y-91201422D01*
X184406889Y-90944478D01*
X184230249Y-90632915D01*
X184063871Y-90294867D01*
X183921842Y-89958467D01*
X183905636Y-89912161D01*
X185246371Y-89912161D01*
X185361169Y-90157497D01*
X185501477Y-90388763D01*
X185701961Y-90627225D01*
X185942442Y-90853400D01*
X186202743Y-91047808D01*
X186402509Y-91162867D01*
X186866373Y-91348574D01*
X187343283Y-91456222D01*
X187822948Y-91484606D01*
X188295076Y-91432521D01*
X188434464Y-91400830D01*
X188886626Y-91245792D01*
X189304449Y-91024385D01*
X189677607Y-90744701D01*
X189995777Y-90414835D01*
X190248632Y-90042880D01*
X190305398Y-89934179D01*
X190470871Y-89502351D01*
X190562106Y-89043598D01*
X190579535Y-88570918D01*
X190523584Y-88097306D01*
X190394684Y-87635759D01*
X190216572Y-87241269D01*
X190073967Y-87042444D01*
X189852534Y-86823167D01*
X189555077Y-86585447D01*
X189184398Y-86331294D01*
X188743303Y-86062720D01*
X188234595Y-85781735D01*
X188037830Y-85679153D01*
X187742136Y-85521236D01*
X187514018Y-85383823D01*
X187341860Y-85257459D01*
X187214049Y-85132691D01*
X187118970Y-85000062D01*
X187058746Y-84882117D01*
X186984933Y-84639069D01*
X186951428Y-84352764D01*
X186959801Y-84055231D01*
X187005654Y-83799807D01*
X187121665Y-83517823D01*
X187296025Y-83287161D01*
X187517031Y-83111589D01*
X187772980Y-82994878D01*
X188052169Y-82940797D01*
X188342895Y-82953117D01*
X188633454Y-83035606D01*
X188906071Y-83187661D01*
X189135468Y-83351928D01*
X189415729Y-82961547D01*
X189695990Y-82571167D01*
X189474057Y-82363507D01*
X189162793Y-82127139D01*
X188818577Y-81963074D01*
X188451166Y-81870507D01*
X188070315Y-81848634D01*
X187685779Y-81896649D01*
X187307314Y-82013750D01*
X186944676Y-82199131D01*
X186607621Y-82451989D01*
X186442343Y-82613457D01*
X186189716Y-82940780D01*
X185986565Y-83321170D01*
X185837728Y-83736594D01*
X185748044Y-84169019D01*
X185722352Y-84600411D01*
X185765491Y-85012739D01*
X185780279Y-85080749D01*
X185856652Y-85342047D01*
X185959978Y-85575428D01*
X186098012Y-85788334D01*
X186278509Y-85988209D01*
X186509223Y-86182495D01*
X186797908Y-86378634D01*
X187152320Y-86584069D01*
X187575762Y-86804023D01*
X187802630Y-86919679D01*
X188027020Y-87038326D01*
X188226253Y-87147699D01*
X188377653Y-87235533D01*
X188405509Y-87252776D01*
X188675318Y-87453088D01*
X188919607Y-87691079D01*
X189117826Y-87944730D01*
X189221708Y-88127305D01*
X189275981Y-88253252D01*
X189309734Y-88367223D01*
X189327532Y-88496258D01*
X189333936Y-88667398D01*
X189334237Y-88794167D01*
X189318855Y-89098972D01*
X189269704Y-89344471D01*
X189178409Y-89552126D01*
X189036596Y-89743398D01*
X188915642Y-89866951D01*
X188678098Y-90063749D01*
X188434689Y-90201145D01*
X188153054Y-90295899D01*
X188035189Y-90322985D01*
X187646413Y-90362597D01*
X187266185Y-90321278D01*
X186903579Y-90202761D01*
X186567669Y-90010779D01*
X186267530Y-89749067D01*
X186077088Y-89517335D01*
X185982368Y-89388067D01*
X185906277Y-89290660D01*
X185861804Y-89241536D01*
X185856668Y-89238667D01*
X185818786Y-89268693D01*
X185738870Y-89349628D01*
X185629581Y-89467751D01*
X185503585Y-89609344D01*
X185373542Y-89760687D01*
X185360243Y-89776497D01*
X185246371Y-89912161D01*
X183905636Y-89912161D01*
X183839209Y-89722371D01*
X183666779Y-89028063D01*
X183577395Y-88321469D01*
X183570772Y-87605288D01*
X183646627Y-86882218D01*
X183804673Y-86154958D01*
X184044628Y-85426207D01*
X184366206Y-84698662D01*
X184369388Y-84692292D01*
X184685456Y-84104777D01*
X185017724Y-83579867D01*
X185381554Y-83095503D01*
X185792308Y-82629626D01*
X185842540Y-82576975D01*
X186324399Y-82125903D01*
X186833865Y-81750122D01*
X187383768Y-81441557D01*
X187986937Y-81192132D01*
X188108167Y-81150910D01*
X188319100Y-81085073D01*
X188490560Y-81043393D01*
X188657080Y-81020332D01*
X188853197Y-81010353D01*
X188997167Y-81008355D01*
X189217083Y-81009385D01*
D17*
X118486556Y-102724689D02*
X118420235Y-102712995D01*
X118299288Y-102623286D01*
X118244662Y-102545272D01*
X118201730Y-102400937D01*
X118225118Y-102268296D01*
X118275819Y-102174663D01*
X118404535Y-102026403D01*
X118521557Y-101944463D01*
X118704899Y-101874218D01*
X118810227Y-101858599D01*
X118942867Y-101881987D01*
X119063814Y-101971695D01*
X119118441Y-102049710D01*
X119161373Y-102194045D01*
X119149679Y-102260365D01*
X118927491Y-103520453D02*
X118654360Y-103130380D01*
X119473512Y-102556804D01*
X119419128Y-104222583D02*
X119091370Y-103754496D01*
X119255249Y-103988540D02*
X120074401Y-103414963D01*
X119902753Y-103418888D01*
X119770112Y-103395500D01*
X119676479Y-103344799D01*
X120729917Y-104351137D02*
X120620665Y-104195108D01*
X120527031Y-104144407D01*
X120460711Y-104132713D01*
X120289062Y-104136638D01*
X120105720Y-104206883D01*
X119793662Y-104425388D01*
X119742961Y-104519022D01*
X119731267Y-104585342D01*
X119746886Y-104690670D01*
X119856139Y-104846699D01*
X119949772Y-104897400D01*
X120016093Y-104909094D01*
X120121420Y-104893475D01*
X120316457Y-104756909D01*
X120367158Y-104663276D01*
X120378852Y-104596956D01*
X120363233Y-104491628D01*
X120253980Y-104335599D01*
X120160347Y-104284898D01*
X120094026Y-104273204D01*
X119988699Y-104288823D01*
X123537294Y-100586264D02*
X123603615Y-100597958D01*
X123697248Y-100648659D01*
X123833814Y-100843695D01*
X123849433Y-100949023D01*
X123837739Y-101015343D01*
X123787038Y-101108977D01*
X123709023Y-101163603D01*
X123564689Y-101206536D01*
X122768844Y-101066207D01*
X123123915Y-101573301D01*
X124083558Y-101366409D02*
X124149878Y-101378103D01*
X124243512Y-101428804D01*
X124380077Y-101623840D01*
X124395697Y-101729168D01*
X124384002Y-101795488D01*
X124333301Y-101889122D01*
X124255287Y-101943748D01*
X124110952Y-101986680D01*
X123315107Y-101846351D01*
X123670178Y-102353446D01*
X124462098Y-102322126D02*
X123642946Y-102895703D01*
X124306150Y-103012644D02*
X124255449Y-103106277D01*
X124271068Y-103211605D01*
X124033018Y-102622571D02*
X123982317Y-102716205D01*
X123997936Y-102821532D01*
X124107189Y-102977561D01*
X124200822Y-103028263D01*
X124306150Y-103012644D01*
X124735230Y-102712199D01*
X125137158Y-103535276D02*
X124945966Y-103262225D01*
X124516886Y-103562670D02*
X125336038Y-102989094D01*
X125609170Y-103379166D01*
X213928571Y-78534761D02*
X214071428Y-78582380D01*
X214309523Y-78582380D01*
X214404761Y-78534761D01*
X214452380Y-78487142D01*
X214500000Y-78391904D01*
X214500000Y-78296666D01*
X214452380Y-78201428D01*
X214404761Y-78153809D01*
X214309523Y-78106190D01*
X214119047Y-78058571D01*
X214023809Y-78010952D01*
X213976190Y-77963333D01*
X213928571Y-77868095D01*
X213928571Y-77772857D01*
X213976190Y-77677619D01*
X214023809Y-77630000D01*
X214119047Y-77582380D01*
X214357142Y-77582380D01*
X214500000Y-77630000D01*
X214785714Y-77915714D02*
X215166666Y-77915714D01*
X214928571Y-77582380D02*
X214928571Y-78439523D01*
X214976190Y-78534761D01*
X215071428Y-78582380D01*
X215166666Y-78582380D01*
X215404761Y-77915714D02*
X215642857Y-78582380D01*
X215880952Y-77915714D02*
X215642857Y-78582380D01*
X215547619Y-78820476D01*
X215500000Y-78868095D01*
X215404761Y-78915714D01*
X216404761Y-78582380D02*
X216309523Y-78534761D01*
X216261904Y-78439523D01*
X216261904Y-77582380D01*
X217214285Y-77915714D02*
X217214285Y-78582380D01*
X216785714Y-77915714D02*
X216785714Y-78439523D01*
X216833333Y-78534761D01*
X216928571Y-78582380D01*
X217071428Y-78582380D01*
X217166666Y-78534761D01*
X217214285Y-78487142D01*
X217642857Y-78534761D02*
X217738095Y-78582380D01*
X217928571Y-78582380D01*
X218023809Y-78534761D01*
X218071428Y-78439523D01*
X218071428Y-78391904D01*
X218023809Y-78296666D01*
X217928571Y-78249047D01*
X217785714Y-78249047D01*
X217690476Y-78201428D01*
X217642857Y-78106190D01*
X217642857Y-78058571D01*
X217690476Y-77963333D01*
X217785714Y-77915714D01*
X217928571Y-77915714D01*
X218023809Y-77963333D01*
X95021904Y-81762380D02*
X95021904Y-80762380D01*
X95260000Y-80762380D01*
X95402857Y-80810000D01*
X95498095Y-80905238D01*
X95545714Y-81000476D01*
X95593333Y-81190952D01*
X95593333Y-81333809D01*
X95545714Y-81524285D01*
X95498095Y-81619523D01*
X95402857Y-81714761D01*
X95260000Y-81762380D01*
X95021904Y-81762380D01*
X96545714Y-81762380D02*
X95974285Y-81762380D01*
X96260000Y-81762380D02*
X96260000Y-80762380D01*
X96164761Y-80905238D01*
X96069523Y-81000476D01*
X95974285Y-81048095D01*
X97987142Y-81752380D02*
X97415714Y-81752380D01*
X97701428Y-81752380D02*
X97701428Y-80752380D01*
X97606190Y-80895238D01*
X97510952Y-80990476D01*
X97415714Y-81038095D01*
X98415714Y-81752380D02*
X98415714Y-80752380D01*
X98987142Y-81752380D01*
X98987142Y-80752380D01*
X99891904Y-81085714D02*
X99891904Y-81752380D01*
X99653809Y-80704761D02*
X99415714Y-81419047D01*
X100034761Y-81419047D01*
X100939523Y-81752380D02*
X100368095Y-81752380D01*
X100653809Y-81752380D02*
X100653809Y-80752380D01*
X100558571Y-80895238D01*
X100463333Y-80990476D01*
X100368095Y-81038095D01*
X101796666Y-81085714D02*
X101796666Y-81752380D01*
X101558571Y-80704761D02*
X101320476Y-81419047D01*
X101939523Y-81419047D01*
X102463333Y-81180952D02*
X102368095Y-81133333D01*
X102320476Y-81085714D01*
X102272857Y-80990476D01*
X102272857Y-80942857D01*
X102320476Y-80847619D01*
X102368095Y-80800000D01*
X102463333Y-80752380D01*
X102653809Y-80752380D01*
X102749047Y-80800000D01*
X102796666Y-80847619D01*
X102844285Y-80942857D01*
X102844285Y-80990476D01*
X102796666Y-81085714D01*
X102749047Y-81133333D01*
X102653809Y-81180952D01*
X102463333Y-81180952D01*
X102368095Y-81228571D01*
X102320476Y-81276190D01*
X102272857Y-81371428D01*
X102272857Y-81561904D01*
X102320476Y-81657142D01*
X102368095Y-81704761D01*
X102463333Y-81752380D01*
X102653809Y-81752380D01*
X102749047Y-81704761D01*
X102796666Y-81657142D01*
X102844285Y-81561904D01*
X102844285Y-81371428D01*
X102796666Y-81276190D01*
X102749047Y-81228571D01*
X102653809Y-81180952D01*
X101052489Y-103970532D02*
X101759595Y-103263425D01*
X101927954Y-103431784D01*
X101995298Y-103566471D01*
X101995298Y-103701158D01*
X101961626Y-103802173D01*
X101860611Y-103970532D01*
X101759595Y-104071547D01*
X101591237Y-104172563D01*
X101490221Y-104206234D01*
X101355534Y-104206234D01*
X101220847Y-104138891D01*
X101052489Y-103970532D01*
X102365687Y-104004204D02*
X102433031Y-104004204D01*
X102534046Y-104037875D01*
X102702405Y-104206234D01*
X102736076Y-104307250D01*
X102736076Y-104374593D01*
X102702405Y-104475608D01*
X102635061Y-104542952D01*
X102500374Y-104610295D01*
X101692252Y-104610295D01*
X102129985Y-105048028D01*
X83081904Y-74747380D02*
X83081904Y-73747380D01*
X83320000Y-73747380D01*
X83462857Y-73795000D01*
X83558095Y-73890238D01*
X83605714Y-73985476D01*
X83653333Y-74175952D01*
X83653333Y-74318809D01*
X83605714Y-74509285D01*
X83558095Y-74604523D01*
X83462857Y-74699761D01*
X83320000Y-74747380D01*
X83081904Y-74747380D01*
X83986666Y-73747380D02*
X84605714Y-73747380D01*
X84272380Y-74128333D01*
X84415238Y-74128333D01*
X84510476Y-74175952D01*
X84558095Y-74223571D01*
X84605714Y-74318809D01*
X84605714Y-74556904D01*
X84558095Y-74652142D01*
X84510476Y-74699761D01*
X84415238Y-74747380D01*
X84129523Y-74747380D01*
X84034285Y-74699761D01*
X83986666Y-74652142D01*
X81417142Y-71032380D02*
X80845714Y-71032380D01*
X81131428Y-71032380D02*
X81131428Y-70032380D01*
X81036190Y-70175238D01*
X80940952Y-70270476D01*
X80845714Y-70318095D01*
X81845714Y-71032380D02*
X81845714Y-70032380D01*
X82417142Y-71032380D01*
X82417142Y-70032380D01*
X83369523Y-70032380D02*
X82893333Y-70032380D01*
X82845714Y-70508571D01*
X82893333Y-70460952D01*
X82988571Y-70413333D01*
X83226666Y-70413333D01*
X83321904Y-70460952D01*
X83369523Y-70508571D01*
X83417142Y-70603809D01*
X83417142Y-70841904D01*
X83369523Y-70937142D01*
X83321904Y-70984761D01*
X83226666Y-71032380D01*
X82988571Y-71032380D01*
X82893333Y-70984761D01*
X82845714Y-70937142D01*
X83988571Y-70460952D02*
X83893333Y-70413333D01*
X83845714Y-70365714D01*
X83798095Y-70270476D01*
X83798095Y-70222857D01*
X83845714Y-70127619D01*
X83893333Y-70080000D01*
X83988571Y-70032380D01*
X84179047Y-70032380D01*
X84274285Y-70080000D01*
X84321904Y-70127619D01*
X84369523Y-70222857D01*
X84369523Y-70270476D01*
X84321904Y-70365714D01*
X84274285Y-70413333D01*
X84179047Y-70460952D01*
X83988571Y-70460952D01*
X83893333Y-70508571D01*
X83845714Y-70556190D01*
X83798095Y-70651428D01*
X83798095Y-70841904D01*
X83845714Y-70937142D01*
X83893333Y-70984761D01*
X83988571Y-71032380D01*
X84179047Y-71032380D01*
X84274285Y-70984761D01*
X84321904Y-70937142D01*
X84369523Y-70841904D01*
X84369523Y-70651428D01*
X84321904Y-70556190D01*
X84274285Y-70508571D01*
X84179047Y-70460952D01*
X84750476Y-70127619D02*
X84798095Y-70080000D01*
X84893333Y-70032380D01*
X85131428Y-70032380D01*
X85226666Y-70080000D01*
X85274285Y-70127619D01*
X85321904Y-70222857D01*
X85321904Y-70318095D01*
X85274285Y-70460952D01*
X84702857Y-71032380D01*
X85321904Y-71032380D01*
X85702857Y-70127619D02*
X85750476Y-70080000D01*
X85845714Y-70032380D01*
X86083809Y-70032380D01*
X86179047Y-70080000D01*
X86226666Y-70127619D01*
X86274285Y-70222857D01*
X86274285Y-70318095D01*
X86226666Y-70460952D01*
X85655238Y-71032380D01*
X86274285Y-71032380D01*
X89031904Y-68682380D02*
X89031904Y-67682380D01*
X89270000Y-67682380D01*
X89412857Y-67730000D01*
X89508095Y-67825238D01*
X89555714Y-67920476D01*
X89603333Y-68110952D01*
X89603333Y-68253809D01*
X89555714Y-68444285D01*
X89508095Y-68539523D01*
X89412857Y-68634761D01*
X89270000Y-68682380D01*
X89031904Y-68682380D01*
X90460476Y-68015714D02*
X90460476Y-68682380D01*
X90222380Y-67634761D02*
X89984285Y-68349047D01*
X90603333Y-68349047D01*
X89487142Y-72011904D02*
X88915714Y-72011904D01*
X89201428Y-72011904D02*
X89201428Y-71211904D01*
X89106190Y-71326190D01*
X89010952Y-71402380D01*
X88915714Y-71440476D01*
X89915714Y-72011904D02*
X89915714Y-71211904D01*
X90487142Y-72011904D01*
X90487142Y-71211904D01*
X91439523Y-71211904D02*
X90963333Y-71211904D01*
X90915714Y-71592857D01*
X90963333Y-71554761D01*
X91058571Y-71516666D01*
X91296666Y-71516666D01*
X91391904Y-71554761D01*
X91439523Y-71592857D01*
X91487142Y-71669047D01*
X91487142Y-71859523D01*
X91439523Y-71935714D01*
X91391904Y-71973809D01*
X91296666Y-72011904D01*
X91058571Y-72011904D01*
X90963333Y-71973809D01*
X90915714Y-71935714D01*
X92058571Y-71554761D02*
X91963333Y-71516666D01*
X91915714Y-71478571D01*
X91868095Y-71402380D01*
X91868095Y-71364285D01*
X91915714Y-71288095D01*
X91963333Y-71250000D01*
X92058571Y-71211904D01*
X92249047Y-71211904D01*
X92344285Y-71250000D01*
X92391904Y-71288095D01*
X92439523Y-71364285D01*
X92439523Y-71402380D01*
X92391904Y-71478571D01*
X92344285Y-71516666D01*
X92249047Y-71554761D01*
X92058571Y-71554761D01*
X91963333Y-71592857D01*
X91915714Y-71630952D01*
X91868095Y-71707142D01*
X91868095Y-71859523D01*
X91915714Y-71935714D01*
X91963333Y-71973809D01*
X92058571Y-72011904D01*
X92249047Y-72011904D01*
X92344285Y-71973809D01*
X92391904Y-71935714D01*
X92439523Y-71859523D01*
X92439523Y-71707142D01*
X92391904Y-71630952D01*
X92344285Y-71592857D01*
X92249047Y-71554761D01*
X92820476Y-71288095D02*
X92868095Y-71250000D01*
X92963333Y-71211904D01*
X93201428Y-71211904D01*
X93296666Y-71250000D01*
X93344285Y-71288095D01*
X93391904Y-71364285D01*
X93391904Y-71440476D01*
X93344285Y-71554761D01*
X92772857Y-72011904D01*
X93391904Y-72011904D01*
X93772857Y-71288095D02*
X93820476Y-71250000D01*
X93915714Y-71211904D01*
X94153809Y-71211904D01*
X94249047Y-71250000D01*
X94296666Y-71288095D01*
X94344285Y-71364285D01*
X94344285Y-71440476D01*
X94296666Y-71554761D01*
X93725238Y-72011904D01*
X94344285Y-72011904D01*
D18*
X145493114Y-60186453D02*
X145110888Y-60454011D01*
X145493114Y-60645123D02*
X144690440Y-60645123D01*
X144690440Y-60339343D01*
X144728663Y-60262898D01*
X144766885Y-60224675D01*
X144843330Y-60186453D01*
X144957998Y-60186453D01*
X145034443Y-60224675D01*
X145072666Y-60262898D01*
X145110888Y-60339343D01*
X145110888Y-60645123D01*
X144728663Y-59422001D02*
X144690440Y-59498446D01*
X144690440Y-59613114D01*
X144728663Y-59727782D01*
X144805108Y-59804227D01*
X144881553Y-59842449D01*
X145034443Y-59880672D01*
X145149111Y-59880672D01*
X145302001Y-59842449D01*
X145378446Y-59804227D01*
X145454891Y-59727782D01*
X145493114Y-59613114D01*
X145493114Y-59536669D01*
X145454891Y-59422001D01*
X145416669Y-59383779D01*
X145149111Y-59383779D01*
X145149111Y-59536669D01*
X145072666Y-58772217D02*
X145110888Y-58657550D01*
X145149111Y-58619327D01*
X145225556Y-58581105D01*
X145340224Y-58581105D01*
X145416669Y-58619327D01*
X145454891Y-58657550D01*
X145493114Y-58733995D01*
X145493114Y-59039775D01*
X144690440Y-59039775D01*
X144690440Y-58772217D01*
X144728663Y-58695772D01*
X144766885Y-58657550D01*
X144843330Y-58619327D01*
X144919775Y-58619327D01*
X144996221Y-58657550D01*
X145034443Y-58695772D01*
X145072666Y-58772217D01*
X145072666Y-59039775D01*
X144690440Y-58084211D02*
X144690440Y-58007766D01*
X144728663Y-57931321D01*
X144766885Y-57893098D01*
X144843330Y-57854876D01*
X144996221Y-57816653D01*
X145187333Y-57816653D01*
X145340224Y-57854876D01*
X145416669Y-57893098D01*
X145454891Y-57931321D01*
X145493114Y-58007766D01*
X145493114Y-58084211D01*
X145454891Y-58160656D01*
X145416669Y-58198879D01*
X145340224Y-58237101D01*
X145187333Y-58275324D01*
X144996221Y-58275324D01*
X144843330Y-58237101D01*
X144766885Y-58198879D01*
X144728663Y-58160656D01*
X144690440Y-58084211D01*
X146707270Y-55146902D02*
X146821703Y-55627524D01*
X146913250Y-55284222D01*
X147004797Y-55627524D01*
X147119231Y-55146902D01*
X147279439Y-55604637D02*
X147348099Y-55627524D01*
X147462533Y-55627524D01*
X147508306Y-55604637D01*
X147531193Y-55581750D01*
X147554080Y-55535977D01*
X147554080Y-55490203D01*
X147531193Y-55444430D01*
X147508306Y-55421543D01*
X147462533Y-55398656D01*
X147370986Y-55375769D01*
X147325212Y-55352883D01*
X147302325Y-55329996D01*
X147279439Y-55284222D01*
X147279439Y-55238449D01*
X147302325Y-55192675D01*
X147325212Y-55169789D01*
X147370986Y-55146902D01*
X147485419Y-55146902D01*
X147554080Y-55169789D01*
X147737174Y-55192675D02*
X147760061Y-55169789D01*
X147805834Y-55146902D01*
X147920268Y-55146902D01*
X147966041Y-55169789D01*
X147988928Y-55192675D01*
X148011815Y-55238449D01*
X148011815Y-55284222D01*
X147988928Y-55352883D01*
X147714287Y-55627524D01*
X148011815Y-55627524D01*
X148286456Y-55352883D02*
X148240683Y-55329996D01*
X148217796Y-55307109D01*
X148194909Y-55261336D01*
X148194909Y-55238449D01*
X148217796Y-55192675D01*
X148240683Y-55169789D01*
X148286456Y-55146902D01*
X148378003Y-55146902D01*
X148423777Y-55169789D01*
X148446663Y-55192675D01*
X148469550Y-55238449D01*
X148469550Y-55261336D01*
X148446663Y-55307109D01*
X148423777Y-55329996D01*
X148378003Y-55352883D01*
X148286456Y-55352883D01*
X148240683Y-55375769D01*
X148217796Y-55398656D01*
X148194909Y-55444430D01*
X148194909Y-55535977D01*
X148217796Y-55581750D01*
X148240683Y-55604637D01*
X148286456Y-55627524D01*
X148378003Y-55627524D01*
X148423777Y-55604637D01*
X148446663Y-55581750D01*
X148469550Y-55535977D01*
X148469550Y-55444430D01*
X148446663Y-55398656D01*
X148423777Y-55375769D01*
X148378003Y-55352883D01*
X148927285Y-55627524D02*
X148652644Y-55627524D01*
X148789965Y-55627524D02*
X148789965Y-55146902D01*
X148744191Y-55215562D01*
X148698418Y-55261336D01*
X148652644Y-55284222D01*
X149110380Y-55192675D02*
X149133266Y-55169789D01*
X149179040Y-55146902D01*
X149293474Y-55146902D01*
X149339247Y-55169789D01*
X149362134Y-55192675D01*
X149385021Y-55238449D01*
X149385021Y-55284222D01*
X149362134Y-55352883D01*
X149087493Y-55627524D01*
X149385021Y-55627524D01*
X149751209Y-55375769D02*
X149819869Y-55398656D01*
X149842756Y-55421543D01*
X149865643Y-55467316D01*
X149865643Y-55535977D01*
X149842756Y-55581750D01*
X149819869Y-55604637D01*
X149774096Y-55627524D01*
X149591002Y-55627524D01*
X149591002Y-55146902D01*
X149751209Y-55146902D01*
X149796982Y-55169789D01*
X149819869Y-55192675D01*
X149842756Y-55238449D01*
X149842756Y-55284222D01*
X149819869Y-55329996D01*
X149796982Y-55352883D01*
X149751209Y-55375769D01*
X149591002Y-55375769D01*
D17*
X110142380Y-58775238D02*
X109666190Y-59108571D01*
X110142380Y-59346666D02*
X109142380Y-59346666D01*
X109142380Y-58965714D01*
X109190000Y-58870476D01*
X109237619Y-58822857D01*
X109332857Y-58775238D01*
X109475714Y-58775238D01*
X109570952Y-58822857D01*
X109618571Y-58870476D01*
X109666190Y-58965714D01*
X109666190Y-59346666D01*
X109856666Y-58394285D02*
X109856666Y-57918095D01*
X110142380Y-58489523D02*
X109142380Y-58156190D01*
X110142380Y-57822857D01*
X110142380Y-56965714D02*
X110142380Y-57537142D01*
X110142380Y-57251428D02*
X109142380Y-57251428D01*
X109285238Y-57346666D01*
X109380476Y-57441904D01*
X109428095Y-57537142D01*
X110162380Y-63508095D02*
X110162380Y-64079523D01*
X110162380Y-63793809D02*
X109162380Y-63793809D01*
X109305238Y-63889047D01*
X109400476Y-63984285D01*
X109448095Y-64079523D01*
X109162380Y-62889047D02*
X109162380Y-62793809D01*
X109210000Y-62698571D01*
X109257619Y-62650952D01*
X109352857Y-62603333D01*
X109543333Y-62555714D01*
X109781428Y-62555714D01*
X109971904Y-62603333D01*
X110067142Y-62650952D01*
X110114761Y-62698571D01*
X110162380Y-62793809D01*
X110162380Y-62889047D01*
X110114761Y-62984285D01*
X110067142Y-63031904D01*
X109971904Y-63079523D01*
X109781428Y-63127142D01*
X109543333Y-63127142D01*
X109352857Y-63079523D01*
X109257619Y-63031904D01*
X109210000Y-62984285D01*
X109162380Y-62889047D01*
X109162380Y-61936666D02*
X109162380Y-61841428D01*
X109210000Y-61746190D01*
X109257619Y-61698571D01*
X109352857Y-61650952D01*
X109543333Y-61603333D01*
X109781428Y-61603333D01*
X109971904Y-61650952D01*
X110067142Y-61698571D01*
X110114761Y-61746190D01*
X110162380Y-61841428D01*
X110162380Y-61936666D01*
X110114761Y-62031904D01*
X110067142Y-62079523D01*
X109971904Y-62127142D01*
X109781428Y-62174761D01*
X109543333Y-62174761D01*
X109352857Y-62127142D01*
X109257619Y-62079523D01*
X109210000Y-62031904D01*
X109162380Y-61936666D01*
X110162380Y-61222380D02*
X110162380Y-60984285D01*
X109971904Y-60984285D01*
X109924285Y-61079523D01*
X109829047Y-61174761D01*
X109686190Y-61222380D01*
X109448095Y-61222380D01*
X109305238Y-61174761D01*
X109210000Y-61079523D01*
X109162380Y-60936666D01*
X109162380Y-60746190D01*
X109210000Y-60603333D01*
X109305238Y-60508095D01*
X109448095Y-60460476D01*
X109686190Y-60460476D01*
X109829047Y-60508095D01*
X109924285Y-60603333D01*
X109971904Y-60698571D01*
X110162380Y-60698571D01*
X110162380Y-60460476D01*
X104084761Y-65327142D02*
X104037142Y-65374761D01*
X103894285Y-65422380D01*
X103799047Y-65422380D01*
X103656190Y-65374761D01*
X103560952Y-65279523D01*
X103513333Y-65184285D01*
X103465714Y-64993809D01*
X103465714Y-64850952D01*
X103513333Y-64660476D01*
X103560952Y-64565238D01*
X103656190Y-64470000D01*
X103799047Y-64422380D01*
X103894285Y-64422380D01*
X104037142Y-64470000D01*
X104084761Y-64517619D01*
X104465714Y-65136666D02*
X104941904Y-65136666D01*
X104370476Y-65422380D02*
X104703809Y-64422380D01*
X105037142Y-65422380D01*
X105799047Y-64755714D02*
X105799047Y-65422380D01*
X105560952Y-64374761D02*
X105322857Y-65089047D01*
X105941904Y-65089047D01*
X102246180Y-62490076D02*
X102246180Y-62394838D01*
X102293800Y-62299600D01*
X102341419Y-62251980D01*
X102436657Y-62204361D01*
X102627133Y-62156742D01*
X102865228Y-62156742D01*
X103055704Y-62204361D01*
X103150942Y-62251980D01*
X103198561Y-62299600D01*
X103246180Y-62394838D01*
X103246180Y-62490076D01*
X103198561Y-62585314D01*
X103150942Y-62632933D01*
X103055704Y-62680552D01*
X102865228Y-62728171D01*
X102627133Y-62728171D01*
X102436657Y-62680552D01*
X102341419Y-62632933D01*
X102293800Y-62585314D01*
X102246180Y-62490076D01*
X103150942Y-61728171D02*
X103198561Y-61680552D01*
X103246180Y-61728171D01*
X103198561Y-61775790D01*
X103150942Y-61728171D01*
X103246180Y-61728171D01*
X102246180Y-61347219D02*
X102246180Y-60728171D01*
X102627133Y-61061504D01*
X102627133Y-60918647D01*
X102674752Y-60823409D01*
X102722371Y-60775790D01*
X102817609Y-60728171D01*
X103055704Y-60728171D01*
X103150942Y-60775790D01*
X103198561Y-60823409D01*
X103246180Y-60918647D01*
X103246180Y-61204361D01*
X103198561Y-61299600D01*
X103150942Y-61347219D01*
X103246180Y-60251980D02*
X103246180Y-60061504D01*
X103198561Y-59966266D01*
X103150942Y-59918647D01*
X103008085Y-59823409D01*
X102817609Y-59775790D01*
X102436657Y-59775790D01*
X102341419Y-59823409D01*
X102293800Y-59871028D01*
X102246180Y-59966266D01*
X102246180Y-60156742D01*
X102293800Y-60251980D01*
X102341419Y-60299600D01*
X102436657Y-60347219D01*
X102674752Y-60347219D01*
X102769990Y-60299600D01*
X102817609Y-60251980D01*
X102865228Y-60156742D01*
X102865228Y-59966266D01*
X102817609Y-59871028D01*
X102769990Y-59823409D01*
X102674752Y-59775790D01*
X102579514Y-59347219D02*
X103579514Y-59347219D01*
X103103323Y-58871028D02*
X103198561Y-58823409D01*
X103246180Y-58728171D01*
X103103323Y-59347219D02*
X103198561Y-59299600D01*
X103246180Y-59204361D01*
X103246180Y-59013885D01*
X103198561Y-58918647D01*
X103103323Y-58871028D01*
X102579514Y-58871028D01*
X102722371Y-57966266D02*
X102722371Y-58299600D01*
X103246180Y-58299600D02*
X102246180Y-58299600D01*
X102246180Y-57823409D01*
X119043333Y-110442380D02*
X118710000Y-109966190D01*
X118471904Y-110442380D02*
X118471904Y-109442380D01*
X118852857Y-109442380D01*
X118948095Y-109490000D01*
X118995714Y-109537619D01*
X119043333Y-109632857D01*
X119043333Y-109775714D01*
X118995714Y-109870952D01*
X118948095Y-109918571D01*
X118852857Y-109966190D01*
X118471904Y-109966190D01*
X119376666Y-109442380D02*
X119995714Y-109442380D01*
X119662380Y-109823333D01*
X119805238Y-109823333D01*
X119900476Y-109870952D01*
X119948095Y-109918571D01*
X119995714Y-110013809D01*
X119995714Y-110251904D01*
X119948095Y-110347142D01*
X119900476Y-110394761D01*
X119805238Y-110442380D01*
X119519523Y-110442380D01*
X119424285Y-110394761D01*
X119376666Y-110347142D01*
X121792857Y-109775714D02*
X121792857Y-110442380D01*
X121554761Y-109394761D02*
X121316666Y-110109047D01*
X121935714Y-110109047D01*
X122745238Y-109775714D02*
X122745238Y-110442380D01*
X122507142Y-109394761D02*
X122269047Y-110109047D01*
X122888095Y-110109047D01*
X123221428Y-110442380D02*
X123459523Y-110442380D01*
X123459523Y-110251904D01*
X123364285Y-110204285D01*
X123269047Y-110109047D01*
X123221428Y-109966190D01*
X123221428Y-109728095D01*
X123269047Y-109585238D01*
X123364285Y-109490000D01*
X123507142Y-109442380D01*
X123697619Y-109442380D01*
X123840476Y-109490000D01*
X123935714Y-109585238D01*
X123983333Y-109728095D01*
X123983333Y-109966190D01*
X123935714Y-110109047D01*
X123840476Y-110204285D01*
X123745238Y-110251904D01*
X123745238Y-110442380D01*
X123983333Y-110442380D01*
D18*
X123888657Y-100281110D02*
X123495194Y-100030369D01*
X123464900Y-100456636D02*
X123157730Y-99715062D01*
X123440235Y-99598044D01*
X123525488Y-99604103D01*
X123575428Y-99624789D01*
X123639996Y-99680788D01*
X123683877Y-99786727D01*
X123677818Y-99871981D01*
X123657132Y-99921921D01*
X123601133Y-99986488D01*
X123318629Y-100103505D01*
X124302375Y-99282306D02*
X124217122Y-99276247D01*
X124111183Y-99320129D01*
X124019871Y-99399323D01*
X123978499Y-99499204D01*
X123972440Y-99584457D01*
X123995636Y-99740336D01*
X124039517Y-99846275D01*
X124133339Y-99972900D01*
X124197906Y-100028899D01*
X124297787Y-100070271D01*
X124418353Y-100061703D01*
X124488979Y-100032449D01*
X124580291Y-99953254D01*
X124600977Y-99903314D01*
X124498587Y-99656122D01*
X124357335Y-99714631D01*
X125034341Y-99351462D02*
X125154908Y-99342894D01*
X125204848Y-99363580D01*
X125269415Y-99419579D01*
X125313297Y-99525518D01*
X125307238Y-99610771D01*
X125286552Y-99660711D01*
X125230553Y-99725278D01*
X124948049Y-99842296D01*
X124640879Y-99100722D01*
X124888070Y-98998332D01*
X124973323Y-99004390D01*
X125023263Y-99025076D01*
X125087831Y-99081075D01*
X125117085Y-99151701D01*
X125111026Y-99236955D01*
X125090340Y-99286895D01*
X125034341Y-99351462D01*
X124787150Y-99453852D01*
X126078066Y-99374227D02*
X125654310Y-99549753D01*
X125866188Y-99461990D02*
X125559018Y-98720416D01*
X125532273Y-98855609D01*
X125490901Y-98955490D01*
X125434903Y-99020057D01*
X126784327Y-99081684D02*
X126360571Y-99257210D01*
X126572449Y-99169447D02*
X126265279Y-98427873D01*
X126238534Y-98563066D01*
X126197162Y-98662947D01*
X126141164Y-98727514D01*
X121365728Y-93202544D02*
X121655377Y-93602789D01*
X121608579Y-93250586D01*
X121824534Y-93532722D01*
X121746331Y-93044893D01*
X122069511Y-93406477D02*
X122141703Y-93401346D01*
X122247426Y-93357554D01*
X122280957Y-93318893D01*
X122293343Y-93288990D01*
X122296971Y-93237942D01*
X122279454Y-93195653D01*
X122240793Y-93162122D01*
X122210890Y-93149736D01*
X122159842Y-93146108D01*
X122066505Y-93159997D01*
X122015458Y-93156369D01*
X121985555Y-93143983D01*
X121946893Y-93110452D01*
X121929376Y-93068163D01*
X121933004Y-93017115D01*
X121945390Y-92987212D01*
X121978921Y-92948551D01*
X122084644Y-92904759D01*
X122156837Y-92899629D01*
X122334752Y-92850706D02*
X122347138Y-92820803D01*
X122380669Y-92782142D01*
X122486392Y-92738350D01*
X122537440Y-92741978D01*
X122567343Y-92754364D01*
X122606004Y-92787895D01*
X122623521Y-92830184D01*
X122628651Y-92902376D01*
X122480017Y-93261212D01*
X122754897Y-93147353D01*
X122903531Y-92788517D02*
X122852484Y-92784889D01*
X122822581Y-92772503D01*
X122783919Y-92738972D01*
X122775161Y-92717828D01*
X122778789Y-92666780D01*
X122791175Y-92636877D01*
X122824706Y-92598216D01*
X122909284Y-92563182D01*
X122960332Y-92566810D01*
X122990235Y-92579196D01*
X123028896Y-92612727D01*
X123037655Y-92633872D01*
X123034027Y-92684919D01*
X123021641Y-92714822D01*
X122988110Y-92753484D01*
X122903531Y-92788517D01*
X122870000Y-92827179D01*
X122857614Y-92857082D01*
X122853986Y-92908129D01*
X122889020Y-92992708D01*
X122927681Y-93026238D01*
X122957584Y-93038625D01*
X123008632Y-93042252D01*
X123093210Y-93007219D01*
X123126741Y-92968558D01*
X123139127Y-92938655D01*
X123142755Y-92887607D01*
X123107722Y-92803029D01*
X123069060Y-92769498D01*
X123039157Y-92757111D01*
X122988110Y-92753484D01*
X123600681Y-92797018D02*
X123346946Y-92902118D01*
X123473813Y-92849568D02*
X123289887Y-92405531D01*
X123273873Y-92486482D01*
X123249101Y-92546288D01*
X123215570Y-92584949D01*
X123603429Y-92325203D02*
X123615815Y-92295300D01*
X123649346Y-92256639D01*
X123755069Y-92212847D01*
X123806116Y-92216475D01*
X123836019Y-92228861D01*
X123874681Y-92262392D01*
X123892197Y-92304681D01*
X123897328Y-92376873D01*
X123748693Y-92735709D01*
X124023573Y-92621850D01*
X124265545Y-92249125D02*
X124337737Y-92243995D01*
X124367640Y-92256381D01*
X124406301Y-92289912D01*
X124432576Y-92353346D01*
X124428949Y-92404393D01*
X124416562Y-92434296D01*
X124383032Y-92472957D01*
X124213875Y-92543025D01*
X124029949Y-92098988D01*
X124177961Y-92037679D01*
X124229008Y-92041307D01*
X124258911Y-92053693D01*
X124297573Y-92087224D01*
X124315090Y-92129513D01*
X124311462Y-92180561D01*
X124299076Y-92210464D01*
X124265545Y-92249125D01*
X124117532Y-92310434D01*
X120601321Y-89771114D02*
X120333763Y-89388888D01*
X120142650Y-89771114D02*
X120142650Y-88968440D01*
X120448431Y-88968440D01*
X120524876Y-89006663D01*
X120563098Y-89044885D01*
X120601321Y-89121330D01*
X120601321Y-89235998D01*
X120563098Y-89312443D01*
X120524876Y-89350666D01*
X120448431Y-89388888D01*
X120142650Y-89388888D01*
X121365772Y-89006663D02*
X121289327Y-88968440D01*
X121174659Y-88968440D01*
X121059992Y-89006663D01*
X120983547Y-89083108D01*
X120945324Y-89159553D01*
X120907101Y-89312443D01*
X120907101Y-89427111D01*
X120945324Y-89580001D01*
X120983547Y-89656446D01*
X121059992Y-89732891D01*
X121174659Y-89771114D01*
X121251105Y-89771114D01*
X121365772Y-89732891D01*
X121403995Y-89694669D01*
X121403995Y-89427111D01*
X121251105Y-89427111D01*
X122015556Y-89350666D02*
X122130224Y-89388888D01*
X122168446Y-89427111D01*
X122206669Y-89503556D01*
X122206669Y-89618224D01*
X122168446Y-89694669D01*
X122130224Y-89732891D01*
X122053779Y-89771114D01*
X121747998Y-89771114D01*
X121747998Y-88968440D01*
X122015556Y-88968440D01*
X122092001Y-89006663D01*
X122130224Y-89044885D01*
X122168446Y-89121330D01*
X122168446Y-89197775D01*
X122130224Y-89274221D01*
X122092001Y-89312443D01*
X122015556Y-89350666D01*
X121747998Y-89350666D01*
X122971120Y-89771114D02*
X122512449Y-89771114D01*
X122741785Y-89771114D02*
X122741785Y-88968440D01*
X122665340Y-89083108D01*
X122588895Y-89159553D01*
X122512449Y-89197775D01*
X123276901Y-89044885D02*
X123315123Y-89006663D01*
X123391569Y-88968440D01*
X123582681Y-88968440D01*
X123659127Y-89006663D01*
X123697349Y-89044885D01*
X123735572Y-89121330D01*
X123735572Y-89197775D01*
X123697349Y-89312443D01*
X123238678Y-89771114D01*
X123735572Y-89771114D01*
X120456370Y-82413802D02*
X120570803Y-82894424D01*
X120662350Y-82551122D01*
X120753897Y-82894424D01*
X120868331Y-82413802D01*
X121028539Y-82871537D02*
X121097199Y-82894424D01*
X121211633Y-82894424D01*
X121257406Y-82871537D01*
X121280293Y-82848650D01*
X121303180Y-82802877D01*
X121303180Y-82757103D01*
X121280293Y-82711330D01*
X121257406Y-82688443D01*
X121211633Y-82665556D01*
X121120086Y-82642669D01*
X121074312Y-82619783D01*
X121051425Y-82596896D01*
X121028539Y-82551122D01*
X121028539Y-82505349D01*
X121051425Y-82459575D01*
X121074312Y-82436689D01*
X121120086Y-82413802D01*
X121234519Y-82413802D01*
X121303180Y-82436689D01*
X121486274Y-82459575D02*
X121509161Y-82436689D01*
X121554934Y-82413802D01*
X121669368Y-82413802D01*
X121715141Y-82436689D01*
X121738028Y-82459575D01*
X121760915Y-82505349D01*
X121760915Y-82551122D01*
X121738028Y-82619783D01*
X121463387Y-82894424D01*
X121760915Y-82894424D01*
X122035556Y-82619783D02*
X121989783Y-82596896D01*
X121966896Y-82574009D01*
X121944009Y-82528236D01*
X121944009Y-82505349D01*
X121966896Y-82459575D01*
X121989783Y-82436689D01*
X122035556Y-82413802D01*
X122127103Y-82413802D01*
X122172877Y-82436689D01*
X122195763Y-82459575D01*
X122218650Y-82505349D01*
X122218650Y-82528236D01*
X122195763Y-82574009D01*
X122172877Y-82596896D01*
X122127103Y-82619783D01*
X122035556Y-82619783D01*
X121989783Y-82642669D01*
X121966896Y-82665556D01*
X121944009Y-82711330D01*
X121944009Y-82802877D01*
X121966896Y-82848650D01*
X121989783Y-82871537D01*
X122035556Y-82894424D01*
X122127103Y-82894424D01*
X122172877Y-82871537D01*
X122195763Y-82848650D01*
X122218650Y-82802877D01*
X122218650Y-82711330D01*
X122195763Y-82665556D01*
X122172877Y-82642669D01*
X122127103Y-82619783D01*
X122676385Y-82894424D02*
X122401744Y-82894424D01*
X122539065Y-82894424D02*
X122539065Y-82413802D01*
X122493291Y-82482462D01*
X122447518Y-82528236D01*
X122401744Y-82551122D01*
X122859480Y-82459575D02*
X122882366Y-82436689D01*
X122928140Y-82413802D01*
X123042574Y-82413802D01*
X123088347Y-82436689D01*
X123111234Y-82459575D01*
X123134121Y-82505349D01*
X123134121Y-82551122D01*
X123111234Y-82619783D01*
X122836593Y-82894424D01*
X123134121Y-82894424D01*
X123500309Y-82642669D02*
X123568969Y-82665556D01*
X123591856Y-82688443D01*
X123614743Y-82734216D01*
X123614743Y-82802877D01*
X123591856Y-82848650D01*
X123568969Y-82871537D01*
X123523196Y-82894424D01*
X123340102Y-82894424D01*
X123340102Y-82413802D01*
X123500309Y-82413802D01*
X123546082Y-82436689D01*
X123568969Y-82459575D01*
X123591856Y-82505349D01*
X123591856Y-82551122D01*
X123568969Y-82596896D01*
X123546082Y-82619783D01*
X123500309Y-82642669D01*
X123340102Y-82642669D01*
X120689741Y-78697837D02*
X120588821Y-78242316D01*
X120265985Y-78522311D02*
X120573155Y-77780737D01*
X120855659Y-77897754D01*
X120911658Y-77962322D01*
X120932344Y-78012262D01*
X120938403Y-78097515D01*
X120894521Y-78203454D01*
X120829954Y-78259453D01*
X120780014Y-78280139D01*
X120694761Y-78286198D01*
X120412256Y-78169181D01*
X121688545Y-78284119D02*
X121632546Y-78219552D01*
X121526607Y-78175670D01*
X121406041Y-78167102D01*
X121306160Y-78208474D01*
X121241593Y-78264472D01*
X121147771Y-78391098D01*
X121103890Y-78497037D01*
X121080695Y-78652916D01*
X121086753Y-78738169D01*
X121128125Y-78838050D01*
X121219437Y-78917244D01*
X121290063Y-78946498D01*
X121410630Y-78955067D01*
X121460570Y-78934381D01*
X121562960Y-78687190D01*
X121421708Y-78628681D01*
X122157223Y-78850598D02*
X122248535Y-78929792D01*
X122269221Y-78979732D01*
X122275280Y-79064986D01*
X122231398Y-79170925D01*
X122166831Y-79226924D01*
X122116891Y-79247610D01*
X122031637Y-79253668D01*
X121749133Y-79136651D01*
X122056303Y-78395077D01*
X122303494Y-78497467D01*
X122359493Y-78562035D01*
X122380179Y-78611975D01*
X122386238Y-78697228D01*
X122356984Y-78767854D01*
X122292416Y-78823853D01*
X122242476Y-78844539D01*
X122157223Y-78850598D01*
X121910031Y-78748208D01*
X122879151Y-79604720D02*
X122455394Y-79429194D01*
X122667272Y-79516957D02*
X122974442Y-78775383D01*
X122859935Y-78852068D01*
X122760054Y-78893440D01*
X122674801Y-78899498D01*
X123433512Y-78965536D02*
X123892582Y-79155689D01*
X123528373Y-79335803D01*
X123634312Y-79379685D01*
X123690311Y-79444252D01*
X123710997Y-79494192D01*
X123717056Y-79579445D01*
X123643920Y-79756011D01*
X123579353Y-79812010D01*
X123529413Y-79832696D01*
X123444159Y-79838754D01*
X123232281Y-79750991D01*
X123176282Y-79686424D01*
X123155596Y-79636484D01*
X124234170Y-72173128D02*
X124155967Y-72660956D01*
X124371922Y-72378821D01*
X124325124Y-72731024D01*
X124614773Y-72330779D01*
X124587618Y-72814980D02*
X124642293Y-72862399D01*
X124748017Y-72906191D01*
X124799064Y-72902563D01*
X124828967Y-72890177D01*
X124867629Y-72856646D01*
X124885145Y-72814357D01*
X124881517Y-72763310D01*
X124869131Y-72733407D01*
X124835600Y-72694745D01*
X124759780Y-72638567D01*
X124726249Y-72599906D01*
X124713863Y-72570003D01*
X124710235Y-72518955D01*
X124727752Y-72476666D01*
X124766414Y-72443135D01*
X124796317Y-72430749D01*
X124847364Y-72427121D01*
X124953087Y-72470913D01*
X125007763Y-72518333D01*
X125168161Y-72609544D02*
X125198064Y-72597158D01*
X125249112Y-72593530D01*
X125354835Y-72637322D01*
X125388366Y-72675984D01*
X125400752Y-72705887D01*
X125404380Y-72756934D01*
X125386863Y-72799223D01*
X125339443Y-72853899D01*
X124980607Y-73002533D01*
X125255487Y-73116392D01*
X125614323Y-72967758D02*
X125580792Y-72929096D01*
X125568406Y-72899193D01*
X125564778Y-72848146D01*
X125573537Y-72827001D01*
X125612198Y-72793470D01*
X125642101Y-72781084D01*
X125693149Y-72777456D01*
X125777727Y-72812490D01*
X125811258Y-72851151D01*
X125823644Y-72881054D01*
X125827272Y-72932102D01*
X125818514Y-72953246D01*
X125779852Y-72986777D01*
X125749949Y-72999163D01*
X125698902Y-73002791D01*
X125614323Y-72967758D01*
X125563276Y-72971386D01*
X125533373Y-72983772D01*
X125494711Y-73017303D01*
X125459678Y-73101881D01*
X125463305Y-73152929D01*
X125475692Y-73182832D01*
X125509223Y-73221493D01*
X125593801Y-73256527D01*
X125644849Y-73252899D01*
X125674752Y-73240513D01*
X125713413Y-73206982D01*
X125748447Y-73122403D01*
X125744819Y-73071356D01*
X125732432Y-73041453D01*
X125698902Y-73002791D01*
X126101272Y-73466728D02*
X125847536Y-73361627D01*
X125974404Y-73414178D02*
X126158330Y-72970141D01*
X126089766Y-73016058D01*
X126029960Y-73040830D01*
X125978912Y-73044458D01*
X126436838Y-73135047D02*
X126466741Y-73122661D01*
X126517788Y-73119033D01*
X126623511Y-73162825D01*
X126657042Y-73201487D01*
X126669429Y-73231390D01*
X126673056Y-73282437D01*
X126655540Y-73324726D01*
X126608120Y-73379402D01*
X126249284Y-73528037D01*
X126524164Y-73641896D01*
X126958820Y-73549439D02*
X127013495Y-73596859D01*
X127025882Y-73626762D01*
X127029509Y-73677809D01*
X127003234Y-73741243D01*
X126964573Y-73774774D01*
X126934670Y-73787160D01*
X126883622Y-73790788D01*
X126714465Y-73720721D01*
X126898391Y-73276684D01*
X127046404Y-73337993D01*
X127079935Y-73376654D01*
X127092321Y-73406557D01*
X127095949Y-73457605D01*
X127078432Y-73499894D01*
X127039770Y-73533425D01*
X127009867Y-73545811D01*
X126958820Y-73549439D01*
X126810808Y-73488130D01*
X126064792Y-68920314D02*
X126145874Y-68460847D01*
X125740463Y-68595984D02*
X126308039Y-68028408D01*
X126524259Y-68244628D01*
X126551286Y-68325710D01*
X126551286Y-68379765D01*
X126524259Y-68460847D01*
X126443176Y-68541929D01*
X126362094Y-68568957D01*
X126308039Y-68568957D01*
X126226957Y-68541929D01*
X126010737Y-68325710D01*
X127145890Y-68920314D02*
X127118862Y-68839231D01*
X127037780Y-68758149D01*
X126929670Y-68704094D01*
X126821560Y-68704094D01*
X126740478Y-68731121D01*
X126605341Y-68812204D01*
X126524259Y-68893286D01*
X126443176Y-69028423D01*
X126416149Y-69109506D01*
X126416149Y-69217615D01*
X126470204Y-69325725D01*
X126524259Y-69379780D01*
X126632368Y-69433835D01*
X126686423Y-69433835D01*
X126875615Y-69244643D01*
X126767506Y-69136533D01*
X127362109Y-69623027D02*
X127416164Y-69731137D01*
X127416164Y-69785192D01*
X127389137Y-69866274D01*
X127308054Y-69947356D01*
X127226972Y-69974384D01*
X127172917Y-69974384D01*
X127091835Y-69947356D01*
X126875615Y-69731137D01*
X127443192Y-69163560D01*
X127632384Y-69352753D01*
X127659411Y-69433835D01*
X127659411Y-69487890D01*
X127632384Y-69568972D01*
X127578329Y-69623027D01*
X127497246Y-69650054D01*
X127443192Y-69650054D01*
X127362109Y-69623027D01*
X127172917Y-69433835D01*
X127740493Y-70596015D02*
X127416164Y-70271685D01*
X127578329Y-70433850D02*
X128145905Y-69866274D01*
X128010768Y-69893301D01*
X127902658Y-69893301D01*
X127821576Y-69866274D01*
X128605371Y-70704125D02*
X128226987Y-71082509D01*
X128686454Y-70352768D02*
X128145905Y-70623042D01*
X128497262Y-70974399D01*
X131395363Y-63967145D02*
X131136429Y-64387913D01*
X131443913Y-64209896D01*
X131265896Y-64517380D01*
X131686664Y-64258446D01*
X131476280Y-64695398D02*
X131508647Y-64760131D01*
X131589564Y-64841048D01*
X131638114Y-64857232D01*
X131670481Y-64857232D01*
X131719031Y-64841048D01*
X131751398Y-64808681D01*
X131767581Y-64760131D01*
X131767581Y-64727764D01*
X131751398Y-64679214D01*
X131702848Y-64598297D01*
X131686664Y-64549747D01*
X131686664Y-64517380D01*
X131702848Y-64468830D01*
X131735214Y-64436464D01*
X131783764Y-64420280D01*
X131816131Y-64420280D01*
X131864681Y-64436464D01*
X131945598Y-64517380D01*
X131977965Y-64582114D01*
X132091249Y-64727764D02*
X132123616Y-64727764D01*
X132172166Y-64743948D01*
X132253083Y-64824865D01*
X132269266Y-64873415D01*
X132269266Y-64905782D01*
X132253083Y-64954332D01*
X132220716Y-64986699D01*
X132155982Y-65019065D01*
X131767581Y-65019065D01*
X131977965Y-65229449D01*
X132366366Y-65229449D02*
X132350183Y-65180899D01*
X132350183Y-65148532D01*
X132366366Y-65099982D01*
X132382550Y-65083799D01*
X132431100Y-65067616D01*
X132463467Y-65067616D01*
X132512017Y-65083799D01*
X132576750Y-65148532D01*
X132592934Y-65197083D01*
X132592934Y-65229449D01*
X132576750Y-65278000D01*
X132560567Y-65294183D01*
X132512017Y-65310366D01*
X132479650Y-65310366D01*
X132431100Y-65294183D01*
X132366366Y-65229449D01*
X132317816Y-65213266D01*
X132285449Y-65213266D01*
X132236899Y-65229449D01*
X132172166Y-65294183D01*
X132155982Y-65342733D01*
X132155982Y-65375100D01*
X132172166Y-65423650D01*
X132236899Y-65488383D01*
X132285449Y-65504567D01*
X132317816Y-65504567D01*
X132366366Y-65488383D01*
X132431100Y-65423650D01*
X132447283Y-65375100D01*
X132447283Y-65342733D01*
X132431100Y-65294183D01*
X132625300Y-65876785D02*
X132431100Y-65682584D01*
X132528200Y-65779684D02*
X132868051Y-65439833D01*
X132787134Y-65456017D01*
X132722401Y-65456017D01*
X132673851Y-65439833D01*
X133062252Y-65698767D02*
X133094619Y-65698767D01*
X133143169Y-65714951D01*
X133224086Y-65795868D01*
X133240269Y-65844418D01*
X133240269Y-65876785D01*
X133224086Y-65925335D01*
X133191719Y-65957702D01*
X133126985Y-65990068D01*
X132738584Y-65990068D01*
X132948968Y-66200452D01*
X133385919Y-66281369D02*
X133418286Y-66346103D01*
X133418286Y-66378470D01*
X133402103Y-66427020D01*
X133353553Y-66475570D01*
X133305003Y-66491753D01*
X133272636Y-66491753D01*
X133224086Y-66475570D01*
X133094619Y-66346103D01*
X133434470Y-66006252D01*
X133547753Y-66119535D01*
X133563937Y-66168086D01*
X133563937Y-66200452D01*
X133547753Y-66249003D01*
X133515387Y-66281369D01*
X133466836Y-66297553D01*
X133434470Y-66297553D01*
X133385919Y-66281369D01*
X133272636Y-66168086D01*
X133525889Y-61785658D02*
X133776630Y-61392195D01*
X133350363Y-61361901D02*
X134091937Y-61054731D01*
X134208955Y-61337236D01*
X134202896Y-61422489D01*
X134182210Y-61472429D01*
X134126211Y-61536997D01*
X134020272Y-61580878D01*
X133935018Y-61574819D01*
X133885078Y-61554133D01*
X133820511Y-61498134D01*
X133703494Y-61215630D01*
X134524693Y-62199376D02*
X134530752Y-62114123D01*
X134486870Y-62008184D01*
X134407676Y-61916872D01*
X134307795Y-61875500D01*
X134222542Y-61869441D01*
X134066663Y-61892637D01*
X133960724Y-61936518D01*
X133834099Y-62030340D01*
X133778100Y-62094907D01*
X133736728Y-62194788D01*
X133745296Y-62315354D01*
X133774550Y-62385980D01*
X133853745Y-62477292D01*
X133903685Y-62497978D01*
X134150877Y-62395588D01*
X134092368Y-62254336D01*
X134455537Y-62931342D02*
X134464105Y-63051909D01*
X134443419Y-63101849D01*
X134387420Y-63166416D01*
X134281481Y-63210298D01*
X134196228Y-63204239D01*
X134146288Y-63183553D01*
X134081721Y-63127554D01*
X133964703Y-62845050D01*
X134706277Y-62537880D01*
X134808667Y-62785071D01*
X134802609Y-62870324D01*
X134781923Y-62920264D01*
X134725924Y-62984832D01*
X134655298Y-63014086D01*
X134570044Y-63008027D01*
X134520104Y-62987341D01*
X134455537Y-62931342D01*
X134353147Y-62684151D01*
X134432772Y-63975067D02*
X134257246Y-63551311D01*
X134345009Y-63763189D02*
X135086583Y-63456019D01*
X134951390Y-63429274D01*
X134851509Y-63387902D01*
X134786942Y-63331904D01*
X135452262Y-64338845D02*
X135305990Y-63985715D01*
X134938233Y-64096673D01*
X134988173Y-64117359D01*
X135052740Y-64173358D01*
X135125876Y-64349923D01*
X135119817Y-64435176D01*
X135099131Y-64485117D01*
X135043132Y-64549684D01*
X134866567Y-64622820D01*
X134781314Y-64616761D01*
X134731374Y-64596075D01*
X134666806Y-64540076D01*
X134593671Y-64363511D01*
X134599729Y-64278258D01*
X134620415Y-64228317D01*
X134762455Y-60913728D02*
X134362210Y-61203377D01*
X134714413Y-61156579D01*
X134432277Y-61372534D01*
X134920106Y-61294331D01*
X134558522Y-61617511D02*
X134563653Y-61689703D01*
X134607445Y-61795426D01*
X134646106Y-61828957D01*
X134676009Y-61841343D01*
X134727057Y-61844971D01*
X134769346Y-61827454D01*
X134802877Y-61788793D01*
X134815263Y-61758890D01*
X134818891Y-61707842D01*
X134805002Y-61614505D01*
X134808630Y-61563458D01*
X134821016Y-61533555D01*
X134854547Y-61494893D01*
X134896836Y-61477376D01*
X134947884Y-61481004D01*
X134977787Y-61493390D01*
X135016448Y-61526921D01*
X135060240Y-61632644D01*
X135065370Y-61704837D01*
X135114293Y-61882752D02*
X135144196Y-61895138D01*
X135182857Y-61928669D01*
X135226649Y-62034392D01*
X135223021Y-62085440D01*
X135210635Y-62115343D01*
X135177104Y-62154004D01*
X135134815Y-62171521D01*
X135062623Y-62176651D01*
X134703787Y-62028017D01*
X134817646Y-62302897D01*
X135176482Y-62451531D02*
X135180110Y-62400484D01*
X135192496Y-62370581D01*
X135226027Y-62331919D01*
X135247171Y-62323161D01*
X135298219Y-62326789D01*
X135328122Y-62339175D01*
X135366783Y-62372706D01*
X135401817Y-62457284D01*
X135398189Y-62508332D01*
X135385803Y-62538235D01*
X135352272Y-62576896D01*
X135331127Y-62585655D01*
X135280080Y-62582027D01*
X135250177Y-62569641D01*
X135211515Y-62536110D01*
X135176482Y-62451531D01*
X135137820Y-62418000D01*
X135107917Y-62405614D01*
X135056870Y-62401986D01*
X134972291Y-62437020D01*
X134938761Y-62475681D01*
X134926374Y-62505584D01*
X134922747Y-62556632D01*
X134957780Y-62641210D01*
X134996441Y-62674741D01*
X135026344Y-62687127D01*
X135077392Y-62690755D01*
X135161970Y-62655722D01*
X135195501Y-62617060D01*
X135207888Y-62587157D01*
X135211515Y-62536110D01*
X135167981Y-63148681D02*
X135062881Y-62894946D01*
X135115431Y-63021813D02*
X135559468Y-62837887D01*
X135478517Y-62821873D01*
X135418711Y-62797101D01*
X135380050Y-62763570D01*
X135639796Y-63151429D02*
X135669699Y-63163815D01*
X135708360Y-63197346D01*
X135752152Y-63303069D01*
X135748524Y-63354116D01*
X135736138Y-63384019D01*
X135702607Y-63422681D01*
X135660318Y-63440197D01*
X135588126Y-63445328D01*
X135229290Y-63296693D01*
X135343149Y-63571573D01*
X135715874Y-63813545D02*
X135721004Y-63885737D01*
X135708618Y-63915640D01*
X135675087Y-63954301D01*
X135611653Y-63980576D01*
X135560606Y-63976949D01*
X135530703Y-63964562D01*
X135492042Y-63931032D01*
X135421974Y-63761875D01*
X135866011Y-63577949D01*
X135927320Y-63725961D01*
X135923692Y-63777008D01*
X135911306Y-63806911D01*
X135877775Y-63845573D01*
X135835486Y-63863090D01*
X135784438Y-63859462D01*
X135754535Y-63847076D01*
X135715874Y-63813545D01*
X135654565Y-63665532D01*
X141582108Y-113018127D02*
X141126588Y-113119047D01*
X141406583Y-113441884D02*
X140665009Y-113134714D01*
X140782026Y-112852209D01*
X140846593Y-112796210D01*
X140896533Y-112775524D01*
X140981787Y-112769466D01*
X141087726Y-112813347D01*
X141143725Y-112877914D01*
X141164411Y-112927855D01*
X141170469Y-113013108D01*
X141053452Y-113295612D01*
X141168390Y-112019323D02*
X141103823Y-112075322D01*
X141059942Y-112181261D01*
X141051373Y-112301828D01*
X141092745Y-112401708D01*
X141148744Y-112466275D01*
X141275369Y-112560097D01*
X141381308Y-112603978D01*
X141537187Y-112627174D01*
X141622441Y-112621115D01*
X141722321Y-112579743D01*
X141801516Y-112488431D01*
X141830770Y-112417805D01*
X141839338Y-112297239D01*
X141818652Y-112247299D01*
X141571461Y-112144909D01*
X141512952Y-112286161D01*
X141734869Y-111550646D02*
X141814064Y-111459334D01*
X141864004Y-111438648D01*
X141949257Y-111432589D01*
X142055196Y-111476470D01*
X142111195Y-111541038D01*
X142131881Y-111590978D01*
X142137940Y-111676231D01*
X142020923Y-111958736D01*
X141279349Y-111651566D01*
X141381739Y-111404374D01*
X141446306Y-111348375D01*
X141496246Y-111327689D01*
X141581500Y-111321631D01*
X141652126Y-111350885D01*
X141708125Y-111415452D01*
X141728810Y-111465392D01*
X141734869Y-111550646D01*
X141632479Y-111797837D01*
X142342720Y-111181848D02*
X142401229Y-111040596D01*
X142395170Y-110955343D01*
X142374484Y-110905403D01*
X142297799Y-110790895D01*
X142171174Y-110697074D01*
X141888670Y-110580056D01*
X141803416Y-110586115D01*
X141753476Y-110606801D01*
X141688909Y-110662800D01*
X141630400Y-110804052D01*
X141636459Y-110889306D01*
X141657145Y-110939246D01*
X141713144Y-111003813D01*
X141889709Y-111076949D01*
X141974962Y-111070890D01*
X142024903Y-111050204D01*
X142089470Y-110994205D01*
X142147978Y-110852953D01*
X142141920Y-110767700D01*
X142121234Y-110717760D01*
X142065235Y-110653192D01*
X134657129Y-110461829D02*
X135144957Y-110540032D01*
X134862822Y-110324077D01*
X135215025Y-110370875D01*
X134814780Y-110081226D01*
X135298981Y-110108381D02*
X135346400Y-110053706D01*
X135390192Y-109947982D01*
X135386564Y-109896935D01*
X135374178Y-109867032D01*
X135340647Y-109828370D01*
X135298358Y-109810854D01*
X135247311Y-109814482D01*
X135217408Y-109826868D01*
X135178746Y-109860399D01*
X135122568Y-109936219D01*
X135083907Y-109969750D01*
X135054004Y-109982136D01*
X135002956Y-109985764D01*
X134960667Y-109968247D01*
X134927136Y-109929585D01*
X134914750Y-109899682D01*
X134911122Y-109848635D01*
X134954914Y-109742912D01*
X135002334Y-109688236D01*
X135093545Y-109527838D02*
X135081159Y-109497935D01*
X135077531Y-109446887D01*
X135121323Y-109341164D01*
X135159985Y-109307633D01*
X135189888Y-109295247D01*
X135240935Y-109291619D01*
X135283224Y-109309136D01*
X135337900Y-109356556D01*
X135486534Y-109715392D01*
X135600393Y-109440512D01*
X135451759Y-109081676D02*
X135413097Y-109115207D01*
X135383194Y-109127593D01*
X135332147Y-109131221D01*
X135311002Y-109122462D01*
X135277471Y-109083801D01*
X135265085Y-109053898D01*
X135261457Y-109002850D01*
X135296491Y-108918272D01*
X135335152Y-108884741D01*
X135365055Y-108872355D01*
X135416103Y-108868727D01*
X135437247Y-108877485D01*
X135470778Y-108916147D01*
X135483164Y-108946050D01*
X135486792Y-108997097D01*
X135451759Y-109081676D01*
X135455387Y-109132723D01*
X135467773Y-109162626D01*
X135501304Y-109201288D01*
X135585882Y-109236321D01*
X135636930Y-109232694D01*
X135666833Y-109220307D01*
X135705494Y-109186776D01*
X135740528Y-109102198D01*
X135736900Y-109051150D01*
X135724514Y-109021247D01*
X135690983Y-108982586D01*
X135606404Y-108947552D01*
X135555357Y-108951180D01*
X135525454Y-108963567D01*
X135486792Y-108997097D01*
X135950729Y-108594727D02*
X135845628Y-108848463D01*
X135898179Y-108721595D02*
X135454142Y-108537669D01*
X135500059Y-108606233D01*
X135524831Y-108666039D01*
X135528459Y-108717087D01*
X135619048Y-108259161D02*
X135606662Y-108229258D01*
X135603034Y-108178211D01*
X135646826Y-108072488D01*
X135685488Y-108038957D01*
X135715391Y-108026570D01*
X135766438Y-108022943D01*
X135808727Y-108040459D01*
X135863403Y-108087879D01*
X136012038Y-108446715D01*
X136125897Y-108171835D01*
X136033440Y-107737179D02*
X136080860Y-107682504D01*
X136110763Y-107670117D01*
X136161810Y-107666490D01*
X136225244Y-107692765D01*
X136258775Y-107731426D01*
X136271161Y-107761329D01*
X136274789Y-107812377D01*
X136204722Y-107981534D01*
X135760685Y-107797608D01*
X135821994Y-107649595D01*
X135860655Y-107616064D01*
X135890558Y-107603678D01*
X135941606Y-107600050D01*
X135983895Y-107617567D01*
X136017426Y-107656229D01*
X136029812Y-107686132D01*
X136033440Y-107737179D01*
X135972131Y-107885191D01*
X152382114Y-113839453D02*
X151999888Y-114107011D01*
X152382114Y-114298123D02*
X151579440Y-114298123D01*
X151579440Y-113992343D01*
X151617663Y-113915898D01*
X151655885Y-113877675D01*
X151732330Y-113839453D01*
X151846998Y-113839453D01*
X151923443Y-113877675D01*
X151961666Y-113915898D01*
X151999888Y-113992343D01*
X151999888Y-114298123D01*
X151617663Y-113075001D02*
X151579440Y-113151446D01*
X151579440Y-113266114D01*
X151617663Y-113380782D01*
X151694108Y-113457227D01*
X151770553Y-113495449D01*
X151923443Y-113533672D01*
X152038111Y-113533672D01*
X152191001Y-113495449D01*
X152267446Y-113457227D01*
X152343891Y-113380782D01*
X152382114Y-113266114D01*
X152382114Y-113189669D01*
X152343891Y-113075001D01*
X152305669Y-113036779D01*
X152038111Y-113036779D01*
X152038111Y-113189669D01*
X151961666Y-112425217D02*
X151999888Y-112310550D01*
X152038111Y-112272327D01*
X152114556Y-112234105D01*
X152229224Y-112234105D01*
X152305669Y-112272327D01*
X152343891Y-112310550D01*
X152382114Y-112386995D01*
X152382114Y-112692775D01*
X151579440Y-112692775D01*
X151579440Y-112425217D01*
X151617663Y-112348772D01*
X151655885Y-112310550D01*
X151732330Y-112272327D01*
X151808775Y-112272327D01*
X151885221Y-112310550D01*
X151923443Y-112348772D01*
X151961666Y-112425217D01*
X151961666Y-112692775D01*
X151923443Y-111775434D02*
X151885221Y-111851879D01*
X151846998Y-111890101D01*
X151770553Y-111928324D01*
X151732330Y-111928324D01*
X151655885Y-111890101D01*
X151617663Y-111851879D01*
X151579440Y-111775434D01*
X151579440Y-111622543D01*
X151617663Y-111546098D01*
X151655885Y-111507876D01*
X151732330Y-111469653D01*
X151770553Y-111469653D01*
X151846998Y-111507876D01*
X151885221Y-111546098D01*
X151923443Y-111622543D01*
X151923443Y-111775434D01*
X151961666Y-111851879D01*
X151999888Y-111890101D01*
X152076333Y-111928324D01*
X152229224Y-111928324D01*
X152305669Y-111890101D01*
X152343891Y-111851879D01*
X152382114Y-111775434D01*
X152382114Y-111622543D01*
X152343891Y-111546098D01*
X152305669Y-111507876D01*
X152229224Y-111469653D01*
X152076333Y-111469653D01*
X151999888Y-111507876D01*
X151961666Y-111546098D01*
X151923443Y-111622543D01*
X145024802Y-113731629D02*
X145505424Y-113617196D01*
X145162122Y-113525649D01*
X145505424Y-113434102D01*
X145024802Y-113319668D01*
X145482537Y-113159460D02*
X145505424Y-113090800D01*
X145505424Y-112976366D01*
X145482537Y-112930593D01*
X145459650Y-112907706D01*
X145413877Y-112884819D01*
X145368103Y-112884819D01*
X145322330Y-112907706D01*
X145299443Y-112930593D01*
X145276556Y-112976366D01*
X145253669Y-113067913D01*
X145230783Y-113113687D01*
X145207896Y-113136574D01*
X145162122Y-113159460D01*
X145116349Y-113159460D01*
X145070575Y-113136574D01*
X145047689Y-113113687D01*
X145024802Y-113067913D01*
X145024802Y-112953480D01*
X145047689Y-112884819D01*
X145070575Y-112701725D02*
X145047689Y-112678838D01*
X145024802Y-112633065D01*
X145024802Y-112518631D01*
X145047689Y-112472858D01*
X145070575Y-112449971D01*
X145116349Y-112427084D01*
X145162122Y-112427084D01*
X145230783Y-112449971D01*
X145505424Y-112724612D01*
X145505424Y-112427084D01*
X145230783Y-112152443D02*
X145207896Y-112198216D01*
X145185009Y-112221103D01*
X145139236Y-112243990D01*
X145116349Y-112243990D01*
X145070575Y-112221103D01*
X145047689Y-112198216D01*
X145024802Y-112152443D01*
X145024802Y-112060896D01*
X145047689Y-112015122D01*
X145070575Y-111992236D01*
X145116349Y-111969349D01*
X145139236Y-111969349D01*
X145185009Y-111992236D01*
X145207896Y-112015122D01*
X145230783Y-112060896D01*
X145230783Y-112152443D01*
X145253669Y-112198216D01*
X145276556Y-112221103D01*
X145322330Y-112243990D01*
X145413877Y-112243990D01*
X145459650Y-112221103D01*
X145482537Y-112198216D01*
X145505424Y-112152443D01*
X145505424Y-112060896D01*
X145482537Y-112015122D01*
X145459650Y-111992236D01*
X145413877Y-111969349D01*
X145322330Y-111969349D01*
X145276556Y-111992236D01*
X145253669Y-112015122D01*
X145230783Y-112060896D01*
X145505424Y-111511614D02*
X145505424Y-111786255D01*
X145505424Y-111648934D02*
X145024802Y-111648934D01*
X145093462Y-111694708D01*
X145139236Y-111740481D01*
X145162122Y-111786255D01*
X145070575Y-111328519D02*
X145047689Y-111305633D01*
X145024802Y-111259859D01*
X145024802Y-111145425D01*
X145047689Y-111099652D01*
X145070575Y-111076765D01*
X145116349Y-111053878D01*
X145162122Y-111053878D01*
X145230783Y-111076765D01*
X145505424Y-111351406D01*
X145505424Y-111053878D01*
X145253669Y-110687690D02*
X145276556Y-110619030D01*
X145299443Y-110596143D01*
X145345216Y-110573256D01*
X145413877Y-110573256D01*
X145459650Y-110596143D01*
X145482537Y-110619030D01*
X145505424Y-110664803D01*
X145505424Y-110847897D01*
X145024802Y-110847897D01*
X145024802Y-110687690D01*
X145047689Y-110641917D01*
X145070575Y-110619030D01*
X145116349Y-110596143D01*
X145162122Y-110596143D01*
X145207896Y-110619030D01*
X145230783Y-110641917D01*
X145253669Y-110687690D01*
X145253669Y-110847897D01*
X160977160Y-108493787D02*
X161227901Y-108100324D01*
X160801635Y-108070030D02*
X161543209Y-107762860D01*
X161660226Y-108045364D01*
X161654167Y-108130618D01*
X161633481Y-108180558D01*
X161577482Y-108245125D01*
X161471543Y-108289007D01*
X161386290Y-108282948D01*
X161336350Y-108262262D01*
X161271782Y-108206263D01*
X161154765Y-107923759D01*
X161975964Y-108907505D02*
X161982023Y-108822252D01*
X161938142Y-108716312D01*
X161858947Y-108625000D01*
X161759067Y-108583629D01*
X161673814Y-108577570D01*
X161517934Y-108600765D01*
X161411995Y-108644647D01*
X161285370Y-108738468D01*
X161229371Y-108803036D01*
X161187999Y-108902916D01*
X161196568Y-109023482D01*
X161225822Y-109094108D01*
X161305016Y-109185420D01*
X161354957Y-109206106D01*
X161602148Y-109103716D01*
X161543639Y-108962464D01*
X161906808Y-109639471D02*
X161915377Y-109760037D01*
X161894691Y-109809977D01*
X161838692Y-109874545D01*
X161732753Y-109918426D01*
X161647500Y-109912367D01*
X161597559Y-109891682D01*
X161532992Y-109835683D01*
X161415975Y-109553178D01*
X162157549Y-109246008D01*
X162259939Y-109493199D01*
X162253880Y-109578453D01*
X162233194Y-109628393D01*
X162177195Y-109692960D01*
X162106569Y-109722215D01*
X162021316Y-109716156D01*
X161971376Y-109695470D01*
X161906808Y-109639471D01*
X161804418Y-109392280D01*
X162435465Y-109916956D02*
X162640245Y-110411339D01*
X161767026Y-110400691D01*
X155082455Y-109935728D02*
X154682210Y-110225377D01*
X155034413Y-110178579D01*
X154752277Y-110394534D01*
X155240106Y-110316331D01*
X154878522Y-110639511D02*
X154883653Y-110711703D01*
X154927445Y-110817426D01*
X154966106Y-110850957D01*
X154996009Y-110863343D01*
X155047057Y-110866971D01*
X155089346Y-110849454D01*
X155122877Y-110810793D01*
X155135263Y-110780890D01*
X155138891Y-110729842D01*
X155125002Y-110636505D01*
X155128630Y-110585458D01*
X155141016Y-110555555D01*
X155174547Y-110516893D01*
X155216836Y-110499376D01*
X155267884Y-110503004D01*
X155297787Y-110515390D01*
X155336448Y-110548921D01*
X155380240Y-110654644D01*
X155385370Y-110726837D01*
X155434293Y-110904752D02*
X155464196Y-110917138D01*
X155502857Y-110950669D01*
X155546649Y-111056392D01*
X155543021Y-111107440D01*
X155530635Y-111137343D01*
X155497104Y-111176004D01*
X155454815Y-111193521D01*
X155382623Y-111198651D01*
X155023787Y-111050017D01*
X155137646Y-111324897D01*
X155496482Y-111473531D02*
X155500110Y-111422484D01*
X155512496Y-111392581D01*
X155546027Y-111353919D01*
X155567171Y-111345161D01*
X155618219Y-111348789D01*
X155648122Y-111361175D01*
X155686783Y-111394706D01*
X155721817Y-111479284D01*
X155718189Y-111530332D01*
X155705803Y-111560235D01*
X155672272Y-111598896D01*
X155651127Y-111607655D01*
X155600080Y-111604027D01*
X155570177Y-111591641D01*
X155531515Y-111558110D01*
X155496482Y-111473531D01*
X155457820Y-111440000D01*
X155427917Y-111427614D01*
X155376870Y-111423986D01*
X155292291Y-111459020D01*
X155258761Y-111497681D01*
X155246374Y-111527584D01*
X155242747Y-111578632D01*
X155277780Y-111663210D01*
X155316441Y-111696741D01*
X155346344Y-111709127D01*
X155397392Y-111712755D01*
X155481970Y-111677722D01*
X155515501Y-111639060D01*
X155527888Y-111609157D01*
X155531515Y-111558110D01*
X155487981Y-112170681D02*
X155382881Y-111916946D01*
X155435431Y-112043813D02*
X155879468Y-111859887D01*
X155798517Y-111843873D01*
X155738711Y-111819101D01*
X155700050Y-111785570D01*
X155959796Y-112173429D02*
X155989699Y-112185815D01*
X156028360Y-112219346D01*
X156072152Y-112325069D01*
X156068524Y-112376116D01*
X156056138Y-112406019D01*
X156022607Y-112444681D01*
X155980318Y-112462197D01*
X155908126Y-112467328D01*
X155549290Y-112318693D01*
X155663149Y-112593573D01*
X156035874Y-112835545D02*
X156041004Y-112907737D01*
X156028618Y-112937640D01*
X155995087Y-112976301D01*
X155931653Y-113002576D01*
X155880606Y-112998949D01*
X155850703Y-112986562D01*
X155812042Y-112953032D01*
X155741974Y-112783875D01*
X156186011Y-112599949D01*
X156247320Y-112747961D01*
X156243692Y-112799008D01*
X156231306Y-112828911D01*
X156197775Y-112867573D01*
X156155486Y-112885090D01*
X156104438Y-112881462D01*
X156074535Y-112869076D01*
X156035874Y-112835545D01*
X155974565Y-112687532D01*
X168880067Y-102083588D02*
X168961149Y-101624121D01*
X168555737Y-101759259D02*
X169123314Y-101191682D01*
X169339533Y-101407902D01*
X169366560Y-101488984D01*
X169366560Y-101543039D01*
X169339533Y-101624121D01*
X169258451Y-101705204D01*
X169177368Y-101732231D01*
X169123314Y-101732231D01*
X169042231Y-101705204D01*
X168826012Y-101488984D01*
X169961164Y-102083588D02*
X169934137Y-102002506D01*
X169853054Y-101921423D01*
X169744945Y-101867368D01*
X169636835Y-101867368D01*
X169555753Y-101894396D01*
X169420615Y-101975478D01*
X169339533Y-102056560D01*
X169258451Y-102191698D01*
X169231423Y-102272780D01*
X169231423Y-102380890D01*
X169285478Y-102489000D01*
X169339533Y-102543054D01*
X169447643Y-102597109D01*
X169501698Y-102597109D01*
X169690890Y-102407917D01*
X169582780Y-102299807D01*
X170177384Y-102786301D02*
X170231439Y-102894411D01*
X170231439Y-102948466D01*
X170204411Y-103029548D01*
X170123329Y-103110631D01*
X170042246Y-103137658D01*
X169988192Y-103137658D01*
X169907109Y-103110631D01*
X169690890Y-102894411D01*
X170258466Y-102326835D01*
X170447658Y-102516027D01*
X170474685Y-102597109D01*
X170474685Y-102651164D01*
X170447658Y-102732246D01*
X170393603Y-102786301D01*
X170312521Y-102813329D01*
X170258466Y-102813329D01*
X170177384Y-102786301D01*
X169988192Y-102597109D01*
X171069289Y-103137658D02*
X170961179Y-103029548D01*
X170880097Y-103002521D01*
X170826042Y-103002521D01*
X170690905Y-103029548D01*
X170555768Y-103110631D01*
X170339548Y-103326850D01*
X170312521Y-103407932D01*
X170312521Y-103461987D01*
X170339548Y-103543070D01*
X170447658Y-103651179D01*
X170528740Y-103678207D01*
X170582795Y-103678207D01*
X170663878Y-103651179D01*
X170799015Y-103516042D01*
X170826042Y-103434960D01*
X170826042Y-103380905D01*
X170799015Y-103299823D01*
X170690905Y-103191713D01*
X170609823Y-103164685D01*
X170555768Y-103164685D01*
X170474685Y-103191713D01*
X163653363Y-105750145D02*
X163394429Y-106170913D01*
X163701913Y-105992896D01*
X163523896Y-106300380D01*
X163944664Y-106041446D01*
X163734280Y-106478398D02*
X163766647Y-106543131D01*
X163847564Y-106624048D01*
X163896114Y-106640232D01*
X163928481Y-106640232D01*
X163977031Y-106624048D01*
X164009398Y-106591681D01*
X164025581Y-106543131D01*
X164025581Y-106510764D01*
X164009398Y-106462214D01*
X163960848Y-106381297D01*
X163944664Y-106332747D01*
X163944664Y-106300380D01*
X163960848Y-106251830D01*
X163993214Y-106219464D01*
X164041764Y-106203280D01*
X164074131Y-106203280D01*
X164122681Y-106219464D01*
X164203598Y-106300380D01*
X164235965Y-106365114D01*
X164349249Y-106510764D02*
X164381616Y-106510764D01*
X164430166Y-106526948D01*
X164511083Y-106607865D01*
X164527266Y-106656415D01*
X164527266Y-106688782D01*
X164511083Y-106737332D01*
X164478716Y-106769699D01*
X164413982Y-106802065D01*
X164025581Y-106802065D01*
X164235965Y-107012449D01*
X164624366Y-107012449D02*
X164608183Y-106963899D01*
X164608183Y-106931532D01*
X164624366Y-106882982D01*
X164640550Y-106866799D01*
X164689100Y-106850616D01*
X164721467Y-106850616D01*
X164770017Y-106866799D01*
X164834750Y-106931532D01*
X164850934Y-106980083D01*
X164850934Y-107012449D01*
X164834750Y-107061000D01*
X164818567Y-107077183D01*
X164770017Y-107093366D01*
X164737650Y-107093366D01*
X164689100Y-107077183D01*
X164624366Y-107012449D01*
X164575816Y-106996266D01*
X164543449Y-106996266D01*
X164494899Y-107012449D01*
X164430166Y-107077183D01*
X164413982Y-107125733D01*
X164413982Y-107158100D01*
X164430166Y-107206650D01*
X164494899Y-107271383D01*
X164543449Y-107287567D01*
X164575816Y-107287567D01*
X164624366Y-107271383D01*
X164689100Y-107206650D01*
X164705283Y-107158100D01*
X164705283Y-107125733D01*
X164689100Y-107077183D01*
X164883300Y-107659785D02*
X164689100Y-107465584D01*
X164786200Y-107562684D02*
X165126051Y-107222833D01*
X165045134Y-107239017D01*
X164980401Y-107239017D01*
X164931851Y-107222833D01*
X165320252Y-107481767D02*
X165352619Y-107481767D01*
X165401169Y-107497951D01*
X165482086Y-107578868D01*
X165498269Y-107627418D01*
X165498269Y-107659785D01*
X165482086Y-107708335D01*
X165449719Y-107740702D01*
X165384985Y-107773068D01*
X164996584Y-107773068D01*
X165206968Y-107983452D01*
X165643919Y-108064369D02*
X165676286Y-108129103D01*
X165676286Y-108161470D01*
X165660103Y-108210020D01*
X165611553Y-108258570D01*
X165563003Y-108274753D01*
X165530636Y-108274753D01*
X165482086Y-108258570D01*
X165352619Y-108129103D01*
X165692470Y-107789252D01*
X165805753Y-107902535D01*
X165821937Y-107951086D01*
X165821937Y-107983452D01*
X165805753Y-108032003D01*
X165773387Y-108064369D01*
X165724836Y-108080553D01*
X165692470Y-108080553D01*
X165643919Y-108064369D01*
X165530636Y-107951086D01*
X131150314Y-108758206D02*
X130690847Y-108677124D01*
X130825984Y-109082535D02*
X130258408Y-108514959D01*
X130474628Y-108298739D01*
X130555710Y-108271712D01*
X130609765Y-108271712D01*
X130690847Y-108298739D01*
X130771929Y-108379822D01*
X130798957Y-108460904D01*
X130798957Y-108514959D01*
X130771929Y-108596041D01*
X130555710Y-108812261D01*
X131150314Y-107677108D02*
X131069231Y-107704136D01*
X130988149Y-107785218D01*
X130934094Y-107893328D01*
X130934094Y-108001438D01*
X130961121Y-108082520D01*
X131042204Y-108217657D01*
X131123286Y-108298739D01*
X131258423Y-108379822D01*
X131339506Y-108406849D01*
X131447615Y-108406849D01*
X131555725Y-108352794D01*
X131609780Y-108298739D01*
X131663835Y-108190630D01*
X131663835Y-108136575D01*
X131474643Y-107947383D01*
X131366533Y-108055492D01*
X131853027Y-107460889D02*
X131961137Y-107406834D01*
X132015192Y-107406834D01*
X132096274Y-107433861D01*
X132177356Y-107514944D01*
X132204384Y-107596026D01*
X132204384Y-107650081D01*
X132177356Y-107731163D01*
X131961137Y-107947383D01*
X131393560Y-107379806D01*
X131582753Y-107190614D01*
X131663835Y-107163587D01*
X131717890Y-107163587D01*
X131798972Y-107190614D01*
X131853027Y-107244669D01*
X131880054Y-107325752D01*
X131880054Y-107379806D01*
X131853027Y-107460889D01*
X131663835Y-107650081D01*
X132826015Y-107082505D02*
X132501685Y-107406834D01*
X132663850Y-107244669D02*
X132096274Y-106677093D01*
X132123301Y-106812230D01*
X132123301Y-106920340D01*
X132096274Y-107001422D01*
X132609795Y-106163572D02*
X132663850Y-106109517D01*
X132744932Y-106082489D01*
X132798987Y-106082489D01*
X132880070Y-106109517D01*
X133015207Y-106190599D01*
X133150344Y-106325736D01*
X133231426Y-106460873D01*
X133258454Y-106541956D01*
X133258454Y-106596011D01*
X133231426Y-106677093D01*
X133177371Y-106731148D01*
X133096289Y-106758175D01*
X133042234Y-106758175D01*
X132961152Y-106731148D01*
X132826015Y-106650066D01*
X132690878Y-106514928D01*
X132609795Y-106379791D01*
X132582768Y-106298709D01*
X132582768Y-106244654D01*
X132609795Y-106163572D01*
X126324145Y-102919636D02*
X126744913Y-103178570D01*
X126566896Y-102871086D01*
X126874380Y-103049103D01*
X126615446Y-102628335D01*
X127052398Y-102838719D02*
X127117131Y-102806352D01*
X127198048Y-102725435D01*
X127214232Y-102676885D01*
X127214232Y-102644518D01*
X127198048Y-102595968D01*
X127165681Y-102563601D01*
X127117131Y-102547418D01*
X127084764Y-102547418D01*
X127036214Y-102563601D01*
X126955297Y-102612151D01*
X126906747Y-102628335D01*
X126874380Y-102628335D01*
X126825830Y-102612151D01*
X126793464Y-102579785D01*
X126777280Y-102531235D01*
X126777280Y-102498868D01*
X126793464Y-102450318D01*
X126874380Y-102369401D01*
X126939114Y-102337034D01*
X127084764Y-102223750D02*
X127084764Y-102191383D01*
X127100948Y-102142833D01*
X127181865Y-102061916D01*
X127230415Y-102045733D01*
X127262782Y-102045733D01*
X127311332Y-102061916D01*
X127343699Y-102094283D01*
X127376065Y-102159017D01*
X127376065Y-102547418D01*
X127586449Y-102337034D01*
X127586449Y-101948633D02*
X127537899Y-101964816D01*
X127505532Y-101964816D01*
X127456982Y-101948633D01*
X127440799Y-101932449D01*
X127424616Y-101883899D01*
X127424616Y-101851532D01*
X127440799Y-101802982D01*
X127505532Y-101738249D01*
X127554083Y-101722065D01*
X127586449Y-101722065D01*
X127635000Y-101738249D01*
X127651183Y-101754432D01*
X127667366Y-101802982D01*
X127667366Y-101835349D01*
X127651183Y-101883899D01*
X127586449Y-101948633D01*
X127570266Y-101997183D01*
X127570266Y-102029550D01*
X127586449Y-102078100D01*
X127651183Y-102142833D01*
X127699733Y-102159017D01*
X127732100Y-102159017D01*
X127780650Y-102142833D01*
X127845383Y-102078100D01*
X127861567Y-102029550D01*
X127861567Y-101997183D01*
X127845383Y-101948633D01*
X127780650Y-101883899D01*
X127732100Y-101867716D01*
X127699733Y-101867716D01*
X127651183Y-101883899D01*
X128233785Y-101689699D02*
X128039584Y-101883899D01*
X128136684Y-101786799D02*
X127796833Y-101446948D01*
X127813017Y-101527865D01*
X127813017Y-101592598D01*
X127796833Y-101641148D01*
X128055767Y-101252747D02*
X128055767Y-101220380D01*
X128071951Y-101171830D01*
X128152868Y-101090913D01*
X128201418Y-101074730D01*
X128233785Y-101074730D01*
X128282335Y-101090913D01*
X128314702Y-101123280D01*
X128347068Y-101188014D01*
X128347068Y-101576415D01*
X128557452Y-101366031D01*
X128638369Y-100929080D02*
X128703103Y-100896713D01*
X128735470Y-100896713D01*
X128784020Y-100912896D01*
X128832570Y-100961446D01*
X128848753Y-101009996D01*
X128848753Y-101042363D01*
X128832570Y-101090913D01*
X128703103Y-101220380D01*
X128363252Y-100880529D01*
X128476535Y-100767246D01*
X128525086Y-100751062D01*
X128557452Y-100751062D01*
X128606003Y-100767246D01*
X128638369Y-100799612D01*
X128654553Y-100848163D01*
X128654553Y-100880529D01*
X128638369Y-100929080D01*
X128525086Y-101042363D01*
X174069547Y-83294114D02*
X173801989Y-82911888D01*
X173610876Y-83294114D02*
X173610876Y-82491440D01*
X173916656Y-82491440D01*
X173993101Y-82529663D01*
X174031324Y-82567885D01*
X174069547Y-82644330D01*
X174069547Y-82758998D01*
X174031324Y-82835443D01*
X173993101Y-82873666D01*
X173916656Y-82911888D01*
X173610876Y-82911888D01*
X174833998Y-82529663D02*
X174757553Y-82491440D01*
X174642885Y-82491440D01*
X174528217Y-82529663D01*
X174451772Y-82606108D01*
X174413550Y-82682553D01*
X174375327Y-82835443D01*
X174375327Y-82950111D01*
X174413550Y-83103001D01*
X174451772Y-83179446D01*
X174528217Y-83255891D01*
X174642885Y-83294114D01*
X174719330Y-83294114D01*
X174833998Y-83255891D01*
X174872221Y-83217669D01*
X174872221Y-82950111D01*
X174719330Y-82950111D01*
X175483782Y-82873666D02*
X175598449Y-82911888D01*
X175636672Y-82950111D01*
X175674895Y-83026556D01*
X175674895Y-83141224D01*
X175636672Y-83217669D01*
X175598449Y-83255891D01*
X175522004Y-83294114D01*
X175216224Y-83294114D01*
X175216224Y-82491440D01*
X175483782Y-82491440D01*
X175560227Y-82529663D01*
X175598449Y-82567885D01*
X175636672Y-82644330D01*
X175636672Y-82720775D01*
X175598449Y-82797221D01*
X175560227Y-82835443D01*
X175483782Y-82873666D01*
X175216224Y-82873666D01*
X176362901Y-82758998D02*
X176362901Y-83294114D01*
X176171788Y-82453217D02*
X175980675Y-83026556D01*
X176477569Y-83026556D01*
X173542370Y-89017802D02*
X173656803Y-89498424D01*
X173748350Y-89155122D01*
X173839897Y-89498424D01*
X173954331Y-89017802D01*
X174114539Y-89475537D02*
X174183199Y-89498424D01*
X174297633Y-89498424D01*
X174343406Y-89475537D01*
X174366293Y-89452650D01*
X174389180Y-89406877D01*
X174389180Y-89361103D01*
X174366293Y-89315330D01*
X174343406Y-89292443D01*
X174297633Y-89269556D01*
X174206086Y-89246669D01*
X174160312Y-89223783D01*
X174137425Y-89200896D01*
X174114539Y-89155122D01*
X174114539Y-89109349D01*
X174137425Y-89063575D01*
X174160312Y-89040689D01*
X174206086Y-89017802D01*
X174320519Y-89017802D01*
X174389180Y-89040689D01*
X174572274Y-89063575D02*
X174595161Y-89040689D01*
X174640934Y-89017802D01*
X174755368Y-89017802D01*
X174801141Y-89040689D01*
X174824028Y-89063575D01*
X174846915Y-89109349D01*
X174846915Y-89155122D01*
X174824028Y-89223783D01*
X174549387Y-89498424D01*
X174846915Y-89498424D01*
X175121556Y-89223783D02*
X175075783Y-89200896D01*
X175052896Y-89178009D01*
X175030009Y-89132236D01*
X175030009Y-89109349D01*
X175052896Y-89063575D01*
X175075783Y-89040689D01*
X175121556Y-89017802D01*
X175213103Y-89017802D01*
X175258877Y-89040689D01*
X175281763Y-89063575D01*
X175304650Y-89109349D01*
X175304650Y-89132236D01*
X175281763Y-89178009D01*
X175258877Y-89200896D01*
X175213103Y-89223783D01*
X175121556Y-89223783D01*
X175075783Y-89246669D01*
X175052896Y-89269556D01*
X175030009Y-89315330D01*
X175030009Y-89406877D01*
X175052896Y-89452650D01*
X175075783Y-89475537D01*
X175121556Y-89498424D01*
X175213103Y-89498424D01*
X175258877Y-89475537D01*
X175281763Y-89452650D01*
X175304650Y-89406877D01*
X175304650Y-89315330D01*
X175281763Y-89269556D01*
X175258877Y-89246669D01*
X175213103Y-89223783D01*
X175762385Y-89498424D02*
X175487744Y-89498424D01*
X175625065Y-89498424D02*
X175625065Y-89017802D01*
X175579291Y-89086462D01*
X175533518Y-89132236D01*
X175487744Y-89155122D01*
X175945480Y-89063575D02*
X175968366Y-89040689D01*
X176014140Y-89017802D01*
X176128574Y-89017802D01*
X176174347Y-89040689D01*
X176197234Y-89063575D01*
X176220121Y-89109349D01*
X176220121Y-89155122D01*
X176197234Y-89223783D01*
X175922593Y-89498424D01*
X176220121Y-89498424D01*
X176586309Y-89246669D02*
X176654969Y-89269556D01*
X176677856Y-89292443D01*
X176700743Y-89338216D01*
X176700743Y-89406877D01*
X176677856Y-89452650D01*
X176654969Y-89475537D01*
X176609196Y-89498424D01*
X176426102Y-89498424D01*
X176426102Y-89017802D01*
X176586309Y-89017802D01*
X176632082Y-89040689D01*
X176654969Y-89063575D01*
X176677856Y-89109349D01*
X176677856Y-89155122D01*
X176654969Y-89200896D01*
X176632082Y-89223783D01*
X176586309Y-89246669D01*
X176426102Y-89246669D01*
X170977788Y-73337839D02*
X170584325Y-73087098D01*
X170554031Y-73513364D02*
X170246861Y-72771790D01*
X170529365Y-72654773D01*
X170614619Y-72660832D01*
X170664559Y-72681518D01*
X170729126Y-72737517D01*
X170773008Y-72843456D01*
X170766949Y-72928709D01*
X170746263Y-72978649D01*
X170690264Y-73043217D01*
X170407760Y-73160234D01*
X171391506Y-72339035D02*
X171306253Y-72332976D01*
X171200313Y-72376857D01*
X171109001Y-72456052D01*
X171067630Y-72555932D01*
X171061571Y-72641185D01*
X171084766Y-72797065D01*
X171128648Y-72903004D01*
X171222469Y-73029629D01*
X171287037Y-73085628D01*
X171386917Y-73127000D01*
X171507483Y-73118431D01*
X171578109Y-73089177D01*
X171669421Y-73009983D01*
X171690107Y-72960042D01*
X171587717Y-72712851D01*
X171446465Y-72771360D01*
X172123472Y-72408191D02*
X172244038Y-72399622D01*
X172293978Y-72420308D01*
X172358546Y-72476307D01*
X172402427Y-72582246D01*
X172396368Y-72667499D01*
X172375683Y-72717440D01*
X172319684Y-72782007D01*
X172037179Y-72899024D01*
X171730009Y-72157450D01*
X171977200Y-72055060D01*
X172062454Y-72061119D01*
X172112394Y-72081805D01*
X172176961Y-72137804D01*
X172206216Y-72208430D01*
X172200157Y-72293683D01*
X172179471Y-72343623D01*
X172123472Y-72408191D01*
X171876281Y-72510581D01*
X172400957Y-71879534D02*
X172860027Y-71689381D01*
X172729853Y-72074276D01*
X172835792Y-72030394D01*
X172921045Y-72036453D01*
X172970985Y-72057139D01*
X173035553Y-72113138D01*
X173108688Y-72289703D01*
X173102629Y-72374957D01*
X173081944Y-72424897D01*
X173025945Y-72489464D01*
X172814066Y-72577227D01*
X172728813Y-72571168D01*
X172678873Y-72550482D01*
X172292728Y-79486544D02*
X172582377Y-79886789D01*
X172535579Y-79534586D01*
X172751534Y-79816722D01*
X172673331Y-79328893D01*
X172996511Y-79690477D02*
X173068703Y-79685346D01*
X173174426Y-79641554D01*
X173207957Y-79602893D01*
X173220343Y-79572990D01*
X173223971Y-79521942D01*
X173206454Y-79479653D01*
X173167793Y-79446122D01*
X173137890Y-79433736D01*
X173086842Y-79430108D01*
X172993505Y-79443997D01*
X172942458Y-79440369D01*
X172912555Y-79427983D01*
X172873893Y-79394452D01*
X172856376Y-79352163D01*
X172860004Y-79301115D01*
X172872390Y-79271212D01*
X172905921Y-79232551D01*
X173011644Y-79188759D01*
X173083837Y-79183629D01*
X173261752Y-79134706D02*
X173274138Y-79104803D01*
X173307669Y-79066142D01*
X173413392Y-79022350D01*
X173464440Y-79025978D01*
X173494343Y-79038364D01*
X173533004Y-79071895D01*
X173550521Y-79114184D01*
X173555651Y-79186376D01*
X173407017Y-79545212D01*
X173681897Y-79431353D01*
X173830531Y-79072517D02*
X173779484Y-79068889D01*
X173749581Y-79056503D01*
X173710919Y-79022972D01*
X173702161Y-79001828D01*
X173705789Y-78950780D01*
X173718175Y-78920877D01*
X173751706Y-78882216D01*
X173836284Y-78847182D01*
X173887332Y-78850810D01*
X173917235Y-78863196D01*
X173955896Y-78896727D01*
X173964655Y-78917872D01*
X173961027Y-78968919D01*
X173948641Y-78998822D01*
X173915110Y-79037484D01*
X173830531Y-79072517D01*
X173797000Y-79111179D01*
X173784614Y-79141082D01*
X173780986Y-79192129D01*
X173816020Y-79276708D01*
X173854681Y-79310238D01*
X173884584Y-79322625D01*
X173935632Y-79326252D01*
X174020210Y-79291219D01*
X174053741Y-79252558D01*
X174066127Y-79222655D01*
X174069755Y-79171607D01*
X174034722Y-79087029D01*
X173996060Y-79053498D01*
X173966157Y-79041111D01*
X173915110Y-79037484D01*
X174527681Y-79081018D02*
X174273946Y-79186118D01*
X174400813Y-79133568D02*
X174216887Y-78689531D01*
X174200873Y-78770482D01*
X174176101Y-78830288D01*
X174142570Y-78868949D01*
X174530429Y-78609203D02*
X174542815Y-78579300D01*
X174576346Y-78540639D01*
X174682069Y-78496847D01*
X174733116Y-78500475D01*
X174763019Y-78512861D01*
X174801681Y-78546392D01*
X174819197Y-78588681D01*
X174824328Y-78660873D01*
X174675693Y-79019709D01*
X174950573Y-78905850D01*
X175192545Y-78533125D02*
X175264737Y-78527995D01*
X175294640Y-78540381D01*
X175333301Y-78573912D01*
X175359576Y-78637346D01*
X175355949Y-78688393D01*
X175343562Y-78718296D01*
X175310032Y-78756957D01*
X175140875Y-78827025D01*
X174956949Y-78382988D01*
X175104961Y-78321679D01*
X175156008Y-78325307D01*
X175185911Y-78337693D01*
X175224573Y-78371224D01*
X175242090Y-78413513D01*
X175238462Y-78464561D01*
X175226076Y-78494464D01*
X175192545Y-78533125D01*
X175044532Y-78594434D01*
X164440588Y-65815932D02*
X163981121Y-65734850D01*
X164116259Y-66140262D02*
X163548682Y-65572685D01*
X163764902Y-65356466D01*
X163845984Y-65329439D01*
X163900039Y-65329439D01*
X163981121Y-65356466D01*
X164062204Y-65437548D01*
X164089231Y-65518631D01*
X164089231Y-65572685D01*
X164062204Y-65653768D01*
X163845984Y-65869987D01*
X164440588Y-64734835D02*
X164359506Y-64761862D01*
X164278423Y-64842945D01*
X164224368Y-64951054D01*
X164224368Y-65059164D01*
X164251396Y-65140246D01*
X164332478Y-65275384D01*
X164413560Y-65356466D01*
X164548698Y-65437548D01*
X164629780Y-65464576D01*
X164737890Y-65464576D01*
X164846000Y-65410521D01*
X164900054Y-65356466D01*
X164954109Y-65248356D01*
X164954109Y-65194301D01*
X164764917Y-65005109D01*
X164656807Y-65113219D01*
X165143301Y-64518615D02*
X165251411Y-64464560D01*
X165305466Y-64464560D01*
X165386548Y-64491588D01*
X165467631Y-64572670D01*
X165494658Y-64653753D01*
X165494658Y-64707807D01*
X165467631Y-64788890D01*
X165251411Y-65005109D01*
X164683835Y-64437533D01*
X164873027Y-64248341D01*
X164954109Y-64221314D01*
X165008164Y-64221314D01*
X165089246Y-64248341D01*
X165143301Y-64302396D01*
X165170329Y-64383478D01*
X165170329Y-64437533D01*
X165143301Y-64518615D01*
X164954109Y-64707807D01*
X165278439Y-63951039D02*
X165278439Y-63896984D01*
X165305466Y-63815902D01*
X165440603Y-63680765D01*
X165521685Y-63653737D01*
X165575740Y-63653737D01*
X165656823Y-63680765D01*
X165710878Y-63734820D01*
X165764932Y-63842929D01*
X165764932Y-64491588D01*
X166116289Y-64140231D01*
X168107145Y-70788636D02*
X168527913Y-71047570D01*
X168349896Y-70740086D01*
X168657380Y-70918103D01*
X168398446Y-70497335D01*
X168835398Y-70707719D02*
X168900131Y-70675352D01*
X168981048Y-70594435D01*
X168997232Y-70545885D01*
X168997232Y-70513518D01*
X168981048Y-70464968D01*
X168948681Y-70432601D01*
X168900131Y-70416418D01*
X168867764Y-70416418D01*
X168819214Y-70432601D01*
X168738297Y-70481151D01*
X168689747Y-70497335D01*
X168657380Y-70497335D01*
X168608830Y-70481151D01*
X168576464Y-70448785D01*
X168560280Y-70400235D01*
X168560280Y-70367868D01*
X168576464Y-70319318D01*
X168657380Y-70238401D01*
X168722114Y-70206034D01*
X168867764Y-70092750D02*
X168867764Y-70060383D01*
X168883948Y-70011833D01*
X168964865Y-69930916D01*
X169013415Y-69914733D01*
X169045782Y-69914733D01*
X169094332Y-69930916D01*
X169126699Y-69963283D01*
X169159065Y-70028017D01*
X169159065Y-70416418D01*
X169369449Y-70206034D01*
X169369449Y-69817633D02*
X169320899Y-69833816D01*
X169288532Y-69833816D01*
X169239982Y-69817633D01*
X169223799Y-69801449D01*
X169207616Y-69752899D01*
X169207616Y-69720532D01*
X169223799Y-69671982D01*
X169288532Y-69607249D01*
X169337083Y-69591065D01*
X169369449Y-69591065D01*
X169418000Y-69607249D01*
X169434183Y-69623432D01*
X169450366Y-69671982D01*
X169450366Y-69704349D01*
X169434183Y-69752899D01*
X169369449Y-69817633D01*
X169353266Y-69866183D01*
X169353266Y-69898550D01*
X169369449Y-69947100D01*
X169434183Y-70011833D01*
X169482733Y-70028017D01*
X169515100Y-70028017D01*
X169563650Y-70011833D01*
X169628383Y-69947100D01*
X169644567Y-69898550D01*
X169644567Y-69866183D01*
X169628383Y-69817633D01*
X169563650Y-69752899D01*
X169515100Y-69736716D01*
X169482733Y-69736716D01*
X169434183Y-69752899D01*
X170016785Y-69558699D02*
X169822584Y-69752899D01*
X169919684Y-69655799D02*
X169579833Y-69315948D01*
X169596017Y-69396865D01*
X169596017Y-69461598D01*
X169579833Y-69510148D01*
X169838767Y-69121747D02*
X169838767Y-69089380D01*
X169854951Y-69040830D01*
X169935868Y-68959913D01*
X169984418Y-68943730D01*
X170016785Y-68943730D01*
X170065335Y-68959913D01*
X170097702Y-68992280D01*
X170130068Y-69057014D01*
X170130068Y-69445415D01*
X170340452Y-69235031D01*
X170421369Y-68798080D02*
X170486103Y-68765713D01*
X170518470Y-68765713D01*
X170567020Y-68781896D01*
X170615570Y-68830446D01*
X170631753Y-68878996D01*
X170631753Y-68911363D01*
X170615570Y-68959913D01*
X170486103Y-69089380D01*
X170146252Y-68749529D01*
X170259535Y-68636246D01*
X170308086Y-68620062D01*
X170340452Y-68620062D01*
X170389003Y-68636246D01*
X170421369Y-68668612D01*
X170437553Y-68717163D01*
X170437553Y-68749529D01*
X170421369Y-68798080D01*
X170308086Y-68911363D01*
X155679108Y-61456127D02*
X155223588Y-61557047D01*
X155503583Y-61879884D02*
X154762009Y-61572714D01*
X154879026Y-61290209D01*
X154943593Y-61234210D01*
X154993533Y-61213524D01*
X155078787Y-61207466D01*
X155184726Y-61251347D01*
X155240725Y-61315914D01*
X155261411Y-61365855D01*
X155267469Y-61451108D01*
X155150452Y-61733612D01*
X155265390Y-60457323D02*
X155200823Y-60513322D01*
X155156942Y-60619261D01*
X155148373Y-60739828D01*
X155189745Y-60839708D01*
X155245744Y-60904275D01*
X155372369Y-60998097D01*
X155478308Y-61041978D01*
X155634187Y-61065174D01*
X155719441Y-61059115D01*
X155819321Y-61017743D01*
X155898516Y-60926431D01*
X155927770Y-60855805D01*
X155936338Y-60735239D01*
X155915652Y-60685299D01*
X155668461Y-60582909D01*
X155609952Y-60724161D01*
X155831869Y-59988646D02*
X155911064Y-59897334D01*
X155961004Y-59876648D01*
X156046257Y-59870589D01*
X156152196Y-59914470D01*
X156208195Y-59979038D01*
X156228881Y-60028978D01*
X156234940Y-60114231D01*
X156117923Y-60396736D01*
X155376349Y-60089566D01*
X155478739Y-59842374D01*
X155543306Y-59786375D01*
X155593246Y-59765689D01*
X155678500Y-59759631D01*
X155749126Y-59788885D01*
X155805125Y-59853452D01*
X155825810Y-59903392D01*
X155831869Y-59988646D01*
X155729479Y-60235837D01*
X156585991Y-59266718D02*
X156410466Y-59690475D01*
X156498229Y-59478596D02*
X155756654Y-59171426D01*
X155833339Y-59285934D01*
X155874711Y-59385814D01*
X155880770Y-59471067D01*
X160946129Y-64360830D02*
X161433957Y-64439033D01*
X161151822Y-64223078D01*
X161504025Y-64269876D01*
X161103780Y-63980227D01*
X161587981Y-64007382D02*
X161635400Y-63952707D01*
X161679192Y-63846983D01*
X161675564Y-63795936D01*
X161663178Y-63766033D01*
X161629647Y-63727371D01*
X161587358Y-63709855D01*
X161536311Y-63713483D01*
X161506408Y-63725869D01*
X161467746Y-63759400D01*
X161411568Y-63835220D01*
X161372907Y-63868751D01*
X161343004Y-63881137D01*
X161291956Y-63884765D01*
X161249667Y-63867248D01*
X161216136Y-63828586D01*
X161203750Y-63798683D01*
X161200122Y-63747636D01*
X161243914Y-63641913D01*
X161291334Y-63587237D01*
X161382545Y-63426839D02*
X161370159Y-63396936D01*
X161366531Y-63345888D01*
X161410323Y-63240165D01*
X161448985Y-63206634D01*
X161478888Y-63194248D01*
X161529935Y-63190620D01*
X161572224Y-63208137D01*
X161626900Y-63255557D01*
X161775534Y-63614393D01*
X161889393Y-63339513D01*
X161740759Y-62980677D02*
X161702097Y-63014208D01*
X161672194Y-63026594D01*
X161621147Y-63030222D01*
X161600002Y-63021463D01*
X161566471Y-62982802D01*
X161554085Y-62952899D01*
X161550457Y-62901851D01*
X161585491Y-62817273D01*
X161624152Y-62783742D01*
X161654055Y-62771356D01*
X161705103Y-62767728D01*
X161726247Y-62776486D01*
X161759778Y-62815148D01*
X161772164Y-62845051D01*
X161775792Y-62896098D01*
X161740759Y-62980677D01*
X161744387Y-63031724D01*
X161756773Y-63061627D01*
X161790304Y-63100289D01*
X161874882Y-63135322D01*
X161925930Y-63131695D01*
X161955833Y-63119308D01*
X161994494Y-63085777D01*
X162029528Y-63001199D01*
X162025900Y-62950151D01*
X162013514Y-62920248D01*
X161979983Y-62881587D01*
X161895404Y-62846553D01*
X161844357Y-62850181D01*
X161814454Y-62862568D01*
X161775792Y-62896098D01*
X162239729Y-62493728D02*
X162134628Y-62747464D01*
X162187179Y-62620596D02*
X161743142Y-62436670D01*
X161789059Y-62505234D01*
X161813831Y-62565040D01*
X161817459Y-62616088D01*
X161908048Y-62158162D02*
X161895662Y-62128259D01*
X161892034Y-62077212D01*
X161935826Y-61971489D01*
X161974488Y-61937958D01*
X162004391Y-61925571D01*
X162055438Y-61921944D01*
X162097727Y-61939460D01*
X162152403Y-61986880D01*
X162301038Y-62345716D01*
X162414897Y-62070836D01*
X162322440Y-61636180D02*
X162369860Y-61581505D01*
X162399763Y-61569118D01*
X162450810Y-61565491D01*
X162514244Y-61591766D01*
X162547775Y-61630427D01*
X162560161Y-61660330D01*
X162563789Y-61711378D01*
X162493722Y-61880535D01*
X162049685Y-61696609D01*
X162110994Y-61548596D01*
X162149655Y-61515065D01*
X162179558Y-61502679D01*
X162230606Y-61499051D01*
X162272895Y-61516568D01*
X162306426Y-61555230D01*
X162318812Y-61585133D01*
X162322440Y-61636180D01*
X162261131Y-61784192D01*
X173366872Y-93068108D02*
X173265952Y-92612588D01*
X172943115Y-92892583D02*
X173250285Y-92151009D01*
X173532790Y-92268026D01*
X173588789Y-92332593D01*
X173609475Y-92382533D01*
X173615533Y-92467787D01*
X173571652Y-92573726D01*
X173507085Y-92629725D01*
X173457144Y-92650411D01*
X173371891Y-92656469D01*
X173089387Y-92539452D01*
X174365676Y-92654390D02*
X174309677Y-92589823D01*
X174203738Y-92545942D01*
X174083171Y-92537373D01*
X173983291Y-92578745D01*
X173918724Y-92634744D01*
X173824902Y-92761369D01*
X173781021Y-92867308D01*
X173757825Y-93023187D01*
X173763884Y-93108441D01*
X173805256Y-93208321D01*
X173896568Y-93287516D01*
X173967194Y-93316770D01*
X174087760Y-93325338D01*
X174137700Y-93304652D01*
X174240090Y-93057461D01*
X174098838Y-92998952D01*
X174834353Y-93220869D02*
X174925665Y-93300064D01*
X174946351Y-93350004D01*
X174952410Y-93435257D01*
X174908529Y-93541196D01*
X174843961Y-93597195D01*
X174794021Y-93617881D01*
X174708768Y-93623940D01*
X174426263Y-93506923D01*
X174733433Y-92765349D01*
X174980625Y-92867739D01*
X175036624Y-92932306D01*
X175057310Y-92982246D01*
X175063368Y-93067500D01*
X175034114Y-93138126D01*
X174969547Y-93194125D01*
X174919607Y-93214810D01*
X174834353Y-93220869D01*
X174587162Y-93118479D01*
X175828138Y-93218790D02*
X175475008Y-93072519D01*
X175293423Y-93411022D01*
X175343363Y-93390336D01*
X175428616Y-93384277D01*
X175605182Y-93457413D01*
X175661181Y-93521981D01*
X175681867Y-93571921D01*
X175687925Y-93657174D01*
X175614790Y-93833739D01*
X175550222Y-93889738D01*
X175500282Y-93910424D01*
X175415029Y-93916483D01*
X175238464Y-93843347D01*
X175182465Y-93778780D01*
X175161779Y-93728840D01*
X169827170Y-98208130D02*
X169748967Y-98695958D01*
X169964922Y-98413823D01*
X169918124Y-98766026D01*
X170207773Y-98365781D01*
X170180618Y-98849982D02*
X170235293Y-98897401D01*
X170341017Y-98941193D01*
X170392064Y-98937565D01*
X170421967Y-98925179D01*
X170460629Y-98891648D01*
X170478145Y-98849359D01*
X170474517Y-98798312D01*
X170462131Y-98768409D01*
X170428600Y-98729747D01*
X170352780Y-98673569D01*
X170319249Y-98634908D01*
X170306863Y-98605005D01*
X170303235Y-98553957D01*
X170320752Y-98511668D01*
X170359414Y-98478137D01*
X170389317Y-98465751D01*
X170440364Y-98462123D01*
X170546087Y-98505915D01*
X170600763Y-98553335D01*
X170761161Y-98644546D02*
X170791064Y-98632160D01*
X170842112Y-98628532D01*
X170947835Y-98672324D01*
X170981366Y-98710986D01*
X170993752Y-98740889D01*
X170997380Y-98791936D01*
X170979863Y-98834225D01*
X170932443Y-98888901D01*
X170573607Y-99037535D01*
X170848487Y-99151394D01*
X171207323Y-99002760D02*
X171173792Y-98964098D01*
X171161406Y-98934195D01*
X171157778Y-98883148D01*
X171166537Y-98862003D01*
X171205198Y-98828472D01*
X171235101Y-98816086D01*
X171286149Y-98812458D01*
X171370727Y-98847492D01*
X171404258Y-98886153D01*
X171416644Y-98916056D01*
X171420272Y-98967104D01*
X171411514Y-98988248D01*
X171372852Y-99021779D01*
X171342949Y-99034165D01*
X171291902Y-99037793D01*
X171207323Y-99002760D01*
X171156276Y-99006388D01*
X171126373Y-99018774D01*
X171087711Y-99052305D01*
X171052678Y-99136883D01*
X171056305Y-99187931D01*
X171068692Y-99217834D01*
X171102223Y-99256495D01*
X171186801Y-99291529D01*
X171237849Y-99287901D01*
X171267752Y-99275515D01*
X171306413Y-99241984D01*
X171341447Y-99157405D01*
X171337819Y-99106358D01*
X171325432Y-99076455D01*
X171291902Y-99037793D01*
X171694272Y-99501730D02*
X171440536Y-99396629D01*
X171567404Y-99449180D02*
X171751330Y-99005143D01*
X171682766Y-99051060D01*
X171622960Y-99075832D01*
X171571912Y-99079460D01*
X172029838Y-99170049D02*
X172059741Y-99157663D01*
X172110788Y-99154035D01*
X172216511Y-99197827D01*
X172250042Y-99236489D01*
X172262429Y-99266392D01*
X172266056Y-99317439D01*
X172248540Y-99359728D01*
X172201120Y-99414404D01*
X171842284Y-99563039D01*
X172117164Y-99676898D01*
X172551820Y-99584441D02*
X172606495Y-99631861D01*
X172618882Y-99661764D01*
X172622509Y-99712811D01*
X172596234Y-99776245D01*
X172557573Y-99809776D01*
X172527670Y-99822162D01*
X172476622Y-99825790D01*
X172307465Y-99755723D01*
X172491391Y-99311686D01*
X172639404Y-99372995D01*
X172672935Y-99411656D01*
X172685321Y-99441559D01*
X172688949Y-99492607D01*
X172671432Y-99534896D01*
X172632770Y-99568427D01*
X172602867Y-99580813D01*
X172551820Y-99584441D01*
X172403808Y-99523132D01*
M02*
