M48
;DRILL file {KiCad (6.0.0-rc1-dev-454-g181ce46b9)} date 09/10/18 02:16:35
;FORMAT={-:-/ absolute / inch / decimal}
FMAT,2
INCH,TZ
T1C0.0300
T2C0.0315
T3C0.0320
T4C0.0350
T5C0.0394
%
G90
G05
M72
T1
X5.7044Y-4.6156
X5.86Y-4.62
X6.04Y-4.62
T2
X7.6Y-2.95
X7.6Y-3.05
X7.275Y-2.95
X7.375Y-2.95
X8.56Y-3.3
X8.6584Y-3.3
X7.4531Y-3.225
X7.65Y-3.225
T3
X2.8929Y-3.368
X2.9942Y-3.738
X3.05Y-3.44
X3.4726Y-3.8636
X3.5392Y-4.0206
X3.8743Y-3.934
X3.94Y-4.16
X4.02Y-4.24
X4.092Y-4.308
X4.2218Y-4.3319
X4.375Y-4.25
X4.5887Y-4.2513
X4.7012Y-3.5673
X4.7161Y-3.1091
X4.8079Y-3.6071
X4.9126Y-2.7039
X4.972Y-3.9823
X5.155Y-2.46
X5.1583Y-4.3177
X5.2Y-2.275
X5.2Y-4.44
X5.2677Y-4.2677
X5.3Y-4.5
X5.44Y-4.559
X5.5673Y-4.5118
X5.5736Y-2.2651
X5.6598Y-4.4248
X6.0705Y-4.4177
X6.32Y-4.58
X6.461Y-4.252
X6.47Y-2.415
X6.525Y-4.325
X6.625Y-4.55
X6.7015Y-4.499
X6.7988Y-4.0461
X6.8224Y-2.7673
X6.8717Y-3.1441
X6.8858Y-3.5626
X6.978Y-3.6315
X6.985Y-3.176
X7.1037Y-4.4766
X7.1783Y-4.4227
X7.425Y-2.25
X7.45Y-4.35
X7.525Y-2.45
X7.725Y-4.275
X8.Y-4.175
X8.25Y-4.075
X8.45Y-3.95
X8.7Y-3.825
X8.95Y-3.675
T4
X4.8063Y-3.1953
X4.8461Y-3.9673
X4.9606Y-2.8083
X5.247Y-2.514
X6.0232Y-4.5335
X6.4118Y-2.4969
X6.7067Y-2.7689
X6.7398Y-3.952
T5
X7.725Y-3.35
X7.725Y-3.45
X4.9Y-2.25
X4.9Y-2.35
X8.05Y-2.85
X8.05Y-2.95
X8.05Y-3.05
X8.05Y-3.15
X8.05Y-3.25
X8.05Y-3.35
X7.575Y-2.25
X7.6746Y-2.2587
X7.7742Y-2.2674
X6.75Y-2.25
X6.75Y-2.35
X5.695Y-2.34
X5.795Y-2.34
X5.895Y-2.34
X5.995Y-2.34
T0
M30
