G04 #@! TF.GenerationSoftware,KiCad,Pcbnew,(6.0.0-rc1-dev-890-g6c34fdefd)*
G04 #@! TF.CreationDate,2018-10-17T06:06:35-07:00*
G04 #@! TF.ProjectId,Stylish-Belt-Synth - Full,5374796C6973682D42656C742D53796E,rev?*
G04 #@! TF.SameCoordinates,Original*
G04 #@! TF.FileFunction,Paste,Top*
G04 #@! TF.FilePolarity,Positive*
%FSLAX46Y46*%
G04 Gerber Fmt 4.6, Leading zero omitted, Abs format (unit mm)*
G04 Created by KiCad (PCBNEW (6.0.0-rc1-dev-890-g6c34fdefd)) date 10/17/2018 6:06:35 AM*
%MOMM*%
%LPD*%
G01*
G04 APERTURE LIST*
%ADD10C,0.010000*%
%ADD11R,1.270000X3.505200*%
%ADD12C,1.524000*%
%ADD13C,12.700000*%
%ADD14C,1.000000*%
%ADD15C,0.100000*%
%ADD16R,1.651000X1.000000*%
%ADD17R,1.000000X1.651000*%
%ADD18C,1.270000*%
%ADD19R,3.505200X1.270000*%
%ADD20R,1.099820X1.948180*%
G04 APERTURE END LIST*
D10*
G04 #@! TO.C,KB1*
G36*
X68304885Y-95750643D02*
X68538379Y-95879726D01*
X68873124Y-96071951D01*
X69288679Y-96314994D01*
X69764601Y-96596534D01*
X70280449Y-96904246D01*
X70815780Y-97225809D01*
X71350152Y-97548898D01*
X71863123Y-97861190D01*
X72334251Y-98150364D01*
X72743094Y-98404095D01*
X73069210Y-98610061D01*
X73292156Y-98755938D01*
X73391492Y-98829403D01*
X73393713Y-98832105D01*
X73392779Y-98930078D01*
X73368491Y-99180799D01*
X73322973Y-99569610D01*
X73258351Y-100081854D01*
X73176748Y-100702872D01*
X73080288Y-101418007D01*
X72971097Y-102212601D01*
X72851297Y-103071996D01*
X72723015Y-103981535D01*
X72588373Y-104926559D01*
X72449497Y-105892412D01*
X72308511Y-106864434D01*
X72167539Y-107827969D01*
X72028706Y-108768359D01*
X71894136Y-109670945D01*
X71765953Y-110521071D01*
X71646281Y-111304078D01*
X71537246Y-112005308D01*
X71440971Y-112610105D01*
X71359580Y-113103809D01*
X71295199Y-113471764D01*
X71249951Y-113699311D01*
X71228626Y-113770834D01*
X71072826Y-113864723D01*
X70996031Y-113876667D01*
X70887975Y-113830246D01*
X70662316Y-113699856D01*
X70340053Y-113498808D01*
X69942185Y-113240413D01*
X69489710Y-112937981D01*
X69159423Y-112712500D01*
X68361003Y-112162225D01*
X67691349Y-111699021D01*
X67139257Y-111314662D01*
X66693520Y-111000922D01*
X66342934Y-110749574D01*
X66076294Y-110552392D01*
X65882394Y-110401148D01*
X65750029Y-110287618D01*
X65667994Y-110203573D01*
X65625084Y-110140788D01*
X65613231Y-110109000D01*
X65618888Y-109995496D01*
X65650488Y-109730829D01*
X65705575Y-109330000D01*
X65781697Y-108808013D01*
X65876399Y-108179868D01*
X65987228Y-107460567D01*
X66111730Y-106665114D01*
X66247450Y-105808508D01*
X66391936Y-104905754D01*
X66542732Y-103971851D01*
X66697386Y-103021803D01*
X66853443Y-102070612D01*
X67008449Y-101133278D01*
X67159951Y-100224805D01*
X67305494Y-99360193D01*
X67442625Y-98554446D01*
X67568890Y-97822564D01*
X67681835Y-97179551D01*
X67779006Y-96640407D01*
X67857949Y-96220134D01*
X67916210Y-95933736D01*
X67951336Y-95796213D01*
X67955856Y-95787253D01*
X68104944Y-95697852D01*
X68193086Y-95697026D01*
X68304885Y-95750643D01*
X68304885Y-95750643D01*
G37*
X68304885Y-95750643D02*
X68538379Y-95879726D01*
X68873124Y-96071951D01*
X69288679Y-96314994D01*
X69764601Y-96596534D01*
X70280449Y-96904246D01*
X70815780Y-97225809D01*
X71350152Y-97548898D01*
X71863123Y-97861190D01*
X72334251Y-98150364D01*
X72743094Y-98404095D01*
X73069210Y-98610061D01*
X73292156Y-98755938D01*
X73391492Y-98829403D01*
X73393713Y-98832105D01*
X73392779Y-98930078D01*
X73368491Y-99180799D01*
X73322973Y-99569610D01*
X73258351Y-100081854D01*
X73176748Y-100702872D01*
X73080288Y-101418007D01*
X72971097Y-102212601D01*
X72851297Y-103071996D01*
X72723015Y-103981535D01*
X72588373Y-104926559D01*
X72449497Y-105892412D01*
X72308511Y-106864434D01*
X72167539Y-107827969D01*
X72028706Y-108768359D01*
X71894136Y-109670945D01*
X71765953Y-110521071D01*
X71646281Y-111304078D01*
X71537246Y-112005308D01*
X71440971Y-112610105D01*
X71359580Y-113103809D01*
X71295199Y-113471764D01*
X71249951Y-113699311D01*
X71228626Y-113770834D01*
X71072826Y-113864723D01*
X70996031Y-113876667D01*
X70887975Y-113830246D01*
X70662316Y-113699856D01*
X70340053Y-113498808D01*
X69942185Y-113240413D01*
X69489710Y-112937981D01*
X69159423Y-112712500D01*
X68361003Y-112162225D01*
X67691349Y-111699021D01*
X67139257Y-111314662D01*
X66693520Y-111000922D01*
X66342934Y-110749574D01*
X66076294Y-110552392D01*
X65882394Y-110401148D01*
X65750029Y-110287618D01*
X65667994Y-110203573D01*
X65625084Y-110140788D01*
X65613231Y-110109000D01*
X65618888Y-109995496D01*
X65650488Y-109730829D01*
X65705575Y-109330000D01*
X65781697Y-108808013D01*
X65876399Y-108179868D01*
X65987228Y-107460567D01*
X66111730Y-106665114D01*
X66247450Y-105808508D01*
X66391936Y-104905754D01*
X66542732Y-103971851D01*
X66697386Y-103021803D01*
X66853443Y-102070612D01*
X67008449Y-101133278D01*
X67159951Y-100224805D01*
X67305494Y-99360193D01*
X67442625Y-98554446D01*
X67568890Y-97822564D01*
X67681835Y-97179551D01*
X67779006Y-96640407D01*
X67857949Y-96220134D01*
X67916210Y-95933736D01*
X67951336Y-95796213D01*
X67955856Y-95787253D01*
X68104944Y-95697852D01*
X68193086Y-95697026D01*
X68304885Y-95750643D01*
G36*
X218699639Y-101792647D02*
X218747565Y-101854000D01*
X218771516Y-101959110D01*
X218815212Y-102217182D01*
X218876687Y-102613644D01*
X218953976Y-103133926D01*
X219045113Y-103763457D01*
X219148132Y-104487665D01*
X219261069Y-105291978D01*
X219381958Y-106161827D01*
X219508833Y-107082640D01*
X219639729Y-108039845D01*
X219772680Y-109018871D01*
X219905721Y-110005148D01*
X220036886Y-110984104D01*
X220164210Y-111941168D01*
X220285727Y-112861769D01*
X220399472Y-113731336D01*
X220503480Y-114535297D01*
X220595784Y-115259081D01*
X220674420Y-115888118D01*
X220737421Y-116407836D01*
X220782823Y-116803664D01*
X220808660Y-117061030D01*
X220812966Y-117165364D01*
X220812921Y-117165503D01*
X220726584Y-117254082D01*
X220518538Y-117407166D01*
X220215134Y-117607083D01*
X219842720Y-117836163D01*
X219603256Y-117976715D01*
X218859405Y-118403654D01*
X218153787Y-118804484D01*
X217500882Y-119171266D01*
X216915171Y-119496064D01*
X216411135Y-119770940D01*
X216003255Y-119987958D01*
X215706011Y-120139181D01*
X215533885Y-120216670D01*
X215500694Y-120225370D01*
X215333964Y-120181243D01*
X215276557Y-120150935D01*
X215245740Y-120055433D01*
X215197920Y-119805987D01*
X215134831Y-119416873D01*
X215058208Y-118902364D01*
X214969786Y-118276736D01*
X214871300Y-117554262D01*
X214764484Y-116749218D01*
X214651073Y-115875878D01*
X214532801Y-114948516D01*
X214411403Y-113981408D01*
X214288615Y-112988828D01*
X214166169Y-111985050D01*
X214045803Y-110984350D01*
X213929248Y-110001001D01*
X213818242Y-109049279D01*
X213714517Y-108143457D01*
X213619810Y-107297812D01*
X213535854Y-106526616D01*
X213464384Y-105844145D01*
X213407135Y-105264674D01*
X213365842Y-104802476D01*
X213342239Y-104471828D01*
X213338061Y-104287002D01*
X213344590Y-104252756D01*
X213455991Y-104179419D01*
X213694757Y-104046492D01*
X214039051Y-103864694D01*
X214467036Y-103644744D01*
X214956875Y-103397360D01*
X215486731Y-103133262D01*
X216034768Y-102863168D01*
X216579147Y-102597798D01*
X217098033Y-102347870D01*
X217569589Y-102124103D01*
X217971976Y-101937217D01*
X218283359Y-101797930D01*
X218481901Y-101716961D01*
X218543326Y-101700890D01*
X218699639Y-101792647D01*
X218699639Y-101792647D01*
G37*
X218699639Y-101792647D02*
X218747565Y-101854000D01*
X218771516Y-101959110D01*
X218815212Y-102217182D01*
X218876687Y-102613644D01*
X218953976Y-103133926D01*
X219045113Y-103763457D01*
X219148132Y-104487665D01*
X219261069Y-105291978D01*
X219381958Y-106161827D01*
X219508833Y-107082640D01*
X219639729Y-108039845D01*
X219772680Y-109018871D01*
X219905721Y-110005148D01*
X220036886Y-110984104D01*
X220164210Y-111941168D01*
X220285727Y-112861769D01*
X220399472Y-113731336D01*
X220503480Y-114535297D01*
X220595784Y-115259081D01*
X220674420Y-115888118D01*
X220737421Y-116407836D01*
X220782823Y-116803664D01*
X220808660Y-117061030D01*
X220812966Y-117165364D01*
X220812921Y-117165503D01*
X220726584Y-117254082D01*
X220518538Y-117407166D01*
X220215134Y-117607083D01*
X219842720Y-117836163D01*
X219603256Y-117976715D01*
X218859405Y-118403654D01*
X218153787Y-118804484D01*
X217500882Y-119171266D01*
X216915171Y-119496064D01*
X216411135Y-119770940D01*
X216003255Y-119987958D01*
X215706011Y-120139181D01*
X215533885Y-120216670D01*
X215500694Y-120225370D01*
X215333964Y-120181243D01*
X215276557Y-120150935D01*
X215245740Y-120055433D01*
X215197920Y-119805987D01*
X215134831Y-119416873D01*
X215058208Y-118902364D01*
X214969786Y-118276736D01*
X214871300Y-117554262D01*
X214764484Y-116749218D01*
X214651073Y-115875878D01*
X214532801Y-114948516D01*
X214411403Y-113981408D01*
X214288615Y-112988828D01*
X214166169Y-111985050D01*
X214045803Y-110984350D01*
X213929248Y-110001001D01*
X213818242Y-109049279D01*
X213714517Y-108143457D01*
X213619810Y-107297812D01*
X213535854Y-106526616D01*
X213464384Y-105844145D01*
X213407135Y-105264674D01*
X213365842Y-104802476D01*
X213342239Y-104471828D01*
X213338061Y-104287002D01*
X213344590Y-104252756D01*
X213455991Y-104179419D01*
X213694757Y-104046492D01*
X214039051Y-103864694D01*
X214467036Y-103644744D01*
X214956875Y-103397360D01*
X215486731Y-103133262D01*
X216034768Y-102863168D01*
X216579147Y-102597798D01*
X217098033Y-102347870D01*
X217569589Y-102124103D01*
X217971976Y-101937217D01*
X218283359Y-101797930D01*
X218481901Y-101716961D01*
X218543326Y-101700890D01*
X218699639Y-101792647D01*
G36*
X81209635Y-102990282D02*
X81441698Y-103090426D01*
X81782034Y-103245043D01*
X82208769Y-103444079D01*
X82700026Y-103677480D01*
X83108187Y-103874138D01*
X83679660Y-104149823D01*
X84245136Y-104420283D01*
X84772510Y-104670336D01*
X85229682Y-104884801D01*
X85584547Y-105048497D01*
X85725000Y-105111617D01*
X86059888Y-105267566D01*
X86346466Y-105415512D01*
X86540641Y-105532087D01*
X86586019Y-105567979D01*
X86608897Y-105599432D01*
X86626305Y-105651023D01*
X86637272Y-105732857D01*
X86640829Y-105855041D01*
X86636004Y-106027681D01*
X86621827Y-106260883D01*
X86597327Y-106564754D01*
X86561533Y-106949399D01*
X86513476Y-107424924D01*
X86452184Y-108001437D01*
X86376687Y-108689042D01*
X86286013Y-109497847D01*
X86179194Y-110437956D01*
X86055258Y-111519477D01*
X85913234Y-112752516D01*
X85810887Y-113638917D01*
X85678509Y-114780663D01*
X85550710Y-115875061D01*
X85428917Y-116910338D01*
X85314555Y-117874722D01*
X85209051Y-118756441D01*
X85113832Y-119543721D01*
X85030322Y-120224791D01*
X84959949Y-120787877D01*
X84904138Y-121221208D01*
X84864316Y-121513011D01*
X84841909Y-121651513D01*
X84839039Y-121661084D01*
X84761110Y-121726169D01*
X84627819Y-121739462D01*
X84424660Y-121695396D01*
X84137127Y-121588401D01*
X83750715Y-121412909D01*
X83250918Y-121163353D01*
X82623231Y-120834162D01*
X82465334Y-120749857D01*
X81514964Y-120239123D01*
X80705253Y-119799658D01*
X80037933Y-119432433D01*
X79514737Y-119138419D01*
X79137396Y-118918589D01*
X78907643Y-118773915D01*
X78829165Y-118709945D01*
X78830701Y-118612659D01*
X78853587Y-118362002D01*
X78895920Y-117972329D01*
X78955795Y-117457998D01*
X79031311Y-116833366D01*
X79120562Y-116112789D01*
X79221647Y-115310625D01*
X79332661Y-114441231D01*
X79451702Y-113518963D01*
X79576865Y-112558179D01*
X79706247Y-111573235D01*
X79837945Y-110578488D01*
X79970056Y-109588295D01*
X80100676Y-108617014D01*
X80227902Y-107679001D01*
X80349830Y-106788614D01*
X80464557Y-105960208D01*
X80570179Y-105208142D01*
X80664794Y-104546771D01*
X80746497Y-103990454D01*
X80813386Y-103553547D01*
X80863556Y-103250406D01*
X80895106Y-103095389D01*
X80901515Y-103078637D01*
X81038383Y-102973100D01*
X81107721Y-102954667D01*
X81209635Y-102990282D01*
X81209635Y-102990282D01*
G37*
X81209635Y-102990282D02*
X81441698Y-103090426D01*
X81782034Y-103245043D01*
X82208769Y-103444079D01*
X82700026Y-103677480D01*
X83108187Y-103874138D01*
X83679660Y-104149823D01*
X84245136Y-104420283D01*
X84772510Y-104670336D01*
X85229682Y-104884801D01*
X85584547Y-105048497D01*
X85725000Y-105111617D01*
X86059888Y-105267566D01*
X86346466Y-105415512D01*
X86540641Y-105532087D01*
X86586019Y-105567979D01*
X86608897Y-105599432D01*
X86626305Y-105651023D01*
X86637272Y-105732857D01*
X86640829Y-105855041D01*
X86636004Y-106027681D01*
X86621827Y-106260883D01*
X86597327Y-106564754D01*
X86561533Y-106949399D01*
X86513476Y-107424924D01*
X86452184Y-108001437D01*
X86376687Y-108689042D01*
X86286013Y-109497847D01*
X86179194Y-110437956D01*
X86055258Y-111519477D01*
X85913234Y-112752516D01*
X85810887Y-113638917D01*
X85678509Y-114780663D01*
X85550710Y-115875061D01*
X85428917Y-116910338D01*
X85314555Y-117874722D01*
X85209051Y-118756441D01*
X85113832Y-119543721D01*
X85030322Y-120224791D01*
X84959949Y-120787877D01*
X84904138Y-121221208D01*
X84864316Y-121513011D01*
X84841909Y-121651513D01*
X84839039Y-121661084D01*
X84761110Y-121726169D01*
X84627819Y-121739462D01*
X84424660Y-121695396D01*
X84137127Y-121588401D01*
X83750715Y-121412909D01*
X83250918Y-121163353D01*
X82623231Y-120834162D01*
X82465334Y-120749857D01*
X81514964Y-120239123D01*
X80705253Y-119799658D01*
X80037933Y-119432433D01*
X79514737Y-119138419D01*
X79137396Y-118918589D01*
X78907643Y-118773915D01*
X78829165Y-118709945D01*
X78830701Y-118612659D01*
X78853587Y-118362002D01*
X78895920Y-117972329D01*
X78955795Y-117457998D01*
X79031311Y-116833366D01*
X79120562Y-116112789D01*
X79221647Y-115310625D01*
X79332661Y-114441231D01*
X79451702Y-113518963D01*
X79576865Y-112558179D01*
X79706247Y-111573235D01*
X79837945Y-110578488D01*
X79970056Y-109588295D01*
X80100676Y-108617014D01*
X80227902Y-107679001D01*
X80349830Y-106788614D01*
X80464557Y-105960208D01*
X80570179Y-105208142D01*
X80664794Y-104546771D01*
X80746497Y-103990454D01*
X80813386Y-103553547D01*
X80863556Y-103250406D01*
X80895106Y-103095389D01*
X80901515Y-103078637D01*
X81038383Y-102973100D01*
X81107721Y-102954667D01*
X81209635Y-102990282D01*
G36*
X205792625Y-107682829D02*
X205832949Y-107710330D01*
X205859814Y-107773761D01*
X205893429Y-107921562D01*
X205934726Y-108161397D01*
X205984633Y-108500929D01*
X206044082Y-108947822D01*
X206114002Y-109509740D01*
X206195325Y-110194346D01*
X206288980Y-111009303D01*
X206395899Y-111962274D01*
X206517010Y-113060925D01*
X206653245Y-114312917D01*
X206801618Y-115689440D01*
X206923958Y-116832232D01*
X207040972Y-117932138D01*
X207151389Y-118976822D01*
X207253938Y-119953947D01*
X207347348Y-120851178D01*
X207430349Y-121656179D01*
X207501670Y-122356612D01*
X207560040Y-122940143D01*
X207604188Y-123394435D01*
X207632844Y-123707151D01*
X207644737Y-123865956D01*
X207645000Y-123876769D01*
X207645000Y-124210275D01*
X206988834Y-124511604D01*
X206424805Y-124767224D01*
X205820541Y-125035127D01*
X205196996Y-125306588D01*
X204575126Y-125572882D01*
X203975886Y-125825285D01*
X203420232Y-126055072D01*
X202929118Y-126253518D01*
X202523501Y-126411899D01*
X202224335Y-126521489D01*
X202052577Y-126573564D01*
X202028910Y-126576667D01*
X201849793Y-126552057D01*
X201769643Y-126506525D01*
X201753947Y-126410933D01*
X201724516Y-126160643D01*
X201682643Y-125769623D01*
X201629622Y-125251839D01*
X201566747Y-124621259D01*
X201495310Y-123891849D01*
X201416605Y-123077577D01*
X201331926Y-122192410D01*
X201242567Y-121250315D01*
X201149820Y-120265260D01*
X201054979Y-119251211D01*
X200959339Y-118222136D01*
X200864191Y-117192001D01*
X200770830Y-116174775D01*
X200680550Y-115184423D01*
X200594643Y-114234914D01*
X200514404Y-113340214D01*
X200441125Y-112514291D01*
X200376101Y-111771112D01*
X200320625Y-111124643D01*
X200275989Y-110588853D01*
X200243489Y-110177707D01*
X200224417Y-109905174D01*
X200220066Y-109785221D01*
X200220725Y-109781347D01*
X200315143Y-109703016D01*
X200528079Y-109592340D01*
X200817439Y-109470623D01*
X200884253Y-109445551D01*
X201135459Y-109351567D01*
X201515044Y-109207338D01*
X201993626Y-109024137D01*
X202541820Y-108813236D01*
X203130242Y-108585908D01*
X203607165Y-108400971D01*
X204244848Y-108154510D01*
X204743625Y-107965442D01*
X205121745Y-107828106D01*
X205397456Y-107736839D01*
X205589007Y-107685979D01*
X205714647Y-107669863D01*
X205792625Y-107682829D01*
X205792625Y-107682829D01*
G37*
X205792625Y-107682829D02*
X205832949Y-107710330D01*
X205859814Y-107773761D01*
X205893429Y-107921562D01*
X205934726Y-108161397D01*
X205984633Y-108500929D01*
X206044082Y-108947822D01*
X206114002Y-109509740D01*
X206195325Y-110194346D01*
X206288980Y-111009303D01*
X206395899Y-111962274D01*
X206517010Y-113060925D01*
X206653245Y-114312917D01*
X206801618Y-115689440D01*
X206923958Y-116832232D01*
X207040972Y-117932138D01*
X207151389Y-118976822D01*
X207253938Y-119953947D01*
X207347348Y-120851178D01*
X207430349Y-121656179D01*
X207501670Y-122356612D01*
X207560040Y-122940143D01*
X207604188Y-123394435D01*
X207632844Y-123707151D01*
X207644737Y-123865956D01*
X207645000Y-123876769D01*
X207645000Y-124210275D01*
X206988834Y-124511604D01*
X206424805Y-124767224D01*
X205820541Y-125035127D01*
X205196996Y-125306588D01*
X204575126Y-125572882D01*
X203975886Y-125825285D01*
X203420232Y-126055072D01*
X202929118Y-126253518D01*
X202523501Y-126411899D01*
X202224335Y-126521489D01*
X202052577Y-126573564D01*
X202028910Y-126576667D01*
X201849793Y-126552057D01*
X201769643Y-126506525D01*
X201753947Y-126410933D01*
X201724516Y-126160643D01*
X201682643Y-125769623D01*
X201629622Y-125251839D01*
X201566747Y-124621259D01*
X201495310Y-123891849D01*
X201416605Y-123077577D01*
X201331926Y-122192410D01*
X201242567Y-121250315D01*
X201149820Y-120265260D01*
X201054979Y-119251211D01*
X200959339Y-118222136D01*
X200864191Y-117192001D01*
X200770830Y-116174775D01*
X200680550Y-115184423D01*
X200594643Y-114234914D01*
X200514404Y-113340214D01*
X200441125Y-112514291D01*
X200376101Y-111771112D01*
X200320625Y-111124643D01*
X200275989Y-110588853D01*
X200243489Y-110177707D01*
X200224417Y-109905174D01*
X200220066Y-109785221D01*
X200220725Y-109781347D01*
X200315143Y-109703016D01*
X200528079Y-109592340D01*
X200817439Y-109470623D01*
X200884253Y-109445551D01*
X201135459Y-109351567D01*
X201515044Y-109207338D01*
X201993626Y-109024137D01*
X202541820Y-108813236D01*
X203130242Y-108585908D01*
X203607165Y-108400971D01*
X204244848Y-108154510D01*
X204743625Y-107965442D01*
X205121745Y-107828106D01*
X205397456Y-107736839D01*
X205589007Y-107685979D01*
X205714647Y-107669863D01*
X205792625Y-107682829D01*
G36*
X101472354Y-111372521D02*
X101720212Y-111434257D01*
X102082501Y-111531907D01*
X102535523Y-111658498D01*
X103055581Y-111807056D01*
X103618977Y-111970607D01*
X104202015Y-112142178D01*
X104780995Y-112314795D01*
X105332221Y-112481485D01*
X105831995Y-112635274D01*
X106256620Y-112769189D01*
X106582397Y-112876256D01*
X106785631Y-112949502D01*
X106785834Y-112949583D01*
X106941957Y-113083452D01*
X106977746Y-113261018D01*
X106972030Y-113435898D01*
X106954424Y-113758692D01*
X106925977Y-114215565D01*
X106887741Y-114792684D01*
X106840765Y-115476213D01*
X106786100Y-116252318D01*
X106724796Y-117107163D01*
X106657904Y-118026915D01*
X106586474Y-118997739D01*
X106511556Y-120005799D01*
X106434202Y-121037261D01*
X106355460Y-122078291D01*
X106276382Y-123115054D01*
X106198018Y-124133714D01*
X106121418Y-125120438D01*
X106047633Y-126061390D01*
X105977713Y-126942737D01*
X105912709Y-127750642D01*
X105853670Y-128471272D01*
X105801648Y-129090792D01*
X105757692Y-129595367D01*
X105722853Y-129971163D01*
X105698182Y-130204344D01*
X105685542Y-130280834D01*
X105619229Y-130336935D01*
X105518735Y-130365136D01*
X105366998Y-130361331D01*
X105146955Y-130321417D01*
X104841544Y-130241292D01*
X104433701Y-130116850D01*
X103906363Y-129943990D01*
X103242469Y-129718606D01*
X102997000Y-129634239D01*
X102192696Y-129356852D01*
X101533755Y-129128343D01*
X101005263Y-128942959D01*
X100592305Y-128794947D01*
X100279967Y-128678551D01*
X100053333Y-128588018D01*
X99897489Y-128517593D01*
X99797521Y-128461524D01*
X99738514Y-128414054D01*
X99705553Y-128369431D01*
X99702171Y-128363088D01*
X99699728Y-128262007D01*
X99711289Y-128006240D01*
X99735674Y-127609752D01*
X99771707Y-127086510D01*
X99818207Y-126450479D01*
X99873997Y-125715624D01*
X99937897Y-124895911D01*
X100008730Y-124005306D01*
X100085316Y-123057773D01*
X100166477Y-122067279D01*
X100251035Y-121047789D01*
X100337810Y-120013269D01*
X100425624Y-118977684D01*
X100513300Y-117954999D01*
X100599657Y-116959181D01*
X100683517Y-116004194D01*
X100763703Y-115104004D01*
X100839034Y-114272578D01*
X100908334Y-113523880D01*
X100970422Y-112871875D01*
X101024121Y-112330530D01*
X101068252Y-111913810D01*
X101101636Y-111635681D01*
X101123095Y-111510108D01*
X101124787Y-111506000D01*
X101260659Y-111387524D01*
X101362624Y-111353673D01*
X101472354Y-111372521D01*
X101472354Y-111372521D01*
G37*
X101472354Y-111372521D02*
X101720212Y-111434257D01*
X102082501Y-111531907D01*
X102535523Y-111658498D01*
X103055581Y-111807056D01*
X103618977Y-111970607D01*
X104202015Y-112142178D01*
X104780995Y-112314795D01*
X105332221Y-112481485D01*
X105831995Y-112635274D01*
X106256620Y-112769189D01*
X106582397Y-112876256D01*
X106785631Y-112949502D01*
X106785834Y-112949583D01*
X106941957Y-113083452D01*
X106977746Y-113261018D01*
X106972030Y-113435898D01*
X106954424Y-113758692D01*
X106925977Y-114215565D01*
X106887741Y-114792684D01*
X106840765Y-115476213D01*
X106786100Y-116252318D01*
X106724796Y-117107163D01*
X106657904Y-118026915D01*
X106586474Y-118997739D01*
X106511556Y-120005799D01*
X106434202Y-121037261D01*
X106355460Y-122078291D01*
X106276382Y-123115054D01*
X106198018Y-124133714D01*
X106121418Y-125120438D01*
X106047633Y-126061390D01*
X105977713Y-126942737D01*
X105912709Y-127750642D01*
X105853670Y-128471272D01*
X105801648Y-129090792D01*
X105757692Y-129595367D01*
X105722853Y-129971163D01*
X105698182Y-130204344D01*
X105685542Y-130280834D01*
X105619229Y-130336935D01*
X105518735Y-130365136D01*
X105366998Y-130361331D01*
X105146955Y-130321417D01*
X104841544Y-130241292D01*
X104433701Y-130116850D01*
X103906363Y-129943990D01*
X103242469Y-129718606D01*
X102997000Y-129634239D01*
X102192696Y-129356852D01*
X101533755Y-129128343D01*
X101005263Y-128942959D01*
X100592305Y-128794947D01*
X100279967Y-128678551D01*
X100053333Y-128588018D01*
X99897489Y-128517593D01*
X99797521Y-128461524D01*
X99738514Y-128414054D01*
X99705553Y-128369431D01*
X99702171Y-128363088D01*
X99699728Y-128262007D01*
X99711289Y-128006240D01*
X99735674Y-127609752D01*
X99771707Y-127086510D01*
X99818207Y-126450479D01*
X99873997Y-125715624D01*
X99937897Y-124895911D01*
X100008730Y-124005306D01*
X100085316Y-123057773D01*
X100166477Y-122067279D01*
X100251035Y-121047789D01*
X100337810Y-120013269D01*
X100425624Y-118977684D01*
X100513300Y-117954999D01*
X100599657Y-116959181D01*
X100683517Y-116004194D01*
X100763703Y-115104004D01*
X100839034Y-114272578D01*
X100908334Y-113523880D01*
X100970422Y-112871875D01*
X101024121Y-112330530D01*
X101068252Y-111913810D01*
X101101636Y-111635681D01*
X101123095Y-111510108D01*
X101124787Y-111506000D01*
X101260659Y-111387524D01*
X101362624Y-111353673D01*
X101472354Y-111372521D01*
G36*
X192411227Y-112396976D02*
X192558793Y-112514871D01*
X192613122Y-112633477D01*
X192625166Y-112742433D01*
X192649428Y-113008491D01*
X192684950Y-113419931D01*
X192730778Y-113965035D01*
X192785954Y-114632084D01*
X192849524Y-115409358D01*
X192920530Y-116285141D01*
X192998017Y-117247711D01*
X193081028Y-118285351D01*
X193168608Y-119386342D01*
X193259799Y-120538965D01*
X193307408Y-121143139D01*
X193428055Y-122686178D01*
X193534115Y-124064013D01*
X193625823Y-125280122D01*
X193703414Y-126337985D01*
X193767121Y-127241080D01*
X193817180Y-127992888D01*
X193853824Y-128596886D01*
X193877288Y-129056555D01*
X193887806Y-129375372D01*
X193885613Y-129556817D01*
X193877327Y-129602992D01*
X193746520Y-129715898D01*
X193526555Y-129829630D01*
X193458404Y-129855777D01*
X193143968Y-129962869D01*
X192727081Y-130099187D01*
X192231348Y-130257534D01*
X191680373Y-130430714D01*
X191097763Y-130611529D01*
X190507121Y-130792784D01*
X189932053Y-130967282D01*
X189396164Y-131127826D01*
X188923059Y-131267219D01*
X188536344Y-131378265D01*
X188259623Y-131453768D01*
X188116502Y-131486531D01*
X188106837Y-131487334D01*
X187914066Y-131411420D01*
X187838314Y-131296834D01*
X187822321Y-131187245D01*
X187796393Y-130920280D01*
X187761374Y-130507552D01*
X187718108Y-129960673D01*
X187667441Y-129291257D01*
X187610217Y-128510918D01*
X187547280Y-127631269D01*
X187479475Y-126663922D01*
X187407647Y-125620491D01*
X187332640Y-124512589D01*
X187255298Y-123351830D01*
X187205822Y-122599665D01*
X187112258Y-121164175D01*
X187030045Y-119889056D01*
X186958736Y-118765757D01*
X186897883Y-117785729D01*
X186847040Y-116940421D01*
X186805758Y-116221281D01*
X186773591Y-115619761D01*
X186750091Y-115127308D01*
X186734810Y-114735373D01*
X186727301Y-114435405D01*
X186727118Y-114218854D01*
X186733811Y-114077168D01*
X186746935Y-114001798D01*
X186755167Y-113986881D01*
X186867220Y-113932105D01*
X187115661Y-113843077D01*
X187473096Y-113728557D01*
X187912133Y-113597308D01*
X188405380Y-113458091D01*
X188426641Y-113452264D01*
X189020254Y-113287984D01*
X189655006Y-113109297D01*
X190274957Y-112932145D01*
X190824167Y-112772472D01*
X191120257Y-112684547D01*
X191543290Y-112564334D01*
X191918669Y-112470594D01*
X192211732Y-112411049D01*
X192387819Y-112393418D01*
X192411227Y-112396976D01*
X192411227Y-112396976D01*
G37*
X192411227Y-112396976D02*
X192558793Y-112514871D01*
X192613122Y-112633477D01*
X192625166Y-112742433D01*
X192649428Y-113008491D01*
X192684950Y-113419931D01*
X192730778Y-113965035D01*
X192785954Y-114632084D01*
X192849524Y-115409358D01*
X192920530Y-116285141D01*
X192998017Y-117247711D01*
X193081028Y-118285351D01*
X193168608Y-119386342D01*
X193259799Y-120538965D01*
X193307408Y-121143139D01*
X193428055Y-122686178D01*
X193534115Y-124064013D01*
X193625823Y-125280122D01*
X193703414Y-126337985D01*
X193767121Y-127241080D01*
X193817180Y-127992888D01*
X193853824Y-128596886D01*
X193877288Y-129056555D01*
X193887806Y-129375372D01*
X193885613Y-129556817D01*
X193877327Y-129602992D01*
X193746520Y-129715898D01*
X193526555Y-129829630D01*
X193458404Y-129855777D01*
X193143968Y-129962869D01*
X192727081Y-130099187D01*
X192231348Y-130257534D01*
X191680373Y-130430714D01*
X191097763Y-130611529D01*
X190507121Y-130792784D01*
X189932053Y-130967282D01*
X189396164Y-131127826D01*
X188923059Y-131267219D01*
X188536344Y-131378265D01*
X188259623Y-131453768D01*
X188116502Y-131486531D01*
X188106837Y-131487334D01*
X187914066Y-131411420D01*
X187838314Y-131296834D01*
X187822321Y-131187245D01*
X187796393Y-130920280D01*
X187761374Y-130507552D01*
X187718108Y-129960673D01*
X187667441Y-129291257D01*
X187610217Y-128510918D01*
X187547280Y-127631269D01*
X187479475Y-126663922D01*
X187407647Y-125620491D01*
X187332640Y-124512589D01*
X187255298Y-123351830D01*
X187205822Y-122599665D01*
X187112258Y-121164175D01*
X187030045Y-119889056D01*
X186958736Y-118765757D01*
X186897883Y-117785729D01*
X186847040Y-116940421D01*
X186805758Y-116221281D01*
X186773591Y-115619761D01*
X186750091Y-115127308D01*
X186734810Y-114735373D01*
X186727301Y-114435405D01*
X186727118Y-114218854D01*
X186733811Y-114077168D01*
X186746935Y-114001798D01*
X186755167Y-113986881D01*
X186867220Y-113932105D01*
X187115661Y-113843077D01*
X187473096Y-113728557D01*
X187912133Y-113597308D01*
X188405380Y-113458091D01*
X188426641Y-113452264D01*
X189020254Y-113287984D01*
X189655006Y-113109297D01*
X190274957Y-112932145D01*
X190824167Y-112772472D01*
X191120257Y-112684547D01*
X191543290Y-112564334D01*
X191918669Y-112470594D01*
X192211732Y-112411049D01*
X192387819Y-112393418D01*
X192411227Y-112396976D01*
G36*
X235178903Y-91624106D02*
X235272166Y-91653083D01*
X235352968Y-91724683D01*
X235428399Y-91859256D01*
X235505554Y-92077152D01*
X235591526Y-92398720D01*
X235693406Y-92844311D01*
X235818289Y-93434275D01*
X235830684Y-93494108D01*
X236156881Y-95285511D01*
X236423759Y-97214496D01*
X236628440Y-99258992D01*
X236691602Y-100094731D01*
X236719412Y-100633369D01*
X236739927Y-101315375D01*
X236753448Y-102114953D01*
X236760275Y-103006309D01*
X236760708Y-103963647D01*
X236755048Y-104961172D01*
X236743593Y-105973089D01*
X236726646Y-106973603D01*
X236704504Y-107936918D01*
X236677470Y-108837239D01*
X236645843Y-109648772D01*
X236609923Y-110345720D01*
X236570010Y-110902289D01*
X236565221Y-110955667D01*
X236224661Y-114105320D01*
X235796116Y-117112094D01*
X235279664Y-119975655D01*
X234675379Y-122695670D01*
X233983338Y-125271804D01*
X233203617Y-127703723D01*
X232336292Y-129991092D01*
X232099058Y-130556000D01*
X231927662Y-130947937D01*
X231768549Y-131297684D01*
X231639341Y-131567388D01*
X231557663Y-131719199D01*
X231557032Y-131720167D01*
X231398179Y-131856727D01*
X231195699Y-131910745D01*
X231019137Y-131870955D01*
X230964580Y-131816152D01*
X230947656Y-131726722D01*
X230906900Y-131479466D01*
X230843774Y-131083989D01*
X230759740Y-130549898D01*
X230656262Y-129886801D01*
X230534801Y-129104302D01*
X230396821Y-128212010D01*
X230243784Y-127219530D01*
X230077152Y-126136469D01*
X229898388Y-124972433D01*
X229708955Y-123737030D01*
X229510315Y-122439865D01*
X229303931Y-121090546D01*
X229091265Y-119698678D01*
X228873779Y-118273869D01*
X228652937Y-116825724D01*
X228430201Y-115363851D01*
X228207033Y-113897856D01*
X227984896Y-112437345D01*
X227765253Y-110991925D01*
X227549565Y-109571203D01*
X227339297Y-108184786D01*
X227135909Y-106842278D01*
X226940865Y-105553289D01*
X226755628Y-104327422D01*
X226581659Y-103174287D01*
X226420422Y-102103488D01*
X226273378Y-101124633D01*
X226141991Y-100247327D01*
X226027723Y-99481179D01*
X225932037Y-98835793D01*
X225856394Y-98320777D01*
X225802259Y-97945738D01*
X225771092Y-97720281D01*
X225763667Y-97654701D01*
X225832073Y-97568640D01*
X226016593Y-97421977D01*
X226286182Y-97237882D01*
X226504500Y-97101789D01*
X227211643Y-96670300D01*
X228027574Y-96161845D01*
X228921905Y-95595920D01*
X229864253Y-94992020D01*
X230824232Y-94369642D01*
X231771456Y-93748281D01*
X232675540Y-93147433D01*
X232850639Y-93030008D01*
X233534229Y-92574694D01*
X234088807Y-92214156D01*
X234522321Y-91943594D01*
X234842722Y-91758208D01*
X235057959Y-91653198D01*
X235175980Y-91623763D01*
X235178903Y-91624106D01*
X235178903Y-91624106D01*
G37*
X235178903Y-91624106D02*
X235272166Y-91653083D01*
X235352968Y-91724683D01*
X235428399Y-91859256D01*
X235505554Y-92077152D01*
X235591526Y-92398720D01*
X235693406Y-92844311D01*
X235818289Y-93434275D01*
X235830684Y-93494108D01*
X236156881Y-95285511D01*
X236423759Y-97214496D01*
X236628440Y-99258992D01*
X236691602Y-100094731D01*
X236719412Y-100633369D01*
X236739927Y-101315375D01*
X236753448Y-102114953D01*
X236760275Y-103006309D01*
X236760708Y-103963647D01*
X236755048Y-104961172D01*
X236743593Y-105973089D01*
X236726646Y-106973603D01*
X236704504Y-107936918D01*
X236677470Y-108837239D01*
X236645843Y-109648772D01*
X236609923Y-110345720D01*
X236570010Y-110902289D01*
X236565221Y-110955667D01*
X236224661Y-114105320D01*
X235796116Y-117112094D01*
X235279664Y-119975655D01*
X234675379Y-122695670D01*
X233983338Y-125271804D01*
X233203617Y-127703723D01*
X232336292Y-129991092D01*
X232099058Y-130556000D01*
X231927662Y-130947937D01*
X231768549Y-131297684D01*
X231639341Y-131567388D01*
X231557663Y-131719199D01*
X231557032Y-131720167D01*
X231398179Y-131856727D01*
X231195699Y-131910745D01*
X231019137Y-131870955D01*
X230964580Y-131816152D01*
X230947656Y-131726722D01*
X230906900Y-131479466D01*
X230843774Y-131083989D01*
X230759740Y-130549898D01*
X230656262Y-129886801D01*
X230534801Y-129104302D01*
X230396821Y-128212010D01*
X230243784Y-127219530D01*
X230077152Y-126136469D01*
X229898388Y-124972433D01*
X229708955Y-123737030D01*
X229510315Y-122439865D01*
X229303931Y-121090546D01*
X229091265Y-119698678D01*
X228873779Y-118273869D01*
X228652937Y-116825724D01*
X228430201Y-115363851D01*
X228207033Y-113897856D01*
X227984896Y-112437345D01*
X227765253Y-110991925D01*
X227549565Y-109571203D01*
X227339297Y-108184786D01*
X227135909Y-106842278D01*
X226940865Y-105553289D01*
X226755628Y-104327422D01*
X226581659Y-103174287D01*
X226420422Y-102103488D01*
X226273378Y-101124633D01*
X226141991Y-100247327D01*
X226027723Y-99481179D01*
X225932037Y-98835793D01*
X225856394Y-98320777D01*
X225802259Y-97945738D01*
X225771092Y-97720281D01*
X225763667Y-97654701D01*
X225832073Y-97568640D01*
X226016593Y-97421977D01*
X226286182Y-97237882D01*
X226504500Y-97101789D01*
X227211643Y-96670300D01*
X228027574Y-96161845D01*
X228921905Y-95595920D01*
X229864253Y-94992020D01*
X230824232Y-94369642D01*
X231771456Y-93748281D01*
X232675540Y-93147433D01*
X232850639Y-93030008D01*
X233534229Y-92574694D01*
X234088807Y-92214156D01*
X234522321Y-91943594D01*
X234842722Y-91758208D01*
X235057959Y-91653198D01*
X235175980Y-91623763D01*
X235178903Y-91624106D01*
G36*
X62017587Y-91644607D02*
X62254264Y-91747101D01*
X62575675Y-91930200D01*
X62997669Y-92199597D01*
X63536098Y-92560986D01*
X63724483Y-92689409D01*
X64246313Y-93044241D01*
X64782319Y-93405720D01*
X65295794Y-93749303D01*
X65750034Y-94050448D01*
X66108333Y-94284613D01*
X66161225Y-94318667D01*
X66542949Y-94575881D01*
X66833184Y-94796608D01*
X67010789Y-94963854D01*
X67056434Y-95038334D01*
X67048556Y-95145038D01*
X67014978Y-95406793D01*
X66957560Y-95811575D01*
X66878164Y-96347359D01*
X66778650Y-97002121D01*
X66660879Y-97763837D01*
X66526710Y-98620482D01*
X66378004Y-99560032D01*
X66216622Y-100570462D01*
X66044424Y-101639749D01*
X65863272Y-102755867D01*
X65844669Y-102870000D01*
X64595287Y-110532334D01*
X65571644Y-111239105D01*
X66008315Y-111552734D01*
X66527267Y-111921618D01*
X67071160Y-112305206D01*
X67582653Y-112662946D01*
X67712167Y-112752897D01*
X68190946Y-113093873D01*
X68549596Y-113369051D01*
X68780093Y-113571847D01*
X68874415Y-113695682D01*
X68876334Y-113707908D01*
X68863869Y-113817369D01*
X68827819Y-114079527D01*
X68770195Y-114481156D01*
X68693011Y-115009029D01*
X68598279Y-115649920D01*
X68488013Y-116390604D01*
X68364226Y-117217852D01*
X68228930Y-118118440D01*
X68084138Y-119079140D01*
X67931864Y-120086728D01*
X67774121Y-121127975D01*
X67612921Y-122189656D01*
X67450277Y-123258545D01*
X67288203Y-124321415D01*
X67128711Y-125365040D01*
X66973815Y-126376193D01*
X66825526Y-127341649D01*
X66685859Y-128248181D01*
X66556827Y-129082562D01*
X66440441Y-129831567D01*
X66338716Y-130481969D01*
X66253664Y-131020541D01*
X66187299Y-131434058D01*
X66141632Y-131709293D01*
X66118678Y-131833020D01*
X66116955Y-131838478D01*
X66008658Y-131890188D01*
X65821199Y-131910667D01*
X65692750Y-131898045D01*
X65591261Y-131839758D01*
X65490921Y-131705177D01*
X65365917Y-131463669D01*
X65268247Y-131254500D01*
X64417892Y-129254647D01*
X63637642Y-127107527D01*
X62929296Y-124820818D01*
X62294651Y-122402196D01*
X61735504Y-119859338D01*
X61253653Y-117199923D01*
X60850895Y-114431627D01*
X60529028Y-111562127D01*
X60446483Y-110659334D01*
X60400345Y-110016781D01*
X60359751Y-109234999D01*
X60325092Y-108344012D01*
X60296760Y-107373845D01*
X60275147Y-106354522D01*
X60260644Y-105316069D01*
X60253643Y-104288511D01*
X60254536Y-103301873D01*
X60263714Y-102386179D01*
X60281569Y-101571454D01*
X60308493Y-100887724D01*
X60317022Y-100735199D01*
X60457023Y-98876816D01*
X60647704Y-97086988D01*
X60885795Y-95388137D01*
X61168027Y-93802689D01*
X61491132Y-92353068D01*
X61601205Y-91926834D01*
X61657453Y-91763832D01*
X61735032Y-91658665D01*
X61849793Y-91617026D01*
X62017587Y-91644607D01*
X62017587Y-91644607D01*
G37*
X62017587Y-91644607D02*
X62254264Y-91747101D01*
X62575675Y-91930200D01*
X62997669Y-92199597D01*
X63536098Y-92560986D01*
X63724483Y-92689409D01*
X64246313Y-93044241D01*
X64782319Y-93405720D01*
X65295794Y-93749303D01*
X65750034Y-94050448D01*
X66108333Y-94284613D01*
X66161225Y-94318667D01*
X66542949Y-94575881D01*
X66833184Y-94796608D01*
X67010789Y-94963854D01*
X67056434Y-95038334D01*
X67048556Y-95145038D01*
X67014978Y-95406793D01*
X66957560Y-95811575D01*
X66878164Y-96347359D01*
X66778650Y-97002121D01*
X66660879Y-97763837D01*
X66526710Y-98620482D01*
X66378004Y-99560032D01*
X66216622Y-100570462D01*
X66044424Y-101639749D01*
X65863272Y-102755867D01*
X65844669Y-102870000D01*
X64595287Y-110532334D01*
X65571644Y-111239105D01*
X66008315Y-111552734D01*
X66527267Y-111921618D01*
X67071160Y-112305206D01*
X67582653Y-112662946D01*
X67712167Y-112752897D01*
X68190946Y-113093873D01*
X68549596Y-113369051D01*
X68780093Y-113571847D01*
X68874415Y-113695682D01*
X68876334Y-113707908D01*
X68863869Y-113817369D01*
X68827819Y-114079527D01*
X68770195Y-114481156D01*
X68693011Y-115009029D01*
X68598279Y-115649920D01*
X68488013Y-116390604D01*
X68364226Y-117217852D01*
X68228930Y-118118440D01*
X68084138Y-119079140D01*
X67931864Y-120086728D01*
X67774121Y-121127975D01*
X67612921Y-122189656D01*
X67450277Y-123258545D01*
X67288203Y-124321415D01*
X67128711Y-125365040D01*
X66973815Y-126376193D01*
X66825526Y-127341649D01*
X66685859Y-128248181D01*
X66556827Y-129082562D01*
X66440441Y-129831567D01*
X66338716Y-130481969D01*
X66253664Y-131020541D01*
X66187299Y-131434058D01*
X66141632Y-131709293D01*
X66118678Y-131833020D01*
X66116955Y-131838478D01*
X66008658Y-131890188D01*
X65821199Y-131910667D01*
X65692750Y-131898045D01*
X65591261Y-131839758D01*
X65490921Y-131705177D01*
X65365917Y-131463669D01*
X65268247Y-131254500D01*
X64417892Y-129254647D01*
X63637642Y-127107527D01*
X62929296Y-124820818D01*
X62294651Y-122402196D01*
X61735504Y-119859338D01*
X61253653Y-117199923D01*
X60850895Y-114431627D01*
X60529028Y-111562127D01*
X60446483Y-110659334D01*
X60400345Y-110016781D01*
X60359751Y-109234999D01*
X60325092Y-108344012D01*
X60296760Y-107373845D01*
X60275147Y-106354522D01*
X60260644Y-105316069D01*
X60253643Y-104288511D01*
X60254536Y-103301873D01*
X60263714Y-102386179D01*
X60281569Y-101571454D01*
X60308493Y-100887724D01*
X60317022Y-100735199D01*
X60457023Y-98876816D01*
X60647704Y-97086988D01*
X60885795Y-95388137D01*
X61168027Y-93802689D01*
X61491132Y-92353068D01*
X61601205Y-91926834D01*
X61657453Y-91763832D01*
X61735032Y-91658665D01*
X61849793Y-91617026D01*
X62017587Y-91644607D01*
G36*
X115419730Y-115141020D02*
X115460004Y-115151530D01*
X115636576Y-115193823D01*
X115954080Y-115264345D01*
X116387475Y-115357759D01*
X116911720Y-115468726D01*
X117501775Y-115591910D01*
X118132599Y-115721972D01*
X118225093Y-115740907D01*
X118842519Y-115869449D01*
X119407012Y-115991302D01*
X119896905Y-116101442D01*
X120290528Y-116194847D01*
X120566212Y-116266494D01*
X120702288Y-116311361D01*
X120711400Y-116317200D01*
X120722926Y-116415608D01*
X120725652Y-116669465D01*
X120720229Y-117065150D01*
X120707309Y-117589042D01*
X120687544Y-118227522D01*
X120661585Y-118966967D01*
X120630083Y-119793758D01*
X120593692Y-120694274D01*
X120553061Y-121654894D01*
X120508843Y-122661998D01*
X120461690Y-123701966D01*
X120412252Y-124761175D01*
X120361183Y-125826007D01*
X120309133Y-126882839D01*
X120256753Y-127918053D01*
X120204697Y-128918026D01*
X120153614Y-129869139D01*
X120104158Y-130757770D01*
X120056979Y-131570299D01*
X120012730Y-132293106D01*
X119972061Y-132912570D01*
X119935625Y-133415070D01*
X119904073Y-133786986D01*
X119878057Y-134014696D01*
X119861384Y-134084188D01*
X119789662Y-134143625D01*
X119699835Y-134175441D01*
X119562565Y-134177240D01*
X119348509Y-134146628D01*
X119028328Y-134081212D01*
X118575667Y-133979281D01*
X117498973Y-133731791D01*
X116578868Y-133517767D01*
X115806420Y-133334960D01*
X115172695Y-133181119D01*
X114668760Y-133053995D01*
X114285679Y-132951336D01*
X114014521Y-132870894D01*
X113846351Y-132810417D01*
X113774393Y-132769965D01*
X113696081Y-132610256D01*
X113690701Y-132339832D01*
X113699205Y-132258199D01*
X113710702Y-132119099D01*
X113731131Y-131823196D01*
X113759749Y-131382745D01*
X113795811Y-130810001D01*
X113838573Y-130117218D01*
X113887291Y-129316650D01*
X113941221Y-128420551D01*
X113999618Y-127441176D01*
X114061739Y-126390780D01*
X114126840Y-125281616D01*
X114194176Y-124125939D01*
X114218987Y-123698000D01*
X114286663Y-122533802D01*
X114352198Y-121415377D01*
X114414867Y-120354588D01*
X114473948Y-119363294D01*
X114528716Y-118453356D01*
X114578447Y-117636634D01*
X114622417Y-116924990D01*
X114659901Y-116330283D01*
X114690176Y-115864374D01*
X114712518Y-115539123D01*
X114726202Y-115366392D01*
X114729060Y-115342810D01*
X114837187Y-115160762D01*
X115066814Y-115093655D01*
X115419730Y-115141020D01*
X115419730Y-115141020D01*
G37*
X115419730Y-115141020D02*
X115460004Y-115151530D01*
X115636576Y-115193823D01*
X115954080Y-115264345D01*
X116387475Y-115357759D01*
X116911720Y-115468726D01*
X117501775Y-115591910D01*
X118132599Y-115721972D01*
X118225093Y-115740907D01*
X118842519Y-115869449D01*
X119407012Y-115991302D01*
X119896905Y-116101442D01*
X120290528Y-116194847D01*
X120566212Y-116266494D01*
X120702288Y-116311361D01*
X120711400Y-116317200D01*
X120722926Y-116415608D01*
X120725652Y-116669465D01*
X120720229Y-117065150D01*
X120707309Y-117589042D01*
X120687544Y-118227522D01*
X120661585Y-118966967D01*
X120630083Y-119793758D01*
X120593692Y-120694274D01*
X120553061Y-121654894D01*
X120508843Y-122661998D01*
X120461690Y-123701966D01*
X120412252Y-124761175D01*
X120361183Y-125826007D01*
X120309133Y-126882839D01*
X120256753Y-127918053D01*
X120204697Y-128918026D01*
X120153614Y-129869139D01*
X120104158Y-130757770D01*
X120056979Y-131570299D01*
X120012730Y-132293106D01*
X119972061Y-132912570D01*
X119935625Y-133415070D01*
X119904073Y-133786986D01*
X119878057Y-134014696D01*
X119861384Y-134084188D01*
X119789662Y-134143625D01*
X119699835Y-134175441D01*
X119562565Y-134177240D01*
X119348509Y-134146628D01*
X119028328Y-134081212D01*
X118575667Y-133979281D01*
X117498973Y-133731791D01*
X116578868Y-133517767D01*
X115806420Y-133334960D01*
X115172695Y-133181119D01*
X114668760Y-133053995D01*
X114285679Y-132951336D01*
X114014521Y-132870894D01*
X113846351Y-132810417D01*
X113774393Y-132769965D01*
X113696081Y-132610256D01*
X113690701Y-132339832D01*
X113699205Y-132258199D01*
X113710702Y-132119099D01*
X113731131Y-131823196D01*
X113759749Y-131382745D01*
X113795811Y-130810001D01*
X113838573Y-130117218D01*
X113887291Y-129316650D01*
X113941221Y-128420551D01*
X113999618Y-127441176D01*
X114061739Y-126390780D01*
X114126840Y-125281616D01*
X114194176Y-124125939D01*
X114218987Y-123698000D01*
X114286663Y-122533802D01*
X114352198Y-121415377D01*
X114414867Y-120354588D01*
X114473948Y-119363294D01*
X114528716Y-118453356D01*
X114578447Y-117636634D01*
X114622417Y-116924990D01*
X114659901Y-116330283D01*
X114690176Y-115864374D01*
X114712518Y-115539123D01*
X114726202Y-115366392D01*
X114729060Y-115342810D01*
X114837187Y-115160762D01*
X115066814Y-115093655D01*
X115419730Y-115141020D01*
G36*
X171314000Y-117142415D02*
X171425885Y-117196058D01*
X171450013Y-117225491D01*
X171472631Y-117282374D01*
X171494280Y-117376333D01*
X171515500Y-117516998D01*
X171536834Y-117713995D01*
X171558821Y-117976954D01*
X171582004Y-118315501D01*
X171606922Y-118739265D01*
X171634118Y-119257874D01*
X171664132Y-119880954D01*
X171697505Y-120618136D01*
X171734778Y-121479045D01*
X171776492Y-122473311D01*
X171823188Y-123610560D01*
X171875408Y-124900422D01*
X171916968Y-125934950D01*
X171964708Y-127135130D01*
X172010007Y-128291659D01*
X172052441Y-129392793D01*
X172091591Y-130426788D01*
X172127034Y-131381899D01*
X172158349Y-132246380D01*
X172185115Y-133008488D01*
X172206911Y-133656476D01*
X172223315Y-134178601D01*
X172233906Y-134563118D01*
X172238262Y-134798282D01*
X172237416Y-134867284D01*
X172216009Y-135034071D01*
X172160137Y-135134258D01*
X172029465Y-135197884D01*
X171783655Y-135254988D01*
X171692401Y-135273167D01*
X171471804Y-135312149D01*
X171110975Y-135370364D01*
X170637390Y-135443629D01*
X170078523Y-135527759D01*
X169461849Y-135618569D01*
X168814841Y-135711875D01*
X168771401Y-135718067D01*
X168140370Y-135808153D01*
X167553125Y-135892364D01*
X167033747Y-135967218D01*
X166606314Y-136029232D01*
X166294906Y-136074924D01*
X166123604Y-136100811D01*
X166111887Y-136102704D01*
X165875586Y-136099544D01*
X165705712Y-136037009D01*
X165681690Y-136010258D01*
X165659646Y-135960413D01*
X165639161Y-135877911D01*
X165619817Y-135753191D01*
X165601195Y-135576691D01*
X165582876Y-135338849D01*
X165564442Y-135030102D01*
X165545474Y-134640890D01*
X165525553Y-134161649D01*
X165504261Y-133582819D01*
X165481179Y-132894837D01*
X165455887Y-132088141D01*
X165427968Y-131153170D01*
X165397003Y-130080361D01*
X165362572Y-128860153D01*
X165324258Y-127482984D01*
X165312451Y-127056139D01*
X165279403Y-125843251D01*
X165248543Y-124677025D01*
X165220119Y-123568730D01*
X165194381Y-122529637D01*
X165171576Y-121571016D01*
X165151954Y-120704137D01*
X165135762Y-119940270D01*
X165123249Y-119290684D01*
X165114664Y-118766650D01*
X165110255Y-118379439D01*
X165110271Y-118140319D01*
X165114132Y-118061371D01*
X165165205Y-117984892D01*
X165271032Y-117928295D01*
X165463312Y-117882969D01*
X165773743Y-117840304D01*
X166031334Y-117812253D01*
X166294201Y-117782432D01*
X166674238Y-117735854D01*
X167145039Y-117676068D01*
X167680198Y-117606619D01*
X168253310Y-117531055D01*
X168837971Y-117452923D01*
X169407775Y-117375770D01*
X169936316Y-117303143D01*
X170397191Y-117238589D01*
X170763993Y-117185655D01*
X171010317Y-117147888D01*
X171102792Y-117131002D01*
X171314000Y-117142415D01*
X171314000Y-117142415D01*
G37*
X171314000Y-117142415D02*
X171425885Y-117196058D01*
X171450013Y-117225491D01*
X171472631Y-117282374D01*
X171494280Y-117376333D01*
X171515500Y-117516998D01*
X171536834Y-117713995D01*
X171558821Y-117976954D01*
X171582004Y-118315501D01*
X171606922Y-118739265D01*
X171634118Y-119257874D01*
X171664132Y-119880954D01*
X171697505Y-120618136D01*
X171734778Y-121479045D01*
X171776492Y-122473311D01*
X171823188Y-123610560D01*
X171875408Y-124900422D01*
X171916968Y-125934950D01*
X171964708Y-127135130D01*
X172010007Y-128291659D01*
X172052441Y-129392793D01*
X172091591Y-130426788D01*
X172127034Y-131381899D01*
X172158349Y-132246380D01*
X172185115Y-133008488D01*
X172206911Y-133656476D01*
X172223315Y-134178601D01*
X172233906Y-134563118D01*
X172238262Y-134798282D01*
X172237416Y-134867284D01*
X172216009Y-135034071D01*
X172160137Y-135134258D01*
X172029465Y-135197884D01*
X171783655Y-135254988D01*
X171692401Y-135273167D01*
X171471804Y-135312149D01*
X171110975Y-135370364D01*
X170637390Y-135443629D01*
X170078523Y-135527759D01*
X169461849Y-135618569D01*
X168814841Y-135711875D01*
X168771401Y-135718067D01*
X168140370Y-135808153D01*
X167553125Y-135892364D01*
X167033747Y-135967218D01*
X166606314Y-136029232D01*
X166294906Y-136074924D01*
X166123604Y-136100811D01*
X166111887Y-136102704D01*
X165875586Y-136099544D01*
X165705712Y-136037009D01*
X165681690Y-136010258D01*
X165659646Y-135960413D01*
X165639161Y-135877911D01*
X165619817Y-135753191D01*
X165601195Y-135576691D01*
X165582876Y-135338849D01*
X165564442Y-135030102D01*
X165545474Y-134640890D01*
X165525553Y-134161649D01*
X165504261Y-133582819D01*
X165481179Y-132894837D01*
X165455887Y-132088141D01*
X165427968Y-131153170D01*
X165397003Y-130080361D01*
X165362572Y-128860153D01*
X165324258Y-127482984D01*
X165312451Y-127056139D01*
X165279403Y-125843251D01*
X165248543Y-124677025D01*
X165220119Y-123568730D01*
X165194381Y-122529637D01*
X165171576Y-121571016D01*
X165151954Y-120704137D01*
X165135762Y-119940270D01*
X165123249Y-119290684D01*
X165114664Y-118766650D01*
X165110255Y-118379439D01*
X165110271Y-118140319D01*
X165114132Y-118061371D01*
X165165205Y-117984892D01*
X165271032Y-117928295D01*
X165463312Y-117882969D01*
X165773743Y-117840304D01*
X166031334Y-117812253D01*
X166294201Y-117782432D01*
X166674238Y-117735854D01*
X167145039Y-117676068D01*
X167680198Y-117606619D01*
X168253310Y-117531055D01*
X168837971Y-117452923D01*
X169407775Y-117375770D01*
X169936316Y-117303143D01*
X170397191Y-117238589D01*
X170763993Y-117185655D01*
X171010317Y-117147888D01*
X171102792Y-117131002D01*
X171314000Y-117142415D01*
G36*
X129379704Y-117617379D02*
X129738417Y-117651060D01*
X130005667Y-117684963D01*
X130248670Y-117716905D01*
X130628068Y-117762791D01*
X131111843Y-117818935D01*
X131667977Y-117881652D01*
X132264452Y-117947258D01*
X132587454Y-117982096D01*
X133258177Y-118057887D01*
X133820709Y-118129605D01*
X134260605Y-118195061D01*
X134563422Y-118252066D01*
X134714715Y-118298431D01*
X134725406Y-118306120D01*
X134740894Y-118406553D01*
X134751428Y-118662685D01*
X134757311Y-119060965D01*
X134758846Y-119587841D01*
X134756334Y-120229762D01*
X134750078Y-120973175D01*
X134740379Y-121804529D01*
X134727542Y-122710272D01*
X134711867Y-123676852D01*
X134693657Y-124690717D01*
X134673214Y-125738316D01*
X134650840Y-126806095D01*
X134626838Y-127880505D01*
X134601511Y-128947992D01*
X134575159Y-129995005D01*
X134548086Y-131007993D01*
X134520594Y-131973402D01*
X134492985Y-132877682D01*
X134465561Y-133707281D01*
X134438626Y-134448646D01*
X134412480Y-135088227D01*
X134387426Y-135612470D01*
X134363766Y-136007825D01*
X134341804Y-136260738D01*
X134322786Y-136356728D01*
X134291767Y-136395817D01*
X134258892Y-136426602D01*
X134207836Y-136447808D01*
X134122275Y-136458157D01*
X133985881Y-136456375D01*
X133782331Y-136441184D01*
X133495298Y-136411309D01*
X133108457Y-136365474D01*
X132605482Y-136302403D01*
X131970049Y-136220820D01*
X131185831Y-136119448D01*
X131030834Y-136099417D01*
X130246245Y-135997271D01*
X129613421Y-135911949D01*
X129116067Y-135839517D01*
X128737891Y-135776044D01*
X128462601Y-135717594D01*
X128273903Y-135660234D01*
X128155506Y-135600031D01*
X128091117Y-135533052D01*
X128064442Y-135455362D01*
X128059296Y-135382000D01*
X128061431Y-135231187D01*
X128069319Y-134929184D01*
X128082462Y-134489714D01*
X128100365Y-133926500D01*
X128122532Y-133253266D01*
X128148465Y-132483732D01*
X128177670Y-131631624D01*
X128209649Y-130710662D01*
X128243906Y-129734570D01*
X128279945Y-128717071D01*
X128317270Y-127671887D01*
X128355384Y-126612742D01*
X128393791Y-125553357D01*
X128431995Y-124507456D01*
X128469499Y-123488762D01*
X128505807Y-122510997D01*
X128540423Y-121587883D01*
X128572851Y-120733145D01*
X128602593Y-119960504D01*
X128629155Y-119283683D01*
X128652038Y-118716406D01*
X128670748Y-118272394D01*
X128684788Y-117965370D01*
X128693662Y-117809059D01*
X128695454Y-117792500D01*
X128750409Y-117669727D01*
X128874301Y-117614866D01*
X129097113Y-117603677D01*
X129379704Y-117617379D01*
X129379704Y-117617379D01*
G37*
X129379704Y-117617379D02*
X129738417Y-117651060D01*
X130005667Y-117684963D01*
X130248670Y-117716905D01*
X130628068Y-117762791D01*
X131111843Y-117818935D01*
X131667977Y-117881652D01*
X132264452Y-117947258D01*
X132587454Y-117982096D01*
X133258177Y-118057887D01*
X133820709Y-118129605D01*
X134260605Y-118195061D01*
X134563422Y-118252066D01*
X134714715Y-118298431D01*
X134725406Y-118306120D01*
X134740894Y-118406553D01*
X134751428Y-118662685D01*
X134757311Y-119060965D01*
X134758846Y-119587841D01*
X134756334Y-120229762D01*
X134750078Y-120973175D01*
X134740379Y-121804529D01*
X134727542Y-122710272D01*
X134711867Y-123676852D01*
X134693657Y-124690717D01*
X134673214Y-125738316D01*
X134650840Y-126806095D01*
X134626838Y-127880505D01*
X134601511Y-128947992D01*
X134575159Y-129995005D01*
X134548086Y-131007993D01*
X134520594Y-131973402D01*
X134492985Y-132877682D01*
X134465561Y-133707281D01*
X134438626Y-134448646D01*
X134412480Y-135088227D01*
X134387426Y-135612470D01*
X134363766Y-136007825D01*
X134341804Y-136260738D01*
X134322786Y-136356728D01*
X134291767Y-136395817D01*
X134258892Y-136426602D01*
X134207836Y-136447808D01*
X134122275Y-136458157D01*
X133985881Y-136456375D01*
X133782331Y-136441184D01*
X133495298Y-136411309D01*
X133108457Y-136365474D01*
X132605482Y-136302403D01*
X131970049Y-136220820D01*
X131185831Y-136119448D01*
X131030834Y-136099417D01*
X130246245Y-135997271D01*
X129613421Y-135911949D01*
X129116067Y-135839517D01*
X128737891Y-135776044D01*
X128462601Y-135717594D01*
X128273903Y-135660234D01*
X128155506Y-135600031D01*
X128091117Y-135533052D01*
X128064442Y-135455362D01*
X128059296Y-135382000D01*
X128061431Y-135231187D01*
X128069319Y-134929184D01*
X128082462Y-134489714D01*
X128100365Y-133926500D01*
X128122532Y-133253266D01*
X128148465Y-132483732D01*
X128177670Y-131631624D01*
X128209649Y-130710662D01*
X128243906Y-129734570D01*
X128279945Y-128717071D01*
X128317270Y-127671887D01*
X128355384Y-126612742D01*
X128393791Y-125553357D01*
X128431995Y-124507456D01*
X128469499Y-123488762D01*
X128505807Y-122510997D01*
X128540423Y-121587883D01*
X128572851Y-120733145D01*
X128602593Y-119960504D01*
X128629155Y-119283683D01*
X128652038Y-118716406D01*
X128670748Y-118272394D01*
X128684788Y-117965370D01*
X128693662Y-117809059D01*
X128695454Y-117792500D01*
X128750409Y-117669727D01*
X128874301Y-117614866D01*
X129097113Y-117603677D01*
X129379704Y-117617379D01*
G36*
X156473327Y-118607751D02*
X156537407Y-118659394D01*
X156592456Y-118752535D01*
X156639396Y-118896352D01*
X156679147Y-119100022D01*
X156712633Y-119372723D01*
X156740774Y-119723632D01*
X156764492Y-120161926D01*
X156784708Y-120696782D01*
X156802344Y-121337378D01*
X156818322Y-122092891D01*
X156833562Y-122972499D01*
X156848987Y-123985379D01*
X156865518Y-125140708D01*
X156884077Y-126447663D01*
X156903844Y-127799192D01*
X156925109Y-129231464D01*
X156943594Y-130503924D01*
X156959295Y-131626071D01*
X156972208Y-132607405D01*
X156982332Y-133457423D01*
X156989663Y-134185625D01*
X156994198Y-134801510D01*
X156995934Y-135314576D01*
X156994868Y-135734323D01*
X156990999Y-136070250D01*
X156984321Y-136331854D01*
X156974833Y-136528636D01*
X156962532Y-136670093D01*
X156947415Y-136765726D01*
X156929478Y-136825032D01*
X156908719Y-136857511D01*
X156901054Y-136864104D01*
X156806719Y-136900229D01*
X156619874Y-136933732D01*
X156330349Y-136965214D01*
X155927974Y-136995276D01*
X155402579Y-137024520D01*
X154743993Y-137053546D01*
X153942046Y-137082956D01*
X152986568Y-137113351D01*
X152388893Y-137130791D01*
X151764472Y-137148106D01*
X151287995Y-137159103D01*
X150938151Y-137162522D01*
X150693624Y-137157104D01*
X150533104Y-137141589D01*
X150435276Y-137114718D01*
X150378829Y-137075231D01*
X150342448Y-137021869D01*
X150335727Y-137009464D01*
X150319170Y-136922788D01*
X150304375Y-136724408D01*
X150291287Y-136408946D01*
X150279849Y-135971019D01*
X150270005Y-135405248D01*
X150261700Y-134706252D01*
X150254878Y-133868651D01*
X150249483Y-132887063D01*
X150245458Y-131756110D01*
X150242748Y-130470409D01*
X150241297Y-129024580D01*
X150241000Y-127897545D01*
X150241117Y-126470951D01*
X150241572Y-125204142D01*
X150242523Y-124087571D01*
X150244126Y-123111687D01*
X150246538Y-122266945D01*
X150249917Y-121543794D01*
X150254420Y-120932688D01*
X150260202Y-120424078D01*
X150267422Y-120008416D01*
X150276237Y-119676153D01*
X150286803Y-119417742D01*
X150299277Y-119223634D01*
X150313816Y-119084281D01*
X150330578Y-118990136D01*
X150349720Y-118931649D01*
X150371397Y-118899272D01*
X150389167Y-118886508D01*
X150509153Y-118865261D01*
X150775834Y-118842450D01*
X151166593Y-118819210D01*
X151658814Y-118796675D01*
X152229881Y-118775980D01*
X152857176Y-118758261D01*
X153021878Y-118754390D01*
X153680500Y-118738291D01*
X154307258Y-118720621D01*
X154875509Y-118702313D01*
X155358609Y-118684297D01*
X155729914Y-118667506D01*
X155962782Y-118652869D01*
X155985211Y-118650810D01*
X156108268Y-118632619D01*
X156217687Y-118610041D01*
X156314389Y-118592252D01*
X156399295Y-118588430D01*
X156473327Y-118607751D01*
X156473327Y-118607751D01*
G37*
X156473327Y-118607751D02*
X156537407Y-118659394D01*
X156592456Y-118752535D01*
X156639396Y-118896352D01*
X156679147Y-119100022D01*
X156712633Y-119372723D01*
X156740774Y-119723632D01*
X156764492Y-120161926D01*
X156784708Y-120696782D01*
X156802344Y-121337378D01*
X156818322Y-122092891D01*
X156833562Y-122972499D01*
X156848987Y-123985379D01*
X156865518Y-125140708D01*
X156884077Y-126447663D01*
X156903844Y-127799192D01*
X156925109Y-129231464D01*
X156943594Y-130503924D01*
X156959295Y-131626071D01*
X156972208Y-132607405D01*
X156982332Y-133457423D01*
X156989663Y-134185625D01*
X156994198Y-134801510D01*
X156995934Y-135314576D01*
X156994868Y-135734323D01*
X156990999Y-136070250D01*
X156984321Y-136331854D01*
X156974833Y-136528636D01*
X156962532Y-136670093D01*
X156947415Y-136765726D01*
X156929478Y-136825032D01*
X156908719Y-136857511D01*
X156901054Y-136864104D01*
X156806719Y-136900229D01*
X156619874Y-136933732D01*
X156330349Y-136965214D01*
X155927974Y-136995276D01*
X155402579Y-137024520D01*
X154743993Y-137053546D01*
X153942046Y-137082956D01*
X152986568Y-137113351D01*
X152388893Y-137130791D01*
X151764472Y-137148106D01*
X151287995Y-137159103D01*
X150938151Y-137162522D01*
X150693624Y-137157104D01*
X150533104Y-137141589D01*
X150435276Y-137114718D01*
X150378829Y-137075231D01*
X150342448Y-137021869D01*
X150335727Y-137009464D01*
X150319170Y-136922788D01*
X150304375Y-136724408D01*
X150291287Y-136408946D01*
X150279849Y-135971019D01*
X150270005Y-135405248D01*
X150261700Y-134706252D01*
X150254878Y-133868651D01*
X150249483Y-132887063D01*
X150245458Y-131756110D01*
X150242748Y-130470409D01*
X150241297Y-129024580D01*
X150241000Y-127897545D01*
X150241117Y-126470951D01*
X150241572Y-125204142D01*
X150242523Y-124087571D01*
X150244126Y-123111687D01*
X150246538Y-122266945D01*
X150249917Y-121543794D01*
X150254420Y-120932688D01*
X150260202Y-120424078D01*
X150267422Y-120008416D01*
X150276237Y-119676153D01*
X150286803Y-119417742D01*
X150299277Y-119223634D01*
X150313816Y-119084281D01*
X150330578Y-118990136D01*
X150349720Y-118931649D01*
X150371397Y-118899272D01*
X150389167Y-118886508D01*
X150509153Y-118865261D01*
X150775834Y-118842450D01*
X151166593Y-118819210D01*
X151658814Y-118796675D01*
X152229881Y-118775980D01*
X152857176Y-118758261D01*
X153021878Y-118754390D01*
X153680500Y-118738291D01*
X154307258Y-118720621D01*
X154875509Y-118702313D01*
X155358609Y-118684297D01*
X155729914Y-118667506D01*
X155962782Y-118652869D01*
X155985211Y-118650810D01*
X156108268Y-118632619D01*
X156217687Y-118610041D01*
X156314389Y-118592252D01*
X156399295Y-118588430D01*
X156473327Y-118607751D01*
G36*
X224937547Y-98361228D02*
X224960375Y-98403834D01*
X224976527Y-98496541D01*
X225016802Y-98748960D01*
X225080024Y-99153372D01*
X225165013Y-99702056D01*
X225270592Y-100387292D01*
X225395583Y-101201359D01*
X225538807Y-102136538D01*
X225699086Y-103185110D01*
X225875242Y-104339352D01*
X226066096Y-105591547D01*
X226270471Y-106933972D01*
X226487188Y-108358910D01*
X226715069Y-109858638D01*
X226952935Y-111425438D01*
X227199610Y-113051590D01*
X227453913Y-114729372D01*
X227712102Y-116434116D01*
X230425767Y-134358564D01*
X230030763Y-135145065D01*
X229533513Y-136063220D01*
X228925316Y-137064804D01*
X228224190Y-138123509D01*
X227448156Y-139213029D01*
X226615230Y-140307057D01*
X225838077Y-141266334D01*
X225423862Y-141745586D01*
X224954399Y-142259876D01*
X224444864Y-142795044D01*
X223910432Y-143336932D01*
X223366276Y-143871380D01*
X222827573Y-144384230D01*
X222309496Y-144861321D01*
X221827221Y-145288495D01*
X221395923Y-145651594D01*
X221030776Y-145936457D01*
X220746955Y-146128925D01*
X220559635Y-146214841D01*
X220531149Y-146218037D01*
X220339862Y-146177837D01*
X220279541Y-146148329D01*
X220258258Y-146059069D01*
X220217694Y-145812901D01*
X220159268Y-145420983D01*
X220084400Y-144894471D01*
X219994510Y-144244522D01*
X219891016Y-143482291D01*
X219775339Y-142618936D01*
X219648898Y-141665613D01*
X219513112Y-140633479D01*
X219369401Y-139533689D01*
X219219185Y-138377400D01*
X219063883Y-137175769D01*
X218904915Y-135939952D01*
X218743699Y-134681106D01*
X218581657Y-133410387D01*
X218420206Y-132138951D01*
X218260767Y-130877956D01*
X218104760Y-129638557D01*
X217953603Y-128431910D01*
X217808716Y-127269173D01*
X217671519Y-126161502D01*
X217543432Y-125120053D01*
X217425873Y-124155982D01*
X217320263Y-123280447D01*
X217228020Y-122504603D01*
X217150565Y-121839607D01*
X217089317Y-121296616D01*
X217045695Y-120886786D01*
X217021119Y-120621273D01*
X217017009Y-120511233D01*
X217017373Y-120509995D01*
X217100073Y-120438168D01*
X217306830Y-120298887D01*
X217613759Y-120107085D01*
X217996975Y-119877692D01*
X218425216Y-119629845D01*
X219232231Y-119168955D01*
X219903023Y-118782827D01*
X220449402Y-118463998D01*
X220883177Y-118205009D01*
X221216158Y-117998400D01*
X221460153Y-117836711D01*
X221626973Y-117712481D01*
X221728427Y-117618250D01*
X221776324Y-117546558D01*
X221784334Y-117507845D01*
X221773096Y-117401745D01*
X221740431Y-117139633D01*
X221687910Y-116733258D01*
X221617103Y-116194374D01*
X221529583Y-115534730D01*
X221426920Y-114766079D01*
X221310685Y-113900172D01*
X221182450Y-112948760D01*
X221043786Y-111923595D01*
X220896264Y-110836428D01*
X220741456Y-109699009D01*
X220680278Y-109250440D01*
X220482398Y-107795563D01*
X220307893Y-106501976D01*
X220155983Y-105363370D01*
X220025890Y-104373432D01*
X219916835Y-103525854D01*
X219828040Y-102814323D01*
X219758725Y-102232528D01*
X219708112Y-101774160D01*
X219675421Y-101432907D01*
X219659875Y-101202458D01*
X219660693Y-101076502D01*
X219668151Y-101049083D01*
X219771015Y-100972318D01*
X219995669Y-100831952D01*
X220314616Y-100644304D01*
X220700357Y-100425692D01*
X220962707Y-100280827D01*
X221500551Y-99984541D01*
X222108689Y-99645942D01*
X222717255Y-99304124D01*
X223256384Y-98998183D01*
X223321942Y-98960669D01*
X223873230Y-98656109D01*
X224299152Y-98447718D01*
X224610990Y-98331665D01*
X224820028Y-98304112D01*
X224937547Y-98361228D01*
X224937547Y-98361228D01*
G37*
X224937547Y-98361228D02*
X224960375Y-98403834D01*
X224976527Y-98496541D01*
X225016802Y-98748960D01*
X225080024Y-99153372D01*
X225165013Y-99702056D01*
X225270592Y-100387292D01*
X225395583Y-101201359D01*
X225538807Y-102136538D01*
X225699086Y-103185110D01*
X225875242Y-104339352D01*
X226066096Y-105591547D01*
X226270471Y-106933972D01*
X226487188Y-108358910D01*
X226715069Y-109858638D01*
X226952935Y-111425438D01*
X227199610Y-113051590D01*
X227453913Y-114729372D01*
X227712102Y-116434116D01*
X230425767Y-134358564D01*
X230030763Y-135145065D01*
X229533513Y-136063220D01*
X228925316Y-137064804D01*
X228224190Y-138123509D01*
X227448156Y-139213029D01*
X226615230Y-140307057D01*
X225838077Y-141266334D01*
X225423862Y-141745586D01*
X224954399Y-142259876D01*
X224444864Y-142795044D01*
X223910432Y-143336932D01*
X223366276Y-143871380D01*
X222827573Y-144384230D01*
X222309496Y-144861321D01*
X221827221Y-145288495D01*
X221395923Y-145651594D01*
X221030776Y-145936457D01*
X220746955Y-146128925D01*
X220559635Y-146214841D01*
X220531149Y-146218037D01*
X220339862Y-146177837D01*
X220279541Y-146148329D01*
X220258258Y-146059069D01*
X220217694Y-145812901D01*
X220159268Y-145420983D01*
X220084400Y-144894471D01*
X219994510Y-144244522D01*
X219891016Y-143482291D01*
X219775339Y-142618936D01*
X219648898Y-141665613D01*
X219513112Y-140633479D01*
X219369401Y-139533689D01*
X219219185Y-138377400D01*
X219063883Y-137175769D01*
X218904915Y-135939952D01*
X218743699Y-134681106D01*
X218581657Y-133410387D01*
X218420206Y-132138951D01*
X218260767Y-130877956D01*
X218104760Y-129638557D01*
X217953603Y-128431910D01*
X217808716Y-127269173D01*
X217671519Y-126161502D01*
X217543432Y-125120053D01*
X217425873Y-124155982D01*
X217320263Y-123280447D01*
X217228020Y-122504603D01*
X217150565Y-121839607D01*
X217089317Y-121296616D01*
X217045695Y-120886786D01*
X217021119Y-120621273D01*
X217017009Y-120511233D01*
X217017373Y-120509995D01*
X217100073Y-120438168D01*
X217306830Y-120298887D01*
X217613759Y-120107085D01*
X217996975Y-119877692D01*
X218425216Y-119629845D01*
X219232231Y-119168955D01*
X219903023Y-118782827D01*
X220449402Y-118463998D01*
X220883177Y-118205009D01*
X221216158Y-117998400D01*
X221460153Y-117836711D01*
X221626973Y-117712481D01*
X221728427Y-117618250D01*
X221776324Y-117546558D01*
X221784334Y-117507845D01*
X221773096Y-117401745D01*
X221740431Y-117139633D01*
X221687910Y-116733258D01*
X221617103Y-116194374D01*
X221529583Y-115534730D01*
X221426920Y-114766079D01*
X221310685Y-113900172D01*
X221182450Y-112948760D01*
X221043786Y-111923595D01*
X220896264Y-110836428D01*
X220741456Y-109699009D01*
X220680278Y-109250440D01*
X220482398Y-107795563D01*
X220307893Y-106501976D01*
X220155983Y-105363370D01*
X220025890Y-104373432D01*
X219916835Y-103525854D01*
X219828040Y-102814323D01*
X219758725Y-102232528D01*
X219708112Y-101774160D01*
X219675421Y-101432907D01*
X219659875Y-101202458D01*
X219660693Y-101076502D01*
X219668151Y-101049083D01*
X219771015Y-100972318D01*
X219995669Y-100831952D01*
X220314616Y-100644304D01*
X220700357Y-100425692D01*
X220962707Y-100280827D01*
X221500551Y-99984541D01*
X222108689Y-99645942D01*
X222717255Y-99304124D01*
X223256384Y-98998183D01*
X223321942Y-98960669D01*
X223873230Y-98656109D01*
X224299152Y-98447718D01*
X224610990Y-98331665D01*
X224820028Y-98304112D01*
X224937547Y-98361228D01*
G36*
X74601312Y-99530305D02*
X74837088Y-99632617D01*
X75175357Y-99794838D01*
X75593326Y-100005854D01*
X76068203Y-100254550D01*
X76344414Y-100402843D01*
X76906418Y-100706695D01*
X77483779Y-101017988D01*
X78037747Y-101315891D01*
X78529572Y-101579573D01*
X78920506Y-101788203D01*
X78994000Y-101827231D01*
X79392541Y-102043242D01*
X79662986Y-102204201D01*
X79829838Y-102328450D01*
X79917601Y-102434335D01*
X79950777Y-102540200D01*
X79951219Y-102543858D01*
X79944109Y-102658054D01*
X79916267Y-102928283D01*
X79869163Y-103342708D01*
X79804266Y-103889490D01*
X79723046Y-104556790D01*
X79626974Y-105332771D01*
X79517518Y-106205594D01*
X79396149Y-107163421D01*
X79264337Y-108194414D01*
X79123550Y-109286735D01*
X78975260Y-110428545D01*
X78914052Y-110897395D01*
X78763189Y-112052058D01*
X78618712Y-113159358D01*
X78482120Y-114207731D01*
X78354909Y-115185611D01*
X78238578Y-116081434D01*
X78134624Y-116883636D01*
X78044546Y-117580651D01*
X77969842Y-118160914D01*
X77912008Y-118612862D01*
X77872544Y-118924930D01*
X77852947Y-119085552D01*
X77851000Y-119105101D01*
X77921001Y-119171329D01*
X78113772Y-119302390D01*
X78403461Y-119481960D01*
X78764221Y-119693718D01*
X78951667Y-119800109D01*
X79375744Y-120039639D01*
X79673979Y-120215171D01*
X79868511Y-120345020D01*
X79981478Y-120447501D01*
X80035018Y-120540932D01*
X80051269Y-120643628D01*
X80052334Y-120710751D01*
X80041834Y-120850674D01*
X80011290Y-121144126D01*
X79962129Y-121579878D01*
X79895780Y-122146700D01*
X79813672Y-122833364D01*
X79717234Y-123628640D01*
X79607895Y-124521298D01*
X79487083Y-125500109D01*
X79356228Y-126553844D01*
X79216757Y-127671274D01*
X79070101Y-128841168D01*
X78917688Y-130052299D01*
X78760947Y-131293436D01*
X78601306Y-132553349D01*
X78440195Y-133820811D01*
X78279042Y-135084591D01*
X78119276Y-136333460D01*
X77962325Y-137556189D01*
X77809620Y-138741548D01*
X77662589Y-139878308D01*
X77522659Y-140955240D01*
X77391262Y-141961114D01*
X77269824Y-142884701D01*
X77159775Y-143714772D01*
X77062544Y-144440096D01*
X76979560Y-145049446D01*
X76912251Y-145531592D01*
X76862047Y-145875303D01*
X76830376Y-146069352D01*
X76820522Y-146109779D01*
X76668953Y-146206771D01*
X76461700Y-146181040D01*
X76179613Y-146027846D01*
X76015985Y-145910654D01*
X75063898Y-145140458D01*
X74066876Y-144239405D01*
X73047219Y-143232050D01*
X72027225Y-142142948D01*
X71029195Y-140996657D01*
X70075429Y-139817731D01*
X69188225Y-138630727D01*
X68512336Y-137647808D01*
X68232548Y-137211005D01*
X67937528Y-136729831D01*
X67643284Y-136232581D01*
X67365822Y-135747550D01*
X67121152Y-135303034D01*
X66925279Y-134927328D01*
X66794211Y-134648727D01*
X66752488Y-134537074D01*
X66742397Y-134468137D01*
X66741426Y-134353329D01*
X66750759Y-134184122D01*
X66771577Y-133951987D01*
X66805063Y-133648396D01*
X66852400Y-133264819D01*
X66914771Y-132792728D01*
X66993358Y-132223595D01*
X67089345Y-131548890D01*
X67203912Y-130760085D01*
X67338244Y-129848652D01*
X67493523Y-128806061D01*
X67670931Y-127623784D01*
X67871652Y-126293292D01*
X68096867Y-124806057D01*
X68155041Y-124422569D01*
X68348323Y-123152952D01*
X68535841Y-121929257D01*
X68715922Y-120761993D01*
X68886891Y-119661670D01*
X69047075Y-118638795D01*
X69194798Y-117703879D01*
X69328387Y-116867431D01*
X69446167Y-116139959D01*
X69546465Y-115531973D01*
X69627607Y-115053982D01*
X69687917Y-114716495D01*
X69725722Y-114530021D01*
X69736499Y-114495402D01*
X69827573Y-114419398D01*
X69946891Y-114401584D01*
X70117927Y-114450809D01*
X70364157Y-114575919D01*
X70709053Y-114785764D01*
X70993000Y-114969005D01*
X71331079Y-115187511D01*
X71613460Y-115365535D01*
X71812647Y-115486070D01*
X71901149Y-115532109D01*
X71902960Y-115531884D01*
X71917894Y-115447403D01*
X71955406Y-115206952D01*
X72013780Y-114822145D01*
X72091299Y-114304593D01*
X72186247Y-113665910D01*
X72296907Y-112917707D01*
X72421562Y-112071597D01*
X72558497Y-111139192D01*
X72705994Y-110132105D01*
X72862337Y-109061948D01*
X73025809Y-107940333D01*
X73068526Y-107646818D01*
X73234331Y-106510983D01*
X73394420Y-105421643D01*
X73546995Y-104390626D01*
X73690255Y-103429765D01*
X73822402Y-102550888D01*
X73941636Y-101765826D01*
X74046159Y-101086409D01*
X74134171Y-100524467D01*
X74203873Y-100091830D01*
X74253466Y-99800328D01*
X74281150Y-99661793D01*
X74284308Y-99652667D01*
X74420871Y-99525421D01*
X74490822Y-99499015D01*
X74601312Y-99530305D01*
X74601312Y-99530305D01*
G37*
X74601312Y-99530305D02*
X74837088Y-99632617D01*
X75175357Y-99794838D01*
X75593326Y-100005854D01*
X76068203Y-100254550D01*
X76344414Y-100402843D01*
X76906418Y-100706695D01*
X77483779Y-101017988D01*
X78037747Y-101315891D01*
X78529572Y-101579573D01*
X78920506Y-101788203D01*
X78994000Y-101827231D01*
X79392541Y-102043242D01*
X79662986Y-102204201D01*
X79829838Y-102328450D01*
X79917601Y-102434335D01*
X79950777Y-102540200D01*
X79951219Y-102543858D01*
X79944109Y-102658054D01*
X79916267Y-102928283D01*
X79869163Y-103342708D01*
X79804266Y-103889490D01*
X79723046Y-104556790D01*
X79626974Y-105332771D01*
X79517518Y-106205594D01*
X79396149Y-107163421D01*
X79264337Y-108194414D01*
X79123550Y-109286735D01*
X78975260Y-110428545D01*
X78914052Y-110897395D01*
X78763189Y-112052058D01*
X78618712Y-113159358D01*
X78482120Y-114207731D01*
X78354909Y-115185611D01*
X78238578Y-116081434D01*
X78134624Y-116883636D01*
X78044546Y-117580651D01*
X77969842Y-118160914D01*
X77912008Y-118612862D01*
X77872544Y-118924930D01*
X77852947Y-119085552D01*
X77851000Y-119105101D01*
X77921001Y-119171329D01*
X78113772Y-119302390D01*
X78403461Y-119481960D01*
X78764221Y-119693718D01*
X78951667Y-119800109D01*
X79375744Y-120039639D01*
X79673979Y-120215171D01*
X79868511Y-120345020D01*
X79981478Y-120447501D01*
X80035018Y-120540932D01*
X80051269Y-120643628D01*
X80052334Y-120710751D01*
X80041834Y-120850674D01*
X80011290Y-121144126D01*
X79962129Y-121579878D01*
X79895780Y-122146700D01*
X79813672Y-122833364D01*
X79717234Y-123628640D01*
X79607895Y-124521298D01*
X79487083Y-125500109D01*
X79356228Y-126553844D01*
X79216757Y-127671274D01*
X79070101Y-128841168D01*
X78917688Y-130052299D01*
X78760947Y-131293436D01*
X78601306Y-132553349D01*
X78440195Y-133820811D01*
X78279042Y-135084591D01*
X78119276Y-136333460D01*
X77962325Y-137556189D01*
X77809620Y-138741548D01*
X77662589Y-139878308D01*
X77522659Y-140955240D01*
X77391262Y-141961114D01*
X77269824Y-142884701D01*
X77159775Y-143714772D01*
X77062544Y-144440096D01*
X76979560Y-145049446D01*
X76912251Y-145531592D01*
X76862047Y-145875303D01*
X76830376Y-146069352D01*
X76820522Y-146109779D01*
X76668953Y-146206771D01*
X76461700Y-146181040D01*
X76179613Y-146027846D01*
X76015985Y-145910654D01*
X75063898Y-145140458D01*
X74066876Y-144239405D01*
X73047219Y-143232050D01*
X72027225Y-142142948D01*
X71029195Y-140996657D01*
X70075429Y-139817731D01*
X69188225Y-138630727D01*
X68512336Y-137647808D01*
X68232548Y-137211005D01*
X67937528Y-136729831D01*
X67643284Y-136232581D01*
X67365822Y-135747550D01*
X67121152Y-135303034D01*
X66925279Y-134927328D01*
X66794211Y-134648727D01*
X66752488Y-134537074D01*
X66742397Y-134468137D01*
X66741426Y-134353329D01*
X66750759Y-134184122D01*
X66771577Y-133951987D01*
X66805063Y-133648396D01*
X66852400Y-133264819D01*
X66914771Y-132792728D01*
X66993358Y-132223595D01*
X67089345Y-131548890D01*
X67203912Y-130760085D01*
X67338244Y-129848652D01*
X67493523Y-128806061D01*
X67670931Y-127623784D01*
X67871652Y-126293292D01*
X68096867Y-124806057D01*
X68155041Y-124422569D01*
X68348323Y-123152952D01*
X68535841Y-121929257D01*
X68715922Y-120761993D01*
X68886891Y-119661670D01*
X69047075Y-118638795D01*
X69194798Y-117703879D01*
X69328387Y-116867431D01*
X69446167Y-116139959D01*
X69546465Y-115531973D01*
X69627607Y-115053982D01*
X69687917Y-114716495D01*
X69725722Y-114530021D01*
X69736499Y-114495402D01*
X69827573Y-114419398D01*
X69946891Y-114401584D01*
X70117927Y-114450809D01*
X70364157Y-114575919D01*
X70709053Y-114785764D01*
X70993000Y-114969005D01*
X71331079Y-115187511D01*
X71613460Y-115365535D01*
X71812647Y-115486070D01*
X71901149Y-115532109D01*
X71902960Y-115531884D01*
X71917894Y-115447403D01*
X71955406Y-115206952D01*
X72013780Y-114822145D01*
X72091299Y-114304593D01*
X72186247Y-113665910D01*
X72296907Y-112917707D01*
X72421562Y-112071597D01*
X72558497Y-111139192D01*
X72705994Y-110132105D01*
X72862337Y-109061948D01*
X73025809Y-107940333D01*
X73068526Y-107646818D01*
X73234331Y-106510983D01*
X73394420Y-105421643D01*
X73546995Y-104390626D01*
X73690255Y-103429765D01*
X73822402Y-102550888D01*
X73941636Y-101765826D01*
X74046159Y-101086409D01*
X74134171Y-100524467D01*
X74203873Y-100091830D01*
X74253466Y-99800328D01*
X74281150Y-99661793D01*
X74284308Y-99652667D01*
X74420871Y-99525421D01*
X74490822Y-99499015D01*
X74601312Y-99530305D01*
G36*
X212251412Y-104839990D02*
X212348505Y-104902820D01*
X212366165Y-104923167D01*
X212388200Y-105020574D01*
X212428710Y-105274515D01*
X212486189Y-105673374D01*
X212559134Y-106205535D01*
X212646038Y-106859381D01*
X212745398Y-107623296D01*
X212855708Y-108485664D01*
X212975463Y-109434867D01*
X213103159Y-110459291D01*
X213237290Y-111547319D01*
X213376352Y-112687334D01*
X213438341Y-113199334D01*
X213578784Y-114360512D01*
X213714081Y-115476307D01*
X213842787Y-116534946D01*
X213963454Y-117524656D01*
X214074636Y-118433662D01*
X214174886Y-119250192D01*
X214262756Y-119962473D01*
X214336801Y-120558731D01*
X214395574Y-121027193D01*
X214437627Y-121356087D01*
X214461514Y-121533638D01*
X214465812Y-121560391D01*
X214491369Y-121653321D01*
X214540028Y-121691613D01*
X214645231Y-121669644D01*
X214840419Y-121581791D01*
X215095222Y-121454557D01*
X215526980Y-121262492D01*
X215855971Y-121170621D01*
X216071602Y-121180851D01*
X216155371Y-121263834D01*
X216173439Y-121367879D01*
X216210546Y-121628006D01*
X216265310Y-122033086D01*
X216336347Y-122571987D01*
X216422275Y-123233580D01*
X216521711Y-124006735D01*
X216633272Y-124880321D01*
X216755575Y-125843208D01*
X216887238Y-126884267D01*
X217026877Y-127992366D01*
X217173109Y-129156377D01*
X217324552Y-130365168D01*
X217479823Y-131607610D01*
X217637539Y-132872572D01*
X217796318Y-134148924D01*
X217954775Y-135425536D01*
X218111529Y-136691279D01*
X218265196Y-137935021D01*
X218414394Y-139145633D01*
X218557739Y-140311984D01*
X218693850Y-141422945D01*
X218821342Y-142467385D01*
X218938834Y-143434174D01*
X219044942Y-144312182D01*
X219138283Y-145090279D01*
X219217475Y-145757335D01*
X219281134Y-146302219D01*
X219327879Y-146713801D01*
X219356325Y-146980952D01*
X219365090Y-147092540D01*
X219364765Y-147094921D01*
X219278721Y-147188176D01*
X219084013Y-147344808D01*
X218815228Y-147537900D01*
X218669420Y-147636050D01*
X217614528Y-148292620D01*
X216431484Y-148961105D01*
X215158723Y-149623052D01*
X213834681Y-150260011D01*
X212497794Y-150853530D01*
X211186499Y-151385158D01*
X209939231Y-151836444D01*
X209874238Y-151858238D01*
X209272579Y-152054375D01*
X208809466Y-152192206D01*
X208465456Y-152274359D01*
X208221106Y-152303461D01*
X208056972Y-152282140D01*
X207953611Y-152213023D01*
X207901510Y-152124834D01*
X207884391Y-152020702D01*
X207852071Y-151760117D01*
X207805667Y-151354238D01*
X207746295Y-150814224D01*
X207675072Y-150151233D01*
X207593117Y-149376426D01*
X207501545Y-148500961D01*
X207401473Y-147535996D01*
X207294020Y-146492692D01*
X207180301Y-145382206D01*
X207061434Y-144215698D01*
X206938536Y-143004327D01*
X206812724Y-141759252D01*
X206685116Y-140491632D01*
X206556827Y-139212625D01*
X206428975Y-137933391D01*
X206302677Y-136665089D01*
X206179051Y-135418878D01*
X206059213Y-134205916D01*
X205944280Y-133037363D01*
X205835370Y-131924378D01*
X205733599Y-130878119D01*
X205640084Y-129909747D01*
X205555943Y-129030419D01*
X205482293Y-128251294D01*
X205420250Y-127583532D01*
X205370931Y-127038292D01*
X205335455Y-126626732D01*
X205314937Y-126360012D01*
X205310495Y-126249291D01*
X205311067Y-126247060D01*
X205397012Y-126194450D01*
X205614593Y-126084175D01*
X205940686Y-125927294D01*
X206352166Y-125734864D01*
X206825908Y-125517943D01*
X207007767Y-125435750D01*
X208664119Y-124689723D01*
X208621358Y-124426695D01*
X208606546Y-124307047D01*
X208575118Y-124030734D01*
X208528345Y-123609477D01*
X208467494Y-123054997D01*
X208393835Y-122379014D01*
X208308639Y-121593250D01*
X208213173Y-120709426D01*
X208108707Y-119739262D01*
X207996511Y-118694480D01*
X207877854Y-117586801D01*
X207754005Y-116427946D01*
X207677521Y-115710969D01*
X207528138Y-114306821D01*
X207396408Y-113061736D01*
X207281484Y-111966458D01*
X207182519Y-111011732D01*
X207098664Y-110188301D01*
X207029074Y-109486908D01*
X206972899Y-108898299D01*
X206929293Y-108413216D01*
X206897408Y-108022403D01*
X206876397Y-107716605D01*
X206865412Y-107486565D01*
X206863606Y-107323027D01*
X206870131Y-107216735D01*
X206884140Y-107158433D01*
X206893222Y-107144827D01*
X207003213Y-107078301D01*
X207244145Y-106956949D01*
X207591229Y-106792445D01*
X208019676Y-106596460D01*
X208504697Y-106380666D01*
X208664879Y-106310609D01*
X209223089Y-106066290D01*
X209789931Y-105816083D01*
X210324917Y-105578009D01*
X210787563Y-105370089D01*
X211137384Y-105210342D01*
X211151959Y-105203584D01*
X211585722Y-105008384D01*
X211896139Y-104886740D01*
X212109330Y-104832619D01*
X212251412Y-104839990D01*
X212251412Y-104839990D01*
G37*
X212251412Y-104839990D02*
X212348505Y-104902820D01*
X212366165Y-104923167D01*
X212388200Y-105020574D01*
X212428710Y-105274515D01*
X212486189Y-105673374D01*
X212559134Y-106205535D01*
X212646038Y-106859381D01*
X212745398Y-107623296D01*
X212855708Y-108485664D01*
X212975463Y-109434867D01*
X213103159Y-110459291D01*
X213237290Y-111547319D01*
X213376352Y-112687334D01*
X213438341Y-113199334D01*
X213578784Y-114360512D01*
X213714081Y-115476307D01*
X213842787Y-116534946D01*
X213963454Y-117524656D01*
X214074636Y-118433662D01*
X214174886Y-119250192D01*
X214262756Y-119962473D01*
X214336801Y-120558731D01*
X214395574Y-121027193D01*
X214437627Y-121356087D01*
X214461514Y-121533638D01*
X214465812Y-121560391D01*
X214491369Y-121653321D01*
X214540028Y-121691613D01*
X214645231Y-121669644D01*
X214840419Y-121581791D01*
X215095222Y-121454557D01*
X215526980Y-121262492D01*
X215855971Y-121170621D01*
X216071602Y-121180851D01*
X216155371Y-121263834D01*
X216173439Y-121367879D01*
X216210546Y-121628006D01*
X216265310Y-122033086D01*
X216336347Y-122571987D01*
X216422275Y-123233580D01*
X216521711Y-124006735D01*
X216633272Y-124880321D01*
X216755575Y-125843208D01*
X216887238Y-126884267D01*
X217026877Y-127992366D01*
X217173109Y-129156377D01*
X217324552Y-130365168D01*
X217479823Y-131607610D01*
X217637539Y-132872572D01*
X217796318Y-134148924D01*
X217954775Y-135425536D01*
X218111529Y-136691279D01*
X218265196Y-137935021D01*
X218414394Y-139145633D01*
X218557739Y-140311984D01*
X218693850Y-141422945D01*
X218821342Y-142467385D01*
X218938834Y-143434174D01*
X219044942Y-144312182D01*
X219138283Y-145090279D01*
X219217475Y-145757335D01*
X219281134Y-146302219D01*
X219327879Y-146713801D01*
X219356325Y-146980952D01*
X219365090Y-147092540D01*
X219364765Y-147094921D01*
X219278721Y-147188176D01*
X219084013Y-147344808D01*
X218815228Y-147537900D01*
X218669420Y-147636050D01*
X217614528Y-148292620D01*
X216431484Y-148961105D01*
X215158723Y-149623052D01*
X213834681Y-150260011D01*
X212497794Y-150853530D01*
X211186499Y-151385158D01*
X209939231Y-151836444D01*
X209874238Y-151858238D01*
X209272579Y-152054375D01*
X208809466Y-152192206D01*
X208465456Y-152274359D01*
X208221106Y-152303461D01*
X208056972Y-152282140D01*
X207953611Y-152213023D01*
X207901510Y-152124834D01*
X207884391Y-152020702D01*
X207852071Y-151760117D01*
X207805667Y-151354238D01*
X207746295Y-150814224D01*
X207675072Y-150151233D01*
X207593117Y-149376426D01*
X207501545Y-148500961D01*
X207401473Y-147535996D01*
X207294020Y-146492692D01*
X207180301Y-145382206D01*
X207061434Y-144215698D01*
X206938536Y-143004327D01*
X206812724Y-141759252D01*
X206685116Y-140491632D01*
X206556827Y-139212625D01*
X206428975Y-137933391D01*
X206302677Y-136665089D01*
X206179051Y-135418878D01*
X206059213Y-134205916D01*
X205944280Y-133037363D01*
X205835370Y-131924378D01*
X205733599Y-130878119D01*
X205640084Y-129909747D01*
X205555943Y-129030419D01*
X205482293Y-128251294D01*
X205420250Y-127583532D01*
X205370931Y-127038292D01*
X205335455Y-126626732D01*
X205314937Y-126360012D01*
X205310495Y-126249291D01*
X205311067Y-126247060D01*
X205397012Y-126194450D01*
X205614593Y-126084175D01*
X205940686Y-125927294D01*
X206352166Y-125734864D01*
X206825908Y-125517943D01*
X207007767Y-125435750D01*
X208664119Y-124689723D01*
X208621358Y-124426695D01*
X208606546Y-124307047D01*
X208575118Y-124030734D01*
X208528345Y-123609477D01*
X208467494Y-123054997D01*
X208393835Y-122379014D01*
X208308639Y-121593250D01*
X208213173Y-120709426D01*
X208108707Y-119739262D01*
X207996511Y-118694480D01*
X207877854Y-117586801D01*
X207754005Y-116427946D01*
X207677521Y-115710969D01*
X207528138Y-114306821D01*
X207396408Y-113061736D01*
X207281484Y-111966458D01*
X207182519Y-111011732D01*
X207098664Y-110188301D01*
X207029074Y-109486908D01*
X206972899Y-108898299D01*
X206929293Y-108413216D01*
X206897408Y-108022403D01*
X206876397Y-107716605D01*
X206865412Y-107486565D01*
X206863606Y-107323027D01*
X206870131Y-107216735D01*
X206884140Y-107158433D01*
X206893222Y-107144827D01*
X207003213Y-107078301D01*
X207244145Y-106956949D01*
X207591229Y-106792445D01*
X208019676Y-106596460D01*
X208504697Y-106380666D01*
X208664879Y-106310609D01*
X209223089Y-106066290D01*
X209789931Y-105816083D01*
X210324917Y-105578009D01*
X210787563Y-105370089D01*
X211137384Y-105210342D01*
X211151959Y-105203584D01*
X211585722Y-105008384D01*
X211896139Y-104886740D01*
X212109330Y-104832619D01*
X212251412Y-104839990D01*
G36*
X88135789Y-106222979D02*
X88506381Y-106358809D01*
X88988753Y-106560863D01*
X89427051Y-106748181D01*
X89973918Y-106978568D01*
X90580869Y-107231788D01*
X91199418Y-107487607D01*
X91736334Y-107707569D01*
X92234484Y-107913342D01*
X92682004Y-108103563D01*
X93054021Y-108267224D01*
X93325664Y-108393317D01*
X93472060Y-108470836D01*
X93487469Y-108482589D01*
X93494733Y-108530281D01*
X93493600Y-108653408D01*
X93483615Y-108856745D01*
X93464323Y-109145072D01*
X93435269Y-109523164D01*
X93395997Y-109995799D01*
X93346054Y-110567756D01*
X93284984Y-111243811D01*
X93212331Y-112028741D01*
X93127641Y-112927324D01*
X93030460Y-113944337D01*
X92920331Y-115084559D01*
X92796800Y-116352765D01*
X92659412Y-117753734D01*
X92507712Y-119292243D01*
X92341245Y-120973069D01*
X92159556Y-122800990D01*
X91962189Y-124780783D01*
X91748691Y-126917226D01*
X91518606Y-129215095D01*
X91404496Y-130353316D01*
X91213300Y-132257863D01*
X91026124Y-134118620D01*
X90843691Y-135928530D01*
X90666726Y-137680534D01*
X90495952Y-139367573D01*
X90332093Y-140982588D01*
X90175874Y-142518521D01*
X90028019Y-143968313D01*
X89889252Y-145324906D01*
X89760296Y-146581241D01*
X89641876Y-147730259D01*
X89534717Y-148764902D01*
X89439542Y-149678111D01*
X89357074Y-150462827D01*
X89288040Y-151111992D01*
X89233161Y-151618547D01*
X89193163Y-151975434D01*
X89168770Y-152175593D01*
X89161530Y-152218483D01*
X89064468Y-152289699D01*
X88883068Y-152307579D01*
X88602250Y-152269327D01*
X88206935Y-152172148D01*
X87682043Y-152013246D01*
X87206667Y-151856084D01*
X85700259Y-151307742D01*
X84165832Y-150677392D01*
X82642600Y-149983793D01*
X81169780Y-149245703D01*
X79786587Y-148481880D01*
X78532236Y-147711084D01*
X78507167Y-147694701D01*
X78169472Y-147462693D01*
X77902176Y-147257526D01*
X77731407Y-147100529D01*
X77681667Y-147020850D01*
X77692093Y-146910104D01*
X77722433Y-146643905D01*
X77771279Y-146233377D01*
X77837225Y-145689644D01*
X77918862Y-145023831D01*
X78014783Y-144247060D01*
X78123581Y-143370457D01*
X78243849Y-142405146D01*
X78374179Y-141362250D01*
X78513164Y-140252895D01*
X78659397Y-139088203D01*
X78811469Y-137879300D01*
X78967974Y-136637310D01*
X79127505Y-135373355D01*
X79288653Y-134098562D01*
X79450012Y-132824053D01*
X79610173Y-131560954D01*
X79767731Y-130320388D01*
X79921277Y-129113479D01*
X80069404Y-127951351D01*
X80210705Y-126845130D01*
X80343772Y-125805938D01*
X80467198Y-124844900D01*
X80579575Y-123973140D01*
X80679497Y-123201782D01*
X80765555Y-122541951D01*
X80836342Y-122004771D01*
X80890452Y-121601365D01*
X80926476Y-121342858D01*
X80943007Y-121240375D01*
X80943440Y-121239258D01*
X81010217Y-121182669D01*
X81125701Y-121169979D01*
X81304650Y-121206996D01*
X81561819Y-121299532D01*
X81911966Y-121453398D01*
X82369846Y-121674404D01*
X82950217Y-121968361D01*
X83442078Y-122223159D01*
X83980798Y-122501177D01*
X84470088Y-122748353D01*
X84890128Y-122955106D01*
X85221099Y-123111851D01*
X85443180Y-123209006D01*
X85536551Y-123236989D01*
X85537563Y-123236327D01*
X85554327Y-123146674D01*
X85588842Y-122900194D01*
X85639731Y-122508310D01*
X85705619Y-121982445D01*
X85785130Y-121334020D01*
X85876891Y-120574459D01*
X85979524Y-119715185D01*
X86091655Y-118767620D01*
X86211909Y-117743186D01*
X86338910Y-116653308D01*
X86471283Y-115509407D01*
X86545042Y-114868667D01*
X86679909Y-113696857D01*
X86809978Y-112570526D01*
X86933876Y-111501338D01*
X87050234Y-110500958D01*
X87157680Y-109581052D01*
X87254842Y-108753284D01*
X87340350Y-108029320D01*
X87412832Y-107420825D01*
X87470916Y-106939463D01*
X87513232Y-106596899D01*
X87538408Y-106404799D01*
X87544294Y-106368143D01*
X87600120Y-106234127D01*
X87703450Y-106163412D01*
X87875076Y-106158771D01*
X88135789Y-106222979D01*
X88135789Y-106222979D01*
G37*
X88135789Y-106222979D02*
X88506381Y-106358809D01*
X88988753Y-106560863D01*
X89427051Y-106748181D01*
X89973918Y-106978568D01*
X90580869Y-107231788D01*
X91199418Y-107487607D01*
X91736334Y-107707569D01*
X92234484Y-107913342D01*
X92682004Y-108103563D01*
X93054021Y-108267224D01*
X93325664Y-108393317D01*
X93472060Y-108470836D01*
X93487469Y-108482589D01*
X93494733Y-108530281D01*
X93493600Y-108653408D01*
X93483615Y-108856745D01*
X93464323Y-109145072D01*
X93435269Y-109523164D01*
X93395997Y-109995799D01*
X93346054Y-110567756D01*
X93284984Y-111243811D01*
X93212331Y-112028741D01*
X93127641Y-112927324D01*
X93030460Y-113944337D01*
X92920331Y-115084559D01*
X92796800Y-116352765D01*
X92659412Y-117753734D01*
X92507712Y-119292243D01*
X92341245Y-120973069D01*
X92159556Y-122800990D01*
X91962189Y-124780783D01*
X91748691Y-126917226D01*
X91518606Y-129215095D01*
X91404496Y-130353316D01*
X91213300Y-132257863D01*
X91026124Y-134118620D01*
X90843691Y-135928530D01*
X90666726Y-137680534D01*
X90495952Y-139367573D01*
X90332093Y-140982588D01*
X90175874Y-142518521D01*
X90028019Y-143968313D01*
X89889252Y-145324906D01*
X89760296Y-146581241D01*
X89641876Y-147730259D01*
X89534717Y-148764902D01*
X89439542Y-149678111D01*
X89357074Y-150462827D01*
X89288040Y-151111992D01*
X89233161Y-151618547D01*
X89193163Y-151975434D01*
X89168770Y-152175593D01*
X89161530Y-152218483D01*
X89064468Y-152289699D01*
X88883068Y-152307579D01*
X88602250Y-152269327D01*
X88206935Y-152172148D01*
X87682043Y-152013246D01*
X87206667Y-151856084D01*
X85700259Y-151307742D01*
X84165832Y-150677392D01*
X82642600Y-149983793D01*
X81169780Y-149245703D01*
X79786587Y-148481880D01*
X78532236Y-147711084D01*
X78507167Y-147694701D01*
X78169472Y-147462693D01*
X77902176Y-147257526D01*
X77731407Y-147100529D01*
X77681667Y-147020850D01*
X77692093Y-146910104D01*
X77722433Y-146643905D01*
X77771279Y-146233377D01*
X77837225Y-145689644D01*
X77918862Y-145023831D01*
X78014783Y-144247060D01*
X78123581Y-143370457D01*
X78243849Y-142405146D01*
X78374179Y-141362250D01*
X78513164Y-140252895D01*
X78659397Y-139088203D01*
X78811469Y-137879300D01*
X78967974Y-136637310D01*
X79127505Y-135373355D01*
X79288653Y-134098562D01*
X79450012Y-132824053D01*
X79610173Y-131560954D01*
X79767731Y-130320388D01*
X79921277Y-129113479D01*
X80069404Y-127951351D01*
X80210705Y-126845130D01*
X80343772Y-125805938D01*
X80467198Y-124844900D01*
X80579575Y-123973140D01*
X80679497Y-123201782D01*
X80765555Y-122541951D01*
X80836342Y-122004771D01*
X80890452Y-121601365D01*
X80926476Y-121342858D01*
X80943007Y-121240375D01*
X80943440Y-121239258D01*
X81010217Y-121182669D01*
X81125701Y-121169979D01*
X81304650Y-121206996D01*
X81561819Y-121299532D01*
X81911966Y-121453398D01*
X82369846Y-121674404D01*
X82950217Y-121968361D01*
X83442078Y-122223159D01*
X83980798Y-122501177D01*
X84470088Y-122748353D01*
X84890128Y-122955106D01*
X85221099Y-123111851D01*
X85443180Y-123209006D01*
X85536551Y-123236989D01*
X85537563Y-123236327D01*
X85554327Y-123146674D01*
X85588842Y-122900194D01*
X85639731Y-122508310D01*
X85705619Y-121982445D01*
X85785130Y-121334020D01*
X85876891Y-120574459D01*
X85979524Y-119715185D01*
X86091655Y-118767620D01*
X86211909Y-117743186D01*
X86338910Y-116653308D01*
X86471283Y-115509407D01*
X86545042Y-114868667D01*
X86679909Y-113696857D01*
X86809978Y-112570526D01*
X86933876Y-111501338D01*
X87050234Y-110500958D01*
X87157680Y-109581052D01*
X87254842Y-108753284D01*
X87340350Y-108029320D01*
X87412832Y-107420825D01*
X87470916Y-106939463D01*
X87513232Y-106596899D01*
X87538408Y-106404799D01*
X87544294Y-106368143D01*
X87600120Y-106234127D01*
X87703450Y-106163412D01*
X87875076Y-106158771D01*
X88135789Y-106222979D01*
G36*
X199180742Y-110216481D02*
X199220347Y-110241728D01*
X199244866Y-110299732D01*
X199274399Y-110434331D01*
X199309764Y-110653256D01*
X199351780Y-110964238D01*
X199401262Y-111375010D01*
X199459031Y-111893304D01*
X199525902Y-112526850D01*
X199602695Y-113283380D01*
X199690226Y-114170627D01*
X199789314Y-115196322D01*
X199900775Y-116368197D01*
X200025429Y-117693982D01*
X200151215Y-119042836D01*
X200262604Y-120240378D01*
X200369829Y-121391762D01*
X200471824Y-122485613D01*
X200567522Y-123510558D01*
X200655858Y-124455221D01*
X200735764Y-125308229D01*
X200806175Y-126058207D01*
X200866024Y-126693781D01*
X200914245Y-127203578D01*
X200949771Y-127576222D01*
X200971537Y-127800339D01*
X200978236Y-127864452D01*
X201006496Y-127906239D01*
X201087738Y-127912225D01*
X201241064Y-127876354D01*
X201485579Y-127792568D01*
X201840387Y-127654811D01*
X202324592Y-127457025D01*
X202522667Y-127374788D01*
X203113072Y-127135490D01*
X203592994Y-126954598D01*
X203950332Y-126836292D01*
X204172984Y-126784749D01*
X204229680Y-126785236D01*
X204372081Y-126876286D01*
X204452144Y-127086306D01*
X204463197Y-127147901D01*
X204483813Y-127309299D01*
X204519198Y-127624083D01*
X204568226Y-128080835D01*
X204629774Y-128668142D01*
X204702719Y-129374588D01*
X204785935Y-130188758D01*
X204878299Y-131099236D01*
X204978687Y-132094608D01*
X205085975Y-133163458D01*
X205199039Y-134294371D01*
X205316755Y-135475932D01*
X205437999Y-136696725D01*
X205561646Y-137945335D01*
X205686574Y-139210348D01*
X205811658Y-140480347D01*
X205935773Y-141743918D01*
X206057797Y-142989645D01*
X206176604Y-144206114D01*
X206291071Y-145381908D01*
X206400074Y-146505613D01*
X206502490Y-147565814D01*
X206597193Y-148551095D01*
X206683060Y-149450041D01*
X206758966Y-150251237D01*
X206823789Y-150943268D01*
X206876404Y-151514718D01*
X206915686Y-151954172D01*
X206940513Y-152250215D01*
X206949759Y-152391432D01*
X206949648Y-152400000D01*
X206938766Y-152508170D01*
X206913252Y-152595716D01*
X206854026Y-152670151D01*
X206742005Y-152738990D01*
X206558108Y-152809746D01*
X206283254Y-152889932D01*
X205898360Y-152987062D01*
X205384347Y-153108649D01*
X204814026Y-153240924D01*
X203934075Y-153436452D01*
X202980093Y-153633773D01*
X201978601Y-153828437D01*
X200956119Y-154015994D01*
X199939168Y-154191995D01*
X198954267Y-154351990D01*
X198027937Y-154491529D01*
X197186698Y-154606163D01*
X196457070Y-154691442D01*
X195865574Y-154742916D01*
X195859917Y-154743279D01*
X195482692Y-154765906D01*
X195241338Y-154771717D01*
X195102755Y-154754967D01*
X195033842Y-154709909D01*
X195001500Y-154630795D01*
X194992388Y-154592667D01*
X194977549Y-154472334D01*
X194951487Y-154196705D01*
X194915083Y-153777521D01*
X194869216Y-153226520D01*
X194814768Y-152555442D01*
X194752618Y-151776028D01*
X194683646Y-150900017D01*
X194608734Y-149939148D01*
X194528760Y-148905162D01*
X194444606Y-147809799D01*
X194357151Y-146664797D01*
X194267276Y-145481898D01*
X194175861Y-144272839D01*
X194083787Y-143049363D01*
X193991933Y-141823207D01*
X193901179Y-140606112D01*
X193812407Y-139409818D01*
X193726496Y-138246064D01*
X193644326Y-137126590D01*
X193566778Y-136063137D01*
X193494732Y-135067442D01*
X193429068Y-134151248D01*
X193370667Y-133326292D01*
X193320408Y-132604315D01*
X193279172Y-131997057D01*
X193247840Y-131516258D01*
X193227290Y-131173657D01*
X193218405Y-130980993D01*
X193219083Y-130942124D01*
X193314962Y-130864695D01*
X193535922Y-130753895D01*
X193845364Y-130626690D01*
X194087698Y-130539462D01*
X194909165Y-130259667D01*
X194208758Y-121539000D01*
X194112248Y-120330964D01*
X194020052Y-119164415D01*
X193933052Y-118051198D01*
X193852130Y-117003153D01*
X193778166Y-116032125D01*
X193712043Y-115149956D01*
X193654642Y-114368489D01*
X193606844Y-113699565D01*
X193569532Y-113155029D01*
X193543585Y-112746722D01*
X193529887Y-112486487D01*
X193528175Y-112395738D01*
X193548000Y-111973142D01*
X196322035Y-111045296D01*
X197071677Y-110795481D01*
X197677210Y-110596319D01*
X198154645Y-110443371D01*
X198519993Y-110332199D01*
X198789266Y-110258363D01*
X198978474Y-110217424D01*
X199103629Y-110204943D01*
X199180742Y-110216481D01*
X199180742Y-110216481D01*
G37*
X199180742Y-110216481D02*
X199220347Y-110241728D01*
X199244866Y-110299732D01*
X199274399Y-110434331D01*
X199309764Y-110653256D01*
X199351780Y-110964238D01*
X199401262Y-111375010D01*
X199459031Y-111893304D01*
X199525902Y-112526850D01*
X199602695Y-113283380D01*
X199690226Y-114170627D01*
X199789314Y-115196322D01*
X199900775Y-116368197D01*
X200025429Y-117693982D01*
X200151215Y-119042836D01*
X200262604Y-120240378D01*
X200369829Y-121391762D01*
X200471824Y-122485613D01*
X200567522Y-123510558D01*
X200655858Y-124455221D01*
X200735764Y-125308229D01*
X200806175Y-126058207D01*
X200866024Y-126693781D01*
X200914245Y-127203578D01*
X200949771Y-127576222D01*
X200971537Y-127800339D01*
X200978236Y-127864452D01*
X201006496Y-127906239D01*
X201087738Y-127912225D01*
X201241064Y-127876354D01*
X201485579Y-127792568D01*
X201840387Y-127654811D01*
X202324592Y-127457025D01*
X202522667Y-127374788D01*
X203113072Y-127135490D01*
X203592994Y-126954598D01*
X203950332Y-126836292D01*
X204172984Y-126784749D01*
X204229680Y-126785236D01*
X204372081Y-126876286D01*
X204452144Y-127086306D01*
X204463197Y-127147901D01*
X204483813Y-127309299D01*
X204519198Y-127624083D01*
X204568226Y-128080835D01*
X204629774Y-128668142D01*
X204702719Y-129374588D01*
X204785935Y-130188758D01*
X204878299Y-131099236D01*
X204978687Y-132094608D01*
X205085975Y-133163458D01*
X205199039Y-134294371D01*
X205316755Y-135475932D01*
X205437999Y-136696725D01*
X205561646Y-137945335D01*
X205686574Y-139210348D01*
X205811658Y-140480347D01*
X205935773Y-141743918D01*
X206057797Y-142989645D01*
X206176604Y-144206114D01*
X206291071Y-145381908D01*
X206400074Y-146505613D01*
X206502490Y-147565814D01*
X206597193Y-148551095D01*
X206683060Y-149450041D01*
X206758966Y-150251237D01*
X206823789Y-150943268D01*
X206876404Y-151514718D01*
X206915686Y-151954172D01*
X206940513Y-152250215D01*
X206949759Y-152391432D01*
X206949648Y-152400000D01*
X206938766Y-152508170D01*
X206913252Y-152595716D01*
X206854026Y-152670151D01*
X206742005Y-152738990D01*
X206558108Y-152809746D01*
X206283254Y-152889932D01*
X205898360Y-152987062D01*
X205384347Y-153108649D01*
X204814026Y-153240924D01*
X203934075Y-153436452D01*
X202980093Y-153633773D01*
X201978601Y-153828437D01*
X200956119Y-154015994D01*
X199939168Y-154191995D01*
X198954267Y-154351990D01*
X198027937Y-154491529D01*
X197186698Y-154606163D01*
X196457070Y-154691442D01*
X195865574Y-154742916D01*
X195859917Y-154743279D01*
X195482692Y-154765906D01*
X195241338Y-154771717D01*
X195102755Y-154754967D01*
X195033842Y-154709909D01*
X195001500Y-154630795D01*
X194992388Y-154592667D01*
X194977549Y-154472334D01*
X194951487Y-154196705D01*
X194915083Y-153777521D01*
X194869216Y-153226520D01*
X194814768Y-152555442D01*
X194752618Y-151776028D01*
X194683646Y-150900017D01*
X194608734Y-149939148D01*
X194528760Y-148905162D01*
X194444606Y-147809799D01*
X194357151Y-146664797D01*
X194267276Y-145481898D01*
X194175861Y-144272839D01*
X194083787Y-143049363D01*
X193991933Y-141823207D01*
X193901179Y-140606112D01*
X193812407Y-139409818D01*
X193726496Y-138246064D01*
X193644326Y-137126590D01*
X193566778Y-136063137D01*
X193494732Y-135067442D01*
X193429068Y-134151248D01*
X193370667Y-133326292D01*
X193320408Y-132604315D01*
X193279172Y-131997057D01*
X193247840Y-131516258D01*
X193227290Y-131173657D01*
X193218405Y-130980993D01*
X193219083Y-130942124D01*
X193314962Y-130864695D01*
X193535922Y-130753895D01*
X193845364Y-130626690D01*
X194087698Y-130539462D01*
X194909165Y-130259667D01*
X194208758Y-121539000D01*
X194112248Y-120330964D01*
X194020052Y-119164415D01*
X193933052Y-118051198D01*
X193852130Y-117003153D01*
X193778166Y-116032125D01*
X193712043Y-115149956D01*
X193654642Y-114368489D01*
X193606844Y-113699565D01*
X193569532Y-113155029D01*
X193543585Y-112746722D01*
X193529887Y-112486487D01*
X193528175Y-112395738D01*
X193548000Y-111973142D01*
X196322035Y-111045296D01*
X197071677Y-110795481D01*
X197677210Y-110596319D01*
X198154645Y-110443371D01*
X198519993Y-110332199D01*
X198789266Y-110258363D01*
X198978474Y-110217424D01*
X199103629Y-110204943D01*
X199180742Y-110216481D01*
G36*
X94831000Y-108993952D02*
X95089580Y-109072563D01*
X95459906Y-109193966D01*
X95918404Y-109350295D01*
X96441497Y-109533684D01*
X96882912Y-109691799D01*
X97474632Y-109905671D01*
X98051291Y-110114041D01*
X98581720Y-110305650D01*
X99034751Y-110469240D01*
X99379214Y-110593552D01*
X99525667Y-110646352D01*
X99844316Y-110766031D01*
X100036249Y-110858554D01*
X100135714Y-110949337D01*
X100176959Y-111063795D01*
X100186332Y-111136614D01*
X100182045Y-111247577D01*
X100164284Y-111513445D01*
X100134207Y-111920424D01*
X100092978Y-112454719D01*
X100041755Y-113102536D01*
X99981699Y-113850079D01*
X99913972Y-114683554D01*
X99839734Y-115589168D01*
X99760145Y-116553124D01*
X99676366Y-117561629D01*
X99589558Y-118600887D01*
X99500882Y-119657106D01*
X99411498Y-120716489D01*
X99322566Y-121765242D01*
X99235248Y-122789571D01*
X99150703Y-123775682D01*
X99070094Y-124709779D01*
X98994579Y-125578067D01*
X98925321Y-126366754D01*
X98863479Y-127062043D01*
X98810215Y-127650141D01*
X98766688Y-128117252D01*
X98734060Y-128449583D01*
X98715495Y-128617915D01*
X98666389Y-129008163D01*
X100556528Y-129685839D01*
X101138106Y-129893478D01*
X101710614Y-130096290D01*
X102240116Y-130282370D01*
X102692673Y-130439816D01*
X103034350Y-130556722D01*
X103137840Y-130591271D01*
X103455839Y-130705764D01*
X103706562Y-130814266D01*
X103849992Y-130898739D01*
X103867877Y-130920347D01*
X103867576Y-131019090D01*
X103854768Y-131274876D01*
X103830348Y-131675948D01*
X103795216Y-132210546D01*
X103750267Y-132866913D01*
X103696399Y-133633291D01*
X103634510Y-134497919D01*
X103565497Y-135449042D01*
X103490258Y-136474899D01*
X103409689Y-137563733D01*
X103324689Y-138703785D01*
X103236154Y-139883298D01*
X103144983Y-141090512D01*
X103052071Y-142313669D01*
X102958317Y-143541011D01*
X102864619Y-144760780D01*
X102771872Y-145961217D01*
X102680976Y-147130564D01*
X102592827Y-148257062D01*
X102508322Y-149328954D01*
X102428359Y-150334480D01*
X102353836Y-151261883D01*
X102285649Y-152099404D01*
X102224697Y-152835285D01*
X102171876Y-153457767D01*
X102128084Y-153955092D01*
X102094218Y-154315502D01*
X102071175Y-154527239D01*
X102062201Y-154580167D01*
X102001324Y-154685166D01*
X101897827Y-154741413D01*
X101706902Y-154762336D01*
X101453649Y-154762555D01*
X101184253Y-154747619D01*
X100790669Y-154711766D01*
X100316108Y-154659585D01*
X99803783Y-154595667D01*
X99525667Y-154557751D01*
X98647771Y-154428658D01*
X97737216Y-154284681D01*
X96810209Y-154129136D01*
X95882952Y-153965340D01*
X94971652Y-153796610D01*
X94092513Y-153626263D01*
X93261740Y-153457615D01*
X92495538Y-153293984D01*
X91810111Y-153138685D01*
X91221664Y-152995037D01*
X90746403Y-152866356D01*
X90400532Y-152755959D01*
X90200256Y-152667162D01*
X90168172Y-152642444D01*
X90158542Y-152607440D01*
X90154682Y-152524200D01*
X90157119Y-152387143D01*
X90166382Y-152190690D01*
X90183000Y-151929262D01*
X90207501Y-151597278D01*
X90240413Y-151189159D01*
X90282264Y-150699326D01*
X90333584Y-150122200D01*
X90394899Y-149452199D01*
X90466740Y-148683746D01*
X90549633Y-147811260D01*
X90644108Y-146829162D01*
X90750693Y-145731871D01*
X90869916Y-144513810D01*
X91002305Y-143169398D01*
X91148389Y-141693055D01*
X91308697Y-140079202D01*
X91483756Y-138322260D01*
X91674095Y-136416648D01*
X91880242Y-134356788D01*
X92102726Y-132137099D01*
X92231624Y-130852334D01*
X92422571Y-128951807D01*
X92609548Y-127095018D01*
X92791825Y-125289046D01*
X92968673Y-123540969D01*
X93139366Y-121857865D01*
X93303173Y-120246810D01*
X93459366Y-118714884D01*
X93607217Y-117269165D01*
X93745996Y-115916730D01*
X93874977Y-114664656D01*
X93993429Y-113520023D01*
X94100625Y-112489908D01*
X94195836Y-111581390D01*
X94278333Y-110801545D01*
X94347387Y-110157451D01*
X94402271Y-109656188D01*
X94442256Y-109304833D01*
X94466612Y-109110463D01*
X94473583Y-109071834D01*
X94606233Y-108983023D01*
X94707743Y-108966000D01*
X94831000Y-108993952D01*
X94831000Y-108993952D01*
G37*
X94831000Y-108993952D02*
X95089580Y-109072563D01*
X95459906Y-109193966D01*
X95918404Y-109350295D01*
X96441497Y-109533684D01*
X96882912Y-109691799D01*
X97474632Y-109905671D01*
X98051291Y-110114041D01*
X98581720Y-110305650D01*
X99034751Y-110469240D01*
X99379214Y-110593552D01*
X99525667Y-110646352D01*
X99844316Y-110766031D01*
X100036249Y-110858554D01*
X100135714Y-110949337D01*
X100176959Y-111063795D01*
X100186332Y-111136614D01*
X100182045Y-111247577D01*
X100164284Y-111513445D01*
X100134207Y-111920424D01*
X100092978Y-112454719D01*
X100041755Y-113102536D01*
X99981699Y-113850079D01*
X99913972Y-114683554D01*
X99839734Y-115589168D01*
X99760145Y-116553124D01*
X99676366Y-117561629D01*
X99589558Y-118600887D01*
X99500882Y-119657106D01*
X99411498Y-120716489D01*
X99322566Y-121765242D01*
X99235248Y-122789571D01*
X99150703Y-123775682D01*
X99070094Y-124709779D01*
X98994579Y-125578067D01*
X98925321Y-126366754D01*
X98863479Y-127062043D01*
X98810215Y-127650141D01*
X98766688Y-128117252D01*
X98734060Y-128449583D01*
X98715495Y-128617915D01*
X98666389Y-129008163D01*
X100556528Y-129685839D01*
X101138106Y-129893478D01*
X101710614Y-130096290D01*
X102240116Y-130282370D01*
X102692673Y-130439816D01*
X103034350Y-130556722D01*
X103137840Y-130591271D01*
X103455839Y-130705764D01*
X103706562Y-130814266D01*
X103849992Y-130898739D01*
X103867877Y-130920347D01*
X103867576Y-131019090D01*
X103854768Y-131274876D01*
X103830348Y-131675948D01*
X103795216Y-132210546D01*
X103750267Y-132866913D01*
X103696399Y-133633291D01*
X103634510Y-134497919D01*
X103565497Y-135449042D01*
X103490258Y-136474899D01*
X103409689Y-137563733D01*
X103324689Y-138703785D01*
X103236154Y-139883298D01*
X103144983Y-141090512D01*
X103052071Y-142313669D01*
X102958317Y-143541011D01*
X102864619Y-144760780D01*
X102771872Y-145961217D01*
X102680976Y-147130564D01*
X102592827Y-148257062D01*
X102508322Y-149328954D01*
X102428359Y-150334480D01*
X102353836Y-151261883D01*
X102285649Y-152099404D01*
X102224697Y-152835285D01*
X102171876Y-153457767D01*
X102128084Y-153955092D01*
X102094218Y-154315502D01*
X102071175Y-154527239D01*
X102062201Y-154580167D01*
X102001324Y-154685166D01*
X101897827Y-154741413D01*
X101706902Y-154762336D01*
X101453649Y-154762555D01*
X101184253Y-154747619D01*
X100790669Y-154711766D01*
X100316108Y-154659585D01*
X99803783Y-154595667D01*
X99525667Y-154557751D01*
X98647771Y-154428658D01*
X97737216Y-154284681D01*
X96810209Y-154129136D01*
X95882952Y-153965340D01*
X94971652Y-153796610D01*
X94092513Y-153626263D01*
X93261740Y-153457615D01*
X92495538Y-153293984D01*
X91810111Y-153138685D01*
X91221664Y-152995037D01*
X90746403Y-152866356D01*
X90400532Y-152755959D01*
X90200256Y-152667162D01*
X90168172Y-152642444D01*
X90158542Y-152607440D01*
X90154682Y-152524200D01*
X90157119Y-152387143D01*
X90166382Y-152190690D01*
X90183000Y-151929262D01*
X90207501Y-151597278D01*
X90240413Y-151189159D01*
X90282264Y-150699326D01*
X90333584Y-150122200D01*
X90394899Y-149452199D01*
X90466740Y-148683746D01*
X90549633Y-147811260D01*
X90644108Y-146829162D01*
X90750693Y-145731871D01*
X90869916Y-144513810D01*
X91002305Y-143169398D01*
X91148389Y-141693055D01*
X91308697Y-140079202D01*
X91483756Y-138322260D01*
X91674095Y-136416648D01*
X91880242Y-134356788D01*
X92102726Y-132137099D01*
X92231624Y-130852334D01*
X92422571Y-128951807D01*
X92609548Y-127095018D01*
X92791825Y-125289046D01*
X92968673Y-123540969D01*
X93139366Y-121857865D01*
X93303173Y-120246810D01*
X93459366Y-118714884D01*
X93607217Y-117269165D01*
X93745996Y-115916730D01*
X93874977Y-114664656D01*
X93993429Y-113520023D01*
X94100625Y-112489908D01*
X94195836Y-111581390D01*
X94278333Y-110801545D01*
X94347387Y-110157451D01*
X94402271Y-109656188D01*
X94442256Y-109304833D01*
X94466612Y-109110463D01*
X94473583Y-109071834D01*
X94606233Y-108983023D01*
X94707743Y-108966000D01*
X94831000Y-108993952D01*
G36*
X185629081Y-114317557D02*
X185726014Y-114356492D01*
X185760305Y-114405834D01*
X185771031Y-114503063D01*
X185792027Y-114758118D01*
X185822516Y-115159850D01*
X185861721Y-115697110D01*
X185908866Y-116358753D01*
X185963175Y-117133629D01*
X186023872Y-118010590D01*
X186090179Y-118978490D01*
X186161322Y-120026180D01*
X186236523Y-121142512D01*
X186315005Y-122316338D01*
X186392675Y-123486334D01*
X186473448Y-124705649D01*
X186551372Y-125878727D01*
X186625691Y-126994363D01*
X186695650Y-128041355D01*
X186760492Y-129008497D01*
X186819462Y-129884588D01*
X186871805Y-130658424D01*
X186916764Y-131318801D01*
X186953583Y-131854516D01*
X186981508Y-132254366D01*
X186999782Y-132507146D01*
X187007528Y-132600953D01*
X187033651Y-132643181D01*
X187108875Y-132658280D01*
X187253137Y-132642095D01*
X187486373Y-132590470D01*
X187828522Y-132499250D01*
X188299520Y-132364281D01*
X188679667Y-132252466D01*
X189250468Y-132082771D01*
X189829780Y-131909089D01*
X190374143Y-131744552D01*
X190840099Y-131602292D01*
X191166244Y-131501094D01*
X191587825Y-131376187D01*
X191879406Y-131310131D01*
X192067898Y-131298119D01*
X192161077Y-131323393D01*
X192288511Y-131398824D01*
X192320630Y-131426812D01*
X192326987Y-131511826D01*
X192345498Y-131756036D01*
X192375427Y-132149796D01*
X192416039Y-132683461D01*
X192466598Y-133347385D01*
X192526370Y-134131922D01*
X192594619Y-135027426D01*
X192670610Y-136024251D01*
X192753608Y-137112752D01*
X192842878Y-138283283D01*
X192937684Y-139526198D01*
X193037291Y-140831851D01*
X193140964Y-142190596D01*
X193209149Y-143084124D01*
X193337711Y-144772422D01*
X193453348Y-146299259D01*
X193556546Y-147671974D01*
X193647795Y-148897908D01*
X193727583Y-149984399D01*
X193796398Y-150938788D01*
X193854728Y-151768414D01*
X193903061Y-152480618D01*
X193941885Y-153082738D01*
X193971689Y-153582115D01*
X193992961Y-153986088D01*
X194006189Y-154301998D01*
X194011861Y-154537183D01*
X194010465Y-154698984D01*
X194002489Y-154794741D01*
X193990391Y-154830228D01*
X193916523Y-154873101D01*
X193774871Y-154914323D01*
X193552981Y-154955183D01*
X193238400Y-154996970D01*
X192818673Y-155040971D01*
X192281347Y-155088475D01*
X191613970Y-155140770D01*
X190804086Y-155199143D01*
X189839244Y-155264883D01*
X189695667Y-155274443D01*
X188591489Y-155345565D01*
X187515930Y-155410544D01*
X186488739Y-155468410D01*
X185529665Y-155518190D01*
X184658460Y-155558913D01*
X183894872Y-155589607D01*
X183258653Y-155609302D01*
X182769551Y-155617025D01*
X182729738Y-155617101D01*
X182371465Y-155614153D01*
X182146450Y-155599388D01*
X182018651Y-155564341D01*
X181952027Y-155500543D01*
X181919852Y-155426834D01*
X181909259Y-155325814D01*
X181890215Y-155063195D01*
X181863142Y-154646480D01*
X181828457Y-154083170D01*
X181786581Y-153380767D01*
X181737934Y-152546773D01*
X181682935Y-151588691D01*
X181622005Y-150514022D01*
X181555562Y-149330269D01*
X181484026Y-148044933D01*
X181407817Y-146665517D01*
X181327356Y-145199523D01*
X181243061Y-143654452D01*
X181155352Y-142037806D01*
X181064649Y-140357089D01*
X180971371Y-138619801D01*
X180875939Y-136833445D01*
X180804302Y-135486670D01*
X180688659Y-133306702D01*
X180581895Y-131289640D01*
X180483722Y-129429305D01*
X180393851Y-127719518D01*
X180311994Y-126154099D01*
X180237864Y-124726870D01*
X180171173Y-123431650D01*
X180111633Y-122262262D01*
X180058955Y-121212526D01*
X180012852Y-120276262D01*
X179973036Y-119447292D01*
X179939219Y-118719437D01*
X179911113Y-118086517D01*
X179888429Y-117542353D01*
X179870881Y-117080766D01*
X179858179Y-116695578D01*
X179850037Y-116380608D01*
X179846166Y-116129677D01*
X179846277Y-115936608D01*
X179850084Y-115795219D01*
X179857299Y-115699333D01*
X179867632Y-115642770D01*
X179878521Y-115621117D01*
X180005052Y-115559737D01*
X180261541Y-115476069D01*
X180611833Y-115380695D01*
X181019773Y-115284194D01*
X181059667Y-115275470D01*
X181508169Y-115176014D01*
X182066707Y-115048986D01*
X182680808Y-114906949D01*
X183296000Y-114762470D01*
X183672092Y-114672857D01*
X184318975Y-114520900D01*
X184820363Y-114411661D01*
X185194008Y-114342871D01*
X185457664Y-114312260D01*
X185629081Y-114317557D01*
X185629081Y-114317557D01*
G37*
X185629081Y-114317557D02*
X185726014Y-114356492D01*
X185760305Y-114405834D01*
X185771031Y-114503063D01*
X185792027Y-114758118D01*
X185822516Y-115159850D01*
X185861721Y-115697110D01*
X185908866Y-116358753D01*
X185963175Y-117133629D01*
X186023872Y-118010590D01*
X186090179Y-118978490D01*
X186161322Y-120026180D01*
X186236523Y-121142512D01*
X186315005Y-122316338D01*
X186392675Y-123486334D01*
X186473448Y-124705649D01*
X186551372Y-125878727D01*
X186625691Y-126994363D01*
X186695650Y-128041355D01*
X186760492Y-129008497D01*
X186819462Y-129884588D01*
X186871805Y-130658424D01*
X186916764Y-131318801D01*
X186953583Y-131854516D01*
X186981508Y-132254366D01*
X186999782Y-132507146D01*
X187007528Y-132600953D01*
X187033651Y-132643181D01*
X187108875Y-132658280D01*
X187253137Y-132642095D01*
X187486373Y-132590470D01*
X187828522Y-132499250D01*
X188299520Y-132364281D01*
X188679667Y-132252466D01*
X189250468Y-132082771D01*
X189829780Y-131909089D01*
X190374143Y-131744552D01*
X190840099Y-131602292D01*
X191166244Y-131501094D01*
X191587825Y-131376187D01*
X191879406Y-131310131D01*
X192067898Y-131298119D01*
X192161077Y-131323393D01*
X192288511Y-131398824D01*
X192320630Y-131426812D01*
X192326987Y-131511826D01*
X192345498Y-131756036D01*
X192375427Y-132149796D01*
X192416039Y-132683461D01*
X192466598Y-133347385D01*
X192526370Y-134131922D01*
X192594619Y-135027426D01*
X192670610Y-136024251D01*
X192753608Y-137112752D01*
X192842878Y-138283283D01*
X192937684Y-139526198D01*
X193037291Y-140831851D01*
X193140964Y-142190596D01*
X193209149Y-143084124D01*
X193337711Y-144772422D01*
X193453348Y-146299259D01*
X193556546Y-147671974D01*
X193647795Y-148897908D01*
X193727583Y-149984399D01*
X193796398Y-150938788D01*
X193854728Y-151768414D01*
X193903061Y-152480618D01*
X193941885Y-153082738D01*
X193971689Y-153582115D01*
X193992961Y-153986088D01*
X194006189Y-154301998D01*
X194011861Y-154537183D01*
X194010465Y-154698984D01*
X194002489Y-154794741D01*
X193990391Y-154830228D01*
X193916523Y-154873101D01*
X193774871Y-154914323D01*
X193552981Y-154955183D01*
X193238400Y-154996970D01*
X192818673Y-155040971D01*
X192281347Y-155088475D01*
X191613970Y-155140770D01*
X190804086Y-155199143D01*
X189839244Y-155264883D01*
X189695667Y-155274443D01*
X188591489Y-155345565D01*
X187515930Y-155410544D01*
X186488739Y-155468410D01*
X185529665Y-155518190D01*
X184658460Y-155558913D01*
X183894872Y-155589607D01*
X183258653Y-155609302D01*
X182769551Y-155617025D01*
X182729738Y-155617101D01*
X182371465Y-155614153D01*
X182146450Y-155599388D01*
X182018651Y-155564341D01*
X181952027Y-155500543D01*
X181919852Y-155426834D01*
X181909259Y-155325814D01*
X181890215Y-155063195D01*
X181863142Y-154646480D01*
X181828457Y-154083170D01*
X181786581Y-153380767D01*
X181737934Y-152546773D01*
X181682935Y-151588691D01*
X181622005Y-150514022D01*
X181555562Y-149330269D01*
X181484026Y-148044933D01*
X181407817Y-146665517D01*
X181327356Y-145199523D01*
X181243061Y-143654452D01*
X181155352Y-142037806D01*
X181064649Y-140357089D01*
X180971371Y-138619801D01*
X180875939Y-136833445D01*
X180804302Y-135486670D01*
X180688659Y-133306702D01*
X180581895Y-131289640D01*
X180483722Y-129429305D01*
X180393851Y-127719518D01*
X180311994Y-126154099D01*
X180237864Y-124726870D01*
X180171173Y-123431650D01*
X180111633Y-122262262D01*
X180058955Y-121212526D01*
X180012852Y-120276262D01*
X179973036Y-119447292D01*
X179939219Y-118719437D01*
X179911113Y-118086517D01*
X179888429Y-117542353D01*
X179870881Y-117080766D01*
X179858179Y-116695578D01*
X179850037Y-116380608D01*
X179846166Y-116129677D01*
X179846277Y-115936608D01*
X179850084Y-115795219D01*
X179857299Y-115699333D01*
X179867632Y-115642770D01*
X179878521Y-115621117D01*
X180005052Y-115559737D01*
X180261541Y-115476069D01*
X180611833Y-115380695D01*
X181019773Y-115284194D01*
X181059667Y-115275470D01*
X181508169Y-115176014D01*
X182066707Y-115048986D01*
X182680808Y-114906949D01*
X183296000Y-114762470D01*
X183672092Y-114672857D01*
X184318975Y-114520900D01*
X184820363Y-114411661D01*
X185194008Y-114342871D01*
X185457664Y-114312260D01*
X185629081Y-114317557D01*
G36*
X108184755Y-113381841D02*
X108329480Y-113402130D01*
X108540811Y-113444426D01*
X108834282Y-113511920D01*
X109225425Y-113607804D01*
X109729774Y-113735270D01*
X110362861Y-113897511D01*
X111140218Y-114097718D01*
X111379000Y-114159250D01*
X113792000Y-114780996D01*
X113816940Y-115069665D01*
X113814784Y-115184079D01*
X113803281Y-115453846D01*
X113783222Y-115865290D01*
X113755393Y-116404734D01*
X113720585Y-117058502D01*
X113679587Y-117812918D01*
X113633186Y-118654304D01*
X113582171Y-119568985D01*
X113527333Y-120543284D01*
X113469458Y-121563524D01*
X113409337Y-122616029D01*
X113347758Y-123687123D01*
X113285510Y-124763129D01*
X113223381Y-125830371D01*
X113162161Y-126875171D01*
X113102638Y-127883854D01*
X113045602Y-128842744D01*
X112991840Y-129738163D01*
X112942142Y-130556435D01*
X112897297Y-131283884D01*
X112858094Y-131906834D01*
X112825320Y-132411607D01*
X112799766Y-132784527D01*
X112782220Y-133011919D01*
X112781805Y-133016572D01*
X112739593Y-133487477D01*
X114425622Y-133897893D01*
X114940779Y-134025150D01*
X115402807Y-134142801D01*
X115785263Y-134243827D01*
X116061703Y-134321209D01*
X116205686Y-134367926D01*
X116216971Y-134373398D01*
X116231418Y-134415590D01*
X116240541Y-134526066D01*
X116244021Y-134712205D01*
X116241541Y-134981385D01*
X116232781Y-135340987D01*
X116217425Y-135798388D01*
X116195154Y-136360968D01*
X116165650Y-137036105D01*
X116128595Y-137831178D01*
X116083672Y-138753567D01*
X116030562Y-139810649D01*
X115968947Y-141009804D01*
X115898510Y-142358410D01*
X115818931Y-143863847D01*
X115761521Y-144941823D01*
X115690682Y-146261460D01*
X115621589Y-147534572D01*
X115554840Y-148750890D01*
X115491028Y-149900148D01*
X115430749Y-150972078D01*
X115374598Y-151956412D01*
X115323172Y-152842882D01*
X115277064Y-153621222D01*
X115236870Y-154281164D01*
X115203186Y-154812440D01*
X115176606Y-155204783D01*
X115157727Y-155447926D01*
X115147546Y-155531245D01*
X115044083Y-155562861D01*
X114792415Y-155585089D01*
X114413419Y-155597730D01*
X113927973Y-155600585D01*
X113356955Y-155593454D01*
X112721242Y-155576140D01*
X112268000Y-155558678D01*
X111562503Y-155525938D01*
X110784615Y-155485634D01*
X109955035Y-155439179D01*
X109094460Y-155387981D01*
X108223588Y-155333453D01*
X107363116Y-155277003D01*
X106533743Y-155220044D01*
X105756166Y-155163985D01*
X105051082Y-155110237D01*
X104439189Y-155060211D01*
X103941186Y-155015317D01*
X103577769Y-154976965D01*
X103420334Y-154955705D01*
X103183546Y-154906524D01*
X103067478Y-154834371D01*
X103024130Y-154701848D01*
X103017912Y-154642172D01*
X103021706Y-154528568D01*
X103037836Y-154256123D01*
X103065573Y-153834826D01*
X103104186Y-153274662D01*
X103152944Y-152585620D01*
X103211117Y-151777687D01*
X103277976Y-150860851D01*
X103352789Y-149845099D01*
X103434826Y-148740418D01*
X103523358Y-147556797D01*
X103617653Y-146304223D01*
X103716982Y-144992683D01*
X103820614Y-143632165D01*
X103874178Y-142931924D01*
X104002932Y-141254929D01*
X104119951Y-139739430D01*
X104225874Y-138378041D01*
X104321342Y-137163378D01*
X104406996Y-136088056D01*
X104483475Y-135144689D01*
X104551420Y-134325893D01*
X104611472Y-133624284D01*
X104664270Y-133032475D01*
X104710455Y-132543082D01*
X104750667Y-132148720D01*
X104785546Y-131842005D01*
X104815733Y-131615550D01*
X104841869Y-131461972D01*
X104864593Y-131373886D01*
X104878616Y-131347432D01*
X104956237Y-131291995D01*
X105065429Y-131276140D01*
X105242264Y-131303972D01*
X105522811Y-131379596D01*
X105743737Y-131445898D01*
X106070870Y-131541727D01*
X106330686Y-131610381D01*
X106485516Y-131642270D01*
X106511771Y-131641452D01*
X106521767Y-131554755D01*
X106543045Y-131310150D01*
X106574776Y-130918625D01*
X106616131Y-130391173D01*
X106666281Y-129738783D01*
X106724398Y-128972447D01*
X106789651Y-128103154D01*
X106861213Y-127141895D01*
X106938254Y-126099661D01*
X107019946Y-124987442D01*
X107105458Y-123816229D01*
X107193964Y-122597013D01*
X107194032Y-122596061D01*
X107305259Y-121066715D01*
X107405842Y-119699635D01*
X107496345Y-118488123D01*
X107577329Y-117425483D01*
X107649357Y-116505018D01*
X107712991Y-115720030D01*
X107768793Y-115063824D01*
X107817325Y-114529703D01*
X107859150Y-114110969D01*
X107894830Y-113800925D01*
X107924927Y-113592876D01*
X107950002Y-113480123D01*
X107961266Y-113456907D01*
X107994893Y-113421091D01*
X108032994Y-113394513D01*
X108091104Y-113380366D01*
X108184755Y-113381841D01*
X108184755Y-113381841D01*
G37*
X108184755Y-113381841D02*
X108329480Y-113402130D01*
X108540811Y-113444426D01*
X108834282Y-113511920D01*
X109225425Y-113607804D01*
X109729774Y-113735270D01*
X110362861Y-113897511D01*
X111140218Y-114097718D01*
X111379000Y-114159250D01*
X113792000Y-114780996D01*
X113816940Y-115069665D01*
X113814784Y-115184079D01*
X113803281Y-115453846D01*
X113783222Y-115865290D01*
X113755393Y-116404734D01*
X113720585Y-117058502D01*
X113679587Y-117812918D01*
X113633186Y-118654304D01*
X113582171Y-119568985D01*
X113527333Y-120543284D01*
X113469458Y-121563524D01*
X113409337Y-122616029D01*
X113347758Y-123687123D01*
X113285510Y-124763129D01*
X113223381Y-125830371D01*
X113162161Y-126875171D01*
X113102638Y-127883854D01*
X113045602Y-128842744D01*
X112991840Y-129738163D01*
X112942142Y-130556435D01*
X112897297Y-131283884D01*
X112858094Y-131906834D01*
X112825320Y-132411607D01*
X112799766Y-132784527D01*
X112782220Y-133011919D01*
X112781805Y-133016572D01*
X112739593Y-133487477D01*
X114425622Y-133897893D01*
X114940779Y-134025150D01*
X115402807Y-134142801D01*
X115785263Y-134243827D01*
X116061703Y-134321209D01*
X116205686Y-134367926D01*
X116216971Y-134373398D01*
X116231418Y-134415590D01*
X116240541Y-134526066D01*
X116244021Y-134712205D01*
X116241541Y-134981385D01*
X116232781Y-135340987D01*
X116217425Y-135798388D01*
X116195154Y-136360968D01*
X116165650Y-137036105D01*
X116128595Y-137831178D01*
X116083672Y-138753567D01*
X116030562Y-139810649D01*
X115968947Y-141009804D01*
X115898510Y-142358410D01*
X115818931Y-143863847D01*
X115761521Y-144941823D01*
X115690682Y-146261460D01*
X115621589Y-147534572D01*
X115554840Y-148750890D01*
X115491028Y-149900148D01*
X115430749Y-150972078D01*
X115374598Y-151956412D01*
X115323172Y-152842882D01*
X115277064Y-153621222D01*
X115236870Y-154281164D01*
X115203186Y-154812440D01*
X115176606Y-155204783D01*
X115157727Y-155447926D01*
X115147546Y-155531245D01*
X115044083Y-155562861D01*
X114792415Y-155585089D01*
X114413419Y-155597730D01*
X113927973Y-155600585D01*
X113356955Y-155593454D01*
X112721242Y-155576140D01*
X112268000Y-155558678D01*
X111562503Y-155525938D01*
X110784615Y-155485634D01*
X109955035Y-155439179D01*
X109094460Y-155387981D01*
X108223588Y-155333453D01*
X107363116Y-155277003D01*
X106533743Y-155220044D01*
X105756166Y-155163985D01*
X105051082Y-155110237D01*
X104439189Y-155060211D01*
X103941186Y-155015317D01*
X103577769Y-154976965D01*
X103420334Y-154955705D01*
X103183546Y-154906524D01*
X103067478Y-154834371D01*
X103024130Y-154701848D01*
X103017912Y-154642172D01*
X103021706Y-154528568D01*
X103037836Y-154256123D01*
X103065573Y-153834826D01*
X103104186Y-153274662D01*
X103152944Y-152585620D01*
X103211117Y-151777687D01*
X103277976Y-150860851D01*
X103352789Y-149845099D01*
X103434826Y-148740418D01*
X103523358Y-147556797D01*
X103617653Y-146304223D01*
X103716982Y-144992683D01*
X103820614Y-143632165D01*
X103874178Y-142931924D01*
X104002932Y-141254929D01*
X104119951Y-139739430D01*
X104225874Y-138378041D01*
X104321342Y-137163378D01*
X104406996Y-136088056D01*
X104483475Y-135144689D01*
X104551420Y-134325893D01*
X104611472Y-133624284D01*
X104664270Y-133032475D01*
X104710455Y-132543082D01*
X104750667Y-132148720D01*
X104785546Y-131842005D01*
X104815733Y-131615550D01*
X104841869Y-131461972D01*
X104864593Y-131373886D01*
X104878616Y-131347432D01*
X104956237Y-131291995D01*
X105065429Y-131276140D01*
X105242264Y-131303972D01*
X105522811Y-131379596D01*
X105743737Y-131445898D01*
X106070870Y-131541727D01*
X106330686Y-131610381D01*
X106485516Y-131642270D01*
X106511771Y-131641452D01*
X106521767Y-131554755D01*
X106543045Y-131310150D01*
X106574776Y-130918625D01*
X106616131Y-130391173D01*
X106666281Y-129738783D01*
X106724398Y-128972447D01*
X106789651Y-128103154D01*
X106861213Y-127141895D01*
X106938254Y-126099661D01*
X107019946Y-124987442D01*
X107105458Y-123816229D01*
X107193964Y-122597013D01*
X107194032Y-122596061D01*
X107305259Y-121066715D01*
X107405842Y-119699635D01*
X107496345Y-118488123D01*
X107577329Y-117425483D01*
X107649357Y-116505018D01*
X107712991Y-115720030D01*
X107768793Y-115063824D01*
X107817325Y-114529703D01*
X107859150Y-114110969D01*
X107894830Y-113800925D01*
X107924927Y-113592876D01*
X107950002Y-113480123D01*
X107961266Y-113456907D01*
X107994893Y-113421091D01*
X108032994Y-113394513D01*
X108091104Y-113380366D01*
X108184755Y-113381841D01*
G36*
X178778507Y-115881678D02*
X178789138Y-115890271D01*
X178802170Y-115982054D01*
X178823457Y-116233874D01*
X178852506Y-116636665D01*
X178888823Y-117181357D01*
X178931917Y-117858881D01*
X178981294Y-118660168D01*
X179036461Y-119576151D01*
X179096925Y-120597760D01*
X179162193Y-121715926D01*
X179231773Y-122921581D01*
X179305170Y-124205656D01*
X179381893Y-125559082D01*
X179461449Y-126972791D01*
X179543343Y-128437714D01*
X179627084Y-129944781D01*
X179712179Y-131484926D01*
X179798134Y-133049078D01*
X179884457Y-134628169D01*
X179970654Y-136213130D01*
X180056233Y-137794892D01*
X180140700Y-139364388D01*
X180223563Y-140912548D01*
X180304329Y-142430303D01*
X180382504Y-143908584D01*
X180457597Y-145338324D01*
X180529113Y-146710453D01*
X180596560Y-148015902D01*
X180659445Y-149245603D01*
X180717275Y-150390487D01*
X180769557Y-151441486D01*
X180815798Y-152389530D01*
X180855506Y-153225551D01*
X180888186Y-153940480D01*
X180913346Y-154525248D01*
X180930494Y-154970788D01*
X180939136Y-155268029D01*
X180938779Y-155407904D01*
X180937681Y-155415832D01*
X180846286Y-155584588D01*
X180760768Y-155648935D01*
X180656022Y-155658166D01*
X180395981Y-155668480D01*
X179994679Y-155679628D01*
X179466151Y-155691357D01*
X178824429Y-155703415D01*
X178083548Y-155715550D01*
X177257540Y-155727512D01*
X176360440Y-155739047D01*
X175406282Y-155749905D01*
X174769871Y-155756405D01*
X173611481Y-155767303D01*
X172611119Y-155775693D01*
X171757494Y-155781456D01*
X171039318Y-155784475D01*
X170445302Y-155784633D01*
X169964157Y-155781811D01*
X169584592Y-155775892D01*
X169295320Y-155766758D01*
X169085051Y-155754291D01*
X168942495Y-155738374D01*
X168856363Y-155718889D01*
X168815367Y-155695718D01*
X168814167Y-155694297D01*
X168798243Y-155594753D01*
X168778254Y-155339176D01*
X168754635Y-154940806D01*
X168727817Y-154412886D01*
X168698233Y-153768655D01*
X168666315Y-153021355D01*
X168632497Y-152184227D01*
X168597210Y-151270510D01*
X168560886Y-150293447D01*
X168523960Y-149266278D01*
X168486862Y-148202243D01*
X168450027Y-147114584D01*
X168413885Y-146016542D01*
X168378870Y-144921356D01*
X168345414Y-143842269D01*
X168313951Y-142792521D01*
X168284911Y-141785353D01*
X168258728Y-140834005D01*
X168235835Y-139951719D01*
X168216664Y-139151735D01*
X168201647Y-138447294D01*
X168191217Y-137851638D01*
X168185807Y-137378006D01*
X168185849Y-137039640D01*
X168191775Y-136849780D01*
X168197405Y-136813981D01*
X168315842Y-136725611D01*
X168581789Y-136647559D01*
X168969086Y-136581570D01*
X169499982Y-136505255D01*
X170071139Y-136419276D01*
X170657382Y-136327828D01*
X171233539Y-136235108D01*
X171774436Y-136145312D01*
X172254899Y-136062637D01*
X172649755Y-135991279D01*
X172933830Y-135935435D01*
X173081950Y-135899302D01*
X173094861Y-135893794D01*
X173110272Y-135842470D01*
X173120409Y-135705883D01*
X173125072Y-135476777D01*
X173124060Y-135147893D01*
X173117172Y-134711975D01*
X173104207Y-134161764D01*
X173084964Y-133490003D01*
X173059242Y-132689434D01*
X173026839Y-131752801D01*
X172987556Y-130672844D01*
X172941190Y-129442308D01*
X172887542Y-128053934D01*
X172854214Y-127204066D01*
X172806363Y-125993396D01*
X172759639Y-124819155D01*
X172714557Y-123693840D01*
X172671630Y-122629948D01*
X172631373Y-121639976D01*
X172594301Y-120736421D01*
X172560927Y-119931781D01*
X172531767Y-119238551D01*
X172507334Y-118669230D01*
X172488143Y-118236314D01*
X172474708Y-117952300D01*
X172469465Y-117856000D01*
X172457162Y-117513069D01*
X172463583Y-117228352D01*
X172487084Y-117049193D01*
X172498422Y-117021125D01*
X172610106Y-116963798D01*
X172875668Y-116887847D01*
X173281077Y-116796559D01*
X173812303Y-116693220D01*
X174173268Y-116628929D01*
X174815264Y-116516120D01*
X175532905Y-116387168D01*
X176257728Y-116254549D01*
X176921269Y-116130738D01*
X177232131Y-116071524D01*
X177794236Y-115966730D01*
X178210616Y-115897596D01*
X178500581Y-115861875D01*
X178683441Y-115857318D01*
X178778507Y-115881678D01*
X178778507Y-115881678D01*
G37*
X178778507Y-115881678D02*
X178789138Y-115890271D01*
X178802170Y-115982054D01*
X178823457Y-116233874D01*
X178852506Y-116636665D01*
X178888823Y-117181357D01*
X178931917Y-117858881D01*
X178981294Y-118660168D01*
X179036461Y-119576151D01*
X179096925Y-120597760D01*
X179162193Y-121715926D01*
X179231773Y-122921581D01*
X179305170Y-124205656D01*
X179381893Y-125559082D01*
X179461449Y-126972791D01*
X179543343Y-128437714D01*
X179627084Y-129944781D01*
X179712179Y-131484926D01*
X179798134Y-133049078D01*
X179884457Y-134628169D01*
X179970654Y-136213130D01*
X180056233Y-137794892D01*
X180140700Y-139364388D01*
X180223563Y-140912548D01*
X180304329Y-142430303D01*
X180382504Y-143908584D01*
X180457597Y-145338324D01*
X180529113Y-146710453D01*
X180596560Y-148015902D01*
X180659445Y-149245603D01*
X180717275Y-150390487D01*
X180769557Y-151441486D01*
X180815798Y-152389530D01*
X180855506Y-153225551D01*
X180888186Y-153940480D01*
X180913346Y-154525248D01*
X180930494Y-154970788D01*
X180939136Y-155268029D01*
X180938779Y-155407904D01*
X180937681Y-155415832D01*
X180846286Y-155584588D01*
X180760768Y-155648935D01*
X180656022Y-155658166D01*
X180395981Y-155668480D01*
X179994679Y-155679628D01*
X179466151Y-155691357D01*
X178824429Y-155703415D01*
X178083548Y-155715550D01*
X177257540Y-155727512D01*
X176360440Y-155739047D01*
X175406282Y-155749905D01*
X174769871Y-155756405D01*
X173611481Y-155767303D01*
X172611119Y-155775693D01*
X171757494Y-155781456D01*
X171039318Y-155784475D01*
X170445302Y-155784633D01*
X169964157Y-155781811D01*
X169584592Y-155775892D01*
X169295320Y-155766758D01*
X169085051Y-155754291D01*
X168942495Y-155738374D01*
X168856363Y-155718889D01*
X168815367Y-155695718D01*
X168814167Y-155694297D01*
X168798243Y-155594753D01*
X168778254Y-155339176D01*
X168754635Y-154940806D01*
X168727817Y-154412886D01*
X168698233Y-153768655D01*
X168666315Y-153021355D01*
X168632497Y-152184227D01*
X168597210Y-151270510D01*
X168560886Y-150293447D01*
X168523960Y-149266278D01*
X168486862Y-148202243D01*
X168450027Y-147114584D01*
X168413885Y-146016542D01*
X168378870Y-144921356D01*
X168345414Y-143842269D01*
X168313951Y-142792521D01*
X168284911Y-141785353D01*
X168258728Y-140834005D01*
X168235835Y-139951719D01*
X168216664Y-139151735D01*
X168201647Y-138447294D01*
X168191217Y-137851638D01*
X168185807Y-137378006D01*
X168185849Y-137039640D01*
X168191775Y-136849780D01*
X168197405Y-136813981D01*
X168315842Y-136725611D01*
X168581789Y-136647559D01*
X168969086Y-136581570D01*
X169499982Y-136505255D01*
X170071139Y-136419276D01*
X170657382Y-136327828D01*
X171233539Y-136235108D01*
X171774436Y-136145312D01*
X172254899Y-136062637D01*
X172649755Y-135991279D01*
X172933830Y-135935435D01*
X173081950Y-135899302D01*
X173094861Y-135893794D01*
X173110272Y-135842470D01*
X173120409Y-135705883D01*
X173125072Y-135476777D01*
X173124060Y-135147893D01*
X173117172Y-134711975D01*
X173104207Y-134161764D01*
X173084964Y-133490003D01*
X173059242Y-132689434D01*
X173026839Y-131752801D01*
X172987556Y-130672844D01*
X172941190Y-129442308D01*
X172887542Y-128053934D01*
X172854214Y-127204066D01*
X172806363Y-125993396D01*
X172759639Y-124819155D01*
X172714557Y-123693840D01*
X172671630Y-122629948D01*
X172631373Y-121639976D01*
X172594301Y-120736421D01*
X172560927Y-119931781D01*
X172531767Y-119238551D01*
X172507334Y-118669230D01*
X172488143Y-118236314D01*
X172474708Y-117952300D01*
X172469465Y-117856000D01*
X172457162Y-117513069D01*
X172463583Y-117228352D01*
X172487084Y-117049193D01*
X172498422Y-117021125D01*
X172610106Y-116963798D01*
X172875668Y-116887847D01*
X173281077Y-116796559D01*
X173812303Y-116693220D01*
X174173268Y-116628929D01*
X174815264Y-116516120D01*
X175532905Y-116387168D01*
X176257728Y-116254549D01*
X176921269Y-116130738D01*
X177232131Y-116071524D01*
X177794236Y-115966730D01*
X178210616Y-115897596D01*
X178500581Y-115861875D01*
X178683441Y-115857318D01*
X178778507Y-115881678D01*
G36*
X164005499Y-118083972D02*
X164019845Y-118087254D01*
X164123436Y-118195724D01*
X164167119Y-118309839D01*
X164174602Y-118417225D01*
X164186144Y-118682795D01*
X164201411Y-119095454D01*
X164220062Y-119644112D01*
X164241761Y-120317673D01*
X164266169Y-121105046D01*
X164292950Y-121995137D01*
X164321765Y-122976854D01*
X164352277Y-124039104D01*
X164384147Y-125170793D01*
X164417039Y-126360829D01*
X164450613Y-127598118D01*
X164455774Y-127790330D01*
X164489260Y-129030110D01*
X164521926Y-130221814D01*
X164553449Y-131354597D01*
X164583507Y-132417614D01*
X164611777Y-133400021D01*
X164637936Y-134290972D01*
X164661661Y-135079623D01*
X164682629Y-135755129D01*
X164700518Y-136306644D01*
X164715005Y-136723325D01*
X164725767Y-136994325D01*
X164732481Y-137108801D01*
X164733219Y-137111935D01*
X164822862Y-137111075D01*
X165049451Y-137093343D01*
X165381748Y-137061582D01*
X165788519Y-137018635D01*
X165925725Y-137003397D01*
X166448826Y-136951288D01*
X166839826Y-136926739D01*
X167086315Y-136930246D01*
X167171096Y-136953562D01*
X167186706Y-137049527D01*
X167206182Y-137301491D01*
X167229106Y-137696175D01*
X167255063Y-138220298D01*
X167283635Y-138860582D01*
X167314405Y-139603745D01*
X167346957Y-140436510D01*
X167380873Y-141345595D01*
X167415737Y-142317721D01*
X167451132Y-143339609D01*
X167486642Y-144397978D01*
X167521848Y-145479548D01*
X167556335Y-146571041D01*
X167589686Y-147659175D01*
X167621483Y-148730673D01*
X167651310Y-149772252D01*
X167678750Y-150770635D01*
X167703386Y-151712540D01*
X167724802Y-152584689D01*
X167742580Y-153373802D01*
X167756304Y-154066598D01*
X167765556Y-154649798D01*
X167769921Y-155110123D01*
X167768981Y-155434291D01*
X167762319Y-155609025D01*
X167757499Y-155635086D01*
X167734819Y-155664345D01*
X167692508Y-155689587D01*
X167618796Y-155711106D01*
X167501915Y-155729199D01*
X167330098Y-155744160D01*
X167091576Y-155756285D01*
X166774580Y-155765870D01*
X166367343Y-155773210D01*
X165858095Y-155778601D01*
X165235068Y-155782338D01*
X164486495Y-155784717D01*
X163600605Y-155786033D01*
X162565633Y-155786581D01*
X161720722Y-155786667D01*
X160552344Y-155786264D01*
X159542082Y-155784906D01*
X158678718Y-155782367D01*
X157951036Y-155778423D01*
X157347818Y-155772847D01*
X156857848Y-155765414D01*
X156469909Y-155755900D01*
X156172784Y-155744079D01*
X155955257Y-155729726D01*
X155806111Y-155712615D01*
X155714128Y-155692522D01*
X155668093Y-155669220D01*
X155664125Y-155665039D01*
X155647348Y-155562922D01*
X155630151Y-155305495D01*
X155612686Y-154906446D01*
X155595107Y-154379461D01*
X155577567Y-153738228D01*
X155560219Y-152996432D01*
X155543217Y-152167761D01*
X155526714Y-151265903D01*
X155510863Y-150304543D01*
X155495818Y-149297368D01*
X155481731Y-148258066D01*
X155468756Y-147200324D01*
X155457046Y-146137827D01*
X155446755Y-145084264D01*
X155438035Y-144053321D01*
X155431040Y-143058685D01*
X155425923Y-142114042D01*
X155422837Y-141233080D01*
X155421936Y-140429486D01*
X155423373Y-139716946D01*
X155427301Y-139109147D01*
X155433873Y-138619777D01*
X155443243Y-138262522D01*
X155455564Y-138051068D01*
X155466300Y-137996834D01*
X155579208Y-137959340D01*
X155827618Y-137917722D01*
X156177916Y-137876418D01*
X156596489Y-137839868D01*
X156721426Y-137831085D01*
X157146094Y-137801280D01*
X157505255Y-137773149D01*
X157767622Y-137749365D01*
X157901908Y-137732603D01*
X157912620Y-137729270D01*
X157914854Y-137643012D01*
X157914486Y-137399342D01*
X157911663Y-137010160D01*
X157906532Y-136487363D01*
X157899240Y-135842851D01*
X157889935Y-135088524D01*
X157878763Y-134236279D01*
X157865873Y-133298017D01*
X157851412Y-132285635D01*
X157835527Y-131211033D01*
X157818365Y-130086111D01*
X157816420Y-129960732D01*
X157798390Y-128781788D01*
X157781128Y-127616887D01*
X157764838Y-126481835D01*
X157749723Y-125392439D01*
X157735985Y-124364507D01*
X157723828Y-123413846D01*
X157713455Y-122556262D01*
X157705068Y-121807565D01*
X157698871Y-121183559D01*
X157695066Y-120700054D01*
X157693874Y-120418780D01*
X157693527Y-119824114D01*
X157695626Y-119377062D01*
X157702394Y-119055908D01*
X157716054Y-118838931D01*
X157738829Y-118704415D01*
X157772940Y-118630641D01*
X157820611Y-118595890D01*
X157882167Y-118578866D01*
X158021573Y-118559941D01*
X158301592Y-118531396D01*
X158693939Y-118495770D01*
X159170331Y-118455602D01*
X159702484Y-118413432D01*
X159850667Y-118402137D01*
X160477831Y-118353444D01*
X161136739Y-118300047D01*
X161776420Y-118246229D01*
X162345903Y-118196274D01*
X162770281Y-118156799D01*
X163198475Y-118118848D01*
X163570131Y-118092776D01*
X163850666Y-118080510D01*
X164005499Y-118083972D01*
X164005499Y-118083972D01*
G37*
X164005499Y-118083972D02*
X164019845Y-118087254D01*
X164123436Y-118195724D01*
X164167119Y-118309839D01*
X164174602Y-118417225D01*
X164186144Y-118682795D01*
X164201411Y-119095454D01*
X164220062Y-119644112D01*
X164241761Y-120317673D01*
X164266169Y-121105046D01*
X164292950Y-121995137D01*
X164321765Y-122976854D01*
X164352277Y-124039104D01*
X164384147Y-125170793D01*
X164417039Y-126360829D01*
X164450613Y-127598118D01*
X164455774Y-127790330D01*
X164489260Y-129030110D01*
X164521926Y-130221814D01*
X164553449Y-131354597D01*
X164583507Y-132417614D01*
X164611777Y-133400021D01*
X164637936Y-134290972D01*
X164661661Y-135079623D01*
X164682629Y-135755129D01*
X164700518Y-136306644D01*
X164715005Y-136723325D01*
X164725767Y-136994325D01*
X164732481Y-137108801D01*
X164733219Y-137111935D01*
X164822862Y-137111075D01*
X165049451Y-137093343D01*
X165381748Y-137061582D01*
X165788519Y-137018635D01*
X165925725Y-137003397D01*
X166448826Y-136951288D01*
X166839826Y-136926739D01*
X167086315Y-136930246D01*
X167171096Y-136953562D01*
X167186706Y-137049527D01*
X167206182Y-137301491D01*
X167229106Y-137696175D01*
X167255063Y-138220298D01*
X167283635Y-138860582D01*
X167314405Y-139603745D01*
X167346957Y-140436510D01*
X167380873Y-141345595D01*
X167415737Y-142317721D01*
X167451132Y-143339609D01*
X167486642Y-144397978D01*
X167521848Y-145479548D01*
X167556335Y-146571041D01*
X167589686Y-147659175D01*
X167621483Y-148730673D01*
X167651310Y-149772252D01*
X167678750Y-150770635D01*
X167703386Y-151712540D01*
X167724802Y-152584689D01*
X167742580Y-153373802D01*
X167756304Y-154066598D01*
X167765556Y-154649798D01*
X167769921Y-155110123D01*
X167768981Y-155434291D01*
X167762319Y-155609025D01*
X167757499Y-155635086D01*
X167734819Y-155664345D01*
X167692508Y-155689587D01*
X167618796Y-155711106D01*
X167501915Y-155729199D01*
X167330098Y-155744160D01*
X167091576Y-155756285D01*
X166774580Y-155765870D01*
X166367343Y-155773210D01*
X165858095Y-155778601D01*
X165235068Y-155782338D01*
X164486495Y-155784717D01*
X163600605Y-155786033D01*
X162565633Y-155786581D01*
X161720722Y-155786667D01*
X160552344Y-155786264D01*
X159542082Y-155784906D01*
X158678718Y-155782367D01*
X157951036Y-155778423D01*
X157347818Y-155772847D01*
X156857848Y-155765414D01*
X156469909Y-155755900D01*
X156172784Y-155744079D01*
X155955257Y-155729726D01*
X155806111Y-155712615D01*
X155714128Y-155692522D01*
X155668093Y-155669220D01*
X155664125Y-155665039D01*
X155647348Y-155562922D01*
X155630151Y-155305495D01*
X155612686Y-154906446D01*
X155595107Y-154379461D01*
X155577567Y-153738228D01*
X155560219Y-152996432D01*
X155543217Y-152167761D01*
X155526714Y-151265903D01*
X155510863Y-150304543D01*
X155495818Y-149297368D01*
X155481731Y-148258066D01*
X155468756Y-147200324D01*
X155457046Y-146137827D01*
X155446755Y-145084264D01*
X155438035Y-144053321D01*
X155431040Y-143058685D01*
X155425923Y-142114042D01*
X155422837Y-141233080D01*
X155421936Y-140429486D01*
X155423373Y-139716946D01*
X155427301Y-139109147D01*
X155433873Y-138619777D01*
X155443243Y-138262522D01*
X155455564Y-138051068D01*
X155466300Y-137996834D01*
X155579208Y-137959340D01*
X155827618Y-137917722D01*
X156177916Y-137876418D01*
X156596489Y-137839868D01*
X156721426Y-137831085D01*
X157146094Y-137801280D01*
X157505255Y-137773149D01*
X157767622Y-137749365D01*
X157901908Y-137732603D01*
X157912620Y-137729270D01*
X157914854Y-137643012D01*
X157914486Y-137399342D01*
X157911663Y-137010160D01*
X157906532Y-136487363D01*
X157899240Y-135842851D01*
X157889935Y-135088524D01*
X157878763Y-134236279D01*
X157865873Y-133298017D01*
X157851412Y-132285635D01*
X157835527Y-131211033D01*
X157818365Y-130086111D01*
X157816420Y-129960732D01*
X157798390Y-128781788D01*
X157781128Y-127616887D01*
X157764838Y-126481835D01*
X157749723Y-125392439D01*
X157735985Y-124364507D01*
X157723828Y-123413846D01*
X157713455Y-122556262D01*
X157705068Y-121807565D01*
X157698871Y-121183559D01*
X157695066Y-120700054D01*
X157693874Y-120418780D01*
X157693527Y-119824114D01*
X157695626Y-119377062D01*
X157702394Y-119055908D01*
X157716054Y-118838931D01*
X157738829Y-118704415D01*
X157772940Y-118630641D01*
X157820611Y-118595890D01*
X157882167Y-118578866D01*
X158021573Y-118559941D01*
X158301592Y-118531396D01*
X158693939Y-118495770D01*
X159170331Y-118455602D01*
X159702484Y-118413432D01*
X159850667Y-118402137D01*
X160477831Y-118353444D01*
X161136739Y-118300047D01*
X161776420Y-118246229D01*
X162345903Y-118196274D01*
X162770281Y-118156799D01*
X163198475Y-118118848D01*
X163570131Y-118092776D01*
X163850666Y-118080510D01*
X164005499Y-118083972D01*
G36*
X143739802Y-118758924D02*
X144215048Y-118765362D01*
X144764025Y-118775562D01*
X145363639Y-118788892D01*
X145990796Y-118804718D01*
X146622403Y-118822411D01*
X147235367Y-118841337D01*
X147806593Y-118860867D01*
X148312988Y-118880366D01*
X148731459Y-118899205D01*
X149038912Y-118916751D01*
X149212253Y-118932372D01*
X149241779Y-118939579D01*
X149250305Y-119030590D01*
X149259514Y-119280167D01*
X149269273Y-119677548D01*
X149279445Y-120211967D01*
X149289896Y-120872661D01*
X149300492Y-121648864D01*
X149311096Y-122529813D01*
X149321574Y-123504743D01*
X149331792Y-124562890D01*
X149341615Y-125693490D01*
X149350906Y-126885778D01*
X149359533Y-128128990D01*
X149362214Y-128549208D01*
X149421825Y-138098012D01*
X151503579Y-138049065D01*
X152098311Y-138033853D01*
X152652132Y-138017382D01*
X153137539Y-138000652D01*
X153527026Y-137984663D01*
X153793091Y-137970414D01*
X153888432Y-137962361D01*
X154153757Y-137967693D01*
X154344513Y-138036468D01*
X154369325Y-138061232D01*
X154391521Y-138103685D01*
X154411367Y-138173563D01*
X154429127Y-138280602D01*
X154445068Y-138434537D01*
X154459456Y-138645105D01*
X154472556Y-138922041D01*
X154484635Y-139275080D01*
X154495957Y-139713959D01*
X154506789Y-140248413D01*
X154517396Y-140888178D01*
X154528044Y-141642990D01*
X154538999Y-142522585D01*
X154550527Y-143536698D01*
X154562894Y-144695066D01*
X154576364Y-146007423D01*
X154584717Y-146835956D01*
X154598898Y-148282285D01*
X154610714Y-149568046D01*
X154620142Y-150701990D01*
X154627162Y-151692867D01*
X154631751Y-152549425D01*
X154633887Y-153280416D01*
X154633549Y-153894589D01*
X154630715Y-154400693D01*
X154625363Y-154807480D01*
X154617472Y-155123697D01*
X154607020Y-155358097D01*
X154593984Y-155519427D01*
X154578343Y-155616438D01*
X154562770Y-155655124D01*
X154527125Y-155680809D01*
X154458145Y-155702969D01*
X154344219Y-155721857D01*
X154173731Y-155737727D01*
X153935068Y-155750834D01*
X153616617Y-155761431D01*
X153206765Y-155769771D01*
X152693897Y-155776109D01*
X152066400Y-155780698D01*
X151312661Y-155783793D01*
X150421065Y-155785646D01*
X149380000Y-155786512D01*
X148543347Y-155786667D01*
X147376325Y-155786236D01*
X146367436Y-155784796D01*
X145505483Y-155782123D01*
X144779267Y-155777996D01*
X144177591Y-155772191D01*
X143689257Y-155764486D01*
X143303067Y-155754659D01*
X143007822Y-155742486D01*
X142792326Y-155727746D01*
X142645379Y-155710215D01*
X142555784Y-155689670D01*
X142513225Y-155666796D01*
X142478427Y-155606952D01*
X142451772Y-155493899D01*
X142432690Y-155310177D01*
X142420609Y-155038327D01*
X142414959Y-154660888D01*
X142415171Y-154160401D01*
X142420674Y-153519406D01*
X142426793Y-153020963D01*
X142431190Y-152669858D01*
X142437207Y-152159628D01*
X142444734Y-151500472D01*
X142453664Y-150702590D01*
X142463885Y-149776180D01*
X142475289Y-148731443D01*
X142487766Y-147578577D01*
X142501207Y-146327782D01*
X142515503Y-144989258D01*
X142530544Y-143573203D01*
X142546220Y-142089816D01*
X142562423Y-140549298D01*
X142579042Y-138961848D01*
X142595969Y-137337664D01*
X142613094Y-135686947D01*
X142622443Y-134782493D01*
X142639434Y-133162560D01*
X142656480Y-131587287D01*
X142673469Y-130065090D01*
X142690286Y-128604384D01*
X142706817Y-127213585D01*
X142722950Y-125901109D01*
X142738570Y-124675371D01*
X142753565Y-123544788D01*
X142767820Y-122517773D01*
X142781221Y-121602745D01*
X142793656Y-120808116D01*
X142805010Y-120142305D01*
X142815170Y-119613726D01*
X142824023Y-119230794D01*
X142831454Y-119001926D01*
X142836373Y-118935206D01*
X142934616Y-118799410D01*
X142987380Y-118768490D01*
X143102874Y-118759856D01*
X143361379Y-118756877D01*
X143739802Y-118758924D01*
X143739802Y-118758924D01*
G37*
X143739802Y-118758924D02*
X144215048Y-118765362D01*
X144764025Y-118775562D01*
X145363639Y-118788892D01*
X145990796Y-118804718D01*
X146622403Y-118822411D01*
X147235367Y-118841337D01*
X147806593Y-118860867D01*
X148312988Y-118880366D01*
X148731459Y-118899205D01*
X149038912Y-118916751D01*
X149212253Y-118932372D01*
X149241779Y-118939579D01*
X149250305Y-119030590D01*
X149259514Y-119280167D01*
X149269273Y-119677548D01*
X149279445Y-120211967D01*
X149289896Y-120872661D01*
X149300492Y-121648864D01*
X149311096Y-122529813D01*
X149321574Y-123504743D01*
X149331792Y-124562890D01*
X149341615Y-125693490D01*
X149350906Y-126885778D01*
X149359533Y-128128990D01*
X149362214Y-128549208D01*
X149421825Y-138098012D01*
X151503579Y-138049065D01*
X152098311Y-138033853D01*
X152652132Y-138017382D01*
X153137539Y-138000652D01*
X153527026Y-137984663D01*
X153793091Y-137970414D01*
X153888432Y-137962361D01*
X154153757Y-137967693D01*
X154344513Y-138036468D01*
X154369325Y-138061232D01*
X154391521Y-138103685D01*
X154411367Y-138173563D01*
X154429127Y-138280602D01*
X154445068Y-138434537D01*
X154459456Y-138645105D01*
X154472556Y-138922041D01*
X154484635Y-139275080D01*
X154495957Y-139713959D01*
X154506789Y-140248413D01*
X154517396Y-140888178D01*
X154528044Y-141642990D01*
X154538999Y-142522585D01*
X154550527Y-143536698D01*
X154562894Y-144695066D01*
X154576364Y-146007423D01*
X154584717Y-146835956D01*
X154598898Y-148282285D01*
X154610714Y-149568046D01*
X154620142Y-150701990D01*
X154627162Y-151692867D01*
X154631751Y-152549425D01*
X154633887Y-153280416D01*
X154633549Y-153894589D01*
X154630715Y-154400693D01*
X154625363Y-154807480D01*
X154617472Y-155123697D01*
X154607020Y-155358097D01*
X154593984Y-155519427D01*
X154578343Y-155616438D01*
X154562770Y-155655124D01*
X154527125Y-155680809D01*
X154458145Y-155702969D01*
X154344219Y-155721857D01*
X154173731Y-155737727D01*
X153935068Y-155750834D01*
X153616617Y-155761431D01*
X153206765Y-155769771D01*
X152693897Y-155776109D01*
X152066400Y-155780698D01*
X151312661Y-155783793D01*
X150421065Y-155785646D01*
X149380000Y-155786512D01*
X148543347Y-155786667D01*
X147376325Y-155786236D01*
X146367436Y-155784796D01*
X145505483Y-155782123D01*
X144779267Y-155777996D01*
X144177591Y-155772191D01*
X143689257Y-155764486D01*
X143303067Y-155754659D01*
X143007822Y-155742486D01*
X142792326Y-155727746D01*
X142645379Y-155710215D01*
X142555784Y-155689670D01*
X142513225Y-155666796D01*
X142478427Y-155606952D01*
X142451772Y-155493899D01*
X142432690Y-155310177D01*
X142420609Y-155038327D01*
X142414959Y-154660888D01*
X142415171Y-154160401D01*
X142420674Y-153519406D01*
X142426793Y-153020963D01*
X142431190Y-152669858D01*
X142437207Y-152159628D01*
X142444734Y-151500472D01*
X142453664Y-150702590D01*
X142463885Y-149776180D01*
X142475289Y-148731443D01*
X142487766Y-147578577D01*
X142501207Y-146327782D01*
X142515503Y-144989258D01*
X142530544Y-143573203D01*
X142546220Y-142089816D01*
X142562423Y-140549298D01*
X142579042Y-138961848D01*
X142595969Y-137337664D01*
X142613094Y-135686947D01*
X142622443Y-134782493D01*
X142639434Y-133162560D01*
X142656480Y-131587287D01*
X142673469Y-130065090D01*
X142690286Y-128604384D01*
X142706817Y-127213585D01*
X142722950Y-125901109D01*
X142738570Y-124675371D01*
X142753565Y-123544788D01*
X142767820Y-122517773D01*
X142781221Y-121602745D01*
X142793656Y-120808116D01*
X142805010Y-120142305D01*
X142815170Y-119613726D01*
X142824023Y-119230794D01*
X142831454Y-119001926D01*
X142836373Y-118935206D01*
X142934616Y-118799410D01*
X142987380Y-118768490D01*
X143102874Y-118759856D01*
X143361379Y-118756877D01*
X143739802Y-118758924D01*
G36*
X136638808Y-118365865D02*
X136821334Y-118379890D01*
X137128352Y-118402705D01*
X137568785Y-118433262D01*
X138107016Y-118469200D01*
X138707427Y-118508160D01*
X139334401Y-118547782D01*
X139649121Y-118567250D01*
X140249999Y-118607494D01*
X140783587Y-118649754D01*
X141227737Y-118691804D01*
X141560302Y-118731416D01*
X141759134Y-118766361D01*
X141804983Y-118784117D01*
X141814462Y-118877844D01*
X141821685Y-119131474D01*
X141826752Y-119535592D01*
X141829758Y-120080782D01*
X141830803Y-120757631D01*
X141829983Y-121556722D01*
X141827396Y-122468643D01*
X141823139Y-123483978D01*
X141817311Y-124593311D01*
X141810008Y-125787230D01*
X141801328Y-127056318D01*
X141791369Y-128391161D01*
X141780229Y-129782345D01*
X141768004Y-131220455D01*
X141754793Y-132696075D01*
X141740692Y-134199792D01*
X141725800Y-135722191D01*
X141710215Y-137253856D01*
X141694033Y-138785373D01*
X141677352Y-140307328D01*
X141660270Y-141810306D01*
X141642884Y-143284891D01*
X141625292Y-144721670D01*
X141607591Y-146111227D01*
X141589879Y-147444149D01*
X141572254Y-148711019D01*
X141554813Y-149902424D01*
X141537653Y-151008948D01*
X141520873Y-152021178D01*
X141504570Y-152929698D01*
X141488840Y-153725093D01*
X141473783Y-154397949D01*
X141459495Y-154938852D01*
X141446073Y-155338386D01*
X141433617Y-155587136D01*
X141422722Y-155675264D01*
X141319774Y-155699343D01*
X141064171Y-155720815D01*
X140672572Y-155739692D01*
X140161635Y-155755986D01*
X139548020Y-155769709D01*
X138848384Y-155780873D01*
X138079386Y-155789488D01*
X137257685Y-155795567D01*
X136399939Y-155799122D01*
X135522806Y-155800164D01*
X134642946Y-155798705D01*
X133777016Y-155794756D01*
X132941675Y-155788330D01*
X132153582Y-155779438D01*
X131429396Y-155768092D01*
X130785774Y-155754303D01*
X130239375Y-155738084D01*
X129806858Y-155719445D01*
X129504882Y-155698399D01*
X129350104Y-155674958D01*
X129334225Y-155666766D01*
X129318985Y-155609036D01*
X129308071Y-155472718D01*
X129301637Y-155250396D01*
X129299839Y-154934654D01*
X129302829Y-154518075D01*
X129310763Y-153993244D01*
X129323795Y-153352745D01*
X129342079Y-152589161D01*
X129365769Y-151695077D01*
X129395020Y-150663076D01*
X129429987Y-149485743D01*
X129470823Y-148155661D01*
X129517683Y-146665414D01*
X129528864Y-146313791D01*
X129568725Y-145077051D01*
X129607966Y-143887382D01*
X129646178Y-142755768D01*
X129682950Y-141693194D01*
X129717871Y-140710642D01*
X129750533Y-139819099D01*
X129780523Y-139029547D01*
X129807433Y-138352971D01*
X129830852Y-137800356D01*
X129850368Y-137382685D01*
X129865573Y-137110943D01*
X129876056Y-136996115D01*
X129877003Y-136993358D01*
X129925046Y-136951720D01*
X130019514Y-136925362D01*
X130176579Y-136915423D01*
X130412414Y-136923041D01*
X130743190Y-136949355D01*
X131185079Y-136995504D01*
X131754255Y-137062626D01*
X132466888Y-137151859D01*
X132878499Y-137204664D01*
X133485173Y-137281087D01*
X134035810Y-137346942D01*
X134508443Y-137399884D01*
X134881108Y-137437570D01*
X135131838Y-137457655D01*
X135238668Y-137457794D01*
X135240468Y-137456754D01*
X135248445Y-137367613D01*
X135259581Y-137120039D01*
X135273589Y-136724897D01*
X135290183Y-136193052D01*
X135309080Y-135535370D01*
X135329992Y-134762715D01*
X135352634Y-133885953D01*
X135376721Y-132915948D01*
X135401967Y-131863567D01*
X135428086Y-130739674D01*
X135454793Y-129555134D01*
X135481802Y-128320813D01*
X135487029Y-128077590D01*
X135514032Y-126831672D01*
X135540641Y-125631263D01*
X135566579Y-124487441D01*
X135591570Y-123411287D01*
X135615336Y-122413878D01*
X135637599Y-121506294D01*
X135658084Y-120699615D01*
X135676512Y-120004919D01*
X135692607Y-119433285D01*
X135706092Y-118995793D01*
X135716689Y-118703522D01*
X135724121Y-118567551D01*
X135725066Y-118560697D01*
X135764231Y-118451099D01*
X135846612Y-118381529D01*
X136000784Y-118347276D01*
X136255324Y-118343626D01*
X136638808Y-118365865D01*
X136638808Y-118365865D01*
G37*
X136638808Y-118365865D02*
X136821334Y-118379890D01*
X137128352Y-118402705D01*
X137568785Y-118433262D01*
X138107016Y-118469200D01*
X138707427Y-118508160D01*
X139334401Y-118547782D01*
X139649121Y-118567250D01*
X140249999Y-118607494D01*
X140783587Y-118649754D01*
X141227737Y-118691804D01*
X141560302Y-118731416D01*
X141759134Y-118766361D01*
X141804983Y-118784117D01*
X141814462Y-118877844D01*
X141821685Y-119131474D01*
X141826752Y-119535592D01*
X141829758Y-120080782D01*
X141830803Y-120757631D01*
X141829983Y-121556722D01*
X141827396Y-122468643D01*
X141823139Y-123483978D01*
X141817311Y-124593311D01*
X141810008Y-125787230D01*
X141801328Y-127056318D01*
X141791369Y-128391161D01*
X141780229Y-129782345D01*
X141768004Y-131220455D01*
X141754793Y-132696075D01*
X141740692Y-134199792D01*
X141725800Y-135722191D01*
X141710215Y-137253856D01*
X141694033Y-138785373D01*
X141677352Y-140307328D01*
X141660270Y-141810306D01*
X141642884Y-143284891D01*
X141625292Y-144721670D01*
X141607591Y-146111227D01*
X141589879Y-147444149D01*
X141572254Y-148711019D01*
X141554813Y-149902424D01*
X141537653Y-151008948D01*
X141520873Y-152021178D01*
X141504570Y-152929698D01*
X141488840Y-153725093D01*
X141473783Y-154397949D01*
X141459495Y-154938852D01*
X141446073Y-155338386D01*
X141433617Y-155587136D01*
X141422722Y-155675264D01*
X141319774Y-155699343D01*
X141064171Y-155720815D01*
X140672572Y-155739692D01*
X140161635Y-155755986D01*
X139548020Y-155769709D01*
X138848384Y-155780873D01*
X138079386Y-155789488D01*
X137257685Y-155795567D01*
X136399939Y-155799122D01*
X135522806Y-155800164D01*
X134642946Y-155798705D01*
X133777016Y-155794756D01*
X132941675Y-155788330D01*
X132153582Y-155779438D01*
X131429396Y-155768092D01*
X130785774Y-155754303D01*
X130239375Y-155738084D01*
X129806858Y-155719445D01*
X129504882Y-155698399D01*
X129350104Y-155674958D01*
X129334225Y-155666766D01*
X129318985Y-155609036D01*
X129308071Y-155472718D01*
X129301637Y-155250396D01*
X129299839Y-154934654D01*
X129302829Y-154518075D01*
X129310763Y-153993244D01*
X129323795Y-153352745D01*
X129342079Y-152589161D01*
X129365769Y-151695077D01*
X129395020Y-150663076D01*
X129429987Y-149485743D01*
X129470823Y-148155661D01*
X129517683Y-146665414D01*
X129528864Y-146313791D01*
X129568725Y-145077051D01*
X129607966Y-143887382D01*
X129646178Y-142755768D01*
X129682950Y-141693194D01*
X129717871Y-140710642D01*
X129750533Y-139819099D01*
X129780523Y-139029547D01*
X129807433Y-138352971D01*
X129830852Y-137800356D01*
X129850368Y-137382685D01*
X129865573Y-137110943D01*
X129876056Y-136996115D01*
X129877003Y-136993358D01*
X129925046Y-136951720D01*
X130019514Y-136925362D01*
X130176579Y-136915423D01*
X130412414Y-136923041D01*
X130743190Y-136949355D01*
X131185079Y-136995504D01*
X131754255Y-137062626D01*
X132466888Y-137151859D01*
X132878499Y-137204664D01*
X133485173Y-137281087D01*
X134035810Y-137346942D01*
X134508443Y-137399884D01*
X134881108Y-137437570D01*
X135131838Y-137457655D01*
X135238668Y-137457794D01*
X135240468Y-137456754D01*
X135248445Y-137367613D01*
X135259581Y-137120039D01*
X135273589Y-136724897D01*
X135290183Y-136193052D01*
X135309080Y-135535370D01*
X135329992Y-134762715D01*
X135352634Y-133885953D01*
X135376721Y-132915948D01*
X135401967Y-131863567D01*
X135428086Y-130739674D01*
X135454793Y-129555134D01*
X135481802Y-128320813D01*
X135487029Y-128077590D01*
X135514032Y-126831672D01*
X135540641Y-125631263D01*
X135566579Y-124487441D01*
X135591570Y-123411287D01*
X135615336Y-122413878D01*
X135637599Y-121506294D01*
X135658084Y-120699615D01*
X135676512Y-120004919D01*
X135692607Y-119433285D01*
X135706092Y-118995793D01*
X135716689Y-118703522D01*
X135724121Y-118567551D01*
X135725066Y-118560697D01*
X135764231Y-118451099D01*
X135846612Y-118381529D01*
X136000784Y-118347276D01*
X136255324Y-118343626D01*
X136638808Y-118365865D01*
G36*
X122219750Y-116550882D02*
X122589466Y-116591342D01*
X123086979Y-116665922D01*
X123731275Y-116770450D01*
X123794658Y-116780784D01*
X124416317Y-116881408D01*
X125045649Y-116982076D01*
X125641871Y-117076350D01*
X126164200Y-117157795D01*
X126571854Y-117219971D01*
X126661334Y-117233263D01*
X127047075Y-117296932D01*
X127374380Y-117363743D01*
X127604440Y-117424983D01*
X127693409Y-117465028D01*
X127709611Y-117518279D01*
X127721138Y-117648588D01*
X127727814Y-117863879D01*
X127729467Y-118172076D01*
X127725922Y-118581102D01*
X127717007Y-119098882D01*
X127702547Y-119733338D01*
X127682369Y-120492395D01*
X127656299Y-121383977D01*
X127624164Y-122416007D01*
X127585789Y-123596409D01*
X127541002Y-124933107D01*
X127509485Y-125857000D01*
X127468219Y-127056063D01*
X127427680Y-128226844D01*
X127388353Y-129355695D01*
X127350724Y-130428968D01*
X127315281Y-131433012D01*
X127282509Y-132354179D01*
X127252894Y-133178821D01*
X127226923Y-133893288D01*
X127205082Y-134483931D01*
X127187857Y-134937102D01*
X127175734Y-135239151D01*
X127172958Y-135302861D01*
X127121097Y-136451389D01*
X127881592Y-136552642D01*
X128309629Y-136610560D01*
X128597962Y-136662260D01*
X128774260Y-136727213D01*
X128866192Y-136824890D01*
X128901428Y-136974762D01*
X128907637Y-137196300D01*
X128907949Y-137274892D01*
X128906240Y-137538730D01*
X128899273Y-137944470D01*
X128887487Y-138478680D01*
X128871324Y-139127933D01*
X128851225Y-139878798D01*
X128827630Y-140717845D01*
X128800981Y-141631646D01*
X128771718Y-142606771D01*
X128740282Y-143629790D01*
X128707115Y-144687274D01*
X128672656Y-145765793D01*
X128637348Y-146851917D01*
X128601631Y-147932218D01*
X128565946Y-148993266D01*
X128530733Y-150021631D01*
X128496434Y-151003884D01*
X128463490Y-151926595D01*
X128432341Y-152776334D01*
X128403429Y-153539673D01*
X128377194Y-154203181D01*
X128354077Y-154753430D01*
X128334520Y-155176989D01*
X128318963Y-155460430D01*
X128307846Y-155590322D01*
X128306430Y-155596167D01*
X128231297Y-155786667D01*
X124313649Y-155768461D01*
X123419926Y-155763463D01*
X122499112Y-155756774D01*
X121581755Y-155748717D01*
X120698402Y-155739618D01*
X119879601Y-155729802D01*
X119155900Y-155719594D01*
X118557846Y-155709319D01*
X118346888Y-155704961D01*
X117637901Y-155686481D01*
X117085363Y-155665424D01*
X116676397Y-155640882D01*
X116398125Y-155611943D01*
X116237670Y-155577698D01*
X116190858Y-155552570D01*
X116175795Y-155507687D01*
X116165664Y-155402686D01*
X116160790Y-155229688D01*
X116161498Y-154980817D01*
X116168114Y-154648194D01*
X116180964Y-154223943D01*
X116200374Y-153700185D01*
X116226668Y-153069045D01*
X116260173Y-152322643D01*
X116301215Y-151453104D01*
X116350118Y-150452548D01*
X116407208Y-149313100D01*
X116472811Y-148026882D01*
X116547253Y-146586015D01*
X116616061Y-145265570D01*
X116684281Y-143964557D01*
X116750545Y-142708814D01*
X116814275Y-141508905D01*
X116874891Y-140375392D01*
X116931814Y-139318838D01*
X116984466Y-138349807D01*
X117032267Y-137478861D01*
X117074639Y-136716563D01*
X117111004Y-136073477D01*
X117140781Y-135560165D01*
X117163393Y-135187191D01*
X117178260Y-134965118D01*
X117183860Y-134904506D01*
X117266526Y-134736719D01*
X117347723Y-134674155D01*
X117467263Y-134676012D01*
X117724254Y-134710332D01*
X118090951Y-134772387D01*
X118539604Y-134857454D01*
X119042468Y-134960805D01*
X119088698Y-134970683D01*
X119588326Y-135075096D01*
X120029655Y-135162210D01*
X120386688Y-135227314D01*
X120633430Y-135265696D01*
X120743884Y-135272645D01*
X120746694Y-135271195D01*
X120755873Y-135183468D01*
X120772202Y-134940007D01*
X120795028Y-134554231D01*
X120823700Y-134039562D01*
X120857564Y-133409418D01*
X120895970Y-132677219D01*
X120938265Y-131856385D01*
X120983797Y-130960337D01*
X121031914Y-130002492D01*
X121081963Y-128996273D01*
X121133294Y-127955097D01*
X121185254Y-126892385D01*
X121237190Y-125821557D01*
X121288451Y-124756033D01*
X121338385Y-123709231D01*
X121386339Y-122694573D01*
X121431662Y-121725477D01*
X121473701Y-120815364D01*
X121511805Y-119977653D01*
X121545321Y-119225764D01*
X121573598Y-118573117D01*
X121595983Y-118033132D01*
X121611824Y-117619228D01*
X121620469Y-117344825D01*
X121621920Y-117258349D01*
X121623579Y-117006449D01*
X121639114Y-116813709D01*
X121687512Y-116675956D01*
X121787759Y-116589016D01*
X121958843Y-116548716D01*
X122219750Y-116550882D01*
X122219750Y-116550882D01*
G37*
X122219750Y-116550882D02*
X122589466Y-116591342D01*
X123086979Y-116665922D01*
X123731275Y-116770450D01*
X123794658Y-116780784D01*
X124416317Y-116881408D01*
X125045649Y-116982076D01*
X125641871Y-117076350D01*
X126164200Y-117157795D01*
X126571854Y-117219971D01*
X126661334Y-117233263D01*
X127047075Y-117296932D01*
X127374380Y-117363743D01*
X127604440Y-117424983D01*
X127693409Y-117465028D01*
X127709611Y-117518279D01*
X127721138Y-117648588D01*
X127727814Y-117863879D01*
X127729467Y-118172076D01*
X127725922Y-118581102D01*
X127717007Y-119098882D01*
X127702547Y-119733338D01*
X127682369Y-120492395D01*
X127656299Y-121383977D01*
X127624164Y-122416007D01*
X127585789Y-123596409D01*
X127541002Y-124933107D01*
X127509485Y-125857000D01*
X127468219Y-127056063D01*
X127427680Y-128226844D01*
X127388353Y-129355695D01*
X127350724Y-130428968D01*
X127315281Y-131433012D01*
X127282509Y-132354179D01*
X127252894Y-133178821D01*
X127226923Y-133893288D01*
X127205082Y-134483931D01*
X127187857Y-134937102D01*
X127175734Y-135239151D01*
X127172958Y-135302861D01*
X127121097Y-136451389D01*
X127881592Y-136552642D01*
X128309629Y-136610560D01*
X128597962Y-136662260D01*
X128774260Y-136727213D01*
X128866192Y-136824890D01*
X128901428Y-136974762D01*
X128907637Y-137196300D01*
X128907949Y-137274892D01*
X128906240Y-137538730D01*
X128899273Y-137944470D01*
X128887487Y-138478680D01*
X128871324Y-139127933D01*
X128851225Y-139878798D01*
X128827630Y-140717845D01*
X128800981Y-141631646D01*
X128771718Y-142606771D01*
X128740282Y-143629790D01*
X128707115Y-144687274D01*
X128672656Y-145765793D01*
X128637348Y-146851917D01*
X128601631Y-147932218D01*
X128565946Y-148993266D01*
X128530733Y-150021631D01*
X128496434Y-151003884D01*
X128463490Y-151926595D01*
X128432341Y-152776334D01*
X128403429Y-153539673D01*
X128377194Y-154203181D01*
X128354077Y-154753430D01*
X128334520Y-155176989D01*
X128318963Y-155460430D01*
X128307846Y-155590322D01*
X128306430Y-155596167D01*
X128231297Y-155786667D01*
X124313649Y-155768461D01*
X123419926Y-155763463D01*
X122499112Y-155756774D01*
X121581755Y-155748717D01*
X120698402Y-155739618D01*
X119879601Y-155729802D01*
X119155900Y-155719594D01*
X118557846Y-155709319D01*
X118346888Y-155704961D01*
X117637901Y-155686481D01*
X117085363Y-155665424D01*
X116676397Y-155640882D01*
X116398125Y-155611943D01*
X116237670Y-155577698D01*
X116190858Y-155552570D01*
X116175795Y-155507687D01*
X116165664Y-155402686D01*
X116160790Y-155229688D01*
X116161498Y-154980817D01*
X116168114Y-154648194D01*
X116180964Y-154223943D01*
X116200374Y-153700185D01*
X116226668Y-153069045D01*
X116260173Y-152322643D01*
X116301215Y-151453104D01*
X116350118Y-150452548D01*
X116407208Y-149313100D01*
X116472811Y-148026882D01*
X116547253Y-146586015D01*
X116616061Y-145265570D01*
X116684281Y-143964557D01*
X116750545Y-142708814D01*
X116814275Y-141508905D01*
X116874891Y-140375392D01*
X116931814Y-139318838D01*
X116984466Y-138349807D01*
X117032267Y-137478861D01*
X117074639Y-136716563D01*
X117111004Y-136073477D01*
X117140781Y-135560165D01*
X117163393Y-135187191D01*
X117178260Y-134965118D01*
X117183860Y-134904506D01*
X117266526Y-134736719D01*
X117347723Y-134674155D01*
X117467263Y-134676012D01*
X117724254Y-134710332D01*
X118090951Y-134772387D01*
X118539604Y-134857454D01*
X119042468Y-134960805D01*
X119088698Y-134970683D01*
X119588326Y-135075096D01*
X120029655Y-135162210D01*
X120386688Y-135227314D01*
X120633430Y-135265696D01*
X120743884Y-135272645D01*
X120746694Y-135271195D01*
X120755873Y-135183468D01*
X120772202Y-134940007D01*
X120795028Y-134554231D01*
X120823700Y-134039562D01*
X120857564Y-133409418D01*
X120895970Y-132677219D01*
X120938265Y-131856385D01*
X120983797Y-130960337D01*
X121031914Y-130002492D01*
X121081963Y-128996273D01*
X121133294Y-127955097D01*
X121185254Y-126892385D01*
X121237190Y-125821557D01*
X121288451Y-124756033D01*
X121338385Y-123709231D01*
X121386339Y-122694573D01*
X121431662Y-121725477D01*
X121473701Y-120815364D01*
X121511805Y-119977653D01*
X121545321Y-119225764D01*
X121573598Y-118573117D01*
X121595983Y-118033132D01*
X121611824Y-117619228D01*
X121620469Y-117344825D01*
X121621920Y-117258349D01*
X121623579Y-117006449D01*
X121639114Y-116813709D01*
X121687512Y-116675956D01*
X121787759Y-116589016D01*
X121958843Y-116548716D01*
X122219750Y-116550882D01*
G04 #@! TD*
D11*
G04 #@! TO.C,D1*
X116078000Y-85598000D03*
X116078000Y-90170000D03*
G04 #@! TD*
D12*
G04 #@! TO.C,KB1*
X64262000Y-94234000D03*
X70612000Y-98171000D03*
X76962000Y-101727000D03*
X83693000Y-105029000D03*
X90424000Y-108077000D03*
X97155000Y-110744000D03*
X103759000Y-112903000D03*
X110871000Y-114935000D03*
X117856000Y-116459000D03*
X124714000Y-117856000D03*
X131953000Y-118745000D03*
X138684000Y-119380000D03*
X146050000Y-119761000D03*
X153416000Y-119634000D03*
X160909000Y-119253000D03*
X168402000Y-118491000D03*
X175514000Y-117348000D03*
X182880000Y-115824000D03*
X189738000Y-114046000D03*
X196469000Y-112014000D03*
X203073000Y-109601000D03*
X209804000Y-106807000D03*
X216027000Y-103886000D03*
X222123000Y-100711000D03*
X228854000Y-96774000D03*
G04 #@! TD*
D13*
G04 #@! TO.C,J26*
X85680000Y-84820000D03*
G04 #@! TD*
G04 #@! TO.C,J27*
X98390000Y-91540000D03*
G04 #@! TD*
G04 #@! TO.C,J29*
X111060000Y-98210000D03*
G04 #@! TD*
G04 #@! TO.C,J28*
X72980000Y-78120000D03*
G04 #@! TD*
D14*
G04 #@! TO.C,RGB11*
X125593544Y-93674618D03*
D15*
G36*
X126164865Y-92896773D02*
X126547548Y-93820653D01*
X125022223Y-94452463D01*
X124639540Y-93528583D01*
X126164865Y-92896773D01*
X126164865Y-92896773D01*
G37*
D14*
X120831869Y-95646968D03*
D15*
G36*
X121403190Y-94869123D02*
X121785873Y-95793003D01*
X120260548Y-96424813D01*
X119877865Y-95500933D01*
X121403190Y-94869123D01*
X121403190Y-94869123D01*
G37*
D14*
X122056456Y-98603382D03*
D15*
G36*
X122627777Y-97825537D02*
X123010460Y-98749417D01*
X121485135Y-99381227D01*
X121102452Y-98457347D01*
X122627777Y-97825537D01*
X122627777Y-97825537D01*
G37*
D14*
X126818131Y-96631032D03*
D15*
G36*
X127389452Y-95853187D02*
X127772135Y-96777067D01*
X126246810Y-97408877D01*
X125864127Y-96484997D01*
X127389452Y-95853187D01*
X127389452Y-95853187D01*
G37*
G04 #@! TD*
D16*
G04 #@! TO.C,RGB12*
X124751000Y-84379000D03*
X119597000Y-84379000D03*
X119597000Y-87579000D03*
X124751000Y-87579000D03*
G04 #@! TD*
D14*
G04 #@! TO.C,RGB13*
X126818131Y-75326968D03*
D15*
G36*
X127772135Y-75180933D02*
X127389452Y-76104813D01*
X125864127Y-75473003D01*
X126246810Y-74549123D01*
X127772135Y-75180933D01*
X127772135Y-75180933D01*
G37*
D14*
X122056456Y-73354618D03*
D15*
G36*
X123010460Y-73208583D02*
X122627777Y-74132463D01*
X121102452Y-73500653D01*
X121485135Y-72576773D01*
X123010460Y-73208583D01*
X123010460Y-73208583D01*
G37*
D14*
X120831869Y-76311032D03*
D15*
G36*
X121785873Y-76164997D02*
X121403190Y-77088877D01*
X119877865Y-76457067D01*
X120260548Y-75533187D01*
X121785873Y-76164997D01*
X121785873Y-76164997D01*
G37*
D14*
X125593544Y-78283382D03*
D15*
G36*
X126547548Y-78137347D02*
X126164865Y-79061227D01*
X124639540Y-78429417D01*
X125022223Y-77505537D01*
X126547548Y-78137347D01*
X126547548Y-78137347D01*
G37*
G04 #@! TD*
D14*
G04 #@! TO.C,RGB14*
X132620585Y-67746843D03*
D15*
G36*
X133557855Y-67977006D02*
X132850748Y-68684113D01*
X131683315Y-67516680D01*
X132390422Y-66809573D01*
X133557855Y-67977006D01*
X133557855Y-67977006D01*
G37*
D14*
X128976157Y-64102415D03*
D15*
G36*
X129913427Y-64332578D02*
X129206320Y-65039685D01*
X128038887Y-63872252D01*
X128745994Y-63165145D01*
X129913427Y-64332578D01*
X129913427Y-64332578D01*
G37*
D14*
X126713415Y-66365157D03*
D15*
G36*
X127650685Y-66595320D02*
X126943578Y-67302427D01*
X125776145Y-66134994D01*
X126483252Y-65427887D01*
X127650685Y-66595320D01*
X127650685Y-66595320D01*
G37*
D14*
X130357843Y-70009585D03*
D15*
G36*
X131295113Y-70239748D02*
X130588006Y-70946855D01*
X129420573Y-69779422D01*
X130127680Y-69072315D01*
X131295113Y-70239748D01*
X131295113Y-70239748D01*
G37*
G04 #@! TD*
D14*
G04 #@! TO.C,RGB15*
X140640382Y-63109544D03*
D15*
G36*
X141418227Y-63680865D02*
X140494347Y-64063548D01*
X139862537Y-62538223D01*
X140786417Y-62155540D01*
X141418227Y-63680865D01*
X141418227Y-63680865D01*
G37*
D14*
X138668032Y-58347869D03*
D15*
G36*
X139445877Y-58919190D02*
X138521997Y-59301873D01*
X137890187Y-57776548D01*
X138814067Y-57393865D01*
X139445877Y-58919190D01*
X139445877Y-58919190D01*
G37*
D14*
X135711618Y-59572456D03*
D15*
G36*
X136489463Y-60143777D02*
X135565583Y-60526460D01*
X134933773Y-59001135D01*
X135857653Y-58618452D01*
X136489463Y-60143777D01*
X136489463Y-60143777D01*
G37*
D14*
X137683968Y-64334131D03*
D15*
G36*
X138461813Y-64905452D02*
X137537933Y-65288135D01*
X136906123Y-63762810D01*
X137830003Y-63380127D01*
X138461813Y-64905452D01*
X138461813Y-64905452D01*
G37*
G04 #@! TD*
D14*
G04 #@! TO.C,RGB9*
X137937968Y-107496869D03*
D15*
G36*
X137791933Y-106542865D02*
X138715813Y-106925548D01*
X138084003Y-108450873D01*
X137160123Y-108068190D01*
X137791933Y-106542865D01*
X137791933Y-106542865D01*
G37*
D14*
X135965618Y-112258544D03*
D15*
G36*
X135819583Y-111304540D02*
X136743463Y-111687223D01*
X136111653Y-113212548D01*
X135187773Y-112829865D01*
X135819583Y-111304540D01*
X135819583Y-111304540D01*
G37*
D14*
X138922032Y-113483131D03*
D15*
G36*
X138775997Y-112529127D02*
X139699877Y-112911810D01*
X139068067Y-114437135D01*
X138144187Y-114054452D01*
X138775997Y-112529127D01*
X138775997Y-112529127D01*
G37*
D14*
X140894382Y-108721456D03*
D15*
G36*
X140748347Y-107767452D02*
X141672227Y-108150135D01*
X141040417Y-109675460D01*
X140116537Y-109292777D01*
X140748347Y-107767452D01*
X140748347Y-107767452D01*
G37*
G04 #@! TD*
D17*
G04 #@! TO.C,RGB8*
X146990000Y-110072000D03*
X146990000Y-115226000D03*
X150190000Y-115226000D03*
X150190000Y-110072000D03*
G04 #@! TD*
D14*
G04 #@! TO.C,RGB7*
X156158618Y-108848456D03*
D15*
G36*
X155380773Y-108277135D02*
X156304653Y-107894452D01*
X156936463Y-109419777D01*
X156012583Y-109802460D01*
X155380773Y-108277135D01*
X155380773Y-108277135D01*
G37*
D14*
X158130968Y-113610131D03*
D15*
G36*
X157353123Y-113038810D02*
X158277003Y-112656127D01*
X158908813Y-114181452D01*
X157984933Y-114564135D01*
X157353123Y-113038810D01*
X157353123Y-113038810D01*
G37*
D14*
X161087382Y-112385544D03*
D15*
G36*
X160309537Y-111814223D02*
X161233417Y-111431540D01*
X161865227Y-112956865D01*
X160941347Y-113339548D01*
X160309537Y-111814223D01*
X160309537Y-111814223D01*
G37*
D14*
X159115032Y-107623869D03*
D15*
G36*
X158337187Y-107052548D02*
X159261067Y-106669865D01*
X159892877Y-108195190D01*
X158968997Y-108577873D01*
X158337187Y-107052548D01*
X158337187Y-107052548D01*
G37*
G04 #@! TD*
D14*
G04 #@! TO.C,RGB6*
X164305415Y-104211157D03*
D15*
G36*
X163368145Y-103980994D02*
X164075252Y-103273887D01*
X165242685Y-104441320D01*
X164535578Y-105148427D01*
X163368145Y-103980994D01*
X163368145Y-103980994D01*
G37*
D14*
X167949843Y-107855585D03*
D15*
G36*
X167012573Y-107625422D02*
X167719680Y-106918315D01*
X168887113Y-108085748D01*
X168180006Y-108792855D01*
X167012573Y-107625422D01*
X167012573Y-107625422D01*
G37*
D14*
X170212585Y-105592843D03*
D15*
G36*
X169275315Y-105362680D02*
X169982422Y-104655573D01*
X171149855Y-105823006D01*
X170442748Y-106530113D01*
X169275315Y-105362680D01*
X169275315Y-105362680D01*
G37*
D14*
X166568157Y-101948415D03*
D15*
G36*
X165630887Y-101718252D02*
X166337994Y-101011145D01*
X167505427Y-102178578D01*
X166798320Y-102885685D01*
X165630887Y-101718252D01*
X165630887Y-101718252D01*
G37*
G04 #@! TD*
D14*
G04 #@! TO.C,RGB10*
X130357843Y-101694415D03*
D15*
G36*
X130588006Y-100757145D02*
X131295113Y-101464252D01*
X130127680Y-102631685D01*
X129420573Y-101924578D01*
X130588006Y-100757145D01*
X130588006Y-100757145D01*
G37*
D14*
X126713415Y-105338843D03*
D15*
G36*
X126943578Y-104401573D02*
X127650685Y-105108680D01*
X126483252Y-106276113D01*
X125776145Y-105569006D01*
X126943578Y-104401573D01*
X126943578Y-104401573D01*
G37*
D14*
X128976157Y-107601585D03*
D15*
G36*
X129206320Y-106664315D02*
X129913427Y-107371422D01*
X128745994Y-108538855D01*
X128038887Y-107831748D01*
X129206320Y-106664315D01*
X129206320Y-106664315D01*
G37*
D14*
X132620585Y-103957157D03*
D15*
G36*
X132850748Y-103019887D02*
X133557855Y-103726994D01*
X132390422Y-104894427D01*
X131683315Y-104187320D01*
X132850748Y-103019887D01*
X132850748Y-103019887D01*
G37*
G04 #@! TD*
D16*
G04 #@! TO.C,RGB4*
X172429000Y-87706000D03*
X177583000Y-87706000D03*
X177583000Y-84506000D03*
X172429000Y-84506000D03*
G04 #@! TD*
D14*
G04 #@! TO.C,RGB3*
X171205456Y-78283382D03*
D15*
G36*
X170634135Y-79061227D02*
X170251452Y-78137347D01*
X171776777Y-77505537D01*
X172159460Y-78429417D01*
X170634135Y-79061227D01*
X170634135Y-79061227D01*
G37*
D14*
X175967131Y-76311032D03*
D15*
G36*
X175395810Y-77088877D02*
X175013127Y-76164997D01*
X176538452Y-75533187D01*
X176921135Y-76457067D01*
X175395810Y-77088877D01*
X175395810Y-77088877D01*
G37*
D14*
X174742544Y-73354618D03*
D15*
G36*
X174171223Y-74132463D02*
X173788540Y-73208583D01*
X175313865Y-72576773D01*
X175696548Y-73500653D01*
X174171223Y-74132463D01*
X174171223Y-74132463D01*
G37*
D14*
X169980869Y-75326968D03*
D15*
G36*
X169409548Y-76104813D02*
X169026865Y-75180933D01*
X170552190Y-74549123D01*
X170934873Y-75473003D01*
X169409548Y-76104813D01*
X169409548Y-76104813D01*
G37*
G04 #@! TD*
D14*
G04 #@! TO.C,RGB2*
X166568157Y-70263585D03*
D15*
G36*
X166337994Y-71200855D02*
X165630887Y-70493748D01*
X166798320Y-69326315D01*
X167505427Y-70033422D01*
X166337994Y-71200855D01*
X166337994Y-71200855D01*
G37*
D14*
X170212585Y-66619157D03*
D15*
G36*
X169982422Y-67556427D02*
X169275315Y-66849320D01*
X170442748Y-65681887D01*
X171149855Y-66388994D01*
X169982422Y-67556427D01*
X169982422Y-67556427D01*
G37*
D14*
X167949843Y-64356415D03*
D15*
G36*
X167719680Y-65293685D02*
X167012573Y-64586578D01*
X168180006Y-63419145D01*
X168887113Y-64126252D01*
X167719680Y-65293685D01*
X167719680Y-65293685D01*
G37*
D14*
X164305415Y-68000843D03*
D15*
G36*
X164075252Y-68938113D02*
X163368145Y-68231006D01*
X164535578Y-67063573D01*
X165242685Y-67770680D01*
X164075252Y-68938113D01*
X164075252Y-68938113D01*
G37*
G04 #@! TD*
D14*
G04 #@! TO.C,RGB1*
X159242032Y-64588131D03*
D15*
G36*
X159388067Y-65542135D02*
X158464187Y-65159452D01*
X159095997Y-63634127D01*
X160019877Y-64016810D01*
X159388067Y-65542135D01*
X159388067Y-65542135D01*
G37*
D14*
X161214382Y-59826456D03*
D15*
G36*
X161360417Y-60780460D02*
X160436537Y-60397777D01*
X161068347Y-58872452D01*
X161992227Y-59255135D01*
X161360417Y-60780460D01*
X161360417Y-60780460D01*
G37*
D14*
X158257968Y-58601869D03*
D15*
G36*
X158404003Y-59555873D02*
X157480123Y-59173190D01*
X158111933Y-57647865D01*
X159035813Y-58030548D01*
X158404003Y-59555873D01*
X158404003Y-59555873D01*
G37*
D14*
X156285618Y-63363544D03*
D15*
G36*
X156431653Y-64317548D02*
X155507773Y-63934865D01*
X156139583Y-62409540D01*
X157063463Y-62792223D01*
X156431653Y-64317548D01*
X156431653Y-64317548D01*
G37*
G04 #@! TD*
D17*
G04 #@! TO.C,RGB0*
X149936000Y-62013000D03*
X149936000Y-56859000D03*
X146736000Y-56859000D03*
X146736000Y-62013000D03*
G04 #@! TD*
D14*
G04 #@! TO.C,RGB5*
X169980869Y-96758032D03*
D15*
G36*
X169026865Y-96904067D02*
X169409548Y-95980187D01*
X170934873Y-96611997D01*
X170552190Y-97535877D01*
X169026865Y-96904067D01*
X169026865Y-96904067D01*
G37*
D14*
X174742544Y-98730382D03*
D15*
G36*
X173788540Y-98876417D02*
X174171223Y-97952537D01*
X175696548Y-98584347D01*
X175313865Y-99508227D01*
X173788540Y-98876417D01*
X173788540Y-98876417D01*
G37*
D14*
X175967131Y-95773968D03*
D15*
G36*
X175013127Y-95920003D02*
X175395810Y-94996123D01*
X176921135Y-95627933D01*
X176538452Y-96551813D01*
X175013127Y-95920003D01*
X175013127Y-95920003D01*
G37*
D14*
X171205456Y-93801618D03*
D15*
G36*
X170251452Y-93947653D02*
X170634135Y-93023773D01*
X172159460Y-93655583D01*
X171776777Y-94579463D01*
X170251452Y-93947653D01*
X170251452Y-93947653D01*
G37*
G04 #@! TD*
D18*
G04 #@! TO.C,D2*
X104967369Y-104332369D03*
D15*
G36*
X106655657Y-105122632D02*
X105757632Y-106020657D01*
X103279081Y-103542106D01*
X104177106Y-102644081D01*
X106655657Y-105122632D01*
X106655657Y-105122632D01*
G37*
D18*
X101734477Y-101099477D03*
D15*
G36*
X103422765Y-101889740D02*
X102524740Y-102787765D01*
X100046189Y-100309214D01*
X100944214Y-99411189D01*
X103422765Y-101889740D01*
X103422765Y-101889740D01*
G37*
G04 #@! TD*
D19*
G04 #@! TO.C,D3*
X170561000Y-57150000D03*
X165989000Y-57150000D03*
G04 #@! TD*
D18*
G04 #@! TO.C,D4*
X120142000Y-67895177D03*
D15*
G36*
X119815626Y-69730473D02*
X118715774Y-69095473D01*
X120468374Y-66059881D01*
X121568226Y-66694881D01*
X119815626Y-69730473D01*
X119815626Y-69730473D01*
G37*
D18*
X122428000Y-63935709D03*
D15*
G36*
X122101626Y-65771005D02*
X121001774Y-65136005D01*
X122754374Y-62100413D01*
X123854226Y-62735413D01*
X122101626Y-65771005D01*
X122101626Y-65771005D01*
G37*
G04 #@! TD*
D20*
G04 #@! TO.C,SW1*
X180934360Y-61244480D03*
X175935640Y-61244480D03*
X180934360Y-55595520D03*
X175935640Y-55595520D03*
X178435000Y-61244480D03*
X178435000Y-55595520D03*
G04 #@! TD*
M02*
