G04 #@! TF.GenerationSoftware,KiCad,Pcbnew,(6.0.0-rc1-dev-890-g6c34fdefd)*
G04 #@! TF.CreationDate,2018-10-17T06:06:36-07:00*
G04 #@! TF.ProjectId,Stylish-Belt-Synth - Full,5374796C6973682D42656C742D53796E,rev?*
G04 #@! TF.SameCoordinates,Original*
G04 #@! TF.FileFunction,Soldermask,Bot*
G04 #@! TF.FilePolarity,Negative*
%FSLAX46Y46*%
G04 Gerber Fmt 4.6, Leading zero omitted, Abs format (unit mm)*
G04 Created by KiCad (PCBNEW (6.0.0-rc1-dev-890-g6c34fdefd)) date 10/17/2018 6:06:36 AM*
%MOMM*%
%LPD*%
G01*
G04 APERTURE LIST*
%ADD10C,0.100000*%
G04 APERTURE END LIST*
D10*
G36*
X122729781Y-149335490D02*
X122997307Y-149446303D01*
X123238074Y-149607178D01*
X123442822Y-149811926D01*
X123603697Y-150052693D01*
X123714510Y-150320219D01*
X123771000Y-150604216D01*
X123771000Y-150893784D01*
X123714510Y-151177781D01*
X123603697Y-151445307D01*
X123442822Y-151686074D01*
X123238074Y-151890822D01*
X122997307Y-152051697D01*
X122729781Y-152162510D01*
X122445784Y-152219000D01*
X122156216Y-152219000D01*
X121872219Y-152162510D01*
X121604693Y-152051697D01*
X121363926Y-151890822D01*
X121159178Y-151686074D01*
X120998303Y-151445307D01*
X120887490Y-151177781D01*
X120831000Y-150893784D01*
X120831000Y-150604216D01*
X120887490Y-150320219D01*
X120998303Y-150052693D01*
X121159178Y-149811926D01*
X121363926Y-149607178D01*
X121604693Y-149446303D01*
X121872219Y-149335490D01*
X122156216Y-149279000D01*
X122445784Y-149279000D01*
X122729781Y-149335490D01*
X122729781Y-149335490D01*
G37*
G36*
X122799024Y-141667634D02*
X122877423Y-141691416D01*
X122949668Y-141730032D01*
X123012997Y-141782003D01*
X123064968Y-141845332D01*
X123103584Y-141917577D01*
X123127366Y-141995976D01*
X123136000Y-142083640D01*
X123136000Y-146206360D01*
X123127366Y-146294024D01*
X123103584Y-146372423D01*
X123064968Y-146444668D01*
X123012997Y-146507997D01*
X122949668Y-146559968D01*
X122877423Y-146598584D01*
X122799024Y-146622366D01*
X122711360Y-146631000D01*
X121636640Y-146631000D01*
X121548976Y-146622366D01*
X121470577Y-146598584D01*
X121398332Y-146559968D01*
X121335003Y-146507997D01*
X121283032Y-146444668D01*
X121244416Y-146372423D01*
X121220634Y-146294024D01*
X121212000Y-146206360D01*
X121212000Y-142083640D01*
X121220634Y-141995976D01*
X121244416Y-141917577D01*
X121283032Y-141845332D01*
X121335003Y-141782003D01*
X121398332Y-141730032D01*
X121470577Y-141691416D01*
X121548976Y-141667634D01*
X121636640Y-141659000D01*
X122711360Y-141659000D01*
X122799024Y-141667634D01*
X122799024Y-141667634D01*
G37*
G36*
X148199024Y-141667634D02*
X148277423Y-141691416D01*
X148349668Y-141730032D01*
X148412997Y-141782003D01*
X148464968Y-141845332D01*
X148503584Y-141917577D01*
X148527366Y-141995976D01*
X148536000Y-142083640D01*
X148536000Y-146206360D01*
X148527366Y-146294024D01*
X148503584Y-146372423D01*
X148464968Y-146444668D01*
X148412997Y-146507997D01*
X148349668Y-146559968D01*
X148277423Y-146598584D01*
X148199024Y-146622366D01*
X148111360Y-146631000D01*
X147036640Y-146631000D01*
X146948976Y-146622366D01*
X146870577Y-146598584D01*
X146798332Y-146559968D01*
X146735003Y-146507997D01*
X146683032Y-146444668D01*
X146644416Y-146372423D01*
X146620634Y-146294024D01*
X146612000Y-146206360D01*
X146612000Y-142083640D01*
X146620634Y-141995976D01*
X146644416Y-141917577D01*
X146683032Y-141845332D01*
X146735003Y-141782003D01*
X146798332Y-141730032D01*
X146870577Y-141691416D01*
X146948976Y-141667634D01*
X147036640Y-141659000D01*
X148111360Y-141659000D01*
X148199024Y-141667634D01*
X148199024Y-141667634D01*
G37*
G36*
X145659024Y-141667634D02*
X145737423Y-141691416D01*
X145809668Y-141730032D01*
X145872997Y-141782003D01*
X145924968Y-141845332D01*
X145963584Y-141917577D01*
X145987366Y-141995976D01*
X145996000Y-142083640D01*
X145996000Y-146206360D01*
X145987366Y-146294024D01*
X145963584Y-146372423D01*
X145924968Y-146444668D01*
X145872997Y-146507997D01*
X145809668Y-146559968D01*
X145737423Y-146598584D01*
X145659024Y-146622366D01*
X145571360Y-146631000D01*
X144496640Y-146631000D01*
X144408976Y-146622366D01*
X144330577Y-146598584D01*
X144258332Y-146559968D01*
X144195003Y-146507997D01*
X144143032Y-146444668D01*
X144104416Y-146372423D01*
X144080634Y-146294024D01*
X144072000Y-146206360D01*
X144072000Y-142083640D01*
X144080634Y-141995976D01*
X144104416Y-141917577D01*
X144143032Y-141845332D01*
X144195003Y-141782003D01*
X144258332Y-141730032D01*
X144330577Y-141691416D01*
X144408976Y-141667634D01*
X144496640Y-141659000D01*
X145571360Y-141659000D01*
X145659024Y-141667634D01*
X145659024Y-141667634D01*
G37*
G36*
X143119024Y-141667634D02*
X143197423Y-141691416D01*
X143269668Y-141730032D01*
X143332997Y-141782003D01*
X143384968Y-141845332D01*
X143423584Y-141917577D01*
X143447366Y-141995976D01*
X143456000Y-142083640D01*
X143456000Y-146206360D01*
X143447366Y-146294024D01*
X143423584Y-146372423D01*
X143384968Y-146444668D01*
X143332997Y-146507997D01*
X143269668Y-146559968D01*
X143197423Y-146598584D01*
X143119024Y-146622366D01*
X143031360Y-146631000D01*
X141956640Y-146631000D01*
X141868976Y-146622366D01*
X141790577Y-146598584D01*
X141718332Y-146559968D01*
X141655003Y-146507997D01*
X141603032Y-146444668D01*
X141564416Y-146372423D01*
X141540634Y-146294024D01*
X141532000Y-146206360D01*
X141532000Y-142083640D01*
X141540634Y-141995976D01*
X141564416Y-141917577D01*
X141603032Y-141845332D01*
X141655003Y-141782003D01*
X141718332Y-141730032D01*
X141790577Y-141691416D01*
X141868976Y-141667634D01*
X141956640Y-141659000D01*
X143031360Y-141659000D01*
X143119024Y-141667634D01*
X143119024Y-141667634D01*
G37*
G36*
X140579024Y-141667634D02*
X140657423Y-141691416D01*
X140729668Y-141730032D01*
X140792997Y-141782003D01*
X140844968Y-141845332D01*
X140883584Y-141917577D01*
X140907366Y-141995976D01*
X140916000Y-142083640D01*
X140916000Y-146206360D01*
X140907366Y-146294024D01*
X140883584Y-146372423D01*
X140844968Y-146444668D01*
X140792997Y-146507997D01*
X140729668Y-146559968D01*
X140657423Y-146598584D01*
X140579024Y-146622366D01*
X140491360Y-146631000D01*
X139416640Y-146631000D01*
X139328976Y-146622366D01*
X139250577Y-146598584D01*
X139178332Y-146559968D01*
X139115003Y-146507997D01*
X139063032Y-146444668D01*
X139024416Y-146372423D01*
X139000634Y-146294024D01*
X138992000Y-146206360D01*
X138992000Y-142083640D01*
X139000634Y-141995976D01*
X139024416Y-141917577D01*
X139063032Y-141845332D01*
X139115003Y-141782003D01*
X139178332Y-141730032D01*
X139250577Y-141691416D01*
X139328976Y-141667634D01*
X139416640Y-141659000D01*
X140491360Y-141659000D01*
X140579024Y-141667634D01*
X140579024Y-141667634D01*
G37*
G36*
X138039024Y-141667634D02*
X138117423Y-141691416D01*
X138189668Y-141730032D01*
X138252997Y-141782003D01*
X138304968Y-141845332D01*
X138343584Y-141917577D01*
X138367366Y-141995976D01*
X138376000Y-142083640D01*
X138376000Y-146206360D01*
X138367366Y-146294024D01*
X138343584Y-146372423D01*
X138304968Y-146444668D01*
X138252997Y-146507997D01*
X138189668Y-146559968D01*
X138117423Y-146598584D01*
X138039024Y-146622366D01*
X137951360Y-146631000D01*
X136876640Y-146631000D01*
X136788976Y-146622366D01*
X136710577Y-146598584D01*
X136638332Y-146559968D01*
X136575003Y-146507997D01*
X136523032Y-146444668D01*
X136484416Y-146372423D01*
X136460634Y-146294024D01*
X136452000Y-146206360D01*
X136452000Y-142083640D01*
X136460634Y-141995976D01*
X136484416Y-141917577D01*
X136523032Y-141845332D01*
X136575003Y-141782003D01*
X136638332Y-141730032D01*
X136710577Y-141691416D01*
X136788976Y-141667634D01*
X136876640Y-141659000D01*
X137951360Y-141659000D01*
X138039024Y-141667634D01*
X138039024Y-141667634D01*
G37*
G36*
X135499024Y-141667634D02*
X135577423Y-141691416D01*
X135649668Y-141730032D01*
X135712997Y-141782003D01*
X135764968Y-141845332D01*
X135803584Y-141917577D01*
X135827366Y-141995976D01*
X135836000Y-142083640D01*
X135836000Y-146206360D01*
X135827366Y-146294024D01*
X135803584Y-146372423D01*
X135764968Y-146444668D01*
X135712997Y-146507997D01*
X135649668Y-146559968D01*
X135577423Y-146598584D01*
X135499024Y-146622366D01*
X135411360Y-146631000D01*
X134336640Y-146631000D01*
X134248976Y-146622366D01*
X134170577Y-146598584D01*
X134098332Y-146559968D01*
X134035003Y-146507997D01*
X133983032Y-146444668D01*
X133944416Y-146372423D01*
X133920634Y-146294024D01*
X133912000Y-146206360D01*
X133912000Y-142083640D01*
X133920634Y-141995976D01*
X133944416Y-141917577D01*
X133983032Y-141845332D01*
X134035003Y-141782003D01*
X134098332Y-141730032D01*
X134170577Y-141691416D01*
X134248976Y-141667634D01*
X134336640Y-141659000D01*
X135411360Y-141659000D01*
X135499024Y-141667634D01*
X135499024Y-141667634D01*
G37*
G36*
X132959024Y-141667634D02*
X133037423Y-141691416D01*
X133109668Y-141730032D01*
X133172997Y-141782003D01*
X133224968Y-141845332D01*
X133263584Y-141917577D01*
X133287366Y-141995976D01*
X133296000Y-142083640D01*
X133296000Y-146206360D01*
X133287366Y-146294024D01*
X133263584Y-146372423D01*
X133224968Y-146444668D01*
X133172997Y-146507997D01*
X133109668Y-146559968D01*
X133037423Y-146598584D01*
X132959024Y-146622366D01*
X132871360Y-146631000D01*
X131796640Y-146631000D01*
X131708976Y-146622366D01*
X131630577Y-146598584D01*
X131558332Y-146559968D01*
X131495003Y-146507997D01*
X131443032Y-146444668D01*
X131404416Y-146372423D01*
X131380634Y-146294024D01*
X131372000Y-146206360D01*
X131372000Y-142083640D01*
X131380634Y-141995976D01*
X131404416Y-141917577D01*
X131443032Y-141845332D01*
X131495003Y-141782003D01*
X131558332Y-141730032D01*
X131630577Y-141691416D01*
X131708976Y-141667634D01*
X131796640Y-141659000D01*
X132871360Y-141659000D01*
X132959024Y-141667634D01*
X132959024Y-141667634D01*
G37*
G36*
X130419024Y-141667634D02*
X130497423Y-141691416D01*
X130569668Y-141730032D01*
X130632997Y-141782003D01*
X130684968Y-141845332D01*
X130723584Y-141917577D01*
X130747366Y-141995976D01*
X130756000Y-142083640D01*
X130756000Y-146206360D01*
X130747366Y-146294024D01*
X130723584Y-146372423D01*
X130684968Y-146444668D01*
X130632997Y-146507997D01*
X130569668Y-146559968D01*
X130497423Y-146598584D01*
X130419024Y-146622366D01*
X130331360Y-146631000D01*
X129256640Y-146631000D01*
X129168976Y-146622366D01*
X129090577Y-146598584D01*
X129018332Y-146559968D01*
X128955003Y-146507997D01*
X128903032Y-146444668D01*
X128864416Y-146372423D01*
X128840634Y-146294024D01*
X128832000Y-146206360D01*
X128832000Y-142083640D01*
X128840634Y-141995976D01*
X128864416Y-141917577D01*
X128903032Y-141845332D01*
X128955003Y-141782003D01*
X129018332Y-141730032D01*
X129090577Y-141691416D01*
X129168976Y-141667634D01*
X129256640Y-141659000D01*
X130331360Y-141659000D01*
X130419024Y-141667634D01*
X130419024Y-141667634D01*
G37*
G36*
X127879024Y-141667634D02*
X127957423Y-141691416D01*
X128029668Y-141730032D01*
X128092997Y-141782003D01*
X128144968Y-141845332D01*
X128183584Y-141917577D01*
X128207366Y-141995976D01*
X128216000Y-142083640D01*
X128216000Y-146206360D01*
X128207366Y-146294024D01*
X128183584Y-146372423D01*
X128144968Y-146444668D01*
X128092997Y-146507997D01*
X128029668Y-146559968D01*
X127957423Y-146598584D01*
X127879024Y-146622366D01*
X127791360Y-146631000D01*
X126716640Y-146631000D01*
X126628976Y-146622366D01*
X126550577Y-146598584D01*
X126478332Y-146559968D01*
X126415003Y-146507997D01*
X126363032Y-146444668D01*
X126324416Y-146372423D01*
X126300634Y-146294024D01*
X126292000Y-146206360D01*
X126292000Y-142083640D01*
X126300634Y-141995976D01*
X126324416Y-141917577D01*
X126363032Y-141845332D01*
X126415003Y-141782003D01*
X126478332Y-141730032D01*
X126550577Y-141691416D01*
X126628976Y-141667634D01*
X126716640Y-141659000D01*
X127791360Y-141659000D01*
X127879024Y-141667634D01*
X127879024Y-141667634D01*
G37*
G36*
X150739024Y-141667634D02*
X150817423Y-141691416D01*
X150889668Y-141730032D01*
X150952997Y-141782003D01*
X151004968Y-141845332D01*
X151043584Y-141917577D01*
X151067366Y-141995976D01*
X151076000Y-142083640D01*
X151076000Y-146206360D01*
X151067366Y-146294024D01*
X151043584Y-146372423D01*
X151004968Y-146444668D01*
X150952997Y-146507997D01*
X150889668Y-146559968D01*
X150817423Y-146598584D01*
X150739024Y-146622366D01*
X150651360Y-146631000D01*
X149576640Y-146631000D01*
X149488976Y-146622366D01*
X149410577Y-146598584D01*
X149338332Y-146559968D01*
X149275003Y-146507997D01*
X149223032Y-146444668D01*
X149184416Y-146372423D01*
X149160634Y-146294024D01*
X149152000Y-146206360D01*
X149152000Y-142083640D01*
X149160634Y-141995976D01*
X149184416Y-141917577D01*
X149223032Y-141845332D01*
X149275003Y-141782003D01*
X149338332Y-141730032D01*
X149410577Y-141691416D01*
X149488976Y-141667634D01*
X149576640Y-141659000D01*
X150651360Y-141659000D01*
X150739024Y-141667634D01*
X150739024Y-141667634D01*
G37*
G36*
X125339024Y-141667634D02*
X125417423Y-141691416D01*
X125489668Y-141730032D01*
X125552997Y-141782003D01*
X125604968Y-141845332D01*
X125643584Y-141917577D01*
X125667366Y-141995976D01*
X125676000Y-142083640D01*
X125676000Y-146206360D01*
X125667366Y-146294024D01*
X125643584Y-146372423D01*
X125604968Y-146444668D01*
X125552997Y-146507997D01*
X125489668Y-146559968D01*
X125417423Y-146598584D01*
X125339024Y-146622366D01*
X125251360Y-146631000D01*
X124176640Y-146631000D01*
X124088976Y-146622366D01*
X124010577Y-146598584D01*
X123938332Y-146559968D01*
X123875003Y-146507997D01*
X123823032Y-146444668D01*
X123784416Y-146372423D01*
X123760634Y-146294024D01*
X123752000Y-146206360D01*
X123752000Y-142083640D01*
X123760634Y-141995976D01*
X123784416Y-141917577D01*
X123823032Y-141845332D01*
X123875003Y-141782003D01*
X123938332Y-141730032D01*
X124010577Y-141691416D01*
X124088976Y-141667634D01*
X124176640Y-141659000D01*
X125251360Y-141659000D01*
X125339024Y-141667634D01*
X125339024Y-141667634D01*
G37*
G36*
X171059024Y-141667634D02*
X171137423Y-141691416D01*
X171209668Y-141730032D01*
X171272997Y-141782003D01*
X171324968Y-141845332D01*
X171363584Y-141917577D01*
X171387366Y-141995976D01*
X171396000Y-142083640D01*
X171396000Y-146206360D01*
X171387366Y-146294024D01*
X171363584Y-146372423D01*
X171324968Y-146444668D01*
X171272997Y-146507997D01*
X171209668Y-146559968D01*
X171137423Y-146598584D01*
X171059024Y-146622366D01*
X170971360Y-146631000D01*
X169896640Y-146631000D01*
X169808976Y-146622366D01*
X169730577Y-146598584D01*
X169658332Y-146559968D01*
X169595003Y-146507997D01*
X169543032Y-146444668D01*
X169504416Y-146372423D01*
X169480634Y-146294024D01*
X169472000Y-146206360D01*
X169472000Y-142083640D01*
X169480634Y-141995976D01*
X169504416Y-141917577D01*
X169543032Y-141845332D01*
X169595003Y-141782003D01*
X169658332Y-141730032D01*
X169730577Y-141691416D01*
X169808976Y-141667634D01*
X169896640Y-141659000D01*
X170971360Y-141659000D01*
X171059024Y-141667634D01*
X171059024Y-141667634D01*
G37*
G36*
X168519024Y-141667634D02*
X168597423Y-141691416D01*
X168669668Y-141730032D01*
X168732997Y-141782003D01*
X168784968Y-141845332D01*
X168823584Y-141917577D01*
X168847366Y-141995976D01*
X168856000Y-142083640D01*
X168856000Y-146206360D01*
X168847366Y-146294024D01*
X168823584Y-146372423D01*
X168784968Y-146444668D01*
X168732997Y-146507997D01*
X168669668Y-146559968D01*
X168597423Y-146598584D01*
X168519024Y-146622366D01*
X168431360Y-146631000D01*
X167356640Y-146631000D01*
X167268976Y-146622366D01*
X167190577Y-146598584D01*
X167118332Y-146559968D01*
X167055003Y-146507997D01*
X167003032Y-146444668D01*
X166964416Y-146372423D01*
X166940634Y-146294024D01*
X166932000Y-146206360D01*
X166932000Y-142083640D01*
X166940634Y-141995976D01*
X166964416Y-141917577D01*
X167003032Y-141845332D01*
X167055003Y-141782003D01*
X167118332Y-141730032D01*
X167190577Y-141691416D01*
X167268976Y-141667634D01*
X167356640Y-141659000D01*
X168431360Y-141659000D01*
X168519024Y-141667634D01*
X168519024Y-141667634D01*
G37*
G36*
X165979024Y-141667634D02*
X166057423Y-141691416D01*
X166129668Y-141730032D01*
X166192997Y-141782003D01*
X166244968Y-141845332D01*
X166283584Y-141917577D01*
X166307366Y-141995976D01*
X166316000Y-142083640D01*
X166316000Y-146206360D01*
X166307366Y-146294024D01*
X166283584Y-146372423D01*
X166244968Y-146444668D01*
X166192997Y-146507997D01*
X166129668Y-146559968D01*
X166057423Y-146598584D01*
X165979024Y-146622366D01*
X165891360Y-146631000D01*
X164816640Y-146631000D01*
X164728976Y-146622366D01*
X164650577Y-146598584D01*
X164578332Y-146559968D01*
X164515003Y-146507997D01*
X164463032Y-146444668D01*
X164424416Y-146372423D01*
X164400634Y-146294024D01*
X164392000Y-146206360D01*
X164392000Y-142083640D01*
X164400634Y-141995976D01*
X164424416Y-141917577D01*
X164463032Y-141845332D01*
X164515003Y-141782003D01*
X164578332Y-141730032D01*
X164650577Y-141691416D01*
X164728976Y-141667634D01*
X164816640Y-141659000D01*
X165891360Y-141659000D01*
X165979024Y-141667634D01*
X165979024Y-141667634D01*
G37*
G36*
X163439024Y-141667634D02*
X163517423Y-141691416D01*
X163589668Y-141730032D01*
X163652997Y-141782003D01*
X163704968Y-141845332D01*
X163743584Y-141917577D01*
X163767366Y-141995976D01*
X163776000Y-142083640D01*
X163776000Y-146206360D01*
X163767366Y-146294024D01*
X163743584Y-146372423D01*
X163704968Y-146444668D01*
X163652997Y-146507997D01*
X163589668Y-146559968D01*
X163517423Y-146598584D01*
X163439024Y-146622366D01*
X163351360Y-146631000D01*
X162276640Y-146631000D01*
X162188976Y-146622366D01*
X162110577Y-146598584D01*
X162038332Y-146559968D01*
X161975003Y-146507997D01*
X161923032Y-146444668D01*
X161884416Y-146372423D01*
X161860634Y-146294024D01*
X161852000Y-146206360D01*
X161852000Y-142083640D01*
X161860634Y-141995976D01*
X161884416Y-141917577D01*
X161923032Y-141845332D01*
X161975003Y-141782003D01*
X162038332Y-141730032D01*
X162110577Y-141691416D01*
X162188976Y-141667634D01*
X162276640Y-141659000D01*
X163351360Y-141659000D01*
X163439024Y-141667634D01*
X163439024Y-141667634D01*
G37*
G36*
X160899024Y-141667634D02*
X160977423Y-141691416D01*
X161049668Y-141730032D01*
X161112997Y-141782003D01*
X161164968Y-141845332D01*
X161203584Y-141917577D01*
X161227366Y-141995976D01*
X161236000Y-142083640D01*
X161236000Y-146206360D01*
X161227366Y-146294024D01*
X161203584Y-146372423D01*
X161164968Y-146444668D01*
X161112997Y-146507997D01*
X161049668Y-146559968D01*
X160977423Y-146598584D01*
X160899024Y-146622366D01*
X160811360Y-146631000D01*
X159736640Y-146631000D01*
X159648976Y-146622366D01*
X159570577Y-146598584D01*
X159498332Y-146559968D01*
X159435003Y-146507997D01*
X159383032Y-146444668D01*
X159344416Y-146372423D01*
X159320634Y-146294024D01*
X159312000Y-146206360D01*
X159312000Y-142083640D01*
X159320634Y-141995976D01*
X159344416Y-141917577D01*
X159383032Y-141845332D01*
X159435003Y-141782003D01*
X159498332Y-141730032D01*
X159570577Y-141691416D01*
X159648976Y-141667634D01*
X159736640Y-141659000D01*
X160811360Y-141659000D01*
X160899024Y-141667634D01*
X160899024Y-141667634D01*
G37*
G36*
X158359024Y-141667634D02*
X158437423Y-141691416D01*
X158509668Y-141730032D01*
X158572997Y-141782003D01*
X158624968Y-141845332D01*
X158663584Y-141917577D01*
X158687366Y-141995976D01*
X158696000Y-142083640D01*
X158696000Y-146206360D01*
X158687366Y-146294024D01*
X158663584Y-146372423D01*
X158624968Y-146444668D01*
X158572997Y-146507997D01*
X158509668Y-146559968D01*
X158437423Y-146598584D01*
X158359024Y-146622366D01*
X158271360Y-146631000D01*
X157196640Y-146631000D01*
X157108976Y-146622366D01*
X157030577Y-146598584D01*
X156958332Y-146559968D01*
X156895003Y-146507997D01*
X156843032Y-146444668D01*
X156804416Y-146372423D01*
X156780634Y-146294024D01*
X156772000Y-146206360D01*
X156772000Y-142083640D01*
X156780634Y-141995976D01*
X156804416Y-141917577D01*
X156843032Y-141845332D01*
X156895003Y-141782003D01*
X156958332Y-141730032D01*
X157030577Y-141691416D01*
X157108976Y-141667634D01*
X157196640Y-141659000D01*
X158271360Y-141659000D01*
X158359024Y-141667634D01*
X158359024Y-141667634D01*
G37*
G36*
X155819024Y-141667634D02*
X155897423Y-141691416D01*
X155969668Y-141730032D01*
X156032997Y-141782003D01*
X156084968Y-141845332D01*
X156123584Y-141917577D01*
X156147366Y-141995976D01*
X156156000Y-142083640D01*
X156156000Y-146206360D01*
X156147366Y-146294024D01*
X156123584Y-146372423D01*
X156084968Y-146444668D01*
X156032997Y-146507997D01*
X155969668Y-146559968D01*
X155897423Y-146598584D01*
X155819024Y-146622366D01*
X155731360Y-146631000D01*
X154656640Y-146631000D01*
X154568976Y-146622366D01*
X154490577Y-146598584D01*
X154418332Y-146559968D01*
X154355003Y-146507997D01*
X154303032Y-146444668D01*
X154264416Y-146372423D01*
X154240634Y-146294024D01*
X154232000Y-146206360D01*
X154232000Y-142083640D01*
X154240634Y-141995976D01*
X154264416Y-141917577D01*
X154303032Y-141845332D01*
X154355003Y-141782003D01*
X154418332Y-141730032D01*
X154490577Y-141691416D01*
X154568976Y-141667634D01*
X154656640Y-141659000D01*
X155731360Y-141659000D01*
X155819024Y-141667634D01*
X155819024Y-141667634D01*
G37*
G36*
X153279024Y-141667634D02*
X153357423Y-141691416D01*
X153429668Y-141730032D01*
X153492997Y-141782003D01*
X153544968Y-141845332D01*
X153583584Y-141917577D01*
X153607366Y-141995976D01*
X153616000Y-142083640D01*
X153616000Y-146206360D01*
X153607366Y-146294024D01*
X153583584Y-146372423D01*
X153544968Y-146444668D01*
X153492997Y-146507997D01*
X153429668Y-146559968D01*
X153357423Y-146598584D01*
X153279024Y-146622366D01*
X153191360Y-146631000D01*
X152116640Y-146631000D01*
X152028976Y-146622366D01*
X151950577Y-146598584D01*
X151878332Y-146559968D01*
X151815003Y-146507997D01*
X151763032Y-146444668D01*
X151724416Y-146372423D01*
X151700634Y-146294024D01*
X151692000Y-146206360D01*
X151692000Y-142083640D01*
X151700634Y-141995976D01*
X151724416Y-141917577D01*
X151763032Y-141845332D01*
X151815003Y-141782003D01*
X151878332Y-141730032D01*
X151950577Y-141691416D01*
X152028976Y-141667634D01*
X152116640Y-141659000D01*
X153191360Y-141659000D01*
X153279024Y-141667634D01*
X153279024Y-141667634D01*
G37*
G36*
X171059024Y-123379634D02*
X171137423Y-123403416D01*
X171209668Y-123442032D01*
X171272997Y-123494003D01*
X171324968Y-123557332D01*
X171363584Y-123629577D01*
X171387366Y-123707976D01*
X171396000Y-123795640D01*
X171396000Y-127918360D01*
X171387366Y-128006024D01*
X171363584Y-128084423D01*
X171324968Y-128156668D01*
X171272997Y-128219997D01*
X171209668Y-128271968D01*
X171137423Y-128310584D01*
X171059024Y-128334366D01*
X170971360Y-128343000D01*
X169896640Y-128343000D01*
X169808976Y-128334366D01*
X169730577Y-128310584D01*
X169658332Y-128271968D01*
X169595003Y-128219997D01*
X169543032Y-128156668D01*
X169504416Y-128084423D01*
X169480634Y-128006024D01*
X169472000Y-127918360D01*
X169472000Y-123795640D01*
X169480634Y-123707976D01*
X169504416Y-123629577D01*
X169543032Y-123557332D01*
X169595003Y-123494003D01*
X169658332Y-123442032D01*
X169730577Y-123403416D01*
X169808976Y-123379634D01*
X169896640Y-123371000D01*
X170971360Y-123371000D01*
X171059024Y-123379634D01*
X171059024Y-123379634D01*
G37*
G36*
X168519024Y-123379634D02*
X168597423Y-123403416D01*
X168669668Y-123442032D01*
X168732997Y-123494003D01*
X168784968Y-123557332D01*
X168823584Y-123629577D01*
X168847366Y-123707976D01*
X168856000Y-123795640D01*
X168856000Y-127918360D01*
X168847366Y-128006024D01*
X168823584Y-128084423D01*
X168784968Y-128156668D01*
X168732997Y-128219997D01*
X168669668Y-128271968D01*
X168597423Y-128310584D01*
X168519024Y-128334366D01*
X168431360Y-128343000D01*
X167356640Y-128343000D01*
X167268976Y-128334366D01*
X167190577Y-128310584D01*
X167118332Y-128271968D01*
X167055003Y-128219997D01*
X167003032Y-128156668D01*
X166964416Y-128084423D01*
X166940634Y-128006024D01*
X166932000Y-127918360D01*
X166932000Y-123795640D01*
X166940634Y-123707976D01*
X166964416Y-123629577D01*
X167003032Y-123557332D01*
X167055003Y-123494003D01*
X167118332Y-123442032D01*
X167190577Y-123403416D01*
X167268976Y-123379634D01*
X167356640Y-123371000D01*
X168431360Y-123371000D01*
X168519024Y-123379634D01*
X168519024Y-123379634D01*
G37*
G36*
X165979024Y-123379634D02*
X166057423Y-123403416D01*
X166129668Y-123442032D01*
X166192997Y-123494003D01*
X166244968Y-123557332D01*
X166283584Y-123629577D01*
X166307366Y-123707976D01*
X166316000Y-123795640D01*
X166316000Y-127918360D01*
X166307366Y-128006024D01*
X166283584Y-128084423D01*
X166244968Y-128156668D01*
X166192997Y-128219997D01*
X166129668Y-128271968D01*
X166057423Y-128310584D01*
X165979024Y-128334366D01*
X165891360Y-128343000D01*
X164816640Y-128343000D01*
X164728976Y-128334366D01*
X164650577Y-128310584D01*
X164578332Y-128271968D01*
X164515003Y-128219997D01*
X164463032Y-128156668D01*
X164424416Y-128084423D01*
X164400634Y-128006024D01*
X164392000Y-127918360D01*
X164392000Y-123795640D01*
X164400634Y-123707976D01*
X164424416Y-123629577D01*
X164463032Y-123557332D01*
X164515003Y-123494003D01*
X164578332Y-123442032D01*
X164650577Y-123403416D01*
X164728976Y-123379634D01*
X164816640Y-123371000D01*
X165891360Y-123371000D01*
X165979024Y-123379634D01*
X165979024Y-123379634D01*
G37*
G36*
X160899024Y-123379634D02*
X160977423Y-123403416D01*
X161049668Y-123442032D01*
X161112997Y-123494003D01*
X161164968Y-123557332D01*
X161203584Y-123629577D01*
X161227366Y-123707976D01*
X161236000Y-123795640D01*
X161236000Y-127918360D01*
X161227366Y-128006024D01*
X161203584Y-128084423D01*
X161164968Y-128156668D01*
X161112997Y-128219997D01*
X161049668Y-128271968D01*
X160977423Y-128310584D01*
X160899024Y-128334366D01*
X160811360Y-128343000D01*
X159736640Y-128343000D01*
X159648976Y-128334366D01*
X159570577Y-128310584D01*
X159498332Y-128271968D01*
X159435003Y-128219997D01*
X159383032Y-128156668D01*
X159344416Y-128084423D01*
X159320634Y-128006024D01*
X159312000Y-127918360D01*
X159312000Y-123795640D01*
X159320634Y-123707976D01*
X159344416Y-123629577D01*
X159383032Y-123557332D01*
X159435003Y-123494003D01*
X159498332Y-123442032D01*
X159570577Y-123403416D01*
X159648976Y-123379634D01*
X159736640Y-123371000D01*
X160811360Y-123371000D01*
X160899024Y-123379634D01*
X160899024Y-123379634D01*
G37*
G36*
X158359024Y-123379634D02*
X158437423Y-123403416D01*
X158509668Y-123442032D01*
X158572997Y-123494003D01*
X158624968Y-123557332D01*
X158663584Y-123629577D01*
X158687366Y-123707976D01*
X158696000Y-123795640D01*
X158696000Y-127918360D01*
X158687366Y-128006024D01*
X158663584Y-128084423D01*
X158624968Y-128156668D01*
X158572997Y-128219997D01*
X158509668Y-128271968D01*
X158437423Y-128310584D01*
X158359024Y-128334366D01*
X158271360Y-128343000D01*
X157196640Y-128343000D01*
X157108976Y-128334366D01*
X157030577Y-128310584D01*
X156958332Y-128271968D01*
X156895003Y-128219997D01*
X156843032Y-128156668D01*
X156804416Y-128084423D01*
X156780634Y-128006024D01*
X156772000Y-127918360D01*
X156772000Y-123795640D01*
X156780634Y-123707976D01*
X156804416Y-123629577D01*
X156843032Y-123557332D01*
X156895003Y-123494003D01*
X156958332Y-123442032D01*
X157030577Y-123403416D01*
X157108976Y-123379634D01*
X157196640Y-123371000D01*
X158271360Y-123371000D01*
X158359024Y-123379634D01*
X158359024Y-123379634D01*
G37*
G36*
X155819024Y-123379634D02*
X155897423Y-123403416D01*
X155969668Y-123442032D01*
X156032997Y-123494003D01*
X156084968Y-123557332D01*
X156123584Y-123629577D01*
X156147366Y-123707976D01*
X156156000Y-123795640D01*
X156156000Y-127918360D01*
X156147366Y-128006024D01*
X156123584Y-128084423D01*
X156084968Y-128156668D01*
X156032997Y-128219997D01*
X155969668Y-128271968D01*
X155897423Y-128310584D01*
X155819024Y-128334366D01*
X155731360Y-128343000D01*
X154656640Y-128343000D01*
X154568976Y-128334366D01*
X154490577Y-128310584D01*
X154418332Y-128271968D01*
X154355003Y-128219997D01*
X154303032Y-128156668D01*
X154264416Y-128084423D01*
X154240634Y-128006024D01*
X154232000Y-127918360D01*
X154232000Y-123795640D01*
X154240634Y-123707976D01*
X154264416Y-123629577D01*
X154303032Y-123557332D01*
X154355003Y-123494003D01*
X154418332Y-123442032D01*
X154490577Y-123403416D01*
X154568976Y-123379634D01*
X154656640Y-123371000D01*
X155731360Y-123371000D01*
X155819024Y-123379634D01*
X155819024Y-123379634D01*
G37*
G36*
X153279024Y-123379634D02*
X153357423Y-123403416D01*
X153429668Y-123442032D01*
X153492997Y-123494003D01*
X153544968Y-123557332D01*
X153583584Y-123629577D01*
X153607366Y-123707976D01*
X153616000Y-123795640D01*
X153616000Y-127918360D01*
X153607366Y-128006024D01*
X153583584Y-128084423D01*
X153544968Y-128156668D01*
X153492997Y-128219997D01*
X153429668Y-128271968D01*
X153357423Y-128310584D01*
X153279024Y-128334366D01*
X153191360Y-128343000D01*
X152116640Y-128343000D01*
X152028976Y-128334366D01*
X151950577Y-128310584D01*
X151878332Y-128271968D01*
X151815003Y-128219997D01*
X151763032Y-128156668D01*
X151724416Y-128084423D01*
X151700634Y-128006024D01*
X151692000Y-127918360D01*
X151692000Y-123795640D01*
X151700634Y-123707976D01*
X151724416Y-123629577D01*
X151763032Y-123557332D01*
X151815003Y-123494003D01*
X151878332Y-123442032D01*
X151950577Y-123403416D01*
X152028976Y-123379634D01*
X152116640Y-123371000D01*
X153191360Y-123371000D01*
X153279024Y-123379634D01*
X153279024Y-123379634D01*
G37*
G36*
X150739024Y-123379634D02*
X150817423Y-123403416D01*
X150889668Y-123442032D01*
X150952997Y-123494003D01*
X151004968Y-123557332D01*
X151043584Y-123629577D01*
X151067366Y-123707976D01*
X151076000Y-123795640D01*
X151076000Y-127918360D01*
X151067366Y-128006024D01*
X151043584Y-128084423D01*
X151004968Y-128156668D01*
X150952997Y-128219997D01*
X150889668Y-128271968D01*
X150817423Y-128310584D01*
X150739024Y-128334366D01*
X150651360Y-128343000D01*
X149576640Y-128343000D01*
X149488976Y-128334366D01*
X149410577Y-128310584D01*
X149338332Y-128271968D01*
X149275003Y-128219997D01*
X149223032Y-128156668D01*
X149184416Y-128084423D01*
X149160634Y-128006024D01*
X149152000Y-127918360D01*
X149152000Y-123795640D01*
X149160634Y-123707976D01*
X149184416Y-123629577D01*
X149223032Y-123557332D01*
X149275003Y-123494003D01*
X149338332Y-123442032D01*
X149410577Y-123403416D01*
X149488976Y-123379634D01*
X149576640Y-123371000D01*
X150651360Y-123371000D01*
X150739024Y-123379634D01*
X150739024Y-123379634D01*
G37*
G36*
X123136000Y-128343000D02*
X121212000Y-128343000D01*
X121212000Y-123371000D01*
X123136000Y-123371000D01*
X123136000Y-128343000D01*
X123136000Y-128343000D01*
G37*
G36*
X163439024Y-123379634D02*
X163517423Y-123403416D01*
X163589668Y-123442032D01*
X163652997Y-123494003D01*
X163704968Y-123557332D01*
X163743584Y-123629577D01*
X163767366Y-123707976D01*
X163776000Y-123795640D01*
X163776000Y-127918360D01*
X163767366Y-128006024D01*
X163743584Y-128084423D01*
X163704968Y-128156668D01*
X163652997Y-128219997D01*
X163589668Y-128271968D01*
X163517423Y-128310584D01*
X163439024Y-128334366D01*
X163351360Y-128343000D01*
X162276640Y-128343000D01*
X162188976Y-128334366D01*
X162110577Y-128310584D01*
X162038332Y-128271968D01*
X161975003Y-128219997D01*
X161923032Y-128156668D01*
X161884416Y-128084423D01*
X161860634Y-128006024D01*
X161852000Y-127918360D01*
X161852000Y-123795640D01*
X161860634Y-123707976D01*
X161884416Y-123629577D01*
X161923032Y-123557332D01*
X161975003Y-123494003D01*
X162038332Y-123442032D01*
X162110577Y-123403416D01*
X162188976Y-123379634D01*
X162276640Y-123371000D01*
X163351360Y-123371000D01*
X163439024Y-123379634D01*
X163439024Y-123379634D01*
G37*
G36*
X127879024Y-123379634D02*
X127957423Y-123403416D01*
X128029668Y-123442032D01*
X128092997Y-123494003D01*
X128144968Y-123557332D01*
X128183584Y-123629577D01*
X128207366Y-123707976D01*
X128216000Y-123795640D01*
X128216000Y-127918360D01*
X128207366Y-128006024D01*
X128183584Y-128084423D01*
X128144968Y-128156668D01*
X128092997Y-128219997D01*
X128029668Y-128271968D01*
X127957423Y-128310584D01*
X127879024Y-128334366D01*
X127791360Y-128343000D01*
X126716640Y-128343000D01*
X126628976Y-128334366D01*
X126550577Y-128310584D01*
X126478332Y-128271968D01*
X126415003Y-128219997D01*
X126363032Y-128156668D01*
X126324416Y-128084423D01*
X126300634Y-128006024D01*
X126292000Y-127918360D01*
X126292000Y-123795640D01*
X126300634Y-123707976D01*
X126324416Y-123629577D01*
X126363032Y-123557332D01*
X126415003Y-123494003D01*
X126478332Y-123442032D01*
X126550577Y-123403416D01*
X126628976Y-123379634D01*
X126716640Y-123371000D01*
X127791360Y-123371000D01*
X127879024Y-123379634D01*
X127879024Y-123379634D01*
G37*
G36*
X125339024Y-123379634D02*
X125417423Y-123403416D01*
X125489668Y-123442032D01*
X125552997Y-123494003D01*
X125604968Y-123557332D01*
X125643584Y-123629577D01*
X125667366Y-123707976D01*
X125676000Y-123795640D01*
X125676000Y-127918360D01*
X125667366Y-128006024D01*
X125643584Y-128084423D01*
X125604968Y-128156668D01*
X125552997Y-128219997D01*
X125489668Y-128271968D01*
X125417423Y-128310584D01*
X125339024Y-128334366D01*
X125251360Y-128343000D01*
X124176640Y-128343000D01*
X124088976Y-128334366D01*
X124010577Y-128310584D01*
X123938332Y-128271968D01*
X123875003Y-128219997D01*
X123823032Y-128156668D01*
X123784416Y-128084423D01*
X123760634Y-128006024D01*
X123752000Y-127918360D01*
X123752000Y-123795640D01*
X123760634Y-123707976D01*
X123784416Y-123629577D01*
X123823032Y-123557332D01*
X123875003Y-123494003D01*
X123938332Y-123442032D01*
X124010577Y-123403416D01*
X124088976Y-123379634D01*
X124176640Y-123371000D01*
X125251360Y-123371000D01*
X125339024Y-123379634D01*
X125339024Y-123379634D01*
G37*
G36*
X148199024Y-123379634D02*
X148277423Y-123403416D01*
X148349668Y-123442032D01*
X148412997Y-123494003D01*
X148464968Y-123557332D01*
X148503584Y-123629577D01*
X148527366Y-123707976D01*
X148536000Y-123795640D01*
X148536000Y-127918360D01*
X148527366Y-128006024D01*
X148503584Y-128084423D01*
X148464968Y-128156668D01*
X148412997Y-128219997D01*
X148349668Y-128271968D01*
X148277423Y-128310584D01*
X148199024Y-128334366D01*
X148111360Y-128343000D01*
X147036640Y-128343000D01*
X146948976Y-128334366D01*
X146870577Y-128310584D01*
X146798332Y-128271968D01*
X146735003Y-128219997D01*
X146683032Y-128156668D01*
X146644416Y-128084423D01*
X146620634Y-128006024D01*
X146612000Y-127918360D01*
X146612000Y-123795640D01*
X146620634Y-123707976D01*
X146644416Y-123629577D01*
X146683032Y-123557332D01*
X146735003Y-123494003D01*
X146798332Y-123442032D01*
X146870577Y-123403416D01*
X146948976Y-123379634D01*
X147036640Y-123371000D01*
X148111360Y-123371000D01*
X148199024Y-123379634D01*
X148199024Y-123379634D01*
G37*
G36*
X145659024Y-123379634D02*
X145737423Y-123403416D01*
X145809668Y-123442032D01*
X145872997Y-123494003D01*
X145924968Y-123557332D01*
X145963584Y-123629577D01*
X145987366Y-123707976D01*
X145996000Y-123795640D01*
X145996000Y-127918360D01*
X145987366Y-128006024D01*
X145963584Y-128084423D01*
X145924968Y-128156668D01*
X145872997Y-128219997D01*
X145809668Y-128271968D01*
X145737423Y-128310584D01*
X145659024Y-128334366D01*
X145571360Y-128343000D01*
X144496640Y-128343000D01*
X144408976Y-128334366D01*
X144330577Y-128310584D01*
X144258332Y-128271968D01*
X144195003Y-128219997D01*
X144143032Y-128156668D01*
X144104416Y-128084423D01*
X144080634Y-128006024D01*
X144072000Y-127918360D01*
X144072000Y-123795640D01*
X144080634Y-123707976D01*
X144104416Y-123629577D01*
X144143032Y-123557332D01*
X144195003Y-123494003D01*
X144258332Y-123442032D01*
X144330577Y-123403416D01*
X144408976Y-123379634D01*
X144496640Y-123371000D01*
X145571360Y-123371000D01*
X145659024Y-123379634D01*
X145659024Y-123379634D01*
G37*
G36*
X143119024Y-123379634D02*
X143197423Y-123403416D01*
X143269668Y-123442032D01*
X143332997Y-123494003D01*
X143384968Y-123557332D01*
X143423584Y-123629577D01*
X143447366Y-123707976D01*
X143456000Y-123795640D01*
X143456000Y-127918360D01*
X143447366Y-128006024D01*
X143423584Y-128084423D01*
X143384968Y-128156668D01*
X143332997Y-128219997D01*
X143269668Y-128271968D01*
X143197423Y-128310584D01*
X143119024Y-128334366D01*
X143031360Y-128343000D01*
X141956640Y-128343000D01*
X141868976Y-128334366D01*
X141790577Y-128310584D01*
X141718332Y-128271968D01*
X141655003Y-128219997D01*
X141603032Y-128156668D01*
X141564416Y-128084423D01*
X141540634Y-128006024D01*
X141532000Y-127918360D01*
X141532000Y-123795640D01*
X141540634Y-123707976D01*
X141564416Y-123629577D01*
X141603032Y-123557332D01*
X141655003Y-123494003D01*
X141718332Y-123442032D01*
X141790577Y-123403416D01*
X141868976Y-123379634D01*
X141956640Y-123371000D01*
X143031360Y-123371000D01*
X143119024Y-123379634D01*
X143119024Y-123379634D01*
G37*
G36*
X140579024Y-123379634D02*
X140657423Y-123403416D01*
X140729668Y-123442032D01*
X140792997Y-123494003D01*
X140844968Y-123557332D01*
X140883584Y-123629577D01*
X140907366Y-123707976D01*
X140916000Y-123795640D01*
X140916000Y-127918360D01*
X140907366Y-128006024D01*
X140883584Y-128084423D01*
X140844968Y-128156668D01*
X140792997Y-128219997D01*
X140729668Y-128271968D01*
X140657423Y-128310584D01*
X140579024Y-128334366D01*
X140491360Y-128343000D01*
X139416640Y-128343000D01*
X139328976Y-128334366D01*
X139250577Y-128310584D01*
X139178332Y-128271968D01*
X139115003Y-128219997D01*
X139063032Y-128156668D01*
X139024416Y-128084423D01*
X139000634Y-128006024D01*
X138992000Y-127918360D01*
X138992000Y-123795640D01*
X139000634Y-123707976D01*
X139024416Y-123629577D01*
X139063032Y-123557332D01*
X139115003Y-123494003D01*
X139178332Y-123442032D01*
X139250577Y-123403416D01*
X139328976Y-123379634D01*
X139416640Y-123371000D01*
X140491360Y-123371000D01*
X140579024Y-123379634D01*
X140579024Y-123379634D01*
G37*
G36*
X138039024Y-123379634D02*
X138117423Y-123403416D01*
X138189668Y-123442032D01*
X138252997Y-123494003D01*
X138304968Y-123557332D01*
X138343584Y-123629577D01*
X138367366Y-123707976D01*
X138376000Y-123795640D01*
X138376000Y-127918360D01*
X138367366Y-128006024D01*
X138343584Y-128084423D01*
X138304968Y-128156668D01*
X138252997Y-128219997D01*
X138189668Y-128271968D01*
X138117423Y-128310584D01*
X138039024Y-128334366D01*
X137951360Y-128343000D01*
X136876640Y-128343000D01*
X136788976Y-128334366D01*
X136710577Y-128310584D01*
X136638332Y-128271968D01*
X136575003Y-128219997D01*
X136523032Y-128156668D01*
X136484416Y-128084423D01*
X136460634Y-128006024D01*
X136452000Y-127918360D01*
X136452000Y-123795640D01*
X136460634Y-123707976D01*
X136484416Y-123629577D01*
X136523032Y-123557332D01*
X136575003Y-123494003D01*
X136638332Y-123442032D01*
X136710577Y-123403416D01*
X136788976Y-123379634D01*
X136876640Y-123371000D01*
X137951360Y-123371000D01*
X138039024Y-123379634D01*
X138039024Y-123379634D01*
G37*
G36*
X135499024Y-123379634D02*
X135577423Y-123403416D01*
X135649668Y-123442032D01*
X135712997Y-123494003D01*
X135764968Y-123557332D01*
X135803584Y-123629577D01*
X135827366Y-123707976D01*
X135836000Y-123795640D01*
X135836000Y-127918360D01*
X135827366Y-128006024D01*
X135803584Y-128084423D01*
X135764968Y-128156668D01*
X135712997Y-128219997D01*
X135649668Y-128271968D01*
X135577423Y-128310584D01*
X135499024Y-128334366D01*
X135411360Y-128343000D01*
X134336640Y-128343000D01*
X134248976Y-128334366D01*
X134170577Y-128310584D01*
X134098332Y-128271968D01*
X134035003Y-128219997D01*
X133983032Y-128156668D01*
X133944416Y-128084423D01*
X133920634Y-128006024D01*
X133912000Y-127918360D01*
X133912000Y-123795640D01*
X133920634Y-123707976D01*
X133944416Y-123629577D01*
X133983032Y-123557332D01*
X134035003Y-123494003D01*
X134098332Y-123442032D01*
X134170577Y-123403416D01*
X134248976Y-123379634D01*
X134336640Y-123371000D01*
X135411360Y-123371000D01*
X135499024Y-123379634D01*
X135499024Y-123379634D01*
G37*
G36*
X132959024Y-123379634D02*
X133037423Y-123403416D01*
X133109668Y-123442032D01*
X133172997Y-123494003D01*
X133224968Y-123557332D01*
X133263584Y-123629577D01*
X133287366Y-123707976D01*
X133296000Y-123795640D01*
X133296000Y-127918360D01*
X133287366Y-128006024D01*
X133263584Y-128084423D01*
X133224968Y-128156668D01*
X133172997Y-128219997D01*
X133109668Y-128271968D01*
X133037423Y-128310584D01*
X132959024Y-128334366D01*
X132871360Y-128343000D01*
X131796640Y-128343000D01*
X131708976Y-128334366D01*
X131630577Y-128310584D01*
X131558332Y-128271968D01*
X131495003Y-128219997D01*
X131443032Y-128156668D01*
X131404416Y-128084423D01*
X131380634Y-128006024D01*
X131372000Y-127918360D01*
X131372000Y-123795640D01*
X131380634Y-123707976D01*
X131404416Y-123629577D01*
X131443032Y-123557332D01*
X131495003Y-123494003D01*
X131558332Y-123442032D01*
X131630577Y-123403416D01*
X131708976Y-123379634D01*
X131796640Y-123371000D01*
X132871360Y-123371000D01*
X132959024Y-123379634D01*
X132959024Y-123379634D01*
G37*
G36*
X130419024Y-123379634D02*
X130497423Y-123403416D01*
X130569668Y-123442032D01*
X130632997Y-123494003D01*
X130684968Y-123557332D01*
X130723584Y-123629577D01*
X130747366Y-123707976D01*
X130756000Y-123795640D01*
X130756000Y-127918360D01*
X130747366Y-128006024D01*
X130723584Y-128084423D01*
X130684968Y-128156668D01*
X130632997Y-128219997D01*
X130569668Y-128271968D01*
X130497423Y-128310584D01*
X130419024Y-128334366D01*
X130331360Y-128343000D01*
X129256640Y-128343000D01*
X129168976Y-128334366D01*
X129090577Y-128310584D01*
X129018332Y-128271968D01*
X128955003Y-128219997D01*
X128903032Y-128156668D01*
X128864416Y-128084423D01*
X128840634Y-128006024D01*
X128832000Y-127918360D01*
X128832000Y-123795640D01*
X128840634Y-123707976D01*
X128864416Y-123629577D01*
X128903032Y-123557332D01*
X128955003Y-123494003D01*
X129018332Y-123442032D01*
X129090577Y-123403416D01*
X129168976Y-123379634D01*
X129256640Y-123371000D01*
X130331360Y-123371000D01*
X130419024Y-123379634D01*
X130419024Y-123379634D01*
G37*
G36*
X148391873Y-112863417D02*
X149079151Y-113440112D01*
X149079151Y-113440113D01*
X148747803Y-113834998D01*
X147857855Y-114895597D01*
X147857854Y-114895597D01*
X147281159Y-114411693D01*
X146593881Y-113834998D01*
X146593881Y-113834997D01*
X147252709Y-113049837D01*
X147815177Y-112379513D01*
X147815178Y-112379513D01*
X148391873Y-112863417D01*
X148391873Y-112863417D01*
G37*
G36*
X159050372Y-111178702D02*
X158720441Y-113049837D01*
X157095508Y-112763318D01*
X157425439Y-110892183D01*
X159050372Y-111178702D01*
X159050372Y-111178702D01*
G37*
G36*
X149931954Y-110892183D02*
X150686119Y-111525002D01*
X150686119Y-111525003D01*
X150354771Y-111919888D01*
X149464823Y-112980487D01*
X149464822Y-112980487D01*
X148888127Y-112496583D01*
X148200849Y-111919888D01*
X148200849Y-111919887D01*
X148784131Y-111224759D01*
X149422145Y-110464403D01*
X149422146Y-110464403D01*
X149931954Y-110892183D01*
X149931954Y-110892183D01*
G37*
G36*
X138564222Y-111377145D02*
X137056851Y-112533792D01*
X136052394Y-111224759D01*
X137559765Y-110068112D01*
X138564222Y-111377145D01*
X138564222Y-111377145D01*
G37*
G36*
X140547606Y-109855241D02*
X139040235Y-111011888D01*
X138035778Y-109702855D01*
X139543149Y-108546208D01*
X140547606Y-109855241D01*
X140547606Y-109855241D01*
G37*
G36*
X159484492Y-108716682D02*
X159154561Y-110587817D01*
X157529628Y-110301298D01*
X157859559Y-108430163D01*
X159484492Y-108716682D01*
X159484492Y-108716682D01*
G37*
G36*
X168374492Y-106813318D02*
X166749559Y-107099837D01*
X166419628Y-105228702D01*
X168044561Y-104942183D01*
X168374492Y-106813318D01*
X168374492Y-106813318D01*
G37*
G36*
X107459214Y-105410000D02*
X106045000Y-106824214D01*
X104630786Y-105410000D01*
X106045000Y-103995786D01*
X107459214Y-105410000D01*
X107459214Y-105410000D01*
G37*
G36*
X129387817Y-105484561D02*
X127516682Y-105814492D01*
X127230163Y-104189559D01*
X129101298Y-103859628D01*
X129387817Y-105484561D01*
X129387817Y-105484561D01*
G37*
G36*
X131849837Y-105050441D02*
X129978702Y-105380372D01*
X129692183Y-103755439D01*
X131563318Y-103425508D01*
X131849837Y-105050441D01*
X131849837Y-105050441D01*
G37*
G36*
X167940372Y-104351298D02*
X166315439Y-104637817D01*
X165985508Y-102766682D01*
X167610441Y-102480163D01*
X167940372Y-104351298D01*
X167940372Y-104351298D01*
G37*
G36*
X100852876Y-99036315D02*
X100852879Y-99036316D01*
X100852880Y-99036316D01*
X101041381Y-99093497D01*
X101041383Y-99093498D01*
X101215106Y-99186355D01*
X101367374Y-99311318D01*
X101492337Y-99463586D01*
X101585194Y-99637309D01*
X101642377Y-99825816D01*
X101661684Y-100021846D01*
X101642377Y-100217876D01*
X101585194Y-100406383D01*
X101492337Y-100580106D01*
X101367374Y-100732374D01*
X101215106Y-100857337D01*
X101215104Y-100857338D01*
X101041381Y-100950195D01*
X100852880Y-101007376D01*
X100852879Y-101007376D01*
X100852876Y-101007377D01*
X100705970Y-101021846D01*
X100607722Y-101021846D01*
X100460816Y-101007377D01*
X100460813Y-101007376D01*
X100460812Y-101007376D01*
X100272311Y-100950195D01*
X100098588Y-100857338D01*
X100098586Y-100857337D01*
X99946318Y-100732374D01*
X99821355Y-100580106D01*
X99728498Y-100406383D01*
X99671315Y-100217876D01*
X99652008Y-100021846D01*
X99671315Y-99825816D01*
X99728498Y-99637309D01*
X99821355Y-99463586D01*
X99946318Y-99311318D01*
X100098586Y-99186355D01*
X100272309Y-99093498D01*
X100272311Y-99093497D01*
X100460812Y-99036316D01*
X100460813Y-99036316D01*
X100460816Y-99036315D01*
X100607722Y-99021846D01*
X100705970Y-99021846D01*
X100852876Y-99036315D01*
X100852876Y-99036315D01*
G37*
G36*
X197431000Y-100974500D02*
X196523000Y-100974500D01*
X196523000Y-99431500D01*
X197431000Y-99431500D01*
X197431000Y-100974500D01*
X197431000Y-100974500D01*
G37*
G36*
X196161000Y-100974500D02*
X195253000Y-100974500D01*
X195253000Y-99431500D01*
X196161000Y-99431500D01*
X196161000Y-100974500D01*
X196161000Y-100974500D01*
G37*
G36*
X194891000Y-100974500D02*
X193983000Y-100974500D01*
X193983000Y-99431500D01*
X194891000Y-99431500D01*
X194891000Y-100974500D01*
X194891000Y-100974500D01*
G37*
G36*
X193621000Y-100974500D02*
X192713000Y-100974500D01*
X192713000Y-99431500D01*
X193621000Y-99431500D01*
X193621000Y-100974500D01*
X193621000Y-100974500D01*
G37*
G36*
X215454984Y-95304747D02*
X215633872Y-95340330D01*
X215943252Y-95468479D01*
X216221687Y-95654523D01*
X216458477Y-95891313D01*
X216644521Y-96169748D01*
X216772670Y-96479128D01*
X216772670Y-96479129D01*
X216808528Y-96659396D01*
X216838000Y-96807565D01*
X216838000Y-97142435D01*
X216772670Y-97470872D01*
X216644521Y-97780252D01*
X216458477Y-98058687D01*
X216221687Y-98295477D01*
X215943252Y-98481521D01*
X215633872Y-98609670D01*
X215524393Y-98631447D01*
X215305437Y-98675000D01*
X214970563Y-98675000D01*
X214751607Y-98631447D01*
X214642128Y-98609670D01*
X214332748Y-98481521D01*
X214054313Y-98295477D01*
X213817523Y-98058687D01*
X213631479Y-97780252D01*
X213503330Y-97470872D01*
X213438000Y-97142435D01*
X213438000Y-96807565D01*
X213467473Y-96659396D01*
X213503330Y-96479129D01*
X213503330Y-96479128D01*
X213631479Y-96169748D01*
X213817523Y-95891313D01*
X214054313Y-95654523D01*
X214332748Y-95468479D01*
X214642128Y-95340330D01*
X214821016Y-95304747D01*
X214970563Y-95275000D01*
X215305437Y-95275000D01*
X215454984Y-95304747D01*
X215454984Y-95304747D01*
G37*
G36*
X174674471Y-97782756D02*
X173245529Y-98607756D01*
X172295529Y-96962308D01*
X173724471Y-96137308D01*
X174674471Y-97782756D01*
X174674471Y-97782756D01*
G37*
G36*
X83253893Y-95128053D02*
X83363372Y-95149830D01*
X83672752Y-95277979D01*
X83951187Y-95464023D01*
X84187977Y-95700813D01*
X84374021Y-95979248D01*
X84502170Y-96288628D01*
X84567500Y-96617065D01*
X84567500Y-96951935D01*
X84502170Y-97280372D01*
X84374021Y-97589752D01*
X84187977Y-97868187D01*
X83951187Y-98104977D01*
X83672752Y-98291021D01*
X83363372Y-98419170D01*
X83253893Y-98440947D01*
X83034937Y-98484500D01*
X82700063Y-98484500D01*
X82481107Y-98440947D01*
X82371628Y-98419170D01*
X82062248Y-98291021D01*
X81783813Y-98104977D01*
X81547023Y-97868187D01*
X81360979Y-97589752D01*
X81232830Y-97280372D01*
X81167500Y-96951935D01*
X81167500Y-96617065D01*
X81232830Y-96288628D01*
X81360979Y-95979248D01*
X81547023Y-95700813D01*
X81783813Y-95464023D01*
X82062248Y-95277979D01*
X82371628Y-95149830D01*
X82481107Y-95128053D01*
X82700063Y-95084500D01*
X83034937Y-95084500D01*
X83253893Y-95128053D01*
X83253893Y-95128053D01*
G37*
G36*
X190484000Y-98028000D02*
X188484000Y-98028000D01*
X188484000Y-96028000D01*
X190484000Y-96028000D01*
X190484000Y-98028000D01*
X190484000Y-98028000D01*
G37*
G36*
X126046249Y-96091702D02*
X125414821Y-97616104D01*
X123659449Y-96889006D01*
X124290877Y-95364604D01*
X126046249Y-96091702D01*
X126046249Y-96091702D01*
G37*
G36*
X123736551Y-95134994D02*
X123105123Y-96659396D01*
X121349751Y-95932298D01*
X121981179Y-94407896D01*
X123736551Y-95134994D01*
X123736551Y-95134994D01*
G37*
G36*
X173424471Y-95617692D02*
X171995529Y-96442692D01*
X171045529Y-94797244D01*
X172474471Y-93972244D01*
X173424471Y-95617692D01*
X173424471Y-95617692D01*
G37*
G36*
X189659770Y-93543372D02*
X189775689Y-93566429D01*
X189957678Y-93641811D01*
X190121463Y-93751249D01*
X190260751Y-93890537D01*
X190370189Y-94054322D01*
X190445571Y-94236311D01*
X190484000Y-94429509D01*
X190484000Y-94626491D01*
X190445571Y-94819689D01*
X190370189Y-95001678D01*
X190260751Y-95165463D01*
X190121463Y-95304751D01*
X189957678Y-95414189D01*
X189775689Y-95489571D01*
X189659770Y-95512628D01*
X189582493Y-95528000D01*
X189385507Y-95528000D01*
X189308230Y-95512628D01*
X189192311Y-95489571D01*
X189010322Y-95414189D01*
X188846537Y-95304751D01*
X188707249Y-95165463D01*
X188597811Y-95001678D01*
X188522429Y-94819689D01*
X188484000Y-94626491D01*
X188484000Y-94429509D01*
X188522429Y-94236311D01*
X188597811Y-94054322D01*
X188707249Y-93890537D01*
X188846537Y-93751249D01*
X189010322Y-93641811D01*
X189192311Y-93566429D01*
X189308230Y-93543372D01*
X189385507Y-93528000D01*
X189582493Y-93528000D01*
X189659770Y-93543372D01*
X189659770Y-93543372D01*
G37*
G36*
X197431000Y-94624500D02*
X196523000Y-94624500D01*
X196523000Y-93081500D01*
X197431000Y-93081500D01*
X197431000Y-94624500D01*
X197431000Y-94624500D01*
G37*
G36*
X196161000Y-94624500D02*
X195253000Y-94624500D01*
X195253000Y-93081500D01*
X196161000Y-93081500D01*
X196161000Y-94624500D01*
X196161000Y-94624500D01*
G37*
G36*
X193621000Y-94624500D02*
X192713000Y-94624500D01*
X192713000Y-93081500D01*
X193621000Y-93081500D01*
X193621000Y-94624500D01*
X193621000Y-94624500D01*
G37*
G36*
X194891000Y-94624500D02*
X193983000Y-94624500D01*
X193983000Y-93081500D01*
X194891000Y-93081500D01*
X194891000Y-94624500D01*
X194891000Y-94624500D01*
G37*
G36*
X117078000Y-92694000D02*
X115078000Y-92694000D01*
X115078000Y-90694000D01*
X117078000Y-90694000D01*
X117078000Y-92694000D01*
X117078000Y-92694000D01*
G37*
G36*
X192787770Y-87915372D02*
X192903689Y-87938429D01*
X193085678Y-88013811D01*
X193130765Y-88043937D01*
X193152368Y-88055485D01*
X193175817Y-88062598D01*
X193200204Y-88065000D01*
X194764000Y-88065000D01*
X194764000Y-89735000D01*
X193200204Y-89735000D01*
X193175818Y-89737402D01*
X193152369Y-89744515D01*
X193130765Y-89756063D01*
X193085678Y-89786189D01*
X192903689Y-89861571D01*
X192787770Y-89884628D01*
X192710493Y-89900000D01*
X192513507Y-89900000D01*
X192436230Y-89884628D01*
X192320311Y-89861571D01*
X192138322Y-89786189D01*
X192093235Y-89756063D01*
X192071632Y-89744515D01*
X192053445Y-89738998D01*
X192041388Y-89724307D01*
X192022458Y-89708771D01*
X191974537Y-89676751D01*
X191835249Y-89537463D01*
X191725811Y-89373678D01*
X191650429Y-89191689D01*
X191612000Y-88998491D01*
X191612000Y-88801509D01*
X191650429Y-88608311D01*
X191725811Y-88426322D01*
X191835249Y-88262537D01*
X191974537Y-88123249D01*
X192022458Y-88091229D01*
X192041388Y-88075694D01*
X192053446Y-88061001D01*
X192071631Y-88055485D01*
X192093235Y-88043937D01*
X192138322Y-88013811D01*
X192320311Y-87938429D01*
X192436230Y-87915372D01*
X192513507Y-87900000D01*
X192710493Y-87900000D01*
X192787770Y-87915372D01*
X192787770Y-87915372D01*
G37*
G36*
X197787770Y-87915372D02*
X197903689Y-87938429D01*
X198085678Y-88013811D01*
X198249463Y-88123249D01*
X198388751Y-88262537D01*
X198498189Y-88426322D01*
X198573571Y-88608311D01*
X198612000Y-88801509D01*
X198612000Y-88998491D01*
X198573571Y-89191689D01*
X198498189Y-89373678D01*
X198388751Y-89537463D01*
X198249463Y-89676751D01*
X198085678Y-89786189D01*
X197903689Y-89861571D01*
X197787770Y-89884628D01*
X197710493Y-89900000D01*
X197513507Y-89900000D01*
X197436230Y-89884628D01*
X197320311Y-89861571D01*
X197138322Y-89786189D01*
X197093235Y-89756063D01*
X197071632Y-89744515D01*
X197048183Y-89737402D01*
X197023796Y-89735000D01*
X195380000Y-89735000D01*
X195380000Y-88065000D01*
X197023796Y-88065000D01*
X197048182Y-88062598D01*
X197071631Y-88055485D01*
X197093235Y-88043937D01*
X197138322Y-88013811D01*
X197320311Y-87938429D01*
X197436230Y-87915372D01*
X197513507Y-87900000D01*
X197710493Y-87900000D01*
X197787770Y-87915372D01*
X197787770Y-87915372D01*
G37*
G36*
X182548432Y-88013022D02*
X182702033Y-88059617D01*
X182726067Y-88064398D01*
X182738319Y-88065000D01*
X185823200Y-88065000D01*
X185823200Y-89735000D01*
X182738319Y-89735000D01*
X182713933Y-89737402D01*
X182702033Y-89740383D01*
X182548432Y-89786978D01*
X182416211Y-89800000D01*
X182327789Y-89800000D01*
X182195568Y-89786978D01*
X182025919Y-89735515D01*
X181869567Y-89651944D01*
X181732525Y-89539475D01*
X181620056Y-89402433D01*
X181536485Y-89246081D01*
X181485022Y-89076432D01*
X181467646Y-88900000D01*
X181485022Y-88723568D01*
X181536485Y-88553919D01*
X181620056Y-88397567D01*
X181732525Y-88260525D01*
X181869567Y-88148056D01*
X182025919Y-88064485D01*
X182195568Y-88013022D01*
X182327789Y-88000000D01*
X182416211Y-88000000D01*
X182548432Y-88013022D01*
X182548432Y-88013022D01*
G37*
G36*
X190254521Y-88034586D02*
X190418309Y-88102429D01*
X190565720Y-88200926D01*
X190691074Y-88326280D01*
X190789571Y-88473691D01*
X190857414Y-88637479D01*
X190892000Y-88811356D01*
X190892000Y-88988644D01*
X190857414Y-89162521D01*
X190789571Y-89326309D01*
X190691074Y-89473720D01*
X190565720Y-89599074D01*
X190418309Y-89697571D01*
X190254521Y-89765414D01*
X190080644Y-89800000D01*
X189903356Y-89800000D01*
X189729480Y-89765414D01*
X189679025Y-89744515D01*
X189655576Y-89737402D01*
X189631190Y-89735000D01*
X186566200Y-89735000D01*
X186566200Y-88065000D01*
X189631190Y-88065000D01*
X189655576Y-88062598D01*
X189679025Y-88055485D01*
X189729480Y-88034586D01*
X189903356Y-88000000D01*
X190080644Y-88000000D01*
X190254521Y-88034586D01*
X190254521Y-88034586D01*
G37*
G36*
X177335335Y-86656068D02*
X176388934Y-88007669D01*
X174832545Y-86917874D01*
X175778946Y-85566273D01*
X177335335Y-86656068D01*
X177335335Y-86656068D01*
G37*
G36*
X124195335Y-86438068D02*
X123248934Y-87789669D01*
X121692545Y-86699874D01*
X122638946Y-85348273D01*
X124195335Y-86438068D01*
X124195335Y-86438068D01*
G37*
G36*
X175287455Y-85222126D02*
X174341054Y-86573727D01*
X172784665Y-85483932D01*
X173731066Y-84132331D01*
X175287455Y-85222126D01*
X175287455Y-85222126D01*
G37*
G36*
X122147455Y-85004126D02*
X121201054Y-86355727D01*
X119644665Y-85265932D01*
X120591066Y-83914331D01*
X122147455Y-85004126D01*
X122147455Y-85004126D01*
G37*
G36*
X192787770Y-84359372D02*
X192903689Y-84382429D01*
X193085678Y-84457811D01*
X193130765Y-84487937D01*
X193152368Y-84499485D01*
X193175817Y-84506598D01*
X193200204Y-84509000D01*
X194764000Y-84509000D01*
X194764000Y-86179000D01*
X193200204Y-86179000D01*
X193175818Y-86181402D01*
X193152369Y-86188515D01*
X193130765Y-86200063D01*
X193085678Y-86230189D01*
X192903689Y-86305571D01*
X192787770Y-86328628D01*
X192710493Y-86344000D01*
X192513507Y-86344000D01*
X192436230Y-86328628D01*
X192320311Y-86305571D01*
X192138322Y-86230189D01*
X192093235Y-86200063D01*
X192071632Y-86188515D01*
X192053445Y-86182998D01*
X192041388Y-86168307D01*
X192022458Y-86152771D01*
X191974537Y-86120751D01*
X191835249Y-85981463D01*
X191725811Y-85817678D01*
X191650429Y-85635689D01*
X191618161Y-85473466D01*
X191612000Y-85442493D01*
X191612000Y-85245507D01*
X191648993Y-85059531D01*
X191650429Y-85052311D01*
X191725811Y-84870322D01*
X191835249Y-84706537D01*
X191974537Y-84567249D01*
X192022458Y-84535229D01*
X192041388Y-84519694D01*
X192053446Y-84505001D01*
X192071631Y-84499485D01*
X192093235Y-84487937D01*
X192138322Y-84457811D01*
X192320311Y-84382429D01*
X192436230Y-84359372D01*
X192513507Y-84344000D01*
X192710493Y-84344000D01*
X192787770Y-84359372D01*
X192787770Y-84359372D01*
G37*
G36*
X197787770Y-84359372D02*
X197903689Y-84382429D01*
X198085678Y-84457811D01*
X198249463Y-84567249D01*
X198388751Y-84706537D01*
X198498189Y-84870322D01*
X198573571Y-85052311D01*
X198575007Y-85059531D01*
X198612000Y-85245507D01*
X198612000Y-85442493D01*
X198605839Y-85473466D01*
X198573571Y-85635689D01*
X198498189Y-85817678D01*
X198388751Y-85981463D01*
X198249463Y-86120751D01*
X198085678Y-86230189D01*
X197903689Y-86305571D01*
X197787770Y-86328628D01*
X197710493Y-86344000D01*
X197513507Y-86344000D01*
X197436230Y-86328628D01*
X197320311Y-86305571D01*
X197138322Y-86230189D01*
X197093235Y-86200063D01*
X197071632Y-86188515D01*
X197048183Y-86181402D01*
X197023796Y-86179000D01*
X195380000Y-86179000D01*
X195380000Y-84509000D01*
X197023796Y-84509000D01*
X197048182Y-84506598D01*
X197071631Y-84499485D01*
X197093235Y-84487937D01*
X197138322Y-84457811D01*
X197320311Y-84382429D01*
X197436230Y-84359372D01*
X197513507Y-84344000D01*
X197710493Y-84344000D01*
X197787770Y-84359372D01*
X197787770Y-84359372D01*
G37*
G36*
X188563770Y-83851372D02*
X188679689Y-83874429D01*
X188861678Y-83949811D01*
X188906765Y-83979937D01*
X188928368Y-83991485D01*
X188946555Y-83997002D01*
X188958612Y-84011693D01*
X188977542Y-84027229D01*
X189025463Y-84059249D01*
X189164751Y-84198537D01*
X189274189Y-84362322D01*
X189349571Y-84544311D01*
X189367065Y-84632260D01*
X189381840Y-84706537D01*
X189388000Y-84737509D01*
X189388000Y-84934491D01*
X189349571Y-85127689D01*
X189274189Y-85309678D01*
X189164751Y-85473463D01*
X189025463Y-85612751D01*
X188977542Y-85644771D01*
X188958612Y-85660306D01*
X188946554Y-85674999D01*
X188928369Y-85680515D01*
X188906765Y-85692063D01*
X188861678Y-85722189D01*
X188679689Y-85797571D01*
X188578618Y-85817675D01*
X188486493Y-85836000D01*
X188289507Y-85836000D01*
X188197382Y-85817675D01*
X188096311Y-85797571D01*
X187914322Y-85722189D01*
X187869235Y-85692063D01*
X187847632Y-85680515D01*
X187824183Y-85673402D01*
X187799796Y-85671000D01*
X186236000Y-85671000D01*
X186236000Y-84001000D01*
X187799796Y-84001000D01*
X187824182Y-83998598D01*
X187847631Y-83991485D01*
X187869235Y-83979937D01*
X187914322Y-83949811D01*
X188096311Y-83874429D01*
X188212230Y-83851372D01*
X188289507Y-83836000D01*
X188486493Y-83836000D01*
X188563770Y-83851372D01*
X188563770Y-83851372D01*
G37*
G36*
X183563770Y-83851372D02*
X183679689Y-83874429D01*
X183861678Y-83949811D01*
X183906765Y-83979937D01*
X183928368Y-83991485D01*
X183951817Y-83998598D01*
X183976204Y-84001000D01*
X185620000Y-84001000D01*
X185620000Y-85671000D01*
X183976204Y-85671000D01*
X183951818Y-85673402D01*
X183928369Y-85680515D01*
X183906765Y-85692063D01*
X183861678Y-85722189D01*
X183679689Y-85797571D01*
X183578618Y-85817675D01*
X183486493Y-85836000D01*
X183289507Y-85836000D01*
X183197382Y-85817675D01*
X183096311Y-85797571D01*
X182914322Y-85722189D01*
X182750537Y-85612751D01*
X182611249Y-85473463D01*
X182501811Y-85309678D01*
X182426429Y-85127689D01*
X182388000Y-84934491D01*
X182388000Y-84737509D01*
X182394161Y-84706537D01*
X182408935Y-84632260D01*
X182426429Y-84544311D01*
X182501811Y-84362322D01*
X182611249Y-84198537D01*
X182750537Y-84059249D01*
X182914322Y-83949811D01*
X183096311Y-83874429D01*
X183212230Y-83851372D01*
X183289507Y-83836000D01*
X183486493Y-83836000D01*
X183563770Y-83851372D01*
X183563770Y-83851372D01*
G37*
G36*
X116274030Y-83088469D02*
X116274033Y-83088470D01*
X116274034Y-83088470D01*
X116462535Y-83145651D01*
X116462537Y-83145652D01*
X116636260Y-83238509D01*
X116788528Y-83363472D01*
X116913491Y-83515740D01*
X117006348Y-83689463D01*
X117063531Y-83877970D01*
X117082838Y-84074000D01*
X117063531Y-84270030D01*
X117063530Y-84270033D01*
X117063530Y-84270034D01*
X117006569Y-84457811D01*
X117006348Y-84458537D01*
X116913491Y-84632260D01*
X116788528Y-84784528D01*
X116636260Y-84909491D01*
X116462537Y-85002348D01*
X116462535Y-85002349D01*
X116274034Y-85059530D01*
X116274033Y-85059530D01*
X116274030Y-85059531D01*
X116127124Y-85074000D01*
X116028876Y-85074000D01*
X115881970Y-85059531D01*
X115881967Y-85059530D01*
X115881966Y-85059530D01*
X115693465Y-85002349D01*
X115693463Y-85002348D01*
X115519740Y-84909491D01*
X115367472Y-84784528D01*
X115242509Y-84632260D01*
X115149652Y-84458537D01*
X115149432Y-84457811D01*
X115092470Y-84270034D01*
X115092470Y-84270033D01*
X115092469Y-84270030D01*
X115073162Y-84074000D01*
X115092469Y-83877970D01*
X115149652Y-83689463D01*
X115242509Y-83515740D01*
X115367472Y-83363472D01*
X115519740Y-83238509D01*
X115693463Y-83145652D01*
X115693465Y-83145651D01*
X115881966Y-83088470D01*
X115881967Y-83088470D01*
X115881970Y-83088469D01*
X116028876Y-83074000D01*
X116127124Y-83074000D01*
X116274030Y-83088469D01*
X116274030Y-83088469D01*
G37*
G36*
X191136707Y-80745597D02*
X191213836Y-80753193D01*
X191345787Y-80793220D01*
X191411763Y-80813233D01*
X191594172Y-80910733D01*
X191754054Y-81041946D01*
X191885267Y-81201828D01*
X191982767Y-81384237D01*
X191982767Y-81384238D01*
X192042807Y-81582164D01*
X192063080Y-81788000D01*
X192042807Y-81993836D01*
X192002780Y-82125787D01*
X191982767Y-82191763D01*
X191885267Y-82374172D01*
X191754054Y-82534054D01*
X191594172Y-82665267D01*
X191411763Y-82762767D01*
X191345787Y-82782780D01*
X191213836Y-82822807D01*
X191136707Y-82830403D01*
X191059580Y-82838000D01*
X190956420Y-82838000D01*
X190879293Y-82830403D01*
X190802164Y-82822807D01*
X190670213Y-82782780D01*
X190604237Y-82762767D01*
X190421828Y-82665267D01*
X190261946Y-82534054D01*
X190130733Y-82374172D01*
X190033233Y-82191763D01*
X190013220Y-82125787D01*
X189973193Y-81993836D01*
X189952920Y-81788000D01*
X189973193Y-81582164D01*
X190033233Y-81384238D01*
X190033233Y-81384237D01*
X190130733Y-81201828D01*
X190261946Y-81041946D01*
X190421828Y-80910733D01*
X190604237Y-80813233D01*
X190670213Y-80793220D01*
X190802164Y-80753193D01*
X190879293Y-80745597D01*
X190956420Y-80738000D01*
X191059580Y-80738000D01*
X191136707Y-80745597D01*
X191136707Y-80745597D01*
G37*
G36*
X193676707Y-80745597D02*
X193753836Y-80753193D01*
X193885787Y-80793220D01*
X193951763Y-80813233D01*
X194134172Y-80910733D01*
X194294054Y-81041946D01*
X194425267Y-81201828D01*
X194522767Y-81384237D01*
X194522767Y-81384238D01*
X194582807Y-81582164D01*
X194603080Y-81788000D01*
X194582807Y-81993836D01*
X194542780Y-82125787D01*
X194522767Y-82191763D01*
X194425267Y-82374172D01*
X194294054Y-82534054D01*
X194134172Y-82665267D01*
X193951763Y-82762767D01*
X193885787Y-82782780D01*
X193753836Y-82822807D01*
X193676707Y-82830403D01*
X193599580Y-82838000D01*
X193496420Y-82838000D01*
X193419293Y-82830403D01*
X193342164Y-82822807D01*
X193210213Y-82782780D01*
X193144237Y-82762767D01*
X192961828Y-82665267D01*
X192801946Y-82534054D01*
X192670733Y-82374172D01*
X192573233Y-82191763D01*
X192553220Y-82125787D01*
X192513193Y-81993836D01*
X192492920Y-81788000D01*
X192513193Y-81582164D01*
X192573233Y-81384238D01*
X192573233Y-81384237D01*
X192670733Y-81201828D01*
X192801946Y-81041946D01*
X192961828Y-80910733D01*
X193144237Y-80813233D01*
X193210213Y-80793220D01*
X193342164Y-80753193D01*
X193419293Y-80745597D01*
X193496420Y-80738000D01*
X193599580Y-80738000D01*
X193676707Y-80745597D01*
X193676707Y-80745597D01*
G37*
G36*
X197138000Y-82838000D02*
X195038000Y-82838000D01*
X195038000Y-80738000D01*
X197138000Y-80738000D01*
X197138000Y-82838000D01*
X197138000Y-82838000D01*
G37*
G36*
X186056707Y-80745597D02*
X186133836Y-80753193D01*
X186265787Y-80793220D01*
X186331763Y-80813233D01*
X186514172Y-80910733D01*
X186674054Y-81041946D01*
X186805267Y-81201828D01*
X186902767Y-81384237D01*
X186902767Y-81384238D01*
X186962807Y-81582164D01*
X186983080Y-81788000D01*
X186962807Y-81993836D01*
X186922780Y-82125787D01*
X186902767Y-82191763D01*
X186805267Y-82374172D01*
X186674054Y-82534054D01*
X186514172Y-82665267D01*
X186331763Y-82762767D01*
X186265787Y-82782780D01*
X186133836Y-82822807D01*
X186056707Y-82830403D01*
X185979580Y-82838000D01*
X185876420Y-82838000D01*
X185799293Y-82830403D01*
X185722164Y-82822807D01*
X185590213Y-82782780D01*
X185524237Y-82762767D01*
X185341828Y-82665267D01*
X185181946Y-82534054D01*
X185050733Y-82374172D01*
X184953233Y-82191763D01*
X184933220Y-82125787D01*
X184893193Y-81993836D01*
X184872920Y-81788000D01*
X184893193Y-81582164D01*
X184953233Y-81384238D01*
X184953233Y-81384237D01*
X185050733Y-81201828D01*
X185181946Y-81041946D01*
X185341828Y-80910733D01*
X185524237Y-80813233D01*
X185590213Y-80793220D01*
X185722164Y-80753193D01*
X185799293Y-80745597D01*
X185876420Y-80738000D01*
X185979580Y-80738000D01*
X186056707Y-80745597D01*
X186056707Y-80745597D01*
G37*
G36*
X183516707Y-80745597D02*
X183593836Y-80753193D01*
X183725787Y-80793220D01*
X183791763Y-80813233D01*
X183974172Y-80910733D01*
X184134054Y-81041946D01*
X184265267Y-81201828D01*
X184362767Y-81384237D01*
X184362767Y-81384238D01*
X184422807Y-81582164D01*
X184443080Y-81788000D01*
X184422807Y-81993836D01*
X184382780Y-82125787D01*
X184362767Y-82191763D01*
X184265267Y-82374172D01*
X184134054Y-82534054D01*
X183974172Y-82665267D01*
X183791763Y-82762767D01*
X183725787Y-82782780D01*
X183593836Y-82822807D01*
X183516707Y-82830403D01*
X183439580Y-82838000D01*
X183336420Y-82838000D01*
X183259293Y-82830403D01*
X183182164Y-82822807D01*
X183050213Y-82782780D01*
X182984237Y-82762767D01*
X182801828Y-82665267D01*
X182641946Y-82534054D01*
X182510733Y-82374172D01*
X182413233Y-82191763D01*
X182393220Y-82125787D01*
X182353193Y-81993836D01*
X182332920Y-81788000D01*
X182353193Y-81582164D01*
X182413233Y-81384238D01*
X182413233Y-81384237D01*
X182510733Y-81201828D01*
X182641946Y-81041946D01*
X182801828Y-80910733D01*
X182984237Y-80813233D01*
X183050213Y-80793220D01*
X183182164Y-80753193D01*
X183259293Y-80745597D01*
X183336420Y-80738000D01*
X183439580Y-80738000D01*
X183516707Y-80745597D01*
X183516707Y-80745597D01*
G37*
G36*
X188596707Y-80745597D02*
X188673836Y-80753193D01*
X188805787Y-80793220D01*
X188871763Y-80813233D01*
X189054172Y-80910733D01*
X189214054Y-81041946D01*
X189345267Y-81201828D01*
X189442767Y-81384237D01*
X189442767Y-81384238D01*
X189502807Y-81582164D01*
X189523080Y-81788000D01*
X189502807Y-81993836D01*
X189462780Y-82125787D01*
X189442767Y-82191763D01*
X189345267Y-82374172D01*
X189214054Y-82534054D01*
X189054172Y-82665267D01*
X188871763Y-82762767D01*
X188805787Y-82782780D01*
X188673836Y-82822807D01*
X188596707Y-82830403D01*
X188519580Y-82838000D01*
X188416420Y-82838000D01*
X188339293Y-82830403D01*
X188262164Y-82822807D01*
X188130213Y-82782780D01*
X188064237Y-82762767D01*
X187881828Y-82665267D01*
X187721946Y-82534054D01*
X187590733Y-82374172D01*
X187493233Y-82191763D01*
X187473220Y-82125787D01*
X187433193Y-81993836D01*
X187412920Y-81788000D01*
X187433193Y-81582164D01*
X187493233Y-81384238D01*
X187493233Y-81384237D01*
X187590733Y-81201828D01*
X187721946Y-81041946D01*
X187881828Y-80910733D01*
X188064237Y-80813233D01*
X188130213Y-80793220D01*
X188262164Y-80753193D01*
X188339293Y-80745597D01*
X188416420Y-80738000D01*
X188519580Y-80738000D01*
X188596707Y-80745597D01*
X188596707Y-80745597D01*
G37*
G36*
X191335000Y-78151796D02*
X191337402Y-78176182D01*
X191344515Y-78199631D01*
X191356063Y-78221235D01*
X191386189Y-78266322D01*
X191461571Y-78448311D01*
X191500000Y-78641509D01*
X191500000Y-78838491D01*
X191461571Y-79031689D01*
X191386189Y-79213678D01*
X191276751Y-79377463D01*
X191137463Y-79516751D01*
X190973678Y-79626189D01*
X190791689Y-79701571D01*
X190675770Y-79724628D01*
X190598493Y-79740000D01*
X190401507Y-79740000D01*
X190324230Y-79724628D01*
X190208311Y-79701571D01*
X190026322Y-79626189D01*
X189862537Y-79516751D01*
X189723249Y-79377463D01*
X189613811Y-79213678D01*
X189538429Y-79031689D01*
X189500000Y-78838491D01*
X189500000Y-78641509D01*
X189538429Y-78448311D01*
X189613811Y-78266322D01*
X189643937Y-78221235D01*
X189655485Y-78199632D01*
X189662598Y-78176183D01*
X189665000Y-78151796D01*
X189665000Y-76508000D01*
X191335000Y-76508000D01*
X191335000Y-78151796D01*
X191335000Y-78151796D01*
G37*
G36*
X187587521Y-76604586D02*
X187751309Y-76672429D01*
X187898720Y-76770926D01*
X188024074Y-76896280D01*
X188122571Y-77043691D01*
X188190414Y-77207479D01*
X188225000Y-77381356D01*
X188225000Y-77558644D01*
X188190414Y-77732521D01*
X188122571Y-77896309D01*
X188024074Y-78043720D01*
X187898720Y-78169074D01*
X187751309Y-78267571D01*
X187587521Y-78335414D01*
X187413644Y-78370000D01*
X187236356Y-78370000D01*
X187062480Y-78335414D01*
X187012025Y-78314515D01*
X186988576Y-78307402D01*
X186964190Y-78305000D01*
X183899200Y-78305000D01*
X183899200Y-76635000D01*
X186964190Y-76635000D01*
X186988576Y-76632598D01*
X187012025Y-76625485D01*
X187062480Y-76604586D01*
X187236356Y-76570000D01*
X187413644Y-76570000D01*
X187587521Y-76604586D01*
X187587521Y-76604586D01*
G37*
G36*
X179881432Y-76583022D02*
X180035033Y-76629617D01*
X180059067Y-76634398D01*
X180071319Y-76635000D01*
X183156200Y-76635000D01*
X183156200Y-78305000D01*
X180071319Y-78305000D01*
X180046933Y-78307402D01*
X180035033Y-78310383D01*
X179881432Y-78356978D01*
X179749211Y-78370000D01*
X179660789Y-78370000D01*
X179528568Y-78356978D01*
X179358919Y-78305515D01*
X179202567Y-78221944D01*
X179065525Y-78109475D01*
X178953056Y-77972433D01*
X178869485Y-77816081D01*
X178818022Y-77646432D01*
X178800646Y-77470000D01*
X178818022Y-77293568D01*
X178869485Y-77123919D01*
X178953056Y-76967567D01*
X179065525Y-76830525D01*
X179202567Y-76718056D01*
X179358919Y-76634485D01*
X179528568Y-76583022D01*
X179660789Y-76570000D01*
X179749211Y-76570000D01*
X179881432Y-76583022D01*
X179881432Y-76583022D01*
G37*
G36*
X125385471Y-77311756D02*
X123956529Y-78136756D01*
X123006529Y-76491308D01*
X124435471Y-75666308D01*
X125385471Y-77311756D01*
X125385471Y-77311756D01*
G37*
G36*
X175254144Y-75159262D02*
X175053060Y-76796963D01*
X173167222Y-76565412D01*
X173368306Y-74927711D01*
X175254144Y-75159262D01*
X175254144Y-75159262D01*
G37*
G36*
X172772778Y-74854588D02*
X172571694Y-76492289D01*
X170685856Y-76260738D01*
X170886940Y-74623037D01*
X172772778Y-74854588D01*
X172772778Y-74854588D01*
G37*
G36*
X124135471Y-75146692D02*
X122706529Y-75971692D01*
X121756529Y-74326244D01*
X123185471Y-73501244D01*
X124135471Y-75146692D01*
X124135471Y-75146692D01*
G37*
G36*
X190675770Y-72755372D02*
X190791689Y-72778429D01*
X190973678Y-72853811D01*
X191137463Y-72963249D01*
X191276751Y-73102537D01*
X191308771Y-73150458D01*
X191324306Y-73169388D01*
X191338999Y-73181446D01*
X191344515Y-73199631D01*
X191356063Y-73221235D01*
X191386189Y-73266322D01*
X191461571Y-73448311D01*
X191500000Y-73641509D01*
X191500000Y-73838491D01*
X191461571Y-74031689D01*
X191386189Y-74213678D01*
X191356063Y-74258765D01*
X191344515Y-74280368D01*
X191337402Y-74303817D01*
X191335000Y-74328204D01*
X191335000Y-75892000D01*
X189665000Y-75892000D01*
X189665000Y-74328204D01*
X189662598Y-74303818D01*
X189655485Y-74280369D01*
X189643937Y-74258765D01*
X189613811Y-74213678D01*
X189538429Y-74031689D01*
X189500000Y-73838491D01*
X189500000Y-73641509D01*
X189538429Y-73448311D01*
X189613811Y-73266322D01*
X189643937Y-73221235D01*
X189655485Y-73199632D01*
X189661002Y-73181445D01*
X189675693Y-73169388D01*
X189691229Y-73150458D01*
X189723249Y-73102537D01*
X189862537Y-72963249D01*
X190026322Y-72853811D01*
X190208311Y-72778429D01*
X190324230Y-72755372D01*
X190401507Y-72740000D01*
X190598493Y-72740000D01*
X190675770Y-72755372D01*
X190675770Y-72755372D01*
G37*
G36*
X180094520Y-73302586D02*
X180144975Y-73323485D01*
X180168424Y-73330598D01*
X180192810Y-73333000D01*
X183257800Y-73333000D01*
X183257800Y-75003000D01*
X180192810Y-75003000D01*
X180168424Y-75005402D01*
X180144975Y-75012515D01*
X180094520Y-75033414D01*
X179920644Y-75068000D01*
X179743356Y-75068000D01*
X179569479Y-75033414D01*
X179405691Y-74965571D01*
X179258280Y-74867074D01*
X179132926Y-74741720D01*
X179034429Y-74594309D01*
X178966586Y-74430521D01*
X178932000Y-74256644D01*
X178932000Y-74079356D01*
X178966586Y-73905479D01*
X179034429Y-73741691D01*
X179132926Y-73594280D01*
X179258280Y-73468926D01*
X179405691Y-73370429D01*
X179569479Y-73302586D01*
X179743356Y-73268000D01*
X179920644Y-73268000D01*
X180094520Y-73302586D01*
X180094520Y-73302586D01*
G37*
G36*
X187628432Y-73281022D02*
X187798081Y-73332485D01*
X187954433Y-73416056D01*
X188091475Y-73528525D01*
X188203944Y-73665567D01*
X188287515Y-73821919D01*
X188338978Y-73991568D01*
X188356354Y-74168000D01*
X188338978Y-74344432D01*
X188287515Y-74514081D01*
X188203944Y-74670433D01*
X188091475Y-74807475D01*
X187954433Y-74919944D01*
X187798081Y-75003515D01*
X187628432Y-75054978D01*
X187496211Y-75068000D01*
X187407789Y-75068000D01*
X187275568Y-75054978D01*
X187121967Y-75008383D01*
X187097933Y-75003602D01*
X187085681Y-75003000D01*
X184000800Y-75003000D01*
X184000800Y-73333000D01*
X187085681Y-73333000D01*
X187110067Y-73330598D01*
X187121967Y-73327617D01*
X187275568Y-73281022D01*
X187407789Y-73268000D01*
X187496211Y-73268000D01*
X187628432Y-73281022D01*
X187628432Y-73281022D01*
G37*
G36*
X214658068Y-69956870D02*
X214907456Y-70015020D01*
X215082256Y-70094220D01*
X216751717Y-71058084D01*
X216907706Y-71169865D01*
X217082759Y-71356765D01*
X217217985Y-71574227D01*
X217308189Y-71813891D01*
X217349902Y-72066548D01*
X217341524Y-72322489D01*
X217283375Y-72571877D01*
X217177690Y-72805129D01*
X217028530Y-73013282D01*
X216848983Y-73181445D01*
X216841627Y-73188335D01*
X216646384Y-73309744D01*
X216624166Y-73323560D01*
X216384502Y-73413764D01*
X216131845Y-73455477D01*
X215875905Y-73447099D01*
X215626517Y-73388950D01*
X215451717Y-73309749D01*
X215451707Y-73309744D01*
X213782262Y-72345889D01*
X213782261Y-72345888D01*
X213782257Y-72345886D01*
X213626267Y-72234105D01*
X213451214Y-72047204D01*
X213315989Y-71829741D01*
X213225785Y-71590078D01*
X213184072Y-71337420D01*
X213192449Y-71081481D01*
X213250599Y-70832093D01*
X213356284Y-70598841D01*
X213505444Y-70390688D01*
X213692345Y-70215635D01*
X213909808Y-70080410D01*
X214149471Y-69990206D01*
X214233690Y-69976302D01*
X214402127Y-69948493D01*
X214402129Y-69948493D01*
X214658068Y-69956870D01*
X214658068Y-69956870D01*
G37*
G36*
X120746026Y-68848974D02*
X119746026Y-70581026D01*
X118013974Y-69581026D01*
X119013974Y-67848974D01*
X120746026Y-68848974D01*
X120746026Y-68848974D01*
G37*
G36*
X130492000Y-69256000D02*
X128842000Y-69256000D01*
X128842000Y-67356000D01*
X130492000Y-67356000D01*
X130492000Y-69256000D01*
X130492000Y-69256000D01*
G37*
G36*
X167162778Y-68205412D02*
X165276940Y-68436963D01*
X165075856Y-66799262D01*
X166961694Y-66567711D01*
X167162778Y-68205412D01*
X167162778Y-68205412D01*
G37*
G36*
X169644144Y-67900738D02*
X167758306Y-68132289D01*
X167557222Y-66494588D01*
X169443060Y-66263037D01*
X169644144Y-67900738D01*
X169644144Y-67900738D01*
G37*
G36*
X186183707Y-65632597D02*
X186260836Y-65640193D01*
X186392787Y-65680220D01*
X186458763Y-65700233D01*
X186641172Y-65797733D01*
X186801054Y-65928946D01*
X186932267Y-66088828D01*
X187029767Y-66271237D01*
X187029767Y-66271238D01*
X187089807Y-66469164D01*
X187110080Y-66675000D01*
X187089807Y-66880836D01*
X187057548Y-66987179D01*
X187029767Y-67078763D01*
X186932267Y-67261172D01*
X186801054Y-67421054D01*
X186641172Y-67552267D01*
X186458763Y-67649767D01*
X186392787Y-67669780D01*
X186260836Y-67709807D01*
X186183707Y-67717404D01*
X186106580Y-67725000D01*
X186003420Y-67725000D01*
X185926293Y-67717404D01*
X185849164Y-67709807D01*
X185717213Y-67669780D01*
X185651237Y-67649767D01*
X185468828Y-67552267D01*
X185308946Y-67421054D01*
X185177733Y-67261172D01*
X185080233Y-67078763D01*
X185052452Y-66987179D01*
X185020193Y-66880836D01*
X184999920Y-66675000D01*
X185020193Y-66469164D01*
X185080233Y-66271238D01*
X185080233Y-66271237D01*
X185177733Y-66088828D01*
X185308946Y-65928946D01*
X185468828Y-65797733D01*
X185651237Y-65700233D01*
X185717213Y-65680220D01*
X185849164Y-65640193D01*
X185926293Y-65632597D01*
X186003420Y-65625000D01*
X186106580Y-65625000D01*
X186183707Y-65632597D01*
X186183707Y-65632597D01*
G37*
G36*
X219970504Y-63555463D02*
X220219892Y-63613612D01*
X220453144Y-63719297D01*
X220661297Y-63868457D01*
X220774460Y-63989281D01*
X220836350Y-64055360D01*
X220892259Y-64145270D01*
X220971575Y-64272821D01*
X221061779Y-64512485D01*
X221103492Y-64765142D01*
X221095114Y-65021082D01*
X221036965Y-65270470D01*
X220958429Y-65443803D01*
X220957759Y-65445280D01*
X220312280Y-66563282D01*
X219993901Y-67114730D01*
X219882120Y-67270720D01*
X219695219Y-67445773D01*
X219477756Y-67580998D01*
X219238093Y-67671202D01*
X219153874Y-67685106D01*
X218985437Y-67712915D01*
X218985435Y-67712915D01*
X218729496Y-67704538D01*
X218480108Y-67646388D01*
X218246856Y-67540703D01*
X218038703Y-67391543D01*
X217863650Y-67204642D01*
X217728425Y-66987179D01*
X217638221Y-66747516D01*
X217608536Y-66567711D01*
X217596508Y-66494860D01*
X217597349Y-66469164D01*
X217604885Y-66238919D01*
X217663035Y-65989531D01*
X217742235Y-65814731D01*
X218706099Y-64145270D01*
X218817880Y-63989281D01*
X219004780Y-63814228D01*
X219222242Y-63679002D01*
X219461906Y-63588798D01*
X219714563Y-63547085D01*
X219970504Y-63555463D01*
X219970504Y-63555463D01*
G37*
G36*
X130492000Y-66756000D02*
X128842000Y-66756000D01*
X128842000Y-64856000D01*
X130492000Y-64856000D01*
X130492000Y-66756000D01*
X130492000Y-66756000D01*
G37*
G36*
X212200060Y-62620073D02*
X212402052Y-62626684D01*
X212610958Y-62675396D01*
X212610959Y-62675397D01*
X212610961Y-62675397D01*
X212806354Y-62763928D01*
X212917326Y-62843450D01*
X212980722Y-62888879D01*
X213127361Y-63045442D01*
X213240641Y-63227613D01*
X213316203Y-63428375D01*
X213351146Y-63640023D01*
X213344128Y-63854420D01*
X213333735Y-63898992D01*
X213295416Y-64063334D01*
X213229070Y-64209763D01*
X212703766Y-65119615D01*
X212178889Y-66028730D01*
X212159573Y-66062185D01*
X212065935Y-66192857D01*
X212039551Y-66217568D01*
X211909367Y-66339500D01*
X211727204Y-66452775D01*
X211526437Y-66528339D01*
X211314790Y-66563282D01*
X211100393Y-66556264D01*
X211041574Y-66542549D01*
X210891479Y-66507552D01*
X210696086Y-66419020D01*
X210521719Y-66294071D01*
X210430597Y-66196781D01*
X210375076Y-66137503D01*
X210261801Y-65955340D01*
X210186237Y-65754573D01*
X210151294Y-65542926D01*
X210158312Y-65328529D01*
X210180784Y-65232154D01*
X210207024Y-65119615D01*
X210273370Y-64973186D01*
X211342866Y-63120763D01*
X211436504Y-62990091D01*
X211593070Y-62843450D01*
X211593072Y-62843448D01*
X211775235Y-62730173D01*
X211976002Y-62654610D01*
X212187649Y-62619667D01*
X212187651Y-62619667D01*
X212200060Y-62620073D01*
X212200060Y-62620073D01*
G37*
G36*
X209261791Y-62309303D02*
X209463783Y-62315914D01*
X209672689Y-62364626D01*
X209672690Y-62364627D01*
X209672692Y-62364627D01*
X209827625Y-62434826D01*
X209864541Y-62451552D01*
X209868085Y-62453158D01*
X209979057Y-62532680D01*
X210042453Y-62578109D01*
X210189092Y-62734672D01*
X210302372Y-62916843D01*
X210377934Y-63117605D01*
X210412877Y-63329253D01*
X210405859Y-63543650D01*
X210392390Y-63601416D01*
X210357147Y-63752564D01*
X210290801Y-63898993D01*
X209765497Y-64808845D01*
X209341677Y-65542924D01*
X209221304Y-65751415D01*
X209127666Y-65882087D01*
X209077635Y-65928946D01*
X208971098Y-66028730D01*
X208788935Y-66142005D01*
X208588168Y-66217569D01*
X208376521Y-66252512D01*
X208162124Y-66245494D01*
X208103305Y-66231779D01*
X207953210Y-66196782D01*
X207757817Y-66108250D01*
X207583450Y-65983301D01*
X207517329Y-65912704D01*
X207436807Y-65826733D01*
X207323532Y-65644570D01*
X207247968Y-65443803D01*
X207213025Y-65232156D01*
X207220043Y-65017759D01*
X207257760Y-64856000D01*
X207268755Y-64808845D01*
X207335101Y-64662416D01*
X208404597Y-62809993D01*
X208498235Y-62679321D01*
X208654801Y-62532680D01*
X208654803Y-62532678D01*
X208836966Y-62419403D01*
X209037733Y-62343840D01*
X209249380Y-62308897D01*
X209249382Y-62308897D01*
X209261791Y-62309303D01*
X209261791Y-62309303D01*
G37*
G36*
X187105000Y-65185000D02*
X185005000Y-65185000D01*
X185005000Y-63085000D01*
X187105000Y-63085000D01*
X187105000Y-65185000D01*
X187105000Y-65185000D01*
G37*
G36*
X138823396Y-62060877D02*
X138096298Y-63816249D01*
X136571896Y-63184821D01*
X137298994Y-61429449D01*
X138823396Y-62060877D01*
X138823396Y-62060877D01*
G37*
G36*
X123386030Y-61630355D02*
X123386033Y-61630356D01*
X123386034Y-61630356D01*
X123574535Y-61687537D01*
X123574537Y-61687538D01*
X123748260Y-61780395D01*
X123900528Y-61905358D01*
X124025491Y-62057626D01*
X124025492Y-62057628D01*
X124118349Y-62231351D01*
X124160911Y-62371659D01*
X124175531Y-62419856D01*
X124194838Y-62615886D01*
X124175531Y-62811916D01*
X124175530Y-62811919D01*
X124175530Y-62811920D01*
X124121483Y-62990091D01*
X124118348Y-63000423D01*
X124025491Y-63174146D01*
X123900528Y-63326414D01*
X123748260Y-63451377D01*
X123575624Y-63543653D01*
X123574535Y-63544235D01*
X123386034Y-63601416D01*
X123386033Y-63601416D01*
X123386030Y-63601417D01*
X123239124Y-63615886D01*
X123140876Y-63615886D01*
X122993970Y-63601417D01*
X122993967Y-63601416D01*
X122993966Y-63601416D01*
X122805465Y-63544235D01*
X122804376Y-63543653D01*
X122631740Y-63451377D01*
X122479472Y-63326414D01*
X122354509Y-63174146D01*
X122261652Y-63000423D01*
X122258518Y-62990091D01*
X122204470Y-62811920D01*
X122204470Y-62811919D01*
X122204469Y-62811916D01*
X122185162Y-62615886D01*
X122204469Y-62419856D01*
X122219089Y-62371659D01*
X122261651Y-62231351D01*
X122354508Y-62057628D01*
X122354509Y-62057626D01*
X122479472Y-61905358D01*
X122631740Y-61780395D01*
X122805463Y-61687538D01*
X122805465Y-61687537D01*
X122993966Y-61630356D01*
X122993967Y-61630356D01*
X122993970Y-61630355D01*
X123140876Y-61615886D01*
X123239124Y-61615886D01*
X123386030Y-61630355D01*
X123386030Y-61630355D01*
G37*
G36*
X117471787Y-59415446D02*
X117564522Y-59433892D01*
X117739231Y-59506259D01*
X117861469Y-59587936D01*
X117896467Y-59611321D01*
X118030179Y-59745033D01*
X118030181Y-59745036D01*
X118135241Y-59902269D01*
X118207608Y-60076978D01*
X118244500Y-60262448D01*
X118244500Y-60451552D01*
X118207608Y-60637022D01*
X118135241Y-60811731D01*
X118092884Y-60875123D01*
X118030179Y-60968967D01*
X117896467Y-61102679D01*
X117896464Y-61102681D01*
X117739231Y-61207741D01*
X117739230Y-61207742D01*
X117739229Y-61207742D01*
X117657694Y-61241515D01*
X117636083Y-61253066D01*
X117617141Y-61268612D01*
X117601595Y-61287554D01*
X117590044Y-61309165D01*
X117582931Y-61332614D01*
X117580529Y-61357000D01*
X117582931Y-61381386D01*
X117590044Y-61404835D01*
X117601595Y-61426446D01*
X117617141Y-61445388D01*
X117636083Y-61460934D01*
X117657694Y-61472485D01*
X117739231Y-61506259D01*
X117840726Y-61574076D01*
X117896467Y-61611321D01*
X118030179Y-61745033D01*
X118030181Y-61745036D01*
X118135241Y-61902269D01*
X118200939Y-62060877D01*
X118207608Y-62076979D01*
X118238315Y-62231351D01*
X118244500Y-62262448D01*
X118244500Y-62451552D01*
X118207608Y-62637022D01*
X118135241Y-62811731D01*
X118114048Y-62843448D01*
X118030179Y-62968967D01*
X117896467Y-63102679D01*
X117896464Y-63102681D01*
X117739231Y-63207741D01*
X117564522Y-63280108D01*
X117471787Y-63298554D01*
X117379053Y-63317000D01*
X117189947Y-63317000D01*
X117097213Y-63298554D01*
X117004478Y-63280108D01*
X116829769Y-63207741D01*
X116672536Y-63102681D01*
X116672533Y-63102679D01*
X116538821Y-62968967D01*
X116454952Y-62843448D01*
X116433759Y-62811731D01*
X116361392Y-62637022D01*
X116324500Y-62451552D01*
X116324500Y-62262448D01*
X116330686Y-62231351D01*
X116361392Y-62076979D01*
X116368062Y-62060877D01*
X116433759Y-61902269D01*
X116538819Y-61745036D01*
X116538821Y-61745033D01*
X116672533Y-61611321D01*
X116728274Y-61574076D01*
X116829769Y-61506259D01*
X116911306Y-61472485D01*
X116932917Y-61460934D01*
X116951859Y-61445388D01*
X116967405Y-61426446D01*
X116978956Y-61404835D01*
X116986069Y-61381386D01*
X116988471Y-61357000D01*
X116986069Y-61332614D01*
X116978956Y-61309165D01*
X116967405Y-61287554D01*
X116951859Y-61268612D01*
X116932917Y-61253066D01*
X116911306Y-61241515D01*
X116829771Y-61207742D01*
X116829770Y-61207742D01*
X116829769Y-61207741D01*
X116672536Y-61102681D01*
X116672533Y-61102679D01*
X116538821Y-60968967D01*
X116476116Y-60875123D01*
X116433759Y-60811731D01*
X116361392Y-60637022D01*
X116324500Y-60451552D01*
X116324500Y-60262448D01*
X116361392Y-60076978D01*
X116433759Y-59902269D01*
X116538819Y-59745036D01*
X116538821Y-59745033D01*
X116672533Y-59611321D01*
X116707531Y-59587936D01*
X116829769Y-59506259D01*
X117004478Y-59433892D01*
X117097213Y-59415446D01*
X117189947Y-59397000D01*
X117379053Y-59397000D01*
X117471787Y-59415446D01*
X117471787Y-59415446D01*
G37*
G36*
X120011787Y-59415446D02*
X120104522Y-59433892D01*
X120279231Y-59506259D01*
X120401469Y-59587936D01*
X120436467Y-59611321D01*
X120570179Y-59745033D01*
X120570181Y-59745036D01*
X120675241Y-59902269D01*
X120747608Y-60076978D01*
X120784500Y-60262448D01*
X120784500Y-60451552D01*
X120747608Y-60637022D01*
X120675241Y-60811731D01*
X120632884Y-60875123D01*
X120570179Y-60968967D01*
X120436467Y-61102679D01*
X120436464Y-61102681D01*
X120279231Y-61207741D01*
X120279230Y-61207742D01*
X120279229Y-61207742D01*
X120197694Y-61241515D01*
X120176083Y-61253066D01*
X120157141Y-61268612D01*
X120141595Y-61287554D01*
X120130044Y-61309165D01*
X120122931Y-61332614D01*
X120120529Y-61357000D01*
X120122931Y-61381386D01*
X120130044Y-61404835D01*
X120141595Y-61426446D01*
X120157141Y-61445388D01*
X120176083Y-61460934D01*
X120197694Y-61472485D01*
X120279231Y-61506259D01*
X120380726Y-61574076D01*
X120436467Y-61611321D01*
X120570179Y-61745033D01*
X120570181Y-61745036D01*
X120675241Y-61902269D01*
X120740939Y-62060877D01*
X120747608Y-62076979D01*
X120778315Y-62231351D01*
X120784500Y-62262448D01*
X120784500Y-62451552D01*
X120747608Y-62637022D01*
X120675241Y-62811731D01*
X120654048Y-62843448D01*
X120570179Y-62968967D01*
X120436467Y-63102679D01*
X120436464Y-63102681D01*
X120279231Y-63207741D01*
X120104522Y-63280108D01*
X120011787Y-63298554D01*
X119919053Y-63317000D01*
X119729947Y-63317000D01*
X119637213Y-63298554D01*
X119544478Y-63280108D01*
X119369769Y-63207741D01*
X119212536Y-63102681D01*
X119212533Y-63102679D01*
X119078821Y-62968967D01*
X118994952Y-62843448D01*
X118973759Y-62811731D01*
X118901392Y-62637022D01*
X118864500Y-62451552D01*
X118864500Y-62262448D01*
X118870686Y-62231351D01*
X118901392Y-62076979D01*
X118908062Y-62060877D01*
X118973759Y-61902269D01*
X119078819Y-61745036D01*
X119078821Y-61745033D01*
X119212533Y-61611321D01*
X119268274Y-61574076D01*
X119369769Y-61506259D01*
X119451306Y-61472485D01*
X119472917Y-61460934D01*
X119491859Y-61445388D01*
X119507405Y-61426446D01*
X119518956Y-61404835D01*
X119526069Y-61381386D01*
X119528471Y-61357000D01*
X119526069Y-61332614D01*
X119518956Y-61309165D01*
X119507405Y-61287554D01*
X119491859Y-61268612D01*
X119472917Y-61253066D01*
X119451306Y-61241515D01*
X119369771Y-61207742D01*
X119369770Y-61207742D01*
X119369769Y-61207741D01*
X119212536Y-61102681D01*
X119212533Y-61102679D01*
X119078821Y-60968967D01*
X119016116Y-60875123D01*
X118973759Y-60811731D01*
X118901392Y-60637022D01*
X118864500Y-60451552D01*
X118864500Y-60262448D01*
X118901392Y-60076978D01*
X118973759Y-59902269D01*
X119078819Y-59745036D01*
X119078821Y-59745033D01*
X119212533Y-59611321D01*
X119247531Y-59587936D01*
X119369769Y-59506259D01*
X119544478Y-59433892D01*
X119637213Y-59415446D01*
X119729947Y-59397000D01*
X119919053Y-59397000D01*
X120011787Y-59415446D01*
X120011787Y-59415446D01*
G37*
G36*
X158558551Y-62467006D02*
X156803179Y-63194104D01*
X156171751Y-61669702D01*
X157927123Y-60942604D01*
X158558551Y-62467006D01*
X158558551Y-62467006D01*
G37*
G36*
X143284162Y-62371659D02*
X141673273Y-62728784D01*
X141262038Y-60873821D01*
X142872927Y-60516696D01*
X143284162Y-62371659D01*
X143284162Y-62371659D01*
G37*
G36*
X160868249Y-61510298D02*
X159112877Y-62237396D01*
X158481449Y-60712994D01*
X160236821Y-59985896D01*
X160868249Y-61510298D01*
X160868249Y-61510298D01*
G37*
G36*
X202345000Y-62010000D02*
X200245000Y-62010000D01*
X200245000Y-59910000D01*
X202345000Y-59910000D01*
X202345000Y-62010000D01*
X202345000Y-62010000D01*
G37*
G36*
X216707364Y-58207386D02*
X216956752Y-58265536D01*
X217131552Y-58344736D01*
X218801013Y-59308600D01*
X218957002Y-59420381D01*
X219132055Y-59607281D01*
X219267281Y-59824743D01*
X219357485Y-60064407D01*
X219399198Y-60317064D01*
X219390820Y-60573005D01*
X219332671Y-60822393D01*
X219226986Y-61055645D01*
X219077826Y-61263798D01*
X218904168Y-61426446D01*
X218890923Y-61438851D01*
X218776026Y-61510298D01*
X218673462Y-61574076D01*
X218433798Y-61664280D01*
X218181141Y-61705993D01*
X217925201Y-61697615D01*
X217675813Y-61639466D01*
X217501013Y-61560265D01*
X217501003Y-61560260D01*
X215831558Y-60596405D01*
X215831557Y-60596404D01*
X215831553Y-60596402D01*
X215675563Y-60484621D01*
X215500510Y-60297720D01*
X215365285Y-60080257D01*
X215275081Y-59840594D01*
X215250218Y-59690000D01*
X215233368Y-59587938D01*
X215233368Y-59587936D01*
X215241745Y-59331997D01*
X215299895Y-59082609D01*
X215405580Y-58849357D01*
X215554740Y-58641204D01*
X215741641Y-58466151D01*
X215959104Y-58330926D01*
X216198767Y-58240722D01*
X216282986Y-58226818D01*
X216451423Y-58199009D01*
X216451425Y-58199009D01*
X216707364Y-58207386D01*
X216707364Y-58207386D01*
G37*
G36*
X139780104Y-59751179D02*
X139053006Y-61506551D01*
X137528604Y-60875123D01*
X138255702Y-59119751D01*
X139780104Y-59751179D01*
X139780104Y-59751179D01*
G37*
G36*
X186183707Y-58647597D02*
X186260836Y-58655193D01*
X186392787Y-58695220D01*
X186458763Y-58715233D01*
X186641172Y-58812733D01*
X186801054Y-58943946D01*
X186932267Y-59103828D01*
X187029767Y-59286237D01*
X187043648Y-59331997D01*
X187089807Y-59484164D01*
X187110080Y-59690000D01*
X187089807Y-59895836D01*
X187049780Y-60027787D01*
X187029767Y-60093763D01*
X186932267Y-60276172D01*
X186801054Y-60436054D01*
X186641172Y-60567267D01*
X186458763Y-60664767D01*
X186392787Y-60684780D01*
X186260836Y-60724807D01*
X186183707Y-60732403D01*
X186106580Y-60740000D01*
X186003420Y-60740000D01*
X185926293Y-60732403D01*
X185849164Y-60724807D01*
X185717213Y-60684780D01*
X185651237Y-60664767D01*
X185468828Y-60567267D01*
X185308946Y-60436054D01*
X185177733Y-60276172D01*
X185080233Y-60093763D01*
X185060220Y-60027787D01*
X185020193Y-59895836D01*
X184999920Y-59690000D01*
X185020193Y-59484164D01*
X185066352Y-59331997D01*
X185080233Y-59286237D01*
X185177733Y-59103828D01*
X185308946Y-58943946D01*
X185468828Y-58812733D01*
X185651237Y-58715233D01*
X185717213Y-58695220D01*
X185849164Y-58655193D01*
X185926293Y-58647597D01*
X186003420Y-58640000D01*
X186106580Y-58640000D01*
X186183707Y-58647597D01*
X186183707Y-58647597D01*
G37*
G36*
X178715603Y-58764968D02*
X178715606Y-58764969D01*
X178715605Y-58764969D01*
X178890678Y-58837486D01*
X178890679Y-58837487D01*
X179048241Y-58942767D01*
X179182233Y-59076759D01*
X179210959Y-59119751D01*
X179287514Y-59234322D01*
X179327972Y-59331997D01*
X179360032Y-59409397D01*
X179397000Y-59595250D01*
X179397000Y-59784750D01*
X179360032Y-59970603D01*
X179360031Y-59970605D01*
X179287514Y-60145678D01*
X179287513Y-60145679D01*
X179182233Y-60303241D01*
X179048241Y-60437233D01*
X178997994Y-60470807D01*
X178890678Y-60542514D01*
X178755266Y-60598603D01*
X178715603Y-60615032D01*
X178529750Y-60652000D01*
X178340250Y-60652000D01*
X178154397Y-60615032D01*
X178114734Y-60598603D01*
X177979322Y-60542514D01*
X177872006Y-60470807D01*
X177821759Y-60437233D01*
X177687767Y-60303241D01*
X177582487Y-60145679D01*
X177582486Y-60145678D01*
X177509969Y-59970605D01*
X177509968Y-59970603D01*
X177473000Y-59784750D01*
X177473000Y-59595250D01*
X177509968Y-59409397D01*
X177542028Y-59331997D01*
X177582486Y-59234322D01*
X177659041Y-59119751D01*
X177687767Y-59076759D01*
X177821759Y-58942767D01*
X177979321Y-58837487D01*
X177979322Y-58837486D01*
X178154395Y-58764969D01*
X178154394Y-58764969D01*
X178154397Y-58764968D01*
X178340250Y-58728000D01*
X178529750Y-58728000D01*
X178715603Y-58764968D01*
X178715603Y-58764968D01*
G37*
G36*
X181255603Y-58764968D02*
X181255606Y-58764969D01*
X181255605Y-58764969D01*
X181430678Y-58837486D01*
X181430679Y-58837487D01*
X181588241Y-58942767D01*
X181722233Y-59076759D01*
X181750959Y-59119751D01*
X181827514Y-59234322D01*
X181867972Y-59331997D01*
X181900032Y-59409397D01*
X181937000Y-59595250D01*
X181937000Y-59784750D01*
X181900032Y-59970603D01*
X181900031Y-59970605D01*
X181827514Y-60145678D01*
X181827513Y-60145679D01*
X181722233Y-60303241D01*
X181588241Y-60437233D01*
X181537994Y-60470807D01*
X181430678Y-60542514D01*
X181295266Y-60598603D01*
X181255603Y-60615032D01*
X181069750Y-60652000D01*
X180880250Y-60652000D01*
X180694397Y-60615032D01*
X180654734Y-60598603D01*
X180519322Y-60542514D01*
X180412006Y-60470807D01*
X180361759Y-60437233D01*
X180227767Y-60303241D01*
X180122487Y-60145679D01*
X180122486Y-60145678D01*
X180049969Y-59970605D01*
X180049968Y-59970603D01*
X180013000Y-59784750D01*
X180013000Y-59595250D01*
X180049968Y-59409397D01*
X180082028Y-59331997D01*
X180122486Y-59234322D01*
X180199041Y-59119751D01*
X180227767Y-59076759D01*
X180361759Y-58942767D01*
X180519321Y-58837487D01*
X180519322Y-58837486D01*
X180694395Y-58764969D01*
X180694394Y-58764969D01*
X180694397Y-58764968D01*
X180880250Y-58728000D01*
X181069750Y-58728000D01*
X181255603Y-58764968D01*
X181255603Y-58764968D01*
G37*
G36*
X176175603Y-58764968D02*
X176175606Y-58764969D01*
X176175605Y-58764969D01*
X176350678Y-58837486D01*
X176350679Y-58837487D01*
X176508241Y-58942767D01*
X176642233Y-59076759D01*
X176670959Y-59119751D01*
X176747514Y-59234322D01*
X176787972Y-59331997D01*
X176820032Y-59409397D01*
X176857000Y-59595250D01*
X176857000Y-59784750D01*
X176820032Y-59970603D01*
X176820031Y-59970605D01*
X176747514Y-60145678D01*
X176747513Y-60145679D01*
X176642233Y-60303241D01*
X176508241Y-60437233D01*
X176457994Y-60470807D01*
X176350678Y-60542514D01*
X176215266Y-60598603D01*
X176175603Y-60615032D01*
X175989750Y-60652000D01*
X175800250Y-60652000D01*
X175614397Y-60615032D01*
X175574734Y-60598603D01*
X175439322Y-60542514D01*
X175332006Y-60470807D01*
X175281759Y-60437233D01*
X175147767Y-60303241D01*
X175042487Y-60145679D01*
X175042486Y-60145678D01*
X174969969Y-59970605D01*
X174969968Y-59970603D01*
X174933000Y-59784750D01*
X174933000Y-59595250D01*
X174969968Y-59409397D01*
X175002028Y-59331997D01*
X175042486Y-59234322D01*
X175119041Y-59119751D01*
X175147767Y-59076759D01*
X175281759Y-58942767D01*
X175439321Y-58837487D01*
X175439322Y-58837486D01*
X175614395Y-58764969D01*
X175614394Y-58764969D01*
X175614397Y-58764968D01*
X175800250Y-58728000D01*
X175989750Y-58728000D01*
X176175603Y-58764968D01*
X176175603Y-58764968D01*
G37*
G36*
X147321707Y-58393596D02*
X147398836Y-58401193D01*
X147503957Y-58433081D01*
X147596763Y-58461233D01*
X147779172Y-58558733D01*
X147939054Y-58689946D01*
X148070267Y-58849828D01*
X148167767Y-59032237D01*
X148167767Y-59032238D01*
X148227807Y-59230164D01*
X148248080Y-59436000D01*
X148227807Y-59641836D01*
X148196503Y-59745033D01*
X148167767Y-59839763D01*
X148070267Y-60022172D01*
X147939054Y-60182054D01*
X147779172Y-60313267D01*
X147596763Y-60410767D01*
X147530787Y-60430780D01*
X147398836Y-60470807D01*
X147321707Y-60478403D01*
X147244580Y-60486000D01*
X147141420Y-60486000D01*
X147064293Y-60478403D01*
X146987164Y-60470807D01*
X146855213Y-60430780D01*
X146789237Y-60410767D01*
X146606828Y-60313267D01*
X146446946Y-60182054D01*
X146315733Y-60022172D01*
X146218233Y-59839763D01*
X146189497Y-59745033D01*
X146158193Y-59641836D01*
X146137920Y-59436000D01*
X146158193Y-59230164D01*
X146218233Y-59032238D01*
X146218233Y-59032237D01*
X146315733Y-58849828D01*
X146446946Y-58689946D01*
X146606828Y-58558733D01*
X146789237Y-58461233D01*
X146882043Y-58433081D01*
X146987164Y-58401193D01*
X147064293Y-58393596D01*
X147141420Y-58386000D01*
X147244580Y-58386000D01*
X147321707Y-58393596D01*
X147321707Y-58393596D01*
G37*
G36*
X149861707Y-58393596D02*
X149938836Y-58401193D01*
X150043957Y-58433081D01*
X150136763Y-58461233D01*
X150319172Y-58558733D01*
X150479054Y-58689946D01*
X150610267Y-58849828D01*
X150707767Y-59032237D01*
X150707767Y-59032238D01*
X150767807Y-59230164D01*
X150788080Y-59436000D01*
X150767807Y-59641836D01*
X150736503Y-59745033D01*
X150707767Y-59839763D01*
X150610267Y-60022172D01*
X150479054Y-60182054D01*
X150319172Y-60313267D01*
X150136763Y-60410767D01*
X150070787Y-60430780D01*
X149938836Y-60470807D01*
X149861707Y-60478403D01*
X149784580Y-60486000D01*
X149681420Y-60486000D01*
X149604293Y-60478403D01*
X149527164Y-60470807D01*
X149395213Y-60430780D01*
X149329237Y-60410767D01*
X149146828Y-60313267D01*
X148986946Y-60182054D01*
X148855733Y-60022172D01*
X148758233Y-59839763D01*
X148729497Y-59745033D01*
X148698193Y-59641836D01*
X148677920Y-59436000D01*
X148698193Y-59230164D01*
X148758233Y-59032238D01*
X148758233Y-59032237D01*
X148855733Y-58849828D01*
X148986946Y-58689946D01*
X149146828Y-58558733D01*
X149329237Y-58461233D01*
X149422043Y-58433081D01*
X149527164Y-58401193D01*
X149604293Y-58393596D01*
X149681420Y-58386000D01*
X149784580Y-58386000D01*
X149861707Y-58393596D01*
X149861707Y-58393596D01*
G37*
G36*
X153323000Y-60486000D02*
X151223000Y-60486000D01*
X151223000Y-58386000D01*
X153323000Y-58386000D01*
X153323000Y-60486000D01*
X153323000Y-60486000D01*
G37*
G36*
X144781707Y-58393596D02*
X144858836Y-58401193D01*
X144963957Y-58433081D01*
X145056763Y-58461233D01*
X145239172Y-58558733D01*
X145399054Y-58689946D01*
X145530267Y-58849828D01*
X145627767Y-59032237D01*
X145627767Y-59032238D01*
X145687807Y-59230164D01*
X145708080Y-59436000D01*
X145687807Y-59641836D01*
X145656503Y-59745033D01*
X145627767Y-59839763D01*
X145530267Y-60022172D01*
X145399054Y-60182054D01*
X145239172Y-60313267D01*
X145056763Y-60410767D01*
X144990787Y-60430780D01*
X144858836Y-60470807D01*
X144781707Y-60478403D01*
X144704580Y-60486000D01*
X144601420Y-60486000D01*
X144524293Y-60478403D01*
X144447164Y-60470807D01*
X144315213Y-60430780D01*
X144249237Y-60410767D01*
X144066828Y-60313267D01*
X143906946Y-60182054D01*
X143775733Y-60022172D01*
X143678233Y-59839763D01*
X143649497Y-59745033D01*
X143618193Y-59641836D01*
X143597920Y-59436000D01*
X143618193Y-59230164D01*
X143678233Y-59032238D01*
X143678233Y-59032237D01*
X143775733Y-58849828D01*
X143906946Y-58689946D01*
X144066828Y-58558733D01*
X144249237Y-58461233D01*
X144342043Y-58433081D01*
X144447164Y-58401193D01*
X144524293Y-58393596D01*
X144601420Y-58386000D01*
X144704580Y-58386000D01*
X144781707Y-58393596D01*
X144781707Y-58393596D01*
G37*
G36*
X142743062Y-59930919D02*
X141132173Y-60288044D01*
X140720938Y-58433081D01*
X142331827Y-58075956D01*
X142743062Y-59930919D01*
X142743062Y-59930919D01*
G37*
G36*
X201423707Y-57377596D02*
X201500836Y-57385193D01*
X201632745Y-57425207D01*
X201698763Y-57445233D01*
X201881172Y-57542733D01*
X202041054Y-57673946D01*
X202172267Y-57833828D01*
X202269767Y-58016237D01*
X202269767Y-58016238D01*
X202329807Y-58214164D01*
X202350080Y-58420000D01*
X202329807Y-58625836D01*
X202302689Y-58715233D01*
X202269767Y-58823763D01*
X202172267Y-59006172D01*
X202041054Y-59166054D01*
X201881172Y-59297267D01*
X201698763Y-59394767D01*
X201650540Y-59409395D01*
X201500836Y-59454807D01*
X201423707Y-59462403D01*
X201346580Y-59470000D01*
X201243420Y-59470000D01*
X201166293Y-59462403D01*
X201089164Y-59454807D01*
X200939460Y-59409395D01*
X200891237Y-59394767D01*
X200708828Y-59297267D01*
X200548946Y-59166054D01*
X200417733Y-59006172D01*
X200320233Y-58823763D01*
X200287311Y-58715233D01*
X200260193Y-58625836D01*
X200239920Y-58420000D01*
X200260193Y-58214164D01*
X200320233Y-58016238D01*
X200320233Y-58016237D01*
X200417733Y-57833828D01*
X200548946Y-57673946D01*
X200708828Y-57542733D01*
X200891237Y-57445233D01*
X200957255Y-57425207D01*
X201089164Y-57385193D01*
X201166293Y-57377596D01*
X201243420Y-57370000D01*
X201346580Y-57370000D01*
X201423707Y-57377596D01*
X201423707Y-57377596D01*
G37*
G36*
X112806981Y-56126855D02*
X113006618Y-56166565D01*
X113194673Y-56244460D01*
X113288701Y-56283408D01*
X113542571Y-56453038D01*
X113758462Y-56668929D01*
X113928092Y-56922799D01*
X113941003Y-56953970D01*
X114044935Y-57204882D01*
X114104500Y-57504338D01*
X114104500Y-57809662D01*
X114044935Y-58109118D01*
X114004230Y-58207387D01*
X113928092Y-58391201D01*
X113758462Y-58645071D01*
X113542571Y-58860962D01*
X113288701Y-59030592D01*
X113194673Y-59069540D01*
X113006618Y-59147435D01*
X112806981Y-59187145D01*
X112707163Y-59207000D01*
X112401837Y-59207000D01*
X112302019Y-59187145D01*
X112102382Y-59147435D01*
X111914327Y-59069540D01*
X111820299Y-59030592D01*
X111566429Y-58860962D01*
X111350538Y-58645071D01*
X111180908Y-58391201D01*
X111104770Y-58207387D01*
X111064065Y-58109118D01*
X111004500Y-57809662D01*
X111004500Y-57504338D01*
X111064065Y-57204882D01*
X111167997Y-56953970D01*
X111180908Y-56922799D01*
X111350538Y-56668929D01*
X111566429Y-56453038D01*
X111820299Y-56283408D01*
X111914327Y-56244460D01*
X112102382Y-56166565D01*
X112302019Y-56126855D01*
X112401837Y-56107000D01*
X112707163Y-56107000D01*
X112806981Y-56126855D01*
X112806981Y-56126855D01*
G37*
G36*
X124806981Y-56126855D02*
X125006618Y-56166565D01*
X125194673Y-56244460D01*
X125288701Y-56283408D01*
X125542571Y-56453038D01*
X125758462Y-56668929D01*
X125928092Y-56922799D01*
X125941003Y-56953970D01*
X126044935Y-57204882D01*
X126104500Y-57504338D01*
X126104500Y-57809662D01*
X126044935Y-58109118D01*
X126004230Y-58207387D01*
X125928092Y-58391201D01*
X125758462Y-58645071D01*
X125542571Y-58860962D01*
X125288701Y-59030592D01*
X125194673Y-59069540D01*
X125006618Y-59147435D01*
X124806981Y-59187145D01*
X124707163Y-59207000D01*
X124401837Y-59207000D01*
X124302019Y-59187145D01*
X124102382Y-59147435D01*
X123914327Y-59069540D01*
X123820299Y-59030592D01*
X123566429Y-58860962D01*
X123350538Y-58645071D01*
X123180908Y-58391201D01*
X123104770Y-58207387D01*
X123064065Y-58109118D01*
X123004500Y-57809662D01*
X123004500Y-57504338D01*
X123064065Y-57204882D01*
X123167997Y-56953970D01*
X123180908Y-56922799D01*
X123350538Y-56668929D01*
X123566429Y-56453038D01*
X123820299Y-56283408D01*
X123914327Y-56244460D01*
X124102382Y-56166565D01*
X124302019Y-56126855D01*
X124401837Y-56107000D01*
X124707163Y-56107000D01*
X124806981Y-56126855D01*
X124806981Y-56126855D01*
G37*
G36*
X187105000Y-58200000D02*
X185005000Y-58200000D01*
X185005000Y-56100000D01*
X187105000Y-56100000D01*
X187105000Y-58200000D01*
X187105000Y-58200000D01*
G37*
G36*
X172281030Y-56164469D02*
X172281033Y-56164470D01*
X172281034Y-56164470D01*
X172469535Y-56221651D01*
X172469537Y-56221652D01*
X172643260Y-56314509D01*
X172795528Y-56439472D01*
X172920491Y-56591740D01*
X172920492Y-56591742D01*
X173013349Y-56765465D01*
X173061076Y-56922800D01*
X173070531Y-56953970D01*
X173089838Y-57150000D01*
X173070531Y-57346030D01*
X173070530Y-57346033D01*
X173070530Y-57346034D01*
X173044876Y-57430605D01*
X173013348Y-57534537D01*
X172920491Y-57708260D01*
X172795528Y-57860528D01*
X172643260Y-57985491D01*
X172643258Y-57985492D01*
X172469535Y-58078349D01*
X172281034Y-58135530D01*
X172281033Y-58135530D01*
X172281030Y-58135531D01*
X172134124Y-58150000D01*
X172035876Y-58150000D01*
X171888970Y-58135531D01*
X171888967Y-58135530D01*
X171888966Y-58135530D01*
X171700465Y-58078349D01*
X171526742Y-57985492D01*
X171526740Y-57985491D01*
X171374472Y-57860528D01*
X171249509Y-57708260D01*
X171156652Y-57534537D01*
X171125125Y-57430605D01*
X171099470Y-57346034D01*
X171099470Y-57346033D01*
X171099469Y-57346030D01*
X171080162Y-57150000D01*
X171099469Y-56953970D01*
X171108924Y-56922800D01*
X171156651Y-56765465D01*
X171249508Y-56591742D01*
X171249509Y-56591740D01*
X171374472Y-56439472D01*
X171526740Y-56314509D01*
X171700463Y-56221652D01*
X171700465Y-56221651D01*
X171888966Y-56164470D01*
X171888967Y-56164470D01*
X171888970Y-56164469D01*
X172035876Y-56150000D01*
X172134124Y-56150000D01*
X172281030Y-56164469D01*
X172281030Y-56164469D01*
G37*
G36*
X165465000Y-58150000D02*
X163465000Y-58150000D01*
X163465000Y-56150000D01*
X165465000Y-56150000D01*
X165465000Y-58150000D01*
X165465000Y-58150000D01*
G37*
G36*
X178715603Y-56224968D02*
X178715606Y-56224969D01*
X178715605Y-56224969D01*
X178890678Y-56297486D01*
X178890679Y-56297487D01*
X179048241Y-56402767D01*
X179182233Y-56536759D01*
X179182234Y-56536761D01*
X179287514Y-56694322D01*
X179316981Y-56765463D01*
X179360032Y-56869397D01*
X179397000Y-57055250D01*
X179397000Y-57244750D01*
X179360032Y-57430603D01*
X179360031Y-57430605D01*
X179287514Y-57605678D01*
X179287513Y-57605679D01*
X179182233Y-57763241D01*
X179048241Y-57897233D01*
X178968923Y-57950232D01*
X178890678Y-58002514D01*
X178755266Y-58058603D01*
X178715603Y-58075032D01*
X178529750Y-58112000D01*
X178340250Y-58112000D01*
X178154397Y-58075032D01*
X178114734Y-58058603D01*
X177979322Y-58002514D01*
X177901077Y-57950232D01*
X177821759Y-57897233D01*
X177687767Y-57763241D01*
X177582487Y-57605679D01*
X177582486Y-57605678D01*
X177509969Y-57430605D01*
X177509968Y-57430603D01*
X177473000Y-57244750D01*
X177473000Y-57055250D01*
X177509968Y-56869397D01*
X177553019Y-56765463D01*
X177582486Y-56694322D01*
X177687766Y-56536761D01*
X177687767Y-56536759D01*
X177821759Y-56402767D01*
X177979321Y-56297487D01*
X177979322Y-56297486D01*
X178154395Y-56224969D01*
X178154394Y-56224969D01*
X178154397Y-56224968D01*
X178340250Y-56188000D01*
X178529750Y-56188000D01*
X178715603Y-56224968D01*
X178715603Y-56224968D01*
G37*
G36*
X176175603Y-56224968D02*
X176175606Y-56224969D01*
X176175605Y-56224969D01*
X176350678Y-56297486D01*
X176350679Y-56297487D01*
X176508241Y-56402767D01*
X176642233Y-56536759D01*
X176642234Y-56536761D01*
X176747514Y-56694322D01*
X176776981Y-56765463D01*
X176820032Y-56869397D01*
X176857000Y-57055250D01*
X176857000Y-57244750D01*
X176820032Y-57430603D01*
X176820031Y-57430605D01*
X176747514Y-57605678D01*
X176747513Y-57605679D01*
X176642233Y-57763241D01*
X176508241Y-57897233D01*
X176428923Y-57950232D01*
X176350678Y-58002514D01*
X176215266Y-58058603D01*
X176175603Y-58075032D01*
X175989750Y-58112000D01*
X175800250Y-58112000D01*
X175614397Y-58075032D01*
X175574734Y-58058603D01*
X175439322Y-58002514D01*
X175361077Y-57950232D01*
X175281759Y-57897233D01*
X175147767Y-57763241D01*
X175042487Y-57605679D01*
X175042486Y-57605678D01*
X174969969Y-57430605D01*
X174969968Y-57430603D01*
X174933000Y-57244750D01*
X174933000Y-57055250D01*
X174969968Y-56869397D01*
X175013019Y-56765463D01*
X175042486Y-56694322D01*
X175147766Y-56536761D01*
X175147767Y-56536759D01*
X175281759Y-56402767D01*
X175439321Y-56297487D01*
X175439322Y-56297486D01*
X175614395Y-56224969D01*
X175614394Y-56224969D01*
X175614397Y-56224968D01*
X175800250Y-56188000D01*
X175989750Y-56188000D01*
X176175603Y-56224968D01*
X176175603Y-56224968D01*
G37*
G36*
X181144469Y-56591327D02*
X181250207Y-56635125D01*
X181345369Y-56698710D01*
X181426290Y-56779631D01*
X181489875Y-56874793D01*
X181533673Y-56980531D01*
X181556000Y-57092775D01*
X181556000Y-57207225D01*
X181533673Y-57319469D01*
X181489875Y-57425207D01*
X181426290Y-57520369D01*
X181345369Y-57601290D01*
X181250207Y-57664875D01*
X181144469Y-57708673D01*
X181032225Y-57731000D01*
X180917775Y-57731000D01*
X180805531Y-57708673D01*
X180699793Y-57664875D01*
X180604631Y-57601290D01*
X180523710Y-57520369D01*
X180460125Y-57425207D01*
X180416327Y-57319469D01*
X180394000Y-57207225D01*
X180394000Y-57092775D01*
X180416327Y-56980531D01*
X180460125Y-56874793D01*
X180523710Y-56779631D01*
X180604631Y-56698710D01*
X180699793Y-56635125D01*
X180805531Y-56591327D01*
X180917775Y-56569000D01*
X181032225Y-56569000D01*
X181144469Y-56591327D01*
X181144469Y-56591327D01*
G37*
M02*
