G04 #@! TF.GenerationSoftware,KiCad,Pcbnew,(6.0.0-rc1-dev-890-g6c34fdefd)*
G04 #@! TF.CreationDate,2018-10-17T06:06:35-07:00*
G04 #@! TF.ProjectId,Stylish-Belt-Synth - Full,5374796C6973682D42656C742D53796E,rev?*
G04 #@! TF.SameCoordinates,Original*
G04 #@! TF.FileFunction,Paste,Bot*
G04 #@! TF.FilePolarity,Positive*
%FSLAX46Y46*%
G04 Gerber Fmt 4.6, Leading zero omitted, Abs format (unit mm)*
G04 Created by KiCad (PCBNEW (6.0.0-rc1-dev-890-g6c34fdefd)) date 10/17/2018 6:06:35 AM*
%MOMM*%
%LPD*%
G01*
G04 APERTURE LIST*
%ADD10R,2.286000X1.270000*%
%ADD11R,1.270000X2.286000*%
%ADD12C,1.250000*%
%ADD13C,0.100000*%
%ADD14R,1.250000X1.500000*%
%ADD15R,3.048000X1.270000*%
%ADD16C,2.540000*%
%ADD17C,1.524000*%
%ADD18R,1.524000X4.572000*%
%ADD19R,0.508000X1.143000*%
G04 APERTURE END LIST*
D10*
G04 #@! TO.C,CA4*
X187579000Y-84836000D03*
X184277000Y-84836000D03*
G04 #@! TD*
G04 #@! TO.C,CA1*
X193421000Y-88900000D03*
X196723000Y-88900000D03*
G04 #@! TD*
G04 #@! TO.C,CA2*
X193421000Y-85344000D03*
X196723000Y-85344000D03*
G04 #@! TD*
D11*
G04 #@! TO.C,C1*
X190500000Y-74549000D03*
X190500000Y-77851000D03*
G04 #@! TD*
D12*
G04 #@! TO.C,CL15*
X138654354Y-60313151D03*
D13*
G36*
X138944766Y-61245238D02*
X137789917Y-60766884D01*
X138363942Y-59381064D01*
X139518791Y-59859418D01*
X138944766Y-61245238D01*
X138944766Y-61245238D01*
G37*
D12*
X137697646Y-62622849D03*
D13*
G36*
X137988058Y-63554936D02*
X136833209Y-63076582D01*
X137407234Y-61690762D01*
X138562083Y-62169116D01*
X137988058Y-63554936D01*
X137988058Y-63554936D01*
G37*
G04 #@! TD*
D14*
G04 #@! TO.C,CL14*
X129667000Y-68306000D03*
X129667000Y-65806000D03*
G04 #@! TD*
D12*
G04 #@! TO.C,CL13*
X122946000Y-74736468D03*
D13*
G36*
X123862266Y-75073487D02*
X122779734Y-75698487D01*
X122029734Y-74399449D01*
X123112266Y-73774449D01*
X123862266Y-75073487D01*
X123862266Y-75073487D01*
G37*
D12*
X124196000Y-76901532D03*
D13*
G36*
X125112266Y-77238551D02*
X124029734Y-77863551D01*
X123279734Y-76564513D01*
X124362266Y-75939513D01*
X125112266Y-77238551D01*
X125112266Y-77238551D01*
G37*
G04 #@! TD*
D12*
G04 #@! TO.C,CL12*
X122943940Y-86568971D03*
D13*
G36*
X123916789Y-86487183D02*
X123199819Y-87511123D01*
X121971091Y-86650759D01*
X122688061Y-85626819D01*
X123916789Y-86487183D01*
X123916789Y-86487183D01*
G37*
D12*
X120896060Y-85135029D03*
D13*
G36*
X121868909Y-85053241D02*
X121151939Y-86077181D01*
X119923211Y-85216817D01*
X120640181Y-84192877D01*
X121868909Y-85053241D01*
X121868909Y-85053241D01*
G37*
G04 #@! TD*
D12*
G04 #@! TO.C,CL11*
X122543151Y-95533646D03*
D13*
G36*
X123475238Y-95243234D02*
X122996884Y-96398083D01*
X121611064Y-95824058D01*
X122089418Y-94669209D01*
X123475238Y-95243234D01*
X123475238Y-95243234D01*
G37*
D12*
X124852849Y-96490354D03*
D13*
G36*
X125784936Y-96199942D02*
X125306582Y-97354791D01*
X123920762Y-96780766D01*
X124399116Y-95625917D01*
X125784936Y-96199942D01*
X125784936Y-96199942D01*
G37*
G04 #@! TD*
D12*
G04 #@! TO.C,CL10*
X130771010Y-104402940D03*
D13*
G36*
X131401086Y-103657199D02*
X131618146Y-104888209D01*
X130140934Y-105148681D01*
X129923874Y-103917671D01*
X131401086Y-103657199D01*
X131401086Y-103657199D01*
G37*
D12*
X128308990Y-104837060D03*
D13*
G36*
X128939066Y-104091319D02*
X129156126Y-105322329D01*
X127678914Y-105582801D01*
X127461854Y-104351791D01*
X128939066Y-104091319D01*
X128939066Y-104091319D01*
G37*
G04 #@! TD*
D12*
G04 #@! TO.C,CL9*
X137308308Y-111300952D03*
D13*
G36*
X137522847Y-110348535D02*
X138283799Y-111340227D01*
X137093769Y-112253369D01*
X136332817Y-111261677D01*
X137522847Y-110348535D01*
X137522847Y-110348535D01*
G37*
D12*
X139291692Y-109779048D03*
D13*
G36*
X139506231Y-108826631D02*
X140267183Y-109818323D01*
X139077153Y-110731465D01*
X138316201Y-109739773D01*
X139506231Y-108826631D01*
X139506231Y-108826631D01*
G37*
G04 #@! TD*
D12*
G04 #@! TO.C,CL8*
X149443484Y-111722445D03*
D13*
G36*
X149446797Y-110746169D02*
X150404352Y-111549654D01*
X149440171Y-112698721D01*
X148482616Y-111895236D01*
X149446797Y-110746169D01*
X149446797Y-110746169D01*
G37*
D12*
X147836516Y-113637555D03*
D13*
G36*
X147839829Y-112661279D02*
X148797384Y-113464764D01*
X147833203Y-114613831D01*
X146875648Y-113810346D01*
X147839829Y-112661279D01*
X147839829Y-112661279D01*
G37*
G04 #@! TD*
D12*
G04 #@! TO.C,CL7*
X158507060Y-109508990D03*
D13*
G36*
X158021791Y-108661854D02*
X159252801Y-108878914D01*
X158992329Y-110356126D01*
X157761319Y-110139066D01*
X158021791Y-108661854D01*
X158021791Y-108661854D01*
G37*
D12*
X158072940Y-111971010D03*
D13*
G36*
X157587671Y-111123874D02*
X158818681Y-111340934D01*
X158558209Y-112818146D01*
X157327199Y-112601086D01*
X157587671Y-111123874D01*
X157587671Y-111123874D01*
G37*
G04 #@! TD*
D12*
G04 #@! TO.C,CL6*
X167397060Y-106021010D03*
D13*
G36*
X166651319Y-105390934D02*
X167882329Y-105173874D01*
X168142801Y-106651086D01*
X166911791Y-106868146D01*
X166651319Y-105390934D01*
X166651319Y-105390934D01*
G37*
D12*
X166962940Y-103558990D03*
D13*
G36*
X166217199Y-102928914D02*
X167448209Y-102711854D01*
X167708681Y-104189066D01*
X166477671Y-104406126D01*
X166217199Y-102928914D01*
X166217199Y-102928914D01*
G37*
G04 #@! TD*
D12*
G04 #@! TO.C,CL5*
X172235000Y-95207468D03*
D13*
G36*
X171318734Y-94870449D02*
X172401266Y-94245449D01*
X173151266Y-95544487D01*
X172068734Y-96169487D01*
X171318734Y-94870449D01*
X171318734Y-94870449D01*
G37*
D12*
X173485000Y-97372532D03*
D13*
G36*
X172568734Y-97035513D02*
X173651266Y-96410513D01*
X174401266Y-97709551D01*
X173318734Y-98334551D01*
X172568734Y-97035513D01*
X172568734Y-97035513D01*
G37*
G04 #@! TD*
D12*
G04 #@! TO.C,CL4*
X176083940Y-86786971D03*
D13*
G36*
X175111091Y-86868759D02*
X175828061Y-85844819D01*
X177056789Y-86705183D01*
X176339819Y-87729123D01*
X175111091Y-86868759D01*
X175111091Y-86868759D01*
G37*
D12*
X174036060Y-85353029D03*
D13*
G36*
X173063211Y-85434817D02*
X173780181Y-84410877D01*
X175008909Y-85271241D01*
X174291939Y-86295181D01*
X173063211Y-85434817D01*
X173063211Y-85434817D01*
G37*
G04 #@! TD*
D12*
G04 #@! TO.C,CL3*
X174210683Y-75862337D03*
D13*
G36*
X173390105Y-76391276D02*
X173542442Y-75150594D01*
X175031261Y-75333398D01*
X174878924Y-76574080D01*
X173390105Y-76391276D01*
X173390105Y-76391276D01*
G37*
D12*
X171729317Y-75557663D03*
D13*
G36*
X170908739Y-76086602D02*
X171061076Y-74845920D01*
X172549895Y-75028724D01*
X172397558Y-76269406D01*
X170908739Y-76086602D01*
X170908739Y-76086602D01*
G37*
G04 #@! TD*
D12*
G04 #@! TO.C,CL2*
X166119317Y-67502337D03*
D13*
G36*
X165451076Y-68214080D02*
X165298739Y-66973398D01*
X166787558Y-66790594D01*
X166939895Y-68031276D01*
X165451076Y-68214080D01*
X165451076Y-68214080D01*
G37*
D12*
X168600683Y-67197663D03*
D13*
G36*
X167932442Y-67909406D02*
X167780105Y-66668724D01*
X169268924Y-66485920D01*
X169421261Y-67726602D01*
X167932442Y-67909406D01*
X167932442Y-67909406D01*
G37*
G04 #@! TD*
D12*
G04 #@! TO.C,CL1*
X159674849Y-61111646D03*
D13*
G36*
X159221116Y-61976083D02*
X158742762Y-60821234D01*
X160128582Y-60247209D01*
X160606936Y-61402058D01*
X159221116Y-61976083D01*
X159221116Y-61976083D01*
G37*
D12*
X157365151Y-62068354D03*
D13*
G36*
X156911418Y-62932791D02*
X156433064Y-61777942D01*
X157818884Y-61203917D01*
X158297238Y-62358766D01*
X156911418Y-62932791D01*
X156911418Y-62932791D01*
G37*
G04 #@! TD*
D12*
G04 #@! TO.C,CL0*
X142273100Y-61622740D03*
D13*
G36*
X143045615Y-62219687D02*
X141825245Y-62490237D01*
X141500585Y-61025793D01*
X142720955Y-60755243D01*
X143045615Y-62219687D01*
X143045615Y-62219687D01*
G37*
D12*
X141732000Y-59182000D03*
D13*
G36*
X142504515Y-59778947D02*
X141284145Y-60049497D01*
X140959485Y-58585053D01*
X142179855Y-58314503D01*
X142504515Y-59778947D01*
X142504515Y-59778947D01*
G37*
G04 #@! TD*
D15*
G04 #@! TO.C,R2*
X185724800Y-74168000D03*
X181533800Y-74168000D03*
G04 #@! TD*
G04 #@! TO.C,R1*
X181432200Y-77470000D03*
X185623200Y-77470000D03*
G04 #@! TD*
G04 #@! TO.C,R3*
X184099200Y-88900000D03*
X188290200Y-88900000D03*
G04 #@! TD*
D16*
G04 #@! TO.C,J30*
X122301000Y-150749000D03*
G04 #@! TD*
D13*
G04 #@! TO.C,U1*
G36*
X122592345Y-141860835D02*
X122629329Y-141866321D01*
X122665598Y-141875406D01*
X122700802Y-141888002D01*
X122734602Y-141903988D01*
X122766672Y-141923210D01*
X122796704Y-141945483D01*
X122824408Y-141970592D01*
X122849517Y-141998296D01*
X122871790Y-142028328D01*
X122891012Y-142060398D01*
X122906998Y-142094198D01*
X122919594Y-142129402D01*
X122928679Y-142165671D01*
X122934165Y-142202655D01*
X122936000Y-142240000D01*
X122936000Y-146050000D01*
X122934165Y-146087345D01*
X122928679Y-146124329D01*
X122919594Y-146160598D01*
X122906998Y-146195802D01*
X122891012Y-146229602D01*
X122871790Y-146261672D01*
X122849517Y-146291704D01*
X122824408Y-146319408D01*
X122796704Y-146344517D01*
X122766672Y-146366790D01*
X122734602Y-146386012D01*
X122700802Y-146401998D01*
X122665598Y-146414594D01*
X122629329Y-146423679D01*
X122592345Y-146429165D01*
X122555000Y-146431000D01*
X121793000Y-146431000D01*
X121755655Y-146429165D01*
X121718671Y-146423679D01*
X121682402Y-146414594D01*
X121647198Y-146401998D01*
X121613398Y-146386012D01*
X121581328Y-146366790D01*
X121551296Y-146344517D01*
X121523592Y-146319408D01*
X121498483Y-146291704D01*
X121476210Y-146261672D01*
X121456988Y-146229602D01*
X121441002Y-146195802D01*
X121428406Y-146160598D01*
X121419321Y-146124329D01*
X121413835Y-146087345D01*
X121412000Y-146050000D01*
X121412000Y-142240000D01*
X121413835Y-142202655D01*
X121419321Y-142165671D01*
X121428406Y-142129402D01*
X121441002Y-142094198D01*
X121456988Y-142060398D01*
X121476210Y-142028328D01*
X121498483Y-141998296D01*
X121523592Y-141970592D01*
X121551296Y-141945483D01*
X121581328Y-141923210D01*
X121613398Y-141903988D01*
X121647198Y-141888002D01*
X121682402Y-141875406D01*
X121718671Y-141866321D01*
X121755655Y-141860835D01*
X121793000Y-141859000D01*
X122555000Y-141859000D01*
X122592345Y-141860835D01*
X122592345Y-141860835D01*
G37*
D17*
X122174000Y-144145000D03*
D13*
G36*
X125132345Y-141860835D02*
X125169329Y-141866321D01*
X125205598Y-141875406D01*
X125240802Y-141888002D01*
X125274602Y-141903988D01*
X125306672Y-141923210D01*
X125336704Y-141945483D01*
X125364408Y-141970592D01*
X125389517Y-141998296D01*
X125411790Y-142028328D01*
X125431012Y-142060398D01*
X125446998Y-142094198D01*
X125459594Y-142129402D01*
X125468679Y-142165671D01*
X125474165Y-142202655D01*
X125476000Y-142240000D01*
X125476000Y-146050000D01*
X125474165Y-146087345D01*
X125468679Y-146124329D01*
X125459594Y-146160598D01*
X125446998Y-146195802D01*
X125431012Y-146229602D01*
X125411790Y-146261672D01*
X125389517Y-146291704D01*
X125364408Y-146319408D01*
X125336704Y-146344517D01*
X125306672Y-146366790D01*
X125274602Y-146386012D01*
X125240802Y-146401998D01*
X125205598Y-146414594D01*
X125169329Y-146423679D01*
X125132345Y-146429165D01*
X125095000Y-146431000D01*
X124333000Y-146431000D01*
X124295655Y-146429165D01*
X124258671Y-146423679D01*
X124222402Y-146414594D01*
X124187198Y-146401998D01*
X124153398Y-146386012D01*
X124121328Y-146366790D01*
X124091296Y-146344517D01*
X124063592Y-146319408D01*
X124038483Y-146291704D01*
X124016210Y-146261672D01*
X123996988Y-146229602D01*
X123981002Y-146195802D01*
X123968406Y-146160598D01*
X123959321Y-146124329D01*
X123953835Y-146087345D01*
X123952000Y-146050000D01*
X123952000Y-142240000D01*
X123953835Y-142202655D01*
X123959321Y-142165671D01*
X123968406Y-142129402D01*
X123981002Y-142094198D01*
X123996988Y-142060398D01*
X124016210Y-142028328D01*
X124038483Y-141998296D01*
X124063592Y-141970592D01*
X124091296Y-141945483D01*
X124121328Y-141923210D01*
X124153398Y-141903988D01*
X124187198Y-141888002D01*
X124222402Y-141875406D01*
X124258671Y-141866321D01*
X124295655Y-141860835D01*
X124333000Y-141859000D01*
X125095000Y-141859000D01*
X125132345Y-141860835D01*
X125132345Y-141860835D01*
G37*
D17*
X124714000Y-144145000D03*
D13*
G36*
X127672345Y-141860835D02*
X127709329Y-141866321D01*
X127745598Y-141875406D01*
X127780802Y-141888002D01*
X127814602Y-141903988D01*
X127846672Y-141923210D01*
X127876704Y-141945483D01*
X127904408Y-141970592D01*
X127929517Y-141998296D01*
X127951790Y-142028328D01*
X127971012Y-142060398D01*
X127986998Y-142094198D01*
X127999594Y-142129402D01*
X128008679Y-142165671D01*
X128014165Y-142202655D01*
X128016000Y-142240000D01*
X128016000Y-146050000D01*
X128014165Y-146087345D01*
X128008679Y-146124329D01*
X127999594Y-146160598D01*
X127986998Y-146195802D01*
X127971012Y-146229602D01*
X127951790Y-146261672D01*
X127929517Y-146291704D01*
X127904408Y-146319408D01*
X127876704Y-146344517D01*
X127846672Y-146366790D01*
X127814602Y-146386012D01*
X127780802Y-146401998D01*
X127745598Y-146414594D01*
X127709329Y-146423679D01*
X127672345Y-146429165D01*
X127635000Y-146431000D01*
X126873000Y-146431000D01*
X126835655Y-146429165D01*
X126798671Y-146423679D01*
X126762402Y-146414594D01*
X126727198Y-146401998D01*
X126693398Y-146386012D01*
X126661328Y-146366790D01*
X126631296Y-146344517D01*
X126603592Y-146319408D01*
X126578483Y-146291704D01*
X126556210Y-146261672D01*
X126536988Y-146229602D01*
X126521002Y-146195802D01*
X126508406Y-146160598D01*
X126499321Y-146124329D01*
X126493835Y-146087345D01*
X126492000Y-146050000D01*
X126492000Y-142240000D01*
X126493835Y-142202655D01*
X126499321Y-142165671D01*
X126508406Y-142129402D01*
X126521002Y-142094198D01*
X126536988Y-142060398D01*
X126556210Y-142028328D01*
X126578483Y-141998296D01*
X126603592Y-141970592D01*
X126631296Y-141945483D01*
X126661328Y-141923210D01*
X126693398Y-141903988D01*
X126727198Y-141888002D01*
X126762402Y-141875406D01*
X126798671Y-141866321D01*
X126835655Y-141860835D01*
X126873000Y-141859000D01*
X127635000Y-141859000D01*
X127672345Y-141860835D01*
X127672345Y-141860835D01*
G37*
D17*
X127254000Y-144145000D03*
D13*
G36*
X130212345Y-141860835D02*
X130249329Y-141866321D01*
X130285598Y-141875406D01*
X130320802Y-141888002D01*
X130354602Y-141903988D01*
X130386672Y-141923210D01*
X130416704Y-141945483D01*
X130444408Y-141970592D01*
X130469517Y-141998296D01*
X130491790Y-142028328D01*
X130511012Y-142060398D01*
X130526998Y-142094198D01*
X130539594Y-142129402D01*
X130548679Y-142165671D01*
X130554165Y-142202655D01*
X130556000Y-142240000D01*
X130556000Y-146050000D01*
X130554165Y-146087345D01*
X130548679Y-146124329D01*
X130539594Y-146160598D01*
X130526998Y-146195802D01*
X130511012Y-146229602D01*
X130491790Y-146261672D01*
X130469517Y-146291704D01*
X130444408Y-146319408D01*
X130416704Y-146344517D01*
X130386672Y-146366790D01*
X130354602Y-146386012D01*
X130320802Y-146401998D01*
X130285598Y-146414594D01*
X130249329Y-146423679D01*
X130212345Y-146429165D01*
X130175000Y-146431000D01*
X129413000Y-146431000D01*
X129375655Y-146429165D01*
X129338671Y-146423679D01*
X129302402Y-146414594D01*
X129267198Y-146401998D01*
X129233398Y-146386012D01*
X129201328Y-146366790D01*
X129171296Y-146344517D01*
X129143592Y-146319408D01*
X129118483Y-146291704D01*
X129096210Y-146261672D01*
X129076988Y-146229602D01*
X129061002Y-146195802D01*
X129048406Y-146160598D01*
X129039321Y-146124329D01*
X129033835Y-146087345D01*
X129032000Y-146050000D01*
X129032000Y-142240000D01*
X129033835Y-142202655D01*
X129039321Y-142165671D01*
X129048406Y-142129402D01*
X129061002Y-142094198D01*
X129076988Y-142060398D01*
X129096210Y-142028328D01*
X129118483Y-141998296D01*
X129143592Y-141970592D01*
X129171296Y-141945483D01*
X129201328Y-141923210D01*
X129233398Y-141903988D01*
X129267198Y-141888002D01*
X129302402Y-141875406D01*
X129338671Y-141866321D01*
X129375655Y-141860835D01*
X129413000Y-141859000D01*
X130175000Y-141859000D01*
X130212345Y-141860835D01*
X130212345Y-141860835D01*
G37*
D17*
X129794000Y-144145000D03*
D13*
G36*
X132752345Y-141860835D02*
X132789329Y-141866321D01*
X132825598Y-141875406D01*
X132860802Y-141888002D01*
X132894602Y-141903988D01*
X132926672Y-141923210D01*
X132956704Y-141945483D01*
X132984408Y-141970592D01*
X133009517Y-141998296D01*
X133031790Y-142028328D01*
X133051012Y-142060398D01*
X133066998Y-142094198D01*
X133079594Y-142129402D01*
X133088679Y-142165671D01*
X133094165Y-142202655D01*
X133096000Y-142240000D01*
X133096000Y-146050000D01*
X133094165Y-146087345D01*
X133088679Y-146124329D01*
X133079594Y-146160598D01*
X133066998Y-146195802D01*
X133051012Y-146229602D01*
X133031790Y-146261672D01*
X133009517Y-146291704D01*
X132984408Y-146319408D01*
X132956704Y-146344517D01*
X132926672Y-146366790D01*
X132894602Y-146386012D01*
X132860802Y-146401998D01*
X132825598Y-146414594D01*
X132789329Y-146423679D01*
X132752345Y-146429165D01*
X132715000Y-146431000D01*
X131953000Y-146431000D01*
X131915655Y-146429165D01*
X131878671Y-146423679D01*
X131842402Y-146414594D01*
X131807198Y-146401998D01*
X131773398Y-146386012D01*
X131741328Y-146366790D01*
X131711296Y-146344517D01*
X131683592Y-146319408D01*
X131658483Y-146291704D01*
X131636210Y-146261672D01*
X131616988Y-146229602D01*
X131601002Y-146195802D01*
X131588406Y-146160598D01*
X131579321Y-146124329D01*
X131573835Y-146087345D01*
X131572000Y-146050000D01*
X131572000Y-142240000D01*
X131573835Y-142202655D01*
X131579321Y-142165671D01*
X131588406Y-142129402D01*
X131601002Y-142094198D01*
X131616988Y-142060398D01*
X131636210Y-142028328D01*
X131658483Y-141998296D01*
X131683592Y-141970592D01*
X131711296Y-141945483D01*
X131741328Y-141923210D01*
X131773398Y-141903988D01*
X131807198Y-141888002D01*
X131842402Y-141875406D01*
X131878671Y-141866321D01*
X131915655Y-141860835D01*
X131953000Y-141859000D01*
X132715000Y-141859000D01*
X132752345Y-141860835D01*
X132752345Y-141860835D01*
G37*
D17*
X132334000Y-144145000D03*
D13*
G36*
X135292345Y-141860835D02*
X135329329Y-141866321D01*
X135365598Y-141875406D01*
X135400802Y-141888002D01*
X135434602Y-141903988D01*
X135466672Y-141923210D01*
X135496704Y-141945483D01*
X135524408Y-141970592D01*
X135549517Y-141998296D01*
X135571790Y-142028328D01*
X135591012Y-142060398D01*
X135606998Y-142094198D01*
X135619594Y-142129402D01*
X135628679Y-142165671D01*
X135634165Y-142202655D01*
X135636000Y-142240000D01*
X135636000Y-146050000D01*
X135634165Y-146087345D01*
X135628679Y-146124329D01*
X135619594Y-146160598D01*
X135606998Y-146195802D01*
X135591012Y-146229602D01*
X135571790Y-146261672D01*
X135549517Y-146291704D01*
X135524408Y-146319408D01*
X135496704Y-146344517D01*
X135466672Y-146366790D01*
X135434602Y-146386012D01*
X135400802Y-146401998D01*
X135365598Y-146414594D01*
X135329329Y-146423679D01*
X135292345Y-146429165D01*
X135255000Y-146431000D01*
X134493000Y-146431000D01*
X134455655Y-146429165D01*
X134418671Y-146423679D01*
X134382402Y-146414594D01*
X134347198Y-146401998D01*
X134313398Y-146386012D01*
X134281328Y-146366790D01*
X134251296Y-146344517D01*
X134223592Y-146319408D01*
X134198483Y-146291704D01*
X134176210Y-146261672D01*
X134156988Y-146229602D01*
X134141002Y-146195802D01*
X134128406Y-146160598D01*
X134119321Y-146124329D01*
X134113835Y-146087345D01*
X134112000Y-146050000D01*
X134112000Y-142240000D01*
X134113835Y-142202655D01*
X134119321Y-142165671D01*
X134128406Y-142129402D01*
X134141002Y-142094198D01*
X134156988Y-142060398D01*
X134176210Y-142028328D01*
X134198483Y-141998296D01*
X134223592Y-141970592D01*
X134251296Y-141945483D01*
X134281328Y-141923210D01*
X134313398Y-141903988D01*
X134347198Y-141888002D01*
X134382402Y-141875406D01*
X134418671Y-141866321D01*
X134455655Y-141860835D01*
X134493000Y-141859000D01*
X135255000Y-141859000D01*
X135292345Y-141860835D01*
X135292345Y-141860835D01*
G37*
D17*
X134874000Y-144145000D03*
D13*
G36*
X137832345Y-141860835D02*
X137869329Y-141866321D01*
X137905598Y-141875406D01*
X137940802Y-141888002D01*
X137974602Y-141903988D01*
X138006672Y-141923210D01*
X138036704Y-141945483D01*
X138064408Y-141970592D01*
X138089517Y-141998296D01*
X138111790Y-142028328D01*
X138131012Y-142060398D01*
X138146998Y-142094198D01*
X138159594Y-142129402D01*
X138168679Y-142165671D01*
X138174165Y-142202655D01*
X138176000Y-142240000D01*
X138176000Y-146050000D01*
X138174165Y-146087345D01*
X138168679Y-146124329D01*
X138159594Y-146160598D01*
X138146998Y-146195802D01*
X138131012Y-146229602D01*
X138111790Y-146261672D01*
X138089517Y-146291704D01*
X138064408Y-146319408D01*
X138036704Y-146344517D01*
X138006672Y-146366790D01*
X137974602Y-146386012D01*
X137940802Y-146401998D01*
X137905598Y-146414594D01*
X137869329Y-146423679D01*
X137832345Y-146429165D01*
X137795000Y-146431000D01*
X137033000Y-146431000D01*
X136995655Y-146429165D01*
X136958671Y-146423679D01*
X136922402Y-146414594D01*
X136887198Y-146401998D01*
X136853398Y-146386012D01*
X136821328Y-146366790D01*
X136791296Y-146344517D01*
X136763592Y-146319408D01*
X136738483Y-146291704D01*
X136716210Y-146261672D01*
X136696988Y-146229602D01*
X136681002Y-146195802D01*
X136668406Y-146160598D01*
X136659321Y-146124329D01*
X136653835Y-146087345D01*
X136652000Y-146050000D01*
X136652000Y-142240000D01*
X136653835Y-142202655D01*
X136659321Y-142165671D01*
X136668406Y-142129402D01*
X136681002Y-142094198D01*
X136696988Y-142060398D01*
X136716210Y-142028328D01*
X136738483Y-141998296D01*
X136763592Y-141970592D01*
X136791296Y-141945483D01*
X136821328Y-141923210D01*
X136853398Y-141903988D01*
X136887198Y-141888002D01*
X136922402Y-141875406D01*
X136958671Y-141866321D01*
X136995655Y-141860835D01*
X137033000Y-141859000D01*
X137795000Y-141859000D01*
X137832345Y-141860835D01*
X137832345Y-141860835D01*
G37*
D17*
X137414000Y-144145000D03*
D13*
G36*
X140372345Y-141860835D02*
X140409329Y-141866321D01*
X140445598Y-141875406D01*
X140480802Y-141888002D01*
X140514602Y-141903988D01*
X140546672Y-141923210D01*
X140576704Y-141945483D01*
X140604408Y-141970592D01*
X140629517Y-141998296D01*
X140651790Y-142028328D01*
X140671012Y-142060398D01*
X140686998Y-142094198D01*
X140699594Y-142129402D01*
X140708679Y-142165671D01*
X140714165Y-142202655D01*
X140716000Y-142240000D01*
X140716000Y-146050000D01*
X140714165Y-146087345D01*
X140708679Y-146124329D01*
X140699594Y-146160598D01*
X140686998Y-146195802D01*
X140671012Y-146229602D01*
X140651790Y-146261672D01*
X140629517Y-146291704D01*
X140604408Y-146319408D01*
X140576704Y-146344517D01*
X140546672Y-146366790D01*
X140514602Y-146386012D01*
X140480802Y-146401998D01*
X140445598Y-146414594D01*
X140409329Y-146423679D01*
X140372345Y-146429165D01*
X140335000Y-146431000D01*
X139573000Y-146431000D01*
X139535655Y-146429165D01*
X139498671Y-146423679D01*
X139462402Y-146414594D01*
X139427198Y-146401998D01*
X139393398Y-146386012D01*
X139361328Y-146366790D01*
X139331296Y-146344517D01*
X139303592Y-146319408D01*
X139278483Y-146291704D01*
X139256210Y-146261672D01*
X139236988Y-146229602D01*
X139221002Y-146195802D01*
X139208406Y-146160598D01*
X139199321Y-146124329D01*
X139193835Y-146087345D01*
X139192000Y-146050000D01*
X139192000Y-142240000D01*
X139193835Y-142202655D01*
X139199321Y-142165671D01*
X139208406Y-142129402D01*
X139221002Y-142094198D01*
X139236988Y-142060398D01*
X139256210Y-142028328D01*
X139278483Y-141998296D01*
X139303592Y-141970592D01*
X139331296Y-141945483D01*
X139361328Y-141923210D01*
X139393398Y-141903988D01*
X139427198Y-141888002D01*
X139462402Y-141875406D01*
X139498671Y-141866321D01*
X139535655Y-141860835D01*
X139573000Y-141859000D01*
X140335000Y-141859000D01*
X140372345Y-141860835D01*
X140372345Y-141860835D01*
G37*
D17*
X139954000Y-144145000D03*
D13*
G36*
X142912345Y-141860835D02*
X142949329Y-141866321D01*
X142985598Y-141875406D01*
X143020802Y-141888002D01*
X143054602Y-141903988D01*
X143086672Y-141923210D01*
X143116704Y-141945483D01*
X143144408Y-141970592D01*
X143169517Y-141998296D01*
X143191790Y-142028328D01*
X143211012Y-142060398D01*
X143226998Y-142094198D01*
X143239594Y-142129402D01*
X143248679Y-142165671D01*
X143254165Y-142202655D01*
X143256000Y-142240000D01*
X143256000Y-146050000D01*
X143254165Y-146087345D01*
X143248679Y-146124329D01*
X143239594Y-146160598D01*
X143226998Y-146195802D01*
X143211012Y-146229602D01*
X143191790Y-146261672D01*
X143169517Y-146291704D01*
X143144408Y-146319408D01*
X143116704Y-146344517D01*
X143086672Y-146366790D01*
X143054602Y-146386012D01*
X143020802Y-146401998D01*
X142985598Y-146414594D01*
X142949329Y-146423679D01*
X142912345Y-146429165D01*
X142875000Y-146431000D01*
X142113000Y-146431000D01*
X142075655Y-146429165D01*
X142038671Y-146423679D01*
X142002402Y-146414594D01*
X141967198Y-146401998D01*
X141933398Y-146386012D01*
X141901328Y-146366790D01*
X141871296Y-146344517D01*
X141843592Y-146319408D01*
X141818483Y-146291704D01*
X141796210Y-146261672D01*
X141776988Y-146229602D01*
X141761002Y-146195802D01*
X141748406Y-146160598D01*
X141739321Y-146124329D01*
X141733835Y-146087345D01*
X141732000Y-146050000D01*
X141732000Y-142240000D01*
X141733835Y-142202655D01*
X141739321Y-142165671D01*
X141748406Y-142129402D01*
X141761002Y-142094198D01*
X141776988Y-142060398D01*
X141796210Y-142028328D01*
X141818483Y-141998296D01*
X141843592Y-141970592D01*
X141871296Y-141945483D01*
X141901328Y-141923210D01*
X141933398Y-141903988D01*
X141967198Y-141888002D01*
X142002402Y-141875406D01*
X142038671Y-141866321D01*
X142075655Y-141860835D01*
X142113000Y-141859000D01*
X142875000Y-141859000D01*
X142912345Y-141860835D01*
X142912345Y-141860835D01*
G37*
D17*
X142494000Y-144145000D03*
D13*
G36*
X145452345Y-141860835D02*
X145489329Y-141866321D01*
X145525598Y-141875406D01*
X145560802Y-141888002D01*
X145594602Y-141903988D01*
X145626672Y-141923210D01*
X145656704Y-141945483D01*
X145684408Y-141970592D01*
X145709517Y-141998296D01*
X145731790Y-142028328D01*
X145751012Y-142060398D01*
X145766998Y-142094198D01*
X145779594Y-142129402D01*
X145788679Y-142165671D01*
X145794165Y-142202655D01*
X145796000Y-142240000D01*
X145796000Y-146050000D01*
X145794165Y-146087345D01*
X145788679Y-146124329D01*
X145779594Y-146160598D01*
X145766998Y-146195802D01*
X145751012Y-146229602D01*
X145731790Y-146261672D01*
X145709517Y-146291704D01*
X145684408Y-146319408D01*
X145656704Y-146344517D01*
X145626672Y-146366790D01*
X145594602Y-146386012D01*
X145560802Y-146401998D01*
X145525598Y-146414594D01*
X145489329Y-146423679D01*
X145452345Y-146429165D01*
X145415000Y-146431000D01*
X144653000Y-146431000D01*
X144615655Y-146429165D01*
X144578671Y-146423679D01*
X144542402Y-146414594D01*
X144507198Y-146401998D01*
X144473398Y-146386012D01*
X144441328Y-146366790D01*
X144411296Y-146344517D01*
X144383592Y-146319408D01*
X144358483Y-146291704D01*
X144336210Y-146261672D01*
X144316988Y-146229602D01*
X144301002Y-146195802D01*
X144288406Y-146160598D01*
X144279321Y-146124329D01*
X144273835Y-146087345D01*
X144272000Y-146050000D01*
X144272000Y-142240000D01*
X144273835Y-142202655D01*
X144279321Y-142165671D01*
X144288406Y-142129402D01*
X144301002Y-142094198D01*
X144316988Y-142060398D01*
X144336210Y-142028328D01*
X144358483Y-141998296D01*
X144383592Y-141970592D01*
X144411296Y-141945483D01*
X144441328Y-141923210D01*
X144473398Y-141903988D01*
X144507198Y-141888002D01*
X144542402Y-141875406D01*
X144578671Y-141866321D01*
X144615655Y-141860835D01*
X144653000Y-141859000D01*
X145415000Y-141859000D01*
X145452345Y-141860835D01*
X145452345Y-141860835D01*
G37*
D17*
X145034000Y-144145000D03*
D13*
G36*
X147992345Y-141860835D02*
X148029329Y-141866321D01*
X148065598Y-141875406D01*
X148100802Y-141888002D01*
X148134602Y-141903988D01*
X148166672Y-141923210D01*
X148196704Y-141945483D01*
X148224408Y-141970592D01*
X148249517Y-141998296D01*
X148271790Y-142028328D01*
X148291012Y-142060398D01*
X148306998Y-142094198D01*
X148319594Y-142129402D01*
X148328679Y-142165671D01*
X148334165Y-142202655D01*
X148336000Y-142240000D01*
X148336000Y-146050000D01*
X148334165Y-146087345D01*
X148328679Y-146124329D01*
X148319594Y-146160598D01*
X148306998Y-146195802D01*
X148291012Y-146229602D01*
X148271790Y-146261672D01*
X148249517Y-146291704D01*
X148224408Y-146319408D01*
X148196704Y-146344517D01*
X148166672Y-146366790D01*
X148134602Y-146386012D01*
X148100802Y-146401998D01*
X148065598Y-146414594D01*
X148029329Y-146423679D01*
X147992345Y-146429165D01*
X147955000Y-146431000D01*
X147193000Y-146431000D01*
X147155655Y-146429165D01*
X147118671Y-146423679D01*
X147082402Y-146414594D01*
X147047198Y-146401998D01*
X147013398Y-146386012D01*
X146981328Y-146366790D01*
X146951296Y-146344517D01*
X146923592Y-146319408D01*
X146898483Y-146291704D01*
X146876210Y-146261672D01*
X146856988Y-146229602D01*
X146841002Y-146195802D01*
X146828406Y-146160598D01*
X146819321Y-146124329D01*
X146813835Y-146087345D01*
X146812000Y-146050000D01*
X146812000Y-142240000D01*
X146813835Y-142202655D01*
X146819321Y-142165671D01*
X146828406Y-142129402D01*
X146841002Y-142094198D01*
X146856988Y-142060398D01*
X146876210Y-142028328D01*
X146898483Y-141998296D01*
X146923592Y-141970592D01*
X146951296Y-141945483D01*
X146981328Y-141923210D01*
X147013398Y-141903988D01*
X147047198Y-141888002D01*
X147082402Y-141875406D01*
X147118671Y-141866321D01*
X147155655Y-141860835D01*
X147193000Y-141859000D01*
X147955000Y-141859000D01*
X147992345Y-141860835D01*
X147992345Y-141860835D01*
G37*
D17*
X147574000Y-144145000D03*
D13*
G36*
X150532345Y-141860835D02*
X150569329Y-141866321D01*
X150605598Y-141875406D01*
X150640802Y-141888002D01*
X150674602Y-141903988D01*
X150706672Y-141923210D01*
X150736704Y-141945483D01*
X150764408Y-141970592D01*
X150789517Y-141998296D01*
X150811790Y-142028328D01*
X150831012Y-142060398D01*
X150846998Y-142094198D01*
X150859594Y-142129402D01*
X150868679Y-142165671D01*
X150874165Y-142202655D01*
X150876000Y-142240000D01*
X150876000Y-146050000D01*
X150874165Y-146087345D01*
X150868679Y-146124329D01*
X150859594Y-146160598D01*
X150846998Y-146195802D01*
X150831012Y-146229602D01*
X150811790Y-146261672D01*
X150789517Y-146291704D01*
X150764408Y-146319408D01*
X150736704Y-146344517D01*
X150706672Y-146366790D01*
X150674602Y-146386012D01*
X150640802Y-146401998D01*
X150605598Y-146414594D01*
X150569329Y-146423679D01*
X150532345Y-146429165D01*
X150495000Y-146431000D01*
X149733000Y-146431000D01*
X149695655Y-146429165D01*
X149658671Y-146423679D01*
X149622402Y-146414594D01*
X149587198Y-146401998D01*
X149553398Y-146386012D01*
X149521328Y-146366790D01*
X149491296Y-146344517D01*
X149463592Y-146319408D01*
X149438483Y-146291704D01*
X149416210Y-146261672D01*
X149396988Y-146229602D01*
X149381002Y-146195802D01*
X149368406Y-146160598D01*
X149359321Y-146124329D01*
X149353835Y-146087345D01*
X149352000Y-146050000D01*
X149352000Y-142240000D01*
X149353835Y-142202655D01*
X149359321Y-142165671D01*
X149368406Y-142129402D01*
X149381002Y-142094198D01*
X149396988Y-142060398D01*
X149416210Y-142028328D01*
X149438483Y-141998296D01*
X149463592Y-141970592D01*
X149491296Y-141945483D01*
X149521328Y-141923210D01*
X149553398Y-141903988D01*
X149587198Y-141888002D01*
X149622402Y-141875406D01*
X149658671Y-141866321D01*
X149695655Y-141860835D01*
X149733000Y-141859000D01*
X150495000Y-141859000D01*
X150532345Y-141860835D01*
X150532345Y-141860835D01*
G37*
D17*
X150114000Y-144145000D03*
D13*
G36*
X153072345Y-141860835D02*
X153109329Y-141866321D01*
X153145598Y-141875406D01*
X153180802Y-141888002D01*
X153214602Y-141903988D01*
X153246672Y-141923210D01*
X153276704Y-141945483D01*
X153304408Y-141970592D01*
X153329517Y-141998296D01*
X153351790Y-142028328D01*
X153371012Y-142060398D01*
X153386998Y-142094198D01*
X153399594Y-142129402D01*
X153408679Y-142165671D01*
X153414165Y-142202655D01*
X153416000Y-142240000D01*
X153416000Y-146050000D01*
X153414165Y-146087345D01*
X153408679Y-146124329D01*
X153399594Y-146160598D01*
X153386998Y-146195802D01*
X153371012Y-146229602D01*
X153351790Y-146261672D01*
X153329517Y-146291704D01*
X153304408Y-146319408D01*
X153276704Y-146344517D01*
X153246672Y-146366790D01*
X153214602Y-146386012D01*
X153180802Y-146401998D01*
X153145598Y-146414594D01*
X153109329Y-146423679D01*
X153072345Y-146429165D01*
X153035000Y-146431000D01*
X152273000Y-146431000D01*
X152235655Y-146429165D01*
X152198671Y-146423679D01*
X152162402Y-146414594D01*
X152127198Y-146401998D01*
X152093398Y-146386012D01*
X152061328Y-146366790D01*
X152031296Y-146344517D01*
X152003592Y-146319408D01*
X151978483Y-146291704D01*
X151956210Y-146261672D01*
X151936988Y-146229602D01*
X151921002Y-146195802D01*
X151908406Y-146160598D01*
X151899321Y-146124329D01*
X151893835Y-146087345D01*
X151892000Y-146050000D01*
X151892000Y-142240000D01*
X151893835Y-142202655D01*
X151899321Y-142165671D01*
X151908406Y-142129402D01*
X151921002Y-142094198D01*
X151936988Y-142060398D01*
X151956210Y-142028328D01*
X151978483Y-141998296D01*
X152003592Y-141970592D01*
X152031296Y-141945483D01*
X152061328Y-141923210D01*
X152093398Y-141903988D01*
X152127198Y-141888002D01*
X152162402Y-141875406D01*
X152198671Y-141866321D01*
X152235655Y-141860835D01*
X152273000Y-141859000D01*
X153035000Y-141859000D01*
X153072345Y-141860835D01*
X153072345Y-141860835D01*
G37*
D17*
X152654000Y-144145000D03*
D13*
G36*
X155612345Y-141860835D02*
X155649329Y-141866321D01*
X155685598Y-141875406D01*
X155720802Y-141888002D01*
X155754602Y-141903988D01*
X155786672Y-141923210D01*
X155816704Y-141945483D01*
X155844408Y-141970592D01*
X155869517Y-141998296D01*
X155891790Y-142028328D01*
X155911012Y-142060398D01*
X155926998Y-142094198D01*
X155939594Y-142129402D01*
X155948679Y-142165671D01*
X155954165Y-142202655D01*
X155956000Y-142240000D01*
X155956000Y-146050000D01*
X155954165Y-146087345D01*
X155948679Y-146124329D01*
X155939594Y-146160598D01*
X155926998Y-146195802D01*
X155911012Y-146229602D01*
X155891790Y-146261672D01*
X155869517Y-146291704D01*
X155844408Y-146319408D01*
X155816704Y-146344517D01*
X155786672Y-146366790D01*
X155754602Y-146386012D01*
X155720802Y-146401998D01*
X155685598Y-146414594D01*
X155649329Y-146423679D01*
X155612345Y-146429165D01*
X155575000Y-146431000D01*
X154813000Y-146431000D01*
X154775655Y-146429165D01*
X154738671Y-146423679D01*
X154702402Y-146414594D01*
X154667198Y-146401998D01*
X154633398Y-146386012D01*
X154601328Y-146366790D01*
X154571296Y-146344517D01*
X154543592Y-146319408D01*
X154518483Y-146291704D01*
X154496210Y-146261672D01*
X154476988Y-146229602D01*
X154461002Y-146195802D01*
X154448406Y-146160598D01*
X154439321Y-146124329D01*
X154433835Y-146087345D01*
X154432000Y-146050000D01*
X154432000Y-142240000D01*
X154433835Y-142202655D01*
X154439321Y-142165671D01*
X154448406Y-142129402D01*
X154461002Y-142094198D01*
X154476988Y-142060398D01*
X154496210Y-142028328D01*
X154518483Y-141998296D01*
X154543592Y-141970592D01*
X154571296Y-141945483D01*
X154601328Y-141923210D01*
X154633398Y-141903988D01*
X154667198Y-141888002D01*
X154702402Y-141875406D01*
X154738671Y-141866321D01*
X154775655Y-141860835D01*
X154813000Y-141859000D01*
X155575000Y-141859000D01*
X155612345Y-141860835D01*
X155612345Y-141860835D01*
G37*
D17*
X155194000Y-144145000D03*
D13*
G36*
X158152345Y-141860835D02*
X158189329Y-141866321D01*
X158225598Y-141875406D01*
X158260802Y-141888002D01*
X158294602Y-141903988D01*
X158326672Y-141923210D01*
X158356704Y-141945483D01*
X158384408Y-141970592D01*
X158409517Y-141998296D01*
X158431790Y-142028328D01*
X158451012Y-142060398D01*
X158466998Y-142094198D01*
X158479594Y-142129402D01*
X158488679Y-142165671D01*
X158494165Y-142202655D01*
X158496000Y-142240000D01*
X158496000Y-146050000D01*
X158494165Y-146087345D01*
X158488679Y-146124329D01*
X158479594Y-146160598D01*
X158466998Y-146195802D01*
X158451012Y-146229602D01*
X158431790Y-146261672D01*
X158409517Y-146291704D01*
X158384408Y-146319408D01*
X158356704Y-146344517D01*
X158326672Y-146366790D01*
X158294602Y-146386012D01*
X158260802Y-146401998D01*
X158225598Y-146414594D01*
X158189329Y-146423679D01*
X158152345Y-146429165D01*
X158115000Y-146431000D01*
X157353000Y-146431000D01*
X157315655Y-146429165D01*
X157278671Y-146423679D01*
X157242402Y-146414594D01*
X157207198Y-146401998D01*
X157173398Y-146386012D01*
X157141328Y-146366790D01*
X157111296Y-146344517D01*
X157083592Y-146319408D01*
X157058483Y-146291704D01*
X157036210Y-146261672D01*
X157016988Y-146229602D01*
X157001002Y-146195802D01*
X156988406Y-146160598D01*
X156979321Y-146124329D01*
X156973835Y-146087345D01*
X156972000Y-146050000D01*
X156972000Y-142240000D01*
X156973835Y-142202655D01*
X156979321Y-142165671D01*
X156988406Y-142129402D01*
X157001002Y-142094198D01*
X157016988Y-142060398D01*
X157036210Y-142028328D01*
X157058483Y-141998296D01*
X157083592Y-141970592D01*
X157111296Y-141945483D01*
X157141328Y-141923210D01*
X157173398Y-141903988D01*
X157207198Y-141888002D01*
X157242402Y-141875406D01*
X157278671Y-141866321D01*
X157315655Y-141860835D01*
X157353000Y-141859000D01*
X158115000Y-141859000D01*
X158152345Y-141860835D01*
X158152345Y-141860835D01*
G37*
D17*
X157734000Y-144145000D03*
D13*
G36*
X160692345Y-141860835D02*
X160729329Y-141866321D01*
X160765598Y-141875406D01*
X160800802Y-141888002D01*
X160834602Y-141903988D01*
X160866672Y-141923210D01*
X160896704Y-141945483D01*
X160924408Y-141970592D01*
X160949517Y-141998296D01*
X160971790Y-142028328D01*
X160991012Y-142060398D01*
X161006998Y-142094198D01*
X161019594Y-142129402D01*
X161028679Y-142165671D01*
X161034165Y-142202655D01*
X161036000Y-142240000D01*
X161036000Y-146050000D01*
X161034165Y-146087345D01*
X161028679Y-146124329D01*
X161019594Y-146160598D01*
X161006998Y-146195802D01*
X160991012Y-146229602D01*
X160971790Y-146261672D01*
X160949517Y-146291704D01*
X160924408Y-146319408D01*
X160896704Y-146344517D01*
X160866672Y-146366790D01*
X160834602Y-146386012D01*
X160800802Y-146401998D01*
X160765598Y-146414594D01*
X160729329Y-146423679D01*
X160692345Y-146429165D01*
X160655000Y-146431000D01*
X159893000Y-146431000D01*
X159855655Y-146429165D01*
X159818671Y-146423679D01*
X159782402Y-146414594D01*
X159747198Y-146401998D01*
X159713398Y-146386012D01*
X159681328Y-146366790D01*
X159651296Y-146344517D01*
X159623592Y-146319408D01*
X159598483Y-146291704D01*
X159576210Y-146261672D01*
X159556988Y-146229602D01*
X159541002Y-146195802D01*
X159528406Y-146160598D01*
X159519321Y-146124329D01*
X159513835Y-146087345D01*
X159512000Y-146050000D01*
X159512000Y-142240000D01*
X159513835Y-142202655D01*
X159519321Y-142165671D01*
X159528406Y-142129402D01*
X159541002Y-142094198D01*
X159556988Y-142060398D01*
X159576210Y-142028328D01*
X159598483Y-141998296D01*
X159623592Y-141970592D01*
X159651296Y-141945483D01*
X159681328Y-141923210D01*
X159713398Y-141903988D01*
X159747198Y-141888002D01*
X159782402Y-141875406D01*
X159818671Y-141866321D01*
X159855655Y-141860835D01*
X159893000Y-141859000D01*
X160655000Y-141859000D01*
X160692345Y-141860835D01*
X160692345Y-141860835D01*
G37*
D17*
X160274000Y-144145000D03*
D13*
G36*
X163232345Y-141860835D02*
X163269329Y-141866321D01*
X163305598Y-141875406D01*
X163340802Y-141888002D01*
X163374602Y-141903988D01*
X163406672Y-141923210D01*
X163436704Y-141945483D01*
X163464408Y-141970592D01*
X163489517Y-141998296D01*
X163511790Y-142028328D01*
X163531012Y-142060398D01*
X163546998Y-142094198D01*
X163559594Y-142129402D01*
X163568679Y-142165671D01*
X163574165Y-142202655D01*
X163576000Y-142240000D01*
X163576000Y-146050000D01*
X163574165Y-146087345D01*
X163568679Y-146124329D01*
X163559594Y-146160598D01*
X163546998Y-146195802D01*
X163531012Y-146229602D01*
X163511790Y-146261672D01*
X163489517Y-146291704D01*
X163464408Y-146319408D01*
X163436704Y-146344517D01*
X163406672Y-146366790D01*
X163374602Y-146386012D01*
X163340802Y-146401998D01*
X163305598Y-146414594D01*
X163269329Y-146423679D01*
X163232345Y-146429165D01*
X163195000Y-146431000D01*
X162433000Y-146431000D01*
X162395655Y-146429165D01*
X162358671Y-146423679D01*
X162322402Y-146414594D01*
X162287198Y-146401998D01*
X162253398Y-146386012D01*
X162221328Y-146366790D01*
X162191296Y-146344517D01*
X162163592Y-146319408D01*
X162138483Y-146291704D01*
X162116210Y-146261672D01*
X162096988Y-146229602D01*
X162081002Y-146195802D01*
X162068406Y-146160598D01*
X162059321Y-146124329D01*
X162053835Y-146087345D01*
X162052000Y-146050000D01*
X162052000Y-142240000D01*
X162053835Y-142202655D01*
X162059321Y-142165671D01*
X162068406Y-142129402D01*
X162081002Y-142094198D01*
X162096988Y-142060398D01*
X162116210Y-142028328D01*
X162138483Y-141998296D01*
X162163592Y-141970592D01*
X162191296Y-141945483D01*
X162221328Y-141923210D01*
X162253398Y-141903988D01*
X162287198Y-141888002D01*
X162322402Y-141875406D01*
X162358671Y-141866321D01*
X162395655Y-141860835D01*
X162433000Y-141859000D01*
X163195000Y-141859000D01*
X163232345Y-141860835D01*
X163232345Y-141860835D01*
G37*
D17*
X162814000Y-144145000D03*
D13*
G36*
X165772345Y-141860835D02*
X165809329Y-141866321D01*
X165845598Y-141875406D01*
X165880802Y-141888002D01*
X165914602Y-141903988D01*
X165946672Y-141923210D01*
X165976704Y-141945483D01*
X166004408Y-141970592D01*
X166029517Y-141998296D01*
X166051790Y-142028328D01*
X166071012Y-142060398D01*
X166086998Y-142094198D01*
X166099594Y-142129402D01*
X166108679Y-142165671D01*
X166114165Y-142202655D01*
X166116000Y-142240000D01*
X166116000Y-146050000D01*
X166114165Y-146087345D01*
X166108679Y-146124329D01*
X166099594Y-146160598D01*
X166086998Y-146195802D01*
X166071012Y-146229602D01*
X166051790Y-146261672D01*
X166029517Y-146291704D01*
X166004408Y-146319408D01*
X165976704Y-146344517D01*
X165946672Y-146366790D01*
X165914602Y-146386012D01*
X165880802Y-146401998D01*
X165845598Y-146414594D01*
X165809329Y-146423679D01*
X165772345Y-146429165D01*
X165735000Y-146431000D01*
X164973000Y-146431000D01*
X164935655Y-146429165D01*
X164898671Y-146423679D01*
X164862402Y-146414594D01*
X164827198Y-146401998D01*
X164793398Y-146386012D01*
X164761328Y-146366790D01*
X164731296Y-146344517D01*
X164703592Y-146319408D01*
X164678483Y-146291704D01*
X164656210Y-146261672D01*
X164636988Y-146229602D01*
X164621002Y-146195802D01*
X164608406Y-146160598D01*
X164599321Y-146124329D01*
X164593835Y-146087345D01*
X164592000Y-146050000D01*
X164592000Y-142240000D01*
X164593835Y-142202655D01*
X164599321Y-142165671D01*
X164608406Y-142129402D01*
X164621002Y-142094198D01*
X164636988Y-142060398D01*
X164656210Y-142028328D01*
X164678483Y-141998296D01*
X164703592Y-141970592D01*
X164731296Y-141945483D01*
X164761328Y-141923210D01*
X164793398Y-141903988D01*
X164827198Y-141888002D01*
X164862402Y-141875406D01*
X164898671Y-141866321D01*
X164935655Y-141860835D01*
X164973000Y-141859000D01*
X165735000Y-141859000D01*
X165772345Y-141860835D01*
X165772345Y-141860835D01*
G37*
D17*
X165354000Y-144145000D03*
D13*
G36*
X168312345Y-141860835D02*
X168349329Y-141866321D01*
X168385598Y-141875406D01*
X168420802Y-141888002D01*
X168454602Y-141903988D01*
X168486672Y-141923210D01*
X168516704Y-141945483D01*
X168544408Y-141970592D01*
X168569517Y-141998296D01*
X168591790Y-142028328D01*
X168611012Y-142060398D01*
X168626998Y-142094198D01*
X168639594Y-142129402D01*
X168648679Y-142165671D01*
X168654165Y-142202655D01*
X168656000Y-142240000D01*
X168656000Y-146050000D01*
X168654165Y-146087345D01*
X168648679Y-146124329D01*
X168639594Y-146160598D01*
X168626998Y-146195802D01*
X168611012Y-146229602D01*
X168591790Y-146261672D01*
X168569517Y-146291704D01*
X168544408Y-146319408D01*
X168516704Y-146344517D01*
X168486672Y-146366790D01*
X168454602Y-146386012D01*
X168420802Y-146401998D01*
X168385598Y-146414594D01*
X168349329Y-146423679D01*
X168312345Y-146429165D01*
X168275000Y-146431000D01*
X167513000Y-146431000D01*
X167475655Y-146429165D01*
X167438671Y-146423679D01*
X167402402Y-146414594D01*
X167367198Y-146401998D01*
X167333398Y-146386012D01*
X167301328Y-146366790D01*
X167271296Y-146344517D01*
X167243592Y-146319408D01*
X167218483Y-146291704D01*
X167196210Y-146261672D01*
X167176988Y-146229602D01*
X167161002Y-146195802D01*
X167148406Y-146160598D01*
X167139321Y-146124329D01*
X167133835Y-146087345D01*
X167132000Y-146050000D01*
X167132000Y-142240000D01*
X167133835Y-142202655D01*
X167139321Y-142165671D01*
X167148406Y-142129402D01*
X167161002Y-142094198D01*
X167176988Y-142060398D01*
X167196210Y-142028328D01*
X167218483Y-141998296D01*
X167243592Y-141970592D01*
X167271296Y-141945483D01*
X167301328Y-141923210D01*
X167333398Y-141903988D01*
X167367198Y-141888002D01*
X167402402Y-141875406D01*
X167438671Y-141866321D01*
X167475655Y-141860835D01*
X167513000Y-141859000D01*
X168275000Y-141859000D01*
X168312345Y-141860835D01*
X168312345Y-141860835D01*
G37*
D17*
X167894000Y-144145000D03*
D13*
G36*
X170852345Y-141860835D02*
X170889329Y-141866321D01*
X170925598Y-141875406D01*
X170960802Y-141888002D01*
X170994602Y-141903988D01*
X171026672Y-141923210D01*
X171056704Y-141945483D01*
X171084408Y-141970592D01*
X171109517Y-141998296D01*
X171131790Y-142028328D01*
X171151012Y-142060398D01*
X171166998Y-142094198D01*
X171179594Y-142129402D01*
X171188679Y-142165671D01*
X171194165Y-142202655D01*
X171196000Y-142240000D01*
X171196000Y-146050000D01*
X171194165Y-146087345D01*
X171188679Y-146124329D01*
X171179594Y-146160598D01*
X171166998Y-146195802D01*
X171151012Y-146229602D01*
X171131790Y-146261672D01*
X171109517Y-146291704D01*
X171084408Y-146319408D01*
X171056704Y-146344517D01*
X171026672Y-146366790D01*
X170994602Y-146386012D01*
X170960802Y-146401998D01*
X170925598Y-146414594D01*
X170889329Y-146423679D01*
X170852345Y-146429165D01*
X170815000Y-146431000D01*
X170053000Y-146431000D01*
X170015655Y-146429165D01*
X169978671Y-146423679D01*
X169942402Y-146414594D01*
X169907198Y-146401998D01*
X169873398Y-146386012D01*
X169841328Y-146366790D01*
X169811296Y-146344517D01*
X169783592Y-146319408D01*
X169758483Y-146291704D01*
X169736210Y-146261672D01*
X169716988Y-146229602D01*
X169701002Y-146195802D01*
X169688406Y-146160598D01*
X169679321Y-146124329D01*
X169673835Y-146087345D01*
X169672000Y-146050000D01*
X169672000Y-142240000D01*
X169673835Y-142202655D01*
X169679321Y-142165671D01*
X169688406Y-142129402D01*
X169701002Y-142094198D01*
X169716988Y-142060398D01*
X169736210Y-142028328D01*
X169758483Y-141998296D01*
X169783592Y-141970592D01*
X169811296Y-141945483D01*
X169841328Y-141923210D01*
X169873398Y-141903988D01*
X169907198Y-141888002D01*
X169942402Y-141875406D01*
X169978671Y-141866321D01*
X170015655Y-141860835D01*
X170053000Y-141859000D01*
X170815000Y-141859000D01*
X170852345Y-141860835D01*
X170852345Y-141860835D01*
G37*
D17*
X170434000Y-144145000D03*
D13*
G36*
X170852345Y-123572835D02*
X170889329Y-123578321D01*
X170925598Y-123587406D01*
X170960802Y-123600002D01*
X170994602Y-123615988D01*
X171026672Y-123635210D01*
X171056704Y-123657483D01*
X171084408Y-123682592D01*
X171109517Y-123710296D01*
X171131790Y-123740328D01*
X171151012Y-123772398D01*
X171166998Y-123806198D01*
X171179594Y-123841402D01*
X171188679Y-123877671D01*
X171194165Y-123914655D01*
X171196000Y-123952000D01*
X171196000Y-127762000D01*
X171194165Y-127799345D01*
X171188679Y-127836329D01*
X171179594Y-127872598D01*
X171166998Y-127907802D01*
X171151012Y-127941602D01*
X171131790Y-127973672D01*
X171109517Y-128003704D01*
X171084408Y-128031408D01*
X171056704Y-128056517D01*
X171026672Y-128078790D01*
X170994602Y-128098012D01*
X170960802Y-128113998D01*
X170925598Y-128126594D01*
X170889329Y-128135679D01*
X170852345Y-128141165D01*
X170815000Y-128143000D01*
X170053000Y-128143000D01*
X170015655Y-128141165D01*
X169978671Y-128135679D01*
X169942402Y-128126594D01*
X169907198Y-128113998D01*
X169873398Y-128098012D01*
X169841328Y-128078790D01*
X169811296Y-128056517D01*
X169783592Y-128031408D01*
X169758483Y-128003704D01*
X169736210Y-127973672D01*
X169716988Y-127941602D01*
X169701002Y-127907802D01*
X169688406Y-127872598D01*
X169679321Y-127836329D01*
X169673835Y-127799345D01*
X169672000Y-127762000D01*
X169672000Y-123952000D01*
X169673835Y-123914655D01*
X169679321Y-123877671D01*
X169688406Y-123841402D01*
X169701002Y-123806198D01*
X169716988Y-123772398D01*
X169736210Y-123740328D01*
X169758483Y-123710296D01*
X169783592Y-123682592D01*
X169811296Y-123657483D01*
X169841328Y-123635210D01*
X169873398Y-123615988D01*
X169907198Y-123600002D01*
X169942402Y-123587406D01*
X169978671Y-123578321D01*
X170015655Y-123572835D01*
X170053000Y-123571000D01*
X170815000Y-123571000D01*
X170852345Y-123572835D01*
X170852345Y-123572835D01*
G37*
D17*
X170434000Y-125857000D03*
D13*
G36*
X168312345Y-123572835D02*
X168349329Y-123578321D01*
X168385598Y-123587406D01*
X168420802Y-123600002D01*
X168454602Y-123615988D01*
X168486672Y-123635210D01*
X168516704Y-123657483D01*
X168544408Y-123682592D01*
X168569517Y-123710296D01*
X168591790Y-123740328D01*
X168611012Y-123772398D01*
X168626998Y-123806198D01*
X168639594Y-123841402D01*
X168648679Y-123877671D01*
X168654165Y-123914655D01*
X168656000Y-123952000D01*
X168656000Y-127762000D01*
X168654165Y-127799345D01*
X168648679Y-127836329D01*
X168639594Y-127872598D01*
X168626998Y-127907802D01*
X168611012Y-127941602D01*
X168591790Y-127973672D01*
X168569517Y-128003704D01*
X168544408Y-128031408D01*
X168516704Y-128056517D01*
X168486672Y-128078790D01*
X168454602Y-128098012D01*
X168420802Y-128113998D01*
X168385598Y-128126594D01*
X168349329Y-128135679D01*
X168312345Y-128141165D01*
X168275000Y-128143000D01*
X167513000Y-128143000D01*
X167475655Y-128141165D01*
X167438671Y-128135679D01*
X167402402Y-128126594D01*
X167367198Y-128113998D01*
X167333398Y-128098012D01*
X167301328Y-128078790D01*
X167271296Y-128056517D01*
X167243592Y-128031408D01*
X167218483Y-128003704D01*
X167196210Y-127973672D01*
X167176988Y-127941602D01*
X167161002Y-127907802D01*
X167148406Y-127872598D01*
X167139321Y-127836329D01*
X167133835Y-127799345D01*
X167132000Y-127762000D01*
X167132000Y-123952000D01*
X167133835Y-123914655D01*
X167139321Y-123877671D01*
X167148406Y-123841402D01*
X167161002Y-123806198D01*
X167176988Y-123772398D01*
X167196210Y-123740328D01*
X167218483Y-123710296D01*
X167243592Y-123682592D01*
X167271296Y-123657483D01*
X167301328Y-123635210D01*
X167333398Y-123615988D01*
X167367198Y-123600002D01*
X167402402Y-123587406D01*
X167438671Y-123578321D01*
X167475655Y-123572835D01*
X167513000Y-123571000D01*
X168275000Y-123571000D01*
X168312345Y-123572835D01*
X168312345Y-123572835D01*
G37*
D17*
X167894000Y-125857000D03*
D13*
G36*
X165772345Y-123572835D02*
X165809329Y-123578321D01*
X165845598Y-123587406D01*
X165880802Y-123600002D01*
X165914602Y-123615988D01*
X165946672Y-123635210D01*
X165976704Y-123657483D01*
X166004408Y-123682592D01*
X166029517Y-123710296D01*
X166051790Y-123740328D01*
X166071012Y-123772398D01*
X166086998Y-123806198D01*
X166099594Y-123841402D01*
X166108679Y-123877671D01*
X166114165Y-123914655D01*
X166116000Y-123952000D01*
X166116000Y-127762000D01*
X166114165Y-127799345D01*
X166108679Y-127836329D01*
X166099594Y-127872598D01*
X166086998Y-127907802D01*
X166071012Y-127941602D01*
X166051790Y-127973672D01*
X166029517Y-128003704D01*
X166004408Y-128031408D01*
X165976704Y-128056517D01*
X165946672Y-128078790D01*
X165914602Y-128098012D01*
X165880802Y-128113998D01*
X165845598Y-128126594D01*
X165809329Y-128135679D01*
X165772345Y-128141165D01*
X165735000Y-128143000D01*
X164973000Y-128143000D01*
X164935655Y-128141165D01*
X164898671Y-128135679D01*
X164862402Y-128126594D01*
X164827198Y-128113998D01*
X164793398Y-128098012D01*
X164761328Y-128078790D01*
X164731296Y-128056517D01*
X164703592Y-128031408D01*
X164678483Y-128003704D01*
X164656210Y-127973672D01*
X164636988Y-127941602D01*
X164621002Y-127907802D01*
X164608406Y-127872598D01*
X164599321Y-127836329D01*
X164593835Y-127799345D01*
X164592000Y-127762000D01*
X164592000Y-123952000D01*
X164593835Y-123914655D01*
X164599321Y-123877671D01*
X164608406Y-123841402D01*
X164621002Y-123806198D01*
X164636988Y-123772398D01*
X164656210Y-123740328D01*
X164678483Y-123710296D01*
X164703592Y-123682592D01*
X164731296Y-123657483D01*
X164761328Y-123635210D01*
X164793398Y-123615988D01*
X164827198Y-123600002D01*
X164862402Y-123587406D01*
X164898671Y-123578321D01*
X164935655Y-123572835D01*
X164973000Y-123571000D01*
X165735000Y-123571000D01*
X165772345Y-123572835D01*
X165772345Y-123572835D01*
G37*
D17*
X165354000Y-125857000D03*
D13*
G36*
X163232345Y-123572835D02*
X163269329Y-123578321D01*
X163305598Y-123587406D01*
X163340802Y-123600002D01*
X163374602Y-123615988D01*
X163406672Y-123635210D01*
X163436704Y-123657483D01*
X163464408Y-123682592D01*
X163489517Y-123710296D01*
X163511790Y-123740328D01*
X163531012Y-123772398D01*
X163546998Y-123806198D01*
X163559594Y-123841402D01*
X163568679Y-123877671D01*
X163574165Y-123914655D01*
X163576000Y-123952000D01*
X163576000Y-127762000D01*
X163574165Y-127799345D01*
X163568679Y-127836329D01*
X163559594Y-127872598D01*
X163546998Y-127907802D01*
X163531012Y-127941602D01*
X163511790Y-127973672D01*
X163489517Y-128003704D01*
X163464408Y-128031408D01*
X163436704Y-128056517D01*
X163406672Y-128078790D01*
X163374602Y-128098012D01*
X163340802Y-128113998D01*
X163305598Y-128126594D01*
X163269329Y-128135679D01*
X163232345Y-128141165D01*
X163195000Y-128143000D01*
X162433000Y-128143000D01*
X162395655Y-128141165D01*
X162358671Y-128135679D01*
X162322402Y-128126594D01*
X162287198Y-128113998D01*
X162253398Y-128098012D01*
X162221328Y-128078790D01*
X162191296Y-128056517D01*
X162163592Y-128031408D01*
X162138483Y-128003704D01*
X162116210Y-127973672D01*
X162096988Y-127941602D01*
X162081002Y-127907802D01*
X162068406Y-127872598D01*
X162059321Y-127836329D01*
X162053835Y-127799345D01*
X162052000Y-127762000D01*
X162052000Y-123952000D01*
X162053835Y-123914655D01*
X162059321Y-123877671D01*
X162068406Y-123841402D01*
X162081002Y-123806198D01*
X162096988Y-123772398D01*
X162116210Y-123740328D01*
X162138483Y-123710296D01*
X162163592Y-123682592D01*
X162191296Y-123657483D01*
X162221328Y-123635210D01*
X162253398Y-123615988D01*
X162287198Y-123600002D01*
X162322402Y-123587406D01*
X162358671Y-123578321D01*
X162395655Y-123572835D01*
X162433000Y-123571000D01*
X163195000Y-123571000D01*
X163232345Y-123572835D01*
X163232345Y-123572835D01*
G37*
D17*
X162814000Y-125857000D03*
D13*
G36*
X160692345Y-123572835D02*
X160729329Y-123578321D01*
X160765598Y-123587406D01*
X160800802Y-123600002D01*
X160834602Y-123615988D01*
X160866672Y-123635210D01*
X160896704Y-123657483D01*
X160924408Y-123682592D01*
X160949517Y-123710296D01*
X160971790Y-123740328D01*
X160991012Y-123772398D01*
X161006998Y-123806198D01*
X161019594Y-123841402D01*
X161028679Y-123877671D01*
X161034165Y-123914655D01*
X161036000Y-123952000D01*
X161036000Y-127762000D01*
X161034165Y-127799345D01*
X161028679Y-127836329D01*
X161019594Y-127872598D01*
X161006998Y-127907802D01*
X160991012Y-127941602D01*
X160971790Y-127973672D01*
X160949517Y-128003704D01*
X160924408Y-128031408D01*
X160896704Y-128056517D01*
X160866672Y-128078790D01*
X160834602Y-128098012D01*
X160800802Y-128113998D01*
X160765598Y-128126594D01*
X160729329Y-128135679D01*
X160692345Y-128141165D01*
X160655000Y-128143000D01*
X159893000Y-128143000D01*
X159855655Y-128141165D01*
X159818671Y-128135679D01*
X159782402Y-128126594D01*
X159747198Y-128113998D01*
X159713398Y-128098012D01*
X159681328Y-128078790D01*
X159651296Y-128056517D01*
X159623592Y-128031408D01*
X159598483Y-128003704D01*
X159576210Y-127973672D01*
X159556988Y-127941602D01*
X159541002Y-127907802D01*
X159528406Y-127872598D01*
X159519321Y-127836329D01*
X159513835Y-127799345D01*
X159512000Y-127762000D01*
X159512000Y-123952000D01*
X159513835Y-123914655D01*
X159519321Y-123877671D01*
X159528406Y-123841402D01*
X159541002Y-123806198D01*
X159556988Y-123772398D01*
X159576210Y-123740328D01*
X159598483Y-123710296D01*
X159623592Y-123682592D01*
X159651296Y-123657483D01*
X159681328Y-123635210D01*
X159713398Y-123615988D01*
X159747198Y-123600002D01*
X159782402Y-123587406D01*
X159818671Y-123578321D01*
X159855655Y-123572835D01*
X159893000Y-123571000D01*
X160655000Y-123571000D01*
X160692345Y-123572835D01*
X160692345Y-123572835D01*
G37*
D17*
X160274000Y-125857000D03*
D13*
G36*
X158152345Y-123572835D02*
X158189329Y-123578321D01*
X158225598Y-123587406D01*
X158260802Y-123600002D01*
X158294602Y-123615988D01*
X158326672Y-123635210D01*
X158356704Y-123657483D01*
X158384408Y-123682592D01*
X158409517Y-123710296D01*
X158431790Y-123740328D01*
X158451012Y-123772398D01*
X158466998Y-123806198D01*
X158479594Y-123841402D01*
X158488679Y-123877671D01*
X158494165Y-123914655D01*
X158496000Y-123952000D01*
X158496000Y-127762000D01*
X158494165Y-127799345D01*
X158488679Y-127836329D01*
X158479594Y-127872598D01*
X158466998Y-127907802D01*
X158451012Y-127941602D01*
X158431790Y-127973672D01*
X158409517Y-128003704D01*
X158384408Y-128031408D01*
X158356704Y-128056517D01*
X158326672Y-128078790D01*
X158294602Y-128098012D01*
X158260802Y-128113998D01*
X158225598Y-128126594D01*
X158189329Y-128135679D01*
X158152345Y-128141165D01*
X158115000Y-128143000D01*
X157353000Y-128143000D01*
X157315655Y-128141165D01*
X157278671Y-128135679D01*
X157242402Y-128126594D01*
X157207198Y-128113998D01*
X157173398Y-128098012D01*
X157141328Y-128078790D01*
X157111296Y-128056517D01*
X157083592Y-128031408D01*
X157058483Y-128003704D01*
X157036210Y-127973672D01*
X157016988Y-127941602D01*
X157001002Y-127907802D01*
X156988406Y-127872598D01*
X156979321Y-127836329D01*
X156973835Y-127799345D01*
X156972000Y-127762000D01*
X156972000Y-123952000D01*
X156973835Y-123914655D01*
X156979321Y-123877671D01*
X156988406Y-123841402D01*
X157001002Y-123806198D01*
X157016988Y-123772398D01*
X157036210Y-123740328D01*
X157058483Y-123710296D01*
X157083592Y-123682592D01*
X157111296Y-123657483D01*
X157141328Y-123635210D01*
X157173398Y-123615988D01*
X157207198Y-123600002D01*
X157242402Y-123587406D01*
X157278671Y-123578321D01*
X157315655Y-123572835D01*
X157353000Y-123571000D01*
X158115000Y-123571000D01*
X158152345Y-123572835D01*
X158152345Y-123572835D01*
G37*
D17*
X157734000Y-125857000D03*
D13*
G36*
X155612345Y-123572835D02*
X155649329Y-123578321D01*
X155685598Y-123587406D01*
X155720802Y-123600002D01*
X155754602Y-123615988D01*
X155786672Y-123635210D01*
X155816704Y-123657483D01*
X155844408Y-123682592D01*
X155869517Y-123710296D01*
X155891790Y-123740328D01*
X155911012Y-123772398D01*
X155926998Y-123806198D01*
X155939594Y-123841402D01*
X155948679Y-123877671D01*
X155954165Y-123914655D01*
X155956000Y-123952000D01*
X155956000Y-127762000D01*
X155954165Y-127799345D01*
X155948679Y-127836329D01*
X155939594Y-127872598D01*
X155926998Y-127907802D01*
X155911012Y-127941602D01*
X155891790Y-127973672D01*
X155869517Y-128003704D01*
X155844408Y-128031408D01*
X155816704Y-128056517D01*
X155786672Y-128078790D01*
X155754602Y-128098012D01*
X155720802Y-128113998D01*
X155685598Y-128126594D01*
X155649329Y-128135679D01*
X155612345Y-128141165D01*
X155575000Y-128143000D01*
X154813000Y-128143000D01*
X154775655Y-128141165D01*
X154738671Y-128135679D01*
X154702402Y-128126594D01*
X154667198Y-128113998D01*
X154633398Y-128098012D01*
X154601328Y-128078790D01*
X154571296Y-128056517D01*
X154543592Y-128031408D01*
X154518483Y-128003704D01*
X154496210Y-127973672D01*
X154476988Y-127941602D01*
X154461002Y-127907802D01*
X154448406Y-127872598D01*
X154439321Y-127836329D01*
X154433835Y-127799345D01*
X154432000Y-127762000D01*
X154432000Y-123952000D01*
X154433835Y-123914655D01*
X154439321Y-123877671D01*
X154448406Y-123841402D01*
X154461002Y-123806198D01*
X154476988Y-123772398D01*
X154496210Y-123740328D01*
X154518483Y-123710296D01*
X154543592Y-123682592D01*
X154571296Y-123657483D01*
X154601328Y-123635210D01*
X154633398Y-123615988D01*
X154667198Y-123600002D01*
X154702402Y-123587406D01*
X154738671Y-123578321D01*
X154775655Y-123572835D01*
X154813000Y-123571000D01*
X155575000Y-123571000D01*
X155612345Y-123572835D01*
X155612345Y-123572835D01*
G37*
D17*
X155194000Y-125857000D03*
D13*
G36*
X153072345Y-123572835D02*
X153109329Y-123578321D01*
X153145598Y-123587406D01*
X153180802Y-123600002D01*
X153214602Y-123615988D01*
X153246672Y-123635210D01*
X153276704Y-123657483D01*
X153304408Y-123682592D01*
X153329517Y-123710296D01*
X153351790Y-123740328D01*
X153371012Y-123772398D01*
X153386998Y-123806198D01*
X153399594Y-123841402D01*
X153408679Y-123877671D01*
X153414165Y-123914655D01*
X153416000Y-123952000D01*
X153416000Y-127762000D01*
X153414165Y-127799345D01*
X153408679Y-127836329D01*
X153399594Y-127872598D01*
X153386998Y-127907802D01*
X153371012Y-127941602D01*
X153351790Y-127973672D01*
X153329517Y-128003704D01*
X153304408Y-128031408D01*
X153276704Y-128056517D01*
X153246672Y-128078790D01*
X153214602Y-128098012D01*
X153180802Y-128113998D01*
X153145598Y-128126594D01*
X153109329Y-128135679D01*
X153072345Y-128141165D01*
X153035000Y-128143000D01*
X152273000Y-128143000D01*
X152235655Y-128141165D01*
X152198671Y-128135679D01*
X152162402Y-128126594D01*
X152127198Y-128113998D01*
X152093398Y-128098012D01*
X152061328Y-128078790D01*
X152031296Y-128056517D01*
X152003592Y-128031408D01*
X151978483Y-128003704D01*
X151956210Y-127973672D01*
X151936988Y-127941602D01*
X151921002Y-127907802D01*
X151908406Y-127872598D01*
X151899321Y-127836329D01*
X151893835Y-127799345D01*
X151892000Y-127762000D01*
X151892000Y-123952000D01*
X151893835Y-123914655D01*
X151899321Y-123877671D01*
X151908406Y-123841402D01*
X151921002Y-123806198D01*
X151936988Y-123772398D01*
X151956210Y-123740328D01*
X151978483Y-123710296D01*
X152003592Y-123682592D01*
X152031296Y-123657483D01*
X152061328Y-123635210D01*
X152093398Y-123615988D01*
X152127198Y-123600002D01*
X152162402Y-123587406D01*
X152198671Y-123578321D01*
X152235655Y-123572835D01*
X152273000Y-123571000D01*
X153035000Y-123571000D01*
X153072345Y-123572835D01*
X153072345Y-123572835D01*
G37*
D17*
X152654000Y-125857000D03*
D13*
G36*
X150532345Y-123572835D02*
X150569329Y-123578321D01*
X150605598Y-123587406D01*
X150640802Y-123600002D01*
X150674602Y-123615988D01*
X150706672Y-123635210D01*
X150736704Y-123657483D01*
X150764408Y-123682592D01*
X150789517Y-123710296D01*
X150811790Y-123740328D01*
X150831012Y-123772398D01*
X150846998Y-123806198D01*
X150859594Y-123841402D01*
X150868679Y-123877671D01*
X150874165Y-123914655D01*
X150876000Y-123952000D01*
X150876000Y-127762000D01*
X150874165Y-127799345D01*
X150868679Y-127836329D01*
X150859594Y-127872598D01*
X150846998Y-127907802D01*
X150831012Y-127941602D01*
X150811790Y-127973672D01*
X150789517Y-128003704D01*
X150764408Y-128031408D01*
X150736704Y-128056517D01*
X150706672Y-128078790D01*
X150674602Y-128098012D01*
X150640802Y-128113998D01*
X150605598Y-128126594D01*
X150569329Y-128135679D01*
X150532345Y-128141165D01*
X150495000Y-128143000D01*
X149733000Y-128143000D01*
X149695655Y-128141165D01*
X149658671Y-128135679D01*
X149622402Y-128126594D01*
X149587198Y-128113998D01*
X149553398Y-128098012D01*
X149521328Y-128078790D01*
X149491296Y-128056517D01*
X149463592Y-128031408D01*
X149438483Y-128003704D01*
X149416210Y-127973672D01*
X149396988Y-127941602D01*
X149381002Y-127907802D01*
X149368406Y-127872598D01*
X149359321Y-127836329D01*
X149353835Y-127799345D01*
X149352000Y-127762000D01*
X149352000Y-123952000D01*
X149353835Y-123914655D01*
X149359321Y-123877671D01*
X149368406Y-123841402D01*
X149381002Y-123806198D01*
X149396988Y-123772398D01*
X149416210Y-123740328D01*
X149438483Y-123710296D01*
X149463592Y-123682592D01*
X149491296Y-123657483D01*
X149521328Y-123635210D01*
X149553398Y-123615988D01*
X149587198Y-123600002D01*
X149622402Y-123587406D01*
X149658671Y-123578321D01*
X149695655Y-123572835D01*
X149733000Y-123571000D01*
X150495000Y-123571000D01*
X150532345Y-123572835D01*
X150532345Y-123572835D01*
G37*
D17*
X150114000Y-125857000D03*
D13*
G36*
X147992345Y-123572835D02*
X148029329Y-123578321D01*
X148065598Y-123587406D01*
X148100802Y-123600002D01*
X148134602Y-123615988D01*
X148166672Y-123635210D01*
X148196704Y-123657483D01*
X148224408Y-123682592D01*
X148249517Y-123710296D01*
X148271790Y-123740328D01*
X148291012Y-123772398D01*
X148306998Y-123806198D01*
X148319594Y-123841402D01*
X148328679Y-123877671D01*
X148334165Y-123914655D01*
X148336000Y-123952000D01*
X148336000Y-127762000D01*
X148334165Y-127799345D01*
X148328679Y-127836329D01*
X148319594Y-127872598D01*
X148306998Y-127907802D01*
X148291012Y-127941602D01*
X148271790Y-127973672D01*
X148249517Y-128003704D01*
X148224408Y-128031408D01*
X148196704Y-128056517D01*
X148166672Y-128078790D01*
X148134602Y-128098012D01*
X148100802Y-128113998D01*
X148065598Y-128126594D01*
X148029329Y-128135679D01*
X147992345Y-128141165D01*
X147955000Y-128143000D01*
X147193000Y-128143000D01*
X147155655Y-128141165D01*
X147118671Y-128135679D01*
X147082402Y-128126594D01*
X147047198Y-128113998D01*
X147013398Y-128098012D01*
X146981328Y-128078790D01*
X146951296Y-128056517D01*
X146923592Y-128031408D01*
X146898483Y-128003704D01*
X146876210Y-127973672D01*
X146856988Y-127941602D01*
X146841002Y-127907802D01*
X146828406Y-127872598D01*
X146819321Y-127836329D01*
X146813835Y-127799345D01*
X146812000Y-127762000D01*
X146812000Y-123952000D01*
X146813835Y-123914655D01*
X146819321Y-123877671D01*
X146828406Y-123841402D01*
X146841002Y-123806198D01*
X146856988Y-123772398D01*
X146876210Y-123740328D01*
X146898483Y-123710296D01*
X146923592Y-123682592D01*
X146951296Y-123657483D01*
X146981328Y-123635210D01*
X147013398Y-123615988D01*
X147047198Y-123600002D01*
X147082402Y-123587406D01*
X147118671Y-123578321D01*
X147155655Y-123572835D01*
X147193000Y-123571000D01*
X147955000Y-123571000D01*
X147992345Y-123572835D01*
X147992345Y-123572835D01*
G37*
D17*
X147574000Y-125857000D03*
D13*
G36*
X145452345Y-123572835D02*
X145489329Y-123578321D01*
X145525598Y-123587406D01*
X145560802Y-123600002D01*
X145594602Y-123615988D01*
X145626672Y-123635210D01*
X145656704Y-123657483D01*
X145684408Y-123682592D01*
X145709517Y-123710296D01*
X145731790Y-123740328D01*
X145751012Y-123772398D01*
X145766998Y-123806198D01*
X145779594Y-123841402D01*
X145788679Y-123877671D01*
X145794165Y-123914655D01*
X145796000Y-123952000D01*
X145796000Y-127762000D01*
X145794165Y-127799345D01*
X145788679Y-127836329D01*
X145779594Y-127872598D01*
X145766998Y-127907802D01*
X145751012Y-127941602D01*
X145731790Y-127973672D01*
X145709517Y-128003704D01*
X145684408Y-128031408D01*
X145656704Y-128056517D01*
X145626672Y-128078790D01*
X145594602Y-128098012D01*
X145560802Y-128113998D01*
X145525598Y-128126594D01*
X145489329Y-128135679D01*
X145452345Y-128141165D01*
X145415000Y-128143000D01*
X144653000Y-128143000D01*
X144615655Y-128141165D01*
X144578671Y-128135679D01*
X144542402Y-128126594D01*
X144507198Y-128113998D01*
X144473398Y-128098012D01*
X144441328Y-128078790D01*
X144411296Y-128056517D01*
X144383592Y-128031408D01*
X144358483Y-128003704D01*
X144336210Y-127973672D01*
X144316988Y-127941602D01*
X144301002Y-127907802D01*
X144288406Y-127872598D01*
X144279321Y-127836329D01*
X144273835Y-127799345D01*
X144272000Y-127762000D01*
X144272000Y-123952000D01*
X144273835Y-123914655D01*
X144279321Y-123877671D01*
X144288406Y-123841402D01*
X144301002Y-123806198D01*
X144316988Y-123772398D01*
X144336210Y-123740328D01*
X144358483Y-123710296D01*
X144383592Y-123682592D01*
X144411296Y-123657483D01*
X144441328Y-123635210D01*
X144473398Y-123615988D01*
X144507198Y-123600002D01*
X144542402Y-123587406D01*
X144578671Y-123578321D01*
X144615655Y-123572835D01*
X144653000Y-123571000D01*
X145415000Y-123571000D01*
X145452345Y-123572835D01*
X145452345Y-123572835D01*
G37*
D17*
X145034000Y-125857000D03*
D13*
G36*
X142912345Y-123572835D02*
X142949329Y-123578321D01*
X142985598Y-123587406D01*
X143020802Y-123600002D01*
X143054602Y-123615988D01*
X143086672Y-123635210D01*
X143116704Y-123657483D01*
X143144408Y-123682592D01*
X143169517Y-123710296D01*
X143191790Y-123740328D01*
X143211012Y-123772398D01*
X143226998Y-123806198D01*
X143239594Y-123841402D01*
X143248679Y-123877671D01*
X143254165Y-123914655D01*
X143256000Y-123952000D01*
X143256000Y-127762000D01*
X143254165Y-127799345D01*
X143248679Y-127836329D01*
X143239594Y-127872598D01*
X143226998Y-127907802D01*
X143211012Y-127941602D01*
X143191790Y-127973672D01*
X143169517Y-128003704D01*
X143144408Y-128031408D01*
X143116704Y-128056517D01*
X143086672Y-128078790D01*
X143054602Y-128098012D01*
X143020802Y-128113998D01*
X142985598Y-128126594D01*
X142949329Y-128135679D01*
X142912345Y-128141165D01*
X142875000Y-128143000D01*
X142113000Y-128143000D01*
X142075655Y-128141165D01*
X142038671Y-128135679D01*
X142002402Y-128126594D01*
X141967198Y-128113998D01*
X141933398Y-128098012D01*
X141901328Y-128078790D01*
X141871296Y-128056517D01*
X141843592Y-128031408D01*
X141818483Y-128003704D01*
X141796210Y-127973672D01*
X141776988Y-127941602D01*
X141761002Y-127907802D01*
X141748406Y-127872598D01*
X141739321Y-127836329D01*
X141733835Y-127799345D01*
X141732000Y-127762000D01*
X141732000Y-123952000D01*
X141733835Y-123914655D01*
X141739321Y-123877671D01*
X141748406Y-123841402D01*
X141761002Y-123806198D01*
X141776988Y-123772398D01*
X141796210Y-123740328D01*
X141818483Y-123710296D01*
X141843592Y-123682592D01*
X141871296Y-123657483D01*
X141901328Y-123635210D01*
X141933398Y-123615988D01*
X141967198Y-123600002D01*
X142002402Y-123587406D01*
X142038671Y-123578321D01*
X142075655Y-123572835D01*
X142113000Y-123571000D01*
X142875000Y-123571000D01*
X142912345Y-123572835D01*
X142912345Y-123572835D01*
G37*
D17*
X142494000Y-125857000D03*
D13*
G36*
X140372345Y-123572835D02*
X140409329Y-123578321D01*
X140445598Y-123587406D01*
X140480802Y-123600002D01*
X140514602Y-123615988D01*
X140546672Y-123635210D01*
X140576704Y-123657483D01*
X140604408Y-123682592D01*
X140629517Y-123710296D01*
X140651790Y-123740328D01*
X140671012Y-123772398D01*
X140686998Y-123806198D01*
X140699594Y-123841402D01*
X140708679Y-123877671D01*
X140714165Y-123914655D01*
X140716000Y-123952000D01*
X140716000Y-127762000D01*
X140714165Y-127799345D01*
X140708679Y-127836329D01*
X140699594Y-127872598D01*
X140686998Y-127907802D01*
X140671012Y-127941602D01*
X140651790Y-127973672D01*
X140629517Y-128003704D01*
X140604408Y-128031408D01*
X140576704Y-128056517D01*
X140546672Y-128078790D01*
X140514602Y-128098012D01*
X140480802Y-128113998D01*
X140445598Y-128126594D01*
X140409329Y-128135679D01*
X140372345Y-128141165D01*
X140335000Y-128143000D01*
X139573000Y-128143000D01*
X139535655Y-128141165D01*
X139498671Y-128135679D01*
X139462402Y-128126594D01*
X139427198Y-128113998D01*
X139393398Y-128098012D01*
X139361328Y-128078790D01*
X139331296Y-128056517D01*
X139303592Y-128031408D01*
X139278483Y-128003704D01*
X139256210Y-127973672D01*
X139236988Y-127941602D01*
X139221002Y-127907802D01*
X139208406Y-127872598D01*
X139199321Y-127836329D01*
X139193835Y-127799345D01*
X139192000Y-127762000D01*
X139192000Y-123952000D01*
X139193835Y-123914655D01*
X139199321Y-123877671D01*
X139208406Y-123841402D01*
X139221002Y-123806198D01*
X139236988Y-123772398D01*
X139256210Y-123740328D01*
X139278483Y-123710296D01*
X139303592Y-123682592D01*
X139331296Y-123657483D01*
X139361328Y-123635210D01*
X139393398Y-123615988D01*
X139427198Y-123600002D01*
X139462402Y-123587406D01*
X139498671Y-123578321D01*
X139535655Y-123572835D01*
X139573000Y-123571000D01*
X140335000Y-123571000D01*
X140372345Y-123572835D01*
X140372345Y-123572835D01*
G37*
D17*
X139954000Y-125857000D03*
D13*
G36*
X137832345Y-123572835D02*
X137869329Y-123578321D01*
X137905598Y-123587406D01*
X137940802Y-123600002D01*
X137974602Y-123615988D01*
X138006672Y-123635210D01*
X138036704Y-123657483D01*
X138064408Y-123682592D01*
X138089517Y-123710296D01*
X138111790Y-123740328D01*
X138131012Y-123772398D01*
X138146998Y-123806198D01*
X138159594Y-123841402D01*
X138168679Y-123877671D01*
X138174165Y-123914655D01*
X138176000Y-123952000D01*
X138176000Y-127762000D01*
X138174165Y-127799345D01*
X138168679Y-127836329D01*
X138159594Y-127872598D01*
X138146998Y-127907802D01*
X138131012Y-127941602D01*
X138111790Y-127973672D01*
X138089517Y-128003704D01*
X138064408Y-128031408D01*
X138036704Y-128056517D01*
X138006672Y-128078790D01*
X137974602Y-128098012D01*
X137940802Y-128113998D01*
X137905598Y-128126594D01*
X137869329Y-128135679D01*
X137832345Y-128141165D01*
X137795000Y-128143000D01*
X137033000Y-128143000D01*
X136995655Y-128141165D01*
X136958671Y-128135679D01*
X136922402Y-128126594D01*
X136887198Y-128113998D01*
X136853398Y-128098012D01*
X136821328Y-128078790D01*
X136791296Y-128056517D01*
X136763592Y-128031408D01*
X136738483Y-128003704D01*
X136716210Y-127973672D01*
X136696988Y-127941602D01*
X136681002Y-127907802D01*
X136668406Y-127872598D01*
X136659321Y-127836329D01*
X136653835Y-127799345D01*
X136652000Y-127762000D01*
X136652000Y-123952000D01*
X136653835Y-123914655D01*
X136659321Y-123877671D01*
X136668406Y-123841402D01*
X136681002Y-123806198D01*
X136696988Y-123772398D01*
X136716210Y-123740328D01*
X136738483Y-123710296D01*
X136763592Y-123682592D01*
X136791296Y-123657483D01*
X136821328Y-123635210D01*
X136853398Y-123615988D01*
X136887198Y-123600002D01*
X136922402Y-123587406D01*
X136958671Y-123578321D01*
X136995655Y-123572835D01*
X137033000Y-123571000D01*
X137795000Y-123571000D01*
X137832345Y-123572835D01*
X137832345Y-123572835D01*
G37*
D17*
X137414000Y-125857000D03*
D13*
G36*
X135292345Y-123572835D02*
X135329329Y-123578321D01*
X135365598Y-123587406D01*
X135400802Y-123600002D01*
X135434602Y-123615988D01*
X135466672Y-123635210D01*
X135496704Y-123657483D01*
X135524408Y-123682592D01*
X135549517Y-123710296D01*
X135571790Y-123740328D01*
X135591012Y-123772398D01*
X135606998Y-123806198D01*
X135619594Y-123841402D01*
X135628679Y-123877671D01*
X135634165Y-123914655D01*
X135636000Y-123952000D01*
X135636000Y-127762000D01*
X135634165Y-127799345D01*
X135628679Y-127836329D01*
X135619594Y-127872598D01*
X135606998Y-127907802D01*
X135591012Y-127941602D01*
X135571790Y-127973672D01*
X135549517Y-128003704D01*
X135524408Y-128031408D01*
X135496704Y-128056517D01*
X135466672Y-128078790D01*
X135434602Y-128098012D01*
X135400802Y-128113998D01*
X135365598Y-128126594D01*
X135329329Y-128135679D01*
X135292345Y-128141165D01*
X135255000Y-128143000D01*
X134493000Y-128143000D01*
X134455655Y-128141165D01*
X134418671Y-128135679D01*
X134382402Y-128126594D01*
X134347198Y-128113998D01*
X134313398Y-128098012D01*
X134281328Y-128078790D01*
X134251296Y-128056517D01*
X134223592Y-128031408D01*
X134198483Y-128003704D01*
X134176210Y-127973672D01*
X134156988Y-127941602D01*
X134141002Y-127907802D01*
X134128406Y-127872598D01*
X134119321Y-127836329D01*
X134113835Y-127799345D01*
X134112000Y-127762000D01*
X134112000Y-123952000D01*
X134113835Y-123914655D01*
X134119321Y-123877671D01*
X134128406Y-123841402D01*
X134141002Y-123806198D01*
X134156988Y-123772398D01*
X134176210Y-123740328D01*
X134198483Y-123710296D01*
X134223592Y-123682592D01*
X134251296Y-123657483D01*
X134281328Y-123635210D01*
X134313398Y-123615988D01*
X134347198Y-123600002D01*
X134382402Y-123587406D01*
X134418671Y-123578321D01*
X134455655Y-123572835D01*
X134493000Y-123571000D01*
X135255000Y-123571000D01*
X135292345Y-123572835D01*
X135292345Y-123572835D01*
G37*
D17*
X134874000Y-125857000D03*
D13*
G36*
X132752345Y-123572835D02*
X132789329Y-123578321D01*
X132825598Y-123587406D01*
X132860802Y-123600002D01*
X132894602Y-123615988D01*
X132926672Y-123635210D01*
X132956704Y-123657483D01*
X132984408Y-123682592D01*
X133009517Y-123710296D01*
X133031790Y-123740328D01*
X133051012Y-123772398D01*
X133066998Y-123806198D01*
X133079594Y-123841402D01*
X133088679Y-123877671D01*
X133094165Y-123914655D01*
X133096000Y-123952000D01*
X133096000Y-127762000D01*
X133094165Y-127799345D01*
X133088679Y-127836329D01*
X133079594Y-127872598D01*
X133066998Y-127907802D01*
X133051012Y-127941602D01*
X133031790Y-127973672D01*
X133009517Y-128003704D01*
X132984408Y-128031408D01*
X132956704Y-128056517D01*
X132926672Y-128078790D01*
X132894602Y-128098012D01*
X132860802Y-128113998D01*
X132825598Y-128126594D01*
X132789329Y-128135679D01*
X132752345Y-128141165D01*
X132715000Y-128143000D01*
X131953000Y-128143000D01*
X131915655Y-128141165D01*
X131878671Y-128135679D01*
X131842402Y-128126594D01*
X131807198Y-128113998D01*
X131773398Y-128098012D01*
X131741328Y-128078790D01*
X131711296Y-128056517D01*
X131683592Y-128031408D01*
X131658483Y-128003704D01*
X131636210Y-127973672D01*
X131616988Y-127941602D01*
X131601002Y-127907802D01*
X131588406Y-127872598D01*
X131579321Y-127836329D01*
X131573835Y-127799345D01*
X131572000Y-127762000D01*
X131572000Y-123952000D01*
X131573835Y-123914655D01*
X131579321Y-123877671D01*
X131588406Y-123841402D01*
X131601002Y-123806198D01*
X131616988Y-123772398D01*
X131636210Y-123740328D01*
X131658483Y-123710296D01*
X131683592Y-123682592D01*
X131711296Y-123657483D01*
X131741328Y-123635210D01*
X131773398Y-123615988D01*
X131807198Y-123600002D01*
X131842402Y-123587406D01*
X131878671Y-123578321D01*
X131915655Y-123572835D01*
X131953000Y-123571000D01*
X132715000Y-123571000D01*
X132752345Y-123572835D01*
X132752345Y-123572835D01*
G37*
D17*
X132334000Y-125857000D03*
D13*
G36*
X130212345Y-123572835D02*
X130249329Y-123578321D01*
X130285598Y-123587406D01*
X130320802Y-123600002D01*
X130354602Y-123615988D01*
X130386672Y-123635210D01*
X130416704Y-123657483D01*
X130444408Y-123682592D01*
X130469517Y-123710296D01*
X130491790Y-123740328D01*
X130511012Y-123772398D01*
X130526998Y-123806198D01*
X130539594Y-123841402D01*
X130548679Y-123877671D01*
X130554165Y-123914655D01*
X130556000Y-123952000D01*
X130556000Y-127762000D01*
X130554165Y-127799345D01*
X130548679Y-127836329D01*
X130539594Y-127872598D01*
X130526998Y-127907802D01*
X130511012Y-127941602D01*
X130491790Y-127973672D01*
X130469517Y-128003704D01*
X130444408Y-128031408D01*
X130416704Y-128056517D01*
X130386672Y-128078790D01*
X130354602Y-128098012D01*
X130320802Y-128113998D01*
X130285598Y-128126594D01*
X130249329Y-128135679D01*
X130212345Y-128141165D01*
X130175000Y-128143000D01*
X129413000Y-128143000D01*
X129375655Y-128141165D01*
X129338671Y-128135679D01*
X129302402Y-128126594D01*
X129267198Y-128113998D01*
X129233398Y-128098012D01*
X129201328Y-128078790D01*
X129171296Y-128056517D01*
X129143592Y-128031408D01*
X129118483Y-128003704D01*
X129096210Y-127973672D01*
X129076988Y-127941602D01*
X129061002Y-127907802D01*
X129048406Y-127872598D01*
X129039321Y-127836329D01*
X129033835Y-127799345D01*
X129032000Y-127762000D01*
X129032000Y-123952000D01*
X129033835Y-123914655D01*
X129039321Y-123877671D01*
X129048406Y-123841402D01*
X129061002Y-123806198D01*
X129076988Y-123772398D01*
X129096210Y-123740328D01*
X129118483Y-123710296D01*
X129143592Y-123682592D01*
X129171296Y-123657483D01*
X129201328Y-123635210D01*
X129233398Y-123615988D01*
X129267198Y-123600002D01*
X129302402Y-123587406D01*
X129338671Y-123578321D01*
X129375655Y-123572835D01*
X129413000Y-123571000D01*
X130175000Y-123571000D01*
X130212345Y-123572835D01*
X130212345Y-123572835D01*
G37*
D17*
X129794000Y-125857000D03*
D13*
G36*
X127672345Y-123572835D02*
X127709329Y-123578321D01*
X127745598Y-123587406D01*
X127780802Y-123600002D01*
X127814602Y-123615988D01*
X127846672Y-123635210D01*
X127876704Y-123657483D01*
X127904408Y-123682592D01*
X127929517Y-123710296D01*
X127951790Y-123740328D01*
X127971012Y-123772398D01*
X127986998Y-123806198D01*
X127999594Y-123841402D01*
X128008679Y-123877671D01*
X128014165Y-123914655D01*
X128016000Y-123952000D01*
X128016000Y-127762000D01*
X128014165Y-127799345D01*
X128008679Y-127836329D01*
X127999594Y-127872598D01*
X127986998Y-127907802D01*
X127971012Y-127941602D01*
X127951790Y-127973672D01*
X127929517Y-128003704D01*
X127904408Y-128031408D01*
X127876704Y-128056517D01*
X127846672Y-128078790D01*
X127814602Y-128098012D01*
X127780802Y-128113998D01*
X127745598Y-128126594D01*
X127709329Y-128135679D01*
X127672345Y-128141165D01*
X127635000Y-128143000D01*
X126873000Y-128143000D01*
X126835655Y-128141165D01*
X126798671Y-128135679D01*
X126762402Y-128126594D01*
X126727198Y-128113998D01*
X126693398Y-128098012D01*
X126661328Y-128078790D01*
X126631296Y-128056517D01*
X126603592Y-128031408D01*
X126578483Y-128003704D01*
X126556210Y-127973672D01*
X126536988Y-127941602D01*
X126521002Y-127907802D01*
X126508406Y-127872598D01*
X126499321Y-127836329D01*
X126493835Y-127799345D01*
X126492000Y-127762000D01*
X126492000Y-123952000D01*
X126493835Y-123914655D01*
X126499321Y-123877671D01*
X126508406Y-123841402D01*
X126521002Y-123806198D01*
X126536988Y-123772398D01*
X126556210Y-123740328D01*
X126578483Y-123710296D01*
X126603592Y-123682592D01*
X126631296Y-123657483D01*
X126661328Y-123635210D01*
X126693398Y-123615988D01*
X126727198Y-123600002D01*
X126762402Y-123587406D01*
X126798671Y-123578321D01*
X126835655Y-123572835D01*
X126873000Y-123571000D01*
X127635000Y-123571000D01*
X127672345Y-123572835D01*
X127672345Y-123572835D01*
G37*
D17*
X127254000Y-125857000D03*
D13*
G36*
X125132345Y-123572835D02*
X125169329Y-123578321D01*
X125205598Y-123587406D01*
X125240802Y-123600002D01*
X125274602Y-123615988D01*
X125306672Y-123635210D01*
X125336704Y-123657483D01*
X125364408Y-123682592D01*
X125389517Y-123710296D01*
X125411790Y-123740328D01*
X125431012Y-123772398D01*
X125446998Y-123806198D01*
X125459594Y-123841402D01*
X125468679Y-123877671D01*
X125474165Y-123914655D01*
X125476000Y-123952000D01*
X125476000Y-127762000D01*
X125474165Y-127799345D01*
X125468679Y-127836329D01*
X125459594Y-127872598D01*
X125446998Y-127907802D01*
X125431012Y-127941602D01*
X125411790Y-127973672D01*
X125389517Y-128003704D01*
X125364408Y-128031408D01*
X125336704Y-128056517D01*
X125306672Y-128078790D01*
X125274602Y-128098012D01*
X125240802Y-128113998D01*
X125205598Y-128126594D01*
X125169329Y-128135679D01*
X125132345Y-128141165D01*
X125095000Y-128143000D01*
X124333000Y-128143000D01*
X124295655Y-128141165D01*
X124258671Y-128135679D01*
X124222402Y-128126594D01*
X124187198Y-128113998D01*
X124153398Y-128098012D01*
X124121328Y-128078790D01*
X124091296Y-128056517D01*
X124063592Y-128031408D01*
X124038483Y-128003704D01*
X124016210Y-127973672D01*
X123996988Y-127941602D01*
X123981002Y-127907802D01*
X123968406Y-127872598D01*
X123959321Y-127836329D01*
X123953835Y-127799345D01*
X123952000Y-127762000D01*
X123952000Y-123952000D01*
X123953835Y-123914655D01*
X123959321Y-123877671D01*
X123968406Y-123841402D01*
X123981002Y-123806198D01*
X123996988Y-123772398D01*
X124016210Y-123740328D01*
X124038483Y-123710296D01*
X124063592Y-123682592D01*
X124091296Y-123657483D01*
X124121328Y-123635210D01*
X124153398Y-123615988D01*
X124187198Y-123600002D01*
X124222402Y-123587406D01*
X124258671Y-123578321D01*
X124295655Y-123572835D01*
X124333000Y-123571000D01*
X125095000Y-123571000D01*
X125132345Y-123572835D01*
X125132345Y-123572835D01*
G37*
D17*
X124714000Y-125857000D03*
D18*
X122174000Y-125857000D03*
G04 #@! TD*
D19*
G04 #@! TO.C,U2*
X193167000Y-100203000D03*
X194437000Y-100203000D03*
X195707000Y-100203000D03*
X196977000Y-100203000D03*
X196977000Y-93853000D03*
X195707000Y-93853000D03*
X194437000Y-93853000D03*
X193167000Y-93853000D03*
G04 #@! TD*
M02*
