0
SECTION
2
HEADER
9
$INSUNITS
70
1
9
$ACADVER
1
AC1014
9
$HANDSEED
5
FFFF
0
ENDSEC
0
SECTION
2
TABLES
0
TABLE
2
VPORT
5
8
100
AcDbSymbolTable
0
ENDTAB
0
TABLE
2
LTYPE
5
5
100
AcDbSymbolTable
0
LTYPE
5
14
100
AcDbSymbolTableRecord
100
AcDbLinetypeTableRecord
2
BYBLOCK
70
0
0
LTYPE
5
15
100
AcDbSymbolTableRecord
100
AcDbLinetypeTableRecord
2
BYLAYER
70
0
0
ENDTAB
0
TABLE
2
LAYER
5
2
100
AcDbSymbolTable
70
2
0
LAYER
5
50
100
AcDbSymbolTableRecord
100
AcDbLayerTableRecord
2
0
70
0
6
CONTINUOUS
0
ENDTAB
0
TABLE
2
STYLE
5
3
100
AcDbSymbolTable
70
1
0
STYLE
5
11
100
AcDbSymbolTableRecord
100
AcDbTextStyleTableRecord
2
STANDARD
70
0
0
ENDTAB
0
TABLE
2
VIEW
5
6
100
AcDbSymbolTable
70
0
0
ENDTAB
0
TABLE
2
UCS
5
7
100
AcDbSymbolTable
70
0
0
ENDTAB
0
TABLE
2
APPID
5
9
100
AcDbSymbolTable
70
2
0
APPID
5
12
100
AcDbSymbolTableRecord
100
AcDbRegAppTableRecord
2
ACAD
70
0
0
ENDTAB
0
TABLE
2
DIMSTYLE
5
A
100
AcDbSymbolTable
70
1
0
ENDTAB
0
TABLE
2
BLOCK_RECORD
5
1
100
AcDbSymbolTable
70
1
0
BLOCK_RECORD
5
1F
100
AcDbSymbolTableRecord
100
AcDbBlockTableRecord
2
*MODEL_SPACE
0
BLOCK_RECORD
5
1B
100
AcDbSymbolTableRecord
100
AcDbBlockTableRecord
2
*PAPER_SPACE
0
ENDTAB
0
ENDSEC
0
SECTION
2
BLOCKS
0
BLOCK
5
20
100
AcDbEntity
100
AcDbBlockBegin
2
*MODEL_SPACE
0
ENDBLK
5
21
100
AcDbEntity
100
AcDbBlockEnd
0
BLOCK
5
1C
100
AcDbEntity
100
AcDbBlockBegin
2
*PAPER_SPACE
0
ENDBLK
5
1D
100
AcDbEntity
100
AcDbBlockEnd
0
ENDSEC
0
SECTION
2
ENTITIES
0
LWPOLYLINE
5
100
100
AcDbEntity
8
0
100
AcDbPolyline
90
4
70
1
43
0.0
10
-4.1367958451721449
20
2.5043940541798682
10
3.7841265938813362
20
2.5043940541798682
10
3.7841265938813362
20
-2.4341709509132419
10
-4.1367958451721449
20
-2.4341709509132419
0
SPLINE
5
101
100
AcDbEntity
8
0
100
AcDbSpline
70
2
71
3
72
380
73
376
74
0
42
0.000000001
43
0.0000000001
44
0.0000000001
40
0
40
0
40
0
40
0
40
0.009350330392249067
40
0.009350330392249067
40
0.009350330392249067
40
0.018197784056901027
40
0.018197784056901027
40
0.018197784056901027
40
0.026138602217608931
40
0.026138602217608931
40
0.026138602217608931
40
0.033578612459910395
40
0.033578612459910395
40
0.033578612459910395
40
0.043510481766908783
40
0.043510481766908783
40
0.043510481766908783
40
0.049648319215657058
40
0.049648319215657058
40
0.049648319215657058
40
0.054756859373609024
40
0.054756859373609024
40
0.054756859373609024
40
0.060191940195845305
40
0.060191940195845305
40
0.060191940195845305
40
0.068295743163358805
40
0.068295743163358805
40
0.068295743163358805
40
0.07563106842934543
40
0.07563106842934543
40
0.07563106842934543
40
0.08335888294533883
40
0.08335888294533883
40
0.08335888294533883
40
0.088584485294008183
40
0.088584485294008183
40
0.088584485294008183
40
0.093609659871467923
40
0.093609659871467923
40
0.093609659871467923
40
0.099243930495760524
40
0.099243930495760524
40
0.099243930495760524
40
0.10642475275519929
40
0.10642475275519929
40
0.10642475275519929
40
0.11333271673913486
40
0.11333271673913486
40
0.11333271673913486
40
0.12097061612951078
40
0.12097061612951078
40
0.12097061612951078
40
0.12794818361787555
40
0.12794818361787555
40
0.12794818361787555
40
0.13541389887912625
40
0.13541389887912625
40
0.13541389887912625
40
0.14316021062594314
40
0.14316021062594314
40
0.14316021062594314
40
0.15287420222301221
40
0.15287420222301221
40
0.15287420222301221
40
0.16098460060244876
40
0.16098460060244876
40
0.16098460060244876
40
0.16922573492739532
40
0.16922573492739532
40
0.16922573492739532
40
0.17963909002739914
40
0.17963909002739914
40
0.17963909002739914
40
0.19138458632176181
40
0.19138458632176181
40
0.19138458632176181
40
0.20227556719414183
40
0.20227556719414183
40
0.20227556719414183
40
0.21474001145673335
40
0.21474001145673335
40
0.21474001145673335
40
0.23007139255798498
40
0.23007139255798498
40
0.23007139255798498
40
0.25020179391049913
40
0.25020179391049913
40
0.25020179391049913
40
0.27088570257652234
40
0.27088570257652234
40
0.27088570257652234
40
0.28190319301151168
40
0.28190319301151168
40
0.28190319301151168
40
0.2931234556207068
40
0.2931234556207068
40
0.2931234556207068
40
0.30416840162663328
40
0.30416840162663328
40
0.30416840162663328
40
0.31320155190665844
40
0.31320155190665844
40
0.31320155190665844
40
0.3239327776581169
40
0.3239327776581169
40
0.3239327776581169
40
0.33258546634912456
40
0.33258546634912456
40
0.33258546634912456
40
0.34092793188226767
40
0.34092793188226767
40
0.34092793188226767
40
0.34865785417956879
40
0.34865785417956879
40
0.34865785417956879
40
0.35412084665902993
40
0.35412084665902993
40
0.35412084665902993
40
0.3589546119680932
40
0.3589546119680932
40
0.3589546119680932
40
0.36275022195510553
40
0.36275022195510553
40
0.36275022195510553
40
0.36743974661826884
40
0.36743974661826884
40
0.36743974661826884
40
0.37259820622353018
40
0.37259820622353018
40
0.37259820622353018
40
0.37670367728070631
40
0.37670367728070631
40
0.37670367728070631
40
0.37993826251513158
40
0.37993826251513158
40
0.37993826251513158
40
0.3836407778533919
40
0.3836407778533919
40
0.3836407778533919
40
0.39327139069943268
40
0.39327139069943268
40
0.39327139069943268
40
0.40148500946966381
40
0.40148500946966381
40
0.40148500946966381
40
0.40768910187273705
40
0.40768910187273705
40
0.40768910187273705
40
0.41409159317463151
40
0.41409159317463151
40
0.41409159317463151
40
0.42324641203127789
40
0.42324641203127789
40
0.42324641203127789
40
0.43042876579112455
40
0.43042876579112455
40
0.43042876579112455
40
0.4369344114888134
40
0.4369344114888134
40
0.4369344114888134
40
0.44198992208784266
40
0.44198992208784266
40
0.44198992208784266
40
0.44713168314426499
40
0.44713168314426499
40
0.44713168314426499
40
0.4527106351588881
40
0.4527106351588881
40
0.4527106351588881
40
0.4580218601557432
40
0.4580218601557432
40
0.4580218601557432
40
0.46717279625177427
40
0.46717279625177427
40
0.46717279625177427
40
0.47468902862409618
40
0.47468902862409618
40
0.47468902862409618
40
0.48297046283787443
40
0.48297046283787443
40
0.48297046283787443
40
0.49146025420692069
40
0.49146025420692069
40
0.49146025420692069
40
0.49993963930844848
40
0.49993963930844848
40
0.49993963930844848
40
0.50895505848623213
40
0.50895505848623213
40
0.50895505848623213
40
0.51766978564656141
40
0.51766978564656141
40
0.51766978564656141
40
0.52522418906293034
40
0.52522418906293034
40
0.52522418906293034
40
0.53259416184226727
40
0.53259416184226727
40
0.53259416184226727
40
0.54089211163453144
40
0.54089211163453144
40
0.54089211163453144
40
0.54806567239024184
40
0.54806567239024184
40
0.54806567239024184
40
0.55287692470800875
40
0.55287692470800875
40
0.55287692470800875
40
0.55666388321419258
40
0.55666388321419258
40
0.55666388321419258
40
0.55997994328135414
40
0.55997994328135414
40
0.55997994328135414
40
0.56707592174739563
40
0.56707592174739563
40
0.56707592174739563
40
0.57269103577178238
40
0.57269103577178238
40
0.57269103577178238
40
0.57772039433171052
40
0.57772039433171052
40
0.57772039433171052
40
0.58347312600357104
40
0.58347312600357104
40
0.58347312600357104
40
0.58672058819955275
40
0.58672058819955275
40
0.58672058819955275
40
0.59121591699555076
40
0.59121591699555076
40
0.59121591699555076
40
0.59744926216740002
40
0.59744926216740002
40
0.59744926216740002
40
0.60149996851435072
40
0.60149996851435072
40
0.60149996851435072
40
0.60692104327596019
40
0.60692104327596019
40
0.60692104327596019
40
0.61323311540042835
40
0.61323311540042835
40
0.61323311540042835
40
0.62010942884881681
40
0.62010942884881681
40
0.62010942884881681
40
0.62639106319707749
40
0.62639106319707749
40
0.62639106319707749
40
0.63241840451936226
40
0.63241840451936226
40
0.63241840451936226
40
0.63801272741501658
40
0.63801272741501658
40
0.63801272741501658
40
0.64336049364582637
40
0.64336049364582637
40
0.64336049364582637
40
0.65001866948662623
40
0.65001866948662623
40
0.65001866948662623
40
0.65914238537909631
40
0.65914238537909631
40
0.65914238537909631
40
0.66681602169536136
40
0.66681602169536136
40
0.66681602169536136
40
0.67432189487747063
40
0.67432189487747063
40
0.67432189487747063
40
0.68504985480273639
40
0.68504985480273639
40
0.68504985480273639
40
0.69664504312885434
40
0.69664504312885434
40
0.69664504312885434
40
0.7078638741541714
40
0.7078638741541714
40
0.7078638741541714
40
0.71733578150378252
40
0.71733578150378252
40
0.71733578150378252
40
0.72671817737560285
40
0.72671817737560285
40
0.72671817737560285
40
0.73953011378735845
40
0.73953011378735845
40
0.73953011378735845
40
0.75920802009894817
40
0.75920802009894817
40
0.75920802009894817
40
0.7779356487168495
40
0.7779356487168495
40
0.7779356487168495
40
0.789863234185463
40
0.789863234185463
40
0.789863234185463
40
0.80064313637364282
40
0.80064313637364282
40
0.80064313637364282
40
0.81027809143970819
40
0.81027809143970819
40
0.81027809143970819
40
0.81909195876827035
40
0.81909195876827035
40
0.81909195876827035
40
0.83039871134525345
40
0.83039871134525345
40
0.83039871134525345
40
0.83872356413936322
40
0.83872356413936322
40
0.83872356413936322
40
0.8471601213424248
40
0.8471601213424248
40
0.8471601213424248
40
0.85671261375852326
40
0.85671261375852326
40
0.85671261375852326
40
0.86348143168153846
40
0.86348143168153846
40
0.86348143168153846
40
0.86902545896904393
40
0.86902545896904393
40
0.86902545896904393
40
0.87675374325665245
40
0.87675374325665245
40
0.87675374325665245
40
0.88308501031015096
40
0.88308501031015096
40
0.88308501031015096
40
0.89187219426456865
40
0.89187219426456865
40
0.89187219426456865
40
0.89761331296208158
40
0.89761331296208158
40
0.89761331296208158
40
0.9054871442741641
40
0.9054871442741641
40
0.9054871442741641
40
0.91221446983751031
40
0.91221446983751031
40
0.91221446983751031
40
0.91797172209123257
40
0.91797172209123257
40
0.91797172209123257
40
0.92449444079185628
40
0.92449444079185628
40
0.92449444079185628
40
0.93204175940237821
40
0.93204175940237821
40
0.93204175940237821
40
0.94053653947708094
40
0.94053653947708094
40
0.94053653947708094
40
0.94548577506407938
40
0.94548577506407938
40
0.94548577506407938
40
0.95446682207217837
40
0.95446682207217837
40
0.95446682207217837
40
0.96465593318969001
40
0.96465593318969001
40
0.96465593318969001
40
0.97244688355140008
40
0.97244688355140008
40
0.97244688355140008
40
0.98113004661619785
40
0.98113004661619785
40
0.98113004661619785
40
0.99274001012940882
40
0.99274001012940882
40
0.99274001012940882
40
1
40
1
40
1
40
1
10
-4.1038009425650586
20
0.045832967185856402
30
0
10
-4.1038263290017039
20
-0.035743157635940388
30
0
10
-4.1015404339215502
20
-0.11916228983384289
30
0
10
-4.0950866589303416
20
-0.20634231384519849
30
0
10
-4.0889799789734358
20
-0.28883364736674966
30
0
10
-4.0787995766357001
20
-0.37281852738368382
30
0
10
-4.0671518550843979
20
-0.45030168713672442
30
0
10
-4.0566977241749598
20
-0.51984482411569388
30
0
10
-4.0458296722730775
20
-0.58362683729840525
30
0
10
-4.03245753602571
20
-0.65155174136049376
30
0
10
-4.0199287476026031
20
-0.7151927883787812
30
0
10
-4.004013298975666
20
-0.78568971923302144
30
0
10
-3.9811923085504679
20
-0.86157183912829804
30
0
10
-3.9507279560861872
20
-0.96286891708833311
30
0
10
-3.9072670573119703
20
-1.072023219569517
30
0
10
-3.866518765069213
20
-1.1634234780200445
30
0
10
-3.8413365575341323
20
-1.2199083059816462
30
0
10
-3.8182012054465506
20
-1.2684224550309919
30
0
10
-3.7979224090450687
20
-1.3089010641897203
30
0
10
-3.7810443071668529
20
-1.3425915296267898
30
0
10
-3.765083866346151
20
-1.3727221937494132
30
0
10
-3.7474495895158366
20
-1.4026178901198041
30
0
10
-3.7286881201232056
20
-1.4344245356557475
30
0
10
-3.7102114541312372
20
-1.462285772764514
30
0
10
-3.6914344791415568
20
-1.4895989581958708
30
0
10
-3.6634376727242985
20
-1.5303234074525065
30
0
10
-3.6323080312792211
20
-1.5740503538491819
30
0
10
-3.5960477567042464
20
-1.6198539787536361
30
0
10
-3.5632260174162007
20
-1.661314079447386
30
0
10
-3.526082795190622
20
-1.7027893370448268
30
0
10
-3.4916478349373206
20
-1.7378791660740371
30
0
10
-3.4553703726498548
20
-1.7748465370225404
30
0
10
-3.4206962422106417
20
-1.8074968906459759
30
0
10
-3.3895893667587926
20
-1.835093429544471
30
0
10
-3.3685546795151313
20
-1.8537544026028525
30
0
10
-3.3505661693734643
20
-1.8687666661609974
30
0
10
-3.3340044336879324
20
-1.8823406361746351
30
0
10
-3.3180779227189645
20
-1.8953939771057726
30
0
10
-3.300671703503212
20
-1.9094625489661279
30
0
10
-3.2800100707363296
20
-1.9252785581002305
30
0
10
-3.2568440635153002
20
-1.9430116088200056
30
0
10
-3.2319458996375316
20
-1.9607620432318731
30
0
10
-3.2122313351967322
20
-1.9742138625035883
30
0
10
-3.1871053175430446
20
-1.9913580732981144
30
0
10
-3.1677242801634971
20
-2.003930337522918
30
0
10
-3.1437583934531954
20
-2.0191660743886146
30
0
10
-3.1207031671495185
20
-2.0338228807729539
30
0
10
-3.0944036782012732
20
-2.0503520776464126
30
0
10
-3.0632625341240414
20
-2.0676947863159585
30
0
10
-3.0288308367503687
20
-2.0868700258340902
30
0
10
-2.9940455622385671
20
-2.1041092782634361
30
0
10
-2.9509633576005605
20
-2.1238404866620675
30
0
10
-2.9116058097925839
20
-2.1418658403871929
30
0
10
-2.8673585627604798
20
-2.1604455517450707
30
0
10
-2.8286884545449276
20
-2.1754357591589195
30
0
10
-2.7873130013457317
20
-2.1914746753636716
30
0
10
-2.7507927628847773
20
-2.2045436997850834
30
0
10
-2.7080432720167416
20
-2.2177943668262246
30
0
10
-2.6636870554060876
20
-2.2315430558884373
30
0
10
-2.6140254640615974
20
-2.2449780734211071
30
0
10
-2.5535064588841436
20
-2.2600837215034906
30
0
10
-2.4776147149198851
20
-2.2790264317037154
30
0
10
-2.3889978097870417
20
-2.2992809435310178
30
0
10
-2.3054702304944068
20
-2.3141321269895467
30
0
10
-2.2357314483507569
20
-2.326531665639664
30
0
10
-2.1694787180268
20
-2.3350871702828493
30
0
10
-2.1039747878509241
20
-2.3420155264331819
30
0
10
-2.0374149640129229
20
-2.3490555645440998
30
0
10
-1.9679689763268382
20
-2.3552028549308845
30
0
10
-1.8941012298971078
20
-2.3610710611548842
30
0
10
-1.8007632203853157
20
-2.3684860252606841
30
0
10
-1.7040041124143006
20
-2.3746514930825775
30
0
10
-1.6124873690328205
20
-2.3783117541516696
30
0
10
-1.5092632342619892
20
-2.382440258597216
30
0
10
-1.4095326884256756
20
-2.384062830103459
30
0
10
-1.3060076668802718
20
-2.3856506940888598
30
0
10
-1.2100143600665896
20
-2.3871230368370533
30
0
10
-1.113971141826027
20
-2.3882682336846748
30
0
10
-1.0325222586250724
20
-2.3886076971355985
30
0
10
-0.93930613082126213
20
-2.3889962042235098
30
0
10
-0.86555567783334031
20
-2.3884912841806414
30
0
10
-0.78514713242185219
20
-2.3884559223283373
30
0
10
-0.68624388190143848
20
-2.3884124269247162
30
0
10
-0.57682709431226986
20
-2.388592710260999
30
0
10
-0.47074361127311065
20
-2.3882252860422817
30
0
10
-0.33145393630204339
20
-2.3877428509021876
30
0
10
-0.19540669742971664
20
-2.3871540454203597
30
0
10
-0.058280554805918448
20
-2.38753570646201
30
0
10
0.082616020482704861
20
-2.3879278616897492
30
0
10
0.23114856288015229
20
-2.3885735335924418
30
0
10
0.36791810595236363
20
-2.3884636453851811
30
0
10
0.44076976841745735
20
-2.3884051123345875
30
0
10
0.51271004504179873
20
-2.3885926223090439
30
0
10
0.58803612402524397
20
-2.3887282590684826
30
0
10
0.66474854710401632
20
-2.3888663921641586
30
0
10
0.74287183752072383
20
-2.3883913459266064
30
0
10
0.80930662052176905
20
-2.3874339588662852
30
0
10
0.87470336003842331
20
-2.3864915309787817
30
0
10
0.92734020660882854
20
-2.3857664828417073
30
0
10
0.99579304188003248
20
-2.384939491854241
30
0
10
1.0517774484825455
20
-2.3842631341911074
30
0
10
1.1204343019953462
20
-2.383312192736144
30
0
10
1.201166260824007
20
-2.3807596974304204
30
0
10
1.2970744267119982
20
-2.3777273773088532
30
0
10
1.4086260806009201
20
-2.37201910440709
30
0
10
1.511073545680812
20
-2.3644719825975593
30
0
10
1.5936779044977636
20
-2.3583866669921068
30
0
10
1.6690633842179776
20
-2.3515694649287444
30
0
10
1.7330558028370886
20
-2.3450692312737709
30
0
10
1.7947539137684585
20
-2.3388020492266053
30
0
10
1.8479072310532585
20
-2.3327018721864992
30
0
10
1.9003386604885211
20
-2.3244371559787238
30
0
10
1.9489203266471478
20
-2.3167792742839728
30
0
10
1.9940748909968438
20
-2.3073059062810315
30
0
10
2.0333618340859316
20
-2.2986382127714502
30
0
10
2.0611272198662829
20
-2.2925124662715599
30
0
10
2.0870132525778944
20
-2.2866912732673477
30
0
10
2.1092414667496033
20
-2.2818206564133181
30
0
10
2.1289094364474548
20
-2.2775110369380469
30
0
10
2.1456249157639498
20
-2.2741291196970597
30
0
10
2.1714709246654151
20
-2.2677821696020097
30
0
10
2.1917659458835264
20
-2.2627983638879283
30
0
10
2.2143674335826922
20
-2.2564740717771063
30
0
10
2.2375494884836895
20
-2.2494328611527679
30
0
10
2.2661912136801727
20
-2.2407333554094615
30
0
10
2.2998757396373706
20
-2.2298982940905154
30
0
10
2.3379929571689222
20
-2.2173939171970067
30
0
10
2.3799217540139388
20
-2.2036391493415755
30
0
10
2.4247140149399544
20
-2.1886513944788617
30
0
10
2.4623659590072533
20
-2.1754415951116646
30
0
10
2.4923320687461081
20
-2.1649282920865103
30
0
10
2.5186190324785147
20
-2.1552893965975408
30
0
10
2.544167409703141
20
-2.1446459498026273
30
0
10
2.5642962579116446
20
-2.1362602772776578
30
0
10
2.5822652917041009
20
-2.1277828480782399
30
0
10
2.5937208267404146
20
-2.1222401335195804
30
0
10
2.6068335726122869
20
-2.1158955841626419
30
0
10
2.6152984885235777
20
-2.111720884027156
30
0
10
2.6283921427629364
20
-2.1053674605799069
30
0
10
2.6624500475111259
20
-2.0888415705086003
30
0
10
2.7192666800608336
20
-2.0607784361869297
30
0
10
2.7710161424684525
20
-2.0309474293127665
30
0
10
2.8151514807460507
20
-2.0055055885998723
30
0
10
2.8560171608175389
20
-1.979869396038386
30
0
10
2.897876897070482
20
-1.9520041873715954
30
0
10
2.9294953199540439
20
-1.9309564209441767
30
0
10
2.9637999794469763
20
-1.907031647678884
30
0
10
2.9990737150936218
20
-1.8790485877251069
30
0
10
3.0354754594569235
20
-1.850170665490148
30
0
10
3.0702474356963489
20
-1.8184341728732347
30
0
10
3.0967586175563353
20
-1.7925518337282518
30
0
10
3.134666528111711
20
-1.7555430952097795
30
0
10
3.1574687991556369
20
-1.7316308904933855
30
0
10
3.1865361782523958
20
-1.6997675666441023
30
0
10
3.2093408020045002
20
-1.6747694025696747
30
0
10
3.2347858638653064
20
-1.6445274021600493
30
0
10
3.2574409901767933
20
-1.6161724741602306
30
0
10
3.2779615924677716
20
-1.5904890949341093
30
0
10
3.2960821491824186
20
-1.5674058760146325
30
0
10
3.3161622396355663
20
-1.5394054354988989
30
0
10
3.331766395599888
20
-1.517646407973765
30
0
10
3.3462365592103964
20
-1.4956315885130598
30
0
10
3.3591626097994949
20
-1.475558142386481
30
0
10
3.3723091876239262
20
-1.4551422295839931
30
0
10
3.3839478629281121
20
-1.4368881241737892
30
0
10
3.3963013342925397
20
-1.4170740128619288
30
0
10
3.4097051901310134
20
-1.395575157701556
30
0
10
3.4270349312874879
20
-1.3661190779399723
30
0
10
3.4431631596198322
20
-1.3350438827664459
30
0
10
3.4585174141911574
20
-1.3054599478347284
30
0
10
3.475043947367455
20
-1.2715513078707321
30
0
10
3.4954531104642292
20
-1.2277138846449793
30
0
10
3.5306169281113151
20
-1.1521845182952082
30
0
10
3.5751740512625223
20
-1.0507857594230203
30
0
10
3.610421446844974
20
-0.95197603530704955
30
0
10
3.6393723227921635
20
-0.87081746974535046
30
0
10
3.6614968014338687
20
-0.79109397641762191
30
0
10
3.676690976196181
20
-0.7222100378120947
30
0
10
3.693432017783731
20
-0.64631326164957326
30
0
10
3.7037072600138017
20
-0.58457840172775077
30
0
10
3.7149350563698302
20
-0.51622311096106421
30
0
10
3.7264453390257284
20
-0.44614803186254887
30
0
10
3.7381529037528725
20
-0.36817246998859338
30
0
10
3.746526079156292
20
-0.28717940312059492
30
0
10
3.7548889912329164
20
-0.2062856126051395
30
0
10
3.7593142040286867
20
-0.12588656337341855
30
0
10
3.7611341120944659
20
-0.051381294549269763
30
0
10
3.7630690677406089
20
0.027833910487488438
30
0
10
3.7630162958088831
20
0.10212877138154312
30
0
10
3.7601340047563725
20
0.18375088614885909
30
0
10
3.7573478469944379
20
0.26265065180802077
30
0
10
3.7507261309876943
20
0.34871128905812437
30
0
10
3.7405281778778767
20
0.43096083235868893
30
0
10
3.7316880328686932
20
0.50225924703918834
30
0
10
3.7211263130327028
20
0.56832062724246446
30
0
10
3.7111689234688354
20
0.6284291339882514
30
0
10
3.7014546302289544
20
0.68707017208308607
30
0
10
3.6926845528321084
20
0.74124716727868878
30
0
10
3.6781574023897847
20
0.80895499563105266
30
0
10
3.6618010916401671
20
0.88518813475286406
30
0
10
3.6357745138049622
20
0.97672975587146205
30
0
10
3.6015125646148181
20
1.0682555277853891
30
0
10
3.5718931790704889
20
1.147379371864313
30
0
10
3.5370172782626024
20
1.2270332184028252
30
0
10
3.5078984156990756
20
1.2907276229516582
30
0
10
3.4883686173506079
20
1.3334469727906362
30
0
10
3.4719812263479284
20
1.3679374294190607
30
0
10
3.4588385515994333
20
1.3949036886259418
30
0
10
3.4484938927360784
20
1.4161289534715098
30
0
10
3.439517384603259
20
1.4341168139792904
30
0
10
3.4286468389404501
20
1.453980542674971
30
0
10
3.4191280173526679
20
1.4713742683799447
30
0
10
3.4094152389629762
20
1.4875700032069741
30
0
10
3.4013509269568418
20
1.5006382195505754
30
0
10
3.3840942478919329
20
1.5286026652740037
30
0
10
3.3685837070114055
20
1.5533585299910275
30
0
10
3.348243328345812
20
1.5845974788307269
30
0
10
3.3321477967636501
20
1.6093171507655193
30
0
10
3.3089532296883823
20
1.6418081571947132
30
0
10
3.2884633916165797
20
1.6677748855999652
30
0
10
3.2701110051734172
20
1.6910328260818679
30
0
10
3.2512904195870811
20
1.7138876910582694
30
0
10
3.2324033468412847
20
1.736698476036338
30
0
10
3.2107997446564713
20
1.762790138350669
30
0
10
3.191238580723311
20
1.7865543576385461
30
0
10
3.1664936669664137
20
1.8130829997807394
30
0
10
3.1525249688674868
20
1.8280586265579981
30
0
10
3.1389819623607766
20
1.841464781240495
30
0
10
3.1274377591007418
20
1.8526373798897002
30
0
10
3.1114575917547129
20
1.8681031502059942
30
0
10
3.0955233679255705
20
1.8831794811568912
30
0
10
3.0772961045573917
20
1.900350010258038
30
0
10
3.0520216854285374
20
1.9241591329113163
30
0
10
3.0251716409400591
20
1.9493722565156093
30
0
10
2.9954493946546799
20
1.9741696586157835
30
0
10
2.9761345503207668
20
1.9902841190388478
30
0
10
2.9575144908048494
20
2.0045297005972369
30
0
10
2.9403731555624275
20
2.0171345461809129
30
0
10
2.9174328454278924
20
2.0340036560138413
30
0
10
2.8934279155800606
20
2.0508702563817867
30
0
10
2.8664869880023067
20
2.068780231668355
30
0
10
2.8351181016746136
20
2.0896338558531466
30
0
10
2.8026560257573379
20
2.1095556042504415
30
0
10
2.7747801301485828
20
2.1258120175954489
30
0
10
2.7444123852812021
20
2.1435216051132331
30
0
10
2.7167276143269428
20
2.1589239963423839
30
0
10
2.6865440941311274
20
2.1747315437413022
30
0
10
2.6589709128565171
20
2.1891720187789954
30
0
10
2.6322141179471812
20
2.2023141931910688
30
0
10
2.6042751531086887
20
2.215439377209738
30
0
10
2.5774672130190952
20
2.2280332277289459
30
0
10
2.5463740952922502
20
2.2420821462970166
30
0
10
2.511827305108643
20
2.2562433666407897
30
0
10
2.4797624378709173
20
2.2693872114910336
30
0
10
2.4468369679330708
20
2.2816362158532106
30
0
10
2.4205287826316271
20
2.2909330822233573
30
0
10
2.3953800689136124
20
2.2998202110062245
30
0
10
2.3752928321473319
20
2.3066329507084657
30
0
10
2.3504481400986705
20
2.3141644022267762
30
0
10
2.3195155373574585
20
2.3235413507284646
30
0
10
2.287103550747398
20
2.3321261569853218
30
0
10
2.2395835382542484
20
2.3441507341546886
30
0
10
2.1744667399658386
20
2.360628043922945
30
0
10
2.084739453101041
20
2.382381406030555
30
0
10
2.0012328363110954
20
2.3988469279998026
30
0
10
1.9309983600516343
20
2.4126954990029574
30
0
10
1.8639930223203818
20
2.4225020121327194
30
0
10
1.8031969532647873
20
2.4292268509191746
30
0
10
1.7437300244849052
20
2.4358046694423527
30
0
10
1.687520520801687
20
2.440636900058927
30
0
10
1.623767245506625
20
2.4461073944246916
30
0
10
1.5326462571984183
20
2.4539262374697883
30
0
10
1.4295552374080953
20
2.4621279299977625
30
0
10
1.3321152751224761
20
2.4671432396187418
30
0
10
1.2267984468473558
20
2.4725639775758332
30
0
10
1.1290413405424671
20
2.4743724797847557
30
0
10
1.0285670464985854
20
2.4759726282990129
30
0
10
0.93135395296673473
20
2.4775208390992138
30
0
10
0.82959536604306516
20
2.4789916192051802
30
0
10
0.74039079154359111
20
2.4797017859298212
30
0
10
0.66507657539096665
20
2.4803013700935717
30
0
10
0.60067694204885413
20
2.4801896331115594
30
0
10
0.54066951011445175
20
2.4800249086510493
30
0
10
0.48122916078681716
20
2.4798617408706614
30
0
10
0.42251576888144776
20
2.4798165723388825
30
0
10
0.3589883867053133
20
2.4798691936376409
30
0
10
0.27223988536670796
20
2.4799410495625893
30
0
10
0.1812749316491104
20
2.4798363994165142
30
0
10
0.092919121599290749
20
2.4794901002671219
30
0
10
-0.042786933782756206
20
2.4789582179662339
30
0
10
-0.1753103750130196
20
2.4785752673433401
30
0
10
-0.30981642945735305
20
2.4790134459685897
30
0
10
-0.43782697054876418
20
2.4794304642444183
30
0
10
-0.57208630500627133
20
2.4799771113447453
30
0
10
-0.69640122368822177
20
2.4798698040326679
30
0
10
-0.7755771219215597
20
2.4798014602416667
30
0
10
-0.8529925567543577
20
2.4800025181176086
30
0
10
-0.93454657524234219
20
2.4801373349919578
30
0
10
-1.0082533908142683
20
2.4802591796622497
30
0
10
-1.0834350501288423
20
2.4797879942494152
30
0
10
-1.1480604520801718
20
2.4788670482300597
30
0
10
-1.205821907894699
20
2.4780439170587498
30
0
10
-1.2537553916381692
20
2.4773174327725371
30
0
10
-1.3101804960892325
20
2.4766682440098871
30
0
10
-1.3617970714880658
20
2.4760743789024779
30
0
10
-1.4233113113506894
20
2.4753996424810314
30
0
10
-1.4976626155804944
20
2.4734558426568611
30
0
10
-1.5930431981742585
20
2.4709622648831351
30
0
10
-1.7078831206740934
20
2.4659176787298431
30
0
10
-1.8151715715210599
20
2.4585162045563664
30
0
10
-1.8941651245972333
20
2.4530667014798575
30
0
10
-1.967588287802472
20
2.4468133795444409
30
0
10
-2.0346918981220941
20
2.4403915564879894
30
0
10
-2.1026959170512938
20
2.4338835642263086
30
0
10
-2.1667245493116578
20
2.4271573312598234
30
0
10
-2.2376539282731644
20
2.4165636434014579
30
0
10
-2.3179654034756902
20
2.4045686885294839
30
0
10
-2.406151186405463
20
2.3865601145509729
30
0
10
-2.4861627906874824
20
2.3676860068475021
30
0
10
-2.5428583584537146
20
2.3543119686447738
30
0
10
-2.5934421292468319
20
2.3414435477925126
30
0
10
-2.6378014750722132
20
2.3294754989244395
30
0
10
-2.6741341740026425
20
2.319673020817119
30
0
10
-2.7092219911836777
20
2.3095887818051564
30
0
10
-2.7458283912533883
20
2.2972052173031154
30
0
10
-2.7968571203367087
20
2.2799427288623755
30
0
10
-2.8452675635552622
20
2.260001966822125
30
0
10
-2.8873160954783548
20
2.2419584402637533
30
0
10
-2.9217636487651184
20
2.2271765842946207
30
0
10
-2.9515751110983341
20
2.2139096720670253
30
0
10
-2.9823616589324842
20
2.1988252490297509
30
0
10
-3.0250903981965576
20
2.1778895344319058
30
0
10
-3.0633799573264864
20
2.1565574003014012
30
0
10
-3.1045467240551612
20
2.1330989966295304
30
0
10
-3.1314430876009967
20
2.1177724163925618
30
0
10
-3.1594951224312973
20
2.1012633117248631
30
0
10
-3.1876147686552048
20
2.0830764976428395
30
0
10
-3.2261803100745783
20
2.058133640034252
30
0
10
-3.2604411818733583
20
2.0335349527627473
30
0
10
-3.2956623094615618
20
2.0067636077935975
30
0
10
-3.3257549013145775
20
1.9838904287479966
30
0
10
-3.3585116288909305
20
1.9565441343030363
30
0
10
-3.384778295784828
20
1.9325220224078012
30
0
10
-3.4072573367868881
20
1.911963873921344
30
0
10
-3.4278486270331601
20
1.8923209500579405
30
0
10
-3.4510141088611426
20
1.8698446743621813
30
0
10
-3.4772596014797181
20
1.8443800225907885
30
0
10
-3.505955170832725
20
1.8157560202746545
30
0
10
-3.5339812892987807
20
1.7845334272159155
30
0
10
-3.5664097988187971
20
1.74840633535797
30
0
10
-3.595050735189476
20
1.712800224006612
30
0
10
-3.6254587325056349
20
1.6730565211891262
30
0
10
-3.6596840333101897
20
1.6283235461801997
30
0
10
-3.6943003545978148
20
1.5783514003702084
30
0
10
-3.7160886614572131
20
1.5440623913669476
30
0
10
-3.7287829822919689
20
1.524084901413179
30
0
10
-3.7382108308661457
20
1.5088216817896614
30
0
10
-3.7512097989530071
20
1.486623977984344
30
0
10
-3.7747981574768095
20
1.4463432886045282
30
0
10
-3.8062131851245464
20
1.3872431712244424
30
0
10
-3.8423361534360043
20
1.3095689468697669
30
0
10
-3.8833181166400585
20
1.2214465595576176
30
0
10
-3.9294909764117052
20
1.1111765220076093
30
0
10
-3.9640468465974328
20
1.006361805289496
30
0
10
-3.9904694723022409
20
0.92621681072524487
30
0
10
-4.0100136120114289
20
0.84951517883085059
30
0
10
-4.024638368533564
20
0.78075327088414892
30
0
10
-4.0409379391596056
20
0.70411681042327501
30
0
10
-4.0529457173103696
20
0.6348985294168471
30
0
10
-4.0646058416253581
20
0.55923123885124248
30
0
10
-4.0801961992918336
20
0.45805906506451621
30
0
10
-4.0929642481804009
20
0.34599800108381423
30
0
10
-4.0987521520974619
20
0.23959469672170577
30
0
10
-4.1023714678482825
20
0.17305814723235338
30
0
10
-4.10378123146769
20
0.10917210227940213
30
0
10
-4.1038009425650586
20
0.045832967185856402
30
0
0
CIRCLE
5
102
100
AcDbEntity
8
0
100
AcDbCircle
10
-0.17223010715472842
20
-0.70043659002448211
30
0
40
0.93136549485779541
0
LINE
5
103
100
AcDbEntity
8
0
100
AcDbLine
10
2.3663866015091992
20
1.2411755468361332
30
0
11
2.6309006426791353
21
0.95827398952254306
31
0
0
ARC
5
104
100
AcDbEntity
8
0
100
AcDbCircle
10
2.4871119969185065
20
0.82383105422849545
30
0
40
0.19685039370078738
100
AcDbArc
50
0
51
43.076176269319255
0
LINE
5
105
100
AcDbEntity
8
0
100
AcDbLine
10
2.683962390619294
20
0.82383105422849512
30
0
11
2.6839623906192913
21
-0.83830178687487311
31
0
0
ARC
5
106
100
AcDbEntity
8
0
100
AcDbCircle
10
2.5264820756586546
20
-0.83830178687486934
30
0
40
0.15748031496063686
100
AcDbArc
50
270.00000000000244
51
360
0
LINE
5
107
100
AcDbEntity
8
0
100
AcDbLine
10
2.5264820756586612
20
-0.99578210183550619
30
0
11
2.4466596566248002
21
-0.99578210183550619
31
0
0
ARC
5
108
100
AcDbEntity
8
0
100
AcDbCircle
10
2.4466596566247998
20
-1.1138923380559784
30
0
40
0.11811023622047236
100
AcDbArc
50
89.999999999999787
51
180
0
LINE
5
109
100
AcDbEntity
8
0
100
AcDbLine
10
2.3285494204043276
20
-1.1138923380559782
30
0
11
2.3285494204043276
21
-1.4438207041433839
31
0
0
SPLINE
5
110
100
AcDbEntity
8
0
100
AcDbSpline
70
0
71
3
72
14
73
10
74
0
42
0.000000001
43
0.0000000001
44
0.0000000001
40
0
40
0
40
0
40
0
40
0.19532223669346332
40
0.19532223669346332
40
0.39064447338692621
40
0.39064447338692621
40
0.5081356457520716
40
0.5081356457520716
40
0.62562681811721743
40
0.62562681811721743
40
0.62562681811721743
40
0.62562681811721743
10
2.3285494204043276
20
-1.4438207041433839
30
0
10
2.3285494204043276
20
-1.4694535436044682
30
0
10
2.3235427568679841
20
-1.4948413191493277
30
0
10
2.3040797228778471
20
-1.5422687388899134
30
0
10
2.2898094296371729
20
-1.5638549511029787
30
0
10
2.2609726341069782
20
-1.5930726756011586
30
0
10
2.2488897344484
20
-1.6027362621400427
30
0
10
2.2227174318701644
20
-1.6190447506554275
30
0
10
2.2087184287764097
20
-1.6256333226808994
30
0
10
2.1940947010437948
20
-1.6305206166333999
30
0
0
SPLINE
5
111
100
AcDbEntity
8
0
100
AcDbSpline
70
0
71
3
72
17
73
13
74
0
42
0.000000001
43
0.0000000001
44
0.0000000001
40
-0.36933493457155642
40
-0.36933493457155642
40
-0.36933493457155642
40
-0.36933493457155642
40
-0.36771730730394836
40
-0.36771730730394836
40
-0.36771730730394836
40
-0.36249875851763452
40
-0.36249875851763452
40
-0.36249875851763452
40
-0.35679935850808281
40
-0.35679935850808281
40
-0.35679935850808281
40
-0.35284616131140595
40
-0.35284616131140595
40
-0.35284616131140595
40
-0.35284616131140595
10
2.1940947010437983
20
-1.6305206166333994
30
0
10
2.1816508253467548
20
-1.63467939745535
30
0
10
2.1689923625154512
20
-1.6388748557937258
30
0
10
2.1565859732082453
20
-1.6429554259670602
30
0
10
2.1164936265506689
20
-1.6561421501539972
30
0
10
2.0808825509218525
20
-1.6675349149788832
30
0
10
2.0592665415687859
20
-1.6740448060194666
30
0
10
2.0360262318360181
20
-1.6810438723891457
30
0
10
2.0281793306716387
20
-1.6828772472959008
30
0
10
2.0105005013614101
20
-1.6868029178679891
30
0
10
1.9973876602801044
20
-1.6897146884069789
30
0
10
1.9812465682560019
20
-1.6932291657376703
30
0
10
1.9632484728253541
20
-1.6971886166176027
30
0
0
SPLINE
5
112
100
AcDbEntity
8
0
100
AcDbSpline
70
0
71
3
72
11
73
7
74
0
42
0.000000001
43
0.0000000001
44
0.0000000001
40
-0.35284616131140595
40
-0.35284616131140595
40
-0.35284616131140595
40
-0.35284616131140595
40
-0.35111568474491561
40
-0.35111568474491561
40
-0.35111568474491561
40
-0.35013021468233657
40
-0.35013021468233657
40
-0.35013021468233657
40
-0.35013021468233657
10
1.9632484728253541
20
-1.6971886166176027
30
0
10
1.9553699682037347
20
-1.6989218306777696
30
0
10
1.9471349550065427
20
-1.7007404734041456
30
0
10
1.9386398144232801
20
-1.7026317641315054
30
0
10
1.9338614447072173
20
-1.7036955824694495
30
0
10
1.9291306179496159
20
-1.7047505316527864
30
0
10
1.9244507176154113
20
-1.7057929664490585
30
0
0
SPLINE
5
113
100
AcDbEntity
8
0
100
AcDbSpline
70
0
71
3
72
17
73
13
74
0
42
0.000000001
43
0.0000000001
44
0.0000000001
40
-0.35013021468233657
40
-0.35013021468233657
40
-0.35013021468233657
40
-0.35013021468233657
40
-0.34419252273847406
40
-0.34419252273847406
40
-0.34419252273847406
40
-0.33378288024225938
40
-0.33378288024225938
40
-0.33378288024225938
40
-0.32391958917662472
40
-0.32391958917662472
40
-0.32391958917662472
40
-0.31161315194561162
40
-0.31161315194561162
40
-0.31161315194561162
40
-0.31161315194561162
10
1.9244507176154109
20
-1.7057929664490585
30
0
10
1.8962532029798418
20
-1.7120738844869225
30
0
10
1.8698978860236444
20
-1.717899974442491
30
0
10
1.8461644877500594
20
-1.7224761850104364
30
0
10
1.8056868492205527
20
-1.730280975334558
30
0
10
1.7613301142355258
20
-1.7363986896938515
30
0
10
1.6956229768641917
20
-1.7433602963602475
30
0
10
1.6328690805225603
20
-1.750009010040245
30
0
10
1.5535118440581828
20
-1.7573553766969554
30
0
10
1.466470011242194
20
-1.7637633321168646
30
0
10
1.3589931370748602
20
-1.7716757001823613
30
0
10
1.2402007271904905
20
-1.7771886807405475
30
0
10
1.1435312041637014
20
-1.7798126844286057
30
0
0
SPLINE
5
114
100
AcDbEntity
8
0
100
AcDbSpline
70
0
71
3
72
16
73
12
74
0
42
0.000000001
43
0.0000000001
44
0.0000000001
40
0
40
0
40
0
40
0
40
0.19532223669346335
40
0.19532223669346335
40
0.39064447338692698
40
0.39064447338692698
40
0.58596671008039103
40
0.58596671008039103
40
0.69254533009070884
40
0.69254533009070884
40
0.79912395010102633
40
0.79912395010102633
40
0.79912395010102633
40
0.79912395010102633
10
1.1435312041637014
20
-1.7798126844286057
30
0
10
1.1179078026280636
20
-1.7805082076713494
30
0
10
1.0923935236214941
20
-1.776192261233168
30
0
10
1.0444554551842358
20
-1.7580232923616097
30
0
10
1.0224899798160727
20
-1.7443439751734986
30
0
10
0.98503888826749952
20
-1.7093356107848083
30
0
10
0.96991132493471577
20
-1.6883412626288183
30
0
10
0.95340666935579765
20
-1.6523231574888078
30
0
10
0.94895184634845642
20
-1.6390230048030054
30
0
10
0.94293673047753523
20
-1.6117039823185133
30
0
10
0.94139353118662172
20
-1.5977627468839861
30
0
10
0.94134085433712256
20
-1.5837761505409966
30
0
0
LINE
5
115
100
AcDbEntity
8
0
100
AcDbLine
10
0.94134085433712233
20
-1.5837761505409971
30
0
11
0.94008840513780401
21
-1.2512296608112146
31
0
0
ARC
5
116
100
AcDbEntity
8
0
100
AcDbCircle
10
1.1369374027365087
20
-1.2504882806522193
30
0
40
0.19685039370078747
100
AcDbArc
50
157.21010445594624
51
180.21578851709373
0
ARC
5
117
100
AcDbEntity
8
0
100
AcDbCircle
10
-0.17223010715472842
20
-0.70043659002448211
30
0
40
1.2231765184798424
100
AcDbArc
50
-22.789895544053749
51
23.006496958262922
0
ARC
5
118
100
AcDbEntity
8
0
100
AcDbCircle
10
1.1348486330027527
20
-0.14543965458646876
30
0
40
0.19685039370078738
100
AcDbArc
50
180
51
203.00649695826294
0
LINE
5
119
100
AcDbEntity
8
0
100
AcDbLine
10
0.93799823930196524
20
-0.14543965458646882
30
0
11
0.93799823930196513
21
0.33403883123187667
31
0
0
ARC
5
120
100
AcDbEntity
8
0
100
AcDbCircle
10
1.1742187117429099
20
0.33403883123187683
30
0
40
0.23622047244094499
100
AcDbArc
50
125.06025158270852
51
180
0
ARC
5
121
100
AcDbEntity
8
0
100
AcDbCircle
10
0.93799823930196491
20
0.67064270131410075
30
0
40
0.17499999999999993
100
AcDbArc
50
-54.939748417291433
51
144.93974841729147
0
ARC
5
122
100
AcDbEntity
8
0
100
AcDbCircle
10
0.60139436921974088
20
0.90686317375504555
30
0
40
0.23622047244094491
100
AcDbArc
50
270
51
324.93974841729153
0
LINE
5
123
100
AcDbEntity
8
0
100
AcDbLine
10
0.60139436921974099
20
0.67064270131410064
30
0
11
-0.95680733943470841
21
0.67064270131410109
31
0
0
ARC
5
124
100
AcDbEntity
8
0
100
AcDbCircle
10
-0.95680733943470841
20
0.90686317375504588
30
0
40
0.23622047244094493
100
AcDbArc
50
215.06025158270856
51
270
0
ARC
5
125
100
AcDbEntity
8
0
100
AcDbCircle
10
-1.2934112095169321
20
0.67064270131410109
30
0
40
0.17499999999999977
100
AcDbArc
50
35.06025158270851
51
234.93974841729144
0
ARC
5
126
100
AcDbEntity
8
0
100
AcDbCircle
10
-1.5296316819578768
20
0.33403883123187722
30
0
40
0.23622047244094491
100
AcDbArc
50
0
51
54.939748417291511
0
LINE
5
127
100
AcDbEntity
8
0
100
AcDbLine
10
-1.2934112095169319
20
0.33403883123187711
30
0
11
-1.2934112095169321
21
-0.17197712449925531
31
0
0
ARC
5
128
100
AcDbEntity
8
0
100
AcDbCircle
10
-1.4902616032177194
20
-0.17197712449925528
30
0
40
0.19685039370078738
100
AcDbArc
50
338.15187971675346
51
360
0
ARC
5
129
100
AcDbEntity
8
0
100
AcDbCircle
10
-0.17223010715472842
20
-0.70043659002448211
30
0
40
1.2231765184798424
100
AcDbArc
50
158.15187971675343
51
201.84812028324654
0
ARC
5
130
100
AcDbEntity
8
0
100
AcDbCircle
10
-1.4902616032177196
20
-1.2288960555497082
30
0
40
0.19685039370078738
100
AcDbArc
50
0
51
21.848120283246491
0
LINE
5
131
100
AcDbEntity
8
0
100
AcDbLine
10
-1.2934112095169321
20
-1.2288960555497079
30
0
11
-1.2934112095169314
21
-1.7834379769046516
31
0
0
SPLINE
5
132
100
AcDbEntity
8
0
100
AcDbSpline
70
0
71
3
72
11
73
7
74
0
42
0.000000001
43
0.0000000001
44
0.0000000001
40
-0.19150669920964361
40
-0.19150669920964361
40
-0.19150669920964361
40
-0.19150669920964361
40
-0.18776873169915684
40
-0.18776873169915684
40
-0.18776873169915684
40
-0.17971298438719985
40
-0.17971298438719985
40
-0.17971298438719985
40
-0.17971298438719985
10
-1.2934112095169312
20
-1.783437976904652
30
0
10
-1.3258275157948605
20
-1.7829354733053386
30
0
10
-1.3582480574605114
20
-1.7823846454535075
30
0
10
-1.3899695237832803
20
-1.7817991449408519
30
0
10
-1.458105568629904
20
-1.7805415205680668
30
0
10
-1.5222567520059429
20
-1.77902366177078
30
0
10
-1.5866658497713209
20
-1.7764813593172517
30
0
0
SPLINE
5
133
100
AcDbEntity
8
0
100
AcDbSpline
70
0
71
3
72
8
73
4
74
0
42
0.000000001
43
0.0000000001
44
0.0000000001
40
-0.17971298438719985
40
-0.17971298438719985
40
-0.17971298438719985
40
-0.17971298438719985
40
-0.17856748854521895
40
-0.17856748854521895
40
-0.17856748854521895
40
-0.17856748854521895
10
-1.5866658497713209
20
-1.7764813593172517
30
0
10
-1.5958245722111959
20
-1.7761198538259795
30
0
10
-1.6049885676286664
20
-1.7757376352070229
30
0
10
-1.6141700883309718
20
-1.7753325053285847
30
0
0
SPLINE
5
134
100
AcDbEntity
8
0
100
AcDbSpline
70
0
71
3
72
8
73
4
74
0
42
0.000000001
43
0.0000000001
44
0.0000000001
40
-0.17856748854521559
40
-0.17856748854521559
40
-0.17856748854521559
40
-0.17856748854521559
40
-0.17807776671835626
40
-0.17807776671835626
40
-0.17807776671835626
40
-0.17807776671835626
10
-1.6141700883310521
20
-1.7753325053285807
30
0
10
-1.6180953676091545
20
-1.7751593043994172
30
0
10
-1.6220238501617334
20
-1.7749819158972246
30
0
10
-1.6259564938924631
20
-1.7748001679877907
30
0
0
SPLINE
5
135
100
AcDbEntity
8
0
100
AcDbSpline
70
0
71
3
72
11
73
7
74
0
42
0.000000001
43
0.0000000001
44
0.0000000001
40
-0.17807776671834369
40
-0.17807776671834369
40
-0.17807776671834369
40
-0.17807776671834369
40
-0.17651635075472089
40
-0.17651635075472089
40
-0.17651635075472089
40
-0.17390987541093036
40
-0.17390987541093036
40
-0.17390987541093036
40
-0.17390987541093036
10
-1.6259564938927655
20
-1.7748001679877772
30
0
10
-1.6384952298927142
20
-1.7742206878184625
30
0
10
-1.6510762656659568
20
-1.7735968915728471
30
0
10
-1.6637306650582024
20
-1.7729232060135331
30
0
10
-1.6848761460388724
20
-1.7717974785301605
30
0
10
-1.7064610854879083
20
-1.7705222119640411
30
0
10
-1.7282606204426694
20
-1.7691266683784448
30
0
0
SPLINE
5
136
100
AcDbEntity
8
0
100
AcDbSpline
70
0
71
3
72
8
73
4
74
0
42
0.000000001
43
0.0000000001
44
0.0000000001
40
-0.17390987541092917
40
-0.17390987541092917
40
-0.17390987541092917
40
-0.17390987541092917
40
-0.17157940991970286
40
-0.17157940991970286
40
-0.17157940991970286
40
-0.17157940991970286
10
-1.7282606204426993
20
-1.769126668378443
30
0
10
-1.7477517175128796
20
-1.7678789043527892
30
0
10
-1.7674143910024092
20
-1.7665349897504208
30
0
10
-1.7870882929835397
20
-1.7651158679425312
30
0
0
SPLINE
5
137
100
AcDbEntity
8
0
100
AcDbSpline
70
0
71
3
72
8
73
4
74
0
42
0.000000001
43
0.0000000001
44
0.0000000001
40
-0.17157940991970119
40
-0.17157940991970119
40
-0.17157940991970119
40
-0.17157940991970119
40
-0.16925205475675367
40
-0.16925205475675367
40
-0.16925205475675367
40
-0.16925205475675367
10
-1.787088292983581
20
-1.7651158679425276
30
0
10
-1.8067359374234966
20
-1.7636986401488197
30
0
10
-1.8263947884814808
20
-1.7622064061610971
30
0
10
-1.8459053328914428
20
-1.7606600398909058
30
0
0
SPLINE
5
138
100
AcDbEntity
8
0
100
AcDbSpline
70
0
71
3
72
20
73
16
74
0
42
0.000000001
43
0.0000000001
44
0.0000000001
40
-0.16925205475675367
40
-0.16925205475675367
40
-0.16925205475675367
40
-0.16925205475675367
40
-0.16428985789450981
40
-0.16428985789450981
40
-0.16428985789450981
40
-0.151024617543629
40
-0.151024617543629
40
-0.151024617543629
40
-0.14315376968584495
40
-0.14315376968584495
40
-0.14315376968584495
40
-0.13688243933472211
40
-0.13688243933472211
40
-0.13688243933472211
40
-0.13365956760620457
40
-0.13365956760620457
40
-0.13365956760620457
40
-0.13365956760620457
10
-1.8459053328914428
20
-1.7606600398909058
30
0
10
-1.887504124426624
20
-1.7573630038493135
30
0
10
-1.9284287486831322
20
-1.7538198666510298
30
0
10
-1.9671340367741321
20
-1.750233138891985
30
0
10
-2.0705260616944376
20
-1.7406520437978561
30
0
10
-2.1467975079508155
20
-1.7318475111478442
30
0
10
-2.2375231690140303
20
-1.7140510837360172
30
0
10
-2.291710367287902
20
-1.7034219130093438
30
0
10
-2.353961392733424
20
-1.6890497516337803
30
0
10
-2.4077633121953839
20
-1.6756188533976659
30
0
10
-2.4507533633169785
20
-1.6648869871826004
30
0
10
-2.4864154779715353
20
-1.6552875175511603
30
0
10
-2.5125006726233856
20
-1.647624632898673
30
0
10
-2.5260581622969345
20
-1.643641933864517
30
0
10
-2.5376193133833462
20
-1.6400683106655882
30
0
10
-2.5486912623835174
20
-1.6364217382090001
30
0
0
SPLINE
5
139
100
AcDbEntity
8
0
100
AcDbSpline
70
0
71
3
72
14
73
10
74
0
42
0.000000001
43
0.0000000001
44
0.0000000001
40
0
40
0
40
0
40
0
40
0.19532223669346405
40
0.19532223669346405
40
0.39064447338692737
40
0.39064447338692737
40
0.50923185030733431
40
0.50923185030733431
40
0.62781922722774097
40
0.62781922722774097
40
0.62781922722774097
40
0.62781922722774097
10
-2.5486912623835178
20
-1.6364217382090001
30
0
10
-2.5730376293294897
20
-1.6284032049659556
30
0
10
-2.5955850338896309
20
-1.6157059464239061
30
0
10
-2.6345436666529118
20
-1.5823833599611667
30
0
10
-2.6505824290927391
20
-1.5620766141292737
30
0
10
-2.6693785960593281
20
-1.5254191144130844
30
0
10
-2.674812107636741
20
-1.5107774800145592
30
0
10
-2.6821168570281042
20
-1.4805214942646434
30
0
10
-2.6839623906192935
20
-1.4650136087967356
30
0
10
-2.6839623906192935
20
-1.4494509609069184
30
0
0
LINE
5
140
100
AcDbEntity
8
0
100
AcDbLine
10
-2.6839623906192935
20
-1.4494509609069184
30
0
11
-2.683962390619294
21
1.1458454674231706
31
0
0
ARC
5
141
100
AcDbEntity
8
0
100
AcDbCircle
10
-2.4871119969185065
20
1.1458454674231706
30
0
40
0.19685039370078738
100
AcDbArc
50
111.81052695958029
51
180
0
LINE
5
142
100
AcDbEntity
8
0
100
AcDbLine
10
-2.5602494811861365
20
1.3286048335173797
30
0
11
-1.4589024701740136
21
1.769346949298074
31
0
0
ARC
5
143
100
AcDbEntity
8
0
100
AcDbCircle
10
-1.3857649859063836
20
1.5865875832038645
30
0
40
0.19685039370078738
100
AcDbArc
50
90.000000000000057
51
111.81052695958026
0
LINE
5
144
100
AcDbEntity
8
0
100
AcDbLine
10
-1.3857649859063839
20
1.783437976904652
30
0
11
0.87423124282237841
21
1.783437976904652
31
0
0
ARC
5
145
100
AcDbEntity
8
0
100
AcDbCircle
10
0.8742312428223783
20
1.5865875832038645
30
0
40
0.19685039370078755
100
AcDbArc
50
70.410439780158384
51
89.999999999999972
0
LINE
5
146
100
AcDbEntity
8
0
100
AcDbLine
10
0.94023122575004048
20
1.7720439925126381
30
0
11
2.2885979386762334
21
1.2921890208508588
31
0
0
ARC
5
147
100
AcDbEntity
8
0
100
AcDbCircle
10
2.2225979557485704
20
1.1067326115420852
30
0
40
0.19685039370078755
100
AcDbArc
50
43.076176269319326
51
70.410439780158171
0
SPLINE
5
148
100
AcDbEntity
8
0
100
AcDbSpline
70
2
71
3
72
341
73
337
74
0
42
0.000000001
43
0.0000000001
44
0.0000000001
40
0
40
0
40
0
40
0
40
0.012731230738898716
40
0.012731230738898716
40
0.012731230738898716
40
0.023083389192606385
40
0.023083389192606385
40
0.023083389192606385
40
0.032570907726613987
40
0.032570907726613987
40
0.032570907726613987
40
0.040167090301295547
40
0.040167090301295547
40
0.040167090301295547
40
0.047665784908316675
40
0.047665784908316675
40
0.047665784908316675
40
0.054144108330845979
40
0.054144108330845979
40
0.054144108330845979
40
0.060639735318793929
40
0.060639735318793929
40
0.060639735318793929
40
0.068902772404891982
40
0.068902772404891982
40
0.068902772404891982
40
0.076855419469475897
40
0.076855419469475897
40
0.076855419469475897
40
0.084039571849408232
40
0.084039571849408232
40
0.084039571849408232
40
0.091686494955796283
40
0.091686494955796283
40
0.091686494955796283
40
0.099843262757986495
40
0.099843262757986495
40
0.099843262757986495
40
0.10694558908598652
40
0.10694558908598652
40
0.10694558908598652
40
0.11343967364626514
40
0.11343967364626514
40
0.11343967364626514
40
0.1200892790111432
40
0.1200892790111432
40
0.1200892790111432
40
0.12851374217762485
40
0.12851374217762485
40
0.12851374217762485
40
0.13688243933472211
40
0.13688243933472211
40
0.13688243933472211
40
0.14315376968584495
40
0.14315376968584495
40
0.14315376968584495
40
0.151024617543629
40
0.151024617543629
40
0.151024617543629
40
0.16428985789450981
40
0.16428985789450981
40
0.16428985789450981
40
0.17651635075472089
40
0.17651635075472089
40
0.17651635075472089
40
0.18776873169915684
40
0.18776873169915684
40
0.18776873169915684
40
0.20045984526635752
40
0.20045984526635752
40
0.20045984526635752
40
0.2133729493730929
40
0.2133729493730929
40
0.2133729493730929
40
0.22938130731466233
40
0.22938130731466233
40
0.22938130731466233
40
0.24953701427601019
40
0.24953701427601019
40
0.24953701427601019
40
0.266787605964666
40
0.266787605964666
40
0.266787605964666
40
0.28044060301372242
40
0.28044060301372242
40
0.28044060301372242
40
0.291683718591633
40
0.291683718591633
40
0.291683718591633
40
0.30188544415805824
40
0.30188544415805824
40
0.30188544415805824
40
0.31092972279674647
40
0.31092972279674647
40
0.31092972279674647
40
0.32391958917662472
40
0.32391958917662472
40
0.32391958917662472
40
0.33378288024225938
40
0.33378288024225938
40
0.33378288024225938
40
0.34419252273847406
40
0.34419252273847406
40
0.34419252273847406
40
0.35111568474491561
40
0.35111568474491561
40
0.35111568474491561
40
0.35679935850808281
40
0.35679935850808281
40
0.35679935850808281
40
0.36249875851763452
40
0.36249875851763452
40
0.36249875851763452
40
0.36771730730394836
40
0.36771730730394836
40
0.36771730730394836
40
0.37303542887407543
40
0.37303542887407543
40
0.37303542887407543
40
0.37903160588947077
40
0.37903160588947077
40
0.37903160588947077
40
0.38405494456149386
40
0.38405494456149386
40
0.38405494456149386
40
0.39156755358600304
40
0.39156755358600304
40
0.39156755358600304
40
0.40412607078929158
40
0.40412607078929158
40
0.40412607078929158
40
0.41434255394731256
40
0.41434255394731256
40
0.41434255394731256
40
0.42269821832252397
40
0.42269821832252397
40
0.42269821832252397
40
0.42932051496280627
40
0.42932051496280627
40
0.42932051496280627
40
0.43540215538830668
40
0.43540215538830668
40
0.43540215538830668
40
0.44144934200890656
40
0.44144934200890656
40
0.44144934200890656
40
0.44734905435350109
40
0.44734905435350109
40
0.44734905435350109
40
0.45446479061934475
40
0.45446479061934475
40
0.45446479061934475
40
0.46112412293710098
40
0.46112412293710098
40
0.46112412293710098
40
0.46806892054470978
40
0.46806892054470978
40
0.46806892054470978
40
0.47716075729042173
40
0.47716075729042173
40
0.47716075729042173
40
0.48578273491300222
40
0.48578273491300222
40
0.48578273491300222
40
0.49666973832239159
40
0.49666973832239159
40
0.49666973832239159
40
0.50964276417413301
40
0.50964276417413301
40
0.50964276417413301
40
0.52019875202113652
40
0.52019875202113652
40
0.52019875202113652
40
0.52868907232113116
40
0.52868907232113116
40
0.52868907232113116
40
0.53642785907819512
40
0.53642785907819512
40
0.53642785907819512
40
0.54299559284958288
40
0.54299559284958288
40
0.54299559284958288
40
0.5501362867113081
40
0.5501362867113081
40
0.5501362867113081
40
0.55543146975027058
40
0.55543146975027058
40
0.55543146975027058
40
0.56081010285259858
40
0.56081010285259858
40
0.56081010285259858
40
0.56718828804685362
40
0.56718828804685362
40
0.56718828804685362
40
0.57395097104612158
40
0.57395097104612158
40
0.57395097104612158
40
0.5806079871235259
40
0.5806079871235259
40
0.5806079871235259
40
0.58716098732472077
40
0.58716098732472077
40
0.58716098732472077
40
0.59396248097461379
40
0.59396248097461379
40
0.59396248097461379
40
0.60200652575825309
40
0.60200652575825309
40
0.60200652575825309
40
0.61170299311469778
40
0.61170299311469778
40
0.61170299311469778
40
0.62383727457986349
40
0.62383727457986349
40
0.62383727457986349
40
0.6317566024548833
40
0.6317566024548833
40
0.6317566024548833
40
0.63823255957401359
40
0.63823255957401359
40
0.63823255957401359
40
0.6443283961578169
40
0.6443283961578169
40
0.6443283961578169
40
0.64991853705496005
40
0.64991853705496005
40
0.64991853705496005
40
0.65762945205207068
40
0.65762945205207068
40
0.65762945205207068
40
0.66489400639401419
40
0.66489400639401419
40
0.66489400639401419
40
0.67267042883028771
40
0.67267042883028771
40
0.67267042883028771
40
0.68299944751945052
40
0.68299944751945052
40
0.68299944751945052
40
0.69416726661111405
40
0.69416726661111405
40
0.69416726661111405
40
0.7048161302887801
40
0.7048161302887801
40
0.7048161302887801
40
0.71350971863341295
40
0.71350971863341295
40
0.71350971863341295
40
0.72364414611683958
40
0.72364414611683958
40
0.72364414611683958
40
0.73763817357932582
40
0.73763817357932582
40
0.73763817357932582
40
0.75954789297793635
40
0.75954789297793635
40
0.75954789297793635
40
0.77652613433563356
40
0.77652613433563356
40
0.77652613433563356
40
0.787915026268318
40
0.787915026268318
40
0.787915026268318
40
0.80117033712654817
40
0.80117033712654817
40
0.80117033712654817
40
0.81359719105613892
40
0.81359719105613892
40
0.81359719105613892
40
0.82295387858245972
40
0.82295387858245972
40
0.82295387858245972
40
0.83401926117105596
40
0.83401926117105596
40
0.83401926117105596
40
0.84323436679860653
40
0.84323436679860653
40
0.84323436679860653
40
0.85148319780282933
40
0.85148319780282933
40
0.85148319780282933
40
0.86076549794015245
40
0.86076549794015245
40
0.86076549794015245
40
0.86783829450005401
40
0.86783829450005401
40
0.86783829450005401
40
0.87425713602188471
40
0.87425713602188471
40
0.87425713602188471
40
0.88083948628111353
40
0.88083948628111353
40
0.88083948628111353
40
0.88758968738169275
40
0.88758968738169275
40
0.88758968738169275
40
0.89486153381535272
40
0.89486153381535272
40
0.89486153381535272
40
0.90189545092501122
40
0.90189545092501122
40
0.90189545092501122
40
0.90855091377362507
40
0.90855091377362507
40
0.90855091377362507
40
0.91522069532546779
40
0.91522069532546779
40
0.91522069532546779
40
0.92220235977622322
40
0.92220235977622322
40
0.92220235977622322
40
0.92933010734512189
40
0.92933010734512189
40
0.92933010734512189
40
0.93816384392698171
40
0.93816384392698171
40
0.93816384392698171
40
0.94503090605122098
40
0.94503090605122098
40
0.94503090605122098
40
0.95162907537665342
40
0.95162907537665342
40
0.95162907537665342
40
0.96372180653249007
40
0.96372180653249007
40
0.96372180653249007
40
0.97331850160321398
40
0.97331850160321398
40
0.97331850160321398
40
0.98298173403963274
40
0.98298173403963274
40
0.98298173403963274
40
0.99487616357016984
40
0.99487616357016984
40
0.99487616357016984
40
1
40
1
40
1
40
1
10
-3.7101001742274655
20
0.045710447764532092
30
0
10
-3.7101313532733653
20
-0.054479499166052596
30
0
10
-3.7060656485756707
20
-0.15606666332695118
30
0
10
-3.695025221726143
20
-0.25945718833904124
30
0
10
-3.6860479083393338
20
-0.34352722991538037
30
0
10
-3.6730705182819863
20
-0.42703850276514405
30
0
10
-3.6590829670005593
20
-0.50612424818292245
30
0
10
-3.646263693356194
20
-0.57860454094334157
30
0
10
-3.6327700909913885
20
-0.64788237997519293
30
0
10
-3.6112935286708212
20
-0.72378517737084114
30
0
10
-3.594098317101138
20
-0.78455675898933408
30
0
10
-3.5708272510094856
20
-0.85069283067152501
30
0
10
-3.5436727778081396
20
-0.91722598711171532
30
0
10
-3.5168667999699941
20
-0.9829052696304168
30
0
10
-3.4874682867067945
20
-1.0470563491567426
30
0
10
-3.4636892335201668
20
-1.0963733766403612
30
0
10
-3.4431458716021797
20
-1.138979679606414
30
0
10
-3.4273563606900113
20
-1.1696575414756261
30
0
10
-3.4125477603150802
20
-1.1953840836005232
30
0
10
-3.3976996062518525
20
-1.2211793411747147
30
0
10
-3.3824316130042509
20
-1.2442903249711128
30
0
10
-3.3630390895326019
20
-1.2723105230252107
30
0
10
-3.3383700097137377
20
-1.3079548012620017
30
0
10
-3.3090741008397635
20
-1.3486065575584134
30
0
10
-3.2812282559438462
20
-1.3831721864310005
30
0
10
-3.2544284032547006
20
-1.4164394033301664
30
0
10
-3.2267334787384665
20
-1.446298687114129
30
0
10
-3.1969712796667418
20
-1.4758887737081794
30
0
10
-3.1700851156566019
20
-1.5026194571272569
30
0
10
-3.1434902649499117
20
-1.5273338636439955
30
0
10
-3.1221381828424306
20
-1.546027527477245
30
0
10
-3.0994106958123284
20
-1.5659253529060082
30
0
10
-3.080743313747512
20
-1.5811590697163511
30
0
10
-3.0581370772788099
20
-1.5990681197657752
30
0
10
-3.0340236110923158
20
-1.6181712231680998
30
0
10
-3.0073697775937371
20
-1.6374910569703969
30
0
10
-2.9854471112993197
20
-1.6523235466574591
30
0
10
-2.9663584313492795
20
-1.6652386111252651
30
0
10
-2.948891871026595
20
-1.6765793338664432
30
0
10
-2.9279640707995789
20
-1.6898229820771467
30
0
10
-2.9088285230848721
20
-1.7019324469756865
30
0
10
-2.8898599248493606
20
-1.7136636232717848
30
0
10
-2.8707675638038417
20
-1.7242595197894388
30
0
10
-2.8512179775214261
20
-1.7351091675997627
30
0
10
-2.8284673663692552
20
-1.7465925282400494
30
0
10
-2.7989961748328605
20
-1.7603586909649238
30
0
10
-2.7616587760028417
20
-1.7777992042669677
30
0
10
-2.7166004486810542
20
-1.7968118658420937
30
0
10
-2.6786804673801194
20
-1.8113197803296839
30
0
10
-2.641011498635272
20
-1.8257316592029593
30
0
10
-2.6114359140978594
20
-1.836039616533663
30
0
10
-2.5713126851351435
20
-1.8478263668159669
30
0
10
-2.5412451586306704
20
-1.8566591162151764
30
0
10
-2.5032806607230866
20
-1.8668391399604867
30
0
10
-2.4583017880134883
20
-1.8780674877253816
30
0
10
-2.4018509483844621
20
-1.8921596519080501
30
0
10
-2.336972684455549
20
-1.9071813140931726
30
0
10
-2.2776880348671016
20
-1.918810382988039
30
0
10
-2.1777718453894011
20
-1.9384095922136106
30
0
10
-2.0921880732391691
20
-1.9482000966742434
30
0
10
-1.9863877064560385
20
-1.9580043671286063
30
0
10
-1.8888721398424433
20
-1.9670409046913715
30
0
10
-1.7778514707100985
20
-1.9758046297499574
30
0
10
-1.6748235187347189
20
-1.981289555687576
30
0
10
-1.5800040331466003
20
-1.9863374853602751
30
0
10
-1.4899359184387191
20
-1.9886509681306486
30
0
10
-1.3938202461978297
20
-1.9904250278414648
30
0
10
-1.2854151968113587
20
-1.9924259193306653
30
0
10
-1.1690795036941195
20
-1.9940239648835185
30
0
10
-1.0716367121966213
20
-1.9946860735569258
30
0
10
-0.97248946996327867
20
-1.9953597637090474
30
0
10
-0.89488839842074441
20
-1.9948703115584618
30
0
10
-0.81185981612392299
20
-1.9947759586391864
30
0
10
-0.70892939336869309
20
-1.9946589894509799
30
0
10
-0.5965265845696105
20
-1.994931697599577
30
0
10
-0.48635325751240127
20
-1.9945746570981218
30
0
10
-0.34763688802421766
20
-1.9941251166926082
30
0
10
-0.2091382233247866
20
-1.9934544877736458
30
0
10
-0.070871099554125044
20
-1.9938002586799399
30
0
10
0.04746708132469718
20
-1.9940961923692784
30
0
10
0.16944831767414048
20
-1.9948206195142901
30
0
10
0.28558593199245746
20
-1.9948141187102402
30
0
10
0.37750315629353243
20
-1.9948089736427481
30
0
10
0.46676358329473328
20
-1.9947391927469411
30
0
10
0.55908578183823088
20
-1.994963811602428
30
0
10
0.63511225023207618
20
-1.9951487831324257
30
0
10
0.71088010112383238
20
-1.9949959555914207
30
0
10
0.77814341927453801
20
-1.9941243220231648
30
0
10
0.83917649393302818
20
-1.9933334232374846
30
0
10
0.89223192825870301
20
-1.9924202642949076
30
0
10
0.95060078094344125
20
-1.9917408062833815
30
0
10
1.0023473373533389
20
-1.9911384368568057
30
0
10
1.0610946540729953
20
-1.9905742492378125
30
0
10
1.1327378820344052
20
-1.9888220787441031
30
0
10
1.2356356360090492
20
-1.9863055197682782
30
0
10
1.3640313171818812
20
-1.9805308974369005
30
0
10
1.481790050971018
20
-1.9718615864629341
30
0
10
1.5712050328435052
20
-1.9652789215629176
30
0
10
1.652555001081049
20
-1.9577525876693953
30
0
10
1.7176074036869522
20
-1.9508603495083103
30
0
10
1.7862632154379259
20
-1.9435863336876036
30
0
10
1.8371964295420329
20
-1.9367102635890125
30
0
10
1.8856703429516071
20
-1.9273636528652776
30
0
10
1.9179089866651384
20
-1.9211474835515769
30
0
10
1.9509146879493589
20
-1.9136690198451471
30
0
10
1.9839843750617869
20
-1.9063066469709828
30
0
10
2.0111334310599243
20
-1.9002623964535739
30
0
10
2.0359369409423267
20
-1.8948985287497409
30
0
10
2.0557330368770934
20
-1.8905027087613442
30
0
10
2.0755839069412518
20
-1.8860947259094407
30
0
10
2.0920207911418029
20
-1.882099143980436
30
0
10
2.1194376690169618
20
-1.8738422597089208
30
0
10
2.1445414193275454
20
-1.8662819983969166
30
0
10
2.1808293430735364
20
-1.8546398083824502
30
0
10
2.2217806675812457
20
-1.8411705588524814
30
0
10
2.2635133659055158
20
-1.8274443086262477
30
0
10
2.3077265571261583
20
-1.8125726122497998
30
0
10
2.3402628552156726
20
-1.8010376961850978
30
0
10
2.3769475003855525
20
-1.7880320892861892
30
0
10
2.3977360869968352
20
-1.7794735790355458
30
0
10
2.4146743896654401
20
-1.7714695754270677
30
0
10
2.4288645696109579
20
-1.7647641661714288
30
0
10
2.442669580640398
20
-1.7578868241720877
30
0
10
2.4609908659836153
20
-1.7489941590928619
30
0
10
2.488391099692052
20
-1.7356948137195936
30
0
10
2.5211591014844155
20
-1.7195611846617438
30
0
10
2.5528002711137434
20
-1.7020590773270574
30
0
10
2.6056935032552966
20
-1.6728015297374808
30
0
10
2.6615634468430143
20
-1.6377835805002066
30
0
10
2.7123890140138465
20
-1.6019312427809769
30
0
10
2.7537361366551805
20
-1.5727649965948209
30
0
10
2.7920147302284644
20
-1.5400068194209477
30
0
10
2.8241068929510744
20
-1.508517098428793
30
0
10
2.8503538251524234
20
-1.4827628798968593
30
0
10
2.8720325459682536
20
-1.4601232528285477
30
0
10
2.891798502490718
20
-1.4386658134853361
30
0
10
2.9074640464370507
20
-1.4216596818253366
30
0
10
2.9232138830520955
20
-1.4033847453285366
30
0
10
2.940929401356728
20
-1.3815216214489316
30
0
10
2.9571985928672362
20
-1.3614434423463628
30
0
10
2.9735866374385824
20
-1.34054051438468
30
0
10
2.9866695827982528
20
-1.3230158848928779
30
0
10
2.9996784104502963
20
-1.3055905362074407
30
0
10
3.0108683699926666
20
-1.2891281983471881
30
0
10
3.0244727732540597
20
-1.2681092950674444
30
0
10
3.0377454024778157
20
-1.2476029851204495
30
0
10
3.0521176798390037
20
-1.2250328030221251
30
0
10
3.0634777907917687
20
-1.206750677025233
30
0
10
3.0771794000854253
20
-1.1847003160289034
30
0
10
3.087776096959562
20
-1.1661660238447198
30
0
10
3.106045543547459
20
-1.1293495326768515
30
0
10
3.1231431862291164
20
-1.094894454481018
30
0
10
3.1473729980957446
20
-1.0437677947673216
30
0
10
3.173206568008387
20
-0.98489742430011629
30
0
10
3.2001475443652705
20
-0.92350346039031606
30
0
10
3.2273070620664166
20
-0.85638907608131487
30
0
10
3.2478329548028002
20
-0.79611057152319731
30
0
10
3.2747045897104523
20
-0.71719649026651433
30
0
10
3.2906234026821548
20
-0.64936963099661704
30
0
10
3.3034487960442642
20
-0.5828302512541278
30
0
10
3.3156113829518064
20
-0.51972957542746301
30
0
10
3.3265306893002351
20
-0.45499716441293026
30
0
10
3.336954764097845
20
-0.38581029030279584
30
0
10
3.3501172823539926
20
-0.29844776545126556
30
0
10
3.3602230500663275
20
-0.20687092244381042
30
0
10
3.3646615391808243
20
-0.11961563118661674
30
0
10
3.3699504724032927
20
-0.015641644349747342
30
0
10
3.3703258761573904
20
0.082958635677266732
30
0
10
3.3660502624915236
20
0.18624676792271042
30
0
10
3.3625712494677944
20
0.27029102106633907
30
0
10
3.3538353133407108
20
0.35879635564860202
30
0
10
3.3414326285019182
20
0.44481593971554589
30
0
10
3.3314569854462914
20
0.51400262611439262
30
0
10
3.3205105704966731
20
0.5795748014232992
30
0
10
3.3095870222627397
20
0.64131387628226921
30
0
10
3.2996303884225573
20
0.69758802354998539
30
0
10
3.2891127207759014
20
0.75216806240623113
30
0
10
3.2712513087270141
20
0.81460952909151108
30
0
10
3.2560927311875738
20
0.86760219349198175
30
0
10
3.234981753676772
20
0.9271254022834956
30
0
10
3.209756096609071
20
0.98911013101848599
30
0
10
3.1823297878012977
20
1.0565023225118275
30
0
10
3.1511579938925895
20
1.1248795972960184
30
0
10
3.1280285258808997
20
1.1740819010451109
30
0
10
3.1108768639993842
20
1.2105678797658297
30
0
10
3.0986810661521802
20
1.2356116958449912
30
0
10
3.0894662697318549
20
1.2533564433009154
30
0
10
3.0801062516375062
20
1.2713808412030485
30
0
10
3.0724226679973592
20
1.2841240070031659
30
0
10
3.0613862721348539
20
1.3018132326557827
30
0
10
3.0482988993118774
20
1.3227897809737046
30
0
10
3.031431674406964
20
1.3496829633442686
30
0
10
3.0175834088746334
20
1.3708997694985112
30
0
10
3.0029003247319537
20
1.3933955939231921
30
0
10
2.9894288831281544
20
1.4115742105410207
30
0
10
2.9681495946851806
20
1.4379826665981055
30
0
10
2.9472027951241286
20
1.4639784905292981
30
0
10
2.9203647304592093
20
1.4965315325575097
30
0
10
2.9010518714216187
20
1.519169840363723
30
0
10
2.882040775806491
20
1.5414544246104644
30
0
10
2.8692905081385742
20
1.5546826136845542
30
0
10
2.8497916352104631
20
1.5734458808693756
30
0
10
2.8295533540676607
20
1.5929206616858846
30
0
10
2.8006677933478099
20
1.6203478842062435
30
0
10
2.7766753258483181
20
1.6423617520278169
30
0
10
2.7482997229336616
20
1.6683972888867884
30
0
10
2.728492998691932
20
1.6844297582960599
30
0
10
2.7022471458235331
20
1.7035348330091575
30
0
10
2.67060982126536
20
1.7265645075423934
30
0
10
2.6294936400861517
20
1.7540826356469239
30
0
10
2.5933415767133585
20
1.7757359870001022
30
0
10
2.5481004289441747
20
1.8028332638046241
30
0
10
2.5079081402010188
20
1.8246577931196817
30
0
10
2.4647591665789865
20
1.8457449103266346
30
0
10
2.436598383382683
20
1.8595072246078908
30
0
10
2.406187857362053
20
1.8737370679834704
30
0
10
2.3713074888236405
20
1.8883152772107883
30
0
10
2.3427843900810394
20
1.9002364729637276
30
0
10
2.311662810916737
20
1.9118815977904879
30
0
10
2.286799262443767
20
1.9206284027521408
30
0
10
2.2633951345910712
20
1.9288617947737039
30
0
10
2.2474469057056425
20
1.9341884126920721
30
0
10
2.2267727023841042
20
1.9402035243133735
30
0
10
2.2078135803809555
20
1.9457196369933725
30
0
10
2.1819937232176625
20
1.9525990804089228
30
0
10
2.1450013962355903
20
1.9619739884116378
30
0
10
2.093975009932902
20
1.9749055262824651
30
0
10
2.0245145463197618
20
1.9917869232412406
30
0
10
1.961484342947649
20
2.0051294662383623
30
0
10
1.9021027601196654
20
2.0176996513199805
30
0
10
1.849537675406481
20
2.0267476124248471
30
0
10
1.7995577375622684
20
2.0331861492401737
30
0
10
1.7460561610414289
20
2.0400783520912689
30
0
10
1.692502806698269
20
2.0448685322885138
30
0
10
1.6304753199746607
20
2.0503374773759835
30
0
10
1.5480874256877644
20
2.0576015935529779
30
0
10
1.4533724429013013
20
2.0655465459801743
30
0
10
1.36434907569427
20
2.0710011250225548
30
0
10
1.2680962863618266
20
2.0768986602870032
30
0
10
1.1790486555555015
20
2.07951835826344
30
0
10
1.0853666234584849
20
2.081248486413382
30
0
10
0.99603788517398395
20
2.0828982175437307
30
0
10
0.89977413709918741
20
2.0842538191909186
30
0
10
0.81100102563663479
20
2.0852817533594163
30
0
10
0.73852785756084716
20
2.0861209449179525
30
0
10
0.67360108684156561
20
2.0864940404776169
30
0
10
0.61580043564855935
20
2.0864695204778019
30
0
10
0.54842014516448101
20
2.0864409366353005
30
0
10
0.48715094682352872
20
2.0861310065934973
30
0
10
0.42034480280567238
20
2.0861344739017547
30
0
10
0.32809617646959538
20
2.0861392617012684
30
0
10
0.22977363439603696
20
2.0862720234525436
30
0
10
0.13349930722915199
20
2.0859376697159253
30
0
10
-0.017232388786951176
20
2.0854141894977523
30
0
10
-0.16731602899490661
20
2.0848303404864277
30
0
10
-0.31811470004325609
20
2.0853379883231993
30
0
10
-0.4349713419243581
20
2.0857313738951735
30
0
10
-0.55464611635924255
20
2.0862758143569944
30
0
10
-0.66792033221789637
20
2.086192389849812
30
0
10
-0.74390392651336312
20
2.0861364292425364
30
0
10
-0.8188762241100449
20
2.0861571461557298
30
0
10
-0.89575070870261708
20
2.0863510878087834
30
0
10
-0.98522343321029338
20
2.0865768127445179
30
0
10
-1.0743677584411104
20
2.0862027674350174
30
0
10
-1.1517244960902087
20
2.0850723107012268
30
0
10
-1.2242464376362379
20
2.0840125075132976
30
0
10
-1.2857181374083559
20
2.0833639521151484
30
0
10
-1.3670644263563723
20
2.0822339387742912
30
0
10
-1.4283133805506425
20
2.0813831054265366
30
0
10
-1.5028826846976209
20
2.0799362197393156
30
0
10
-1.5855454638902404
20
2.0766959080901555
30
0
10
-1.6833039147340789
20
2.0728638587667829
30
0
10
-1.7892750895595324
20
2.0662377339796971
30
0
10
-1.8832645947702074
20
2.0585672252441634
30
0
10
-1.9615378231437288
20
2.0521793260776366
30
0
10
-2.0309740258980833
20
2.0457056720685727
30
0
10
-2.0962967041295673
20
2.0381241861655428
30
0
10
-2.1547697976841071
20
2.0313376773068681
30
0
10
-2.2121400609464388
20
2.022949321729024
30
0
10
-2.2746081744672235
20
2.0108042568868694
30
0
10
-2.344902714192362
20
1.9971375764815587
30
0
10
-2.4217196603280211
20
1.9787194749141717
30
0
10
-2.4842176577030357
20
1.9627412912402977
30
0
10
-2.5318390030910565
20
1.9505664594798324
30
0
10
-2.5692209461164861
20
1.9404952453482354
30
0
10
-2.6028645133162018
20
1.929781346157702
30
0
10
-2.6333973759901204
20
1.9200580605517241
30
0
10
-2.6633743030655537
20
1.9087207018498555
30
0
10
-2.6952744114845379
20
1.8956238086393642
30
0
10
-2.7279871192538434
20
1.8821932950293971
30
0
10
-2.7599759665517976
20
1.8682477575881806
30
0
10
-2.7849560390229682
20
1.8567465034834474
30
0
10
-2.8105731067946245
20
1.8449519658094664
30
0
10
-2.8311876386841557
20
1.8344020542250399
30
0
10
-2.8572689892105241
20
1.8202122432357897
30
0
10
-2.8853658670641233
20
1.804925865111791
30
0
10
-2.9178312552067998
20
1.7867129792193677
30
0
10
-2.9446128044366655
20
1.7706479719252877
30
0
10
-2.9705180815997179
20
1.7551085995384395
30
0
10
-2.9934292785922998
20
1.7398627074523074
30
0
10
-3.0188697744054322
20
1.7216968304255649
30
0
10
-3.0429414647729693
20
1.7045083538229677
30
0
10
-3.0669616396197945
20
1.6865219180927999
30
0
10
-3.0869361391996604
20
1.6700451533420695
30
0
10
-3.1069536123394625
20
1.6535329401319296
30
0
10
-3.125130850596002
20
1.6366654355302122
30
0
10
-3.1478289351433784
20
1.6151302395554881
30
0
10
-3.1715883954424759
20
1.5925880451810346
30
0
10
-3.1978866618380977
20
1.5672290743402175
30
0
10
-3.2199492073852642
20
1.5442173057855717
30
0
10
-3.2424733857522892
20
1.5207240430359292
30
0
10
-3.2623937036511701
20
1.4975422870359849
30
0
10
-3.2856348442499494
20
1.4685136275544872
30
0
10
-3.3144386300079383
20
1.4325371106106248
30
0
10
-3.3464526805370882
20
1.3894189590072314
30
0
10
-3.3680462440809058
20
1.3571035043264041
30
0
10
-3.3848323844604602
20
1.3319825113230603
30
0
10
-3.3958271668583384
20
1.3141451798475996
30
0
10
-3.4088545060056332
20
1.2921270012073491
30
0
10
-3.421371735062039
20
1.2709709859744034
30
0
10
-3.4366970442053422
20
1.2434341474045856
30
0
10
-3.4570390235125945
20
1.2025073455621997
30
0
10
-3.4943205897785621
20
1.1274991444479106
30
0
10
-3.5464697501207376
20
1.0101626293391077
30
0
10
-3.5821258867352919
20
0.90684651779970893
30
0
10
-3.61042231258652
20
0.82485567507284008
30
0
10
-3.6289318450391166
20
0.75129608650047175
30
0
10
-3.6436463635546215
20
0.67918789337688967
30
0
10
-3.6584629031609559
20
0.60657974801140557
30
0
10
-3.6710637584749741
20
0.53253132455084906
30
0
10
-3.6820618796786282
20
0.45493470550381437
30
0
10
-3.6955994178146399
20
0.35942137462455193
30
0
10
-3.7045039320711668
20
0.26161095620180186
30
0
10
-3.7079463784913127
20
0.16708836417334844
30
0
10
-3.7094293022692026
20
0.12637028692265287
30
0
10
-3.7100876258466831
20
0.086033092959924506
30
0
10
-3.7101001742274655
20
0.045710447764532092
30
0
0
ENDSEC
0
SECTION
2
OBJECTS
0
DICTIONARY
5
C
100
AcDbDictionary
3
ACAD_GROUP
350
D
3
ACAD_MLINESTYLE
350
17
0
DICTIONARY
5
D
100
AcDbDictionary
0
DICTIONARY
5
1A
330
C
100
AcDbDictionary
0
DICTIONARY
5
17
100
AcDbDictionary
0
ENDSEC
0
EOF
