0
SECTION
2
HEADER
9
$INSUNITS
70
1
9
$ACADVER
1
AC1014
9
$HANDSEED
5
FFFF
0
ENDSEC
0
SECTION
2
TABLES
0
TABLE
2
VPORT
5
8
100
AcDbSymbolTable
0
ENDTAB
0
TABLE
2
LTYPE
5
5
100
AcDbSymbolTable
0
LTYPE
5
14
100
AcDbSymbolTableRecord
100
AcDbLinetypeTableRecord
2
BYBLOCK
70
0
0
LTYPE
5
15
100
AcDbSymbolTableRecord
100
AcDbLinetypeTableRecord
2
BYLAYER
70
0
0
ENDTAB
0
TABLE
2
LAYER
5
2
100
AcDbSymbolTable
70
2
0
LAYER
5
50
100
AcDbSymbolTableRecord
100
AcDbLayerTableRecord
2
0
70
0
6
CONTINUOUS
0
ENDTAB
0
TABLE
2
STYLE
5
3
100
AcDbSymbolTable
70
1
0
STYLE
5
11
100
AcDbSymbolTableRecord
100
AcDbTextStyleTableRecord
2
STANDARD
70
0
0
ENDTAB
0
TABLE
2
VIEW
5
6
100
AcDbSymbolTable
70
0
0
ENDTAB
0
TABLE
2
UCS
5
7
100
AcDbSymbolTable
70
0
0
ENDTAB
0
TABLE
2
APPID
5
9
100
AcDbSymbolTable
70
2
0
APPID
5
12
100
AcDbSymbolTableRecord
100
AcDbRegAppTableRecord
2
ACAD
70
0
0
ENDTAB
0
TABLE
2
DIMSTYLE
5
A
100
AcDbSymbolTable
70
1
0
ENDTAB
0
TABLE
2
BLOCK_RECORD
5
1
100
AcDbSymbolTable
70
1
0
BLOCK_RECORD
5
1F
100
AcDbSymbolTableRecord
100
AcDbBlockTableRecord
2
*MODEL_SPACE
0
BLOCK_RECORD
5
1B
100
AcDbSymbolTableRecord
100
AcDbBlockTableRecord
2
*PAPER_SPACE
0
ENDTAB
0
ENDSEC
0
SECTION
2
BLOCKS
0
BLOCK
5
20
100
AcDbEntity
100
AcDbBlockBegin
2
*MODEL_SPACE
0
ENDBLK
5
21
100
AcDbEntity
100
AcDbBlockEnd
0
BLOCK
5
1C
100
AcDbEntity
100
AcDbBlockBegin
2
*PAPER_SPACE
0
ENDBLK
5
1D
100
AcDbEntity
100
AcDbBlockEnd
0
ENDSEC
0
SECTION
2
ENTITIES
0
LINE
5
100
100
AcDbEntity
8
0
100
AcDbLine
10
2.4154155345444952
20
1.3059418426673131
30
0
11
2.6533710856474779
21
1.7709387324168071
31
0
0
SPLINE
5
101
100
AcDbEntity
8
0
100
AcDbSpline
70
0
71
3
72
17
73
13
74
0
42
0.000000001
43
0.0000000001
44
0.0000000001
40
-0.38638859369393891
40
-0.38638859369393891
40
-0.38638859369393891
40
-0.38638859369393891
40
-0.38405494456149386
40
-0.38405494456149386
40
-0.38405494456149386
40
-0.37903160588947077
40
-0.37903160588947077
40
-0.37903160588947077
40
-0.37303542887407543
40
-0.37303542887407543
40
-0.37303542887407543
40
-0.3681544036212554
40
-0.3681544036212554
40
-0.3681544036212554
40
-0.3681544036212554
10
2.6533710856474788
20
1.7709387324168078
30
0
10
2.6440605226584832
20
1.7755521375493508
30
0
10
2.6350601043097441
20
1.779942869801991
30
0
10
2.626563620755872
20
1.7840668371536432
30
0
10
2.6081870251825205
20
1.7929863483488937
30
0
10
2.594403373492042
20
1.7998521754673855
30
0
10
2.5803583520008568
20
1.8064889917349893
30
0
10
2.5638546470780303
20
1.8142876310874672
30
0
10
2.5435174094094668
20
1.8226738843066586
30
0
10
2.5070463462266797
20
1.8356037711501612
30
0
10
2.4773335371177376
20
1.8461376910870648
30
0
10
2.4376813264852952
20
1.8595206014411805
30
0
10
2.3991399904367614
20
1.8722480886302315
30
0
0
LINE
5
102
100
AcDbEntity
8
0
100
AcDbLine
10
2.3991399904367614
20
1.872248088630232
30
0
11
2.080311882941078
21
1.7340756243595992
31
0
0
LINE
5
103
100
AcDbEntity
8
0
100
AcDbLine
10
2.080311882941078
20
1.7340756243595992
30
0
11
1.5162444852193
21
1.8288323019401362
31
0
0
LINE
5
104
100
AcDbEntity
8
0
100
AcDbLine
10
1.5162444852193
20
1.8288323019401362
30
0
11
0.88600622478514757
21
1.7984303794493663
31
0
0
LINE
5
105
100
AcDbEntity
8
0
100
AcDbLine
10
0.88600622478514757
20
1.7984303794493663
30
0
11
0.42225287327627814
21
2.0286835016486386
31
0
0
SPLINE
5
106
100
AcDbEntity
8
0
100
AcDbSpline
70
0
71
3
72
8
73
4
74
0
42
0.000000001
43
0.0000000001
44
0.0000000001
40
-0.26510824276020062
40
-0.26510824276020062
40
-0.26510824276020062
40
-0.26510824276020062
40
-0.26394799081895953
40
-0.26394799081895953
40
-0.26394799081895953
40
-0.26394799081895953
10
0.42225287327627814
20
2.0286835016486386
30
0
10
0.41437390304861632
20
2.0286751090897801
30
0
10
0.40647248515304391
20
2.0286639213957613
30
0
10
0.39855151250463361
20
2.0286502909194488
30
0
0
SPLINE
5
107
100
AcDbEntity
8
0
100
AcDbSpline
70
0
71
3
72
38
73
34
74
0
42
0.000000001
43
0.0000000001
44
0.0000000001
40
-0.26394799081895337
40
-0.26394799081895337
40
-0.26394799081895337
40
-0.26394799081895337
40
-0.24953701427601019
40
-0.24953701427601019
40
-0.24953701427601019
40
-0.22938130731466233
40
-0.22938130731466233
40
-0.22938130731466233
40
-0.2133729493730929
40
-0.2133729493730929
40
-0.2133729493730929
40
-0.20045984526635752
40
-0.20045984526635752
40
-0.20045984526635752
40
-0.18776873169915684
40
-0.18776873169915684
40
-0.18776873169915684
40
-0.17651635075472089
40
-0.17651635075472089
40
-0.17651635075472089
40
-0.16428985789450981
40
-0.16428985789450981
40
-0.16428985789450981
40
-0.151024617543629
40
-0.151024617543629
40
-0.151024617543629
40
-0.14315376968584495
40
-0.14315376968584495
40
-0.14315376968584495
40
-0.13688243933472211
40
-0.13688243933472211
40
-0.13688243933472211
40
-0.13545794459184707
40
-0.13545794459184707
40
-0.13545794459184707
40
-0.13545794459184707
10
0.39855151250450704
20
2.0286502909194493
30
0
10
0.30016861222559255
20
2.028480992797697
30
0
10
0.19877042076043558
20
2.0279347635363605
30
0
10
0.099888543874019617
20
2.027687485114313
30
0
10
-0.038436494114767301
20
2.0273415693792902
30
0
10
-0.17695764643561157
20
2.0280124090156026
30
0
10
-0.31566142633395106
20
2.0284619086218267
30
0
10
-0.42578923000901858
20
2.0288188015949138
30
0
10
-0.5381820750444879
20
2.0285461517691603
30
0
10
-0.64114313089942698
20
2.0286631557685402
30
0
10
-0.72420976727963471
20
2.0287575519321273
30
0
10
-0.8017598517893687
20
2.0292466772357161
30
0
10
-0.90082635281862011
20
2.0285735357075687
30
0
10
-0.99820389249289876
20
2.0279118704101919
30
0
10
-1.1145069969788801
20
2.0263143842630522
30
0
10
-1.2228721736234105
20
2.024314228726932
30
0
10
-1.3189345379183446
20
2.0225411529501294
30
0
10
-1.4088512245325568
20
2.0202304527371258
30
0
10
-1.5034655142020754
20
2.0151934471330377
30
0
10
-1.6062763244800715
20
2.009720081224569
30
0
10
-1.7171737151528115
20
2.0009672219490846
30
0
10
-1.8145677689419577
20
1.9919419446931672
30
0
10
-1.9202314975711885
20
1.9821503361742585
30
0
10
-2.0052893250044099
20
1.9724154451116644
30
0
10
-2.1046844447395587
20
1.9529184470988981
30
0
10
-2.163681015675015
20
1.941345886702033
30
0
10
-2.2284097686710047
20
1.9263611638487557
30
0
10
-2.2847110124162269
20
1.9123063441904464
30
0
10
-2.3295775317541669
20
1.9011060438765779
30
0
10
-2.3674110249787557
20
1.8909590719967198
30
0
10
-2.3972535961401276
20
1.8821924063231312
30
0
10
-2.4040354646067126
20
1.8802001391968399
30
0
10
-2.4105067223758412
20
1.8782526598848495
30
0
10
-2.4167616253447428
20
1.8763217398406602
30
0
0
LINE
5
108
100
AcDbEntity
8
0
100
AcDbLine
10
-2.4167616253447428
20
1.8763217398406606
30
0
11
-2.4421523395000695
21
1.1603353475256977
31
0
0
LINE
5
109
100
AcDbEntity
8
0
100
AcDbLine
10
-2.4421523395000695
20
1.1603353475256977
30
0
11
-1.2961370684429006
21
0.55684498529003312
31
0
0
LINE
5
110
100
AcDbEntity
8
0
100
AcDbLine
10
-1.2961370684429006
20
0.55684498529003312
30
0
11
-1.1709558919746637
21
0.43849187299279113
31
0
0
LINE
5
111
100
AcDbEntity
8
0
100
AcDbLine
10
-1.1709558919746637
20
0.43849187299279113
30
0
11
-1.1437612802186863
21
0.24549261824703061
31
0
0
LINE
5
112
100
AcDbEntity
8
0
100
AcDbLine
10
-1.1437612802186863
20
0.24549261824703061
30
0
11
-1.1709558919746637
21
-0.29666303608430927
31
0
0
LINE
5
113
100
AcDbEntity
8
0
100
AcDbLine
10
-1.1709558919746637
20
-0.29666303608430927
30
0
11
-0.52456581712049499
21
-0.43277007028310238
31
0
0
LINE
5
114
100
AcDbEntity
8
0
100
AcDbLine
10
-0.52456581712049499
20
-0.43277007028310238
30
0
11
0.075026225157898349
21
-0.46284570017180093
31
0
0
LINE
5
115
100
AcDbEntity
8
0
100
AcDbLine
10
0.075026225157898349
20
-0.46284570017180093
30
0
11
0.66872918761433287
21
-0.40269444039440389
31
0
0
LINE
5
116
100
AcDbEntity
8
0
100
AcDbLine
10
0.66872918761433287
20
-0.40269444039440389
30
0
11
0.96319685829664603
21
-0.29249195808300027
31
0
0
LINE
5
117
100
AcDbEntity
8
0
100
AcDbLine
10
0.96319685829664603
20
-0.29249195808300027
30
0
11
1.439707931357588
21
0.63867424450177768
31
0
0
LINE
5
118
100
AcDbEntity
8
0
100
AcDbLine
10
1.439707931357588
20
0.63867424450177768
30
0
11
1.6274327702676159
21
0.88117115145255243
31
0
0
LINE
5
119
100
AcDbEntity
8
0
100
AcDbLine
10
1.6274327702676159
20
0.88117115145255243
30
0
11
2.4154155345444952
21
1.3059418426673131
31
0
0
CIRCLE
5
120
100
AcDbEntity
8
0
100
AcDbCircle
10
-0.0015000000000003949
20
0.74613480314960623
30
0
40
1.0596881494198738
0
SPLINE
5
121
100
AcDbEntity
8
0
100
AcDbSpline
70
0
71
3
72
8
73
4
74
0
42
0.000000001
43
0.0000000001
44
0.0000000001
40
-0.047592155082837831
40
-0.047592155082837831
40
-0.047592155082837831
40
-0.047592155082837831
40
-0.0016710778320911497
40
-0.0016710778320911497
40
-0.0016710778320911497
40
-0.0016710778320911497
10
2.6533710856474779
20
1.7709387324168071
30
0
10
2.6661698895685499
20
1.7645968959704315
30
0
10
2.6766206134883128
20
1.7592666417907148
30
0
10
2.682324807706697
20
1.7563275787691008
30
0
0
LINE
5
122
100
AcDbEntity
8
0
100
AcDbLine
10
2.6533710856474779
20
1.7709387324168071
30
0
11
2.4154155345444952
21
1.3059418426673131
31
0
0
LINE
5
123
100
AcDbEntity
8
0
100
AcDbLine
10
2.4154155345444952
20
1.3059418426673131
30
0
11
1.6274327702676159
21
0.88117115145255243
31
0
0
LINE
5
124
100
AcDbEntity
8
0
100
AcDbLine
10
1.6274327702676159
20
0.88117115145255243
30
0
11
1.439707931357588
21
0.63867424450177768
31
0
0
LINE
5
125
100
AcDbEntity
8
0
100
AcDbLine
10
1.439707931357588
20
0.63867424450177768
30
0
11
0.96319685829664603
21
-0.29249195808300027
31
0
0
LINE
5
126
100
AcDbEntity
8
0
100
AcDbLine
10
0.96319685829664603
20
-0.29249195808300027
30
0
11
0.66872918761433287
21
-0.40269444039440389
31
0
0
LINE
5
127
100
AcDbEntity
8
0
100
AcDbLine
10
0.66872918761433287
20
-0.40269444039440389
30
0
11
0.075026225157898349
21
-0.46284570017180093
31
0
0
LINE
5
128
100
AcDbEntity
8
0
100
AcDbLine
10
0.075026225157898349
20
-0.46284570017180093
30
0
11
-0.52456581712049499
21
-0.43277007028310238
31
0
0
LINE
5
129
100
AcDbEntity
8
0
100
AcDbLine
10
-0.52456581712049499
20
-0.43277007028310238
30
0
11
-1.1709558919746637
21
-0.29666303608430927
31
0
0
LINE
5
130
100
AcDbEntity
8
0
100
AcDbLine
10
-1.1709558919746637
20
-0.29666303608430927
30
0
11
-1.1437612802186863
21
0.24549261824703061
31
0
0
LINE
5
131
100
AcDbEntity
8
0
100
AcDbLine
10
-1.1437612802186863
20
0.24549261824703061
30
0
11
-1.1709558919746637
21
0.43849187299279113
31
0
0
LINE
5
132
100
AcDbEntity
8
0
100
AcDbLine
10
-1.1709558919746637
20
0.43849187299279113
30
0
11
-1.2961370684429006
21
0.55684498529003312
31
0
0
LINE
5
133
100
AcDbEntity
8
0
100
AcDbLine
10
-1.2961370684429006
20
0.55684498529003312
30
0
11
-2.4421523395000695
21
1.1603353475256977
31
0
0
LINE
5
134
100
AcDbEntity
8
0
100
AcDbLine
10
-2.4421523395000695
20
1.1603353475256977
30
0
11
-2.4167616253447428
21
1.8763217398406602
31
0
0
SPLINE
5
135
100
AcDbEntity
8
0
100
AcDbSpline
70
0
71
3
72
8
73
4
74
0
42
0.000000001
43
0.0000000001
44
0.0000000001
40
-0.37346214070377909
40
-0.37346214070377909
40
-0.37346214070377909
40
-0.37346214070377909
40
-0.20959416593279837
40
-0.20959416593279837
40
-0.20959416593279837
40
-0.20959416593279837
10
-2.4610623592561516
20
1.8617187879773465
30
0
10
-2.4468978465843771
20
1.8666951082285477
30
0
10
-2.4324825856239287
20
1.8714686002367513
30
0
10
-2.4167616253447428
20
1.8763217398406602
30
0
0
LINE
5
136
100
AcDbEntity
8
0
100
AcDbLine
10
-2.4621388758917142
20
1.8613400328294705
30
0
11
-2.4610623592561516
21
1.8617187879773465
31
0
0
SPLINE
5
137
100
AcDbEntity
8
0
100
AcDbSpline
70
0
71
3
72
20
73
16
74
0
42
0.000000001
43
0.0000000001
44
0.0000000001
40
0.0028894867640792033
40
0.0028894867640792033
40
0.0028894867640792033
40
0.0028894867640792033
40
0.52944127799962826
40
0.52944127799962826
40
0.69084953046618436
40
0.69084953046618436
40
0.85966383652587264
40
0.85966383652587264
40
1.0729391827232302
40
1.0729391827232302
40
1.2445872667194871
40
1.2445872667194871
40
1.3509843362336074
40
1.3509843362336074
40
1.56800632409742
40
1.56800632409742
40
1.56800632409742
40
1.56800632409742
10
-2.4621388758917142
20
1.8613400328294705
30
0
10
-2.5277258615456715
20
1.8382308765418998
30
0
10
-2.628868324107057
20
1.7965662006634968
30
0
10
-2.7198485135003243
20
1.7452398199122212
30
0
10
-2.8281575442873255
20
1.6824995829928155
30
0
10
-3.0468236007893772
20
1.4938793675004696
30
0
10
-3.103936306634608
20
1.4185121087583497
30
0
10
-3.1368363116762263
20
1.3757846355717853
30
0
10
-3.197948923721408
20
1.2933490317903928
30
0
10
-3.2572433640514862
20
1.1908195204714198
30
0
10
-3.3757939039094618
20
0.96074677891987148
30
0
10
-3.4674778221637106
20
0.62715903910406823
30
0
10
-3.4948128814739232
20
0.44353711230244286
30
0
10
-3.5192151886888539
20
0.26251787858833137
30
0
10
-3.5276041303907717
20
0.14487082076738814
30
0
10
-3.5275590440226101
20
-8.5590567723568019e-06
30
0
0
SPLINE
5
138
100
AcDbEntity
8
0
100
AcDbSpline
70
0
71
3
72
70
73
66
74
0
42
0.000000001
43
0.0000000001
44
0.0000000001
40
0
40
0
40
0
40
0
40
1.0843028184044323
40
1.0843028184044323
40
2.2827496510785728
40
2.2827496510785728
40
2.9215158971286632
40
2.9215158971286632
40
3.4278298362785082
40
3.4278298362785082
40
3.8753302839304018
40
3.8753302839304018
40
4.9529878721999028
40
4.9529878721999028
40
8.2337106409268035
40
8.2337106409268035
40
10.739483823111581
40
10.739483823111581
40
13.00136624500578
40
13.00136624500578
40
17.190948556504985
40
17.190948556504985
40
29.781439834307879
40
29.781439834307879
40
33.796492846568007
40
33.796492846568007
40
42.854544534728397
40
42.854544534728397
40
47.381217957298539
40
47.381217957298539
40
49.855154836658187
40
49.855154836658187
40
53.360167045072309
40
53.360167045072309
40
55.960700969114384
40
55.960700969114384
40
91.413347698121271
40
91.413347698121271
40
173.29452549136431
40
173.29452549136431
40
246.42932939044249
40
246.42932939044249
40
320.94133335923402
40
320.94133335923402
40
400.60770139525027
40
400.60770139525027
40
543.81646084751833
40
543.81646084751833
40
820.15382106697575
40
820.15382106697575
40
1369.371202424853
40
1369.371202424853
40
2013.5108073549286
40
2013.5108073549286
40
2863.6552350302918
40
2863.6552350302918
40
3455.7109430196183
40
3455.7109430196183
40
4136.0823509905058
40
4136.0823509905058
40
4672.3207744271995
40
4672.3207744271995
40
5320.3760610691097
40
5320.3760610691097
40
6345.8532862712973
40
6345.8532862712973
40
6345.8532862712973
40
6345.8532862712973
10
-3.5275590440226101
20
-8.5590567679499673e-06
30
0
10
-3.5275147613046611
20
-0.14230550996224894
30
0
10
-3.51951990359338
20
-0.29215769565402983
30
0
10
-3.4496574287676869
20
-0.71882533830457029
30
0
10
-3.4134438974420247
20
-0.82920630986595367
30
0
10
-3.3439062994676574
20
-1.0045554677510926
30
0
10
-3.2827000236182422
20
-1.1512133014819455
30
0
10
-3.1624425470608069
20
-1.3479824968728802
30
0
10
-3.0882627373182325
20
-1.4395897807627802
30
0
10
-3.013533943237614
20
-1.5194879192697675
30
0
10
-2.9551844033967019
20
-1.5755685738760694
30
0
10
-2.8310981447184229
20
-1.6818589156662738
30
0
10
-2.7362614637198823
20
-1.7333705407471522
30
0
10
-2.6601520309371325
20
-1.7761168043139008
30
0
10
-2.6113796779877179
20
-1.8009406441523141
30
0
10
-2.4739090573271207
20
-1.8582997335235298
30
0
10
-2.4304001843384482
20
-1.8769924254769228
30
0
10
-2.0859178521550219
20
-1.9604321836452578
30
0
10
-1.9770028724921589
20
-1.9768560646089948
30
0
10
-1.5129172149606978
20
-2.0204517065414587
30
0
10
-1.2858577082976499
20
-2.0236199459722299
30
0
10
-0.64106315773514666
20
-2.0318322900955486
30
0
10
-0.39910266739189554
20
-2.0267574718260297
30
0
10
0.23903578122372957
20
-2.0280725119814038
30
0
10
0.39333104425396065
20
-2.0286840896265796
30
0
10
0.89572156452491791
20
-2.0285226672121257
30
0
10
0.91000482949749173
20
-2.0296985251331034
30
0
10
1.3685243741661881
20
-2.021835349674884
30
0
10
1.4663428282701327
20
-2.019084073525228
30
0
10
1.7069656703943425
20
-2.0012379527876609
30
0
10
1.8217570755231032
20
-1.9914310191053699
30
0
10
1.9927058776702484
20
-1.9743811026234819
30
0
10
2.0789090400801449
20
-1.9619221814016816
30
0
10
2.3832245456382157
20
-1.8880577129044556
30
0
10
2.4295029492638012
20
-1.872152059287727
30
0
10
2.5800901118195472
20
-1.8202540846660509
30
0
10
2.6837863072489285
20
-1.7633084824731173
30
0
10
2.8591406767750511
20
-1.6611804134723518
30
0
10
2.9160168758884009
20
-1.6096204132682104
30
0
10
2.9738415289035709
20
-1.5561633718785437
30
0
10
3.0197380835559033
20
-1.5139084637959361
30
0
10
3.0740510206320231
20
-1.4539992328508886
30
0
10
3.1254541843608492
20
-1.3912191052113534
30
0
10
3.1750525685456963
20
-1.3261761166850059
30
0
10
3.2146176148041663
20
-1.2634831682191543
30
0
10
3.2744792632392761
20
-1.1615142366126729
30
0
10
3.3551188166029133
20
-0.97688788797562809
30
0
10
3.4358146748037828
20
-0.76917695414903042
30
0
10
3.4531107404598806
20
-0.68288340780040635
30
0
10
3.5096541823986613
20
-0.35908200706998888
30
0
10
3.5258215367026899
20
-0.22603623741545081
30
0
10
3.5299755156462318
20
0.19148501609330945
30
0
10
3.5108396492147373
20
0.34216775544263334
30
0
10
3.4501610814247319
20
0.71264986225683469
30
0
10
3.4244885284177227
20
0.8038828886050412
30
0
10
3.3251543889560975
20
1.0487196667954155
30
0
10
3.2784360750422259
20
1.1466262265891773
30
0
10
3.2280555467402259
20
1.2440389161850074
30
0
10
3.1757232351240936
20
1.3246227712910121
30
0
10
3.1229485615772195
20
1.3949524995169933
30
0
10
3.0917330066710225
20
1.4373061036996946
30
0
10
2.952150253294616
20
1.5831102941218644
30
0
10
2.906130711693955
20
1.6169823748713914
30
0
10
2.8262084753564549
20
1.6732565224322498
30
0
10
2.7667164043483488
20
1.7128024486770581
30
0
10
2.6829285881708675
20
1.7560163302327592
30
0
0
LINE
5
139
100
AcDbEntity
8
0
100
AcDbLine
10
2.6829285881708675
20
1.7560163302327587
30
0
11
2.6823248077066975
21
1.7563275787691008
31
0
0
SPLINE
5
140
100
AcDbEntity
8
0
100
AcDbSpline
70
0
71
3
72
12
73
8
74
0
42
0.000000001
43
0.0000000001
44
0.0000000001
40
0.039281733102374775
40
0.039281733102374775
40
0.039281733102374775
40
0.039281733102374775
40
0.43807912813840699
40
0.43807912813840699
40
1.8971795772291542
40
1.8971795772291542
40
3.583444749708085
40
3.583444749708085
40
3.583444749708085
40
3.583444749708085
10
2.3016573022754403
20
1.9036746738749684
30
0
10
2.2576685463803812
20
1.9173064428086157
30
0
10
2.2409772896769282
20
1.920952916482549
30
0
10
2.0305348807346673
20
1.9670797907058557
30
0
10
2.0097935929728936
20
1.974317498611952
30
0
10
1.5319685059667505
20
2.0179096021692606
30
0
10
1.3418955008558879
20
2.0226814647233766
30
0
10
1.1989223998124745
20
2.0246842257005691
30
0
0
SPLINE
5
141
100
AcDbEntity
8
0
100
AcDbSpline
70
0
71
3
72
8
73
4
74
0
42
0.000000001
43
0.0000000001
44
0.0000000001
40
-3.7348135292811362
40
-3.7348135292811362
40
-3.7348135292811362
40
-3.7348135292811362
40
-3.5834447497080877
40
-3.5834447497080877
40
-3.5834447497080877
40
-3.5834447497080877
10
1.1615449286838351
20
2.0251633946848338
30
0
10
1.1736337409878419
20
2.0250198916480406
30
0
10
1.1860883188091287
20
2.0248640049487214
30
0
10
1.1989223998124745
20
2.0246842257005691
30
0
0
SPLINE
5
142
100
AcDbEntity
8
0
100
AcDbSpline
70
0
71
3
72
8
73
4
74
0
42
0.000000001
43
0.0000000001
44
0.0000000001
40
-0.043571290740187917
40
-0.043571290740187917
40
-0.043571290740187917
40
-0.043571290740187917
40
0
40
0
40
0
40
0
10
1.1208894548213921
20
2.0256323368600864
30
0
10
1.1415314849250535
20
2.0253916858136871
30
0
10
1.1558273143588069
20
2.025231266945418
30
0
10
1.1615449286838349
20
2.0251633946848338
30
0
0
SPLINE
5
143
100
AcDbEntity
8
0
100
AcDbSpline
70
0
71
3
72
10
73
6
74
0
42
0.000000001
43
0.0000000001
44
0.0000000001
40
0.043571290740187882
40
0.043571290740187882
40
0.043571290740187882
40
0.043571290740187882
40
0.18230624235152387
40
0.18230624235152387
40
0.24055222370305238
40
0.24055222370305238
40
0.24055222370305238
40
0.24055222370305238
10
1.1208894548213921
20
2.0256323368600864
30
0
10
1.055163354011855
20
2.0263985916739835
30
0
10
0.92510467623941206
20
2.0287956591683316
30
0
10
0.75130147537631486
20
2.0289609070230443
30
0
10
0.61321204559768028
20
2.0286745603918006
30
0
10
0.50771273649118109
20
2.0286939734288585
30
0
0
SPLINE
5
144
100
AcDbEntity
8
0
100
AcDbSpline
70
0
71
3
72
8
73
4
74
0
42
0.000000001
43
0.0000000001
44
0.0000000001
40
-0.25932917502242381
40
-0.25932917502242381
40
-0.25932917502242381
40
-0.25932917502242381
40
-0.24058142416506603
40
-0.24058142416506603
40
-0.24058142416506603
40
-0.24058142416506603
10
0.42225287327627814
20
2.0286835016486386
30
0
10
0.44435287083242697
20
2.0287070422288025
30
0
10
0.47420764717062447
20
2.0287001387350148
30
0
10
0.50771273649118109
20
2.0286939734288585
30
0
0
LINE
5
145
100
AcDbEntity
8
0
100
AcDbLine
10
0.42225287327627814
20
2.0286835016486386
30
0
11
0.88600622478514757
21
1.7984303794493663
31
0
0
LINE
5
146
100
AcDbEntity
8
0
100
AcDbLine
10
0.88600622478514757
20
1.7984303794493663
30
0
11
1.5162444852193
21
1.8288323019401362
31
0
0
LINE
5
147
100
AcDbEntity
8
0
100
AcDbLine
10
1.5162444852193
20
1.8288323019401362
30
0
11
2.080311882941078
21
1.7340756243595992
31
0
0
LINE
5
148
100
AcDbEntity
8
0
100
AcDbLine
10
2.080311882941078
20
1.7340756243595992
30
0
11
2.3991399904364821
21
1.8722480886303241
31
0
0
SPLINE
5
149
100
AcDbEntity
8
0
100
AcDbSpline
70
0
71
3
72
8
73
4
74
0
42
0.000000001
43
0.0000000001
44
0.0000000001
40
-0.24909084445398919
40
-0.24909084445398919
40
-0.24909084445398919
40
-0.24909084445398919
40
-0.050073094047576788
40
-0.050073094047576788
40
-0.050073094047576788
40
-0.050073094047576788
10
2.3155052130282487
20
1.8993445510483977
30
0
10
2.3410954307638456
20
1.8912788684930479
30
0
10
2.3719494346660697
20
1.8812272130123979
30
0
10
2.3991399904364821
20
1.8722480886303241
30
0
0
SPLINE
5
150
100
AcDbEntity
8
0
100
AcDbSpline
70
0
71
3
72
8
73
4
74
0
42
0.000000001
43
0.0000000001
44
0.0000000001
40
-0.03928173310237465
40
-0.03928173310237465
40
-0.03928173310237465
40
-0.03928173310237465
40
0
40
0
40
0
40
0
10
2.3016573022754403
20
1.9036746738749684
30
0
10
2.3059902156547243
20
1.9023319381509387
30
0
10
2.310588564128313
20
1.9008942107532396
30
0
10
2.3155052130282487
20
1.8993445510483977
30
0
0
CIRCLE
5
151
100
AcDbEntity
8
0
100
AcDbCircle
10
-0.0015000000000003949
20
0.74613480314960623
30
0
40
1.0596881494198738
0
ENDSEC
0
SECTION
2
OBJECTS
0
DICTIONARY
5
C
100
AcDbDictionary
3
ACAD_GROUP
350
D
3
ACAD_MLINESTYLE
350
17
0
DICTIONARY
5
D
100
AcDbDictionary
0
DICTIONARY
5
1A
330
C
100
AcDbDictionary
0
DICTIONARY
5
17
100
AcDbDictionary
0
ENDSEC
0
EOF
