0
SECTION
2
HEADER
9
$INSUNITS
70
1
9
$ACADVER
1
AC1014
9
$HANDSEED
5
FFFF
0
ENDSEC
0
SECTION
2
TABLES
0
TABLE
2
VPORT
5
8
100
AcDbSymbolTable
0
ENDTAB
0
TABLE
2
LTYPE
5
5
100
AcDbSymbolTable
0
LTYPE
5
14
100
AcDbSymbolTableRecord
100
AcDbLinetypeTableRecord
2
BYBLOCK
70
0
0
LTYPE
5
15
100
AcDbSymbolTableRecord
100
AcDbLinetypeTableRecord
2
BYLAYER
70
0
0
ENDTAB
0
TABLE
2
LAYER
5
2
100
AcDbSymbolTable
70
2
0
LAYER
5
50
100
AcDbSymbolTableRecord
100
AcDbLayerTableRecord
2
0
70
0
6
CONTINUOUS
0
ENDTAB
0
TABLE
2
STYLE
5
3
100
AcDbSymbolTable
70
1
0
STYLE
5
11
100
AcDbSymbolTableRecord
100
AcDbTextStyleTableRecord
2
STANDARD
70
0
0
ENDTAB
0
TABLE
2
VIEW
5
6
100
AcDbSymbolTable
70
0
0
ENDTAB
0
TABLE
2
UCS
5
7
100
AcDbSymbolTable
70
0
0
ENDTAB
0
TABLE
2
APPID
5
9
100
AcDbSymbolTable
70
2
0
APPID
5
12
100
AcDbSymbolTableRecord
100
AcDbRegAppTableRecord
2
ACAD
70
0
0
ENDTAB
0
TABLE
2
DIMSTYLE
5
A
100
AcDbSymbolTable
70
1
0
ENDTAB
0
TABLE
2
BLOCK_RECORD
5
1
100
AcDbSymbolTable
70
1
0
BLOCK_RECORD
5
1F
100
AcDbSymbolTableRecord
100
AcDbBlockTableRecord
2
*MODEL_SPACE
0
BLOCK_RECORD
5
1B
100
AcDbSymbolTableRecord
100
AcDbBlockTableRecord
2
*PAPER_SPACE
0
ENDTAB
0
ENDSEC
0
SECTION
2
BLOCKS
0
BLOCK
5
20
100
AcDbEntity
100
AcDbBlockBegin
2
*MODEL_SPACE
0
ENDBLK
5
21
100
AcDbEntity
100
AcDbBlockEnd
0
BLOCK
5
1C
100
AcDbEntity
100
AcDbBlockBegin
2
*PAPER_SPACE
0
ENDBLK
5
1D
100
AcDbEntity
100
AcDbBlockEnd
0
ENDSEC
0
SECTION
2
ENTITIES
0
LINE
5
100
100
AcDbEntity
8
0
100
AcDbLine
10
2.6012797730903174
20
1.9147783656854465
30
0
11
2.7048679364373465
21
1.8770753576047894
31
0
0
LINE
5
101
100
AcDbEntity
8
0
100
AcDbLine
10
2.7048679364373465
20
1.8770753576047894
30
0
11
2.6642611233197302
21
1.7655090554847686
31
0
0
SPLINE
5
102
100
AcDbEntity
8
0
100
AcDbSpline
70
0
71
3
72
86
73
82
74
0
42
0.000000001
43
0.0000000001
44
0.0000000001
40
0.38728787021446404
40
0.38728787021446404
40
0.38728787021446404
40
0.38728787021446404
40
0.39156755358600304
40
0.39156755358600304
40
0.39156755358600304
40
0.40412607078929158
40
0.40412607078929158
40
0.40412607078929158
40
0.41434255394731256
40
0.41434255394731256
40
0.41434255394731256
40
0.42269821832252397
40
0.42269821832252397
40
0.42269821832252397
40
0.42932051496280627
40
0.42932051496280627
40
0.42932051496280627
40
0.43540215538830668
40
0.43540215538830668
40
0.43540215538830668
40
0.44144934200890656
40
0.44144934200890656
40
0.44144934200890656
40
0.44734905435350109
40
0.44734905435350109
40
0.44734905435350109
40
0.45446479061934475
40
0.45446479061934475
40
0.45446479061934475
40
0.46112412293710098
40
0.46112412293710098
40
0.46112412293710098
40
0.46806892054470978
40
0.46806892054470978
40
0.46806892054470978
40
0.47716075729042173
40
0.47716075729042173
40
0.47716075729042173
40
0.48578273491300222
40
0.48578273491300222
40
0.48578273491300222
40
0.49666973832239159
40
0.49666973832239159
40
0.49666973832239159
40
0.50964276417413301
40
0.50964276417413301
40
0.50964276417413301
40
0.52019875202113652
40
0.52019875202113652
40
0.52019875202113652
40
0.52868907232113116
40
0.52868907232113116
40
0.52868907232113116
40
0.53642785907819512
40
0.53642785907819512
40
0.53642785907819512
40
0.54299559284958288
40
0.54299559284958288
40
0.54299559284958288
40
0.5501362867113081
40
0.5501362867113081
40
0.5501362867113081
40
0.55543146975027058
40
0.55543146975027058
40
0.55543146975027058
40
0.56081010285259858
40
0.56081010285259858
40
0.56081010285259858
40
0.56718828804685362
40
0.56718828804685362
40
0.56718828804685362
40
0.57395097104612158
40
0.57395097104612158
40
0.57395097104612158
40
0.5806079871235259
40
0.5806079871235259
40
0.5806079871235259
40
0.58716098732472077
40
0.58716098732472077
40
0.58716098732472077
40
0.58848694597652462
40
0.58848694597652462
40
0.58848694597652462
40
0.58848694597652462
10
2.6642611233195939
20
1.7655090554844837
30
0
10
2.6817220854498838
20
1.7567453823752859
30
0
10
2.6999777699319507
20
1.747287749461331
30
0
10
2.7178134975782333
20
1.7374220326337164
30
0
10
2.7702963874295312
20
1.7083914632150528
30
0
10
2.8258567712094314
20
1.67356843905982
30
0
10
2.8763110120316169
20
1.637978034820073
30
0
10
2.9170599732010909
20
1.6092337315318219
30
0
10
2.9549011246000076
20
1.5768542280186675
30
0
10
2.9865648488989134
20
1.5457849027019737
30
0
10
3.0126625552494111
20
1.5201771087176388
30
0
10
3.034186415663839
20
1.4976989557928495
30
0
10
3.0538415785604052
20
1.476361791302242
30
0
10
3.0693230839447225
20
1.4595554474074726
30
0
10
3.0848962862896285
20
1.4414881406922664
30
0
10
3.1024829002163754
20
1.4197841006358884
30
0
10
3.1186702050043711
20
1.399806979799163
30
0
10
3.1349874090996948
20
1.3789920167024241
30
0
10
3.1479352037129567
20
1.3616484218852487
30
0
10
3.1607531043256047
20
1.3444788203219913
30
0
10
3.1717598573855477
20
1.3282902218936004
30
0
10
3.1852875444871875
20
1.3073898456459407
30
0
10
3.198525444866426
20
1.2869371920196166
30
0
10
3.2128727769877981
20
1.2644055814525512
30
0
10
3.2241758732622099
20
1.2462152106803797
30
0
10
3.2377523769372361
20
1.2243661854537644
30
0
10
3.2480329503342165
20
1.206398991225921
30
0
10
3.2661956434677828
20
1.169797629048938
30
0
10
3.2832002998091516
20
1.1355299364293177
30
0
10
3.3073684703982766
20
1.0845356536487885
30
0
10
3.3331211733793356
20
1.0258495653476549
30
0
10
3.3599631136275998
20
0.96468128810926013
30
0
10
3.3870190468811501
20
0.89780298075644061
30
0
10
3.4073824716844809
20
0.83800159669041929
30
0
10
3.4340472440968925
20
0.75969500968611314
30
0
10
3.4498174008344158
20
0.69251365996007264
30
0
10
3.462581351873482
20
0.62629304892508697
30
0
10
3.4747084655274163
20
0.56337641176498532
30
0
10
3.4856009259437339
20
0.49880737714656231
30
0
10
3.4960056633190066
20
0.42974884975600364
30
0
10
3.5091197097681972
20
0.3427080429342243
30
0
10
3.5191822938285013
20
0.25147942774148191
30
0
10
3.5235958738601965
20
0.16471381872046073
30
0
10
3.5288670010816054
20
0.061089876182099108
30
0
10
3.5292410373690219
20
-0.037110821908401238
30
0
10
3.5249794524107947
20
-0.14006005566506427
30
0
10
3.5215200604342516
20
-0.22363031338374456
30
0
10
3.5128237752814409
20
-0.31176986143055713
30
0
10
3.5004726009558529
20
-0.39743219116276662
30
0
10
3.4905206954533448
20
-0.46645424430094651
30
0
10
3.4795961736543854
20
-0.53189861625965607
30
0
10
3.4686867448613889
20
-0.59355788909804652
30
0
10
3.4587504579872594
20
-0.64971703684057081
30
0
10
3.4483239223035569
20
-0.70379257422359143
30
0
10
3.4306258428404885
20
-0.76566304875057412
30
0
10
3.4156215451045457
20
-0.81811636849095337
30
0
10
3.3946441945540795
20
-0.87728929907398201
30
0
10
3.3695464172998748
20
-0.93895980029335269
30
0
10
3.3422464806180279
20
-1.0060414689755666
30
0
10
3.3111450335649564
20
-1.0742719037544761
30
0
10
3.2880697434850337
20
-1.1233589571634415
30
0
10
3.2709498867554996
20
-1.1597772781780782
30
0
10
3.2587988556909968
20
-1.1847212760084109
30
0
10
3.2497144242486806
20
-1.2022149822577424
30
0
10
3.2405234545242925
20
-1.2199138471262672
30
0
10
3.2330868448310071
20
-1.2322464216447055
30
0
10
3.2220957227643856
20
-1.249863082086585
30
0
10
3.2090209981544962
20
-1.2708193577450093
30
0
10
3.1921735513677754
20
-1.2976786093629056
30
0
10
3.178422870980671
20
-1.3187459061721001
30
0
10
3.1639552749984214
20
-1.340911583076305
30
0
10
3.1508286540221522
20
-1.358630975812303
30
0
10
3.1296828095829978
20
-1.3848738224731714
30
0
10
3.1088060262689763
20
-1.4107827534150641
30
0
10
3.0819874247346029
20
-1.4433106474156578
30
0
10
3.0627964787112671
20
-1.4658060502104018
30
0
10
3.0439798583458426
20
-1.4878626728407451
30
0
10
3.0316861607473529
20
-1.5006131658018174
30
0
10
3.0123321649116921
20
-1.5192370214624633
30
0
10
3.0083971501294839
20
-1.5230235856401473
30
0
10
3.0041325710321467
20
-1.5271132411615387
30
0
10
2.9996402171927792
20
-1.5314057406717265
30
0
0
SPLINE
5
103
100
AcDbEntity
8
0
100
AcDbSpline
70
0
71
3
72
18
73
14
74
0
42
0.000000001
43
0.0000000001
44
0.0000000001
40
0
40
0
40
0
40
0
40
0.078128894677386443
40
0.078128894677386443
40
0.15625778935477189
40
0.15625778935477189
40
0.23438668403215773
40
0.23438668403215773
40
0.31251557870954422
40
0.31251557870954422
40
0.39064447338692931
40
0.39064447338692931
40
0.46815383147028788
40
0.46815383147028788
40
0.46815383147028788
40
0.46815383147028788
10
2.9996402171938352
20
-1.5314057406707189
30
0
10
2.9922270825264272
20
-1.5384889763590828
30
0
10
2.9835013080292319
20
-1.5440565424094563
30
0
10
2.9644067747384315
20
-1.5515335720377692
30
0
10
2.9542205700904112
20
-1.5533715511371657
30
0
10
2.9337169866202633
20
-1.5530395292420556
30
0
10
2.923595633231427
20
-1.5508727025578317
30
0
10
2.9047532044115267
20
-1.5427813460693842
30
0
10
2.896212272869898
20
-1.5369341740433202
30
0
10
2.8818524623750403
20
-1.5222950819878704
30
0
10
2.8761708710368441
20
-1.5136431196574565
30
0
10
2.8684745517735286
20
-1.4947236595865367
30
0
10
2.8665035213960697
20
-1.4846475362632889
30
0
10
2.8665035213960697
20
-1.4744757044938193
30
0
0
LINE
5
104
100
AcDbEntity
8
0
100
AcDbLine
10
2.8665035213960697
20
-1.4744757044938193
30
0
11
2.8665035213960688
21
-0.86048703477375177
31
0
0
LINE
5
105
100
AcDbEntity
8
0
100
AcDbLine
10
2.8665035213960688
20
-0.86048703477375177
30
0
11
2.5110905511811019
21
-1.2406062992125986
31
0
0
ARC
5
106
100
AcDbEntity
8
0
100
AcDbCircle
10
2.419653295825849
20
-1.4149315866302674
30
4.2831580614012881e-47
40
0.19685039370078616
100
AcDbArc
50
3.319851369894514e-05
51
62.322050951527281
0
LINE
5
107
100
AcDbEntity
8
0
100
AcDbLine
10
2.6165036895266018
20
-1.4149314725479791
30
4.2974488197617295e-33
11
2.6165038813034531
21
-1.7458447907057988
31
0
0
SPLINE
5
108
100
AcDbEntity
8
0
100
AcDbSpline
70
0
71
3
72
12
73
8
74
0
42
0.000000001
43
0.0000000001
44
0.0000000001
40
0
40
0
40
0
40
0
40
0.07812889467738425
40
0.07812889467738425
40
0.15625778935476803
40
0.15625778935476803
40
0.23111386605769088
40
0.23111386605769088
40
0.23111386605769088
40
0.23111386605769088
10
2.6165038813034531
20
-1.7458447907057988
30
0
10
2.6165038872455355
20
-1.7560979264902306
30
0
10
2.6145012277162709
20
-1.7662530378687935
30
0
10
2.6067160251146149
20
-1.7852240102768515
30
0
10
2.6010079128223587
20
-1.7938584984701467
30
0
10
2.5869049568087372
20
-1.8081477686017906
30
0
10
2.578756437049615
20
-1.8137868234325136
30
0
10
2.5697816245636407
20
-1.8177813808220078
30
0
0
SPLINE
5
109
100
AcDbEntity
8
0
100
AcDbSpline
70
0
71
3
72
128
73
124
74
0
42
0.000000001
43
0.0000000001
44
0.0000000001
40
0.62919277520070516
40
0.62919277520070516
40
0.62919277520070516
40
0.62919277520070516
40
0.6317566024548833
40
0.6317566024548833
40
0.6317566024548833
40
0.63823255957401359
40
0.63823255957401359
40
0.63823255957401359
40
0.6443283961578169
40
0.6443283961578169
40
0.6443283961578169
40
0.64991853705496005
40
0.64991853705496005
40
0.64991853705496005
40
0.65762945205207068
40
0.65762945205207068
40
0.65762945205207068
40
0.66489400639401419
40
0.66489400639401419
40
0.66489400639401419
40
0.67267042883028771
40
0.67267042883028771
40
0.67267042883028771
40
0.68299944751945052
40
0.68299944751945052
40
0.68299944751945052
40
0.69416726661111405
40
0.69416726661111405
40
0.69416726661111405
40
0.7048161302887801
40
0.7048161302887801
40
0.7048161302887801
40
0.71350971863341295
40
0.71350971863341295
40
0.71350971863341295
40
0.72364414611683958
40
0.72364414611683958
40
0.72364414611683958
40
0.73763817357932582
40
0.73763817357932582
40
0.73763817357932582
40
0.75954789297793635
40
0.75954789297793635
40
0.75954789297793635
40
0.77652613433563356
40
0.77652613433563356
40
0.77652613433563356
40
0.787915026268318
40
0.787915026268318
40
0.787915026268318
40
0.80117033712654817
40
0.80117033712654817
40
0.80117033712654817
40
0.81359719105613892
40
0.81359719105613892
40
0.81359719105613892
40
0.82295387858245972
40
0.82295387858245972
40
0.82295387858245972
40
0.83401926117105596
40
0.83401926117105596
40
0.83401926117105596
40
0.84323436679860653
40
0.84323436679860653
40
0.84323436679860653
40
0.85148319780282933
40
0.85148319780282933
40
0.85148319780282933
40
0.86076549794015245
40
0.86076549794015245
40
0.86076549794015245
40
0.86783829450005401
40
0.86783829450005401
40
0.86783829450005401
40
0.87425713602188471
40
0.87425713602188471
40
0.87425713602188471
40
0.88083948628111353
40
0.88083948628111353
40
0.88083948628111353
40
0.88758968738169275
40
0.88758968738169275
40
0.88758968738169275
40
0.89486153381535272
40
0.89486153381535272
40
0.89486153381535272
40
0.90189545092501122
40
0.90189545092501122
40
0.90189545092501122
40
0.90855091377362507
40
0.90855091377362507
40
0.90855091377362507
40
0.91522069532546779
40
0.91522069532546779
40
0.91522069532546779
40
0.92220235977622322
40
0.92220235977622322
40
0.92220235977622322
40
0.92933010734512189
40
0.92933010734512189
40
0.92933010734512189
40
0.93816384392698171
40
0.93816384392698171
40
0.93816384392698171
40
0.94503090605122098
40
0.94503090605122098
40
0.94503090605122098
40
0.95162907537665342
40
0.95162907537665342
40
0.95162907537665342
40
0.96372180653249007
40
0.96372180653249007
40
0.96372180653249007
40
0.97331850160321398
40
0.97331850160321398
40
0.97331850160321398
40
0.98298173403963274
40
0.98298173403963274
40
0.98298173403963274
40
0.99487616357016984
40
0.99487616357016984
40
0.99487616357016984
40
1
40
1
40
1
40
1
10
2.5697816245636322
20
-1.817781380822012
30
0
10
2.5594283276608718
20
-1.8223895904530334
30
0
10
2.5486880269863201
20
-1.8270364165166413
30
0
10
2.5374829918186852
20
-1.8317195478572217
30
0
10
2.5092552379323405
20
-1.8435173045729851
30
0
10
2.4782881193564381
20
-1.8551068569725526
30
0
10
2.4536098078905835
20
-1.8637884969809937
30
0
10
2.4302858437591572
20
-1.8719936880224874
30
0
10
2.4146459769921362
20
-1.8772167717056845
30
0
10
2.3942032381865777
20
-1.8831645392616145
30
0
10
2.3754767639984347
20
-1.8886129635981286
30
0
10
2.349757172179785
20
-1.8954682939388516
30
0
10
2.3128299806843153
20
-1.9048266947563088
30
0
10
2.2619050565094425
20
-1.9177325192375871
30
0
10
2.1925439096430206
20
-1.9345876641870448
30
0
10
2.1297684375796671
20
-1.9478762844097184
30
0
10
2.0706450213047147
20
-1.9603918195275105
30
0
10
2.0184088415749666
20
-1.9693802489696444
30
0
10
1.9687787900297506
20
-1.9757737125833139
30
0
10
1.9155799891421861
20
-1.9826269111429733
30
0
10
1.8621869814309591
20
-1.9874056951321042
30
0
10
1.8001680770037698
20
-1.9928738835210467
30
0
10
1.7178185407636328
20
-2.0001346176804473
30
0
10
1.6231918637062246
20
-2.0080709586334722
30
0
10
1.5343568604566065
20
-2.0135139963679167
30
0
10
1.4383348013249273
20
-2.0193973944888595
30
0
10
1.3494787522859537
20
-2.0220126481124874
30
0
10
1.2558786407611164
20
-2.0237412633459733
30
0
10
1.1665870994146235
20
-2.0253903075199431
30
0
10
1.07034612371039
20
-2.026745621584245
30
0
10
0.9815943780838694
20
-2.0277733083504321
30
0
10
0.90916234796261541
20
-2.0286120235585465
30
0
10
0.84428162660748007
20
-2.0289847816403777
30
0
10
0.78653555323595481
20
-2.0289602847933845
30
0
10
0.71918844362118839
20
-2.0289317150267614
30
0
10
0.65791734525736567
20
-2.0286217679468628
30
0
10
0.59107429695600811
20
-2.0286252371704911
30
0
10
0.49881477412507064
20
-2.0286300255355441
30
0
10
0.40050597494644619
20
-2.0287627232343075
30
0
10
0.30427043296258582
20
-2.0284285041958094
30
0
10
0.15354200804061635
20
-2.0279050353379082
30
0
10
0.0034311841303746515
20
-2.0273209792291196
30
0
10
-0.14742435322975783
20
-2.0278288185003377
30
0
10
-0.26429053405747321
20
-2.0282222361841704
30
0
10
-0.38395128292805458
20
-2.0287665484281439
30
0
10
-0.4971815264502471
20
-2.0286831563058292
30
0
10
-0.57317298948284723
20
-2.0286271899033643
30
0
10
-0.64815866295338265
20
-2.028647903473308
30
0
10
-0.72505039871879817
20
-2.0288418886482273
30
0
10
-0.81447041407116982
20
-2.0290674806074511
30
0
10
-0.90355956622413613
20
-2.028693410698355
30
0
10
-0.98082180635072946
20
-2.0275643349090546
30
0
10
-1.0533708572070499
20
-2.0265041355578011
30
0
10
-1.1148438480062552
20
-2.0258555787238572
30
0
10
-1.1961702634485496
20
-2.0247258414536962
30
0
10
-1.2573663939647763
20
-2.0238757419004596
30
0
10
-1.3318302390877614
20
-2.0224305476149622
30
0
10
-1.4143527298044545
20
-2.019195735156456
30
0
10
-1.511912518358685
20
-2.0153714732282997
30
0
10
-1.6177520087670461
20
-2.0087539451952199
30
0
10
-1.711573780766863
20
-2.0010971252120231
30
0
10
-1.7897666373569796
20
-1.9947157852083017
30
0
10
-1.8590695374616748
20
-1.9882534529137539
30
0
10
-1.9242049254628808
20
-1.9806937043044033
30
0
10
-1.9824497061367716
20
-1.9739336939135348
30
0
10
-2.0394855854531819
20
-1.9655930678148801
30
0
10
-2.1016239718016303
20
-1.9535121086045837
30
0
10
-2.1715494491948619
20
-1.9399171813818037
30
0
10
-2.2482039290937701
20
-1.9215425239650608
30
0
10
-2.3105620490278036
20
-1.9056001012361403
30
0
10
-2.3581060794682647
20
-1.8934450357479515
30
0
10
-2.3952780926950727
20
-1.8834246850426311
30
0
10
-2.4285504880607447
20
-1.8728289866834396
30
0
10
-2.4586837496239728
20
-1.8632329553008606
30
0
10
-2.4883479428602109
20
-1.8520186500528928
30
0
10
-2.5200585207091288
20
-1.838999570422333
30
0
10
-2.5526164634042918
20
-1.8256325970869673
30
0
10
-2.5844911739955769
20
-1.8117359104022341
30
0
10
-2.6092863452438468
20
-1.8003197879940289
30
0
10
-2.6346595395011687
20
-1.7886375338717075
30
0
10
-2.6549491574717465
20
-1.7782548154641689
30
0
10
-2.6808943048600407
20
-1.7641391071094228
30
0
10
-2.7088867546541353
20
-1.7489095440811318
30
0
10
-2.7412594308498428
20
-1.730745928639041
30
0
10
-2.7678070664984253
20
-1.7148212352363366
30
0
10
-2.7934243341687472
20
-1.6994546263652119
30
0
10
-2.8160214620056876
20
-1.6844197205264777
30
0
10
-2.8412761267952762
20
-1.6663865368067465
30
0
10
-2.8652006426646834
20
-1.6493031506809286
30
0
10
-2.8890465125795952
20
-1.6314396991319409
30
0
10
-2.9086902943504662
20
-1.6152357401912329
30
0
10
-2.9283695045013074
20
-1.5990025567345398
30
0
10
-2.946321585289267
20
-1.5823514080794649
30
0
10
-2.9689695461019556
20
-1.5608637678554131
30
0
10
-2.9926773792299568
20
-1.5383705556426424
30
0
10
-3.0188758777948053
20
-1.5131013914554401
30
0
10
-3.040693457558175
20
-1.4903451281374172
30
0
10
-3.0629390324401471
20
-1.4671424555602846
30
0
10
-3.0825840964173015
20
-1.4442867251525664
30
0
10
-3.1056846996639265
20
-1.4154335996954333
30
0
10
-3.1342794652935422
20
-1.379718153162703
30
0
10
-3.166201884045551
20
-1.3367102057141738
30
0
10
-3.1874957794885108
20
-1.3048432138779769
30
0
10
-3.2041706391163509
20
-1.2798887560591372
30
0
10
-3.2149914899548273
20
-1.262332116707042
30
0
10
-3.2279593328378988
20
-1.2404144957754129
30
0
10
-3.2403407842321981
20
-1.2194879653809165
30
0
10
-3.2555028325835909
20
-1.1922526228324744
30
0
10
-3.2757322940152971
20
-1.151552199983332
30
0
10
-3.3127826507797362
20
-1.0770091780588467
30
0
10
-3.3648337422314953
20
-0.95986098978505063
30
0
10
-3.4002309528251624
20
-0.85729513422384951
30
0
10
-3.4283348491090733
20
-0.77586215917811885
30
0
10
-3.4467025402108709
20
-0.70287697888462519
30
0
10
-3.4613437222637446
20
-0.63112816957674622
30
0
10
-3.47610802250085
20
-0.55877602215785738
30
0
10
-3.4886688974321043
20
-0.48496826055611564
30
0
10
-3.4996376248459815
20
-0.40757902772217935
30
0
10
-3.5131189275260404
20
-0.31246246290611535
30
0
10
-3.5219868019340872
20
-0.2150387308983005
30
0
10
-3.5254130727968365
20
-0.12096028684658225
30
0
10
-3.526890298178373
20
-0.08039867599451439
30
0
10
-3.5275465348850075
20
-0.040205101223575547
30
0
10
-3.5275590440226101
20
-8.5590567679355813e-06
30
0
0
SPLINE
5
110
100
AcDbEntity
8
0
100
AcDbSpline
70
0
71
3
72
23
73
19
74
0
42
0.000000001
43
0.0000000001
44
0.0000000001
40
0
40
0
40
0
40
0
40
0.012731230738898716
40
0.012731230738898716
40
0.012731230738898716
40
0.023083389192606385
40
0.023083389192606385
40
0.023083389192606385
40
0.032570907726613987
40
0.032570907726613987
40
0.032570907726613987
40
0.040167090301295547
40
0.040167090301295547
40
0.040167090301295547
40
0.047665784908316675
40
0.047665784908316675
40
0.047665784908316675
40
0.052414404447739586
40
0.052414404447739586
40
0.052414404447739586
40
0.052414404447739586
10
-3.5275590440226101
20
-8.5590567660089184e-06
30
0
10
-3.527590122858645
20
0.099859376063834396
30
0
10
-3.5235370611965307
20
0.2010185858967761
30
0
10
-3.5125508596527513
20
0.30390130601086812
30
0
10
-3.5036134646169184
20
0.38759752333916647
30
0
10
-3.4906797505525984
20
0.47085012258700576
30
0
10
-3.4767223451648261
20
0.54976542284086716
30
0
10
-3.4639258346650221
20
0.62211701256960417
30
0
10
-3.4505153986880788
20
0.69092947241835478
30
0
10
-3.4291985728544487
20
0.76626772666116172
30
0
10
-3.4121522300694078
20
0.82651317392767676
30
0
10
-3.3890191683028483
20
0.89227749766566378
30
0
10
-3.3620073520189027
20
0.95846111998187067
30
0
10
-3.3353262712753429
20
1.0238343830145222
30
0
10
-3.3060130273370816
20
1.0878037210288773
30
0
10
-3.2823202275192989
20
1.1369418616691691
30
0
10
-3.2673095409758508
20
1.1680735654843375
30
0
10
-3.2548832571453383
20
1.192735142746723
30
0
10
-3.2435702073221018
20
1.2136681901353423
30
0
0
SPLINE
5
111
100
AcDbEntity
8
0
100
AcDbSpline
70
0
71
3
72
11
73
7
74
0
42
0.000000001
43
0.0000000001
44
0.0000000001
40
0.052414404447739586
40
0.052414404447739586
40
0.052414404447739586
40
0.052414404447739586
40
0.054144108330845979
40
0.054144108330845979
40
0.054144108330845979
40
0.056320164167765134
40
0.056320164167765134
40
0.056320164167765134
40
0.056320164167765134
10
-3.2435702073221018
20
1.2136681901353423
30
0
10
-3.2394493831443438
20
1.2212931373547915
30
0
10
-3.2354779675946732
20
1.2284205883840282
30
0
10
-3.2315813267173943
20
1.235190106983816
30
0
10
-3.226682441341763
20
1.2437007952183758
30
0
10
-3.2217398581904062
20
1.2519106500874493
30
0
10
-3.2166013989078435
20
1.2601244590098006
30
0
0
SPLINE
5
112
100
AcDbEntity
8
0
100
AcDbSpline
70
0
71
3
72
20
73
16
74
0
42
0.000000001
43
0.0000000001
44
0.0000000001
40
0
40
0
40
0
40
0
40
0.17579001302411765
40
0.17579001302411765
40
0.35158002604823468
40
0.35158002604823468
40
0.5273700390723528
40
0.5273700390723528
40
0.70316005209647003
40
0.70316005209647003
40
0.8789500651205866
40
0.8789500651205866
40
1.0222352236981287
40
1.0222352236981287
40
1.1655203822756692
40
1.1655203822756692
40
1.1655203822756692
40
1.1655203822756692
10
-2.8892392118294969
20
1.1661652841499959
30
0
10
-2.8892392118294969
20
1.1892348396649719
30
0
10
-2.8937452090122062
20
1.2120838376553456
30
0
10
-2.9112619396033295
20
1.2547685154218728
30
0
10
-2.9241052035199364
20
1.2741961064136316
30
0
10
-2.9565157109664182
20
1.3070347509303559
30
0
10
-2.9757730923800132
20
1.3201318491152974
30
0
10
-3.0182242300776672
20
1.3382072045698685
30
0
10
-3.0410121303476783
20
1.343012651589522
30
0
10
-3.0871472685800012
20
1.3436181158070533
30
0
10
-3.1100534294752187
20
1.3394123444370076
30
0
10
-3.1489970305832387
20
1.3240248150307559
30
0
10
-3.1652740970244224
20
1.3143744692096719
30
0
10
-3.1941819007717132
20
1.2903188158313077
30
0
10
-3.2066291693140019
20
1.2760661819612691
30
0
10
-3.2166017522301074
20
1.26012468001762
30
0
0
LINE
5
113
100
AcDbEntity
8
0
100
AcDbLine
10
-2.8892392118294969
20
1.1661652841499959
30
0
11
-2.8892392118294969
21
1.6282184453530406
31
-1.9410947470989462e-32
0
SPLINE
5
114
100
AcDbEntity
8
0
100
AcDbSpline
70
0
71
3
72
17
73
13
74
0
42
0.000000001
43
0.0000000001
44
0.0000000001
40
0.090625481188273752
40
0.090625481188273752
40
0.090625481188273752
40
0.090625481188273752
40
0.091686494955796283
40
0.091686494955796283
40
0.091686494955796283
40
0.099843262757986495
40
0.099843262757986495
40
0.099843262757986495
40
0.10694558908598652
40
0.10694558908598652
40
0.10694558908598652
40
0.11118845081210177
40
0.11118845081210177
40
0.11118845081210177
40
0.11118845081210177
10
-2.8892391407271223
20
1.6282183563466703
30
0
10
-2.8862478524194355
20
1.630607822913718
30
0
10
-2.8831989655283787
20
1.6330317488612904
30
0
10
-2.8800727000963255
20
1.6355084302039782
30
0
10
-2.8562416360446266
20
1.6543878097691613
30
0
10
-2.8297585979712632
20
1.6735845022197029
30
0
10
-2.8080984267420019
20
1.688239392371446
30
0
10
-2.7891215015849236
20
1.7010788455157104
30
0
10
-2.7717806145861297
20
1.712338373182281
30
0
10
-2.7509180678408578
20
1.7255407273177652
30
0
10
-2.7384602260377231
20
1.7334243688145108
30
0
10
-2.7261241408698216
20
1.7411143650161187
30
0
10
-2.7138359558702549
20
1.7484015367426751
30
0
0
ARC
5
115
100
AcDbEntity
8
0
100
AcDbCircle
10
-2.1364999999999625
20
1.7939999999999983
30
-1.9422370831888861e-46
40
0.57913385826775354
100
AcDbArc
50
168.28052130915759
51
184.51589282565445
0
SPLINE
5
116
100
AcDbEntity
8
0
100
AcDbSpline
70
0
71
3
72
8
73
4
74
0
42
0.000000001
43
0.0000000001
44
0.0000000001
40
-0.016510946868648495
40
-0.016510946868648495
40
-0.016510946868648495
40
-0.016510946868648495
40
0
40
0
40
0
40
0
10
-2.7035611255244323
20
1.9116337779339574
30
0
10
-2.7031210064269722
20
1.9137554001002592
30
0
10
-2.7027303985702362
20
1.9158871575655076
30
0
10
-2.7023898142834022
20
1.9180270139316415
30
0
0
SPLINE
5
117
100
AcDbEntity
8
0
100
AcDbSpline
70
0
71
3
72
20
73
16
74
0
42
0.000000001
43
0.0000000001
44
0.0000000001
40
-0.70252716328732645
40
-0.70252716328732645
40
-0.70252716328732645
40
-0.70252716328732645
40
-0.61520729912389016
40
-0.61520729912389016
40
-0.53853831801284568
40
-0.53853831801284568
40
-0.46764410527303241
40
-0.46764410527303241
40
-0.3808130288297743
40
-0.3808130288297743
40
-0.27395507741447511
40
-0.27395507741447511
40
-0.13431263293972984
40
-0.13431263293972984
40
0
40
0
40
0
40
0
10
-2.7023898142834013
20
1.9180270139316398
30
0
10
-2.6998211511369528
20
1.9341656627150854
30
0
10
-2.698631367440071
20
1.9530551309228346
30
0
10
-2.6997617700906815
20
1.9839818070230506
30
0
10
-2.7015809500050478
20
1.9948933285111023
30
0
10
-2.7061527454635108
20
2.0116617930357483
30
0
10
-2.7092548894394954
20
2.0193507372267145
30
0
10
-2.7189284113873389
20
2.035219458857648
30
0
10
-2.7257867878679511
20
2.0425512859749824
30
0
10
-2.744153972823423
20
2.0559456537050806
30
0
10
-2.7559185278110343
20
2.0609965491291211
30
0
10
-2.7839793295270745
20
2.0680576517478912
30
0
10
-2.8017427406151949
20
2.0689674986335143
30
0
10
-2.8372380943418141
20
2.063631908489528
30
0
10
-2.8541210974934046
20
2.0577740031313887
30
0
10
-2.8694107320296807
20
2.0490039075027737
30
0
0
SPLINE
5
118
100
AcDbEntity
8
0
100
AcDbSpline
70
0
71
3
72
72
73
68
74
0
42
0.000000001
43
0.0000000001
44
0.0000000001
40
-303.94013371387774
40
-303.94013371387774
40
-303.94013371387774
40
-303.94013371387774
40
-303.75510674546149
40
-303.75510674546149
40
-302.70677424466953
40
-302.70677424466953
40
-301.85659775388217
40
-301.85659775388217
40
-300.33740324932683
40
-300.33740324932683
40
-296.20149104051626
40
-296.20149104051626
40
-274.59880320278546
40
-274.59880320278546
40
-216.86706356249016
40
-216.86706356249016
40
-125.95277443554889
40
-125.95277443554889
40
-68.8223836720001
40
-68.8223836720001
40
-35.974632568065779
40
-35.974632568065779
40
-34.795818974197537
40
-34.795818974197537
40
-33.764310836101032
40
-33.764310836101032
40
-31.909207721356697
40
-31.909207721356697
40
-29.650816237399127
40
-29.650816237399127
40
-26.716434856129752
40
-26.716434856129752
40
-25.749493225719565
40
-25.749493225719565
40
-24.915728970303466
40
-24.915728970303466
40
-24.123398189118358
40
-24.123398189118358
40
-23.453315810300253
40
-23.453315810300253
40
-23.043934164897951
40
-23.043934164897951
40
-22.421672352941027
40
-22.421672352941027
40
-21.220515571171667
40
-21.220515571171667
40
-17.964146918720832
40
-17.964146918720832
40
-17.184066503478768
40
-17.184066503478768
40
-16.837756617909626
40
-16.837756617909626
40
-15.896273095661856
40
-15.896273095661856
40
-14.641696189400752
40
-14.641696189400752
40
-12.88951059946012
40
-12.88951059946012
40
-7.4659680237775188
40
-7.4659680237775188
40
-6.4631545680579539
40
-6.4631545680579539
40
-4.761556747867508
40
-4.761556747867508
40
-3.9601592316189764
40
-3.9601592316189764
40
-2.5000797494782119
40
-2.5000797494782119
40
-2.5000797494782119
40
-2.5000797494782119
10
-2.8694107320297997
20
2.0490039075025908
30
0
10
-2.9261384341816248
20
2.0164650412868581
30
0
10
-2.998999356587996
20
1.9675329647747077
30
0
10
-3.1253136312850773
20
1.8795086984523532
30
0
10
-3.238868473225776
20
1.7801538186264516
30
0
10
-3.3973982345137208
20
1.601506416984855
30
0
10
-3.4743187889326306
20
1.4899088134654384
30
0
10
-3.5075911935631994
20
1.4405003476166598
30
0
10
-3.5347906914283342
20
1.3970359973859692
30
0
10
-3.7058386824454193
20
1.0532155249595379
30
0
10
-3.7496741545288517
20
0.88829540543026975
30
0
10
-3.794982377841404
20
0.72329590462547633
30
0
10
-3.8260566466676655
20
0.53143715557578641
30
0
10
-3.8704525800570355
20
0.21004847239616209
30
0
10
-3.8692440757094864
20
0.0012920046391630333
30
0
10
-3.8576011058907338
20
-0.32034219243849049
30
0
10
-3.8272507895089425
20
-0.52515369413396162
30
0
10
-3.7829479714396239
20
-0.75714398314048015
30
0
10
-3.7499644737451674
20
-0.93706719803535765
30
0
10
-3.5266405832928931
20
-1.4169303801499855
30
0
10
-3.4340435675331813
20
-1.5831263652302685
30
0
10
-3.1907750124954863
20
-1.8265374921180437
30
0
10
-3.1457745149495255
20
-1.8731337959442773
30
0
10
-2.9851064436036472
20
-1.9968762568668625
30
0
10
-2.8979536715001788
20
-2.0477406004081682
30
0
10
-2.8149052974602258
20
-2.0955842731099512
30
0
10
-2.6960382195161139
20
-2.1544222420001193
30
0
10
-2.4700785678232799
20
-2.2295796934128616
30
0
10
-2.2634191750437336
20
-2.279677257233808
30
0
10
-1.9618363286451999
20
-2.3272096011299941
30
0
10
-1.6716334026862465
20
-2.3514821235618206
30
0
10
-1.334970359797069
20
-2.3615979923810331
30
0
10
-1.0052426380823294
20
-2.367313875657338
30
0
10
-0.63352129220679754
20
-2.3664682269196691
30
0
10
-0.46006641312699276
20
-2.3665796419284364
30
0
10
-0.11910739193573563
20
-2.3652860301515579
30
0
10
0.39296262735411447
20
-2.3663972164355513
30
0
10
0.69366738281748963
20
-2.366760159372113
30
0
10
0.75785571547513886
20
-2.3679382325411114
30
0
10
1.0072513421263656
20
-2.3656226008979124
30
0
10
1.2033156835114909
20
-2.363164414787263
30
0
10
1.4738094219331597
20
-2.3571448969303694
30
0
10
1.6006512004803253
20
-2.3487586220484378
30
0
10
1.9990147979340609
20
-2.3155300135598482
30
0
10
2.0628776555041948
20
-2.3040558992346623
30
0
10
2.2018286253458816
20
-2.2805579553390674
30
0
10
2.4345867444364635
20
-2.2274825566878302
30
0
10
2.5626702912107584
20
-2.1841810377517552
30
0
10
2.6262912484326999
20
-2.1631896805878106
30
0
10
2.7541457161231042
20
-2.1054213636923382
30
0
10
2.8064331496621677
20
-2.0808433703549696
30
0
10
3.0526494088528047
20
-1.943364082322244
30
0
10
3.1398281594612381
20
-1.8630274615521336
30
0
10
3.1926853042317118
20
-1.8149735718858897
30
0
10
3.2456958623660164
20
-1.7662078908637551
30
0
10
3.3148358502417459
20
-1.6948676500257329
30
0
10
3.3925256941495827
20
-1.5998566748502667
30
0
10
3.4445625872560854
20
-1.5350031261642956
30
0
10
3.4791930018365456
20
-1.4816590225021626
30
0
10
3.5190635864170488
20
-1.4173824334528125
30
0
10
3.5407509927373932
20
-1.384928133431002
30
0
10
3.7245037324911556
20
-0.98751806683145782
30
0
10
3.7631337138238812
20
-0.85388221942319309
30
0
10
3.8032099435657081
20
-0.648013684965693
30
0
10
3.8192991727548891
20
-0.55087811526733343
30
0
10
3.8474142669932623
20
-0.365975707580666
30
0
10
3.8692070617265881
20
-0.19727100218958013
30
0
10
3.8651434429327125
20
0.05984434056634351
30
0
0
SPLINE
5
119
100
AcDbEntity
8
0
100
AcDbSpline
70
0
71
3
72
25
73
21
74
0
42
0.000000001
43
0.0000000001
44
0.0000000001
40
-2.5000797494782119
40
-2.5000797494782119
40
-2.5000797494782119
40
-2.5000797494782119
40
-2.4796847531012913
40
-2.4796847531012913
40
-1.2828899928644404
40
-1.2828899928644404
40
-0.62041132563064438
40
-0.62041132563064438
40
0
40
0
40
0
40
0.64906872989905651
40
0.64906872989905651
40
1.2257804134508206
40
1.2257804134508206
40
2.8632823060448231
40
2.8632823060448231
40
7.254083360943639
40
7.254083360943639
40
10.918451440476701
40
10.918451440476701
40
10.918451440476701
40
10.918451440476701
10
3.8651434429327125
20
0.05984434056634351
30
0
10
3.865086680618337
20
0.063435834418629697
30
0
10
3.8650247901914256
20
0.067044577344615525
30
0
10
3.8610215997486304
20
0.28345306879748722
30
0
10
3.8393896727849999
20
0.44683241702582788
30
0
10
3.7785171833534479
20
0.77705700437056335
30
0
10
3.7555183352229817
20
0.87310368764319879
30
0
10
3.6751943153556064
20
1.0953252624712262
30
0
10
3.6245392288714222
20
1.2070271401452717
30
0
10
3.5893557636525415
20
1.2804515656222359
30
0
10
3.5525471398579103
20
1.3572675369287839
30
0
10
3.5323021589626302
20
1.392869839044407
30
0
10
3.4989101140502692
20
1.4464690481709592
30
0
10
3.4671226634761934
20
1.4948847859296905
30
0
10
3.4046715034156523
20
1.5870982532978861
30
0
10
3.3361068703004801
20
1.6685479525923159
30
0
10
3.1943989789272229
20
1.8228254274452462
30
0
10
3.1284305521851743
20
1.8766706016445034
30
0
10
2.9556205407292708
20
1.993583968602572
30
0
10
2.8982059808154785
20
2.0264643013103321
30
0
10
2.8461526606547638
20
2.053979837504377
30
0
0
SPLINE
5
120
100
AcDbEntity
8
0
100
AcDbSpline
70
0
71
3
72
12
73
8
74
0
42
0.000000001
43
0.0000000001
44
0.0000000001
40
-0.19992963742699404
40
-0.19992963742699404
40
-0.19992963742699404
40
-0.19992963742699404
40
-0.14464008123360933
40
-0.14464008123360933
40
-0.08852770416041808
40
-0.08852770416041808
40
0
40
0
40
0
40
0
10
2.8461526606536873
20
2.0539798375038636
30
0
10
2.8397452322406775
20
2.0573668227694424
30
0
10
2.8329028028222054
20
2.0598539389185317
30
0
10
2.8186385750646732
20
2.0630033923969373
30
0
10
2.8112701895303411
20
2.0636250489138979
30
0
10
2.7923161532653853
20
2.062804292202336
30
0
10
2.780899361289495
20
2.0599699181242181
30
0
10
2.7703700506308984
20
2.0550600197815019
30
0
0
LINE
5
121
100
AcDbEntity
8
0
100
AcDbLine
10
2.7703700506308984
20
2.0550600197815019
30
0
11
2.6282104992293647
21
1.9887699302913815
31
-2.4433530129107985e-30
0
LINE
5
122
100
AcDbEntity
8
0
100
AcDbLine
10
2.6282104992293647
20
1.9887699302913815
30
-2.4433530129107985e-30
11
2.6012797730903174
21
1.9147783656854465
31
0
0
LINE
5
123
100
AcDbEntity
8
0
100
AcDbLine
10
-2.5250433070866136
20
1.6367938909468684
30
8.7419135797256413e-17
11
-2.5250433070866136
21
-1.241393700787401
31
8.7419135797256413e-17
0
LINE
5
124
100
AcDbEntity
8
0
100
AcDbLine
10
-2.5250433070866136
20
-1.241393700787401
30
8.7419135797256413e-17
11
-1.255236614173189
21
-1.7495507874015752
31
4.3709567898628207e-17
0
LINE
5
125
100
AcDbEntity
8
0
100
AcDbLine
10
-1.255236614173189
20
-1.7495507874015752
30
4.3709567898628207e-17
11
1.0809838582677169
21
-1.749550787401575
31
4.3709567898628207e-17
0
LINE
5
126
100
AcDbEntity
8
0
100
AcDbLine
10
1.0809838582677169
20
-1.749550787401575
30
4.3709567898628207e-17
11
2.5110905511811019
21
-1.2406062992125986
31
4.3709567898628207e-17
0
LINE
5
127
100
AcDbEntity
8
0
100
AcDbLine
10
2.5110905511811019
20
-1.2406062992125986
30
4.3709567898628207e-17
11
2.8665035213960688
21
-0.8604870347737521
31
-9.705473735494731e-33
0
LINE
5
128
100
AcDbEntity
8
0
100
AcDbLine
10
2.8665035213960688
20
-0.8604870347737521
30
-9.705473735494731e-33
11
2.8665035213960661
21
1.0414803149606304
31
4.3709567898628207e-17
0
ARC
5
129
100
AcDbEntity
8
0
100
AcDbCircle
10
2.7090232064354356
20
1.0414803149606302
30
4.3709567898628207e-17
40
0.15748031496063039
100
AcDbArc
50
0
51
90.000000000000327
0
LINE
5
130
100
AcDbEntity
8
0
100
AcDbLine
10
2.7090232064354347
20
1.1989606299212601
30
4.3709567898628219e-17
11
2.5110905511811024
21
1.1989606299212598
31
8.7419135797256413e-17
0
LINE
5
131
100
AcDbEntity
8
0
100
AcDbLine
10
2.5110905511811024
20
1.1989606299212598
30
8.7419135797256413e-17
11
2.5110905511811024
21
1.3446763672127635
31
8.7419135797256438e-17
0
LINE
5
132
100
AcDbEntity
8
0
100
AcDbLine
10
2.5110905511811024
20
1.3446763672127635
30
8.7419135797256438e-17
11
2.6004962051130982
21
1.5903163825622844
31
4.3709567898628207e-17
0
SPLINE
5
133
100
AcDbEntity
8
0
100
AcDbSpline
70
0
71
3
72
8
73
4
74
0
42
0.000000001
43
0.0000000001
44
0.0000000001
40
0.38583264732181322
40
0.38583264732181322
40
0.38583264732181322
40
0.38583264732181322
40
0.38900237349462613
40
0.38900237349462613
40
0.38900237349462613
40
0.38900237349462613
10
2.5650920021551147
20
1.6081545438366729
30
4.3709567898628207e-17
10
2.5767880215521135
20
1.6023912374065947
30
4.3709567898628207e-17
10
2.5887607744660892
20
1.5963916663238611
30
8.7419135797256413e-17
10
2.6004962051130982
20
1.5903163825622844
30
8.7419135797256413e-17
0
SPLINE
5
134
100
AcDbEntity
8
0
100
AcDbSpline
70
0
71
3
72
29
73
25
74
0
42
0.000000001
43
0.0000000001
44
0.0000000001
40
0.35284616131140595
40
0.35284616131140595
40
0.35284616131140595
40
0.35284616131140595
40
0.35679935850808281
40
0.35679935850808281
40
0.35679935850808281
40
0.36249875851763452
40
0.36249875851763452
40
0.36249875851763452
40
0.36771730730394836
40
0.36771730730394836
40
0.36771730730394836
40
0.37303542887407543
40
0.37303542887407543
40
0.37303542887407543
40
0.37873153072085708
40
0.37873153072085708
40
0.37873153072085708
40
0.37903160588947077
40
0.37903160588947077
40
0.37903160588947077
40
0.38405494456149386
40
0.38405494456149386
40
0.38405494456149386
40
0.38583264732181322
40
0.38583264732181322
40
0.38583264732181322
40
0.38583264732181322
10
2.1365162380284244
20
1.754422018108343
30
0
10
2.1544994443311856
20
1.7504658427289068
30
0
10
2.1706392288903076
20
1.7469517098139644
30
0
10
2.1837909407151384
20
1.7440313078361338
30
0
10
2.2015156344381626
20
1.7400954528467145
30
0
10
2.2099968797057072
20
1.7381011789298273
30
0
10
2.2334025615979383
20
1.7310523089760697
30
0
10
2.2552309216784971
20
1.7244784662561647
30
0
10
2.2908605181830923
20
1.7130776782311214
30
4.3709567898628207e-17
10
2.3310063460821993
20
1.6998733635951329
30
4.3709567898628207e-17
10
2.3718506067742546
20
1.6864393282924452
30
4.3709567898628207e-17
10
2.4153914593045713
20
1.6717738142803917
30
4.3709567898628207e-17
10
2.44521602664173
20
1.6612002733092064
30
4.3709567898628207e-17
10
2.4766832535260548
20
1.6500443692201487
30
4.3709567898628207e-17
10
2.4904242221120279
20
1.6442514180460277
30
4.3709567898628207e-17
10
2.4998326564675746
20
1.6398766499249098
30
4.3709567898628207e-17
10
2.5003283002607462
20
1.639646183666247
30
4.3709567898628207e-17
10
2.5008169022197908
20
1.6394171083743621
30
4.3709567898628207e-17
10
2.5013020831649913
20
1.6391878415988104
30
4.3709567898628207e-17
10
2.5130729555383029
20
1.6336256488104179
30
4.3709567898628207e-17
10
2.5265219775850394
20
1.6269402214919035
30
4.3709567898628207e-17
10
2.5457651000971602
20
1.6176001211456059
30
4.3709567898628207e-17
10
2.5520599023829553
20
1.6145447913792228
30
4.3709567898628207e-17
10
2.5585324304971189
20
1.6113868248574097
30
4.3709567898628207e-17
10
2.5650920021551147
20
1.6081545438366729
30
4.3709567898628207e-17
0
SPLINE
5
135
100
AcDbEntity
8
0
100
AcDbSpline
70
0
71
3
72
11
73
7
74
0
42
0.000000001
43
0.0000000001
44
0.0000000001
40
0.35013021468233657
40
0.35013021468233657
40
0.35013021468233657
40
0.35013021468233657
40
0.35111568474491561
40
0.35111568474491561
40
0.35111568474491561
40
0.35284616131140595
40
0.35284616131140595
40
0.35284616131140595
40
0.35284616131140595
10
2.0977487628364804
20
1.7630196648644536
30
0
10
2.1024304937657168
20
1.7619768223082246
30
0
10
2.1071608550311192
20
1.7609219770419986
30
0
10
2.1119365948216968
20
1.7598587442098077
30
0
10
2.1204190326378791
20
1.7579702815257694
30
0
10
2.1286442509888075
20
1.7561537983475872
30
0
10
2.1365162380284244
20
1.754422018108343
30
0
0
SPLINE
5
136
100
AcDbEntity
8
0
100
AcDbSpline
70
0
71
3
72
26
73
22
74
0
42
0.000000001
43
0.0000000001
44
0.0000000001
40
0.28456811697571016
40
0.28456811697571016
40
0.28456811697571016
40
0.28456811697571016
40
0.291683718591633
40
0.291683718591633
40
0.291683718591633
40
0.30188544415805824
40
0.30188544415805824
40
0.30188544415805824
40
0.31092972279674647
40
0.31092972279674647
40
0.31092972279674647
40
0.32391958917662472
40
0.32391958917662472
40
0.32391958917662472
40
0.33378288024225938
40
0.33378288024225938
40
0.33378288024225938
40
0.34419252273847406
40
0.34419252273847406
40
0.34419252273847406
40
0.35013021468233657
40
0.35013021468233657
40
0.35013021468233657
40
0.35013021468233657
10
0.8127454930195529
20
1.8438593828472576
30
0
10
0.85950827386453144
20
1.8437873517920356
30
0
10
0.90477628468055427
20
1.8435270495703677
30
0
10
0.94632284930933175
20
1.8429886672637585
30
0
10
1.0068708769371684
20
1.8422040539734377
30
0
10
1.0600063299009341
20
1.841289153499861
30
4.3709567898628207e-17
10
1.1190395544556739
20
1.8406019616925011
30
4.3709567898628207e-17
10
1.1710895575390949
20
1.8399960599149554
30
4.3709567898628207e-17
10
1.2286087975756526
20
1.8394418579384424
30
4.3709567898628207e-17
10
1.2986550800864161
20
1.8377287437628012
30
4.3709567898628207e-17
10
1.3981959081060502
20
1.8352942847533693
30
4.3709567898628207e-17
10
1.5243740724957489
20
1.8296107024169885
30
4.3709567898628207e-17
10
1.6380672904570437
20
1.8212406917144082
30
4.3709567898628207e-17
10
1.7252440506250055
20
1.8148228030425393
30
4.3709567898628207e-17
10
1.8047126730295897
20
1.8074663796318153
30
8.7419135797256413e-17
10
1.8675974855371886
20
1.8008037955126206
30
8.7419135797256413e-17
10
1.9334717714300806
20
1.7938244796245399
30
8.7419135797256413e-17
10
1.978204361621932
20
1.7876631239449177
30
8.7419135797256413e-17
10
2.0191307753878935
20
1.7797718019764011
30
8.7419135797256413e-17
10
2.0430971252527996
20
1.7751506743038024
30
8.7419135797256413e-17
10
2.069540218429653
20
1.7693030397532192
30
0
10
2.0977487628364804
20
1.7630196648644536
30
0
0
LINE
5
137
100
AcDbEntity
8
0
100
AcDbLine
10
0.8127454930195529
20
1.8438593828472576
30
0
11
0.81274549301955257
21
1.4833879416123521
31
0
0
ARC
5
138
100
AcDbEntity
8
0
100
AcDbCircle
10
-0.0015000000000005515
20
0.7461348031496059
30
4.3709567898628207e-17
40
1.0984251968503926
100
AcDbArc
50
-0.21694556975259971
51
42.159055692874738
0
LINE
5
139
100
AcDbEntity
8
0
100
AcDbLine
10
1.0969173228346458
20
0.74197572000637813
30
4.3709567898628207e-17
11
1.0969173228346454
21
-0.6131334645669293
31
0
0
LINE
5
140
100
AcDbEntity
8
0
100
AcDbLine
10
1.0969173228346454
20
-0.6131334645669293
30
0
11
-1.1108700787401575
21
-0.61313346456692963
31
4.3709567898628207e-17
0
LINE
5
141
100
AcDbEntity
8
0
100
AcDbLine
10
-1.1108700787401575
20
-0.61313346456692963
30
4.3709567898628207e-17
11
-1.1108700787401575
21
1.2196299212598416
31
4.3709567898628207e-17
0
LINE
5
142
100
AcDbEntity
8
0
100
AcDbLine
10
-1.1108700787401575
20
1.2196299212598416
30
4.3709567898628207e-17
11
-0.9926308118515933
21
1.2196299212598418
31
4.3709567898628207e-17
0
ARC
5
143
100
AcDbEntity
8
0
100
AcDbCircle
10
-0.0015000000000005515
20
0.7461348031496059
30
4.3709567898628207e-17
40
1.0984251968503926
100
AcDbArc
50
144.943319782657
51
154.46469103550683
0
LINE
5
144
100
AcDbEntity
8
0
100
AcDbLine
10
-0.90065354330708669
20
1.3770554151398438
30
4.3709567898628176e-17
11
-0.90065354330708647
21
1.8435310344736273
31
4.3709567898628207e-17
0
SPLINE
5
145
100
AcDbEntity
8
0
100
AcDbSpline
70
0
71
3
72
8
73
4
74
0
42
0.000000001
43
0.0000000001
44
0.0000000001
40
0.19989858538088151
40
0.19989858538088151
40
0.19989858538088151
40
0.19989858538088151
40
0.20041226849219218
40
0.20041226849219218
40
0.20041226849219218
40
0.20041226849219218
10
-0.91246456692913358
20
1.8434461389439938
30
0
10
-0.90849709917943144
20
1.843475940731466
30
0
10
-0.90455948368881611
20
1.8435042510469326
30
0
10
-0.90065354330708647
20
1.8435310344736273
30
0
0
SPLINE
5
146
100
AcDbEntity
8
0
100
AcDbSpline
70
0
71
3
72
8
73
4
74
0
42
0.000000001
43
0.0000000001
44
0.0000000001
40
0.19872832352451325
40
0.19872832352451325
40
0.19872832352451325
40
0.19872832352451325
40
0.19989858538088148
40
0.19989858538088148
40
0.19989858538088148
40
0.19989858538088148
10
-0.94002362204724432
20
1.8432196536741319
30
0
10
-0.93069670308278818
20
1.8433026104715335
30
0
10
-0.92150316693683354
20
1.843378245150403
30
0
10
-0.91246456692913402
20
1.8434461389439936
30
0
0
SPLINE
5
147
100
AcDbEntity
8
0
100
AcDbSpline
70
0
71
3
72
11
73
7
74
0
42
0.000000001
43
0.0000000001
44
0.0000000001
40
0.17971298438719985
40
0.17971298438719985
40
0.17971298438719985
40
0.17971298438719985
40
0.18776873169915684
40
0.18776873169915684
40
0.18776873169915684
40
0.19872832352451325
40
0.19872832352451325
40
0.19872832352451325
40
0.19872832352451325
10
-1.41640157480315
20
1.8339814061716968
30
8.7419135797256413e-17
10
-1.3518687910209226
20
1.8365285906570346
30
8.7419135797256413e-17
10
-1.2876319591776491
20
1.8380480347213588
30
8.7419135797256413e-17
10
-1.2194573820482444
20
1.8393063703056336
30
0
10
-1.1264165360089666
20
1.8410236762617824
30
0
10
-1.0273709317816995
20
1.8424427569191746
30
0
10
-0.94002362204724432
20
1.8432196536741319
30
0
0
SPLINE
5
148
100
AcDbEntity
8
0
100
AcDbSpline
70
0
71
3
72
8
73
4
74
0
42
0.000000001
43
0.0000000001
44
0.0000000001
40
0.17856748854521895
40
0.17856748854521895
40
0.17856748854521895
40
0.17856748854521895
40
0.17971298438719985
40
0.17971298438719985
40
0.17971298438719985
40
0.17971298438719985
10
-1.4439606299211791
20
1.8328302609823393
30
8.7419135797256413e-17
10
-1.4347601790895483
20
1.8332362261429973
30
8.7419135797256413e-17
10
-1.425577884912117
20
1.833619206474546
30
8.7419135797256413e-17
10
-1.41640157480315
20
1.8339814061716968
30
8.7419135797256413e-17
0
SPLINE
5
149
100
AcDbEntity
8
0
100
AcDbSpline
70
0
71
3
72
8
73
4
74
0
42
0.000000001
43
0.0000000001
44
0.0000000001
40
0.17807776671835626
40
0.17807776671835626
40
0.17807776671835626
40
0.17807776671835626
40
0.17856748854521559
40
0.17856748854521559
40
0.17856748854521559
40
0.17856748854521559
10
-1.455771653543307
20
1.8322968116488509
30
8.7419135797256413e-17
10
-1.4518306930218743
20
1.8324789439204152
30
8.7419135797256413e-17
10
-1.4478940021990714
20
1.8326567029537224
30
8.7419135797256413e-17
10
-1.4439606299212597
20
1.8328302609823355
30
8.7419135797256413e-17
0
SPLINE
5
150
100
AcDbEntity
8
0
100
AcDbSpline
70
0
71
3
72
11
73
7
74
0
42
0.000000001
43
0.0000000001
44
0.0000000001
40
0.17390987541093036
40
0.17390987541093036
40
0.17390987541093036
40
0.17390987541093036
40
0.17651635075472089
40
0.17651635075472089
40
0.17651635075472089
40
0.17807776671834369
40
0.17807776671834369
40
0.17807776671834369
40
0.17807776671834369
10
-1.5582850764888487
20
1.8266117773365016
30
8.7419135797256413e-17
10
-1.536447297721979
20
1.8280097691810533
30
8.7419135797256413e-17
10
-1.5148207065264416
20
1.8292875234141903
30
8.7419135797256413e-17
10
-1.4936284552813908
20
1.8304157408183204
30
8.7419135797256413e-17
10
-1.4809455641864631
20
1.8310909431978377
30
8.7419135797256413e-17
10
-1.4683369065764111
20
1.8317161059895941
30
8.7419135797256413e-17
10
-1.4557716535436107
20
1.8322968116488372
30
8.7419135797256413e-17
0
SPLINE
5
151
100
AcDbEntity
8
0
100
AcDbSpline
70
0
71
3
72
8
73
4
74
0
42
0.000000001
43
0.0000000001
44
0.0000000001
40
0.17157940991970286
40
0.17157940991970286
40
0.17157940991970286
40
0.17157940991970286
40
0.17390987541092917
40
0.17390987541092917
40
0.17390987541092917
40
0.17390987541092917
10
-1.6172079331595568
20
1.8225944973792489
30
8.7419135797256413e-17
10
-1.5975044874541915
20
1.8240157502409269
30
8.7419135797256413e-17
10
-1.5778103675845594
20
1.8253618243075918
30
8.7419135797256413e-17
10
-1.5582850764888787
20
1.8266117773364998
30
8.7419135797256413e-17
0
SPLINE
5
152
100
AcDbEntity
8
0
100
AcDbSpline
70
0
71
3
72
8
73
4
74
0
42
0.000000001
43
0.0000000001
44
0.0000000001
40
0.16925205475675367
40
0.16925205475675367
40
0.16925205475675367
40
0.16925205475675367
40
0.17157940991970119
40
0.17157940991970119
40
0.17157940991970119
40
0.17157940991970119
10
-1.6761084170847929
20
1.8181323531051423
30
8.7419135797256413e-17
10
-1.6565715315866436
20
1.8196808071166821
30
8.7419135797256413e-17
10
-1.6368850818935654
20
1.8211751413759347
30
8.7419135797256413e-17
10
-1.6172079331595981
20
1.8225944973792454
30
8.7419135797256413e-17
0
SPLINE
5
153
100
AcDbEntity
8
0
100
AcDbSpline
70
0
71
3
72
23
73
19
74
0
42
0.000000001
43
0.0000000001
44
0.0000000001
40
0.12174351091017707
40
0.12174351091017707
40
0.12174351091017707
40
0.12174351091017707
40
0.12851374217762485
40
0.12851374217762485
40
0.12851374217762485
40
0.13688243933472211
40
0.13688243933472211
40
0.13688243933472211
40
0.14315376968584495
40
0.14315376968584495
40
0.14315376968584495
40
0.151024617543629
40
0.151024617543629
40
0.151024617543629
40
0.16428985789450981
40
0.16428985789450981
40
0.16428985789450981
40
0.16925205475675367
40
0.16925205475675367
40
0.16925205475675367
40
0.16925205475675367
10
-2.5250433070865359
20
1.6367938909466948
30
8.7419135797256413e-17
10
-2.4966482448349869
20
1.6494891069386211
30
8.7419135797256413e-17
10
-2.4640642119676923
20
1.6630427518643658
30
8.7419135797256413e-17
10
-2.4376092254002297
20
1.6731642411089194
30
8.7419135797256413e-17
10
-2.4027997798467218
20
1.6864820867967356
30
8.7419135797256413e-17
10
-2.3805436275133078
20
1.6942428336548574
30
8.7419135797256413e-17
10
-2.345099547308946
20
1.7046550196417574
30
4.3709567898628207e-17
10
-2.3187812765228273
20
1.7123863736139486
30
4.3709567898628207e-17
10
-2.2830001899984911
20
1.7220155329350573
30
4.3709567898628207e-17
10
-2.239893873483191
20
1.73277642318285
30
4.3709567898628207e-17
10
-2.1859362985842385
20
1.7462461786261985
30
4.3709567898628207e-17
10
-2.1235498835373838
20
1.7606521852805612
30
4.3709567898628207e-17
10
-2.0690665448321184
20
1.771339445875407
30
4.3709567898628207e-17
10
-1.9778348510636135
20
1.7892351348875595
30
4.3709567898628207e-17
10
-1.9010168241968883
20
1.7980987493808771
30
4.3709567898628207e-17
10
-1.7974937599787577
20
1.8076919875776729
30
8.7419135797256413e-17
10
-1.7587384165767344
20
1.8112833538443323
30
8.7419135797256413e-17
10
-1.717763370939861
20
1.8148308657517207
30
8.7419135797256413e-17
10
-1.6761084170847929
20
1.8181323531051423
30
8.7419135797256413e-17
0
LWPOLYLINE
5
154
100
AcDbEntity
8
0
100
AcDbPolyline
90
4
70
1
43
0.0
10
-0.45160993166838115
20
-0.97916920323153189
10
-0.87306601783835103
20
-0.97916920323153189
10
-0.87306601783835103
20
-1.4180403201437424
10
-0.45160993166838115
20
-1.4180403201437424
0
LINE
5
155
100
AcDbEntity
8
0
100
AcDbLine
10
-0.9147679630039065
20
0.13582378340105178
30
0
11
-1.1108700787401578
21
0.13582378340105186
31
0
0
ARC
5
156
100
AcDbEntity
8
0
100
AcDbCircle
10
-0.0015000000000005603
20
0.74613480314960601
30
-1.7240384649665563e-47
40
1.0984251968503926
100
AcDbArc
50
213.75368115681465
51
326.24631884318535
0
LINE
5
157
100
AcDbEntity
8
0
100
AcDbLine
10
1.0969173228346456
20
0.13582378340105161
30
0
11
0.91176796300390517
21
0.13582378340105225
31
-5.4156543444060551e-32
0
LINE
5
158
100
AcDbEntity
8
0
100
AcDbLine
10
1.0416045929969335
20
1.0903305630661471
30
0
11
0.87662938902375354
21
1.0903305630661471
31
0
0
ARC
5
159
100
AcDbEntity
8
0
100
AcDbCircle
10
-0.0015000000000004511
20
0.74613480314960601
30
0
40
0.94317651847984263
100
AcDbArc
50
-291.97023780786361
51
21.403428377966669
0
LINE
5
160
100
AcDbEntity
8
0
100
AcDbLine
10
0.35136583845803199
20
1.620816256629138
30
0
11
0.35008587814016034
21
1.7867717635581035
31
0
0
ARC
5
161
100
AcDbEntity
8
0
100
AcDbCircle
10
-0.0015000000000006913
20
0.74613480314960656
30
-1.400781252785327e-47
40
1.0984251968503926
100
AcDbArc
50
50.715027718065102
51
129.28497228193498
0
LINE
5
162
100
AcDbEntity
8
0
100
AcDbLine
10
0.69399854361937474
20
1.5963228346456699
30
-2.6541237981842306e-32
11
0.81274549301955257
21
1.5963228346456695
31
0
0
LINE
5
163
100
AcDbEntity
8
0
100
AcDbLine
10
-0.90065354330708669
20
1.5963228346456693
30
0
11
-0.69699854361937685
21
1.5963228346456693
31
3.232572121812293e-48
0
LINE
5
164
100
AcDbEntity
8
0
100
AcDbLine
10
-0.9006535433070868
20
2.0285747088910147
30
0
11
-0.90065354330708669
21
1.5963228346456693
31
0
0
SPLINE
5
165
100
AcDbEntity
8
0
100
AcDbSpline
70
0
71
3
72
23
73
19
74
0
42
0.000000001
43
0.0000000001
44
0.0000000001
40
-0.28455451261296516
40
-0.28455451261296516
40
-0.28455451261296516
40
-0.28455451261296516
40
-0.28044060301372242
40
-0.28044060301372242
40
-0.28044060301372242
40
-0.266787605964666
40
-0.266787605964666
40
-0.266787605964666
40
-0.24953701427601019
40
-0.24953701427601019
40
-0.24953701427601019
40
-0.22938130731466233
40
-0.22938130731466233
40
-0.22938130731466233
40
-0.2133729493730929
40
-0.2133729493730929
40
-0.2133729493730929
40
-0.20046735466326226
40
-0.20046735466326226
40
-0.20046735466326226
40
-0.20046735466326226
10
0.81274549301955079
20
2.028899715165589
30
0
10
0.78541886640188252
20
2.0289411237342847
30
0
10
0.75765029483069046
20
2.0289186869400329
30
0
10
0.7298446249935947
20
2.0288510360626342
30
0
10
0.63749795310892066
20
2.0286263576637875
30
0
10
0.54822705260993287
20
2.0286961634749736
30
0
10
0.45631537802502808
20
2.0287013082318204
30
0
10
0.34022734207762623
20
2.0287078062607207
30
0
10
0.21825462950967919
20
2.0279834885863504
30
0
10
0.099888543874019617
20
2.027687485114313
30
0
10
-0.038436494114767322
20
2.0273415693792902
30
0
10
-0.1769576464356116
20
2.0280124090156026
30
0
10
-0.31566142633395106
20
2.0284619086218267
30
0
10
-0.42578923000901858
20
2.0288188015949138
30
0
10
-0.5381820750444879
20
2.0285461517691603
30
0
10
-0.64114313089942698
20
2.0286631557685402
30
0
10
-0.72416146128465742
20
2.0287574970376379
30
0
10
-0.8016696540599999
20
2.0292461086640401
30
0
10
-0.90065354331749847
20
2.0285747088909445
30
0
0
LINE
5
166
100
AcDbEntity
8
0
100
AcDbLine
10
0.81274549301955257
20
1.5963228346456695
30
0
11
0.81274549301955079
21
2.028899715165589
31
0
0
LINE
5
167
100
AcDbEntity
8
0
100
AcDbLine
10
0.81732069975936306
20
2.0407032173616657
30
0
11
0.81732069975936339
21
2.3668462169800373
31
0
0
SPLINE
5
168
100
AcDbEntity
8
0
100
AcDbSpline
70
0
71
3
72
14
73
10
74
0
42
0.000000001
43
0.0000000001
44
0.0000000001
40
-317.22584758833347
40
-317.22584758833347
40
-317.22584758833347
40
-317.22584758833347
40
-316.84426900344374
40
-316.84426900344374
40
-312.49455709165602
40
-312.49455709165602
40
-307.55448917684384
40
-307.55448917684384
40
-306.88043371115577
40
-306.88043371115577
40
-306.88043371115577
40
-306.88043371115577
10
0.81732069975936583
20
2.3668462169800373
30
0
10
0.79971373515706823
20
2.3668422119817314
30
0
10
0.78308963060994696
20
2.366808130647164
30
0
10
0.59274483568147485
20
2.3664023039168653
30
0
10
0.41638864902625544
20
2.3666381933814882
30
0
10
0.036769327937610598
20
2.3652183242720262
30
0
10
-0.16667572799541941
20
2.3661857006168554
30
0
10
-0.39970527193061367
20
2.3665170256483332
30
0
10
-0.59170921271150878
20
2.3666888617423854
30
0
10
-0.7708226488984411
20
2.366858563485899
30
0
0
SPLINE
5
169
100
AcDbEntity
8
0
100
AcDbSpline
70
0
71
3
72
12
73
8
74
0
42
0.000000001
43
0.0000000001
44
0.0000000001
40
-0.2383048271031786
40
-0.2383048271031786
40
-0.2383048271031786
40
-0.2383048271031786
40
-0.17966690838888311
40
-0.17966690838888311
40
-0.12004747654301394
40
-0.12004747654301394
40
0
40
0
40
0
40
0
10
-0.7708226488984411
20
2.3668585634858981
30
0
10
-0.77850991165319816
20
2.3668658468138277
30
0
10
-0.78617733339926255
20
2.3660637949251084
30
0
10
-0.80136032612625241
20
2.3629138791038358
30
0
10
-0.8088365835002842
20
2.3605477356912012
30
0
10
-0.83050101928542641
20
2.3512822118185284
30
0
10
-0.84367069071134537
20
2.3422820651941665
30
0
10
-0.85481063621369413
20
2.3311421196918176
30
0
0
LINE
5
170
100
AcDbEntity
8
0
100
AcDbLine
10
-0.85481063621369413
20
2.3311421196918181
30
0
11
-0.90093333784199015
21
2.2850194180635217
31
8.4922895185578895e-32
0
ARC
5
171
100
AcDbEntity
8
0
100
AcDbCircle
10
-0.8730944881889765
20
2.257180568410508
30
0
40
0.039370078740157397
100
AcDbArc
50
134.99999999999991
51
180
0
LINE
5
172
100
AcDbEntity
8
0
100
AcDbLine
10
-0.9124645669291338
20
2.257180568410508
30
-6.862806292996262e-34
11
-0.91246456692913414
21
2.0403020420642628
31
0
0
SPLINE
5
173
100
AcDbEntity
8
0
100
AcDbSpline
70
0
71
3
72
8
73
4
74
0
42
0.000000001
43
0.0000000001
44
0.0000000001
40
1.6932847831169648
40
1.6932847831169648
40
1.6932847831169648
40
1.6932847831169648
40
1.7213873077455828
40
1.7213873077455828
40
1.7213873077455828
40
1.7213873077455828
10
-0.91246456692913414
20
2.0403020420642628
30
0
10
-0.90846100330613822
20
2.0403317900648963
30
0
10
-0.90452210083614581
20
2.0403597852434063
30
0
10
-0.90065354330708625
20
2.0403860039894641
30
0
0
LINE
5
174
100
AcDbEntity
8
0
100
AcDbLine
10
-0.90065354330708625
20
2.0403860039894641
30
0
11
-0.90065354330708669
21
2.0285747088910147
31
0
0
SPLINE
5
175
100
AcDbEntity
8
0
100
AcDbSpline
70
0
71
3
72
23
73
19
74
0
42
0.000000001
43
0.0000000001
44
0.0000000001
40
0.20046735466326224
40
0.20046735466326224
40
0.20046735466326224
40
0.20046735466326224
40
0.2133729493730929
40
0.2133729493730929
40
0.2133729493730929
40
0.22938130731466233
40
0.22938130731466233
40
0.22938130731466233
40
0.24953701427601019
40
0.24953701427601019
40
0.24953701427601019
40
0.266787605964666
40
0.266787605964666
40
0.266787605964666
40
0.28044060301372242
40
0.28044060301372242
40
0.28044060301372242
40
0.28455451261296527
40
0.28455451261296527
40
0.28455451261296527
40
0.28455451261296527
10
-0.90065354331749892
20
2.0285747088909436
30
0
10
-0.80166965406000024
20
2.0292461086640392
30
0
10
-0.72416146128465764
20
2.0287574970376374
30
0
10
-0.64114313089942698
20
2.0286631557685402
30
0
10
-0.5381820750444879
20
2.0285461517691603
30
0
10
-0.42578923000901858
20
2.0288188015949138
30
0
10
-0.31566142633395106
20
2.0284619086218267
30
0
10
-0.17695764643561157
20
2.0280124090156026
30
0
10
-0.038436494114767308
20
2.0273415693792902
30
0
10
0.099888543874019645
20
2.027687485114313
30
0
10
0.21825462950967919
20
2.0279834885863504
30
0
10
0.34022734207762623
20
2.0287078062607207
30
0
10
0.45631537802502808
20
2.0287013082318204
30
0
10
0.54822705260993287
20
2.0286961634749736
30
0
10
0.63749795310892066
20
2.0286263576637875
30
0
10
0.7298446249935947
20
2.0288510360626342
30
0
10
0.75765029483069113
20
2.0289186869400329
30
0
10
0.7854188664018843
20
2.028941123734286
30
0
10
0.81274549301955323
20
2.0288997151655903
30
0
0
LINE
5
176
100
AcDbEntity
8
0
100
AcDbLine
10
0.81274549301955323
20
2.0288997151655908
30
0
11
0.81274549301955257
21
2.0407107523386063
31
0
0
LINE
5
177
100
AcDbEntity
8
0
100
AcDbLine
10
0.81274549301955257
20
2.0407107523386063
30
0
11
0.81732069984257927
21
2.0407032173615169
31
0
0
SPLINE
5
178
100
AcDbEntity
8
0
100
AcDbSpline
70
0
71
3
72
14
73
10
74
0
42
0.000000001
43
0.0000000001
44
0.0000000001
40
0
40
0
40
0
40
0
40
0.9757655969025818
40
0.9757655969025818
40
2.3690327697752389
40
2.3690327697752389
40
2.6409344087014275
40
2.6409344087014275
40
2.8630763558585763
40
2.8630763558585763
40
2.8630763558585763
40
2.8630763558585763
10
0.81274549301955257
20
2.0407107523386068
30
0
10
0.94079857414211698
20
2.0405168429160359
30
-4.3709567898628207e-17
10
1.0033178934990683
20
2.0388973451578964
30
-4.3709567898628207e-17
10
1.2562386219006805
20
2.0357608484792062
30
0
10
1.4429308760298813
20
2.0350976284824105
30
0
10
1.7745564068204149
20
2.0078127734949267
30
0
10
1.8957496215085359
20
1.9974093009045293
30
4.3709567898628207e-17
10
2.0543464093835833
20
1.9751436626588925
30
0
10
2.0916466518892047
20
1.9659492626385178
30
0
10
2.165650500768193
20
1.9495781565734001
30
0
0
LINE
5
179
100
AcDbEntity
8
0
100
AcDbLine
10
1.0673206997593156
20
2.3645884276322278
30
0
11
1.0673206997593627
21
2.0381397992998456
31
0
0
LINE
5
180
100
AcDbEntity
8
0
100
AcDbLine
10
1.3173206997593629
20
2.0341658737077766
30
0
11
1.3173206997593603
21
2.3606500666173189
31
0
0
LINE
5
181
100
AcDbEntity
8
0
100
AcDbLine
10
1.5673206996545586
20
2.3509630283073477
30
0
11
1.5673206997593627
21
2.0232408038460021
31
0
0
LINE
5
182
100
AcDbEntity
8
0
100
AcDbLine
10
1.8173206997593632
20
2.0036833375980172
30
0
11
1.8173206997679592
21
2.3329611725884152
31
0
0
LINE
5
183
100
AcDbEntity
8
0
100
AcDbLine
10
2.0673206997593625
20
2.3054710863577923
30
0
11
2.0673206997593625
21
1.9709156259890992
31
0
0
LINE
5
184
100
AcDbEntity
8
0
100
AcDbLine
10
2.1656505007681934
20
1.9495781565734001
30
0
11
2.2054250080669333
21
2.0588577172465254
31
0
0
LINE
5
185
100
AcDbEntity
8
0
100
AcDbLine
10
2.2054250080669333
20
2.0588577172465254
30
0
11
2.3275110567983872
21
2.0144220294890638
31
0
0
LINE
5
186
100
AcDbEntity
8
0
100
AcDbLine
10
2.3275110567983872
20
2.0144220294890638
30
0
11
2.3544417817907055
21
2.0884135909443864
31
0
0
LINE
5
187
100
AcDbEntity
8
0
100
AcDbLine
10
2.3544417817907055
20
2.0884135909443864
30
0
11
2.2908429753661577
21
2.2248016673601549
31
-7.565902050504917e-29
0
SPLINE
5
188
100
AcDbEntity
8
0
100
AcDbSpline
70
0
71
3
72
12
73
8
74
0
42
0.000000001
43
0.0000000001
44
0.0000000001
40
-0.19511239720586393
40
-0.19511239720586393
40
-0.19511239720586393
40
-0.19511239720586393
40
-0.13695459677592625
40
-0.13695459677592625
40
-0.079388760905473782
40
-0.079388760905473782
40
0
40
0
40
0
40
0
10
2.2908429753673265
20
2.2248016673576476
30
0
10
2.287613191087805
20
2.231727961888732
30
0
10
2.2835078397171484
20
2.2382244578866457
30
0
10
2.2737911165270557
20
2.2499199099547318
30
0
10
2.2682238484322315
20
2.2550970616743173
30
0
10
2.2535362594917974
20
2.2654853935618982
30
0
10
2.2439823066016542
20
2.2698845584962863
30
0
10
2.2338499516391388
20
2.2723094200165268
30
0
0
SPLINE
5
189
100
AcDbEntity
8
0
100
AcDbSpline
70
0
71
3
72
10
73
6
74
0
42
0.000000001
43
0.0000000001
44
0.0000000001
40
-326.7725997709901
40
-326.7725997709901
40
-326.7725997709901
40
-326.7725997709901
40
-325.58535740058971
40
-325.58535740058971
40
-323.2935679783979
40
-323.2935679783979
40
-323.2935679783979
40
-323.2935679783979
10
1.8173206997680265
20
2.3329611725891732
30
0
10
1.7763307156457853
20
2.3366080621484753
30
0
10
1.741198569914582
20
2.3393967073636159
30
0
10
1.6740436348039569
20
2.3445128666333317
30
0
10
1.6252663386536712
20
2.347780564008108
30
0
10
1.5673206995497542
20
2.3509630283073477
30
0
0
SPLINE
5
190
100
AcDbEntity
8
0
100
AcDbSpline
70
0
71
3
72
10
73
6
74
0
42
0.000000001
43
0.0000000001
44
0.0000000001
40
-330.95731821114981
40
-330.95731821114981
40
-330.95731821114981
40
-330.95731821114981
40
-329.06752719050155
40
-329.06752719050155
40
-328.99366878144582
40
-328.99366878144582
40
-328.99366878144582
40
-328.99366878144582
10
2.2338499516389176
20
2.2723094200170202
30
0
10
2.1797003786865217
20
2.2852684227637141
30
0
10
2.1383629428473041
20
2.294791039815578
30
0
10
2.0723589083798837
20
2.3047282282709443
30
0
10
2.0698514727278372
20
2.3051005216539355
30
0
10
2.0673206997593616
20
2.3054710863577927
30
0
0
SPLINE
5
191
100
AcDbEntity
8
0
100
AcDbSpline
70
0
71
3
72
8
73
4
74
0
42
0.000000001
43
0.0000000001
44
0.0000000001
40
-0.65865738405077889
40
-0.65865738405077889
40
-0.65865738405077889
40
-0.65865738405077889
40
-0.049566855478659723
40
-0.049566855478659723
40
-0.049566855478659723
40
-0.049566855478659723
10
1.8173206997593632
20
2.3150059390020274
30
0
10
1.8850627168213734
20
2.3089816863017147
30
0
10
1.985123373389645
20
2.2995484133714541
30
0
10
2.0673206997593625
20
2.2875164808286668
30
0
0
SPLINE
5
192
100
AcDbEntity
8
0
100
AcDbSpline
70
0
71
3
72
8
73
4
74
0
42
0.000000001
43
0.0000000001
44
0.0000000001
40
-0.68441551667951495
40
-0.68441551667951495
40
-0.68441551667951495
40
-0.68441551667951495
40
-0.050355412782408904
40
-0.050355412782408904
40
-0.050355412782408904
40
-0.050355412782408904
10
1.3173206997593629
20
2.3426087723835147
30
0
10
1.4076657550768481
20
2.3405848998132242
30
0
10
1.4851124596108605
20
2.3374692458024064
30
0
10
1.5673206997593627
20
2.3329704506935909
30
4.3709567898628207e-17
0
SPLINE
5
193
100
AcDbEntity
8
0
100
AcDbSpline
70
0
71
3
72
10
73
6
74
0
42
0.000000001
43
0.0000000001
44
0.0000000001
40
-320.59902069598792
40
-320.59902069598792
40
-320.59902069598792
40
-320.59902069598792
40
-320.23340548138555
40
-320.23340548138555
40
-318.81373155595685
40
-318.81373155595685
40
-318.81373155595685
40
-318.81373155595685
10
1.3173206997592486
20
2.3606500666173211
30
0
10
1.3036069849766669
20
2.3609598877084088
30
0
10
1.2895202052688186
20
2.3612469717800506
30
0
10
1.2188208765036959
20
2.3625353842546777
30
0
10
1.144603776258162
20
2.3633411324110982
30
0
10
1.0673206997584441
20
2.3645884276322415
30
0
0
LINE
5
194
100
AcDbEntity
8
0
100
AcDbLine
10
2.3275110567983872
20
2.0144220294890642
30
0
11
2.4643954162854911
21
1.9646001970991205
31
8.0333875450172388e-26
0
LINE
5
195
100
AcDbEntity
8
0
100
AcDbLine
10
2.4643954162854911
20
1.9646001970991205
30
8.0333875450172388e-26
11
2.6012797730903174
21
1.914778365685446
31
5.282635003576863e-26
0
SPLINE
5
196
100
AcDbEntity
8
0
100
AcDbSpline
70
0
71
3
72
8
73
4
74
0
42
0.000000001
43
0.0000000001
44
0.0000000001
40
-0.69831393238548234
40
-0.69831393238548234
40
-0.69831393238548234
40
-0.69831393238548234
40
-0.32360513529353874
40
-0.32360513529353874
40
-0.32360513529353874
40
-0.32360513529353874
10
2.2579416342319134
20
2.2177706167055269
30
0
10
2.2489827028463605
20
2.2384172627480194
30
0
10
2.2409160232805632
20
2.256579453890724
30
0
10
2.2338499516390158
20
2.2723094200168013
30
0
0
LINE
5
197
100
AcDbEntity
8
0
100
AcDbLine
10
2.2599054995970147
20
2.2132362443021316
30
0
11
2.2579416342319134
21
2.2177706167055269
31
0
0
SPLINE
5
198
100
AcDbEntity
8
0
100
AcDbSpline
70
0
71
3
72
8
73
4
74
0
42
0.000000001
43
0.0000000001
44
0.0000000001
40
-5.2560462511360972
40
-5.2560462511360972
40
-5.2560462511360972
40
-5.2560462511360972
40
-5.1555967634272859
40
-5.1555967634272859
40
-5.1555967634272859
40
-5.1555967634272859
10
2.2977224825617162
20
2.2027513778081023
30
0
10
2.2851771705991002
20
2.2062187046568615
30
0
10
2.2725408642445886
20
2.2097187772708833
30
0
10
2.2599054995970151
20
2.2132362443021321
30
0
0
SPLINE
5
199
100
AcDbEntity
8
0
100
AcDbSpline
70
0
71
3
72
14
73
10
74
0
42
0.000000001
43
0.0000000001
44
0.0000000001
40
0
40
0
40
0
40
0
40
0.083700327131144503
40
0.083700327131144503
40
0.15192966916722833
40
0.15192966916722833
40
0.22151308625433816
40
0.22151308625433816
40
0.22228940119611443
40
0.22228940119611443
40
0.22228940119611443
40
0.22228940119611443
10
2.3058864634670195
20
2.1925408039885399
30
0
10
2.3027584117757289
20
2.1992489322866762
30
0
10
2.2982177956846344
20
2.2043995309978288
30
0
10
2.2883106547533103
20
2.2109091484294168
30
0
10
2.2832581521542412
20
2.2127904506202292
30
0
10
2.272265961071902
20
2.2145656691683198
30
0
10
2.2663020010905948
20
2.2144212549807922
30
0
10
2.260043688167543
20
2.2132621956976957
30
0
10
2.2599746081689362
20
2.2132492823851342
30
0
10
2.2599054995970138
20
2.2132362443021321
30
0
0
LINE
5
200
100
AcDbEntity
8
0
100
AcDbLine
10
2.3058864634670195
20
2.1925408039885399
30
0
11
2.311458986530496
21
2.1805904900732664
31
2.9997335845689495e-18
0
LINE
5
201
100
AcDbEntity
8
0
100
AcDbLine
10
2.3544417817907055
20
2.0884135909443864
30
0
11
2.311458986530496
21
2.1805904900732664
31
2.9997335845689495e-18
0
SPLINE
5
202
100
AcDbEntity
8
0
100
AcDbSpline
70
0
71
3
72
11
73
7
74
0
42
0.000000001
43
0.0000000001
44
0.0000000001
40
-5.3334891177672281
40
-5.3334891177672281
40
-5.3334891177672281
40
-5.3334891177672281
40
-5.2590023142975495
40
-5.2590023142975495
40
-5.2590023142975495
40
-5.2560462511360972
40
-5.2560462511360972
40
-5.2560462511360972
40
-5.2560462511360972
10
2.3272558025622829
20
2.1945940954365897
30
0
10
2.3174797729568253
20
2.1973086171459477
30
0
10
2.3081263412079052
20
2.1998736504137968
30
0
10
2.2988288244479174
20
2.202445286340371
30
0
10
2.2984598457093095
20
2.202547343589079
30
0
10
2.2980916086489289
20
2.2026492230575125
30
0
10
2.2977224825617162
20
2.2027513778081023
30
0
0
SPLINE
5
203
100
AcDbEntity
8
0
100
AcDbSpline
70
0
71
3
72
8
73
4
74
0
42
0.000000001
43
0.0000000001
44
0.0000000001
40
-5.3951671193997441
40
-5.3951671193997441
40
-5.3951671193997441
40
-5.3951671193997441
40
-5.3334891177672281
40
-5.3334891177672281
40
-5.3334891177672281
40
-5.3334891177672281
10
2.3521218941756166
20
2.1875191013825224
30
0
10
2.3438049589256966
20
2.1899621598847991
30
0
10
2.3353527329892043
20
2.1923503041176553
30
0
10
2.3272558025622829
20
2.1945940954365897
30
0
0
SPLINE
5
204
100
AcDbEntity
8
0
100
AcDbSpline
70
0
71
3
72
8
73
4
74
0
42
0.000000001
43
0.0000000001
44
0.0000000001
40
-5.5044244025947329
40
-5.5044244025947329
40
-5.5044244025947329
40
-5.5044244025947329
40
-5.3951671193997441
40
-5.3951671193997441
40
-5.3951671193997441
40
-5.3951671193997441
10
2.3963069577783647
20
2.1736629186541538
30
0
10
2.3820403019955014
20
2.1783713677097816
30
0
10
2.3673617119487371
20
2.18305991309186
30
0
10
2.3521218941756166
20
2.1875191013825224
30
0
0
SPLINE
5
205
100
AcDbEntity
8
0
100
AcDbSpline
70
0
71
3
72
8
73
4
74
0
42
0.000000001
43
0.0000000001
44
0.0000000001
40
-5.5144824921491624
40
-5.5144824921491624
40
-5.5144824921491624
40
-5.5144824921491624
40
-5.5044244025947329
40
-5.5044244025947329
40
-5.5044244025947329
40
-5.5044244025947329
10
2.4002468592992572
20
2.1723584542907739
30
0
10
2.398940630214792
20
2.1727922926101728
30
0
10
2.3976203326971297
20
2.1732294750930459
30
0
10
2.3963069577783647
20
2.1736629186541538
30
0
0
SPLINE
5
206
100
AcDbEntity
8
0
100
AcDbSpline
70
0
71
3
72
8
73
4
74
0
42
0.000000001
43
0.0000000001
44
0.0000000001
40
-5.5279358656132072
40
-5.5279358656132072
40
-5.5279358656132072
40
-5.5279358656132072
40
-5.5144824921491624
40
-5.5144824921491624
40
-5.5144824921491624
40
-5.5144824921491624
10
2.4054652820779192
20
2.1706187873640395
30
0
10
2.4037303492446145
20
2.1711990554646574
30
0
10
2.4019939670820611
20
2.1717780172655119
30
0
10
2.4002468592992572
20
2.1723584542907739
30
0
0
SPLINE
5
207
100
AcDbEntity
8
0
100
AcDbSpline
70
0
71
3
72
8
73
4
74
0
42
0.000000001
43
0.0000000001
44
0.0000000001
40
-5.7917638238411255
40
-5.7917638238411255
40
-5.7917638238411255
40
-5.7917638238411255
40
-5.5279358656132072
40
-5.5279358656132072
40
-5.5279358656132072
40
-5.5279358656132072
10
2.5048809853132132
20
2.1365362345435828
30
4.3709567898628207e-17
10
2.4719935198767589
20
2.1479588872906592
30
4.3709567898628207e-17
10
2.4392212058322902
20
2.1593236641937779
30
0
10
2.4054652820779192
20
2.1706187873640395
30
0
0
LINE
5
208
100
AcDbEntity
8
0
100
AcDbLine
10
2.510153843734011
20
2.1347040839499378
30
4.3709567898628207e-17
11
2.5048809853132132
21
2.1365362345435828
31
4.3709567898628207e-17
0
SPLINE
5
209
100
AcDbEntity
8
0
100
AcDbSpline
70
0
71
3
72
8
73
4
74
0
42
0.000000001
43
0.0000000001
44
0.0000000001
40
-5.8405191346154544
40
-5.8405191346154544
40
-5.8405191346154544
40
-5.8405191346154544
40
-5.8058575363753366
40
-5.8058575363753366
40
-5.8058575363753366
40
-5.8058575363753366
10
2.5231334564577157
20
2.1301865227302046
30
4.3709567898628207e-17
10
2.5188104837351251
20
2.1316931181988732
30
4.3709567898628207e-17
10
2.5144796384972872
20
2.1332004027042144
30
4.3709567898628207e-17
10
2.510153843734011
20
2.1347040839499378
30
4.3709567898628207e-17
0
SPLINE
5
210
100
AcDbEntity
8
0
100
AcDbSpline
70
0
71
3
72
8
73
4
74
0
42
0.000000001
43
0.0000000001
44
0.0000000001
40
-6.1263685211962695
40
-6.1263685211962695
40
-6.1263685211962695
40
-6.1263685211962695
40
-5.8408110406656411
40
-5.8408110406656411
40
-5.8408110406656411
40
-5.8408110406656411
10
2.6304752116282213
20
2.0921359450376635
30
0
10
2.594260386485634
20
2.1053226175995965
30
0
10
2.5587136586589398
20
2.1177864976008935
30
0
10
2.5231334564577153
20
2.130186522730205
30
4.3709567898628207e-17
0
SPLINE
5
211
100
AcDbEntity
8
0
100
AcDbSpline
70
0
71
3
72
8
73
4
74
0
42
0.000000001
43
0.0000000001
44
0.0000000001
40
-6.1464526546521991
40
-6.1464526546521991
40
-6.1464526546521991
40
-6.1464526546521991
40
-6.1263685211962695
40
-6.1263685211962695
40
-6.1263685211962695
40
-6.1263685211962695
10
2.6381285381444632
20
2.0893398068664406
30
0
10
2.6355691313195719
20
2.0902782273100207
30
0
10
2.6330194302745951
20
2.0912095151328454
30
0
10
2.6304752116282213
20
2.0921359450376635
30
0
0
SPLINE
5
212
100
AcDbEntity
8
0
100
AcDbSpline
70
0
71
3
72
8
73
4
74
0
42
0.000000001
43
0.0000000001
44
0.0000000001
40
-6.3041145377983323
40
-6.3041145377983323
40
-6.3041145377983323
40
-6.3041145377983323
40
-6.1464526546521991
40
-6.1464526546521991
40
-6.1464526546521991
40
-6.1464526546521991
10
2.7003380950333726
20
2.0652372351966899
30
0
10
2.6788342587807392
20
2.0742560856495418
30
0
10
2.658220188307459
20
2.0819734834104708
30
0
10
2.6381285381444632
20
2.0893398068664406
30
0
0
SPLINE
5
213
100
AcDbEntity
8
0
100
AcDbSpline
70
0
71
3
72
8
73
4
74
0
42
0.000000001
43
0.0000000001
44
0.0000000001
40
-6.3698987665494373
40
-6.3698987665494373
40
-6.3698987665494373
40
-6.3698987665494373
40
-6.3041145377983323
40
-6.3041145377983323
40
-6.3041145377983323
40
-6.3041145377983323
10
2.7277166335654504
20
2.0530839562748717
30
-4.3709567898628207e-17
10
2.7185433922996851
20
2.0573992141621034
30
-4.3709567898628207e-17
10
2.7094661642234117
20
2.061406732512447
30
0
10
2.7003380950333726
20
2.0652372351966899
30
0
0
SPLINE
5
214
100
AcDbEntity
8
0
100
AcDbSpline
70
0
71
3
72
8
73
4
74
0
42
0.000000001
43
0.0000000001
44
0.0000000001
40
-6.3842490019852116
40
-6.3842490019852116
40
-6.3842490019852116
40
-6.3842490019852116
40
-6.3698987665494373
40
-6.3698987665494373
40
-6.3698987665494373
40
-6.3698987665494373
10
2.733354022752168
20
2.0504222492470232
30
-4.3709567898628207e-17
10
2.7314756857926432
20
2.0513157424920938
30
-4.3709567898628207e-17
10
2.7296020216042707
20
2.052200516323754
30
-4.3709567898628207e-17
10
2.7277166335654504
20
2.0530839562748717
30
-4.3709567898628207e-17
0
SPLINE
5
215
100
AcDbEntity
8
0
100
AcDbSpline
70
0
71
3
72
8
73
4
74
0
42
0.000000001
43
0.0000000001
44
0.0000000001
40
-6.3939104411603891
40
-6.3939104411603891
40
-6.3939104411603891
40
-6.3939104411603891
40
-6.3842490019852116
40
-6.3842490019852116
40
-6.3842490019852116
40
-6.3842490019852116
10
2.7371250772521738
20
2.0486199226806199
30
-4.3709567898628207e-17
10
2.7359045791014522
20
2.0492059754299401
30
-4.3709567898628207e-17
10
2.734618637238857
20
2.0498207195439666
30
-4.3709567898628207e-17
10
2.733354022752168
20
2.0504222492470232
30
-4.3709567898628207e-17
0
SPLINE
5
216
100
AcDbEntity
8
0
100
AcDbSpline
70
0
71
3
72
11
73
7
74
0
42
0.000000001
43
0.0000000001
44
0.0000000001
40
-6.4896768050339793
40
-6.4896768050339793
40
-6.4896768050339793
40
-6.4896768050339793
40
-6.3988521016679112
40
-6.3988521016679112
40
-6.3988521016679112
40
-6.3939104411603891
40
-6.3939104411603891
40
-6.3939104411603891
40
-6.3939104411603891
10
2.7706154902206155
20
2.03262420317657
30
-4.3709567898628207e-17
10
2.7602572056882182
20
2.0374894482505321
30
-4.3709567898628207e-17
10
2.7501457103536042
20
2.042379227751407
30
-4.3709567898628207e-17
10
2.7389566524617637
20
2.0477427694511574
30
-4.3709567898628207e-17
10
2.7383478695706414
20
2.0480345931644841
30
-4.3709567898628207e-17
10
2.7377495552995805
20
2.0483211544330966
30
-4.3709567898628207e-17
10
2.7371250772521738
20
2.0486199226806199
30
-4.3709567898628207e-17
0
SPLINE
5
217
100
AcDbEntity
8
0
100
AcDbSpline
70
0
71
3
72
8
73
4
74
0
42
0.000000001
43
0.0000000001
44
0.0000000001
40
-6.5005332590282796
40
-6.5005332590282796
40
-6.5005332590282796
40
-6.5005332590282796
40
-6.4896768050339793
40
-6.4896768050339793
40
-6.4896768050339793
40
-6.4896768050339793
10
2.7743474528168388
20
2.0308718768163714
30
-4.3709567898628207e-17
10
2.7731015041973879
20
2.0314559709373556
30
-4.3709567898628207e-17
10
2.7718535002406774
20
2.0320419517237802
30
-4.3709567898628207e-17
10
2.7706154902206155
20
2.03262420317657
30
-4.3709567898628207e-17
0
SPLINE
5
218
100
AcDbEntity
8
0
100
AcDbSpline
70
0
71
3
72
8
73
4
74
0
42
0.000000001
43
0.0000000001
44
0.0000000001
40
-6.5350241940955849
40
-6.5350241940955849
40
-6.5350241940955849
40
-6.5350241940955849
40
-6.5005332590282796
40
-6.5005332590282796
40
-6.5005332590282796
40
-6.5005332590282796
10
2.7866079074113159
20
2.0251092382828921
30
0
10
2.7824998947146953
20
2.0270423727521183
30
-4.3709567898628207e-17
10
2.7784052729050339
20
2.0289656494384891
30
-4.3709567898628207e-17
10
2.7743474528168388
20
2.0308718768163714
30
-4.3709567898628207e-17
0
SPLINE
5
219
100
AcDbEntity
8
0
100
AcDbSpline
70
0
71
3
72
18
73
14
74
0
42
0.000000001
43
0.0000000001
44
0.0000000001
40
0
40
0
40
0
40
0
40
0.082873358938541725
40
0.082873358938541725
40
0.15287353756302041
40
0.15287353756302041
40
0.16180522487663532
40
0.16180522487663532
40
0.17751025878721899
40
0.17751025878721899
40
0.2249749993884228
40
0.2249749993884228
40
0.22575363565310347
40
0.22575363565310347
40
0.22575363565310347
40
0.22575363565310347
10
2.737003925786035
20
2.0395011397759149
30
-4.3709567898628207e-17
10
2.7437460890937553
20
2.0426450622532966
30
0
10
2.7505493996390822
20
2.0437005039099674
30
-4.3709567898628207e-17
10
2.7625200811770139
20
2.0423809216145896
30
-4.3709567898628207e-17
10
2.7677681330130341
20
2.0405142305930108
30
-4.3709567898628207e-17
10
2.7732770263762911
20
2.0372071114371404
30
-4.3709567898628207e-17
10
2.7738947338729028
20
2.0368153822641801
30
-4.3709567898628207e-17
10
2.7755827530384147
20
2.0356874840767061
30
-4.3709567898628207e-17
10
2.7766390621767054
20
2.034916241086413
30
-4.3709567898628207e-17
10
2.7808050521425289
20
2.0316080816553876
30
-4.3709567898628207e-17
10
2.783750824319104
20
2.0286531874167308
30
-4.3709567898628207e-17
10
2.7865187394034248
20
2.0252203893291618
30
0
10
2.7865633532867151
20
2.0251648707398977
30
0
10
2.7866079074113186
20
2.0251092382828912
30
0
0
LINE
5
220
100
AcDbEntity
8
0
100
AcDbLine
10
2.7259478875778589
20
2.0343456243356859
30
-4.3709567898628207e-17
11
2.737003925786035
21
2.0395011397759149
31
-4.3709567898628207e-17
0
LINE
5
221
100
AcDbEntity
8
0
100
AcDbLine
10
2.6282104992293647
20
1.9887699302913815
30
0
11
2.7259478875778589
21
2.0343456243356859
31
-4.3709567898628207e-17
0
SPLINE
5
222
100
AcDbEntity
8
0
100
AcDbSpline
70
0
71
3
72
8
73
4
74
0
42
0.000000001
43
0.0000000001
44
0.0000000001
40
-5.7843099134793245
40
-5.7843099134793245
40
-5.7843099134793245
40
-5.7843099134793245
40
-5.3689501896516134
40
-5.3689501896516134
40
-5.3689501896516134
40
-5.3689501896516134
10
2.8461526606542851
20
2.0539798375041487
30
0
10
2.8290306762121578
20
2.0458092799238194
30
-4.3709567898628207e-17
10
2.8092826936546387
20
2.0363070617483445
30
-4.3709567898628207e-17
10
2.7866079074113181
20
2.0251092382828908
30
0
0
CIRCLE
5
223
100
AcDbEntity
8
0
100
AcDbCircle
10
-0.0015000000000003676
20
0.74613480314960601
30
0
40
0.83346421259842496
0
CIRCLE
5
224
100
AcDbEntity
8
0
100
AcDbCircle
10
2.8984999999999999
20
1.3689999999999998
30
0
40
0.060000000000000032
0
ARC
5
225
100
AcDbEntity
8
0
100
AcDbCircle
10
-2.136499999999999
20
1.7939999999999994
30
1.2930288487249172e-47
40
0.57913385826771702
100
AcDbArc
50
184.51589282565493
51
227.86311430570282
0
CIRCLE
5
226
100
AcDbEntity
8
0
100
AcDbCircle
10
-2.7265000000000001
20
1.5189999999999999
30
0
40
0.060000000000000032
0
LINE
5
227
100
AcDbEntity
8
0
100
AcDbLine
10
-2.8892392118294969
20
1.6282184453530406
30
0
11
-2.8892392118294969
21
-1.0644312293732372
31
0
0
LINE
5
228
100
AcDbEntity
8
0
100
AcDbLine
10
-2.8892392118294969
20
-1.0644312293732372
30
0
11
-3.2435699204909136
21
-1.0644312293732372
31
0
0
LINE
5
229
100
AcDbEntity
8
0
100
AcDbLine
10
-3.2435699204909136
20
-1.0644312293732372
30
0
11
-3.243569920490915
21
1.2136680351565259
31
0
0
LINE
5
230
100
AcDbEntity
8
0
100
AcDbLine
10
-2.9876644086798909
20
0.97271700980975895
30
4.3709567898628207e-17
11
-2.9876644086798909
21
-1.0644312293732372
31
4.3709567898628207e-17
0
LINE
5
231
100
AcDbEntity
8
0
100
AcDbLine
10
-3.145144723640521
20
-0.94097521103263637
30
0
11
-3.145144723640521
21
0.93054877978626216
31
-3.8821894941978924e-31
0
SPLINE
5
232
100
AcDbEntity
8
0
100
AcDbSpline
70
0
71
3
72
10
73
6
74
0
42
0.000000001
43
0.0000000001
44
0.0000000001
40
-0.11519996283192055
40
-0.11519996283192055
40
-0.11519996283192055
40
-0.11519996283192055
40
-0.061578966529997635
40
-0.061578966529997635
40
-0.044872743903831364
40
-0.044872743903831364
40
-0.044872743903831364
40
-0.044872743903831364
10
-3.145144723640521
20
0.93054877978626283
30
4.3709567898628207e-17
10
-3.145144723640521
20
0.93801485175051857
30
4.3709567898628207e-17
10
-3.1454491107854738
20
0.94547969541856081
30
4.3709567898628207e-17
10
-3.1461798204302935
20
0.95525734281726993
30
4.3709567898628207e-17
10
-3.1463782175663693
20
0.95757899368919752
30
4.3709567898628207e-17
10
-3.1466005178293095
20
0.95989944228488622
30
0
0
SPLINE
5
233
100
AcDbEntity
8
0
100
AcDbSpline
70
0
71
3
72
14
73
10
74
0
42
0.000000001
43
0.0000000001
44
0.0000000001
40
2.3119173596461199e-14
40
2.3119173596461199e-14
40
2.3119173596461199e-14
40
2.3119173596461199e-14
40
0.094842956809054357
40
0.094842956809054357
40
0.24659168770350434
40
0.24659168770350434
40
0.39596701521941441
40
0.39596701521941441
40
0.58577585909866348
40
0.58577585909866348
40
0.58577585909866348
40
0.58577585909866348
10
-3.2435699204909167
20
1.0891752732566911
30
0
10
-3.2435699204909243
20
1.0826806978484402
30
8.7419135797256413e-17
10
-3.2427622825885409
20
1.0764015325103453
30
8.7419135797256413e-17
10
-3.2390341656107058
20
1.0611128213787782
30
8.7419135797256413e-17
10
-3.2351319496073314
20
1.0525830707644939
30
8.7419135797256413e-17
10
-3.2251137382826092
20
1.0377485923524423
30
8.7419135797256413e-17
10
-3.2189789218774179
20
1.0313331483386885
30
0
10
-3.2029213549477826
20
1.0193561428374642
30
0
10
-3.1924574024535386
20
1.0145042963715389
30
0
10
-3.1809150029068989
20
1.0120955907358276
30
0
0
SPLINE
5
234
100
AcDbEntity
8
0
100
AcDbSpline
70
0
71
3
72
8
73
4
74
0
42
0.000000001
43
0.0000000001
44
0.0000000001
40
-0.044872743903831364
40
-0.044872743903831364
40
-0.044872743903831364
40
-0.044872743903831364
40
-0.0079579702280747205
40
-0.0079579702280747205
40
-0.0079579702280747205
40
-0.0079579702280747205
10
-3.1466005178293095
20
0.95989944228488622
30
0
10
-3.1470917136079835
20
0.96502681026079296
30
0
10
-3.1476993995143632
20
0.97014788901580284
30
0
10
-3.1484165333671594
20
0.97525847233833529
30
0
0
SPLINE
5
235
100
AcDbEntity
8
0
100
AcDbSpline
70
0
71
3
72
10
73
6
74
0
42
0.000000001
43
0.0000000001
44
0.0000000001
40
0
40
0
40
0
40
0
40
0.0016924303125052556
40
0.0016924303125052556
40
0.0033848606250105112
40
0.0033848606250105112
40
0.0033848606250105112
40
0.0033848606250105112
10
-3.1484165333671594
20
0.97525847233833518
30
0
10
-3.1484494117773387
20
0.97549277706970394
30
0
10
-3.1484832144591102
20
0.97572736189098019
30
0
10
-3.1485527173686725
20
0.97619704847169708
30
0
10
-3.1485884175913781
20
0.97643215024256091
30
0
10
-3.1486250937872327
20
0.97666748945953763
30
0
0
LINE
5
236
100
AcDbEntity
8
0
100
AcDbLine
10
-3.2435699204909145
20
1.2546006719338023
30
-4.3709567898628207e-17
11
-3.2435699204909167
21
1.0891752732566911
31
0
0
LINE
5
237
100
AcDbEntity
8
0
100
AcDbLine
10
-2.8892392118294969
20
1.0891752733057558
30
0
11
-2.8892392118294969
21
1.2934679139285323
31
4.0762624110012264e-17
0
SPLINE
5
238
100
AcDbEntity
8
0
100
AcDbSpline
70
0
71
3
72
16
73
12
74
0
42
0.000000001
43
0.0000000001
44
0.0000000001
40
-0.4967435749336353
40
-0.4967435749336353
40
-0.4967435749336353
40
-0.4967435749336353
40
-0.3765010581318684
40
-0.3765010581318684
40
-0.29705663279829553
40
-0.29705663279829553
40
-0.17014326762606613
40
-0.17014326762606613
40
-0.065439718317717777
40
-0.065439718317717777
40
0
40
0
40
0
40
0
10
-2.9548560097296033
20
1.0115364309587327
30
0
10
-2.9464140840617468
20
1.0129633768380086
30
0
10
-2.9380720704557461
20
1.0157999860511713
30
0
10
-2.9251633036723117
20
1.0228351936615769
30
0
10
-2.920320793411102
20
1.0262145285083184
30
0
10
-2.9087388069542781
20
1.0364413499735123
30
0
10
-2.9027457299717767
20
1.0440624985881357
30
0
10
-2.8946519959728487
20
1.0594303876350439
30
0
10
-2.8920374456127131
20
1.0669362912042575
30
0
10
-2.8896835572306103
20
1.0794853961817752
30
0
10
-2.8892392118264332
20
1.0843723465750146
30
0
10
-2.8892392118294965
20
1.089175273306819
30
0
0
SPLINE
5
239
100
AcDbEntity
8
0
100
AcDbSpline
70
0
71
3
72
10
73
6
74
0
42
0.000000001
43
0.0000000001
44
0.0000000001
40
5.7230922744354249e-13
40
5.7230922744354249e-13
40
5.7230922744354249e-13
40
5.7230922744354249e-13
40
0.0036102962263018915
40
0.0036102962263018915
40
0.0072205924520314744
40
0.0072205924520314744
40
0.0072205924520314744
40
0.0072205924520314744
10
-2.9548560097299181
20
1.0115364309586792
30
0
10
-2.9551879645293364
20
1.0114803203564433
30
0
10
-2.9555137192688949
20
1.0113790020730853
30
0
10
-2.9561507738136141
20
1.0110852438293199
30
0
10
-2.9564620732523514
20
1.010892801462036
30
0
10
-2.9567651472384022
20
1.0106545780884073
30
0
0
ELLIPSE
5
240
100
AcDbEntity
8
0
100
AcDbEllipse
10
-2.9482943299397335
20
0.97253292870755215
30
4.3709567898628207e-17
11
-0.039370078740157334
21
3.0844236725581749e-12
31
0.0
40
0.99151201336559658
41
4.9292433742440291
42
6.2831853072604709
0
LINE
5
241
100
AcDbEntity
8
0
100
AcDbLine
10
-2.9876644086798909
20
-1.7339109205071705
30
0
11
-2.9876644086798909
21
0.97253292870747921
31
4.3709567898595235e-17
0
SPLINE
5
242
100
AcDbEntity
8
0
100
AcDbSpline
70
0
71
3
72
25
73
21
74
0
42
0.000000001
43
0.0000000001
44
0.0000000001
40
4.9056047012250858e-14
40
4.9056047012250858e-14
40
4.9056047012250858e-14
40
4.9056047012250858e-14
40
0.20692086693033709
40
0.20692086693033709
40
0.44875945168761361
40
0.44875945168761361
40
0.66473959022228191
40
0.66473959022228191
40
0.79982264925730584
40
0.79982264925730584
40
0.79982264925730584
40
0.93514138087662624
40
0.93514138087662624
40
1.1183963378893664
40
1.1183963378893664
40
1.3016765732268203
40
1.3016765732268203
40
1.3999516095197957
40
1.3999516095197957
40
1.5064469356875991
40
1.5064469356875991
40
1.5064469356875991
40
1.5064469356875991
10
-3.145144723640521
20
-1.4513291424447881
30
0
10
-3.1451447236405676
20
-1.4717508781958677
30
0
10
-3.1432121574636076
20
-1.4935907432181901
30
0
10
-3.1360146217522291
20
-1.541470154856365
30
0
10
-3.1302325146162007
20
-1.5673569049652483
30
0
10
-3.1158053509214585
20
-1.6157120743396975
30
0
10
-3.1076149171750771
20
-1.6381899692687152
30
0
10
-3.092396257166083
20
-1.6743863586479002
30
0
10
-3.0861291256223047
20
-1.6881819796323558
30
0
10
-3.0794737844157813
20
-1.7014842351010717
30
0
10
-3.0728068319719006
20
-1.7148096983424399
30
0
10
-3.0656853138982667
20
-1.7275964896520313
30
0
10
-3.0475351931264369
20
-1.7545960945839265
30
0
10
-3.0358330918899892
20
-1.7679087991396298
30
0
10
-3.0136357854369775
20
-1.7829212171336144
30
0
10
-3.0034078353403619
20
-1.7834600148597834
30
0
10
-2.9937892740276957
20
-1.7723874723635327
30
0
10
-2.9914470520290473
20
-1.7665885439274955
30
0
10
-2.9883303134262897
20
-1.7522073193772758
30
0
10
-2.9876644086798909
20
-1.743331513799224
30
0
10
-2.9876644086798891
20
-1.7339109205071759
30
0
0
LINE
5
243
100
AcDbEntity
8
0
100
AcDbLine
10
-3.145144723640521
20
-1.0644312293731171
30
4.3709567898628207e-17
11
-3.145144723640521
21
-1.4513291424447881
31
0
0
SPLINE
5
244
100
AcDbEntity
8
0
100
AcDbSpline
70
0
71
3
72
16
73
12
74
0
42
0.000000001
43
0.0000000001
44
0.0000000001
40
0
40
0
40
0
40
0
40
0.0027706343520955828
40
0.0027706343520955828
40
0.016075335442998426
40
0.016075335442998426
40
0.025604104943964728
40
0.025604104943964728
40
0.034345159544164422
40
0.034345159544164422
40
0.03980831866928923
40
0.03980831866928923
40
0.03980831866928923
40
0.03980831866928923
10
-3.1486250937872331
20
0.97666748945953918
30
0
10
-3.148722267423631
20
0.97787224791327132
30
0
10
-3.1488709489839133
20
0.97907169668152383
30
0
10
-3.150028588230291
20
0.98597128476150331
30
0
10
-3.1521785486200256
20
0.99143714782058867
30
0
10
-3.1575231666971844
20
0.9994742738850011
30
0
10
-3.1602433876672005
20
1.0024265183801395
30
0
10
-3.1660926138450312
20
1.0070191126758146
30
0
10
-3.1691668721059179
20
1.008745560781535
30
0
10
-3.1743605904812706
20
1.0107084164617248
30
0
10
-3.176405214356921
20
1.0112626596384224
30
0
10
-3.1784603443839887
20
1.0116238731954279
30
0
0
SPLINE
5
245
100
AcDbEntity
8
0
100
AcDbSpline
70
0
71
3
72
15
73
11
74
0
42
0.000000001
43
0.0000000001
44
0.0000000001
40
0.061434185264820099
40
0.061434185264820099
40
0.061434185264820099
40
0.061434185264820099
40
0.14698786700022906
40
0.14698786700022906
40
0.34415618285027416
40
0.34415618285027416
40
0.34415618285027416
40
0.46635866569532974
40
0.46635866569532974
40
0.58955867705205545
40
0.58955867705205545
40
0.58955867705205545
40
0.58955867705205545
10
-3.1784603443839901
20
1.0116238731954279
30
0
10
-3.1850643773233474
20
1.0127846105683374
30
0
10
-3.1913074426973194
20
1.0147551258907639
30
0
10
-3.2102390518070756
20
1.0232408842337224
30
0
10
-3.2211179565870758
20
1.0325336959847242
30
0
10
-3.2288540615152357
20
1.0433396800891295
30
8.7419135797256413e-17
10
-3.2336488036404867
20
1.0500370953480134
30
8.7419135797256413e-17
10
-3.2373395837899435
20
1.0574315306882556
30
8.7419135797256413e-17
10
-3.2422965577946266
20
1.0728870604494263
30
8.7419135797256413e-17
10
-3.2435699204909145
20
1.0810396854291198
30
8.7419135797256413e-17
10
-3.2435699204909145
20
1.0891752732566011
30
8.7419135797256413e-17
0
SPLINE
5
246
100
AcDbEntity
8
0
100
AcDbSpline
70
0
71
3
72
10
73
6
74
0
42
0.000000001
43
0.0000000001
44
0.0000000001
40
-0.36608365481883998
40
-0.36608365481883998
40
-0.36608365481883998
40
-0.36608365481883998
40
0
40
0
40
0.0032439881739513947
40
0.0032439881739513947
40
0.0032439881739513947
40
0.0032439881739513947
10
-3.1496933970437411
20
-1.0644312293732372
30
4.3709567898628207e-17
10
-3.1467899495503362
20
-1.0307307737604272
30
4.3709567898628207e-17
10
-3.1451730984502766
20
-0.98998339059195994
30
4.3709567898628207e-17
10
-3.1451448473201831
20
-0.94182129287045513
30
0
10
-3.145144723640521
20
-0.94139825403844102
30
0
10
-3.145144723640521
20
-0.94097521103260218
30
0
0
LINE
5
247
100
AcDbEntity
8
0
100
AcDbLine
10
-3.145144723640521
20
-0.9409752110326024
30
-3.0549109970803748e-33
11
-3.145144723640521
21
0.93054877978626216
31
-3.8821894941978924e-31
0
LINE
5
248
100
AcDbEntity
8
0
100
AcDbLine
10
-3.145144723640521
20
0.93054877978626216
30
-3.8821894941978924e-31
11
-3.1572320285168844
21
0.93054877978626227
31
4.3122803796730338e-17
0
LINE
5
249
100
AcDbEntity
8
0
100
AcDbLine
10
-3.1572320285168844
20
0.93054877978626227
30
4.3122803796730338e-17
11
-3.1572320285168853
21
-1.0644312293732372
31
4.3709567898628207e-17
0
LINE
5
250
100
AcDbEntity
8
0
100
AcDbLine
10
-3.1496933970011476
20
-1.0644312293732372
30
4.3709567898628207e-17
11
-3.1572320285168853
21
-1.0644312293732372
31
4.3709567898628207e-17
0
LINE
5
251
100
AcDbEntity
8
0
100
AcDbLine
10
-1.7126587414742971
20
2.1282207732341369
30
0
11
-1.7221441404448741
21
2.2459495084962859
31
1.6362130427205042e-17
0
LINE
5
252
100
AcDbEntity
8
0
100
AcDbLine
10
-1.7211496253915834
20
2.2336060108968652
30
0
11
-1.7258084091085211
21
2.233229405422672
31
-1.8301638158977043e-24
0
SPLINE
5
253
100
AcDbEntity
8
0
100
AcDbSpline
70
0
71
3
72
10
73
6
74
0
42
0.000000001
43
0.0000000001
44
0.0000000001
40
-2.4708333979537569
40
-2.4708333979537569
40
-2.4708333979537569
40
-2.4708333979537569
40
-2.1702546461276402
40
-2.1702546461276402
40
-2.1389158714813874
40
-2.1389158714813874
40
-2.1389158714813874
40
-2.1389158714813874
10
-1.7258084091085211
20
2.233229405422672
30
0
10
-1.7655933796997305
20
2.2300030947410745
30
0
10
-1.8052728552031139
20
2.2265435528594701
30
0
10
-1.8491543847919181
20
2.2224330706943372
30
0
10
-1.8532919417512994
20
2.2220426547461036
30
0
10
-1.8574414456343828
20
2.2216481992255921
30
0
0
SPLINE
5
254
100
AcDbEntity
8
0
100
AcDbSpline
70
0
71
3
72
8
73
4
74
0
42
0.000000001
43
0.0000000001
44
0.0000000001
40
-2.1389158714813874
40
-2.1389158714813874
40
-2.1389158714813874
40
-2.1389158714813874
40
-1.9421212436492103
40
-1.9421212436492103
40
-1.9421212436492103
40
-1.9421212436492103
10
-1.8574414456343828
20
2.2216481992255921
30
0
10
-1.8834986184608813
20
2.2191711117275528
30
0
10
-1.909603069817893
20
2.2165738878296501
30
0
10
-1.9359489310280265
20
2.2137061466994741
30
0
0
SPLINE
5
255
100
AcDbEntity
8
0
100
AcDbSpline
70
0
71
3
72
10
73
6
74
0
42
0.000000001
43
0.0000000001
44
0.0000000001
40
-1.9421212436492103
40
-1.9421212436492103
40
-1.9421212436492103
40
-1.9421212436492103
40
-1.7506506586646755
40
-1.7506506586646755
40
-1.4808474282563113
40
-1.4808474282563113
40
-1.4808474282563113
40
-1.4808474282563113
10
-1.9359489310280265
20
2.2137061466994741
30
0
10
-1.9615819936713699
20
2.2109155969451799
30
0
10
-1.9874457093895301
20
2.2078475465738534
30
0
10
-2.0499689216477646
20
2.1994720214662826
30
0
10
-2.0868050813973014
20
2.1937212240349631
30
0
10
-2.1233203892888168
20
2.1870486755754728
30
0
0
SPLINE
5
256
100
AcDbEntity
8
0
100
AcDbSpline
70
0
71
3
72
8
73
4
74
0
42
0.000000001
43
0.0000000001
44
0.0000000001
40
-1.4808474282563113
40
-1.4808474282563113
40
-1.4808474282563113
40
-1.4808474282563113
40
-1.3669789297238186
40
-1.3669789297238186
40
-1.3669789297238186
40
-1.3669789297238186
10
-2.1233203892888168
20
2.1870486755754728
30
0
10
-2.1387314184029242
20
2.1842326185180334
30
0
10
-2.1541421286838367
20
2.1812490921811341
30
0
10
-2.1694123606459841
20
2.1781434391873113
30
0
0
SPLINE
5
257
100
AcDbEntity
8
0
100
AcDbSpline
70
0
71
3
72
10
73
6
74
0
42
0.000000001
43
0.0000000001
44
0.0000000001
40
-1.3669789297238186
40
-1.3669789297238186
40
-1.3669789297238186
40
-1.3669789297238186
40
-1.2412819942537681
40
-1.2412819942537681
40
-0.88149203921962416
40
-0.88149203921962416
40
-0.88149203921962416
40
-0.88149203921962416
10
-2.1694123606459841
20
2.1781434391873113
30
0
10
-2.1862688839203948
20
2.1747154202117294
30
0
10
-2.2029695723639637
20
2.1711503808813855
30
0
10
-2.267190078236895
20
2.1569561544176215
30
0
10
-2.3141258986363802
20
2.145597299178331
30
0
10
-2.3609287696454682
20
2.1335655771981634
30
0
0
LINE
5
258
100
AcDbEntity
8
0
100
AcDbLine
10
-2.3609287696454682
20
2.133565577198163
30
0
11
-2.3626129434435654
21
2.1331323052793638
31
2.0633019744646396e-23
0
SPLINE
5
259
100
AcDbEntity
8
0
100
AcDbSpline
70
0
71
3
72
8
73
4
74
0
42
0.000000001
43
0.0000000001
44
0.0000000001
40
-0.87717352355403755
40
-0.87717352355403755
40
-0.87717352355403755
40
-0.87717352355403755
40
-0.63423621037488886
40
-0.63423621037488886
40
-0.63423621037488886
40
-0.63423621037488886
10
-2.3626129434435654
20
2.1331323052793638
30
0
10
-2.3941936238590968
20
2.125001873473225
30
0
10
-2.4257984923680636
20
2.1165817901436834
30
0
10
-2.4579950106518935
20
2.1072561212091618
30
0
0
SPLINE
5
260
100
AcDbEntity
8
0
100
AcDbSpline
70
0
71
3
72
8
73
4
74
0
42
0.000000001
43
0.0000000001
44
0.0000000001
40
-0.63423621037488886
40
-0.63423621037488886
40
-0.63423621037488886
40
-0.63423621037488886
40
-0.57285777448223885
40
-0.57285777448223885
40
-0.57285777448223885
40
-0.57285777448223885
10
-2.4579950106518935
20
2.1072561212091618
30
0
10
-2.4661252200514383
20
2.1049012461059227
30
0
10
-2.4743212853282999
20
2.102476948443027
30
0
10
-2.482548159914626
20
2.0999713277778675
30
0
0
SPLINE
5
261
100
AcDbEntity
8
0
100
AcDbSpline
70
0
71
3
72
8
73
4
74
0
42
0.000000001
43
0.0000000001
44
0.0000000001
40
-0.57285777448223885
40
-0.57285777448223885
40
-0.57285777448223885
40
-0.57285777448223885
40
-0.52120441649246241
40
-0.52120441649246241
40
-0.52120441649246241
40
-0.52120441649246241
10
-2.482548159914626
20
2.0999713277778675
30
0
10
-2.4894715786951145
20
2.097862864988099
30
0
10
-2.4964136234179337
20
2.0957006620699659
30
0
10
-2.5033972445017474
20
2.0934646928270344
30
0
0
SPLINE
5
262
100
AcDbEntity
8
0
100
AcDbSpline
70
0
71
3
72
8
73
4
74
0
42
0.000000001
43
0.0000000001
44
0.0000000001
40
-0.52120441649246241
40
-0.52120441649246241
40
-0.52120441649246241
40
-0.52120441649246241
40
-0.28313062585443793
40
-0.28313062585443793
40
-0.28313062585443793
40
-0.28313062585443793
10
-2.5033972445017474
20
2.0934646928270344
30
0
10
-2.535557797066609
20
2.0831678788110457
30
0
10
-2.5679421660592836
20
2.0711781498666459
30
0
10
-2.5980361502101119
20
2.0593518585158885
30
0
0
SPLINE
5
263
100
AcDbEntity
8
0
100
AcDbSpline
70
0
71
3
72
8
73
4
74
0
42
0.000000001
43
0.0000000001
44
0.0000000001
40
-0.28313062585443793
40
-0.28313062585443793
40
-0.28313062585443793
40
-0.28313062585443793
40
-0.2642706489947339
40
-0.2642706489947339
40
-0.2642706489947339
40
-0.2642706489947339
10
-2.5980361502101119
20
2.0593518585158885
30
0
10
-2.6004750146534175
20
2.0583932795113249
30
0
10
-2.6028986021291072
20
2.0574349157071929
30
0
10
-2.6053271107163685
20
2.0564693369732985
30
0
0
SPLINE
5
264
100
AcDbEntity
8
0
100
AcDbSpline
70
0
71
3
72
8
73
4
74
0
42
0.000000001
43
0.0000000001
44
0.0000000001
40
-0.2642706489947339
40
-0.2642706489947339
40
-0.2642706489947339
40
-0.2642706489947339
40
0
40
0
40
0
40
0
10
-2.6053271107163685
20
2.0564693369732985
30
0
10
-2.6393557557278693
20
2.0429388644879638
30
0
10
-2.6724653991670877
20
2.0288109794707241
30
0
10
-2.705852958942109
20
2.0135813873793063
30
0
0
SPLINE
5
265
100
AcDbEntity
8
0
100
AcDbSpline
70
0
71
3
72
26
73
22
74
0
42
0.000000001
43
0.0000000001
44
0.0000000001
40
0
40
0
40
0
40
0
40
0.28313062585443793
40
0.28313062585443793
40
0.28313062585443793
40
0.52120441649246241
40
0.52120441649246241
40
0.52120441649246241
40
0.63423621037488886
40
0.63423621037488886
40
0.63423621037488886
40
0.88149203921962416
40
0.88149203921962416
40
0.88149203921962416
40
1.2412819942537681
40
1.2412819942537681
40
1.7506506586646755
40
1.7506506586646755
40
2.1702546461276402
40
2.1702546461276402
40
2.4825639885075361
40
2.4825639885075361
40
2.4825639885075361
40
2.4825639885075361
10
-2.6619693771012973
20
1.9173972098845771
30
0
10
-2.6281652530460309
20
1.9328201836332224
30
0
10
-2.5939523374564097
20
1.9473663364600753
30
0
10
-2.5593507276350449
20
1.9609726445836497
30
0
10
-2.5302555480249618
20
1.9724136723488115
30
0
10
-2.5009260416140027
20
1.98326483108484
30
0
10
-2.4711697886936643
20
1.9927902728639537
30
0
10
-2.457042224975746
20
1.9973127268851645
30
0
10
-2.4428367638433914
20
2.0015931327309109
30
0
10
-2.4285856458224493
20
2.0057209263464344
30
0
10
-2.3974114790044179
20
2.0147504303173971
30
0
10
-2.3660407512273807
20
2.0231072350072354
30
0
10
-2.3346007125301624
20
2.0311929420237385
30
0
10
-2.2888512951676017
20
2.0429587158680986
30
0
10
-2.242918893048143
20
2.0540762243483801
30
0
10
-2.1314686013420703
20
2.0787128406335311
30
0
10
-2.065664194815628
20
2.09072806014977
30
0
10
-1.9447798779630885
20
2.1068999783458606
30
0
10
-1.8899786177854236
20
2.1124230184468029
30
0
10
-1.7943445063815446
20
2.1213805237936256
30
0
10
-1.7535118346842271
20
2.1249292413289029
30
0
10
-1.7126587414742951
20
2.1282207732341387
30
0
0
SPLINE
5
266
100
AcDbEntity
8
0
100
AcDbSpline
70
0
71
3
72
14
73
10
74
0
42
0.000000001
43
0.0000000001
44
0.0000000001
40
0.047021412209670731
40
0.047021412209670731
40
0.047021412209670731
40
0.047021412209670731
40
0.25249731972675199
40
0.25249731972675199
40
0.34608018953960423
40
0.34608018953960423
40
0.44035253120793827
40
0.44035253120793827
40
0.53961636196075791
40
0.53961636196075791
40
0.53961636196075791
40
0.53961636196075791
10
-2.6761455772005363
20
1.782704483288702
30
4.3709567898628207e-17
10
-2.6420506093510689
20
1.8002420644141421
30
4.3709567898628207e-17
10
-2.5850481487708574
20
1.8277924707510091
30
4.3709567898628207e-17
10
-2.4632619743668238
20
1.873976044095214
30
0
10
-2.4029787681990333
20
1.8956738570883584
30
0
10
-2.124771028071621
20
1.9635516234937347
30
0
10
-2.0311783809964701
20
1.9794614882693518
30
0
10
-1.8584411486713648
20
2.0008249234042377
30
0
10
-1.7381424249795447
20
2.0110665125203733
30
4.3709567898628207e-17
10
-1.6453727276750787
20
2.0179172616583143
30
4.3709567898628207e-17
0
ARC
5
267
100
AcDbEntity
8
0
100
AcDbCircle
10
-2.1364999999999701
20
1.7940000000000194
30
-4.3709567898628207e-17
40
0.53976377952752397
100
AcDbArc
50
24.509434043766099
51
38.257608096345145
0
SPLINE
5
268
100
AcDbEntity
8
0
100
AcDbSpline
70
0
71
3
72
26
73
22
74
0
42
0.000000001
43
0.0000000001
44
0.0000000001
40
0
40
0
40
0
40
0
40
0.28313062585443793
40
0.28313062585443793
40
0.28313062585443793
40
0.52120441649246241
40
0.52120441649246241
40
0.52120441649246241
40
0.63423621037488886
40
0.63423621037488886
40
0.63423621037488886
40
0.88149203921962416
40
0.88149203921962416
40
0.88149203921962416
40
1.2412819942537681
40
1.2412819942537681
40
1.7506506586646755
40
1.7506506586646755
40
2.1702546461276402
40
2.1702546461276402
40
2.4825639885075361
40
2.4825639885075361
40
2.4825639885075361
40
2.4825639885075361
10
-2.6619693771012973
20
1.9173972098845771
30
0
10
-2.6281652530460309
20
1.9328201836332224
30
0
10
-2.5939523374564097
20
1.9473663364600753
30
0
10
-2.5593507276350449
20
1.9609726445836497
30
0
10
-2.5302555480249618
20
1.9724136723488115
30
0
10
-2.5009260416140027
20
1.98326483108484
30
0
10
-2.4711697886936643
20
1.9927902728639537
30
0
10
-2.457042224975746
20
1.9973127268851645
30
0
10
-2.4428367638433914
20
2.0015931327309109
30
0
10
-2.4285856458224493
20
2.0057209263464344
30
0
10
-2.3974114790044179
20
2.0147504303173971
30
0
10
-2.3660407512273807
20
2.0231072350072354
30
0
10
-2.3346007125301624
20
2.0311929420237385
30
0
10
-2.2888512951676017
20
2.0429587158680986
30
0
10
-2.242918893048143
20
2.0540762243483801
30
0
10
-2.1314686013420703
20
2.0787128406335311
30
0
10
-2.065664194815628
20
2.09072806014977
30
0
10
-1.9447798779630885
20
2.1068999783458606
30
0
10
-1.8899786177854236
20
2.1124230184468029
30
0
10
-1.7943445063815446
20
2.1213805237936256
30
0
10
-1.7535118346842271
20
2.1249292413289029
30
0
10
-1.7126587414742951
20
2.1282207732341387
30
0
0
ARC
5
269
100
AcDbEntity
8
0
100
AcDbCircle
10
-2.1364999999999701
20
1.7940000000000194
30
-4.3709567898628207e-17
40
0.53976377951706822
100
AcDbArc
50
166.7845519511018
51
181.19910358165461
0
SPLINE
5
270
100
AcDbEntity
8
0
100
AcDbSpline
70
0
71
3
72
8
73
4
74
0
42
0.000000001
43
0.0000000001
44
0.0000000001
40
0
40
0
40
0
40
0
40
0.43605462877089651
40
0.43605462877089651
40
0.43605462877089651
40
0.43605462877089651
10
-1.6036606956127262
20
2.0208883017965835
30
0
10
-1.546569580130821
20
2.0248007297039541
30
0
10
-1.4948083549322262
20
2.0276959508922303
30
0
10
-1.4439606299212595
20
2.0298660786550986
30
0
0
LINE
5
271
100
AcDbEntity
8
0
100
AcDbLine
10
-1.4439606299212595
20
2.0298660786550986
30
0
11
-1.4439606299212595
21
2.2571805684105084
31
0
0
ARC
5
272
100
AcDbEntity
8
0
100
AcDbCircle
10
-1.4833307086614171
20
2.2571805684105084
30
0
40
0.039370078740157514
100
AcDbArc
50
0
51
45
0
LINE
5
273
100
AcDbEntity
8
0
100
AcDbLine
10
-1.4554918590084034
20
2.2850194180635222
30
-3.4314031464981289e-34
11
-1.4851020305073832
21
2.3146295895625015
31
-7.1456550377579954e-31
0
SPLINE
5
274
100
AcDbEntity
8
0
100
AcDbSpline
70
0
71
3
72
12
73
8
74
0
42
0.000000001
43
0.0000000001
44
0.0000000001
40
-0.25198493612466222
40
-0.25198493612466222
40
-0.25198493612466222
40
-0.25198493612466222
40
-0.17981923496914864
40
-0.17981923496914864
40
-0.10849991456471182
40
-0.10849991456471182
40
0
40
0
40
0
40
0
10
-1.485102030507351
20
2.3146295895624696
30
0
10
-1.4918081844574569
20
2.3213357435125759
30
0
10
-1.499270492268298
20
2.3272609975376524
30
0
10
-1.515301921266933
20
2.3371856882264801
30
0
10
-1.5238222093726388
20
2.341185179881196
30
0
10
-1.5462565405918725
20
2.348588353545626
30
0
10
-1.5605025674160116
20
2.3505394455802646
30
0
10
-1.5747150410321007
20
2.3496734285678587
30
0
0
SPLINE
5
275
100
AcDbEntity
8
0
100
AcDbSpline
70
0
71
3
72
8
73
4
74
0
42
0.000000001
43
0.0000000001
44
0.0000000001
40
-305.56908317707115
40
-305.56908317707115
40
-305.56908317707115
40
-305.56908317707115
40
-305.52192573800431
40
-305.52192573800431
40
-305.52192573800431
40
-305.52192573800431
10
-1.5747150410321049
20
2.3496734285678627
30
0
10
-1.5854100742368458
20
2.34902174182045
30
0
10
-1.5962085999894198
20
2.3483388996881263
30
0
10
-1.6071142579934092
20
2.347624907710939
30
0
0
SPLINE
5
276
100
AcDbEntity
8
0
100
AcDbSpline
70
0
71
3
72
20
73
16
74
0
42
0.000000001
43
0.0000000001
44
0.0000000001
40
-0.80549267022097837
40
-0.80549267022097837
40
-0.80549267022097837
40
-0.80549267022097837
40
-0.65896315519902671
40
-0.65896315519902671
40
-0.52147228862442274
40
-0.52147228862442274
40
-0.37693361862683272
40
-0.37693361862683272
40
-0.27126654908239556
40
-0.27126654908239556
40
-0.20640667650997541
40
-0.20640667650997541
40
-0.13121361424722119
40
-0.13121361424722119
40
0
40
0
40
0
40
0
10
-1.607114258007355
20
2.3476249077190867
30
0
10
-1.620353002392543
20
2.3467581683874754
30
0
10
-1.6334082948261373
20
2.3439152912760286
30
0
10
-1.6574231255927614
20
2.3347658607051143
30
0
10
-1.6684223688354158
20
2.3286973537494453
30
0
10
-1.6886452585858021
20
2.3132168141212452
30
0
10
-1.6978145133245495
20
2.3035924680116002
30
0
10
-1.7099356283654839
20
2.2845879961123816
30
0
10
-1.7153323456049483
20
2.2736671227043153
30
0
10
-1.7191414580107833
20
2.2513571557089325
30
0
10
-1.7192482858332698
20
2.242859310493392
30
0
10
-1.7170637894427117
20
2.2243854874499833
30
0
10
-1.7144072496220133
20
2.2146261326560879
30
0
10
-1.7049143523823045
20
2.1890361259318869
30
0
10
-1.6956317644815679
20
2.1719933218462892
30
0
10
-1.6857021241079124
20
2.1579249867828083
30
0
0
SPLINE
5
277
100
AcDbEntity
8
0
100
AcDbSpline
70
0
71
3
72
8
73
4
74
0
42
0.000000001
43
0.0000000001
44
0.0000000001
40
-0.017950596631212814
40
-0.017950596631212814
40
-0.017950596631212814
40
-0.017950596631212814
40
0
40
0
40
0
40
0
10
-1.6857021240634336
20
2.1579249867197894
30
0
10
-1.6843437062248101
20
2.1560003775129775
30
0
10
-1.6829349707434011
20
2.1541115652829785
30
0
10
-1.6814776870142201
20
2.1522606878756343
30
0
0
ARC
5
278
100
AcDbEntity
8
0
100
AcDbCircle
10
-2.1364999999999936
20
1.7940000000000047
30
-8.1460817469669783e-46
40
0.57913385826770858
100
AcDbArc
50
23.064789658016252
51
38.215039158659152
0
SPLINE
5
279
100
AcDbEntity
8
0
100
AcDbSpline
70
0
71
3
72
20
73
16
74
0
42
0.000000001
43
0.0000000001
44
0.0000000001
40
0.16384784771310112
40
0.16384784771310112
40
0.16384784771310112
40
0.16384784771310112
40
0.16541795152876509
40
0.16541795152876509
40
0.18285063744987909
40
0.18285063744987909
40
0.20668708316690459
40
0.20668708316690459
40
0.24886592387429063
40
0.24886592387429063
40
0.28463818020088749
40
0.28463818020088749
40
0.30621709384949503
40
0.30621709384949503
40
0.32596417366927166
40
0.32596417366927166
40
0.32596417366927166
40
0.32596417366927166
10
-1.6453727276750787
20
2.0179172616583143
30
4.3709567898628207e-17
10
-1.6451667342791678
20
2.0179324736199837
30
4.3709567898628207e-17
10
-1.6449607395001322
20
2.0179476779103083
30
4.3709567898628207e-17
10
-1.6424677943728005
20
2.0181315857880819
30
4.3709567898628207e-17
10
-1.6401853057618423
20
2.0182990023775815
30
4.3709567898628207e-17
10
-1.634846952873013
20
2.0186883362521346
30
4.3709567898628207e-17
10
-1.6318251859694224
20
2.0189069298164539
30
4.3709567898628207e-17
10
-1.6237908788842992
20
2.0194838381952676
30
4.3709567898628207e-17
10
-1.6190987731604254
20
2.0198156278836037
30
0
10
-1.6118311208416547
20
2.0203246857754795
30
0
10
-1.609100375399005
20
2.0205138129917897
30
0
10
-1.605947441403736
20
2.0207313371559636
30
0
10
-1.6050510452691533
20
2.0207929157243973
30
0
10
-1.6039309943819617
20
2.0208697925533712
30
0
10
-1.603662659517578
20
2.0208881673143115
30
0
10
-1.6036606956127257
20
2.0208883017965835
30
0
0
SPLINE
5
280
100
AcDbEntity
8
0
100
AcDbSpline
70
0
71
3
72
16
73
12
74
0
42
0.000000001
43
0.0000000001
44
0.0000000001
40
0.00099579151311358308
40
0.00099579151311358308
40
0.00099579151311358308
40
0.00099579151311358308
40
0.035121823550837421
40
0.035121823550837421
40
0.072020194256028985
40
0.072020194256028985
40
0.11598964315005483
40
0.11598964315005483
40
0.15923912173317664
40
0.15923912173317664
40
0.16740208925339375
40
0.16740208925339375
40
0.16740208925339375
40
0.16740208925339375
10
-2.7147258937590517
20
1.761583313269286
30
0
10
-2.7147241954620838
20
1.7615843086562253
30
0
10
-2.7139870347163479
20
1.7620163651177299
30
0
10
-2.7110269362651054
20
1.7637342430342451
30
0
10
-2.7087331456703971
20
1.765059953632568
30
0
10
-2.7024227729391388
20
1.7686399145597451
30
0
10
-2.6982259286059604
20
1.77098002066876
30
0
10
-2.6890179535426855
20
1.7759765435955666
30
4.3709567898628207e-17
10
-2.6840646808634627
20
1.7786042269233497
30
4.3709567898628207e-17
10
-2.6780591064022969
20
1.7817182650538066
30
4.3709567898628207e-17
10
-2.6771027721292953
20
1.7822121266514972
30
4.3709567898628207e-17
10
-2.6761455772005363
20
1.782704483288702
30
4.3709567898628207e-17
0
SPLINE
5
281
100
AcDbEntity
8
0
100
AcDbSpline
70
0
71
3
72
10
73
6
74
0
42
0.000000001
43
0.0000000001
44
0.0000000001
40
0
40
0
40
0
40
0
40
0.57451978445308072
40
0.57451978445308072
40
1.1490395689061614
40
1.1490395689061614
40
1.1490395689061614
40
1.1490395689061614
10
-1.4045905511811021
20
2.2279632654627846
30
0
10
-1.3292155374406007
20
2.2297546143724274
30
0
10
-1.25382108750743
20
2.2306718901912963
30
0
10
-1.1030374086734134
20
2.2323137470876588
30
0
10
-1.0276438365208578
20
2.2330024981823824
30
0
10
-0.95224898973132344
20
2.2334701571174045
30
0
0
SPLINE
5
282
100
AcDbEntity
8
0
100
AcDbSpline
70
0
71
3
72
16
73
12
74
0
42
0.000000001
43
0.0000000001
44
0.0000000001
40
0.47272281152886947
40
0.47272281152886947
40
0.47272281152886947
40
0.47272281152886947
40
0.50581977738344586
40
0.50581977738344586
40
0.54554018404523963
40
0.54554018404523963
40
0.58207275113060897
40
0.58207275113060897
40
0.61694980984941084
40
0.61694980984941084
40
0.6303030620697333
40
0.6303030620697333
40
0.6303030620697333
40
0.6303030620697333
10
-1.4439606299212595
20
2.0298660786550986
30
0
10
-1.4439586632218717
20
2.0298661629241184
30
0
10
-1.4432455560490947
20
2.0298967180983376
30
0
10
-1.4401513775442669
20
2.0300276899451517
30
0
10
-1.437501283921335
20
2.0301392885502407
30
0
10
-1.4308634522226926
20
2.0304118092648284
30
0
10
-1.4270555947148387
20
2.0305656401726484
30
0
10
-1.4187529415954898
20
2.0308916423226449
30
0
10
-1.4143599822289517
20
2.0310601327670685
30
0
10
-1.4080910479461723
20
2.0312937354010643
30
0
10
-1.4063417817482586
20
2.0313582326653941
30
0
10
-1.4045905511818948
20
2.0314221138573205
30
0
0
LINE
5
283
100
AcDbEntity
8
0
100
AcDbLine
10
-1.4045905511811021
20
2.2279632654627846
30
0
11
-1.4045905511818946
21
2.0314221138573205
31
0
0
LINE
5
284
100
AcDbEntity
8
0
100
AcDbLine
10
-0.95183464566929077
20
2.2334732739123608
30
0
11
-0.95183464566929166
21
2.0399706476649269
31
-9.705473735494731e-33
0
SPLINE
5
285
100
AcDbEntity
8
0
100
AcDbSpline
70
0
71
3
72
16
73
12
74
0
42
0.000000001
43
0.0000000001
44
0.0000000001
40
0.63010782370636886
40
0.63010782370636886
40
0.63010782370636886
40
0.63010782370636886
40
0.66503953734035526
40
0.66503953734035526
40
0.7034093433094134
40
0.7034093433094134
40
0.74168901194491743
40
0.74168901194491743
40
0.78042293283719821
40
0.78042293283719821
40
0.78764079077776705
40
0.78764079077776705
40
0.78764079077776705
40
0.78764079077776705
10
-0.95183464567007647
20
2.0399706476649198
30
-4.3709567898628207e-17
10
-0.94725063155023093
20
2.0400134974152868
30
-4.3709567898628207e-17
10
-0.94270161857797263
20
2.0400545699613657
30
-4.3709567898628207e-17
10
-0.93366032959841416
20
2.040133505025763
30
-4.3709567898628207e-17
10
-0.92930106219365516
20
2.040169935085816
30
-4.3709567898628207e-17
10
-0.92181188332124553
20
2.0402306454836596
30
-4.3709567898628207e-17
10
-0.91874786056027358
20
2.0402544413339405
30
-4.3709567898628207e-17
10
-0.91427724060099036
20
2.0402886184592743
30
-4.3709567898628207e-17
10
-0.91293276972936577
20
2.0402985608659909
30
-4.3709567898628207e-17
10
-0.91249855473667563
20
2.0403017896151434
30
-4.3709567898628207e-17
10
-0.91246653537877209
20
2.0403020274433321
30
-4.3709567898628207e-17
10
-0.9124645669291338
20
2.0403020420642624
30
-4.3709567898628207e-17
0
SPLINE
5
286
100
AcDbEntity
8
0
100
AcDbSpline
70
0
71
3
72
16
73
12
74
0
42
0.000000001
43
0.0000000001
44
0.0000000001
40
0
40
0
40
0
40
0
40
0.042361169471596571
40
0.042361169471596571
40
0.11013904062615108
40
0.11013904062615108
40
0.1643013380584358
40
0.1643013380584358
40
0.25168679225472401
40
0.25168679225472401
40
0.28588831406343246
40
0.28588831406343246
40
0.28588831406343246
40
0.28588831406343246
10
-1.443532510044534
20
2.2501621696238701
30
0
10
-1.4431376702042629
20
2.2487216592926136
30
0
10
-1.4424676902142559
20
2.2471633177213901
30
0
10
-1.4400492460215659
20
2.2430451248357239
30
0
10
-1.437921897857787
20
2.2404748764719216
30
0
10
-1.4330297078309135
20
2.2361831289972338
30
0
10
-1.4304764235395113
20
2.2344026000212853
30
0
10
-1.4231112207408267
20
2.2304775479267223
30
0
10
-1.4177618795615841
20
2.2287362219035534
30
0
10
-1.4098916599870555
20
2.2278878237507165
30
0
10
-1.4076339332506209
20
2.2278201345390944
30
0
10
-1.4053908203937679
20
2.227925456289936
30
0
0
SPLINE
5
287
100
AcDbEntity
8
0
100
AcDbSpline
70
0
71
3
72
18
73
14
74
0
42
0.000000001
43
0.0000000001
44
0.0000000001
40
0
40
0
40
0
40
0
40
0.035870531798799322
40
0.035870531798799322
40
0.07044515541852675
40
0.07044515541852675
40
0.12680127975334815
40
0.12680127975334815
40
0.17136933552016059
40
0.17136933552016059
40
0.24365526095124446
40
0.24365526095124446
40
0.30965599409720007
40
0.30965599409720007
40
0.30965599409720007
40
0.30965599409720007
10
-0.95183464566929066
20
2.2334732739123608
30
0
10
-0.94948102823015079
20
2.2335148939790797
30
0
10
-0.94710739469782446
20
2.2337452107352371
30
0
10
-0.94253369063530679
20
2.234548749974036
30
0
10
-0.94033204780277169
20
2.2351084082156727
30
0
10
-0.93479437557109912
20
2.2369206578692902
30
0
10
-0.931533350153539
20
2.2384182341254917
30
0
10
-0.92628986219175391
20
2.2414627523262678
30
0
10
-0.92419144517091356
20
2.2429217974597457
30
0
10
-0.91925463555299769
20
2.2468962360699747
30
0
10
-0.91682730856234285
20
2.249474807247259
30
0
10
-0.91361783164145205
20
2.2537817452661755
30
0
10
-0.91270862763420513
20
2.2555893610392772
30
0
10
-0.91250754349578811
20
2.2565370327837759
30
0
0
SPLINE
5
288
100
AcDbEntity
8
0
100
AcDbSpline
70
0
71
3
72
12
73
8
74
0
42
0.000000001
43
0.0000000001
44
0.0000000001
40
-0.2159281584922314
40
-0.2159281584922314
40
-0.2159281584922314
40
-0.2159281584922314
40
-0.17136933552016059
40
-0.17136933552016059
40
-0.12680127975334815
40
-0.12680127975334815
40
-0.10500981218346429
40
-0.10500981218346429
40
-0.10500981218346429
40
-0.10500981218346429
10
-0.90057224805930181
20
2.2842206169975872
30
0
10
-0.90227061339459014
20
2.2832511246662746
30
0
10
-0.9045528836435055
20
2.2821433123342474
30
0
10
-0.9100430505758168
20
2.2799239607937531
30
0
10
-0.91322520409131969
20
2.2788189314029479
30
0
10
-0.91851590192642252
20
2.2772953588811653
30
0
10
-0.92034074499591456
20
2.2768151899169609
30
0
10
-0.92222608284671703
20
2.2763672980966132
30
0
0
SPLINE
5
289
100
AcDbEntity
8
0
100
AcDbSpline
70
0
71
3
72
12
73
8
74
0
42
0.000000001
43
0.0000000001
44
0.0000000001
40
-0.10500981218346429
40
-0.10500981218346429
40
-0.10500981218346429
40
-0.10500981218346429
40
-0.07044515541852675
40
-0.07044515541852675
40
-0.035870531798799322
40
-0.035870531798799322
40
0
40
0
40
0
40
0
10
-0.92222608284671703
20
2.2763672980966132
30
0
10
-0.92521642505423629
20
2.2756569011917289
30
0
10
-0.92836542295667479
20
2.2750268521689003
30
0
10
-0.93482010238875157
20
2.273984891761736
30
0
10
-0.938173527344771
20
2.2735656096813468
30
0
10
-0.94508930069676267
20
2.2729668277046007
30
0
10
-0.94865276726080505
20
2.2727970137192566
30
0
10
-0.95218206333812538
20
2.2727662567689846
30
0
0
SPLINE
5
290
100
AcDbEntity
8
0
100
AcDbSpline
70
0
71
3
72
8
73
4
74
0
42
0.000000001
43
0.0000000001
44
0.0000000001
40
-1.1490395689061614
40
-1.1490395689061614
40
-1.1490395689061614
40
-1.1490395689061614
40
-0.6967322820422811
40
-0.6967322820422811
40
-0.6967322820422811
40
-0.6967322820422811
10
-0.95249272153251718
20
2.2727640108911316
30
0
10
-1.0119148585548368
20
2.272409717882041
30
0
10
-1.0713154384723025
20
2.2719189458500164
30
0
10
-1.1307129347042761
20
2.2713348175154469
30
0
0
SPLINE
5
291
100
AcDbEntity
8
0
100
AcDbSpline
70
0
71
3
72
10
73
6
74
0
42
0.000000001
43
0.0000000001
44
0.0000000001
40
-0.6967322820422811
40
-0.6967322820422811
40
-0.6967322820422811
40
-0.6967322820422811
40
-0.57451978445308072
40
-0.57451978445308072
40
-0.4432456325311972
40
-0.4432456325311972
40
-0.4432456325311972
40
-0.4432456325311972
10
-1.1307129347042761
20
2.2713348175154469
30
0
10
-1.146762015689013
20
2.2711769885536901
30
0
10
-1.1628081890885553
20
2.271013190395851
30
0
10
-1.1960972525565163
20
2.270657510821668
30
0
10
-1.2133322311016395
20
2.2704645626708961
30
0
10
-1.2305817140407238
20
2.2702600953363654
30
0
0
SPLINE
5
292
100
AcDbEntity
8
0
100
AcDbSpline
70
0
71
3
72
8
73
4
74
0
42
0.000000001
43
0.0000000001
44
0.0000000001
40
-0.4432456325311972
40
-0.4432456325311972
40
-0.4432456325311972
40
-0.4432456325311972
40
0
40
0
40
0
40
0
10
-1.2305817140407238
20
2.2702600953363654
30
0
10
-1.288824393061474
20
2.2695697061103877
30
0
10
-1.3471367441885711
20
2.2687177715321525
30
0
10
-1.4055257267637804
20
2.2673128706763359
30
0
0
SPLINE
5
293
100
AcDbEntity
8
0
100
AcDbSpline
70
0
71
3
72
10
73
6
74
0
42
0.000000001
43
0.0000000001
44
0.0000000001
40
-0.28588831406343246
40
-0.28588831406343246
40
-0.28588831406343246
40
-0.28588831406343246
40
-0.25168679225472401
40
-0.25168679225472401
40
-0.21845463022449824
40
-0.21845463022449824
40
-0.21845463022449824
40
-0.21845463022449824
10
-1.4071325827977994
20
2.2672746416426333
30
0
10
-1.4106677668133774
20
2.2671914027039488
30
0
10
-1.4142227535397691
20
2.2672445139361903
30
0
10
-1.4211291215655344
20
2.2676182750990175
30
0
10
-1.4244600784346024
20
2.2679280279523271
30
0
10
-1.4277221431884954
20
2.2683581273004476
30
0
0
SPLINE
5
294
100
AcDbEntity
8
0
100
AcDbSpline
70
0
71
3
72
14
73
10
74
0
42
0.000000001
43
0.0000000001
44
0.0000000001
40
-0.21845463022449824
40
-0.21845463022449824
40
-0.21845463022449824
40
-0.21845463022449824
40
-0.1643013380584358
40
-0.1643013380584358
40
-0.11013904062615108
40
-0.11013904062615108
40
-0.042361169471596571
40
-0.042361169471596571
40
0
40
0
40
0
40
0
10
-1.4277221431884954
20
2.2683581273004476
30
0
10
-1.4330378687705094
20
2.2690589934967749
30
0
10
-1.4381143329135457
20
2.2700793889634228
30
0
10
-1.4472285690024409
20
2.2725600807567909
30
0
10
-1.4513404014757079
20
2.2740425614354702
30
0
10
-1.4589314206582826
20
2.2775767196141516
30
-4.3709567898628207e-17
10
-1.4619980823159056
20
2.279670369969951
30
-4.3709567898628207e-17
10
-1.4647103030247235
20
2.2827830061926382
30
-4.3709567898628207e-17
10
-1.4651924904104803
20
2.2838994187911483
30
-4.3709567898628207e-17
10
-1.4650749198707171
20
2.284815520461362
30
-4.3709567898628207e-17
0
SPLINE
5
295
100
AcDbEntity
8
0
100
AcDbSpline
70
0
71
3
72
19
73
15
74
0
42
0.000000001
43
0.0000000001
44
0.0000000001
40
0
40
0
40
0
40
0
40
0.03776286211719021
40
0.03776286211719021
40
0.18102604052192689
40
0.18102604052192689
40
0.33449045846975106
40
0.33449045846975106
40
0.49545529438605163
40
0.49545529438605163
40
0.60935442641851079
40
0.60935442641851079
40
0.60935442641851079
40
0.67007872581612038
40
0.67007872581612038
40
0.67007872581612038
40
0.67007872581612038
10
-2.7079136062396945
20
1.8882471028530745
30
0
10
-2.7081984375864283
20
1.8865201902787874
30
0
10
-2.7084131973615717
20
1.8848740110561648
30
0
10
-2.7090886818080828
20
1.8774519707297681
30
0
10
-2.7085523688435242
20
1.8729980263455519
30
0
10
-2.7051228957909124
20
1.8680098148751425
30
0
10
-2.7020704111736156
20
1.867905759847261
30
0
10
-2.6938332312770621
20
1.8730707420955881
30
0
10
-2.6886373727112227
20
1.8784055651003508
30
0
10
-2.6787574180170965
20
1.8911814434049481
30
0
10
-2.6743442672533648
20
1.8975961469713867
30
0
10
-2.669675630767828
20
1.9049310152785819
30
0
10
-2.6671865891512025
20
1.9088415344474305
30
0
10
-2.6646182398435676
20
1.913008850625479
30
0
10
-2.6619693771089747
20
1.9173972098863801
30
0
0
SPLINE
5
296
100
AcDbEntity
8
0
100
AcDbSpline
70
0
71
3
72
8
73
4
74
0
42
0.000000001
43
0.0000000001
44
0.0000000001
40
-0.84649223079891123
40
-0.84649223079891123
40
-0.84649223079891123
40
-0.84649223079891123
40
-0.052094333373781776
40
-0.052094333373781776
40
-0.052094333373781776
40
-0.052094333373781776
10
0.81732069975936306
20
2.3487834306623632
30
0
10
0.93296300576942737
20
2.3488338620626297
30
0
10
0.97124405843186978
20
2.3481364156588107
30
0
10
1.0673206997593627
20
2.3465623765955899
30
0
0
ENDSEC
0
SECTION
2
OBJECTS
0
DICTIONARY
5
C
100
AcDbDictionary
3
ACAD_GROUP
350
D
3
ACAD_MLINESTYLE
350
17
0
DICTIONARY
5
D
100
AcDbDictionary
0
DICTIONARY
5
1A
330
C
100
AcDbDictionary
0
DICTIONARY
5
17
100
AcDbDictionary
0
ENDSEC
0
EOF
