0
SECTION
2
HEADER
9
$INSUNITS
70
1
9
$ACADVER
1
AC1014
9
$HANDSEED
5
FFFF
0
ENDSEC
0
SECTION
2
TABLES
0
TABLE
2
VPORT
5
8
100
AcDbSymbolTable
0
ENDTAB
0
TABLE
2
LTYPE
5
5
100
AcDbSymbolTable
0
LTYPE
5
14
100
AcDbSymbolTableRecord
100
AcDbLinetypeTableRecord
2
BYBLOCK
70
0
0
LTYPE
5
15
100
AcDbSymbolTableRecord
100
AcDbLinetypeTableRecord
2
BYLAYER
70
0
0
ENDTAB
0
TABLE
2
LAYER
5
2
100
AcDbSymbolTable
70
2
0
LAYER
5
50
100
AcDbSymbolTableRecord
100
AcDbLayerTableRecord
2
0
70
0
6
CONTINUOUS
0
ENDTAB
0
TABLE
2
STYLE
5
3
100
AcDbSymbolTable
70
1
0
STYLE
5
11
100
AcDbSymbolTableRecord
100
AcDbTextStyleTableRecord
2
STANDARD
70
0
0
ENDTAB
0
TABLE
2
VIEW
5
6
100
AcDbSymbolTable
70
0
0
ENDTAB
0
TABLE
2
UCS
5
7
100
AcDbSymbolTable
70
0
0
ENDTAB
0
TABLE
2
APPID
5
9
100
AcDbSymbolTable
70
2
0
APPID
5
12
100
AcDbSymbolTableRecord
100
AcDbRegAppTableRecord
2
ACAD
70
0
0
ENDTAB
0
TABLE
2
DIMSTYLE
5
A
100
AcDbSymbolTable
70
1
0
ENDTAB
0
TABLE
2
BLOCK_RECORD
5
1
100
AcDbSymbolTable
70
1
0
BLOCK_RECORD
5
1F
100
AcDbSymbolTableRecord
100
AcDbBlockTableRecord
2
*MODEL_SPACE
0
BLOCK_RECORD
5
1B
100
AcDbSymbolTableRecord
100
AcDbBlockTableRecord
2
*PAPER_SPACE
0
ENDTAB
0
ENDSEC
0
SECTION
2
BLOCKS
0
BLOCK
5
20
100
AcDbEntity
100
AcDbBlockBegin
2
*MODEL_SPACE
0
ENDBLK
5
21
100
AcDbEntity
100
AcDbBlockEnd
0
BLOCK
5
1C
100
AcDbEntity
100
AcDbBlockBegin
2
*PAPER_SPACE
0
ENDBLK
5
1D
100
AcDbEntity
100
AcDbBlockEnd
0
ENDSEC
0
SECTION
2
ENTITIES
0
LINE
5
100
100
AcDbEntity
8
0
100
AcDbLine
10
2.4725884391099853
20
1.4674760091414258
30
0
11
2.6813540516659966
21
1.7568273639685767
31
0
0
LINE
5
101
100
AcDbEntity
8
0
100
AcDbLine
10
2.1861248816187167
20
1.9329766135716104
30
0
11
2.1359331628648985
21
1.8103325509567318
31
0
0
LINE
5
102
100
AcDbEntity
8
0
100
AcDbLine
10
2.1359331628648985
20
1.8103325509567318
30
0
11
2.0572427107709963
21
1.8163784492034734
31
0
0
LINE
5
103
100
AcDbEntity
8
0
100
AcDbLine
10
1.9807666553729244
20
1.8222542122337473
30
0
11
0.88626791794815107
21
1.7975708779370199
31
0
0
LINE
5
104
100
AcDbEntity
8
0
100
AcDbLine
10
0.88626791794815107
20
1.7975708779370199
30
0
11
0.42218177257060485
21
2.0286834258380377
31
0
0
LINE
5
105
100
AcDbEntity
8
0
100
AcDbLine
10
-2.4610623592561498
20
1.8617187879773471
30
0
11
-2.4486146185045903
21
1.1364680175066322
31
0
0
LINE
5
106
100
AcDbEntity
8
0
100
AcDbLine
10
-2.4486146185045903
20
1.1364680175066322
30
0
11
-1.2855761399583474
21
0.52401325321329006
31
0
0
LINE
5
107
100
AcDbEntity
8
0
100
AcDbLine
10
-1.2855761399583474
20
0.52401325321329006
30
0
11
-1.2252764318238243
21
0.46201163604938256
31
0
0
LINE
5
108
100
AcDbEntity
8
0
100
AcDbLine
10
1.1202938265132254
20
-0.041691164194507593
30
0
11
1.439707931357588
21
0.63867424450177768
31
0
0
LINE
5
109
100
AcDbEntity
8
0
100
AcDbLine
10
1.439707931357588
20
0.63867424450177768
30
0
11
1.6481992588064549
21
0.97938695292712186
31
0
0
LINE
5
110
100
AcDbEntity
8
0
100
AcDbLine
10
1.6481992588064549
20
0.97938695292712186
30
0
11
1.9535876460221842
21
0.98347149646386278
31
0
0
LINE
5
111
100
AcDbEntity
8
0
100
AcDbLine
10
2.6813540516659966
20
1.7568273639685767
30
0
11
2.4725884391099853
21
1.4674760091414258
31
0
0
LINE
5
112
100
AcDbEntity
8
0
100
AcDbLine
10
1.9535876460221842
20
0.98347149646386278
30
0
11
1.6481992588064549
21
0.97938695292712186
31
0
0
LINE
5
113
100
AcDbEntity
8
0
100
AcDbLine
10
1.6481992588064549
20
0.97938695292712186
30
0
11
1.439707931357588
21
0.63867424450177768
31
0
0
LINE
5
114
100
AcDbEntity
8
0
100
AcDbLine
10
1.439707931357588
20
0.63867424450177768
30
0
11
1.1202938265132254
21
-0.041691164194507635
31
0
0
LINE
5
115
100
AcDbEntity
8
0
100
AcDbLine
10
-1.4122137611011747
20
-0.28823260449871835
30
0
11
-1.1439581032747299
21
0.21639339542499494
31
0
0
LINE
5
116
100
AcDbEntity
8
0
100
AcDbLine
10
-1.1439581032747299
20
0.21639339542499494
30
0
11
-1.1855022020361308
21
0.42111481175988047
31
0
0
LINE
5
117
100
AcDbEntity
8
0
100
AcDbLine
10
-1.1855022020361308
20
0.42111481175988047
30
0
11
-1.2855761399583474
21
0.52401325321329006
31
0
0
LINE
5
118
100
AcDbEntity
8
0
100
AcDbLine
10
-1.2855761399583474
20
0.52401325321329006
30
0
11
-2.4486146185045903
21
1.1364680175066322
31
0
0
LINE
5
119
100
AcDbEntity
8
0
100
AcDbLine
10
-2.4486146185045903
20
1.1364680175066322
30
0
11
-2.4610623592561525
21
1.8617187879773465
31
0
0
LINE
5
120
100
AcDbEntity
8
0
100
AcDbLine
10
0.42218177257060485
20
2.0286834258380377
30
0
11
0.88626791794815107
21
1.7975708779370199
31
0
0
LINE
5
121
100
AcDbEntity
8
0
100
AcDbLine
10
0.88626791794815107
20
1.7975708779370199
30
0
11
1.9807666553729244
21
1.8222542122337473
31
0
0
LINE
5
122
100
AcDbEntity
8
0
100
AcDbLine
10
1.9807666553729244
20
1.8222542122337473
30
0
11
2.051015793210218
21
1.8168568720836633
31
0
0
LINE
5
123
100
AcDbEntity
8
0
100
AcDbLine
10
2.1359331628648985
20
1.8103325509567318
30
0
11
2.1861248816187167
21
1.9329766135716104
31
0
0
SPLINE
5
124
100
AcDbEntity
8
0
100
AcDbSpline
70
0
71
3
72
20
73
16
74
0
42
0.000000001
43
0.0000000001
44
0.0000000001
40
-0.38866747408321484
40
-0.38866747408321484
40
-0.38866747408321484
40
-0.38866747408321484
40
-0.38405494456149386
40
-0.38405494456149386
40
-0.38405494456149386
40
-0.37903160588947077
40
-0.37903160588947077
40
-0.37903160588947077
40
-0.37303542887407543
40
-0.37303542887407543
40
-0.37303542887407543
40
-0.36771730730394836
40
-0.36771730730394836
40
-0.36771730730394836
40
-0.36425452318652751
40
-0.36425452318652751
40
-0.36425452318652751
40
-0.36425452318652751
10
2.6813540516659966
20
1.7568273639685763
30
0
10
2.6621194536888826
20
1.7667223761341355
30
0
10
2.6433571826834914
20
1.7759156884262512
30
0
10
2.626563620755872
20
1.7840668371536432
30
0
10
2.6081870251825205
20
1.7929863483488937
30
0
10
2.594403373492042
20
1.7998521754673855
30
0
10
2.5803583520008568
20
1.8064889917349893
30
0
10
2.5638546470780303
20
1.8142876310874672
30
0
10
2.5435174094094668
20
1.8226738843066586
30
0
10
2.5070463462266797
20
1.8356037711501612
30
0
10
2.4746727519823066
20
1.8470810047092525
30
0
10
2.4304999010830843
20
1.8619403301438366
30
0
10
2.3888205090167469
20
1.8756490474746577
30
0
10
2.3616792009173895
20
1.884576061576269
30
0
10
2.3365972389527494
20
1.8926966363134019
30
0
10
2.3155052130282487
20
1.8993445510483977
30
0
0
SPLINE
5
125
100
AcDbEntity
8
0
100
AcDbSpline
70
0
71
3
72
8
73
4
74
0
42
0.000000001
43
0.0000000001
44
0.0000000001
40
-0.26510475270915274
40
-0.26510475270915274
40
-0.26510475270915274
40
-0.26510475270915274
40
-0.26394799081895953
40
-0.26394799081895953
40
-0.26394799081895953
40
-0.26394799081895953
10
0.42218177257060485
20
2.0286834258380377
30
0
10
0.41432636776171872
20
2.0286750417622557
30
0
10
0.40644865877714298
20
2.0286638803951336
30
0
10
0.39855151250463361
20
2.0286502909194488
30
0
0
SPLINE
5
126
100
AcDbEntity
8
0
100
AcDbSpline
70
0
71
3
72
26
73
22
74
0
42
0.000000001
43
0.0000000001
44
0.0000000001
40
-0.26394799081895337
40
-0.26394799081895337
40
-0.26394799081895337
40
-0.26394799081895337
40
-0.24953701427601019
40
-0.24953701427601019
40
-0.24953701427601019
40
-0.22938130731466233
40
-0.22938130731466233
40
-0.22938130731466233
40
-0.2133729493730929
40
-0.2133729493730929
40
-0.2133729493730929
40
-0.20045984526635752
40
-0.20045984526635752
40
-0.20045984526635752
40
-0.18776873169915684
40
-0.18776873169915684
40
-0.18776873169915684
40
-0.17651635075472089
40
-0.17651635075472089
40
-0.17651635075472089
40
-0.16703515761978241
40
-0.16703515761978241
40
-0.16703515761978241
40
-0.16703515761978241
10
0.39855151250450704
20
2.0286502909194493
30
0
10
0.30016861222559255
20
2.028480992797697
30
0
10
0.19877042076043558
20
2.0279347635363605
30
0
10
0.099888543874019617
20
2.027687485114313
30
0
10
-0.038436494114767301
20
2.0273415693792902
30
0
10
-0.17695764643561157
20
2.0280124090156026
30
0
10
-0.31566142633395106
20
2.0284619086218267
30
0
10
-0.42578923000901858
20
2.0288188015949138
30
0
10
-0.5381820750444879
20
2.0285461517691603
30
0
10
-0.64114313089942698
20
2.0286631557685402
30
0
10
-0.72420976727963471
20
2.0287575519321273
30
0
10
-0.8017598517893687
20
2.0292466772357161
30
0
10
-0.90082635281862011
20
2.0285735357075687
30
0
10
-0.99820389249289876
20
2.0279118704101919
30
0
10
-1.1145069969788801
20
2.0263143842630522
30
0
10
-1.2228721736234105
20
2.024314228726932
30
0
10
-1.3189345379183446
20
2.0225411529501294
30
0
10
-1.4088512245325568
20
2.0202304527371258
30
0
10
-1.5034655142020754
20
2.0151934471330377
30
0
10
-1.5831914961128333
20
2.0109490542503283
30
0
10
-1.6677820141049813
20
2.0047327622744424
30
0
10
-1.7471646988574441
20
1.9979463008770788
30
0
0
ARC
5
127
100
AcDbEntity
8
0
100
AcDbCircle
10
-1.5566832305170042
20
-0.93896540277287344
30
0
40
2.943082320428227
100
AcDbArc
50
93.710877539525654
51
107.89597592604163
0
SPLINE
5
128
100
AcDbEntity
8
0
100
AcDbSpline
70
0
71
3
72
20
73
16
74
0
42
0.000000001
43
0.0000000001
44
0.0000000001
40
0.0069394663583537955
40
0.0069394663583537955
40
0.0069394663583537955
40
0.0069394663583537955
40
0.52944127799962826
40
0.52944127799962826
40
0.69084953046618436
40
0.69084953046618436
40
0.85966383652587264
40
0.85966383652587264
40
1.0729391827232302
40
1.0729391827232302
40
1.2445872667194871
40
1.2445872667194871
40
1.3509843362336074
40
1.3509843362336074
40
1.56800632409742
40
1.56800632409742
40
1.56800632409742
40
1.56800632409742
10
-2.4636585401704871
20
1.860803502411942
30
0
10
-2.5292794058198567
20
1.8375887651989042
30
0
10
-2.629403919035715
20
1.7962640453325391
30
0
10
-2.7198485135003243
20
1.7452398199122212
30
0
10
-2.8281575442873255
20
1.6824995829928155
30
0
10
-3.0468236007893772
20
1.4938793675004696
30
0
10
-3.103936306634608
20
1.4185121087583497
30
0
10
-3.1368363116762263
20
1.3757846355717853
30
0
10
-3.197948923721408
20
1.2933490317903928
30
0
10
-3.2572433640514862
20
1.1908195204714198
30
0
10
-3.3757939039094618
20
0.96074677891987148
30
0
10
-3.4674778221637106
20
0.62715903910406823
30
0
10
-3.4948128814739232
20
0.44353711230244286
30
0
10
-3.5192151886888539
20
0.26251787858833137
30
0
10
-3.5276041303907717
20
0.14487082076738814
30
0
10
-3.5275590440226101
20
-8.5590567723568019e-06
30
0
0
SPLINE
5
129
100
AcDbEntity
8
0
100
AcDbSpline
70
0
71
3
72
70
73
66
74
0
42
0.000000001
43
0.0000000001
44
0.0000000001
40
0
40
0
40
0
40
0
40
1.0843028184044323
40
1.0843028184044323
40
2.2827496510785728
40
2.2827496510785728
40
2.9215158971286632
40
2.9215158971286632
40
3.4278298362785082
40
3.4278298362785082
40
3.8753302839304018
40
3.8753302839304018
40
4.9529878721999028
40
4.9529878721999028
40
8.2337106409268035
40
8.2337106409268035
40
10.739483823111581
40
10.739483823111581
40
13.00136624500578
40
13.00136624500578
40
17.190948556504985
40
17.190948556504985
40
29.781439834307879
40
29.781439834307879
40
33.796492846568007
40
33.796492846568007
40
42.854544534728397
40
42.854544534728397
40
47.381217957298539
40
47.381217957298539
40
49.855154836658187
40
49.855154836658187
40
53.360167045072309
40
53.360167045072309
40
55.960700969114384
40
55.960700969114384
40
91.413347698121271
40
91.413347698121271
40
173.29452549136431
40
173.29452549136431
40
246.42932939044249
40
246.42932939044249
40
320.94133335923402
40
320.94133335923402
40
400.60770139525027
40
400.60770139525027
40
543.81646084751833
40
543.81646084751833
40
820.15382106697575
40
820.15382106697575
40
1369.371202424853
40
1369.371202424853
40
2013.5108073549286
40
2013.5108073549286
40
2863.6552350302918
40
2863.6552350302918
40
3455.7109430196183
40
3455.7109430196183
40
4136.0823509905058
40
4136.0823509905058
40
4672.3207744271995
40
4672.3207744271995
40
5320.3760610691097
40
5320.3760610691097
40
6345.8532862712973
40
6345.8532862712973
40
6345.8532862712973
40
6345.8532862712973
10
-3.5275590440226101
20
-8.5590567679499673e-06
30
0
10
-3.5275147613046611
20
-0.14230550996224894
30
0
10
-3.51951990359338
20
-0.29215769565402983
30
0
10
-3.4496574287676869
20
-0.71882533830457029
30
0
10
-3.4134438974420247
20
-0.82920630986595367
30
0
10
-3.3439062994676574
20
-1.0045554677510926
30
0
10
-3.2827000236182422
20
-1.1512133014819455
30
0
10
-3.1624425470608069
20
-1.3479824968728802
30
0
10
-3.0882627373182325
20
-1.4395897807627802
30
0
10
-3.013533943237614
20
-1.5194879192697675
30
0
10
-2.9551844033967019
20
-1.5755685738760694
30
0
10
-2.8310981447184229
20
-1.6818589156662738
30
0
10
-2.7362614637198823
20
-1.7333705407471522
30
0
10
-2.6601520309371325
20
-1.7761168043139008
30
0
10
-2.6113796779877179
20
-1.8009406441523141
30
0
10
-2.4739090573271207
20
-1.8582997335235298
30
0
10
-2.4304001843384482
20
-1.8769924254769228
30
0
10
-2.0859178521550219
20
-1.9604321836452578
30
0
10
-1.9770028724921589
20
-1.9768560646089948
30
0
10
-1.5129172149606978
20
-2.0204517065414587
30
0
10
-1.2858577082976499
20
-2.0236199459722299
30
0
10
-0.64106315773514666
20
-2.0318322900955486
30
0
10
-0.39910266739189554
20
-2.0267574718260297
30
0
10
0.23903578122372957
20
-2.0280725119814038
30
0
10
0.39333104425396065
20
-2.0286840896265796
30
0
10
0.89572156452491791
20
-2.0285226672121257
30
0
10
0.91000482949749173
20
-2.0296985251331034
30
0
10
1.3685243741661881
20
-2.021835349674884
30
0
10
1.4663428282701327
20
-2.019084073525228
30
0
10
1.7069656703943425
20
-2.0012379527876609
30
0
10
1.8217570755231032
20
-1.9914310191053699
30
0
10
1.9927058776702484
20
-1.9743811026234819
30
0
10
2.0789090400801449
20
-1.9619221814016816
30
0
10
2.3832245456382157
20
-1.8880577129044556
30
0
10
2.4295029492638012
20
-1.872152059287727
30
0
10
2.5800901118195472
20
-1.8202540846660509
30
0
10
2.6837863072489285
20
-1.7633084824731173
30
0
10
2.8591406767750511
20
-1.6611804134723518
30
0
10
2.9160168758884009
20
-1.6096204132682104
30
0
10
2.9738415289035709
20
-1.5561633718785437
30
0
10
3.0197380835559033
20
-1.5139084637959361
30
0
10
3.0740510206320231
20
-1.4539992328508886
30
0
10
3.1254541843608492
20
-1.3912191052113534
30
0
10
3.1750525685456963
20
-1.3261761166850059
30
0
10
3.2146176148041663
20
-1.2634831682191543
30
0
10
3.2744792632392761
20
-1.1615142366126729
30
0
10
3.3551188166029133
20
-0.97688788797562809
30
0
10
3.4358146748037828
20
-0.76917695414903042
30
0
10
3.4531107404598806
20
-0.68288340780040635
30
0
10
3.5096541823986613
20
-0.35908200706998888
30
0
10
3.5258215367026899
20
-0.22603623741545081
30
0
10
3.5299755156462318
20
0.19148501609330945
30
0
10
3.5108396492147373
20
0.34216775544263334
30
0
10
3.4501610814247319
20
0.71264986225683469
30
0
10
3.4244885284177227
20
0.8038828886050412
30
0
10
3.3251543889560975
20
1.0487196667954155
30
0
10
3.2784360750422259
20
1.1466262265891773
30
0
10
3.2280555467402259
20
1.2440389161850074
30
0
10
3.1757232351240936
20
1.3246227712910121
30
0
10
3.1229485615772195
20
1.3949524995169933
30
0
10
3.0917330066710225
20
1.4373061036996946
30
0
10
2.952150253294616
20
1.5831102941218644
30
0
10
2.906130711693955
20
1.6169823748713914
30
0
10
2.8262084753564549
20
1.6732565224322498
30
0
10
2.7667164043483488
20
1.7128024486770581
30
0
10
2.6829285881708675
20
1.7560163302327592
30
0
0
LINE
5
130
100
AcDbEntity
8
0
100
AcDbLine
10
2.6829285881708675
20
1.7560163302327587
30
0
11
2.6823410862316965
21
1.7563191912138776
31
0
0
SPLINE
5
131
100
AcDbEntity
8
0
100
AcDbSpline
70
0
71
3
72
8
73
4
74
0
42
0.000000001
43
0.0000000001
44
0.0000000001
40
-0.0069394663583539629
40
-0.0069394663583539629
40
-0.0069394663583539629
40
-0.0069394663583539629
40
0
40
0
40
0
40
0
10
-2.4636585401704871
20
1.860803502411942
30
0
10
-2.4627870144084052
20
1.8611118226594872
30
0
10
-2.4619215676263355
20
1.8614169282443913
30
0
10
-2.4610623592561525
20
1.8617187879773465
30
0
0
SPLINE
5
132
100
AcDbEntity
8
0
100
AcDbSpline
70
0
71
3
72
8
73
4
74
0
42
0.000000001
43
0.0000000001
44
0.0000000001
40
-0.043571290740188152
40
-0.043571290740188152
40
-0.043571290740188152
40
-0.043571290740188152
40
0
40
0
40
0
40
0
10
1.1208894548213919
20
2.0256323368600859
30
0
10
1.1415314849250537
20
2.0253916858136867
30
0
10
1.1558273143588069
20
2.0252312669454176
30
0
10
1.1615449286838349
20
2.0251633946848338
30
0
0
SPLINE
5
133
100
AcDbEntity
8
0
100
AcDbSpline
70
0
71
3
72
10
73
6
74
0
42
0.000000001
43
0.0000000001
44
0.0000000001
40
0.043571290740188132
40
0.043571290740188132
40
0.043571290740188132
40
0.043571290740188132
40
0.18230624235152387
40
0.18230624235152387
40
0.24055222370305215
40
0.24055222370305215
40
0.24055222370305215
40
0.24055222370305215
10
1.1208894548213919
20
2.0256323368600859
30
0
10
1.0551633540118548
20
2.026398591673984
30
0
10
0.92510467623941184
20
2.028795659168332
30
0
10
0.7513014753763152
20
2.0289609070230448
30
0
10
0.61321204559768128
20
2.0286745603918002
30
0
10
0.50771273649118231
20
2.0286939734288585
30
0
0
SPLINE
5
134
100
AcDbEntity
8
0
100
AcDbSpline
70
4
71
5
72
12
73
6
74
0
42
0.000000001
43
0.0000000001
44
0.0000000001
40
-0.46630460236431803
40
-0.46630460236431803
40
-0.46630460236431803
40
-0.46630460236431803
40
-0.46630460236431803
40
-0.46630460236431803
40
-0.4609123654332476
40
-0.4609123654332476
40
-0.4609123654332476
40
-0.4609123654332476
40
-0.4609123654332476
40
-0.4609123654332476
41
1
41
1
41
1
41
1
41
1
41
1
10
1.9536320004698029
20
0.98347149646386256
30
0
10
1.9567676898824313
20
0.98352674427147779
30
0
10
1.9599002493680318
20
0.98355431461236453
30
0
10
1.9630293094442688
20
0.98355425682852993
30
0
10
1.9661545032061893
20
0.98352662862204077
30
0
10
1.9692754673302386
20
0.98347149646386278
30
0
0
SPLINE
5
135
100
AcDbEntity
8
0
100
AcDbSpline
70
0
71
3
72
8
73
4
74
0
42
0.000000001
43
0.0000000001
44
0.0000000001
40
9.51203631576211
40
9.51203631576211
40
9.51203631576211
40
9.51203631576211
40
9.662891009508531
40
9.662891009508531
40
9.662891009508531
40
9.662891009508531
10
1.953631996987542
20
0.98347149640250886
30
0
10
1.9588430364890361
20
0.983563588128194
30
0
10
1.9640582949046324
20
0.98356377151034768
30
0
10
1.9692754708710944
20
0.98347149640131315
30
0
0
ARC
5
136
100
AcDbEntity
8
0
100
AcDbCircle
10
-0.0015000000000000794
20
0.74613480314960623
30
0
40
1.2563258849400945
100
AcDbArc
50
-58.338672416208681
51
193.07074879689165
0
LINE
5
137
100
AcDbEntity
8
0
100
AcDbLine
10
0.65794202360437792
20
-0.32320655800457376
30
0
11
0.72180181824254042
21
-0.31018274477122426
31
0
0
LINE
5
138
100
AcDbEntity
8
0
100
AcDbLine
10
0.72180181824254042
20
-0.31018274477122426
30
0
11
1.1202938265132254
21
-0.041691164194507593
31
0
0
LINE
5
139
100
AcDbEntity
8
0
100
AcDbLine
10
1.9535876460221842
20
0.98347149646386278
30
0
11
1.9536320004698029
21
0.98347149646386256
31
0
0
LINE
5
140
100
AcDbEntity
8
0
100
AcDbLine
10
1.9692754673302384
20
0.98347149646386278
30
0
11
2.4965263983496744
21
0.98347149646386278
31
0
0
LINE
5
141
100
AcDbEntity
8
0
100
AcDbLine
10
2.4965263983496744
20
0.98347149646386278
30
0
11
2.4923710075276619
21
1.2941569108731992
31
0
0
SPLINE
5
142
100
AcDbEntity
8
0
100
AcDbSpline
70
4
71
5
72
12
73
6
74
0
42
0.000000001
43
0.0000000001
44
0.0000000001
40
-0.2577747801307525
40
-0.2577747801307525
40
-0.2577747801307525
40
-0.2577747801307525
40
-0.2577747801307525
40
-0.2577747801307525
40
-0.25538220952652724
40
-0.25538220952652724
40
-0.25538220952652724
40
-0.25538220952652724
40
-0.25538220952652724
40
-0.25538220952652724
41
1
41
1
41
1
41
1
41
1
41
1
10
2.4923710075276633
20
1.2941569108731457
30
0
10
2.4923606426669935
20
1.2946773323796652
30
0
10
2.492351959229147
20
1.2951991975384709
30
0
10
2.4923449585773123
20
1.2957225101307017
30
0
10
2.4923396420521611
20
1.2962472738929511
30
0
10
2.4923360109721542
20
1.2967734925177314
30
0
0
LINE
5
143
100
AcDbEntity
8
0
100
AcDbLine
10
2.4923360109721546
20
1.2967734925177314
30
0
11
2.4725884391099853
21
1.4674760091414258
31
0
0
SPLINE
5
144
100
AcDbEntity
8
0
100
AcDbSpline
70
0
71
3
72
14
73
10
74
0
42
0.000000001
43
0.0000000001
44
0.0000000001
40
-0.36425452318652751
40
-0.36425452318652751
40
-0.36425452318652751
40
-0.36425452318652751
40
-0.36249875851763452
40
-0.36249875851763452
40
-0.36249875851763452
40
-0.35679935850808281
40
-0.35679935850808281
40
-0.35679935850808281
40
-0.35359275975030069
40
-0.35359275975030069
40
-0.35359275975030069
40
-0.35359275975030069
10
2.3155052130282487
20
1.8993445510483977
30
0
10
2.3048107450343283
20
1.902715299387804
30
0
10
2.2951418230861163
20
1.9057074690154538
30
0
10
2.2867618632972646
20
1.9082311830025669
30
0
10
2.2595856571810811
20
1.9164155864150167
30
0
10
2.2436261113165101
20
1.9202910898632941
30
0
10
2.2239028118328203
20
1.9246707450434484
30
0
10
2.2127643442505653
20
1.9271440962839923
30
0
10
2.2000097080217049
20
1.9299305242306655
30
0
10
2.186124881618714
20
1.9329766135716104
30
0
0
SPLINE
5
145
100
AcDbEntity
8
0
100
AcDbSpline
70
4
71
5
72
12
73
6
74
0
42
0.000000001
43
0.0000000001
44
0.0000000001
40
-0.86428362405840931
40
-0.86428362405840931
40
-0.86428362405840931
40
-0.86428362405840931
40
-0.86428362405840931
40
-0.86428362405840931
40
-0.85808849826346867
40
-0.85808849826346867
40
-0.85808849826346867
40
-0.85808849826346867
40
-0.85808849826346867
40
-0.85808849826346867
41
1
41
1
41
1
41
1
41
1
41
1
10
2.0572427107709963
20
1.8163784492034734
30
0
10
2.0559642385652794
20
1.8163670025371537
30
0
10
2.0547023922708858
20
1.8164103132860394
30
0
10
2.0534571569025863
20
1.8165073667014757
30
0
10
2.0522283807581583
20
1.8166567784865832
30
0
10
2.0510157940115388
20
1.8168568719868834
30
0
0
LINE
5
146
100
AcDbEntity
8
0
100
AcDbLine
10
2.0510157940115383
20
1.8168568719868829
30
0
11
1.9807666553729244
21
1.8222542122337473
31
0
0
LINE
5
147
100
AcDbEntity
8
0
100
AcDbLine
10
2.6813540516659966
20
1.7568273639685767
30
0
11
2.6823410862316965
21
1.7563191912138776
31
0
0
LINE
5
148
100
AcDbEntity
8
0
100
AcDbLine
10
2.4725884391099853
20
1.4674760091414258
30
0
11
2.4923360109721546
21
1.2967734925177317
31
0
0
SPLINE
5
149
100
AcDbEntity
8
0
100
AcDbSpline
70
0
71
3
72
8
73
4
74
0
42
0.000000001
43
0.0000000001
44
0.0000000001
40
2.4600413635706633
40
2.4600413635706633
40
2.4600413635706633
40
2.4600413635706633
40
2.4671122386035118
40
2.4671122386035118
40
2.4671122386035118
40
2.4671122386035118
10
2.4923710075276633
20
1.2941569108731241
30
0
10
2.4923537297578608
20
1.295022968426383
30
0
10
2.4923420719408265
20
1.2958951327477612
30
0
10
2.4923360109721546
20
1.2967734925177317
30
0
0
LINE
5
150
100
AcDbEntity
8
0
100
AcDbLine
10
2.4923710075276633
20
1.2941569108731241
30
0
11
2.4965263983496744
21
0.98347149646386278
31
0
0
LINE
5
151
100
AcDbEntity
8
0
100
AcDbLine
10
2.4965263983496744
20
0.98347149646386278
30
0
11
1.9692754708710944
21
0.98347149640131315
31
0
0
LINE
5
152
100
AcDbEntity
8
0
100
AcDbLine
10
1.953631996987542
20
0.98347149640250886
30
0
11
1.9535876460221842
21
0.98347149646386278
31
0
0
LINE
5
153
100
AcDbEntity
8
0
100
AcDbLine
10
1.1202938265132254
20
-0.041691164194507635
30
0
11
0.72180181824254042
21
-0.31018274477122426
31
0
0
LINE
5
154
100
AcDbEntity
8
0
100
AcDbLine
10
0.72180181824254042
20
-0.31018274477122426
30
0
11
0.081899206323146817
21
-0.44068695563491667
31
0
0
LINE
5
155
100
AcDbEntity
8
0
100
AcDbLine
10
-0.37189904481184105
20
-0.38894094982564775
30
0
11
-1.0584252808802859
21
-0.29375005123863035
31
0
0
LINE
5
156
100
AcDbEntity
8
0
100
AcDbLine
10
-1.0584252808802859
20
-0.29375005123863035
30
0
11
-1.4122137611011747
21
-0.28823260449871835
31
0
0
SPLINE
5
157
100
AcDbEntity
8
0
100
AcDbSpline
70
0
71
3
72
8
73
4
74
0
42
0.000000001
43
0.0000000001
44
0.0000000001
40
0.20615397442483235
40
0.20615397442483235
40
0.20615397442483235
40
0.20615397442483235
40
0.22015706119917261
40
0.22015706119917261
40
0.22015706119917261
40
0.22015706119917261
10
2.0572427107711118
20
1.8163784492034742
30
0
10
2.0551259283287719
20
1.8163594968136572
30
0
10
2.0530544189791016
20
1.8165204707652771
30
0
10
2.0510157932129074
20
1.8168568721186695
30
0
0
LINE
5
158
100
AcDbEntity
8
0
100
AcDbLine
10
2.0572427107709981
20
1.8163784492034734
30
0
11
2.1359331628648985
21
1.8103325509567318
31
0
0
SPLINE
5
159
100
AcDbEntity
8
0
100
AcDbSpline
70
0
71
3
72
12
73
8
74
0
42
0.000000001
43
0.0000000001
44
0.0000000001
40
0.040091605117224961
40
0.040091605117224961
40
0.040091605117224961
40
0.040091605117224961
40
0.15846311380673644
40
0.15846311380673644
40
0.52930763424553617
40
0.52930763424553617
40
1.1978512222330746
40
1.1978512222330746
40
1.1978512222330746
40
1.1978512222330746
10
2.1842639840938172
20
1.9333849364593958
30
0
10
2.1495172277215051
20
1.9410106241504415
30
0
10
2.0934418792222278
20
1.9537470470925919
30
0
10
1.9545749831571737
20
1.9810712553340197
30
0
10
1.7711284238363847
20
1.996805058208087
30
0
10
1.4709926793193175
20
2.0193774608305421
30
0
10
1.3301931102040292
20
2.0228811919983323
30
0
10
1.1952571929414488
20
2.0247350714604431
30
0
0
SPLINE
5
160
100
AcDbEntity
8
0
100
AcDbSpline
70
0
71
3
72
8
73
4
74
0
42
0.000000001
43
0.0000000001
44
0.0000000001
40
-0.25933588191944962
40
-0.25933588191944962
40
-0.25933588191944962
40
-0.25933588191944962
40
-0.24058085635382478
40
-0.24058085635382478
40
-0.24058085635382478
40
-0.24058085635382478
10
0.42218177257060485
20
2.0286834258380377
30
0
10
0.44430650800699217
20
2.0287070395744498
30
0
10
0.4741857466119761
20
2.0287001427649591
30
0
10
0.50771273649118231
20
2.0286939734288585
30
0
0
LINE
5
161
100
AcDbEntity
8
0
100
AcDbLine
10
2.1842639840938172
20
1.9333849364593958
30
0
11
2.1861248816187167
21
1.9329766135716104
31
0
0
LINE
5
162
100
AcDbEntity
8
0
100
AcDbLine
10
0.081899206323146817
20
-0.44068695563491667
30
0
11
-0.37189904481184105
21
-0.38894094982564775
31
0
0
LWPOLYLINE
5
163
100
AcDbEntity
8
0
100
AcDbPolyline
90
7
70
1
43
0.0
10
-0.57801970227507538
20
-0.37009983260542662
42
-0.16908932376944788
10
-1.1465648882223682
20
0.22923913579418295
10
-1.1855022020361308
20
0.42111481175988047
10
-1.2252764318238243
20
0.46201163604938345
42
-1.9501707521203635
10
0.65794202360437726
20
-0.3232065580045741
10
0.081899206323146817
20
-0.44068695563491667
10
-0.37189904481183578
20
-0.3889409498256487
42
-0.0099164217686336723
0
SPLINE
5
164
100
AcDbEntity
8
0
100
AcDbSpline
70
0
71
3
72
8
73
4
74
0
42
0.000000001
43
0.0000000001
44
0.0000000001
40
-0.22391183257949432
40
-0.22391183257949432
40
-0.22391183257949432
40
-0.22391183257949432
40
-0.21795362650894201
40
-0.21795362650894201
40
-0.21795362650894201
40
-0.21795362650894201
10
1.1615449286838351
20
2.0251633946848338
30
0
10
1.1726437242033043
20
2.0250316438707969
30
0
10
1.183874521753713
20
2.02489145754924
30
0
10
1.1952571929414488
20
2.0247350714604431
30
0
0
ENDSEC
0
SECTION
2
OBJECTS
0
DICTIONARY
5
C
100
AcDbDictionary
3
ACAD_GROUP
350
D
3
ACAD_MLINESTYLE
350
17
0
DICTIONARY
5
D
100
AcDbDictionary
0
DICTIONARY
5
1A
330
C
100
AcDbDictionary
0
DICTIONARY
5
17
100
AcDbDictionary
0
ENDSEC
0
EOF
