0
SECTION
2
HEADER
9
$INSUNITS
70
1
9
$ACADVER
1
AC1014
9
$HANDSEED
5
FFFF
0
ENDSEC
0
SECTION
2
TABLES
0
TABLE
2
VPORT
5
8
100
AcDbSymbolTable
0
ENDTAB
0
TABLE
2
LTYPE
5
5
100
AcDbSymbolTable
0
LTYPE
5
14
100
AcDbSymbolTableRecord
100
AcDbLinetypeTableRecord
2
BYBLOCK
70
0
0
LTYPE
5
15
100
AcDbSymbolTableRecord
100
AcDbLinetypeTableRecord
2
BYLAYER
70
0
0
ENDTAB
0
TABLE
2
LAYER
5
2
100
AcDbSymbolTable
70
2
0
LAYER
5
50
100
AcDbSymbolTableRecord
100
AcDbLayerTableRecord
2
0
70
0
6
CONTINUOUS
0
ENDTAB
0
TABLE
2
STYLE
5
3
100
AcDbSymbolTable
70
1
0
STYLE
5
11
100
AcDbSymbolTableRecord
100
AcDbTextStyleTableRecord
2
STANDARD
70
0
0
ENDTAB
0
TABLE
2
VIEW
5
6
100
AcDbSymbolTable
70
0
0
ENDTAB
0
TABLE
2
UCS
5
7
100
AcDbSymbolTable
70
0
0
ENDTAB
0
TABLE
2
APPID
5
9
100
AcDbSymbolTable
70
2
0
APPID
5
12
100
AcDbSymbolTableRecord
100
AcDbRegAppTableRecord
2
ACAD
70
0
0
ENDTAB
0
TABLE
2
DIMSTYLE
5
A
100
AcDbSymbolTable
70
1
0
ENDTAB
0
TABLE
2
BLOCK_RECORD
5
1
100
AcDbSymbolTable
70
1
0
BLOCK_RECORD
5
1F
100
AcDbSymbolTableRecord
100
AcDbBlockTableRecord
2
*MODEL_SPACE
0
BLOCK_RECORD
5
1B
100
AcDbSymbolTableRecord
100
AcDbBlockTableRecord
2
*PAPER_SPACE
0
ENDTAB
0
ENDSEC
0
SECTION
2
BLOCKS
0
BLOCK
5
20
100
AcDbEntity
100
AcDbBlockBegin
2
*MODEL_SPACE
0
ENDBLK
5
21
100
AcDbEntity
100
AcDbBlockEnd
0
BLOCK
5
1C
100
AcDbEntity
100
AcDbBlockBegin
2
*PAPER_SPACE
0
ENDBLK
5
1D
100
AcDbEntity
100
AcDbBlockEnd
0
ENDSEC
0
SECTION
2
ENTITIES
0
CIRCLE
5
100
100
AcDbEntity
8
0
100
AcDbCircle
10
2.8984999999999999
20
1.3689999999999998
30
0
40
0.060000000000000032
0
LINE
5
101
100
AcDbEntity
8
0
100
AcDbLine
10
2.8665035213960679
20
1.0414803149606306
30
0
11
2.8665035213960697
21
-1.6479399973996789
31
0
0
SPLINE
5
102
100
AcDbEntity
8
0
100
AcDbSpline
70
0
71
3
72
86
73
82
74
0
42
0.000000001
43
0.0000000001
44
0.0000000001
40
-0.6019572089486509
40
-0.6019572089486509
40
-0.6019572089486509
40
-0.6019572089486509
40
-0.59396248097461379
40
-0.59396248097461379
40
-0.59396248097461379
40
-0.58716098732472077
40
-0.58716098732472077
40
-0.58716098732472077
40
-0.5806079871235259
40
-0.5806079871235259
40
-0.5806079871235259
40
-0.57395097104612158
40
-0.57395097104612158
40
-0.57395097104612158
40
-0.56718828804685362
40
-0.56718828804685362
40
-0.56718828804685362
40
-0.56081010285259858
40
-0.56081010285259858
40
-0.56081010285259858
40
-0.55543146975027058
40
-0.55543146975027058
40
-0.55543146975027058
40
-0.5501362867113081
40
-0.5501362867113081
40
-0.5501362867113081
40
-0.54299559284958288
40
-0.54299559284958288
40
-0.54299559284958288
40
-0.53642785907819512
40
-0.53642785907819512
40
-0.53642785907819512
40
-0.52868907232113116
40
-0.52868907232113116
40
-0.52868907232113116
40
-0.52019875202113652
40
-0.52019875202113652
40
-0.52019875202113652
40
-0.50964276417413301
40
-0.50964276417413301
40
-0.50964276417413301
40
-0.49666973832239159
40
-0.49666973832239159
40
-0.49666973832239159
40
-0.48578273491300222
40
-0.48578273491300222
40
-0.48578273491300222
40
-0.47716075729042173
40
-0.47716075729042173
40
-0.47716075729042173
40
-0.46806892054470978
40
-0.46806892054470978
40
-0.46806892054470978
40
-0.46112412293710098
40
-0.46112412293710098
40
-0.46112412293710098
40
-0.45446479061934475
40
-0.45446479061934475
40
-0.45446479061934475
40
-0.44734905435350109
40
-0.44734905435350109
40
-0.44734905435350109
40
-0.44144934200890656
40
-0.44144934200890656
40
-0.44144934200890656
40
-0.43540215538830668
40
-0.43540215538830668
40
-0.43540215538830668
40
-0.42932051496280627
40
-0.42932051496280627
40
-0.42932051496280627
40
-0.42269821832252397
40
-0.42269821832252397
40
-0.42269821832252397
40
-0.41434255394731256
40
-0.41434255394731256
40
-0.41434255394731256
40
-0.40412607078929158
40
-0.40412607078929158
40
-0.40412607078929158
40
-0.39676580439415049
40
-0.39676580439415049
40
-0.39676580439415049
40
-0.39676580439415049
10
2.8665035213960697
20
-1.6479399973996789
30
0
10
2.8922526912108686
20
-1.629177306906882
30
0
10
2.9114549026009913
20
-1.6136199447265831
30
0
10
2.9394203399255496
20
-1.5879607481121305
30
0
10
2.9632915232157457
20
-1.5660581624899534
30
0
10
2.9921475399861595
20
-1.5386601702721134
30
0
10
3.0123321649116921
20
-1.5192370214624633
30
0
10
3.0316861607473529
20
-1.5006131658018174
30
0
10
3.0439798583458426
20
-1.4878626728407451
30
0
10
3.0627964787112671
20
-1.4658060502104018
30
0
10
3.0819874247346029
20
-1.4433106474156578
30
0
10
3.1088060262689763
20
-1.4107827534150641
30
0
10
3.1296828095829978
20
-1.3848738224731714
30
0
10
3.1508286540221522
20
-1.358630975812303
30
0
10
3.1639552749984214
20
-1.340911583076305
30
0
10
3.178422870980671
20
-1.3187459061721001
30
0
10
3.1921735513677754
20
-1.2976786093629056
30
0
10
3.2090209981544962
20
-1.2708193577450093
30
0
10
3.2220957227643856
20
-1.249863082086585
30
0
10
3.2330868448310071
20
-1.2322464216447055
30
0
10
3.2405234545242925
20
-1.2199138471262672
30
0
10
3.2497144242486806
20
-1.2022149822577424
30
0
10
3.2587988556909968
20
-1.1847212760084109
30
0
10
3.2709498867554996
20
-1.1597772781780782
30
0
10
3.2880697434850337
20
-1.1233589571634415
30
0
10
3.3111450335649564
20
-1.0742719037544761
30
0
10
3.3422464806180279
20
-1.0060414689755666
30
0
10
3.3695464172998748
20
-0.93895980029335269
30
0
10
3.3946441945540795
20
-0.87728929907398201
30
0
10
3.4156215451045457
20
-0.81811636849095337
30
0
10
3.4306258428404885
20
-0.765663048750574
30
0
10
3.4483239223035569
20
-0.70379257422359132
30
0
10
3.4587504579872594
20
-0.64971703684057069
30
0
10
3.4686867448613889
20
-0.59355788909804641
30
0
10
3.4795961736543854
20
-0.53189861625965595
30
0
10
3.4905206954533448
20
-0.4664542443009464
30
0
10
3.5004726009558529
20
-0.39743219116276651
30
0
10
3.5128237752814409
20
-0.31176986143055713
30
0
10
3.5215200604342516
20
-0.22363031338374451
30
0
10
3.5249794524107947
20
-0.14006005566506419
30
0
10
3.5292410373690219
20
-0.037110821908401176
30
0
10
3.5288670010816054
20
0.061089876182099177
30
0
10
3.5235958738601965
20
0.16471381872046079
30
0
10
3.5191822938285013
20
0.25147942774148196
30
0
10
3.5091197097681972
20
0.34270804293422436
30
0
10
3.4960056633190066
20
0.42974884975600375
30
0
10
3.4856009259437339
20
0.49880737714656237
30
0
10
3.4747084655274163
20
0.56337641176498543
30
0
10
3.462581351873482
20
0.62629304892508708
30
0
10
3.4498174008344158
20
0.69251365996007275
30
0
10
3.4340472440968925
20
0.75969500968611325
30
0
10
3.4073824716844809
20
0.83800159669041929
30
0
10
3.3870190468811501
20
0.89780298075644061
30
0
10
3.3599631136275998
20
0.96468128810926013
30
0
10
3.3331211733793356
20
1.0258495653476549
30
0
10
3.3073684703982766
20
1.0845356536487885
30
0
10
3.2832002998091516
20
1.1355299364293177
30
0
10
3.2661956434677828
20
1.169797629048938
30
0
10
3.2480329503342165
20
1.206398991225921
30
0
10
3.2377523769372361
20
1.2243661854537644
30
0
10
3.2241758732622099
20
1.2462152106803797
30
0
10
3.2128727769877981
20
1.2644055814525512
30
0
10
3.198525444866426
20
1.2869371920196166
30
0
10
3.1852875444871875
20
1.3073898456459407
30
0
10
3.1717598573855477
20
1.3282902218936004
30
0
10
3.1607531043256047
20
1.3444788203219913
30
0
10
3.1479352037129567
20
1.3616484218852487
30
0
10
3.1349874090996948
20
1.3789920167024241
30
0
10
3.1186702050043711
20
1.399806979799163
30
0
10
3.1024829002163754
20
1.4197841006358884
30
0
10
3.0848962862896285
20
1.4414881406922664
30
0
10
3.0693230839447225
20
1.4595554474074726
30
0
10
3.0538415785604052
20
1.476361791302242
30
0
10
3.034186415663839
20
1.4976989557928495
30
0
10
3.0126625552494111
20
1.5201771087176388
30
0
10
2.9865648488989134
20
1.5457849027019737
30
0
10
2.9549011246000076
20
1.5768542280186675
30
0
10
2.9170599732010909
20
1.6092337315318219
30
0
10
2.8763110120316169
20
1.637978034820073
30
0
10
2.8467409085548585
20
1.6588367757108129
30
0
10
2.8154181737045394
20
1.6794329894622124
30
0
10
2.7839876575302505
20
1.6987526277623921
30
0
0
ARC
5
103
100
AcDbEntity
8
0
100
AcDbCircle
10
2.6585470222581864
20
1.7498096918491621
30
0
40
0.13543329269650128
100
AcDbArc
50
284.79927990157205
51
337.85260886359669
0
LINE
5
104
100
AcDbEntity
8
0
100
AcDbLine
10
2.6931412366916003
20
1.6188691820809811
30
0
11
2.5957985206523051
21
1.5774096005825424
31
0
0
LINE
5
105
100
AcDbEntity
8
0
100
AcDbLine
10
2.5957985206523051
20
1.5774096005825424
30
0
11
2.5110905511811024
21
1.3446763672127635
31
0
0
LINE
5
106
100
AcDbEntity
8
0
100
AcDbLine
10
2.5110905511811024
20
1.3446763672127635
30
0
11
2.5110905511811024
21
1.1989606299212598
31
0
0
LINE
5
107
100
AcDbEntity
8
0
100
AcDbLine
10
2.5110905511811024
20
1.1989606299212598
30
0
11
2.7090232064354351
21
1.1989606299212603
31
0
0
ARC
5
108
100
AcDbEntity
8
0
100
AcDbCircle
10
2.7090232064354356
20
1.0414803149606304
30
0
40
0.15748031496063214
100
AcDbArc
50
0
51
90.000000000000171
0
CIRCLE
5
109
100
AcDbEntity
8
0
100
AcDbCircle
10
-2.7265000000000001
20
1.5189999999999999
30
0
40
0.060000000000000032
0
LINE
5
110
100
AcDbEntity
8
0
100
AcDbLine
10
-3.2435699204909136
20
-1.0644312293732372
30
0
11
-3.2435699204909145
21
1.2136680351565259
31
0
0
SPLINE
5
111
100
AcDbEntity
8
0
100
AcDbSpline
70
0
71
3
72
23
73
19
74
0
42
0.000000001
43
0.0000000001
44
0.0000000001
40
-0.052414404447739531
40
-0.052414404447739531
40
-0.052414404447739531
40
-0.052414404447739531
40
-0.047665784908316675
40
-0.047665784908316675
40
-0.047665784908316675
40
-0.040167090301295547
40
-0.040167090301295547
40
-0.040167090301295547
40
-0.032570907726613987
40
-0.032570907726613987
40
-0.032570907726613987
40
-0.023083389192606385
40
-0.023083389192606385
40
-0.023083389192606385
40
-0.012731230738898716
40
-0.012731230738898716
40
-0.012731230738898716
40
0
40
0
40
0
40
0
10
-3.2435702073221013
20
1.2136681901353412
30
0
10
-3.2548843579511142
20
1.1927314580744683
30
0
10
-3.2673095409758504
20
1.1680735654843371
30
0
10
-3.2823202275192989
20
1.1369418616691691
30
0
10
-3.3060130273370816
20
1.0878037210288773
30
0
10
-3.3353262712753429
20
1.0238343830145222
30
0
10
-3.3620073520189027
20
0.95846111998187067
30
0
10
-3.3890191683028483
20
0.89227749766566378
30
0
10
-3.4121522300694078
20
0.82651317392767676
30
0
10
-3.4291985728544487
20
0.76626772666116183
30
0
10
-3.4505153986880788
20
0.6909294724183549
30
0
10
-3.4639258346650221
20
0.62211701256960428
30
0
10
-3.4767223451648261
20
0.54976542284086727
30
0
10
-3.4906797505525984
20
0.47085012258700587
30
0
10
-3.5036134646169184
20
0.38759752333916653
30
0
10
-3.5125508596527513
20
0.30390130601086818
30
0
10
-3.5235370611965307
20
0.20101858589677615
30
0
10
-3.527590122858645
20
0.099859376063834465
30
0
10
-3.5275590440226101
20
-8.5590567660233044e-06
30
0
0
SPLINE
5
112
100
AcDbEntity
8
0
100
AcDbSpline
70
0
71
3
72
128
73
124
74
0
42
0.000000001
43
0.0000000001
44
0.0000000001
40
-1
40
-1
40
-1
40
-1
40
-0.99487616357016984
40
-0.99487616357016984
40
-0.99487616357016984
40
-0.98298173403963274
40
-0.98298173403963274
40
-0.98298173403963274
40
-0.97331850160321398
40
-0.97331850160321398
40
-0.97331850160321398
40
-0.96372180653249007
40
-0.96372180653249007
40
-0.96372180653249007
40
-0.95162907537665342
40
-0.95162907537665342
40
-0.95162907537665342
40
-0.94503090605122098
40
-0.94503090605122098
40
-0.94503090605122098
40
-0.93816384392698171
40
-0.93816384392698171
40
-0.93816384392698171
40
-0.92933010734512189
40
-0.92933010734512189
40
-0.92933010734512189
40
-0.92220235977622322
40
-0.92220235977622322
40
-0.92220235977622322
40
-0.91522069532546779
40
-0.91522069532546779
40
-0.91522069532546779
40
-0.90855091377362507
40
-0.90855091377362507
40
-0.90855091377362507
40
-0.90189545092501122
40
-0.90189545092501122
40
-0.90189545092501122
40
-0.89486153381535272
40
-0.89486153381535272
40
-0.89486153381535272
40
-0.88758968738169275
40
-0.88758968738169275
40
-0.88758968738169275
40
-0.88083948628111353
40
-0.88083948628111353
40
-0.88083948628111353
40
-0.87425713602188471
40
-0.87425713602188471
40
-0.87425713602188471
40
-0.86783829450005401
40
-0.86783829450005401
40
-0.86783829450005401
40
-0.86076549794015245
40
-0.86076549794015245
40
-0.86076549794015245
40
-0.85148319780282933
40
-0.85148319780282933
40
-0.85148319780282933
40
-0.84323436679860653
40
-0.84323436679860653
40
-0.84323436679860653
40
-0.83401926117105596
40
-0.83401926117105596
40
-0.83401926117105596
40
-0.82295387858245972
40
-0.82295387858245972
40
-0.82295387858245972
40
-0.81359719105613892
40
-0.81359719105613892
40
-0.81359719105613892
40
-0.80117033712654817
40
-0.80117033712654817
40
-0.80117033712654817
40
-0.787915026268318
40
-0.787915026268318
40
-0.787915026268318
40
-0.77652613433563356
40
-0.77652613433563356
40
-0.77652613433563356
40
-0.75954789297793635
40
-0.75954789297793635
40
-0.75954789297793635
40
-0.73763817357932582
40
-0.73763817357932582
40
-0.73763817357932582
40
-0.72364414611683958
40
-0.72364414611683958
40
-0.72364414611683958
40
-0.71350971863341295
40
-0.71350971863341295
40
-0.71350971863341295
40
-0.7048161302887801
40
-0.7048161302887801
40
-0.7048161302887801
40
-0.69416726661111405
40
-0.69416726661111405
40
-0.69416726661111405
40
-0.68299944751945052
40
-0.68299944751945052
40
-0.68299944751945052
40
-0.67267042883028771
40
-0.67267042883028771
40
-0.67267042883028771
40
-0.66489400639401419
40
-0.66489400639401419
40
-0.66489400639401419
40
-0.65762945205207068
40
-0.65762945205207068
40
-0.65762945205207068
40
-0.64991853705496005
40
-0.64991853705496005
40
-0.64991853705496005
40
-0.6443283961578169
40
-0.6443283961578169
40
-0.6443283961578169
40
-0.63823255957401359
40
-0.63823255957401359
40
-0.63823255957401359
40
-0.6317566024548833
40
-0.6317566024548833
40
-0.6317566024548833
40
-0.62511992922692627
40
-0.62511992922692627
40
-0.62511992922692627
40
-0.62511992922692627
10
-3.5275590440226101
20
-8.5590567679499673e-06
30
0
10
-3.5275465348850075
20
-0.040205101223575485
30
0
10
-3.526890298178373
20
-0.080398675994514321
30
0
10
-3.5254130727968365
20
-0.12096028684658218
30
0
10
-3.5219868019340872
20
-0.21503873089830047
30
0
10
-3.5131189275260404
20
-0.31246246290611529
30
0
10
-3.4996376248459815
20
-0.4075790277221793
30
0
10
-3.4886688974321043
20
-0.48496826055611553
30
0
10
-3.47610802250085
20
-0.55877602215785727
30
0
10
-3.4613437222637446
20
-0.63112816957674611
30
0
10
-3.4467025402108709
20
-0.70287697888462508
30
0
10
-3.4283348491090733
20
-0.77586215917811874
30
0
10
-3.4002309528251624
20
-0.85729513422384951
30
0
10
-3.3648337422314953
20
-0.95986098978505063
30
0
10
-3.3127826507797362
20
-1.0770091780588467
30
0
10
-3.2757322940152971
20
-1.151552199983332
30
0
10
-3.2555028325835909
20
-1.1922526228324744
30
0
10
-3.2403407842321981
20
-1.2194879653809165
30
0
10
-3.2279593328378988
20
-1.2404144957754129
30
0
10
-3.2149914899548273
20
-1.262332116707042
30
0
10
-3.2041706391163509
20
-1.2798887560591372
30
0
10
-3.1874957794885108
20
-1.3048432138779769
30
0
10
-3.166201884045551
20
-1.3367102057141738
30
0
10
-3.1342794652935422
20
-1.379718153162703
30
0
10
-3.1056846996639265
20
-1.4154335996954333
30
0
10
-3.0825840964173015
20
-1.4442867251525664
30
0
10
-3.0629390324401471
20
-1.4671424555602846
30
0
10
-3.040693457558175
20
-1.4903451281374172
30
0
10
-3.0188758777948053
20
-1.5131013914554401
30
0
10
-2.9926773792299568
20
-1.5383705556426424
30
0
10
-2.9689695461019556
20
-1.5608637678554131
30
0
10
-2.946321585289267
20
-1.5823514080794649
30
0
10
-2.9283695045013074
20
-1.5990025567345398
30
0
10
-2.9086902943504662
20
-1.6152357401912329
30
0
10
-2.8890465125795952
20
-1.6314396991319409
30
0
10
-2.8652006426646834
20
-1.6493031506809286
30
0
10
-2.8412761267952762
20
-1.6663865368067465
30
0
10
-2.8160214620056876
20
-1.6844197205264777
30
0
10
-2.7934243341687472
20
-1.6994546263652119
30
0
10
-2.7678070664984253
20
-1.7148212352363366
30
0
10
-2.7412594308498428
20
-1.730745928639041
30
0
10
-2.7088867546541353
20
-1.7489095440811318
30
0
10
-2.6808943048600407
20
-1.7641391071094228
30
0
10
-2.6549491574717465
20
-1.7782548154641689
30
0
10
-2.6346595395011687
20
-1.7886375338717075
30
0
10
-2.6092863452438468
20
-1.8003197879940289
30
0
10
-2.5844911739955769
20
-1.8117359104022341
30
0
10
-2.5526164634042918
20
-1.8256325970869673
30
0
10
-2.5200585207091288
20
-1.838999570422333
30
0
10
-2.4883479428602109
20
-1.8520186500528928
30
0
10
-2.4586837496239728
20
-1.8632329553008606
30
0
10
-2.4285504880607447
20
-1.8728289866834396
30
0
10
-2.3952780926950727
20
-1.8834246850426311
30
0
10
-2.3581060794682647
20
-1.8934450357479515
30
0
10
-2.3105620490278036
20
-1.9056001012361403
30
0
10
-2.2482039290937701
20
-1.9215425239650608
30
0
10
-2.1715494491948619
20
-1.9399171813818037
30
0
10
-2.1016239718016303
20
-1.9535121086045837
30
0
10
-2.0394855854531819
20
-1.9655930678148801
30
0
10
-1.9824497061367716
20
-1.9739336939135348
30
0
10
-1.9242049254628808
20
-1.9806937043044033
30
0
10
-1.8590695374616748
20
-1.9882534529137539
30
0
10
-1.7897666373569796
20
-1.9947157852083017
30
0
10
-1.711573780766863
20
-2.0010971252120231
30
0
10
-1.6177520087670461
20
-2.0087539451952199
30
0
10
-1.511912518358685
20
-2.0153714732282997
30
0
10
-1.4143527298044545
20
-2.019195735156456
30
0
10
-1.3318302390877614
20
-2.0224305476149622
30
0
10
-1.2573663939647763
20
-2.0238757419004596
30
0
10
-1.1961702634485496
20
-2.0247258414536962
30
0
10
-1.1148438480062552
20
-2.0258555787238572
30
0
10
-1.0533708572070499
20
-2.0265041355578011
30
0
10
-0.98082180635072946
20
-2.0275643349090546
30
0
10
-0.90355956622413613
20
-2.028693410698355
30
0
10
-0.81447041407116982
20
-2.0290674806074511
30
0
10
-0.72505039871879817
20
-2.0288418886482273
30
0
10
-0.64815866295338265
20
-2.028647903473308
30
0
10
-0.57317298948284723
20
-2.0286271899033643
30
0
10
-0.4971815264502471
20
-2.0286831563058292
30
0
10
-0.38395128292805458
20
-2.0287665484281439
30
0
10
-0.26429053405747321
20
-2.0282222361841704
30
0
10
-0.14742435322975786
20
-2.0278288185003377
30
0
10
0.0034311841303746385
20
-2.0273209792291196
30
0
10
0.15354200804061632
20
-2.0279050353379082
30
0
10
0.30427043296258582
20
-2.0284285041958094
30
0
10
0.40050597494644619
20
-2.0287627232343075
30
0
10
0.49881477412507064
20
-2.0286300255355441
30
0
10
0.59107429695600811
20
-2.0286252371704911
30
0
10
0.65791734525736567
20
-2.0286217679468628
30
0
10
0.71918844362118839
20
-2.0289317150267614
30
0
10
0.78653555323595481
20
-2.0289602847933845
30
0
10
0.84428162660748007
20
-2.0289847816403777
30
0
10
0.90916234796261541
20
-2.0286120235585465
30
0
10
0.9815943780838694
20
-2.0277733083504321
30
0
10
1.07034612371039
20
-2.026745621584245
30
0
10
1.1665870994146235
20
-2.0253903075199431
30
0
10
1.2558786407611164
20
-2.0237412633459733
30
0
10
1.3494787522859537
20
-2.0220126481124874
30
0
10
1.4383348013249273
20
-2.0193973944888595
30
0
10
1.5343568604566065
20
-2.0135139963679167
30
0
10
1.6231918637062246
20
-2.0080709586334722
30
0
10
1.7178185407636328
20
-2.0001346176804473
30
0
10
1.8001680770037698
20
-1.9928738835210467
30
0
10
1.8621869814309591
20
-1.9874056951321042
30
0
10
1.9155799891421861
20
-1.9826269111429733
30
0
10
1.9687787900297506
20
-1.9757737125833139
30
0
10
2.0184088415749666
20
-1.9693802489696444
30
0
10
2.0706450213047147
20
-1.9603918195275105
30
0
10
2.1297684375796671
20
-1.9478762844097184
30
0
10
2.1925439096430206
20
-1.9345876641870448
30
0
10
2.2619050565094425
20
-1.9177325192375871
30
0
10
2.3128299806843153
20
-1.9048266947563088
30
0
10
2.349757172179785
20
-1.8954682939388516
30
0
10
2.3754767639984347
20
-1.8886129635981286
30
0
10
2.3942032381865777
20
-1.8831645392616145
30
0
10
2.4146459769921362
20
-1.8772167717056845
30
0
10
2.4302858437591572
20
-1.8719936880224874
30
0
10
2.4536098078905835
20
-1.8637884969809937
30
0
10
2.4782881193564381
20
-1.8551068569725526
30
0
10
2.5092552379323405
20
-1.8435173045729851
30
0
10
2.5374829918186852
20
-1.8317195478572217
30
0
10
2.5664881273223252
20
-1.8195968854038964
30
0
10
2.5923791936409653
20
-1.8077174954985669
30
0
10
2.6165039104423831
20
-1.7961243712300463
30
0
0
LINE
5
113
100
AcDbEntity
8
0
100
AcDbLine
10
2.6165039104423831
20
-1.7961243712300463
30
0
11
2.6165036895266023
21
-1.4149314725479794
31
0
0
ARC
5
114
100
AcDbEntity
8
0
100
AcDbCircle
10
2.419653295825849
20
-1.4149315866302674
30
0
40
0.19685039370078652
100
AcDbArc
50
3.319851369894514e-05
51
62.322050951527281
0
LINE
5
115
100
AcDbEntity
8
0
100
AcDbLine
10
2.5110905511811019
20
-1.2406062992125986
30
0
11
1.0809838582677169
21
-1.749550787401575
31
0
0
LINE
5
116
100
AcDbEntity
8
0
100
AcDbLine
10
1.0809838582677169
20
-1.749550787401575
30
0
11
-1.255236614173189
21
-1.749550787401575
31
0
0
LINE
5
117
100
AcDbEntity
8
0
100
AcDbLine
10
-1.255236614173189
20
-1.749550787401575
30
0
11
-2.5250433070866141
21
-1.241393700787401
31
0
0
LINE
5
118
100
AcDbEntity
8
0
100
AcDbLine
10
-2.5250433070866141
20
-1.241393700787401
30
0
11
-2.5250433070866141
21
1.3645467146356325
31
0
0
ARC
5
119
100
AcDbEntity
8
0
100
AcDbCircle
10
-2.1364999999999985
20
1.794
30
0
40
0.57913385826771779
100
AcDbArc
50
184.51589282565493
51
227.86311430570282
0
SPLINE
5
120
100
AcDbEntity
8
0
100
AcDbSpline
70
0
71
3
72
17
73
13
74
0
42
0.000000001
43
0.0000000001
44
0.0000000001
40
-0.11118845081210167
40
-0.11118845081210167
40
-0.11118845081210167
40
-0.11118845081210167
40
-0.10694558908598652
40
-0.10694558908598652
40
-0.10694558908598652
40
-0.099843262757986495
40
-0.099843262757986495
40
-0.099843262757986495
40
-0.091686494955796283
40
-0.091686494955796283
40
-0.091686494955796283
40
-0.09062548118827371
40
-0.09062548118827371
40
-0.09062548118827371
40
-0.09062548118827371
10
-2.7138359558702554
20
1.7484015367426744
30
0
10
-2.726124140869822
20
1.7411143650161185
30
0
10
-2.7384602260377231
20
1.7334243688145108
30
0
10
-2.7509180678408578
20
1.7255407273177652
30
0
10
-2.7717806145861297
20
1.712338373182281
30
0
10
-2.7891215015849236
20
1.7010788455157104
30
0
10
-2.8080984267420019
20
1.688239392371446
30
0
10
-2.8297585979712632
20
1.6735845022197029
30
0
10
-2.8562416360446266
20
1.6543878097691613
30
0
10
-2.8800727000963255
20
1.6355084302039782
30
0
10
-2.8831989655283792
20
1.63303174886129
30
0
10
-2.8862468448614362
20
1.630608685104755
30
0
10
-2.8892391407271227
20
1.6282183563466694
30
0
0
LINE
5
121
100
AcDbEntity
8
0
100
AcDbLine
10
-2.8892392118294969
20
1.6282184453530406
30
0
11
-2.8892392118294969
21
-1.0644312293732372
31
0
0
LINE
5
122
100
AcDbEntity
8
0
100
AcDbLine
10
-2.8892392118294969
20
-1.0644312293732372
30
0
11
-3.2435699204909136
21
-1.0644312293732372
31
0
0
LINE
5
123
100
AcDbEntity
8
0
100
AcDbLine
10
2.6012797730903174
20
1.9147783656854465
30
0
11
2.7048679364373465
21
1.8770753576047898
31
0
0
ARC
5
124
100
AcDbEntity
8
0
100
AcDbCircle
10
2.6585470222581851
20
1.7498096918491619
30
0
40
0.13543329269650237
100
AcDbArc
50
-22.147391136403339
51
69.999999999983586
0
SPLINE
5
125
100
AcDbEntity
8
0
100
AcDbSpline
70
0
71
3
72
86
73
82
74
0
42
0.000000001
43
0.0000000001
44
0.0000000001
40
0.39676580439415049
40
0.39676580439415049
40
0.39676580439415049
40
0.39676580439415049
40
0.40412607078929158
40
0.40412607078929158
40
0.40412607078929158
40
0.41434255394731256
40
0.41434255394731256
40
0.41434255394731256
40
0.42269821832252397
40
0.42269821832252397
40
0.42269821832252397
40
0.42932051496280627
40
0.42932051496280627
40
0.42932051496280627
40
0.43540215538830668
40
0.43540215538830668
40
0.43540215538830668
40
0.44144934200890656
40
0.44144934200890656
40
0.44144934200890656
40
0.44734905435350109
40
0.44734905435350109
40
0.44734905435350109
40
0.45446479061934475
40
0.45446479061934475
40
0.45446479061934475
40
0.46112412293710098
40
0.46112412293710098
40
0.46112412293710098
40
0.46806892054470978
40
0.46806892054470978
40
0.46806892054470978
40
0.47716075729042173
40
0.47716075729042173
40
0.47716075729042173
40
0.48578273491300222
40
0.48578273491300222
40
0.48578273491300222
40
0.49666973832239159
40
0.49666973832239159
40
0.49666973832239159
40
0.50964276417413301
40
0.50964276417413301
40
0.50964276417413301
40
0.52019875202113652
40
0.52019875202113652
40
0.52019875202113652
40
0.52868907232113116
40
0.52868907232113116
40
0.52868907232113116
40
0.53642785907819512
40
0.53642785907819512
40
0.53642785907819512
40
0.54299559284958288
40
0.54299559284958288
40
0.54299559284958288
40
0.5501362867113081
40
0.5501362867113081
40
0.5501362867113081
40
0.55543146975027058
40
0.55543146975027058
40
0.55543146975027058
40
0.56081010285259858
40
0.56081010285259858
40
0.56081010285259858
40
0.56718828804685362
40
0.56718828804685362
40
0.56718828804685362
40
0.57395097104612158
40
0.57395097104612158
40
0.57395097104612158
40
0.5806079871235259
40
0.5806079871235259
40
0.5806079871235259
40
0.58716098732472077
40
0.58716098732472077
40
0.58716098732472077
40
0.59396248097461379
40
0.59396248097461379
40
0.59396248097461379
40
0.6019572089486509
40
0.6019572089486509
40
0.6019572089486509
40
0.6019572089486509
10
2.7839876575302505
20
1.6987526277623921
30
0
10
2.8154181737045394
20
1.6794329894622124
30
0
10
2.8467409085548585
20
1.6588367757108129
30
0
10
2.8763110120316169
20
1.637978034820073
30
0
10
2.9170599732010909
20
1.6092337315318219
30
0
10
2.9549011246000076
20
1.5768542280186675
30
0
10
2.9865648488989134
20
1.5457849027019737
30
0
10
3.0126625552494111
20
1.5201771087176388
30
0
10
3.034186415663839
20
1.4976989557928495
30
0
10
3.0538415785604052
20
1.476361791302242
30
0
10
3.0693230839447225
20
1.4595554474074726
30
0
10
3.0848962862896285
20
1.4414881406922664
30
0
10
3.1024829002163754
20
1.4197841006358884
30
0
10
3.1186702050043711
20
1.399806979799163
30
0
10
3.1349874090996948
20
1.3789920167024241
30
0
10
3.1479352037129567
20
1.3616484218852487
30
0
10
3.1607531043256047
20
1.3444788203219913
30
0
10
3.1717598573855477
20
1.3282902218936004
30
0
10
3.1852875444871875
20
1.3073898456459407
30
0
10
3.198525444866426
20
1.2869371920196166
30
0
10
3.2128727769877981
20
1.2644055814525512
30
0
10
3.2241758732622099
20
1.2462152106803797
30
0
10
3.2377523769372361
20
1.2243661854537644
30
0
10
3.2480329503342165
20
1.206398991225921
30
0
10
3.2661956434677828
20
1.169797629048938
30
0
10
3.2832002998091516
20
1.1355299364293177
30
0
10
3.3073684703982766
20
1.0845356536487885
30
0
10
3.3331211733793356
20
1.0258495653476549
30
0
10
3.3599631136275998
20
0.96468128810926013
30
0
10
3.3870190468811501
20
0.89780298075644061
30
0
10
3.4073824716844809
20
0.83800159669041929
30
0
10
3.4340472440968925
20
0.75969500968611325
30
0
10
3.4498174008344158
20
0.69251365996007275
30
0
10
3.462581351873482
20
0.62629304892508708
30
0
10
3.4747084655274163
20
0.56337641176498543
30
0
10
3.4856009259437339
20
0.49880737714656237
30
0
10
3.4960056633190066
20
0.42974884975600375
30
0
10
3.5091197097681972
20
0.34270804293422436
30
0
10
3.5191822938285013
20
0.25147942774148196
30
0
10
3.5235958738601965
20
0.16471381872046079
30
0
10
3.5288670010816054
20
0.061089876182099177
30
0
10
3.5292410373690219
20
-0.037110821908401176
30
0
10
3.5249794524107947
20
-0.14006005566506419
30
0
10
3.5215200604342516
20
-0.22363031338374451
30
0
10
3.5128237752814409
20
-0.31176986143055713
30
0
10
3.5004726009558529
20
-0.39743219116276651
30
0
10
3.4905206954533448
20
-0.4664542443009464
30
0
10
3.4795961736543854
20
-0.53189861625965595
30
0
10
3.4686867448613889
20
-0.59355788909804641
30
0
10
3.4587504579872594
20
-0.64971703684057069
30
0
10
3.4483239223035569
20
-0.70379257422359132
30
0
10
3.4306258428404885
20
-0.765663048750574
30
0
10
3.4156215451045457
20
-0.81811636849095337
30
0
10
3.3946441945540795
20
-0.87728929907398201
30
0
10
3.3695464172998748
20
-0.93895980029335269
30
0
10
3.3422464806180279
20
-1.0060414689755666
30
0
10
3.3111450335649564
20
-1.0742719037544761
30
0
10
3.2880697434850337
20
-1.1233589571634415
30
0
10
3.2709498867554996
20
-1.1597772781780782
30
0
10
3.2587988556909968
20
-1.1847212760084109
30
0
10
3.2497144242486806
20
-1.2022149822577424
30
0
10
3.2405234545242925
20
-1.2199138471262672
30
0
10
3.2330868448310071
20
-1.2322464216447055
30
0
10
3.2220957227643856
20
-1.249863082086585
30
0
10
3.2090209981544962
20
-1.2708193577450093
30
0
10
3.1921735513677754
20
-1.2976786093629056
30
0
10
3.178422870980671
20
-1.3187459061721001
30
0
10
3.1639552749984214
20
-1.340911583076305
30
0
10
3.1508286540221522
20
-1.358630975812303
30
0
10
3.1296828095829978
20
-1.3848738224731714
30
0
10
3.1088060262689763
20
-1.4107827534150641
30
0
10
3.0819874247346029
20
-1.4433106474156578
30
0
10
3.0627964787112671
20
-1.4658060502104018
30
0
10
3.0439798583458426
20
-1.4878626728407451
30
0
10
3.0316861607473529
20
-1.5006131658018174
30
0
10
3.0123321649116921
20
-1.5192370214624633
30
0
10
2.9921475399861595
20
-1.5386601702721134
30
0
10
2.9632915232157457
20
-1.5660581624899534
30
0
10
2.9394203399255496
20
-1.5879607481121305
30
0
10
2.9114549026009913
20
-1.6136199447265831
30
0
10
2.8922526912108686
20
-1.629177306906882
30
0
10
2.8665035213960697
20
-1.6479399973996789
30
0
0
LINE
5
126
100
AcDbEntity
8
0
100
AcDbLine
10
2.8665035213960697
20
-1.6479399973996789
30
0
11
2.8665035213960688
21
-0.86048703477375177
31
0
0
LINE
5
127
100
AcDbEntity
8
0
100
AcDbLine
10
2.8665035213960688
20
-0.86048703477375177
30
0
11
2.5110905511811019
21
-1.2406062992125986
31
0
0
ARC
5
128
100
AcDbEntity
8
0
100
AcDbCircle
10
2.419653295825849
20
-1.4149315866302674
30
0
40
0.19685039370078616
100
AcDbArc
50
3.319851369894514e-05
51
62.322050951527281
0
LINE
5
129
100
AcDbEntity
8
0
100
AcDbLine
10
2.6165036895266018
20
-1.4149314725479791
30
0
11
2.6165039104423831
21
-1.7961243712300463
31
0
0
SPLINE
5
130
100
AcDbEntity
8
0
100
AcDbSpline
70
0
71
3
72
128
73
124
74
0
42
0.000000001
43
0.0000000001
44
0.0000000001
40
0.62511992922692627
40
0.62511992922692627
40
0.62511992922692627
40
0.62511992922692627
40
0.6317566024548833
40
0.6317566024548833
40
0.6317566024548833
40
0.63823255957401359
40
0.63823255957401359
40
0.63823255957401359
40
0.6443283961578169
40
0.6443283961578169
40
0.6443283961578169
40
0.64991853705496005
40
0.64991853705496005
40
0.64991853705496005
40
0.65762945205207068
40
0.65762945205207068
40
0.65762945205207068
40
0.66489400639401419
40
0.66489400639401419
40
0.66489400639401419
40
0.67267042883028771
40
0.67267042883028771
40
0.67267042883028771
40
0.68299944751945052
40
0.68299944751945052
40
0.68299944751945052
40
0.69416726661111405
40
0.69416726661111405
40
0.69416726661111405
40
0.7048161302887801
40
0.7048161302887801
40
0.7048161302887801
40
0.71350971863341295
40
0.71350971863341295
40
0.71350971863341295
40
0.72364414611683958
40
0.72364414611683958
40
0.72364414611683958
40
0.73763817357932582
40
0.73763817357932582
40
0.73763817357932582
40
0.75954789297793635
40
0.75954789297793635
40
0.75954789297793635
40
0.77652613433563356
40
0.77652613433563356
40
0.77652613433563356
40
0.787915026268318
40
0.787915026268318
40
0.787915026268318
40
0.80117033712654817
40
0.80117033712654817
40
0.80117033712654817
40
0.81359719105613892
40
0.81359719105613892
40
0.81359719105613892
40
0.82295387858245972
40
0.82295387858245972
40
0.82295387858245972
40
0.83401926117105596
40
0.83401926117105596
40
0.83401926117105596
40
0.84323436679860653
40
0.84323436679860653
40
0.84323436679860653
40
0.85148319780282933
40
0.85148319780282933
40
0.85148319780282933
40
0.86076549794015245
40
0.86076549794015245
40
0.86076549794015245
40
0.86783829450005401
40
0.86783829450005401
40
0.86783829450005401
40
0.87425713602188471
40
0.87425713602188471
40
0.87425713602188471
40
0.88083948628111353
40
0.88083948628111353
40
0.88083948628111353
40
0.88758968738169275
40
0.88758968738169275
40
0.88758968738169275
40
0.89486153381535272
40
0.89486153381535272
40
0.89486153381535272
40
0.90189545092501122
40
0.90189545092501122
40
0.90189545092501122
40
0.90855091377362507
40
0.90855091377362507
40
0.90855091377362507
40
0.91522069532546779
40
0.91522069532546779
40
0.91522069532546779
40
0.92220235977622322
40
0.92220235977622322
40
0.92220235977622322
40
0.92933010734512189
40
0.92933010734512189
40
0.92933010734512189
40
0.93816384392698171
40
0.93816384392698171
40
0.93816384392698171
40
0.94503090605122098
40
0.94503090605122098
40
0.94503090605122098
40
0.95162907537665342
40
0.95162907537665342
40
0.95162907537665342
40
0.96372180653249007
40
0.96372180653249007
40
0.96372180653249007
40
0.97331850160321398
40
0.97331850160321398
40
0.97331850160321398
40
0.98298173403963274
40
0.98298173403963274
40
0.98298173403963274
40
0.99487616357016984
40
0.99487616357016984
40
0.99487616357016984
40
1
40
1
40
1
40
1
10
2.6165039104423831
20
-1.7961243712300463
30
0
10
2.5923791936409653
20
-1.8077174954985669
30
0
10
2.5664881273223252
20
-1.8195968854038964
30
0
10
2.5374829918186852
20
-1.8317195478572217
30
0
10
2.5092552379323405
20
-1.8435173045729851
30
0
10
2.4782881193564381
20
-1.8551068569725526
30
0
10
2.4536098078905835
20
-1.8637884969809937
30
0
10
2.4302858437591572
20
-1.8719936880224874
30
0
10
2.4146459769921362
20
-1.8772167717056845
30
0
10
2.3942032381865777
20
-1.8831645392616145
30
0
10
2.3754767639984347
20
-1.8886129635981286
30
0
10
2.349757172179785
20
-1.8954682939388516
30
0
10
2.3128299806843153
20
-1.9048266947563088
30
0
10
2.2619050565094425
20
-1.9177325192375871
30
0
10
2.1925439096430206
20
-1.9345876641870448
30
0
10
2.1297684375796671
20
-1.9478762844097184
30
0
10
2.0706450213047147
20
-1.9603918195275105
30
0
10
2.0184088415749666
20
-1.9693802489696444
30
0
10
1.9687787900297506
20
-1.9757737125833139
30
0
10
1.9155799891421861
20
-1.9826269111429733
30
0
10
1.8621869814309591
20
-1.9874056951321042
30
0
10
1.8001680770037698
20
-1.9928738835210467
30
0
10
1.7178185407636328
20
-2.0001346176804473
30
0
10
1.6231918637062246
20
-2.0080709586334722
30
0
10
1.5343568604566065
20
-2.0135139963679167
30
0
10
1.4383348013249273
20
-2.0193973944888595
30
0
10
1.3494787522859537
20
-2.0220126481124874
30
0
10
1.2558786407611164
20
-2.0237412633459733
30
0
10
1.1665870994146235
20
-2.0253903075199431
30
0
10
1.07034612371039
20
-2.026745621584245
30
0
10
0.9815943780838694
20
-2.0277733083504321
30
0
10
0.90916234796261541
20
-2.0286120235585465
30
0
10
0.84428162660748007
20
-2.0289847816403777
30
0
10
0.78653555323595481
20
-2.0289602847933845
30
0
10
0.71918844362118839
20
-2.0289317150267614
30
0
10
0.65791734525736567
20
-2.0286217679468628
30
0
10
0.59107429695600811
20
-2.0286252371704911
30
0
10
0.49881477412507064
20
-2.0286300255355441
30
0
10
0.40050597494644619
20
-2.0287627232343075
30
0
10
0.30427043296258582
20
-2.0284285041958094
30
0
10
0.15354200804061632
20
-2.0279050353379082
30
0
10
0.0034311841303746385
20
-2.0273209792291196
30
0
10
-0.14742435322975786
20
-2.0278288185003377
30
0
10
-0.26429053405747321
20
-2.0282222361841704
30
0
10
-0.38395128292805458
20
-2.0287665484281439
30
0
10
-0.4971815264502471
20
-2.0286831563058292
30
0
10
-0.57317298948284723
20
-2.0286271899033643
30
0
10
-0.64815866295338265
20
-2.028647903473308
30
0
10
-0.72505039871879817
20
-2.0288418886482273
30
0
10
-0.81447041407116982
20
-2.0290674806074511
30
0
10
-0.90355956622413613
20
-2.028693410698355
30
0
10
-0.98082180635072946
20
-2.0275643349090546
30
0
10
-1.0533708572070499
20
-2.0265041355578011
30
0
10
-1.1148438480062552
20
-2.0258555787238572
30
0
10
-1.1961702634485496
20
-2.0247258414536962
30
0
10
-1.2573663939647763
20
-2.0238757419004596
30
0
10
-1.3318302390877614
20
-2.0224305476149622
30
0
10
-1.4143527298044545
20
-2.019195735156456
30
0
10
-1.511912518358685
20
-2.0153714732282997
30
0
10
-1.6177520087670461
20
-2.0087539451952199
30
0
10
-1.711573780766863
20
-2.0010971252120231
30
0
10
-1.7897666373569796
20
-1.9947157852083017
30
0
10
-1.8590695374616748
20
-1.9882534529137539
30
0
10
-1.9242049254628808
20
-1.9806937043044033
30
0
10
-1.9824497061367716
20
-1.9739336939135348
30
0
10
-2.0394855854531819
20
-1.9655930678148801
30
0
10
-2.1016239718016303
20
-1.9535121086045837
30
0
10
-2.1715494491948619
20
-1.9399171813818037
30
0
10
-2.2482039290937701
20
-1.9215425239650608
30
0
10
-2.3105620490278036
20
-1.9056001012361403
30
0
10
-2.3581060794682647
20
-1.8934450357479515
30
0
10
-2.3952780926950727
20
-1.8834246850426311
30
0
10
-2.4285504880607447
20
-1.8728289866834396
30
0
10
-2.4586837496239728
20
-1.8632329553008606
30
0
10
-2.4883479428602109
20
-1.8520186500528928
30
0
10
-2.5200585207091288
20
-1.838999570422333
30
0
10
-2.5526164634042918
20
-1.8256325970869673
30
0
10
-2.5844911739955769
20
-1.8117359104022341
30
0
10
-2.6092863452438468
20
-1.8003197879940289
30
0
10
-2.6346595395011687
20
-1.7886375338717075
30
0
10
-2.6549491574717465
20
-1.7782548154641689
30
0
10
-2.6808943048600407
20
-1.7641391071094228
30
0
10
-2.7088867546541353
20
-1.7489095440811318
30
0
10
-2.7412594308498428
20
-1.730745928639041
30
0
10
-2.7678070664984253
20
-1.7148212352363366
30
0
10
-2.7934243341687472
20
-1.6994546263652119
30
0
10
-2.8160214620056876
20
-1.6844197205264777
30
0
10
-2.8412761267952762
20
-1.6663865368067465
30
0
10
-2.8652006426646834
20
-1.6493031506809286
30
0
10
-2.8890465125795952
20
-1.6314396991319409
30
0
10
-2.9086902943504662
20
-1.6152357401912329
30
0
10
-2.9283695045013074
20
-1.5990025567345398
30
0
10
-2.946321585289267
20
-1.5823514080794649
30
0
10
-2.9689695461019556
20
-1.5608637678554131
30
0
10
-2.9926773792299568
20
-1.5383705556426424
30
0
10
-3.0188758777948053
20
-1.5131013914554401
30
0
10
-3.040693457558175
20
-1.4903451281374172
30
0
10
-3.0629390324401471
20
-1.4671424555602846
30
0
10
-3.0825840964173015
20
-1.4442867251525664
30
0
10
-3.1056846996639265
20
-1.4154335996954333
30
0
10
-3.1342794652935422
20
-1.379718153162703
30
0
10
-3.166201884045551
20
-1.3367102057141738
30
0
10
-3.1874957794885108
20
-1.3048432138779769
30
0
10
-3.2041706391163509
20
-1.2798887560591372
30
0
10
-3.2149914899548273
20
-1.262332116707042
30
0
10
-3.2279593328378988
20
-1.2404144957754129
30
0
10
-3.2403407842321981
20
-1.2194879653809165
30
0
10
-3.2555028325835909
20
-1.1922526228324744
30
0
10
-3.2757322940152971
20
-1.151552199983332
30
0
10
-3.3127826507797362
20
-1.0770091780588467
30
0
10
-3.3648337422314953
20
-0.95986098978505063
30
0
10
-3.4002309528251624
20
-0.85729513422384951
30
0
10
-3.4283348491090733
20
-0.77586215917811874
30
0
10
-3.4467025402108709
20
-0.70287697888462508
30
0
10
-3.4613437222637446
20
-0.63112816957674611
30
0
10
-3.47610802250085
20
-0.55877602215785727
30
0
10
-3.4886688974321043
20
-0.48496826055611553
30
0
10
-3.4996376248459815
20
-0.4075790277221793
30
0
10
-3.5131189275260404
20
-0.31246246290611529
30
0
10
-3.5219868019340872
20
-0.21503873089830047
30
0
10
-3.5254130727968365
20
-0.12096028684658218
30
0
10
-3.526890298178373
20
-0.080398675994514321
30
0
10
-3.5275465348850075
20
-0.040205101223575485
30
0
10
-3.5275590440226101
20
-8.5590567678740443e-06
30
0
0
SPLINE
5
131
100
AcDbEntity
8
0
100
AcDbSpline
70
0
71
3
72
23
73
19
74
0
42
0.000000001
43
0.0000000001
44
0.0000000001
40
0
40
0
40
0
40
0
40
0.012731230738898716
40
0.012731230738898716
40
0.012731230738898716
40
0.023083389192606385
40
0.023083389192606385
40
0.023083389192606385
40
0.032570907726613987
40
0.032570907726613987
40
0.032570907726613987
40
0.040167090301295547
40
0.040167090301295547
40
0.040167090301295547
40
0.047665784908316675
40
0.047665784908316675
40
0.047665784908316675
40
0.052414404447739586
40
0.052414404447739586
40
0.052414404447739586
40
0.052414404447739586
10
-3.5275590440226101
20
-8.5590567659473815e-06
30
0
10
-3.527590122858645
20
0.099859376063834465
30
0
10
-3.5235370611965307
20
0.20101858589677615
30
0
10
-3.5125508596527513
20
0.30390130601086818
30
0
10
-3.5036134646169184
20
0.38759752333916653
30
0
10
-3.4906797505525984
20
0.47085012258700587
30
0
10
-3.4767223451648261
20
0.54976542284086727
30
0
10
-3.4639258346650221
20
0.62211701256960428
30
0
10
-3.4505153986880788
20
0.6909294724183549
30
0
10
-3.4291985728544487
20
0.76626772666116183
30
0
10
-3.4121522300694078
20
0.82651317392767676
30
0
10
-3.3890191683028483
20
0.89227749766566378
30
0
10
-3.3620073520189027
20
0.95846111998187067
30
0
10
-3.3353262712753429
20
1.0238343830145222
30
0
10
-3.3060130273370816
20
1.0878037210288773
30
0
10
-3.2823202275192989
20
1.1369418616691691
30
0
10
-3.2673095409758508
20
1.1680735654843375
30
0
10
-3.2548832571453383
20
1.192735142746723
30
0
10
-3.2435702073221018
20
1.2136681901353423
30
0
0
SPLINE
5
132
100
AcDbEntity
8
0
100
AcDbSpline
70
0
71
3
72
11
73
7
74
0
42
0.000000001
43
0.0000000001
44
0.0000000001
40
0.052414404447739586
40
0.052414404447739586
40
0.052414404447739586
40
0.052414404447739586
40
0.054144108330845979
40
0.054144108330845979
40
0.054144108330845979
40
0.056320164167765134
40
0.056320164167765134
40
0.056320164167765134
40
0.056320164167765134
10
-3.2435702073221018
20
1.2136681901353423
30
0
10
-3.2394493831443438
20
1.2212931373547915
30
0
10
-3.2354779675946732
20
1.2284205883840282
30
0
10
-3.2315813267173943
20
1.235190106983816
30
0
10
-3.226682441341763
20
1.2437007952183758
30
0
10
-3.2217398581904062
20
1.2519106500874493
30
0
10
-3.2166013989078435
20
1.2601244590098006
30
0
0
SPLINE
5
133
100
AcDbEntity
8
0
100
AcDbSpline
70
0
71
3
72
20
73
16
74
0
42
0.000000001
43
0.0000000001
44
0.0000000001
40
0
40
0
40
0
40
0
40
0.17579001302411768
40
0.17579001302411768
40
0.35158002604823468
40
0.35158002604823468
40
0.5273700390723528
40
0.5273700390723528
40
0.70316005209647003
40
0.70316005209647003
40
0.87895006512058671
40
0.87895006512058671
40
1.0222352236981289
40
1.0222352236981289
40
1.1655203822756697
40
1.1655203822756697
40
1.1655203822756697
40
1.1655203822756697
10
-2.8892392118294969
20
1.1661652841499959
30
0
10
-2.8892392118294969
20
1.1892348396649719
30
0
10
-2.8937452090122062
20
1.2120838376553456
30
0
10
-2.9112619396033295
20
1.2547685154218728
30
0
10
-2.9241052035199364
20
1.2741961064136316
30
0
10
-2.9565157109664182
20
1.3070347509303559
30
0
10
-2.9757730923800132
20
1.3201318491152974
30
0
10
-3.0182242300776672
20
1.3382072045698685
30
0
10
-3.0410121303476783
20
1.343012651589522
30
0
10
-3.0871472685800012
20
1.3436181158070533
30
0
10
-3.1100534294752187
20
1.3394123444370076
30
0
10
-3.1489970305832387
20
1.3240248150307559
30
0
10
-3.1652740970244224
20
1.3143744692096719
30
0
10
-3.1941819007717132
20
1.2903188158313077
30
0
10
-3.2066291693140019
20
1.2760661819612691
30
0
10
-3.2166017522301074
20
1.26012468001762
30
0
0
LINE
5
134
100
AcDbEntity
8
0
100
AcDbLine
10
-2.8892392118294969
20
1.1661652841499959
30
0
11
-2.8892392118294969
21
1.6282184453530406
31
0
0
SPLINE
5
135
100
AcDbEntity
8
0
100
AcDbSpline
70
0
71
3
72
17
73
13
74
0
42
0.000000001
43
0.0000000001
44
0.0000000001
40
0.090625481188273752
40
0.090625481188273752
40
0.090625481188273752
40
0.090625481188273752
40
0.091686494955796283
40
0.091686494955796283
40
0.091686494955796283
40
0.099843262757986495
40
0.099843262757986495
40
0.099843262757986495
40
0.10694558908598652
40
0.10694558908598652
40
0.10694558908598652
40
0.11118845081210231
40
0.11118845081210231
40
0.11118845081210231
40
0.11118845081210231
10
-2.8892391407271223
20
1.6282183563466703
30
0
10
-2.8862478524194355
20
1.630607822913718
30
0
10
-2.8831989655283787
20
1.6330317488612904
30
0
10
-2.8800727000963255
20
1.6355084302039782
30
0
10
-2.8562416360446266
20
1.6543878097691613
30
0
10
-2.8297585979712632
20
1.6735845022197029
30
0
10
-2.8080984267420019
20
1.688239392371446
30
0
10
-2.7891215015849236
20
1.7010788455157104
30
0
10
-2.7717806145861297
20
1.712338373182281
30
0
10
-2.7509180678408578
20
1.7255407273177652
30
0
10
-2.7384602260377213
20
1.7334243688145119
30
0
10
-2.7261241408698176
20
1.7411143650161212
30
0
10
-2.7138359558702496
20
1.7484015367426782
30
0
0
ARC
5
136
100
AcDbEntity
8
0
100
AcDbCircle
10
-2.1364999999999807
20
1.7939999999999976
30
0
40
0.57913385826773567
100
AcDbArc
50
168.28052131488724
51
184.5158928256543
0
SPLINE
5
137
100
AcDbEntity
8
0
100
AcDbSpline
70
0
71
3
72
8
73
4
74
0
42
0.000000001
43
0.0000000001
44
0.0000000001
40
-0.016510946868655434
40
-0.016510946868655434
40
-0.016510946868655434
40
-0.016510946868655434
40
0
40
0
40
0
40
0
10
-2.7035611255244323
20
1.9116337779339583
30
0
10
-2.7031210064269722
20
1.9137554001002577
30
0
10
-2.7027303985702362
20
1.9158871575655074
30
0
10
-2.7023898142834022
20
1.9180270139316418
30
0
0
SPLINE
5
138
100
AcDbEntity
8
0
100
AcDbSpline
70
0
71
3
72
20
73
16
74
0
42
0.000000001
43
0.0000000001
44
0.0000000001
40
-0.70252716330167231
40
-0.70252716330167231
40
-0.70252716330167231
40
-0.70252716330167231
40
-0.61520729913268202
40
-0.61520729913268202
40
-0.53853831801832053
40
-0.53853831801832053
40
-0.46764410527728356
40
-0.46764410527728356
40
-0.38081302883264462
40
-0.38081302883264462
40
-0.2739550774156192
40
-0.2739550774156192
40
-0.13431263293973808
40
-0.13431263293973808
40
0
40
0
40
0
40
0
10
-2.7023898142834017
20
1.9180270139316402
30
0
10
-2.6998211511369465
20
1.9341656627151274
30
0
10
-2.6986313674400724
20
1.9530551309228257
30
0
10
-2.6997617700906673
20
1.983981807022722
30
0
10
-2.701580950004979
20
1.9948933285108394
30
0
10
-2.7061527454634993
20
2.0116617930357168
30
0
10
-2.7092548894394861
20
2.0193507372266994
30
0
10
-2.7189284113873353
20
2.0352194588576453
30
0
10
-2.7257867878679485
20
2.0425512859749801
30
0
10
-2.7441539728234217
20
2.0559456537050806
30
0
10
-2.7559185278110396
20
2.0609965491291207
30
0
10
-2.7839793295269351
20
2.0680576517478553
30
0
10
-2.8017427406150368
20
2.0689674986335387
30
0
10
-2.8372380943418114
20
2.0636319084895298
30
0
10
-2.8541210974934037
20
2.0577740031313891
30
0
10
-2.8694107320296807
20
2.0490039075027733
30
0
0
SPLINE
5
139
100
AcDbEntity
8
0
100
AcDbSpline
70
0
71
3
72
72
73
68
74
0
42
0.000000001
43
0.0000000001
44
0.0000000001
40
-303.94013371387774
40
-303.94013371387774
40
-303.94013371387774
40
-303.94013371387774
40
-303.75510674546149
40
-303.75510674546149
40
-302.70677424466953
40
-302.70677424466953
40
-301.85659775388217
40
-301.85659775388217
40
-300.33740324932683
40
-300.33740324932683
40
-296.20149104051626
40
-296.20149104051626
40
-274.59880320278546
40
-274.59880320278546
40
-216.86706356249016
40
-216.86706356249016
40
-125.95277443554889
40
-125.95277443554889
40
-68.8223836720001
40
-68.8223836720001
40
-35.974632568065779
40
-35.974632568065779
40
-34.795818974197537
40
-34.795818974197537
40
-33.764310836101032
40
-33.764310836101032
40
-31.909207721356697
40
-31.909207721356697
40
-29.650816237399127
40
-29.650816237399127
40
-26.716434856129752
40
-26.716434856129752
40
-25.749493225719565
40
-25.749493225719565
40
-24.915728970303466
40
-24.915728970303466
40
-24.123398189118358
40
-24.123398189118358
40
-23.453315810300253
40
-23.453315810300253
40
-23.043934164897951
40
-23.043934164897951
40
-22.421672352941027
40
-22.421672352941027
40
-21.220515571171667
40
-21.220515571171667
40
-17.964146918720832
40
-17.964146918720832
40
-17.184066503478768
40
-17.184066503478768
40
-16.837756617909626
40
-16.837756617909626
40
-15.896273095661856
40
-15.896273095661856
40
-14.641696189400752
40
-14.641696189400752
40
-12.88951059946012
40
-12.88951059946012
40
-7.4659680237775188
40
-7.4659680237775188
40
-6.4631545680579539
40
-6.4631545680579539
40
-4.761556747867508
40
-4.761556747867508
40
-3.9601592316189764
40
-3.9601592316189764
40
-2.5000797494782119
40
-2.5000797494782119
40
-2.5000797494782119
40
-2.5000797494782119
10
-2.8694107320298001
20
2.0490039075025903
30
0
10
-2.9261384341816252
20
2.0164650412868581
30
0
10
-2.998999356587996
20
1.9675329647747077
30
0
10
-3.1253136312850773
20
1.8795086984523532
30
0
10
-3.238868473225776
20
1.7801538186264516
30
0
10
-3.3973982345137208
20
1.601506416984855
30
0
10
-3.4743187889326306
20
1.4899088134654384
30
0
10
-3.5075911935631994
20
1.4405003476166598
30
0
10
-3.5347906914283342
20
1.3970359973859692
30
0
10
-3.7058386824454193
20
1.0532155249595379
30
0
10
-3.7496741545288517
20
0.88829540543026975
30
0
10
-3.794982377841404
20
0.72329590462547644
30
0
10
-3.8260566466676655
20
0.53143715557578641
30
0
10
-3.8704525800570355
20
0.21004847239616214
30
0
10
-3.8692440757094864
20
0.0012920046391630947
30
0
10
-3.8576011058907338
20
-0.32034219243849044
30
0
10
-3.8272507895089425
20
-0.52515369413396151
30
0
10
-3.7829479714396239
20
-0.75714398314048004
30
0
10
-3.7499644737451674
20
-0.93706719803535765
30
0
10
-3.5266405832928931
20
-1.4169303801499855
30
0
10
-3.4340435675331813
20
-1.5831263652302685
30
0
10
-3.1907750124954863
20
-1.8265374921180437
30
0
10
-3.1457745149495255
20
-1.8731337959442773
30
0
10
-2.9851064436036472
20
-1.9968762568668625
30
0
10
-2.8979536715001788
20
-2.0477406004081682
30
0
10
-2.8149052974602258
20
-2.0955842731099512
30
0
10
-2.6960382195161139
20
-2.1544222420001193
30
0
10
-2.4700785678232799
20
-2.2295796934128616
30
0
10
-2.2634191750437336
20
-2.279677257233808
30
0
10
-1.9618363286451999
20
-2.3272096011299941
30
0
10
-1.6716334026862465
20
-2.3514821235618206
30
0
10
-1.334970359797069
20
-2.3615979923810331
30
0
10
-1.0052426380823294
20
-2.367313875657338
30
0
10
-0.63352129220679754
20
-2.3664682269196691
30
0
10
-0.46006641312699276
20
-2.3665796419284364
30
0
10
-0.11910739193573566
20
-2.3652860301515579
30
0
10
0.39296262735411447
20
-2.3663972164355513
30
0
10
0.69366738281748963
20
-2.366760159372113
30
0
10
0.75785571547513886
20
-2.3679382325411114
30
0
10
1.0072513421263656
20
-2.3656226008979124
30
0
10
1.2033156835114909
20
-2.363164414787263
30
0
10
1.4738094219331597
20
-2.3571448969303694
30
0
10
1.6006512004803253
20
-2.3487586220484378
30
0
10
1.9990147979340609
20
-2.3155300135598482
30
0
10
2.0628776555041948
20
-2.3040558992346623
30
0
10
2.2018286253458816
20
-2.2805579553390674
30
0
10
2.4345867444364635
20
-2.2274825566878302
30
0
10
2.5626702912107584
20
-2.1841810377517552
30
0
10
2.6262912484326999
20
-2.1631896805878106
30
0
10
2.7541457161231042
20
-2.1054213636923382
30
0
10
2.8064331496621677
20
-2.0808433703549696
30
0
10
3.0526494088528047
20
-1.943364082322244
30
0
10
3.1398281594612381
20
-1.8630274615521336
30
0
10
3.1926853042317118
20
-1.8149735718858897
30
0
10
3.2456958623660164
20
-1.7662078908637551
30
0
10
3.3148358502417459
20
-1.6948676500257329
30
0
10
3.3925256941495827
20
-1.5998566748502667
30
0
10
3.4445625872560854
20
-1.5350031261642956
30
0
10
3.4791930018365456
20
-1.4816590225021626
30
0
10
3.5190635864170488
20
-1.4173824334528125
30
0
10
3.5407509927373932
20
-1.384928133431002
30
0
10
3.7245037324911556
20
-0.98751806683145782
30
0
10
3.7631337138238812
20
-0.85388221942319309
30
0
10
3.8032099435657081
20
-0.64801368496569289
30
0
10
3.8192991727548891
20
-0.55087811526733343
30
0
10
3.8474142669932623
20
-0.36597570758066594
30
0
10
3.8692070617265881
20
-0.19727100218958007
30
0
10
3.8651434429327125
20
0.059844340566343579
30
0
0
SPLINE
5
140
100
AcDbEntity
8
0
100
AcDbSpline
70
0
71
3
72
25
73
21
74
0
42
0.000000001
43
0.0000000001
44
0.0000000001
40
-2.5000797494782119
40
-2.5000797494782119
40
-2.5000797494782119
40
-2.5000797494782119
40
-2.4796847531012913
40
-2.4796847531012913
40
-1.2828899928644404
40
-1.2828899928644404
40
-0.62041132563064438
40
-0.62041132563064438
40
0
40
0
40
0
40
0.64906872989905651
40
0.64906872989905651
40
1.2257804134508206
40
1.2257804134508206
40
2.8632823060448231
40
2.8632823060448231
40
7.254083360943639
40
7.254083360943639
40
10.918451440476701
40
10.918451440476701
40
10.918451440476701
40
10.918451440476701
10
3.8651434429327125
20
0.059844340566343579
30
0
10
3.865086680618337
20
0.063435834418629766
30
0
10
3.8650247901914256
20
0.06704457734461558
30
0
10
3.8610215997486304
20
0.28345306879748727
30
0
10
3.8393896727849999
20
0.44683241702582799
30
0
10
3.7785171833534479
20
0.77705700437056346
30
0
10
3.7555183352229817
20
0.87310368764319879
30
0
10
3.6751943153556064
20
1.0953252624712262
30
0
10
3.6245392288714222
20
1.2070271401452717
30
0
10
3.5893557636525415
20
1.2804515656222359
30
0
10
3.5525471398579103
20
1.3572675369287839
30
0
10
3.5323021589626302
20
1.392869839044407
30
0
10
3.4989101140502692
20
1.4464690481709592
30
0
10
3.4671226634761934
20
1.4948847859296905
30
0
10
3.4046715034156523
20
1.5870982532978861
30
0
10
3.3361068703004801
20
1.6685479525923159
30
0
10
3.1943989789272229
20
1.8228254274452462
30
0
10
3.1284305521851743
20
1.8766706016445034
30
0
10
2.9556205407292708
20
1.993583968602572
30
0
10
2.8982059808154785
20
2.0264643013103321
30
0
10
2.8461526606547638
20
2.053979837504377
30
0
0
SPLINE
5
141
100
AcDbEntity
8
0
100
AcDbSpline
70
0
71
3
72
12
73
8
74
0
42
0.000000001
43
0.0000000001
44
0.0000000001
40
-0.19992963742699404
40
-0.19992963742699404
40
-0.19992963742699404
40
-0.19992963742699404
40
-0.14464008123360933
40
-0.14464008123360933
40
-0.08852770416041808
40
-0.08852770416041808
40
0
40
0
40
0
40
0
10
2.8461526606536873
20
2.0539798375038636
30
0
10
2.8397452322406775
20
2.0573668227694424
30
0
10
2.8329028028222054
20
2.0598539389185317
30
0
10
2.8186385750646732
20
2.0630033923969373
30
0
10
2.8112701895303411
20
2.0636250489138979
30
0
10
2.7923161532653853
20
2.062804292202336
30
0
10
2.780899361289495
20
2.0599699181242181
30
0
10
2.7703700506308984
20
2.0550600197815019
30
0
0
LINE
5
142
100
AcDbEntity
8
0
100
AcDbLine
10
2.7703700506308984
20
2.0550600197815019
30
0
11
2.6282104992293647
21
1.9887699302913815
31
0
0
LINE
5
143
100
AcDbEntity
8
0
100
AcDbLine
10
2.6282104992293647
20
1.9887699302913815
30
0
11
2.6012797730903174
21
1.9147783656854465
31
0
0
SPLINE
5
144
100
AcDbEntity
8
0
100
AcDbSpline
70
0
71
3
72
17
73
13
74
0
42
0.000000001
43
0.0000000001
44
0.0000000001
40
-0.0010491898359966834
40
-0.0010491898359966834
40
-0.0010491898359966834
40
-0.0010491898359966834
40
0.10631183776824377
40
0.10631183776824377
40
0.19974367522134875
40
0.19974367522134875
40
0.19974367522134875
40
0.31577551341426313
40
0.31577551341426313
40
0.43156241842470733
40
0.43156241842470733
40
0.44481578549492312
40
0.44481578549492312
40
0.44481578549492312
40
0.44481578549492312
10
-2.8892392118294965
20
1.0891752732566022
30
0
10
-2.8892392118294965
20
1.0803946568918854
30
0
10
-2.8907367231505656
20
1.0715731230680321
30
0
10
-2.8960982618137199
20
1.0561470057354019
30
0
10
-2.8996650340134593
20
1.0492911113045145
30
0
10
-2.9041019885313477
20
1.0431351535249165
30
0
10
-2.9096121872250995
20
1.0354901460362944
30
0
10
-2.9164885738913031
20
1.0288556454656241
30
0
10
-2.9322487556912651
20
1.0183748194216171
30
0
10
-2.9412568371167329
20
1.0143917438310388
30
0
10
-2.9525069156196113
20
1.0119612007585783
30
0
10
-2.9536761815119572
20
1.0117358583262899
30
0
10
-2.9548560097324073
20
1.0115364309582588
30
0
0
SPLINE
5
145
100
AcDbEntity
8
0
100
AcDbSpline
70
0
71
3
72
14
73
10
74
0
42
0.000000001
43
0.0000000001
44
0.0000000001
40
-0.043279681561652267
40
-0.043279681561652267
40
-0.043279681561652267
40
-0.043279681561652267
40
-0.03615290282799867
40
-0.03615290282799867
40
-0.026917174863294511
40
-0.026917174863294511
40
-0.015938698784758377
40
-0.015938698784758377
40
0
40
0
40
0
40
0
10
-2.9548560097416754
20
1.0115364309566925
30
0
10
-2.9577001227606825
20
1.0110556881120061
30
0
10
-2.9605180638542055
20
1.0102567560596916
30
0
10
-2.966764849322967
20
1.0076936934296805
30
0
10
-2.9701272516112631
20
1.0057107751254444
30
0
10
-2.9767571074029888
20
1.0003111844588701
30
0
10
-2.9798820035747444
20
0.99669093136084475
30
0
10
-2.9857572066491636
20
0.98664602273783486
30
0
10
-2.9876644086798909
20
0.97968931898944334
30
0
10
-2.9876644086798909
20
0.9727170098097595
30
0
0
LINE
5
146
100
AcDbEntity
8
0
100
AcDbLine
10
-2.9876644086798905
20
0.9727170098097595
30
0
11
-2.9876644086798909
21
-1.0644312293732372
31
0
0
LINE
5
147
100
AcDbEntity
8
0
100
AcDbLine
10
-3.145144723640521
20
-0.94097521103263582
30
0
11
-3.145144723640521
21
0.93054877978626271
31
0
0
SPLINE
5
148
100
AcDbEntity
8
0
100
AcDbSpline
70
0
71
3
72
10
73
6
74
0
42
0.000000001
43
0.0000000001
44
0.0000000001
40
-0.11519996283191926
40
-0.11519996283191926
40
-0.11519996283191926
40
-0.11519996283191926
40
-0.061578966529997226
40
-0.061578966529997226
40
-0.044872743903846823
40
-0.044872743903846823
40
-0.044872743903846823
40
-0.044872743903846823
10
-3.145144723640521
20
0.9305487797862636
30
0
10
-3.145144723640521
20
0.93801485175051891
30
0
10
-3.1454491107854738
20
0.94547969541856114
30
0
10
-3.1461798204302931
20
0.95525734281726782
30
0
10
-3.1463782175663693
20
0.95757899368919319
30
0
10
-3.1466005178293091
20
0.95989944228487967
30
0
0
SPLINE
5
149
100
AcDbEntity
8
0
100
AcDbSpline
70
0
71
3
72
15
73
11
74
0
42
0.000000001
43
0.0000000001
44
0.0000000001
40
0.06143418526481801
40
0.06143418526481801
40
0.06143418526481801
40
0.06143418526481801
40
0.14698786700022906
40
0.14698786700022906
40
0.34415618285027416
40
0.34415618285027416
40
0.34415618285027416
40
0.46635866569532974
40
0.46635866569532974
40
0.58955867705205545
40
0.58955867705205545
40
0.58955867705205545
40
0.58955867705205545
10
-3.1784603443839896
20
1.0116238731954281
30
0
10
-3.1850643773233474
20
1.0127846105683378
30
0
10
-3.1913074426973194
20
1.0147551258907641
30
0
10
-3.2102390518070756
20
1.0232408842337226
30
0
10
-3.2211179565870758
20
1.0325336959847242
30
0
10
-3.2288540615152357
20
1.0433396800891297
30
0
10
-3.2336488036404867
20
1.0500370953480136
30
0
10
-3.2373395837899435
20
1.0574315306882556
30
0
10
-3.2422965577946266
20
1.0728870604494263
30
0
10
-3.2435699204909145
20
1.08103968542912
30
0
10
-3.2435699204909145
20
1.0891752732566014
30
0
0
ELLIPSE
5
150
100
AcDbEntity
8
0
100
AcDbEllipse
10
-3.1745599761702112
20
0.97404358893082688
30
0
11
0.027451824612756182
21
0.0024287536790538957
31
0.0
40
0.036655499361006358
41
5.3179627007568655
42
6.6139481223171934
0
SPLINE
5
151
100
AcDbEntity
8
0
100
AcDbSpline
70
0
71
3
72
16
73
12
74
0
42
0.000000001
43
0.0000000001
44
0.0000000001
40
0
40
0
40
0
40
0
40
0.0027706343520894298
40
0.0027706343520894298
40
0.016075335443001541
40
0.016075335443001541
40
0.025604104943992193
40
0.025604104943992193
40
0.034345159544176176
40
0.034345159544176176
40
0.039808318669291166
40
0.039808318669291166
40
0.039808318669291166
40
0.039808318669291166
10
-3.1486250937872327
20
0.97666748945953819
30
0
10
-3.1487222674236297
20
0.97787224791326799
30
0
10
-3.1488709489839115
20
0.97907169668150829
30
0
10
-3.1500285882302888
20
0.98597128476150242
30
0
10
-3.1521785486200233
20
0.99143714782058812
30
0
10
-3.1575231666971924
20
0.99947427388501298
30
0
10
-3.1602433876672138
20
1.002426518380154
30
0
10
-3.1660926138450525
20
1.007019112675827
30
0
10
-3.1691668721059347
20
1.0087455607815428
30
0
10
-3.1743605904812799
20
1.0107084164617279
30
0
10
-3.176405214356921
20
1.0112626596384227
30
0
10
-3.1784603443839887
20
1.0116238731954281
30
0
0
ELLIPSE
5
152
100
AcDbEntity
8
0
100
AcDbEllipse
10
-3.1744487439461713
20
0.97271700980975884
30
0
11
0.027472772896857591
21
0.00217905217026173
31
0.0
40
0.054653535980985712
41
5.3157306627498366
42
6.6041497471106814
0
SPLINE
5
153
100
AcDbEntity
8
0
100
AcDbSpline
70
0
71
3
72
10
73
6
74
0
42
0.000000001
43
0.0000000001
44
0.0000000001
40
0
40
0
40
0
40
0
40
0.001692430312506803
40
0.001692430312506803
40
0.0033848606250136059
40
0.0033848606250136059
40
0.0033848606250136059
40
0.0033848606250136059
10
-3.1484165333671594
20
0.97525847233833529
30
0
10
-3.1484494117773387
20
0.97549277706970439
30
0
10
-3.1484832144591102
20
0.97572736189098108
30
0
10
-3.1485527173686725
20
0.9761970484716983
30
0
10
-3.1485884175913781
20
0.97643215024256214
30
0
10
-3.1486250937872327
20
0.97666748945953918
30
0
0
ELLIPSE
5
154
100
AcDbEntity
8
0
100
AcDbEllipse
10
-3.1745599761702112
20
0.97404358893082688
30
0
11
0.027451824612756182
21
0.0024287536790538957
31
0.0
40
0.036655499361006358
41
5.3179627007568655
42
6.613948122317824
0
SPLINE
5
155
100
AcDbEntity
8
0
100
AcDbSpline
70
0
71
3
72
10
73
6
74
0
42
0.000000001
43
0.0000000001
44
0.0000000001
40
-0.11519996283191926
40
-0.11519996283191926
40
-0.11519996283191926
40
-0.11519996283191926
40
-0.061578966529997226
40
-0.061578966529997226
40
-0.044872743903846823
40
-0.044872743903846823
40
-0.044872743903846823
40
-0.044872743903846823
10
-3.145144723640521
20
0.9305487797862636
30
0
10
-3.145144723640521
20
0.93801485175051891
30
0
10
-3.1454491107854738
20
0.94547969541856114
30
0
10
-3.1461798204302931
20
0.95525734281726782
30
0
10
-3.1463782175663693
20
0.95757899368919319
30
0
10
-3.1466005178293091
20
0.95989944228487967
30
0
0
SPLINE
5
156
100
AcDbEntity
8
0
100
AcDbSpline
70
0
71
3
72
8
73
4
74
0
42
0.000000001
43
0.0000000001
44
0.0000000001
40
-0.044872743903846823
40
-0.044872743903846823
40
-0.044872743903846823
40
-0.044872743903846823
40
-0.0079579702280751907
40
-0.0079579702280751907
40
-0.0079579702280751907
40
-0.0079579702280751907
10
-3.1466005178293091
20
0.95989944228487967
30
0
10
-3.1470917136079826
20
0.9650268102607884
30
0
10
-3.1476993995143632
20
0.97014788901580051
30
0
10
-3.1484165333671594
20
0.97525847233833529
30
0
0
ELLIPSE
5
157
100
AcDbEntity
8
0
100
AcDbEllipse
10
-3.1744487439461713
20
0.97271700980975884
30
0
11
0.027472772896857591
21
0.00217905217026173
31
0.0
40
0.054653535980985712
41
5.3157306627498366
42
6.6041497471106814
0
SPLINE
5
158
100
AcDbEntity
8
0
100
AcDbSpline
70
0
71
3
72
10
73
6
74
0
42
0.000000001
43
0.0000000001
44
0.0000000001
40
0
40
0
40
0
40
0
40
0.01505832390980206
40
0.01505832390980206
40
0.029999379727184961
40
0.029999379727184961
40
0.029999379727184961
40
0.029999379727184961
10
-0.91246456692913358
20
1.8434461389439938
30
0
10
-0.91048846468395417
20
1.8434609825124484
30
0
10
-0.90851208875051459
20
1.8434755137607259
30
0
10
-0.90457526507134234
20
1.8435038128060226
30
0
10
-0.90261426461176686
20
1.8435175896101115
30
0
10
-0.90065354330708647
20
1.8435310344736273
30
0
0
LINE
5
159
100
AcDbEntity
8
0
100
AcDbLine
10
-0.90065354330708647
20
1.8435310344736273
30
0
11
-0.90065354330708647
21
2.0403860039894641
31
0
0
SPLINE
5
160
100
AcDbEntity
8
0
100
AcDbSpline
70
0
71
3
72
8
73
4
74
0
42
0.000000001
43
0.0000000001
44
0.0000000001
40
1.605215327806194
40
1.605215327806194
40
1.605215327806194
40
1.605215327806194
40
1.7213873077455828
40
1.7213873077455828
40
1.7213873077455828
40
1.7213873077455828
10
-0.95183464566929199
20
2.0399706476649264
30
0
10
-0.93383983977960738
20
2.0401388567760073
30
0
10
-0.91664562919970438
20
2.0402776192916021
30
0
10
-0.90065354330708625
20
2.0403860039894641
30
0
0
LINE
5
161
100
AcDbEntity
8
0
100
AcDbLine
10
-0.95183464566929199
20
2.0399706476649264
30
0
11
-0.95183464566929077
21
2.2334732739123608
31
0
0
LINE
5
162
100
AcDbEntity
8
0
100
AcDbLine
10
-0.95224898973132199
20
2.2334701571174049
30
0
11
-0.95183464566929077
21
2.2334732739123608
31
0
0
SPLINE
5
163
100
AcDbEntity
8
0
100
AcDbSpline
70
0
71
3
72
10
73
6
74
0
42
0.000000001
43
0.0000000001
44
0.0000000001
40
0
40
0
40
0
40
0
40
0.57451978445308072
40
0.57451978445308072
40
1.1490395689061614
40
1.1490395689061614
40
1.1490395689061614
40
1.1490395689061614
10
-1.4045905511811021
20
2.2279632654627846
30
0
10
-1.3292155374406007
20
2.2297546143724274
30
0
10
-1.25382108750743
20
2.2306718901912963
30
0
10
-1.1030374086734134
20
2.2323137470876588
30
0
10
-1.0276438365208578
20
2.2330024981823824
30
0
10
-0.95224898973132344
20
2.2334701571174045
30
0
0
LINE
5
164
100
AcDbEntity
8
0
100
AcDbLine
10
-1.4045905511811021
20
2.2279632654627846
30
0
11
-1.4045905511810945
21
2.0314221138573503
31
0
0
SPLINE
5
165
100
AcDbEntity
8
0
100
AcDbSpline
70
0
71
3
72
8
73
4
74
0
42
0.000000001
43
0.0000000001
44
0.0000000001
40
0
40
0
40
0
40
0
40
0.54890363980548862
40
0.54890363980548862
40
0.54890363980548862
40
0.54890363980548862
10
-1.6036606956127262
20
2.0208883017965835
30
0
10
-1.5317946517252803
20
2.0258132487576681
30
0
10
-1.4683726602920759
20
2.0290954772442968
30
0
10
-1.4045905511810943
20
2.0314221138573503
30
0
0
SPLINE
5
166
100
AcDbEntity
8
0
100
AcDbSpline
70
0
71
3
72
14
73
10
74
0
42
0.000000001
43
0.0000000001
44
0.0000000001
40
0
40
0
40
0
40
0
40
0.51555909961902602
40
0.51555909961902602
40
1.1555887923599277
40
1.1555887923599277
40
2.6563256865996512
40
2.6563256865996512
40
9.1310806557013677
40
9.1310806557013677
40
9.1310806557013677
40
9.1310806557013677
10
-2.7147258937590508
20
1.7615833132692866
30
0
10
-2.6563074190561977
20
1.7957150880140702
30
0
10
-2.5876296834634704
20
1.8254426975436389
30
0
10
-2.4565103451097254
20
1.8776677051541411
30
0
10
-2.3981294139461986
20
1.8955722783952687
30
0
10
-2.1091414391191985
20
1.9694635989874549
30
0
10
-1.9997626185695774
20
1.9829735136372022
30
0
10
-1.8451006757944324
20
2.0035199876367509
30
0
10
-1.6763437905469294
20
2.0159073627027442
30
0
10
-1.6036606956129082
20
2.0208883017965711
30
0
0
ARC
5
167
100
AcDbEntity
8
0
100
AcDbCircle
10
-2.1364999999999981
20
1.7940000000000011
30
0
40
0.57913385826771746
100
AcDbArc
50
183.20877559122462
51
227.86311430570296
0
LINE
5
168
100
AcDbEntity
8
0
100
AcDbLine
10
-2.5250433070866132
20
1.364546714635632
30
0
11
-2.5250433070866136
21
1.6367938909468684
31
0
0
SPLINE
5
169
100
AcDbEntity
8
0
100
AcDbSpline
70
0
71
3
72
12
73
8
74
0
42
0.000000001
43
0.0000000001
44
0.0000000001
40
0.1100640822950663
40
0.1100640822950663
40
0.1100640822950663
40
0.1100640822950663
40
1.2812732121097388
40
1.2812732121097388
40
3.4242811338956072
40
3.4242811338956072
40
8.0348710488691921
40
8.0348710488691921
40
8.0348710488691921
40
8.0348710488691921
10
-2.5250433070865355
20
1.6367938909466948
30
0
10
-2.3940295046682896
20
1.6962984198527904
30
0
10
-2.3010709129661144
20
1.7177692829730473
30
0
10
-2.0863604437353875
20
1.7705384687526342
30
0
10
-2.0031854226530155
20
1.7836183526002842
30
0
10
-1.8654649430363177
20
1.8028519519312414
30
0
10
-1.7707440046199772
20
1.8106317279329684
30
0
10
-1.6761084170847929
20
1.8181323531051425
30
0
0
SPLINE
5
170
100
AcDbEntity
8
0
100
AcDbSpline
70
0
71
3
72
10
73
6
74
0
42
0.000000001
43
0.0000000001
44
0.0000000001
40
0
40
0
40
0
40
0
40
0.074871086798836389
40
0.074871086798836389
40
0.1499881205072211
40
0.1499881205072211
40
0.1499881205072211
40
0.1499881205072211
10
-1.6761084170847929
20
1.8181323531051423
30
0
10
-1.6663135318653473
20
1.8189086758876072
30
0
10
-1.6565083222235975
20
1.8196692340717975
30
0
10
-1.63688104110454
20
1.8211568793236363
30
0
10
-1.6270403246559708
20
1.8218852653616417
30
0
10
-1.6172079331595981
20
1.8225944973792454
30
0
0
SPLINE
5
171
100
AcDbEntity
8
0
100
AcDbSpline
70
0
71
3
72
10
73
6
74
0
42
0.000000001
43
0.0000000001
44
0.0000000001
40
0
40
0
40
0
40
0
40
0.075159215450055439
40
0.075159215450055439
40
0.14995459399331801
40
0.14995459399331801
40
0.14995459399331801
40
0.14995459399331801
10
-1.6172079331595568
20
1.8225944973792485
30
0
10
-1.6073700792967303
20
1.8233041234093548
30
0
10
-1.5975202192124043
20
1.823996041356049
30
0
10
-1.5778868112881441
20
1.8253354583881931
30
0
10
-1.5680806343607576
20
1.8259846938696365
30
0
10
-1.5582850764888787
20
1.8266117773364998
30
0
0
SPLINE
5
172
100
AcDbEntity
8
0
100
AcDbSpline
70
0
71
3
72
10
73
6
74
0
42
0.000000001
43
0.0000000001
44
0.0000000001
40
0
40
0
40
0
40
0
40
0.13175731120061374
40
0.13175731120061374
40
0.26309301200871726
40
0.26309301200871726
40
0.26309301200871726
40
0.26309301200871726
10
-1.5582850764888487
20
1.8266117773365016
30
0
10
-1.5410294131294167
20
1.8277164353196393
30
0
10
-1.5236883018457679
20
1.8287599312518785
30
0
10
-1.489215922169572
20
1.830675825892256
30
0
10
-1.4727071022487372
20
1.8315141365304601
30
0
10
-1.4557716535436107
20
1.8322968116488372
30
0
0
SPLINE
5
173
100
AcDbEntity
8
0
100
AcDbSpline
70
0
71
3
72
10
73
6
74
0
42
0.000000001
43
0.0000000001
44
0.0000000001
40
0
40
0
40
0
40
0
40
0.015023062085643021
40
0.015023062085643021
40
0.030030943145573627
40
0.030030943145573627
40
0.030030943145573627
40
0.030030943145573627
10
-1.455771653543307
20
1.8322968116488509
30
0
10
-1.4538022251604792
20
1.832387829171888
30
0
10
-1.4518328192155223
20
1.832477802794048
30
0
10
-1.4478957632984317
20
1.8326556106352156
30
0
10
-1.445928253932482
20
1.8327434405848955
30
0
10
-1.4439606299212597
20
1.8328302609823355
30
0
0
SPLINE
5
174
100
AcDbEntity
8
0
100
AcDbSpline
70
0
71
3
72
10
73
6
74
0
42
0.000000001
43
0.0000000001
44
0.0000000001
40
0
40
0
40
0
40
0
40
0.035057479173725772
40
0.035057479173725772
40
0.070065418992694056
40
0.070065418992694056
40
0.070065418992694056
40
0.070065418992694056
10
-1.4439606299211791
20
1.8328302609823393
30
0
10
-1.4393643830716576
20
1.8330330680104767
30
0
10
-1.4347687672721565
20
1.8332303108699781
30
0
10
-1.4255818274835379
20
1.8336139091607053
30
0
10
-1.4209922245968936
20
1.8338002078528439
30
0
10
-1.41640157480315
20
1.8339814061716968
30
0
0
SPLINE
5
175
100
AcDbEntity
8
0
100
AcDbSpline
70
0
71
3
72
10
73
6
74
0
42
0.000000001
43
0.0000000001
44
0.0000000001
40
0
40
0
40
0
40
0
40
0.60080929385370951
40
0.60080929385370951
40
1.3326304622043206
40
1.3326304622043206
40
1.3326304622043206
40
1.3326304622043206
10
-1.41640157480315
20
1.8339814061716968
30
0
10
-1.3376165593687954
20
1.8370911429168015
30
0
10
-1.2469444150040985
20
1.8388520487078608
30
0
10
-1.1033471048630945
20
1.8413370367211097
30
0
10
-1.0183942019829648
20
1.8425225990147354
30
0
10
-0.94002362204724488
20
1.8432196536741319
30
0
0
SPLINE
5
176
100
AcDbEntity
8
0
100
AcDbSpline
70
0
71
3
72
10
73
6
74
0
42
0.000000001
43
0.0000000001
44
0.0000000001
40
0
40
0
40
0
40
0
40
0.035268853755565516
40
0.035268853755565516
40
0.069987776377761449
40
0.069987776377761449
40
0.069987776377761449
40
0.069987776377761449
10
-0.94002362204724488
20
1.8432196536741319
30
0
10
-0.93539534661533619
20
1.8432608191338926
30
0
10
-0.93076426206892193
20
1.8433004986960213
30
0
10
-0.92157985445882917
20
1.8433759979373225
30
0
10
-0.9170206979500849
20
1.8434119153895885
30
0
10
-0.91246456692913402
20
1.8434461389439936
30
0
0
SPLINE
5
177
100
AcDbEntity
8
0
100
AcDbSpline
70
0
71
3
72
8
73
4
74
0
42
0.000000001
43
0.0000000001
44
0.0000000001
40
0
40
0
40
0
40
0
40
0.43605462877089651
40
0.43605462877089651
40
0.43605462877089651
40
0.43605462877089651
10
-1.6036606956127262
20
2.0208883017965835
30
0
10
-1.546569580130821
20
2.0248007297039541
30
0
10
-1.4948083549322262
20
2.0276959508922303
30
0
10
-1.4439606299212595
20
2.0298660786550986
30
0
0
LINE
5
178
100
AcDbEntity
8
0
100
AcDbLine
10
-1.4439606299212595
20
2.0298660786550986
30
0
11
-1.4439606299212595
21
2.2571805684105084
31
0
0
ARC
5
179
100
AcDbEntity
8
0
100
AcDbCircle
10
-1.4833307086614171
20
2.2571805684105084
30
0
40
0.039370078740157514
100
AcDbArc
50
0
51
45
0
LINE
5
180
100
AcDbEntity
8
0
100
AcDbLine
10
-1.4554918590084034
20
2.2850194180635222
30
0
11
-1.4851020305073832
21
2.3146295895625015
31
0
0
SPLINE
5
181
100
AcDbEntity
8
0
100
AcDbSpline
70
0
71
3
72
12
73
8
74
0
42
0.000000001
43
0.0000000001
44
0.0000000001
40
-0.25198493612466222
40
-0.25198493612466222
40
-0.25198493612466222
40
-0.25198493612466222
40
-0.17981923496914864
40
-0.17981923496914864
40
-0.10849991456471182
40
-0.10849991456471182
40
0
40
0
40
0
40
0
10
-1.485102030507351
20
2.3146295895624696
30
0
10
-1.4918081844574569
20
2.3213357435125759
30
0
10
-1.499270492268298
20
2.3272609975376524
30
0
10
-1.515301921266933
20
2.3371856882264801
30
0
10
-1.5238222093726388
20
2.341185179881196
30
0
10
-1.5462565405918725
20
2.348588353545626
30
0
10
-1.5605025674160116
20
2.3505394455802646
30
0
10
-1.5747150410321007
20
2.3496734285678587
30
0
0
SPLINE
5
182
100
AcDbEntity
8
0
100
AcDbSpline
70
0
71
3
72
8
73
4
74
0
42
0.000000001
43
0.0000000001
44
0.0000000001
40
-305.56908317707115
40
-305.56908317707115
40
-305.56908317707115
40
-305.56908317707115
40
-305.52192573800431
40
-305.52192573800431
40
-305.52192573800431
40
-305.52192573800431
10
-1.5747150410321049
20
2.3496734285678627
30
0
10
-1.5854100742368458
20
2.34902174182045
30
0
10
-1.5962085999894211
20
2.3483388996881263
30
0
10
-1.6071142579934106
20
2.347624907710939
30
0
0
SPLINE
5
183
100
AcDbEntity
8
0
100
AcDbSpline
70
0
71
3
72
20
73
16
74
0
42
0.000000001
43
0.0000000001
44
0.0000000001
40
-0.80549267021971838
40
-0.80549267021971838
40
-0.80549267021971838
40
-0.80549267021971838
40
-0.65896315519792492
40
-0.65896315519792492
40
-0.52147228862347383
40
-0.52147228862347383
40
-0.37693361862667779
40
-0.37693361862667779
40
-0.27126654908238379
40
-0.27126654908238379
40
-0.2064066765099109
40
-0.2064066765099109
40
-0.13121361424688366
40
-0.13121361424688366
40
0
40
0
40
0
40
0
10
-1.6071142580073567
20
2.3476249077190867
30
0
10
-1.6203530023925869
20
2.3467581683874723
30
0
10
-1.6334082948262219
20
2.3439152912760099
30
0
10
-1.6574231255929117
20
2.334765860705045
30
0
10
-1.6684223688355886
20
2.3286973537493427
30
0
10
-1.6886452585859555
20
2.3132168141210969
30
0
10
-1.6978145133246714
20
2.303592468011451
30
0
10
-1.7099356283655753
20
2.2845879961122089
30
0
10
-1.7153323456050005
20
2.2736671227041492
30
0
10
-1.7191414580107924
20
2.2513571557087944
30
0
10
-1.7192482858332654
20
2.2428593104932553
30
0
10
-1.7170637894426795
20
2.2243854874498235
30
0
10
-1.7144072496219573
20
2.2146261326559009
30
0
10
-1.7049143523822339
20
2.1890361259317621
30
0
10
-1.6956317644815442
20
2.1719933218462524
30
0
10
-1.6857021241079142
20
2.1579249867828079
30
0
0
SPLINE
5
184
100
AcDbEntity
8
0
100
AcDbSpline
70
0
71
3
72
8
73
4
74
0
42
0.000000001
43
0.0000000001
44
0.0000000001
40
-0.017950596631187015
40
-0.017950596631187015
40
-0.017950596631187015
40
-0.017950596631187015
40
0
40
0
40
0
40
0
10
-1.6857021240634342
20
2.1579249867197894
30
0
10
-1.6843437062248099
20
2.1560003775129761
30
0
10
-1.6829349707433996
20
2.1541115652829759
30
0
10
-1.6814776870142205
20
2.1522606878756343
30
0
0
ARC
5
185
100
AcDbEntity
8
0
100
AcDbCircle
10
-2.1365000000000269
20
1.7939999999999834
30
0
40
0.57913385826774788
100
AcDbArc
50
23.064789658016903
51
38.215039158658804
0
SPLINE
5
186
100
AcDbEntity
8
0
100
AcDbSpline
70
0
71
3
72
16
73
12
74
0
42
0.000000001
43
0.0000000001
44
0.0000000001
40
0
40
0
40
0
40
0
40
0.12042741982679908
40
0.12042741982679908
40
0.24323797485961451
40
0.24323797485961451
40
0.37113420571523803
40
0.37113420571523803
40
0.44264368519379993
40
0.44264368519379993
40
0.51450610827168874
40
0.51450610827168874
40
0.51450610827168874
40
0.51450610827168874
10
0.57438894365903592
20
2.3666053720069642
30
0
10
0.59019306306684638
20
2.3665942279481773
30
0
10
0.60581143002693849
20
2.3634897591524711
30
0
10
0.63535675400691338
20
2.3513865496533204
30
0
10
0.64891051572693081
20
2.3424115877842984
30
0
10
0.67246792254595789
20
2.3194055949860322
30
0
10
0.68206281724417772
20
2.3054174382148798
30
0
10
0.69260083776825132
20
2.2814223280336825
30
0
10
0.69546670089959584
20
2.2724400076528783
30
0
10
0.69931892185414224
20
2.2539936327744878
30
0
10
0.700287820067518
20
2.2445664782741255
30
0
10
0.700287820067518
20
2.2351208122716053
30
0
0
SPLINE
5
187
100
AcDbEntity
8
0
100
AcDbSpline
70
0
71
3
72
12
73
8
74
0
42
0.000000001
43
0.0000000001
44
0.0000000001
40
-315.24685815045763
40
-315.24685815045763
40
-315.24685815045763
40
-315.24685815045763
40
-312.49455709165602
40
-312.49455709165602
40
-307.55448917684384
40
-307.55448917684384
40
-306.88043371115577
40
-306.88043371115577
40
-306.88043371115577
40
-306.88043371115577
10
0.57438894365903659
20
2.3666053720069642
30
0
10
0.46302521723486445
20
2.3666838986165142
30
0
10
0.35111174959168934
20
2.3663940418119558
30
0
10
0.036769327937610584
20
2.3652183242720262
30
0
10
-0.16667572799541944
20
2.3661857006168554
30
0
10
-0.39970527193061367
20
2.3665170256483332
30
0
10
-0.59170921271150878
20
2.3666888617423854
30
0
10
-0.7708226488984411
20
2.366858563485899
30
0
0
SPLINE
5
188
100
AcDbEntity
8
0
100
AcDbSpline
70
0
71
3
72
12
73
8
74
0
42
0.000000001
43
0.0000000001
44
0.0000000001
40
-0.2383048271031786
40
-0.2383048271031786
40
-0.2383048271031786
40
-0.2383048271031786
40
-0.17966690838888311
40
-0.17966690838888311
40
-0.12004747654301394
40
-0.12004747654301394
40
0
40
0
40
0
40
0
10
-0.7708226488984411
20
2.3668585634858981
30
0
10
-0.77850991165319816
20
2.3668658468138277
30
0
10
-0.78617733339926255
20
2.3660637949251084
30
0
10
-0.80136032612625241
20
2.3629138791038358
30
0
10
-0.8088365835002842
20
2.3605477356912012
30
0
10
-0.83050101928542641
20
2.3512822118185284
30
0
10
-0.84367069071134537
20
2.3422820651941665
30
0
10
-0.85481063621369413
20
2.3311421196918176
30
0
0
LINE
5
189
100
AcDbEntity
8
0
100
AcDbLine
10
-0.85481063621369413
20
2.3311421196918181
30
0
11
-0.90093333784199015
21
2.2850194180635217
31
0
0
ARC
5
190
100
AcDbEntity
8
0
100
AcDbCircle
10
-0.8730944881889765
20
2.257180568410508
30
0
40
0.039370078740157397
100
AcDbArc
50
134.99999999999991
51
180
0
LINE
5
191
100
AcDbEntity
8
0
100
AcDbLine
10
-0.9124645669291338
20
2.257180568410508
30
0
11
-0.91246456692913414
21
2.0403020420642628
31
0
0
SPLINE
5
192
100
AcDbEntity
8
0
100
AcDbSpline
70
0
71
3
72
8
73
4
74
0
42
0.000000001
43
0.0000000001
44
0.0000000001
40
1.6932847831169648
40
1.6932847831169648
40
1.6932847831169648
40
1.6932847831169648
40
1.7213873077455828
40
1.7213873077455828
40
1.7213873077455828
40
1.7213873077455828
10
-0.91246456692913414
20
2.0403020420642628
30
0
10
-0.90846100330613822
20
2.0403317900648963
30
0
10
-0.90452210083614581
20
2.0403597852434063
30
0
10
-0.90065354330708625
20
2.0403860039894641
30
0
0
LINE
5
193
100
AcDbEntity
8
0
100
AcDbLine
10
-0.90065354330708625
20
2.0403860039894641
30
0
11
-0.90065354330708669
21
2.0285747088910147
31
0
0
SPLINE
5
194
100
AcDbEntity
8
0
100
AcDbSpline
70
0
71
3
72
20
73
16
74
0
42
0.000000001
43
0.0000000001
44
0.0000000001
40
0.20046735466326224
40
0.20046735466326224
40
0.20046735466326224
40
0.20046735466326224
40
0.2133729493730929
40
0.2133729493730929
40
0.2133729493730929
40
0.22938130731466233
40
0.22938130731466233
40
0.22938130731466233
40
0.24953701427601019
40
0.24953701427601019
40
0.24953701427601019
40
0.266787605964666
40
0.266787605964666
40
0.266787605964666
40
0.27829770021301919
40
0.27829770021301919
40
0.27829770021301919
40
0.27829770021301919
10
-0.90065354331749892
20
2.0285747088909436
30
0
10
-0.80166965406000024
20
2.0292461086640392
30
0
10
-0.72416146128465764
20
2.0287574970376374
30
0
10
-0.64114313089942698
20
2.0286631557685402
30
0
10
-0.5381820750444879
20
2.0285461517691603
30
0
10
-0.42578923000901858
20
2.0288188015949138
30
0
10
-0.31566142633395106
20
2.0284619086218267
30
0
10
-0.1769576464356116
20
2.0280124090156026
30
0
10
-0.038436494114767322
20
2.0273415693792902
30
0
10
0.099888543874019617
20
2.027687485114313
30
0
10
0.21825462950967919
20
2.0279834885863504
30
0
10
0.34022734207762623
20
2.0287078062607207
30
0
10
0.45631537802502808
20
2.0287013082318204
30
0
10
0.53380107828520185
20
2.0286969709690217
30
0
10
0.60940986524461938
20
2.0286466828506113
30
0
10
0.68656703865270208
20
2.0287656193501635
30
0
0
ARC
5
195
100
AcDbEntity
8
0
100
AcDbCircle
10
0.68676124105104841
20
1.9027815170614542
30
0
40
0.12598425196850407
100
AcDbArc
50
57.364932081918539
51
90.088320421237555
0
SPLINE
5
196
100
AcDbEntity
8
0
100
AcDbSpline
70
0
71
3
72
12
73
8
74
0
42
0.000000001
43
0.0000000001
44
0.0000000001
40
0
40
0
40
0
40
0
40
0.11719334201607848
40
0.11719334201607848
40
0.20914015446499679
40
0.20914015446499679
40
0.3010869669139159
40
0.3010869669139159
40
0.3010869669139159
40
0.3010869669139159
10
0.700287820067518
20
2.1083389738430403
30
0
10
0.700287820067518
20
2.0929592701663897
30
0
10
0.70329181818932418
20
2.0777266048394738
30
0
10
0.71371178368829313
20
2.0523352872446701
30
0
10
0.71997658859205982
20
2.0419398527644788
30
0
10
0.7354368184535699
20
2.0234092287568379
30
0
10
0.74454134304098996
20
2.0153829923691355
30
0
10
0.75470282310882508
20
2.0088756883035632
30
0
0
LINE
5
197
100
AcDbEntity
8
0
100
AcDbLine
10
0.700287820067518
20
2.1083389738430403
30
0
11
0.70028782006751811
21
2.2351208122716049
31
0
0
SPLINE
5
198
100
AcDbEntity
8
0
100
AcDbSpline
70
0
71
3
72
16
73
12
74
0
42
0.000000001
43
0.0000000001
44
0.0000000001
40
0
40
0
40
0
40
0
40
0.12500623148381598
40
0.12500623148381598
40
0.25001246296763235
40
0.25001246296763235
40
0.37501869445144831
40
0.37501869445144831
40
0.44158347657385588
40
0.44158347657385588
40
0.50814825869626234
40
0.50814825869626234
40
0.50814825869626234
40
0.50814825869626234
10
1.2202878200675178
20
2.1637683711272566
30
0
10
1.2202878200675178
20
2.1473633538721626
30
0
10
1.2170835554042581
20
2.1311151775234527
30
0
10
1.2046272136505705
20
2.1007616288894777
30
0
10
1.1954942259765389
20
2.0869464530731161
30
0
10
1.1724467540145964
20
2.0635945280834456
30
0
10
1.1587526161204844
20
2.0542810360408201
30
0
10
1.1356215879762372
20
2.0444320289608506
30
0
10
1.1272501125214356
20
2.0418550144395931
30
0
10
1.1101091883850294
20
2.0384746215002045
30
0
10
1.1013861268060114
20
2.0376803911672541
30
0
10
1.0926513423443915
20
2.0377949537166016
30
0
0
LINE
5
199
100
AcDbEntity
8
0
100
AcDbLine
10
1.2202878200675178
20
2.1637683711272566
30
0
11
1.2202878200675178
21
2.2326700805823774
31
0
0
SPLINE
5
200
100
AcDbEntity
8
0
100
AcDbSpline
70
0
71
3
72
14
73
10
74
0
42
0.000000001
43
0.0000000001
44
0.0000000001
40
0
40
0
40
0
40
0
40
0.12046682340479468
40
0.12046682340479468
40
0.24343829585808952
40
0.24343829585808952
40
0.37155068515303979
40
0.37155068515303979
40
0.51009375732365769
40
0.51009375732365769
40
0.51009375732365769
40
0.51009375732365769
10
1.096209759497603
20
2.3641268457268172
30
0
10
1.1120170949383021
20
2.3638779762635593
30
0
10
1.1275923129861307
20
2.360537350202403
30
0
10
1.1569787343927462
20
2.347984873398711
30
0
10
1.1704156845104547
20
2.3387963152114706
30
0
10
1.1936652483627137
20
2.3154082622696839
30
0
10
1.2030688579987301
20
2.301254717449861
30
0
10
1.2166838834107776
20
2.2689612498942928
30
0
10
1.2202878200675178
20
2.2508855730070043
30
0
10
1.2202878200675178
20
2.2326700805823769
30
0
0
LINE
5
201
100
AcDbEntity
8
0
100
AcDbLine
10
1.096209759497603
20
2.3641268457268172
30
0
11
1.0931857279378565
21
2.3641745501424047
31
0
0
SPLINE
5
202
100
AcDbEntity
8
0
100
AcDbSpline
70
0
71
3
72
16
73
12
74
0
42
0.000000001
43
0.0000000001
44
0.0000000001
40
0
40
0
40
0
40
0
40
0.13647021492440983
40
0.13647021492440983
40
0.26885647234361987
40
0.26885647234361987
40
0.39527242150426195
40
0.39527242150426195
40
0.45796951757902316
40
0.45796951757902316
40
0.52049729482451945
40
0.52049729482451945
40
0.52049729482451945
40
0.52049729482451945
10
0.96528782006751779
20
2.2327184955735806
30
0
10
0.96528782006751779
20
2.2506279725977811
30
0
10
0.96877171454239908
20
2.2684048195221727
30
0
10
0.98225350863256422
20
2.300996850758585
30
0
10
0.99194303964048913
20
2.3156140183914502
30
0
10
1.0159858407784084
20
2.3395510612341708
30
0
10
1.0298736077791477
20
2.3488414747337623
30
0
10
1.0528061407428007
20
2.3582190351356558
30
0
10
1.0606977326857241
20
2.3605570247963654
30
0
10
1.0768176535038037
20
2.3636020204385289
30
0
10
1.0849954649456992
20
2.36430400148347
30
0
10
1.0931857279378521
20
2.3641745501424056
30
0
0
LINE
5
203
100
AcDbEntity
8
0
100
AcDbLine
10
0.96528782006751779
20
2.2327184955735806
30
0
11
0.96528782006751801
21
2.1638083330291846
31
0
0
SPLINE
5
204
100
AcDbEntity
8
0
100
AcDbSpline
70
0
71
3
72
14
73
10
74
0
42
0.000000001
43
0.0000000001
44
0.0000000001
40
0
40
0
40
0
40
0
40
0.12500623148381632
40
0.12500623148381632
40
0.25001246296763302
40
0.25001246296763302
40
0.37501869445144942
40
0.37501869445144942
40
0.49998480714285787
40
0.49998480714285787
40
0.49998480714285787
40
0.49998480714285787
10
1.0896031874719583
20
2.0378351352116519
30
0
10
1.0731996096311924
20
2.0380524487222091
30
0
10
1.0569953050961709
20
2.0414716681107947
30
0
10
1.0268094260626144
20
2.0543290034308055
30
0
10
1.0131164450202153
20
2.0636441962287839
30
0
10
0.99007187357114379
20
2.0869989835600431
30
0
10
0.98094060182778664
20
2.1008152935970963
30
0
10
0.96849002834368314
20
2.1311655180922124
30
0
10
0.96528782006751801
20
2.1474085807074772
30
0
10
0.96528782006751801
20
2.1638083330291846
30
0
0
LINE
5
205
100
AcDbEntity
8
0
100
AcDbLine
10
1.0896031874719583
20
2.0378351352116519
30
0
11
1.0926513423443915
21
2.0377949537166016
31
0
0
SPLINE
5
206
100
AcDbEntity
8
0
100
AcDbSpline
70
0
71
3
72
16
73
12
74
0
42
0.000000001
43
0.0000000001
44
0.0000000001
40
0
40
0
40
0
40
0
40
0.12500623148381559
40
0.12500623148381559
40
0.25001246296763407
40
0.25001246296763407
40
0.37501869445145164
40
0.37501869445145164
40
0.45004756988671746
40
0.45004756988671746
40
0.52507644532198006
40
0.52507644532198006
40
0.52507644532198006
40
0.52507644532198006
10
1.7402878200675178
20
2.1465124456388405
30
0
10
1.7402878200675178
20
2.1301074283837464
30
0
10
1.7370835554042579
20
2.1138592520350361
30
0
10
1.7246272136505703
20
2.0835057034010616
30
0
10
1.7154942259765387
20
2.0696905275846991
30
0
10
1.692446754014596
20
2.0463386025950285
30
0
10
1.6787526161204838
20
2.0370251105524035
30
0
10
1.6545996004795385
20
2.0267409493570243
30
0
10
1.6451192666196028
20
2.0239588888896152
30
0
10
1.6257050293601676
20
2.0206594034495162
30
0
10
1.6158378881844728
20
2.0201533248399342
30
0
10
1.6060129222276487
20
2.0208012809194766
30
0
0
LINE
5
207
100
AcDbEntity
8
0
100
AcDbLine
10
1.7402878200675178
20
2.1465124456388405
30
0
11
1.7402878200675178
21
2.2165794155857519
31
0
0
SPLINE
5
208
100
AcDbEntity
8
0
100
AcDbSpline
70
0
71
3
72
14
73
10
74
0
42
0.000000001
43
0.0000000001
44
0.0000000001
40
0
40
0
40
0
40
0
40
0.12060962768210338
40
0.12060962768210338
40
0.24409750223365678
40
0.24409750223365678
40
0.37288757086547797
40
0.37288757086547797
40
0.49570369039434992
40
0.49570369039434992
40
0.49570369039434992
40
0.49570369039434992
10
1.6217948455515487
20
2.3477814067052214
30
0
10
1.6375925886124811
20
2.3468026267391511
30
0
10
1.6530161942034494
20
2.3427410458680922
30
0
10
1.6818781831484086
20
2.3288217181908304
30
0
10
1.6949385830150385
20
2.3189859336224385
30
0
10
1.7172085872401985
20
2.2944479695983655
30
0
10
1.7260086186469996
20
2.2798016299369959
30
0
10
1.7374546763224932
20
2.2487756303895794
30
0
10
1.7402878200675178
20
2.2327257494925354
30
0
10
1.7402878200675178
20
2.2165794155857519
30
0
0
LINE
5
209
100
AcDbEntity
8
0
100
AcDbLine
10
1.6217948455515487
20
2.3477814067052214
30
0
11
1.6187139218489057
21
2.3479716592513777
31
0
0
SPLINE
5
210
100
AcDbEntity
8
0
100
AcDbSpline
70
0
71
3
72
16
73
12
74
0
42
0.000000001
43
0.0000000001
44
0.0000000001
40
0
40
0
40
0
40
0
40
0.13642479601817806
40
0.13642479601817806
40
0.26877428517516894
40
0.26877428517516894
40
0.3951825954845658
40
0.3951825954845658
40
0.46495972924222495
40
0.46495972924222495
40
0.53454970393815304
40
0.53454970393815304
40
0.53454970393815304
40
0.53454970393815304
10
1.4852878200675179
20
2.2167661716320355
30
0
10
1.4852878200675179
20
2.2346696881698538
30
0
10
1.4887711511185666
20
2.2524402483418813
30
0
10
1.5022508812088748
20
2.2850215138430436
30
0
10
1.5119390783056978
20
2.2996335807764607
30
0
10
1.5359797007111362
20
2.323564815333413
30
0
10
1.5498676497940096
20
2.3328534645100634
30
0
10
1.5736585038164395
20
2.3425806456798437
30
0
10
1.58247446282705
20
2.3450841873745656
30
0
10
1.6004874495315209
20
2.348062717127795
30
0
10
1.6096147175386266
20
2.3485316873851145
30
0
10
1.6187139218489068
20
2.3479716592513782
30
0
0
LINE
5
211
100
AcDbEntity
8
0
100
AcDbLine
10
1.4852878200675179
20
2.2167661716320355
30
0
11
1.4852878200675179
21
2.1467116778377062
31
0
0
SPLINE
5
212
100
AcDbEntity
8
0
100
AcDbSpline
70
0
71
3
72
14
73
10
74
0
42
0.000000001
43
0.0000000001
44
0.0000000001
40
0
40
0
40
0
40
0
40
0.12500623148381715
40
0.12500623148381715
40
0.25001246296763346
40
0.25001246296763346
40
0.36658089566889107
40
0.36658089566889107
40
0.48314932837014923
40
0.48314932837014923
40
0.48314932837014923
40
0.48314932837014923
10
1.6030387372731147
20
2.0209967465735743
30
0
10
1.5866687895662646
20
2.0220688488144654
30
0
10
1.5706647528894577
20
2.0263281159742501
30
0
10
1.5411901400664862
20
2.0407414973781974
30
0
10
1.5280013572838143
20
2.0507578118402385
30
0
10
1.5069411508176374
20
2.0744544285041173
30
0
10
1.4989459567380325
20
2.0876448087350021
30
0
10
1.4880741142568279
20
2.1162434254662768
30
0
10
1.4852878200675179
20
2.1314139832574881
30
0
10
1.4852878200675179
20
2.1467116778377062
30
0
0
LINE
5
213
100
AcDbEntity
8
0
100
AcDbLine
10
1.6030387372731147
20
2.0209967465735743
30
0
11
1.6060129222276487
21
2.0208012809194766
31
0
0
SPLINE
5
214
100
AcDbEntity
8
0
100
AcDbSpline
70
0
71
3
72
14
73
10
74
0
42
0.000000001
43
0.0000000001
44
0.0000000001
40
0
40
0
40
0
40
0
40
0.11719334201607506
40
0.11719334201607506
40
0.23438668403215299
40
0.23438668403215299
40
0.33059796114170587
40
0.33059796114170587
40
0.37850869454028291
40
0.37850869454028291
40
0.37850869454028291
40
0.37850869454028291
10
2.2009084883247594
20
2.0464486812403924
30
0
10
2.1956483198689609
20
2.0319964871855718
30
0
10
2.1876156066226979
20
2.0187098918511404
30
0
10
2.1669093652331646
20
1.9959636238441751
30
0
10
2.1544338000433521
20
1.9867214178914621
30
0
10
2.1291300811788405
20
1.9747193449247753
30
0
10
2.1169279433360311
20
1.9711724574155989
30
0
10
2.0981568860217159
20
1.9688543652571586
30
0
10
2.09187526315911
20
1.9685844924162355
30
0
10
2.0856119214022129
20
1.9688131625579346
30
0
0
LINE
5
215
100
AcDbEntity
8
0
100
AcDbLine
10
2.2009084883247594
20
2.0464486812403924
30
0
11
2.2054250080669333
21
2.0588577172465254
31
0
0
LINE
5
216
100
AcDbEntity
8
0
100
AcDbLine
10
2.2054250080669333
20
2.0588577172465254
30
0
11
2.3275110567983872
21
2.0144220294890638
31
0
0
LINE
5
217
100
AcDbEntity
8
0
100
AcDbLine
10
2.3275110567983872
20
2.0144220294890638
30
0
11
2.3544417817907055
21
2.0884135909443864
31
0
0
LINE
5
218
100
AcDbEntity
8
0
100
AcDbLine
10
2.3544417817907055
20
2.0884135909443864
30
0
11
2.2908429753661572
21
2.2248016673601554
31
0
0
SPLINE
5
219
100
AcDbEntity
8
0
100
AcDbSpline
70
0
71
3
72
12
73
8
74
0
42
0.000000001
43
0.0000000001
44
0.0000000001
40
-0.19511239720581486
40
-0.19511239720581486
40
-0.19511239720581486
40
-0.19511239720581486
40
-0.13695459677589875
40
-0.13695459677589875
40
-0.079388760905465316
40
-0.079388760905465316
40
0
40
0
40
0
40
0
10
2.2908429753673265
20
2.2248016673576485
30
0
10
2.2876131910878041
20
2.2317279618887342
30
0
10
2.2835078397171475
20
2.2382244578866475
30
0
10
2.2737911165270552
20
2.2499199099547331
30
0
10
2.268223848432231
20
2.2550970616743191
30
0
10
2.2535362594917943
20
2.2654853935619017
30
0
10
2.2439823066016515
20
2.2698845584962881
30
0
10
2.2338499516391375
20
2.2723094200165281
30
0
0
SPLINE
5
220
100
AcDbEntity
8
0
100
AcDbSpline
70
0
71
3
72
8
73
4
74
0
42
0.000000001
43
0.0000000001
44
0.0000000001
40
-330.95731821114975
40
-330.95731821114975
40
-330.95731821114975
40
-330.95731821114975
40
-329.98697630102299
40
-329.98697630102299
40
-329.98697630102299
40
-329.98697630102299
10
2.2338499516389159
20
2.2723094200170206
30
0
10
2.2060460307412755
20
2.2789634168564441
30
0
10
2.1816084638749604
20
2.2846555249257343
30
0
10
2.1558257597521342
20
2.2899828427681292
30
0
0
SPLINE
5
221
100
AcDbEntity
8
0
100
AcDbSpline
70
0
71
3
72
16
73
12
74
0
42
0.000000001
43
0.0000000001
44
0.0000000001
40
0
40
0
40
0
40
0
40
0.13641726590291442
40
0.13641726590291442
40
0.26871546136480262
40
0.26871546136480262
40
0.39509745278759578
40
0.39509745278759578
40
0.48699435892275889
40
0.48699435892275889
40
0.57870467453594354
40
0.57870467453594354
40
0.57870467453594354
40
0.57870467453594354
10
2.0052878200675175
20
2.1610857772625289
30
0
10
2.0052878200675175
20
2.1789883055962447
30
0
10
2.0087707059882156
20
2.1967574271950658
30
0
10
2.0222493921857616
20
2.2293306364251602
30
0
10
2.0319344214327741
20
2.2439358783341228
30
0
10
2.0559686978455818
20
2.2678589032358265
30
0
10
2.0698540611609086
20
2.2771449150783751
30
0
10
2.0963237794868945
20
2.2879683074803987
30
0
10
2.1080645431731191
20
2.290859736645622
30
0
10
2.1320129560352337
20
2.2930864270804303
30
0
10
2.1440603023336968
20
2.2924138651671209
30
0
10
2.1558257597521298
20
2.2899828427681297
30
0
0
LINE
5
222
100
AcDbEntity
8
0
100
AcDbLine
10
2.0052878200675175
20
2.1610857772625289
30
0
11
2.0052878200675175
21
2.0862319957498952
31
0
0
SPLINE
5
223
100
AcDbEntity
8
0
100
AcDbSpline
70
0
71
3
72
14
73
10
74
0
42
0.000000001
43
0.0000000001
44
0.0000000001
40
0.050412662457859067
40
0.050412662457859067
40
0.050412662457859067
40
0.050412662457859067
40
0.1250062314838179
40
0.1250062314838179
40
0.25001246296763446
40
0.25001246296763446
40
0.34268365354307029
40
0.34268365354307029
40
0.43535484411850633
40
0.43535484411850633
40
0.43535484411850633
40
0.43535484411850633
10
2.0856119214022133
20
1.9688131625579346
30
0
10
2.0765295078323573
20
1.9723450011944181
30
0
10
2.0678665969872632
20
1.9769268926313746
30
0
10
2.046294851272453
20
1.9917860943750703
30
0
10
2.034731653360375
20
2.0036420211940551
30
0
10
2.0191197513282622
20
2.0275652029661013
30
0
10
2.0139829633375781
20
2.0386588878379923
30
0
10
2.0070488005388656
20
2.0619726793082354
30
0
10
2.0052878200675175
20
2.0740704221835649
30
0
10
2.0052878200675175
20
2.0862319957498952
30
0
0
LWPOLYLINE
5
224
100
AcDbEntity
8
0
100
AcDbPolyline
90
4
70
1
43
0.0
10
2.4643954162854911
20
1.9646001970991205
10
2.3275110567983872
20
2.0144220294890642
10
2.3544417817907055
20
2.0884135909443864
10
2.4913261418511738
20
2.0385917601297492
0
LWPOLYLINE
5
225
100
AcDbEntity
8
0
100
AcDbPolyline
90
4
70
1
43
0.0
10
2.6012797730903174
20
1.914778365685446
10
2.4643954162854911
20
1.9646001970991205
10
2.4913261418511738
20
2.0385917601297492
10
2.6282104992293647
20
1.9887699302913815
0
SPLINE
5
226
100
AcDbEntity
8
0
100
AcDbSpline
70
0
71
3
72
8
73
4
74
0
42
0.000000001
43
0.0000000001
44
0.0000000001
40
-6.1263685211962695
40
-6.1263685211962695
40
-6.1263685211962695
40
-6.1263685211962695
40
-5.8408110406656411
40
-5.8408110406656411
40
-5.8408110406656411
40
-5.8408110406656411
10
2.6304752116282213
20
2.0921359450376635
30
0
10
2.594260386485634
20
2.1053226175995965
30
0
10
2.5587136586589398
20
2.1177864976008935
30
0
10
2.5231334564577153
20
2.130186522730205
30
0
0
ELLIPSE
5
227
100
AcDbEntity
8
0
100
AcDbEllipse
10
2.4994942634808193
20
2.0610334899970026
30
0
11
0.025888763167633923
21
0.074362519737263863
31
0.0
40
0.014044812283854369
41
5.4976884959467016
42
6.6646389434399937
0
SPLINE
5
228
100
AcDbEntity
8
0
100
AcDbSpline
70
0
71
3
72
20
73
16
74
0
42
0.000000001
43
0.0000000001
44
0.0000000001
40
5.8408110434456706
40
5.8408110434456706
40
5.8408110434456706
40
5.8408110434456706
40
6.1263685211962695
40
6.1263685211962695
40
6.1263685211962695
40
6.3041145377983323
40
6.3041145377983323
40
6.3041145377983323
40
6.3698987665494373
40
6.3698987665494373
40
6.3698987665494373
40
6.3988521016679112
40
6.3988521016679112
40
6.3988521016679112
40
6.4049122089219672
40
6.4049122089219672
40
6.4049122089219672
40
6.4049122089219672
10
2.5185371580964131
20
2.11335341322309
30
0
10
2.5539222892337365
20
2.1010343408394681
30
0
10
2.589267680047691
20
2.0886453594485443
30
0
10
2.6245147341235961
20
2.0758097993286078
30
0
10
2.6464543573066437
20
2.0678202705649187
30
0
10
2.6683947776356516
20
2.0596671351607228
30
0
10
2.6899058371814308
20
2.0506688216208189
30
0
10
2.6978671321172616
20
2.0473385241120514
30
0
10
2.7057572156527074
20
2.0438673529169931
30
0
10
2.7135510607265441
20
2.0402317734575188
30
0
10
2.7169813328839942
20
2.0386316612051085
30
0
10
2.720397975125556
20
2.0370090878294147
30
0
10
2.7238075482768704
20
2.0353736240887992
30
0
10
2.7245211924530235
20
2.0350313116872156
30
0
10
2.7252346228894475
20
2.0346886256489776
30
0
10
2.7259478875778638
20
2.0343456243356823
30
0
0
LINE
5
229
100
AcDbEntity
8
0
100
AcDbLine
10
2.7259478875778638
20
2.0343456243356828
30
0
11
2.7370039257860119
21
2.0395011397759037
31
0
0
SPLINE
5
230
100
AcDbEntity
8
0
100
AcDbSpline
70
0
71
3
72
18
73
14
74
0
42
0.000000001
43
0.0000000001
44
0.0000000001
40
0
40
0
40
0
40
0
40
0.082873358938541725
40
0.082873358938541725
40
0.15287353756302041
40
0.15287353756302041
40
0.16180522487663532
40
0.16180522487663532
40
0.17751025878721899
40
0.17751025878721899
40
0.2249749993884228
40
0.2249749993884228
40
0.22575363565310347
40
0.22575363565310347
40
0.22575363565310347
40
0.22575363565310347
10
2.737003925786035
20
2.0395011397759149
30
0
10
2.7437460890937553
20
2.0426450622532966
30
0
10
2.7505493996390822
20
2.0437005039099674
30
0
10
2.7625200811770139
20
2.0423809216145896
30
0
10
2.7677681330130341
20
2.0405142305930108
30
0
10
2.7732770263762911
20
2.0372071114371404
30
0
10
2.7738947338729028
20
2.0368153822641801
30
0
10
2.7755827530384147
20
2.0356874840767061
30
0
10
2.7766390621767054
20
2.034916241086413
30
0
10
2.7808050521425289
20
2.0316080816553876
30
0
10
2.783750824319104
20
2.0286531874167308
30
0
10
2.7865187394034248
20
2.0252203893291618
30
0
10
2.7865633532867151
20
2.0251648707398977
30
0
10
2.7866079074113186
20
2.0251092382828912
30
0
0
SPLINE
5
231
100
AcDbEntity
8
0
100
AcDbSpline
70
0
71
3
72
8
73
4
74
0
42
0.000000001
43
0.0000000001
44
0.0000000001
40
-6.5350241940955849
40
-6.5350241940955849
40
-6.5350241940955849
40
-6.5350241940955849
40
-6.5005332590282796
40
-6.5005332590282796
40
-6.5005332590282796
40
-6.5005332590282796
10
2.7866079074113159
20
2.0251092382828921
30
0
10
2.7824998947146953
20
2.0270423727521183
30
0
10
2.7784052729050339
20
2.0289656494384891
30
0
10
2.7743474528168388
20
2.0308718768163714
30
0
0
SPLINE
5
232
100
AcDbEntity
8
0
100
AcDbSpline
70
0
71
3
72
8
73
4
74
0
42
0.000000001
43
0.0000000001
44
0.0000000001
40
-6.5005332590282796
40
-6.5005332590282796
40
-6.5005332590282796
40
-6.5005332590282796
40
-6.4896768050339793
40
-6.4896768050339793
40
-6.4896768050339793
40
-6.4896768050339793
10
2.7743474528168388
20
2.0308718768163714
30
0
10
2.7731015041973879
20
2.0314559709373556
30
0
10
2.7718535002406774
20
2.0320419517237802
30
0
10
2.7706154902206155
20
2.03262420317657
30
0
0
SPLINE
5
233
100
AcDbEntity
8
0
100
AcDbSpline
70
0
71
3
72
11
73
7
74
0
42
0.000000001
43
0.0000000001
44
0.0000000001
40
-6.4896768050339793
40
-6.4896768050339793
40
-6.4896768050339793
40
-6.4896768050339793
40
-6.3988521016679112
40
-6.3988521016679112
40
-6.3988521016679112
40
-6.3939104411603891
40
-6.3939104411603891
40
-6.3939104411603891
40
-6.3939104411603891
10
2.7706154902206155
20
2.03262420317657
30
0
10
2.7602572056882182
20
2.0374894482505321
30
0
10
2.7501457103536042
20
2.042379227751407
30
0
10
2.7389566524617637
20
2.0477427694511574
30
0
10
2.7383478695706414
20
2.0480345931644841
30
0
10
2.7377495552995805
20
2.0483211544330966
30
0
10
2.7371250772521738
20
2.0486199226806199
30
0
0
SPLINE
5
234
100
AcDbEntity
8
0
100
AcDbSpline
70
0
71
3
72
8
73
4
74
0
42
0.000000001
43
0.0000000001
44
0.0000000001
40
-6.3939104411603891
40
-6.3939104411603891
40
-6.3939104411603891
40
-6.3939104411603891
40
-6.3842490019852116
40
-6.3842490019852116
40
-6.3842490019852116
40
-6.3842490019852116
10
2.7371250772521738
20
2.0486199226806199
30
0
10
2.7359045791014522
20
2.0492059754299401
30
0
10
2.734618637238857
20
2.0498207195439666
30
0
10
2.733354022752168
20
2.0504222492470232
30
0
0
SPLINE
5
235
100
AcDbEntity
8
0
100
AcDbSpline
70
0
71
3
72
8
73
4
74
0
42
0.000000001
43
0.0000000001
44
0.0000000001
40
-6.3842490019852116
40
-6.3842490019852116
40
-6.3842490019852116
40
-6.3842490019852116
40
-6.3698987665494373
40
-6.3698987665494373
40
-6.3698987665494373
40
-6.3698987665494373
10
2.733354022752168
20
2.0504222492470232
30
0
10
2.7314756857926432
20
2.0513157424920938
30
0
10
2.7296020216042707
20
2.052200516323754
30
0
10
2.7277166335654504
20
2.0530839562748717
30
0
0
SPLINE
5
236
100
AcDbEntity
8
0
100
AcDbSpline
70
0
71
3
72
8
73
4
74
0
42
0.000000001
43
0.0000000001
44
0.0000000001
40
-6.3698987665494373
40
-6.3698987665494373
40
-6.3698987665494373
40
-6.3698987665494373
40
-6.3041145377983323
40
-6.3041145377983323
40
-6.3041145377983323
40
-6.3041145377983323
10
2.7277166335654504
20
2.0530839562748717
30
0
10
2.7185433922996851
20
2.0573992141621034
30
0
10
2.7094661642234117
20
2.061406732512447
30
0
10
2.7003380950333726
20
2.0652372351966899
30
0
0
SPLINE
5
237
100
AcDbEntity
8
0
100
AcDbSpline
70
0
71
3
72
8
73
4
74
0
42
0.000000001
43
0.0000000001
44
0.0000000001
40
-6.3041145377983323
40
-6.3041145377983323
40
-6.3041145377983323
40
-6.3041145377983323
40
-6.1464526546521991
40
-6.1464526546521991
40
-6.1464526546521991
40
-6.1464526546521991
10
2.7003380950333726
20
2.0652372351966899
30
0
10
2.6788342587807392
20
2.0742560856495418
30
0
10
2.658220188307459
20
2.0819734834104708
30
0
10
2.6381285381444632
20
2.0893398068664406
30
0
0
SPLINE
5
238
100
AcDbEntity
8
0
100
AcDbSpline
70
0
71
3
72
8
73
4
74
0
42
0.000000001
43
0.0000000001
44
0.0000000001
40
-6.1464526546521991
40
-6.1464526546521991
40
-6.1464526546521991
40
-6.1464526546521991
40
-6.1263685211962695
40
-6.1263685211962695
40
-6.1263685211962695
40
-6.1263685211962695
10
2.6381285381444632
20
2.0893398068664406
30
0
10
2.6355691313195719
20
2.0902782273100207
30
0
10
2.6330194302745951
20
2.0912095151328454
30
0
10
2.6304752116282213
20
2.0921359450376635
30
0
0
SPLINE
5
239
100
AcDbEntity
8
0
100
AcDbSpline
70
0
71
3
72
17
73
13
74
0
42
0.000000001
43
0.0000000001
44
0.0000000001
40
5.2872163778235794
40
5.2872163778235794
40
5.2872163778235794
40
5.2872163778235794
40
5.3951671193997441
40
5.3951671193997441
40
5.3951671193997441
40
5.5279358656132072
40
5.5279358656132072
40
5.5279358656132072
40
5.8058575363753366
40
5.8058575363753366
40
5.8058575363753366
40
5.8405191346154544
40
5.8405191346154544
40
5.8405191346154544
40
5.8405191346154544
10
2.3114589865304778
20
2.1805904900732713
30
0
10
2.3250785445719448
20
2.1768637334263401
30
0
10
2.3386986896588842
20
2.1731310869090943
30
0
10
2.3522660381984428
20
2.1691390300857618
30
0
10
2.3689525363988033
20
2.1642291946227719
30
0
10
2.3855288542067368
20
2.1588533467779141
30
0
10
2.4020578649588216
20
2.1533289175748198
30
0
10
2.4366576515447309
20
2.141764760814143
30
0
10
2.4711492844055045
20
2.1298130367262735
30
0
10
2.5056359393154914
20
2.1178387804148393
30
0
10
2.5099370165717465
20
2.1163453853141516
30
0
10
2.5142379054682014
20
2.1148501663222588
30
0
10
2.518537158091561
20
2.1133534132084959
30
0
0
ELLIPSE
5
240
100
AcDbEntity
8
0
100
AcDbEllipse
10
2.4994942634808193
20
2.0610334899970026
30
0
11
0.025888763167633923
21
0.074362519737263863
31
0.0
40
0.014044812283854369
41
5.4976884959466563
42
6.6646389434395825
0
SPLINE
5
241
100
AcDbEntity
8
0
100
AcDbSpline
70
0
71
3
72
8
73
4
74
0
42
0.000000001
43
0.0000000001
44
0.0000000001
40
-5.8405191346154544
40
-5.8405191346154544
40
-5.8405191346154544
40
-5.8405191346154544
40
-5.8058575363753366
40
-5.8058575363753366
40
-5.8058575363753366
40
-5.8058575363753366
10
2.5231334564577157
20
2.1301865227302046
30
0
10
2.5188104837351251
20
2.1316931181988732
30
0
10
2.5144796384972872
20
2.1332004027042144
30
0
10
2.510153843734011
20
2.1347040839499378
30
0
0
LINE
5
242
100
AcDbEntity
8
0
100
AcDbLine
10
2.510153843734011
20
2.1347040839499374
30
0
11
2.5048809853132141
21
2.1365362345435828
31
0
0
SPLINE
5
243
100
AcDbEntity
8
0
100
AcDbSpline
70
0
71
3
72
8
73
4
74
0
42
0.000000001
43
0.0000000001
44
0.0000000001
40
-5.7917638238411255
40
-5.7917638238411255
40
-5.7917638238411255
40
-5.7917638238411255
40
-5.5279358656132072
40
-5.5279358656132072
40
-5.5279358656132072
40
-5.5279358656132072
10
2.5048809853132141
20
2.1365362345435828
30
0
10
2.4719935198767593
20
2.1479588872906592
30
0
10
2.4392212058322902
20
2.1593236641937779
30
0
10
2.4054652820779192
20
2.1706187873640395
30
0
0
SPLINE
5
244
100
AcDbEntity
8
0
100
AcDbSpline
70
0
71
3
72
8
73
4
74
0
42
0.000000001
43
0.0000000001
44
0.0000000001
40
-5.5279358656132072
40
-5.5279358656132072
40
-5.5279358656132072
40
-5.5279358656132072
40
-5.5144824921491624
40
-5.5144824921491624
40
-5.5144824921491624
40
-5.5144824921491624
10
2.4054652820779192
20
2.1706187873640395
30
0
10
2.4037303492446145
20
2.1711990554646574
30
0
10
2.4019939670820611
20
2.1717780172655119
30
0
10
2.4002468592992572
20
2.1723584542907739
30
0
0
SPLINE
5
245
100
AcDbEntity
8
0
100
AcDbSpline
70
0
71
3
72
8
73
4
74
0
42
0.000000001
43
0.0000000001
44
0.0000000001
40
-5.5144824921491624
40
-5.5144824921491624
40
-5.5144824921491624
40
-5.5144824921491624
40
-5.5044244025947329
40
-5.5044244025947329
40
-5.5044244025947329
40
-5.5044244025947329
10
2.4002468592992572
20
2.1723584542907739
30
0
10
2.398940630214792
20
2.1727922926101728
30
0
10
2.3976203326971297
20
2.1732294750930459
30
0
10
2.3963069577783647
20
2.1736629186541538
30
0
0
SPLINE
5
246
100
AcDbEntity
8
0
100
AcDbSpline
70
0
71
3
72
8
73
4
74
0
42
0.000000001
43
0.0000000001
44
0.0000000001
40
-5.5044244025947329
40
-5.5044244025947329
40
-5.5044244025947329
40
-5.5044244025947329
40
-5.3951671193997441
40
-5.3951671193997441
40
-5.3951671193997441
40
-5.3951671193997441
10
2.3963069577783647
20
2.1736629186541538
30
0
10
2.3820403019955014
20
2.1783713677097816
30
0
10
2.3673617119487371
20
2.18305991309186
30
0
10
2.3521218941756166
20
2.1875191013825224
30
0
0
SPLINE
5
247
100
AcDbEntity
8
0
100
AcDbSpline
70
0
71
3
72
8
73
4
74
0
42
0.000000001
43
0.0000000001
44
0.0000000001
40
-5.3951671193997441
40
-5.3951671193997441
40
-5.3951671193997441
40
-5.3951671193997441
40
-5.3334891177672281
40
-5.3334891177672281
40
-5.3334891177672281
40
-5.3334891177672281
10
2.3521218941756166
20
2.1875191013825224
30
0
10
2.3438049589256966
20
2.1899621598847991
30
0
10
2.3353527329892043
20
2.1923503041176553
30
0
10
2.3272558025622829
20
2.1945940954365897
30
0
0
SPLINE
5
248
100
AcDbEntity
8
0
100
AcDbSpline
70
0
71
3
72
11
73
7
74
0
42
0.000000001
43
0.0000000001
44
0.0000000001
40
-5.3334891177672281
40
-5.3334891177672281
40
-5.3334891177672281
40
-5.3334891177672281
40
-5.2590023142975495
40
-5.2590023142975495
40
-5.2590023142975495
40
-5.2560462511360972
40
-5.2560462511360972
40
-5.2560462511360972
40
-5.2560462511360972
10
2.3272558025622829
20
2.1945940954365897
30
0
10
2.3174797729568253
20
2.1973086171459477
30
0
10
2.3081263412079052
20
2.1998736504137968
30
0
10
2.2988288244479174
20
2.202445286340371
30
0
10
2.2984598457093095
20
2.2025473435890794
30
0
10
2.2980916086489285
20
2.2026492230575125
30
0
10
2.2977224825617157
20
2.2027513778081023
30
0
0
SPLINE
5
249
100
AcDbEntity
8
0
100
AcDbSpline
70
0
71
3
72
8
73
4
74
0
42
0.000000001
43
0.0000000001
44
0.0000000001
40
-5.2560462511360972
40
-5.2560462511360972
40
-5.2560462511360972
40
-5.2560462511360972
40
-5.155596763427285
40
-5.155596763427285
40
-5.155596763427285
40
-5.155596763427285
10
2.2977224825617157
20
2.2027513778081023
30
0
10
2.2851771705990989
20
2.2062187046568615
30
0
10
2.2725408642445877
20
2.2097187772708833
30
0
10
2.2599054995970143
20
2.2132362443021321
30
0
0
SPLINE
5
250
100
AcDbEntity
8
0
100
AcDbSpline
70
0
71
3
72
14
73
10
74
0
42
0.000000001
43
0.0000000001
44
0.0000000001
40
0
40
0
40
0
40
0
40
0.083700327131137592
40
0.083700327131137592
40
0.15192966916720127
40
0.15192966916720127
40
0.22151308625426491
40
0.22151308625426491
40
0.22228940119604704
40
0.22228940119604704
40
0.22228940119604704
40
0.22228940119604704
10
2.3058864634670195
20
2.1925408039885403
30
0
10
2.3027584117757289
20
2.1992489322866762
30
0
10
2.2982177956846366
20
2.2043995309978279
30
0
10
2.2883106547533112
20
2.2109091484294168
30
0
10
2.283258152154243
20
2.2127904506202292
30
0
10
2.2722659610719025
20
2.2145656691683189
30
0
10
2.2663020010906054
20
2.2144212549807927
30
0
10
2.2600436881675336
20
2.2132621956976939
30
0
10
2.2599746081689371
20
2.2132492823851346
30
0
10
2.2599054995970138
20
2.2132362443021325
30
0
0
LINE
5
251
100
AcDbEntity
8
0
100
AcDbLine
10
2.3058864634670195
20
2.1925408039885403
30
0
11
2.3114589865304778
21
2.1805904900732713
31
0
0
SPLINE
5
252
100
AcDbEntity
8
0
100
AcDbSpline
70
0
71
3
72
17
73
13
74
0
42
0.000000001
43
0.0000000001
44
0.0000000001
40
5.2872163778235794
40
5.2872163778235794
40
5.2872163778235794
40
5.2872163778235794
40
5.3951671193997441
40
5.3951671193997441
40
5.3951671193997441
40
5.5279358656132072
40
5.5279358656132072
40
5.5279358656132072
40
5.8058575363753366
40
5.8058575363753366
40
5.8058575363753366
40
5.8405191346154544
40
5.8405191346154544
40
5.8405191346154544
40
5.8405191346154544
10
2.3114589865304778
20
2.1805904900732713
30
0
10
2.3250785445719448
20
2.1768637334263401
30
0
10
2.3386986896588842
20
2.1731310869090943
30
0
10
2.3522660381984428
20
2.1691390300857618
30
0
10
2.3689525363988033
20
2.1642291946227719
30
0
10
2.3855288542067368
20
2.1588533467779141
30
0
10
2.4020578649588216
20
2.1533289175748198
30
0
10
2.4366576515447309
20
2.141764760814143
30
0
10
2.4711492844055045
20
2.1298130367262735
30
0
10
2.5056359393154914
20
2.1178387804148393
30
0
10
2.5099370165717465
20
2.1163453853141516
30
0
10
2.5142379054682014
20
2.1148501663222588
30
0
10
2.518537158091561
20
2.1133534132084959
30
0
0
LINE
5
253
100
AcDbEntity
8
0
100
AcDbLine
10
2.3114589865304778
20
2.1805904900732713
30
0
11
2.3544417817907055
21
2.0884135909443864
31
0
0
LINE
5
254
100
AcDbEntity
8
0
100
AcDbLine
10
2.3544417817907055
20
2.0884135909443864
30
0
11
2.4913261418511738
21
2.0385917601297492
31
0
0
LINE
5
255
100
AcDbEntity
8
0
100
AcDbLine
10
2.4913261418511738
20
2.0385917601297492
30
0
11
2.518537158091561
21
2.1133534132084959
31
0
0
SPLINE
5
256
100
AcDbEntity
8
0
100
AcDbSpline
70
0
71
3
72
20
73
16
74
0
42
0.000000001
43
0.0000000001
44
0.0000000001
40
5.8408110434456706
40
5.8408110434456706
40
5.8408110434456706
40
5.8408110434456706
40
6.1263685211962695
40
6.1263685211962695
40
6.1263685211962695
40
6.3041145377983323
40
6.3041145377983323
40
6.3041145377983323
40
6.3698987665494373
40
6.3698987665494373
40
6.3698987665494373
40
6.3988521016679112
40
6.3988521016679112
40
6.3988521016679112
40
6.4049122089219672
40
6.4049122089219672
40
6.4049122089219672
40
6.4049122089219672
10
2.5185371580964131
20
2.11335341322309
30
0
10
2.5539222892337365
20
2.1010343408394681
30
0
10
2.589267680047691
20
2.0886453594485443
30
0
10
2.6245147341235961
20
2.0758097993286078
30
0
10
2.6464543573066437
20
2.0678202705649187
30
0
10
2.6683947776356516
20
2.0596671351607228
30
0
10
2.6899058371814308
20
2.0506688216208189
30
0
10
2.6978671321172616
20
2.0473385241120514
30
0
10
2.7057572156527074
20
2.0438673529169931
30
0
10
2.7135510607265441
20
2.0402317734575188
30
0
10
2.7169813328839942
20
2.0386316612051085
30
0
10
2.720397975125556
20
2.0370090878294147
30
0
10
2.7238075482768704
20
2.0353736240887992
30
0
10
2.7245211924530235
20
2.0350313116872156
30
0
10
2.7252346228894475
20
2.0346886256489776
30
0
10
2.7259478875778638
20
2.0343456243356823
30
0
0
LINE
5
257
100
AcDbEntity
8
0
100
AcDbLine
10
2.5185371580964131
20
2.11335341322309
30
0
11
2.4913261418511738
21
2.0385917601297492
31
0
0
LINE
5
258
100
AcDbEntity
8
0
100
AcDbLine
10
2.4913261418511738
20
2.0385917601297492
30
0
11
2.6282104992293647
21
1.9887699302913815
31
0
0
LINE
5
259
100
AcDbEntity
8
0
100
AcDbLine
10
2.6282104992293647
20
1.9887699302913815
30
0
11
2.7259478875778638
21
2.0343456243356828
31
0
0
LINE
5
260
100
AcDbEntity
8
0
100
AcDbLine
10
0.57841746717415232
20
2.288588565986633
30
0
11
0.57437386005841817
21
2.2885909641772439
31
0
0
SPLINE
5
261
100
AcDbEntity
8
0
100
AcDbSpline
70
0
71
3
72
18
73
14
74
0
42
0.000000001
43
0.0000000001
44
0.0000000001
40
0
40
0
40
0
40
0
40
0.089784706988750407
40
0.089784706988750407
40
0.19338424827520323
40
0.19338424827520323
40
0.33073358996047725
40
0.33073358996047725
40
0.47099697435658916
40
0.47099697435658916
40
0.61780286248715544
40
0.61780286248715544
40
0.61894910240504164
40
0.61894910240504164
40
0.61894910240504164
40
0.61894910240504164
10
0.700287820067517
20
2.2193967471246769
30
0
10
0.700287820067517
20
2.2303677633106633
30
0
10
0.698640123752019
20
2.2404979408723165
30
0
10
0.69208648763929348
20
2.2600449117328463
30
0
10
0.6868373476799785
20
2.2687790660977822
30
0
10
0.67207849108182816
20
2.285128065418089
30
0
10
0.66179513550167179
20
2.2914137154849237
30
0
10
0.63944864320369865
20
2.2989147879955372
30
0
10
0.62722401019447838
20
2.3000713403343718
30
0
10
0.6016559948863488
20
2.2979148414982529
30
0
10
0.5881407441170613
20
2.294378398864084
30
0
10
0.57458391928520591
20
2.2886796585429972
30
0
10
0.57447888955430471
20
2.2886353769667265
30
0
10
0.57437386005841817
20
2.2885909641772444
30
0
0
LINE
5
262
100
AcDbEntity
8
0
100
AcDbLine
10
0.700287820067517
20
2.2193967471246769
30
0
11
0.70028782006751766
21
2.1734443317004639
31
0
0
SPLINE
5
263
100
AcDbEntity
8
0
100
AcDbSpline
70
0
71
3
72
13
73
9
74
0
42
0.000000001
43
0.0000000001
44
0.0000000001
40
50.458238115520238
40
50.458238115520238
40
50.458238115520238
40
50.458238115520238
40
50.614026188769607
40
50.614026188769607
40
50.861969941794449
40
50.861969941794449
40
50.861969941794449
40
51.131343727324605
40
51.131343727324605
40
51.131343727324605
40
51.131343727324605
10
0.70028782006751766
20
2.1734443317004639
30
0
10
0.72073243548469157
20
2.173466812359266
30
0
10
0.74117704863155931
20
2.1734991408592137
30
0
10
0.79416011391359875
20
2.1736099522571126
30
0
10
0.82669876736785786
20
2.173674542336931
30
0
10
0.85923725299381315
20
2.173609684301308
30
0
10
0.89458807325668233
20
2.1735392205192414
30
0
10
0.92993898384396301
20
2.1733500359334941
30
0
10
0.96528782006751601
20
2.1729673817531889
30
0
0
LINE
5
264
100
AcDbEntity
8
0
100
AcDbLine
10
0.96528782006751601
20
2.1729673817531889
30
0
11
0.96528782006751723
21
2.2172316783722272
31
0
0
SPLINE
5
265
100
AcDbEntity
8
0
100
AcDbSpline
70
0
71
3
72
18
73
14
74
0
42
0.000000001
43
0.0000000001
44
0.0000000001
40
-0.0011601931326325708
40
-0.0011601931326325708
40
-0.0011601931326325708
40
-0.0011601931326325708
40
0
40
0
40
0.15352909165175255
40
0.15352909165175255
40
0.29977150953527321
40
0.29977150953527321
40
0.43618555457699348
40
0.43618555457699348
40
0.53964310854656183
40
0.53964310854656183
40
0.62998786186145483
40
0.62998786186145483
40
0.62998786186145483
40
0.62998786186145483
10
1.0931680377484214
20
2.2861864728894052
30
0
10
1.0930632356065295
20
2.2862326984089179
30
0
10
1.0929584309166067
20
2.2862787930155264
30
0
10
1.0789844455232229
20
2.2924071455553121
30
0
10
1.0649998279146686
20
2.2962269906960158
30
0
10
1.0385534127305969
20
2.2985758486010619
30
0
10
1.0258983162823252
20
2.2973587897452128
30
0
10
1.0033667321431619
20
2.2894849292816466
30
0
10
0.9932403599418077
20
2.2831491818324743
30
0
10
0.97865159347542618
20
2.2667599470528415
30
0
10
0.97345137435719264
20
2.2580051566179358
30
0
10
0.9669273863853004
20
2.2384071373443279
30
0
10
0.96528782006751856
20
2.2282295473577984
30
0
10
0.96528782006751856
20
2.2172316783722272
30
0
0
SPLINE
5
266
100
AcDbEntity
8
0
100
AcDbSpline
70
0
71
3
72
8
73
4
74
0
42
0.000000001
43
0.0000000001
44
0.0000000001
40
-51.451381307390051
40
-51.451381307390051
40
-51.451381307390051
40
-51.451381307390051
40
-51.274819020090646
40
-51.274819020090646
40
-51.274819020090646
40
-51.274819020090646
10
1.0931680377484239
20
2.2861864728894052
30
0
10
1.0700469923198255
20
2.2865674764283437
30
0
10
1.0468553053820333
20
2.2869626153792857
30
0
10
1.0236226512841136
20
2.2873358528593788
30
0
0
SPLINE
5
267
100
AcDbEntity
8
0
100
AcDbSpline
70
0
71
3
72
8
73
4
74
0
42
0.000000001
43
0.0000000001
44
0.0000000001
40
-51.274819020090646
40
-51.274819020090646
40
-51.274819020090646
40
-51.274819020090646
40
-51.207855471775794
40
-51.207855471775794
40
-51.207855471775794
40
-51.207855471775794
10
1.0236226512841136
20
2.2873358528593788
30
0
10
1.0147716316747397
20
2.287478141837699
30
0
10
1.005933748668445
20
2.2876132547075931
30
0
10
0.99706403737498073
20
2.2877413261876351
30
0
0
SPLINE
5
268
100
AcDbEntity
8
0
100
AcDbSpline
70
0
71
3
72
11
73
7
74
0
42
0.000000001
43
0.0000000001
44
0.0000000001
40
-51.207855471775794
40
-51.207855471775794
40
-51.207855471775794
40
-51.207855471775794
40
-50.861969941794449
40
-50.861969941794449
40
-50.861969941794449
40
-50.725455207506762
40
-50.725455207506762
40
-50.725455207506762
40
-50.725455207506762
10
0.99706403737498073
20
2.2877413261876351
30
0
10
0.95124949959043725
20
2.2884036355510435
30
0
10
0.9052054930722897
20
2.2886839695831718
30
0
10
0.85946680925295349
20
2.2887752604183982
30
0
10
0.84141458177584061
20
2.2888112912523981
30
0
10
0.82335179982185402
20
2.2888155018332665
30
0
10
0.80534184042023138
20
2.2887930116202528
30
0
0
SPLINE
5
269
100
AcDbEntity
8
0
100
AcDbSpline
70
0
71
3
72
8
73
4
74
0
42
0.000000001
43
0.0000000001
44
0.0000000001
40
-50.725455207506762
40
-50.725455207506762
40
-50.725455207506762
40
-50.725455207506762
40
-50.645034526188525
40
-50.645034526188525
40
-50.645034526188525
40
-50.645034526188525
10
0.80534184042023138
20
2.2887930116202528
30
0
10
0.79473219301690534
20
2.2887796948369221
30
0
10
0.7841252181449675
20
2.2887602014327451
30
0
10
0.7735653199832534
20
2.2887358031877252
30
0
0
SPLINE
5
270
100
AcDbEntity
8
0
100
AcDbSpline
70
0
71
3
72
10
73
6
74
0
42
0.000000001
43
0.0000000001
44
0.0000000001
40
-50.645034526188525
40
-50.645034526188525
40
-50.645034526188525
40
-50.645034526188525
40
-50.614026188769607
40
-50.614026188769607
40
-50.148500983646485
40
-50.148500983646485
40
-50.148500983646485
40
-50.148500983646485
10
0.7735653199832534
20
2.2887358031877252
30
0
10
0.76949366988910739
20
2.2887263413221652
30
0
10
0.76544231662800288
20
2.288717369854631
30
0
10
0.70040512526312226
20
2.2885803214776859
30
0
10
0.63952228710136416
20
2.2885519714618923
30
0
10
0.57841746717415232
20
2.288588565986633
30
0
0
SPLINE
5
271
100
AcDbEntity
8
0
100
AcDbSpline
70
0
71
3
72
19
73
15
74
0
42
0.000000001
43
0.0000000001
44
0.0000000001
40
3.1306480220541566
40
3.1306480220541566
40
3.1306480220541566
40
3.1306480220541566
40
3.1681901422877967
40
3.1681901422877967
40
3.1681901422877967
40
3.3403134843474653
40
3.3403134843474653
40
3.3403134843474653
40
3.428962053681385
40
3.428962053681385
40
3.517610623015305
40
3.517610623015305
40
3.517610623015305
40
3.5180951956212811
40
3.5180951956212811
40
3.5180951956212811
40
3.5180951956212811
10
0.96528782006751535
20
2.1656004624146017
30
0
10
0.96036051039610093
20
2.1656670434630318
30
0
10
0.95543319983250907
20
2.1657323608179966
30
0
10
0.95050595978565711
20
2.1657962105943942
30
0
10
0.92791551953570883
20
2.1660889494390543
30
0
10
0.90532572177864368
20
2.1662911928868152
30
0
10
0.88273780062931173
20
2.1664328121956502
30
0
10
0.87110435876050629
20
2.1665057502932261
30
0
10
0.85947080390864161
20
2.1665623108020999
30
0
10
0.83620358807268769
20
2.1666480641212185
30
0
10
0.82456992659520745
20
2.166677243138182
30
0
10
0.8129362694173462
20
2.1666948598618556
30
0
10
0.81287267728474821
20
2.1666949561587474
30
0
10
0.81280908515096761
20
2.166695052109056
30
0
10
0.81274549301780608
20
2.1666951477130922
30
0
0
LINE
5
272
100
AcDbEntity
8
0
100
AcDbLine
10
0.81274549301955201
20
2.0407107523386063
30
0
11
0.81274549301780619
21
2.1666951477130927
31
0
0
SPLINE
5
273
100
AcDbEntity
8
0
100
AcDbSpline
70
0
71
3
72
16
73
12
74
0
42
0.000000001
43
0.0000000001
44
0.0000000001
40
-3.517610623015305
40
-3.517610623015305
40
-3.517610623015305
40
-3.517610623015305
40
-3.428962053681385
40
-3.428962053681385
40
-3.3403134843474653
40
-3.3403134843474653
40
-3.3403134843474653
40
-3.1681901422877967
40
-3.1681901422877967
40
-3.1681901422877967
40
-2.810696797171488
40
-2.810696797171488
40
-2.810696797171488
40
-2.810696797171488
10
0.81274549301955257
20
2.0407107523386068
30
0
10
0.82429540831141124
20
2.0406932624243828
30
0
10
0.83583844373901395
20
2.040664302270164
30
0
10
0.85890730302197305
20
2.0405792800111304
30
0
10
0.87043314906784419
20
2.0405232304672345
30
0
10
0.88194793369520119
20
2.0404510363140176
30
0
10
0.90430546555442815
20
2.0403108614750751
30
0
10
0.92662539146262746
20
2.0401108382204707
30
0
10
0.94887352642889999
20
2.0398225351482946
30
0
10
0.99555553673600705
20
2.0392176050268551
30
0
10
1.0424487364568764
20
2.03845983424914
30
0
10
1.0896031874719583
20
2.0378351352116519
30
0
0
SPLINE
5
274
100
AcDbEntity
8
0
100
AcDbSpline
70
0
71
3
72
18
73
14
74
0
42
0.000000001
43
0.0000000001
44
0.0000000001
40
0
40
0
40
0
40
0
40
0.089954077396439389
40
0.089954077396439389
40
0.19365680092616616
40
0.19365680092616616
40
0.33273249022484075
40
0.33273249022484075
40
0.46462030317768543
40
0.46462030317768543
40
0.60265744362003437
40
0.60265744362003437
40
0.6037727491536673
40
0.6037727491536673
40
0.6037727491536673
40
0.6037727491536673
10
0.9652878200675189
20
2.1638083330291846
30
0
10
0.9652878200675189
20
2.1520045299986665
30
0
10
0.96694493154990713
20
2.1404877485945448
30
0
10
0.9735943238928122
20
2.1169521717744417
30
0
10
0.97893312468950922
20
2.1055456479893797
30
0
10
0.9940853385883518
20
2.0820577995555882
30
0
10
1.0047528902536929
20
2.0711251687194543
30
0
10
1.0270868776403634
20
2.0545586815139827
30
0
10
1.0388207942022223
20
2.0485645595491659
30
0
10
1.0633549680557846
20
2.0402438183059606
30
0
10
1.0763442871798579
20
2.0380434314022322
30
0
10
1.0893939947731723
20
2.0378380368783735
30
0
10
1.0894985901813463
20
2.0378365209096159
30
0
10
1.0896031874719585
20
2.0378351352116519
30
0
0
LINE
5
275
100
AcDbEntity
8
0
100
AcDbLine
10
0.9652878200675189
20
2.1638083330291846
30
0
11
0.96528782006751535
21
2.1656004624146017
31
0
0
SPLINE
5
276
100
AcDbEntity
8
0
100
AcDbSpline
70
0
71
3
72
13
73
9
74
0
42
0.000000001
43
0.0000000001
44
0.0000000001
40
-2.8031726265161812
40
-2.8031726265161812
40
-2.8031726265161812
40
-2.8031726265161812
40
-2.4727459548314776
40
-2.4727459548314776
40
-2.1243746779660873
40
-2.1243746779660873
40
-2.1243746779660873
40
-1.4904818252155716
40
-1.4904818252155716
40
-1.4904818252155716
40
-1.4904818252155716
10
1.0926513423443849
20
2.0377949537166016
30
0
10
1.1362046356040332
20
2.0372237231006403
30
0
10
1.1795043535479737
20
2.036829504293256
30
0
10
1.2675720950405875
20
2.0354255403767407
30
0
10
1.3124876750062211
20
2.0344398768593561
30
0
10
1.3573901905793955
20
2.0329753856501176
30
0
10
1.4390943538745573
20
2.0303106122543166
30
0
10
1.5213698437348777
20
2.0263454138595924
30
0
10
1.6030387372731147
20
2.0209967465735743
30
0
0
SPLINE
5
277
100
AcDbEntity
8
0
100
AcDbSpline
70
0
71
3
72
18
73
14
74
0
42
0.000000001
43
0.0000000001
44
0.0000000001
40
0
40
0
40
0
40
0
40
0.090644837753134519
40
0.090644837753134519
40
0.19788187093342702
40
0.19788187093342702
40
0.34402466201594162
40
0.34402466201594162
40
0.46313118585066104
40
0.46313118585066104
40
0.58664416239495631
40
0.58664416239495631
40
0.58775152788248086
40
0.58775152788248086
40
0.58775152788248086
40
0.58775152788248086
10
1.4852878200675179
20
2.1467116778377062
30
0
10
1.4852878200675179
20
2.134835096888362
30
0
10
1.4869648387584167
20
2.1233066394767404
30
0
10
1.4936892677065732
20
2.0995360730067065
30
0
10
1.4991811218138593
20
2.0879363149021675
30
0
10
1.5148472560541422
20
2.0639644738144001
30
0
10
1.5259848117018224
20
2.0528275352016552
30
0
10
1.5476808558148183
20
2.0372962318692274
30
0
10
1.5580928611011753
20
2.0319413955998566
30
0
10
1.5798047413370786
20
2.0241567286897952
30
0
10
1.5912448888980038
20
2.021797882736351
30
0
10
1.602832774553298
20
2.0210103625954461
30
0
10
1.6029357518515692
20
2.0210034913050299
30
0
10
1.6030387372731147
20
2.0209967465735748
30
0
0
LINE
5
278
100
AcDbEntity
8
0
100
AcDbLine
10
1.4852878200675179
20
2.1467116778377062
30
0
11
1.4852878200675177
21
2.1538586841787835
31
0
0
SPLINE
5
279
100
AcDbEntity
8
0
100
AcDbSpline
70
0
71
3
72
13
73
9
74
0
42
0.000000001
43
0.0000000001
44
0.0000000001
40
1.8101138378328874
40
1.8101138378328874
40
1.8101138378328874
40
1.8101138378328874
40
2.1243746779660873
40
2.1243746779660873
40
2.1243746779660873
40
2.4727459548314776
40
2.4727459548314776
40
2.4831472401075221
40
2.4831472401075221
40
2.4831472401075221
40
2.4831472401075221
10
1.4852878200675239
20
2.153858684178783
30
0
10
1.4439957471467491
20
2.1558605687549939
30
0
10
1.4027166336764711
20
2.1575483089797847
30
0
10
1.3614969711149776
20
2.1588926842936957
30
0
10
1.3158032522525775
20
2.1603829805218067
30
0
10
1.2700946697577407
20
2.1613855857950237
30
0
10
1.2230174908748155
20
2.1621360837562835
30
0
10
1.2216526560469645
20
2.1621575920600455
30
0
10
1.2202878209015344
20
2.1621788570113019
30
0
0
LINE
5
280
100
AcDbEntity
8
0
100
AcDbLine
10
1.2202777943737804
20
2.1621790132262486
30
0
11
1.2202878209015344
21
2.1621788570113019
31
0
0
SPLINE
5
281
100
AcDbEntity
8
0
100
AcDbSpline
70
0
71
3
72
18
73
14
74
0
42
0.000000001
43
0.0000000001
44
0.0000000001
40
-0.0011245383111869365
40
-0.0011245383111869365
40
-0.0011245383111869365
40
-0.0011245383111869365
40
0
40
0
40
0.14392300992942503
40
0.14392300992942503
40
0.2809524922109507
40
0.2809524922109507
40
0.41885870189561986
40
0.41885870189561986
40
0.52223409045644664
40
0.52223409045644664
40
0.61283612231958884
40
0.61283612231958884
40
0.61283612231958884
40
0.61283612231958884
10
1.0926513423443847
20
2.0377949537166011
30
0
10
1.0927558318755248
20
2.037793583266406
30
0
10
1.0928603233413139
20
2.0377923428175579
30
0
10
1.1063382780642215
20
2.0376491133902306
30
0
10
1.1198188154996265
20
2.0396356198067873
30
0
10
1.1452954269043829
20
2.0478277569310461
30
0
10
1.1574926759686042
20
2.0538806035640884
30
0
10
1.1801560134977975
20
2.0704942564259432
30
0
10
1.1907714287010771
20
2.0812088453231516
30
0
10
1.2060037795921805
20
2.1043072621157743
30
0
10
1.2114209405442617
20
2.115560720438872
30
0
10
1.2183338836290034
20
2.1389110436658365
30
0
10
1.2201291969529446
20
2.1504010209286446
30
0
10
1.2202777943737804
20
2.1621790132262486
30
0
0
SPLINE
5
282
100
AcDbEntity
8
0
100
AcDbSpline
70
0
71
3
72
8
73
4
74
0
42
0.000000001
43
0.0000000001
44
0.0000000001
40
-50.342947247108746
40
-50.342947247108746
40
-50.342947247108746
40
-50.342947247108746
40
-50.164591878317125
40
-50.164591878317125
40
-50.164591878317125
40
-50.164591878317125
10
1.1660769763861827
20
2.2850754005065697
30
0
10
1.1427531801742934
20
2.2853901090908155
30
0
10
1.1195121478560086
20
2.2857537695854329
30
0
10
1.0961930881481305
20
2.2861367085779949
30
0
0
SPLINE
5
283
100
AcDbEntity
8
0
100
AcDbSpline
70
0
71
3
72
18
73
14
74
0
42
0.000000001
43
0.0000000001
44
0.0000000001
40
0
40
0
40
0
40
0
40
0.090235750345982108
40
0.090235750345982108
40
0.19516013404463534
40
0.19516013404463534
40
0.33458330013126625
40
0.33458330013126625
40
0.47042083128502199
40
0.47042083128502199
40
0.61213010786699973
40
0.61213010786699973
40
0.61327147532304871
40
0.61327147532304871
40
0.61327147532304871
40
0.61327147532304871
10
1.2202878200675189
20
2.2167384933472887
30
0
10
1.2202878200675189
20
2.2277044815785727
30
0
10
1.2186257757822467
20
2.2378111731688803
30
0
10
1.2120161097891082
20
2.2573555164575372
30
0
10
1.2066945292738258
20
2.266094499693839
30
0
10
1.1917244534063063
20
2.2824131281231059
30
0
10
1.1812797328303555
20
2.2886381854905755
30
0
10
1.1591060157549602
20
2.2957616965264314
30
0
10
1.1472905800379585
20
2.2968418445054857
30
0
10
1.1225814519756776
20
2.2948280823865437
30
0
10
1.1095326136075754
20
2.2915430572477469
30
0
10
1.0964029058151867
20
2.2862221288320503
30
0
10
1.0962979980109149
20
2.2861794840868854
30
0
10
1.0961930881481303
20
2.2861367085779949
30
0
0
LINE
5
284
100
AcDbEntity
8
0
100
AcDbLine
10
1.2202878200675189
20
2.2167384933472887
30
0
11
1.2202878200675171
21
2.1691765733466037
31
0
0
SPLINE
5
285
100
AcDbEntity
8
0
100
AcDbSpline
70
0
71
3
72
11
73
7
74
0
42
0.000000001
43
0.0000000001
44
0.0000000001
40
50.48462512807091
40
50.48462512807091
40
50.48462512807091
40
50.48462512807091
40
50.854553670649871
40
50.854553670649871
40
50.854553670649871
40
51.158011620348937
40
51.158011620348937
40
51.158011620348937
40
51.158011620348937
10
1.2202878200675171
20
2.1691765733466037
30
0
10
1.2688305472193671
20
2.1684998419161339
30
0
10
1.3173715502672234
20
2.1676051987710667
30
0
10
1.3658985752082258
20
2.1662108569775427
30
0
10
1.4057060239412433
20
2.1650670574240056
30
0
10
1.4455030112446443
20
2.1635802626289391
30
0
10
1.4852878200675084
20
2.1617855256482637
30
0
0
LINE
5
286
100
AcDbEntity
8
0
100
AcDbLine
10
1.4852878200675084
20
2.1617855256482637
30
0
11
1.4852878200675173
21
2.2018285839864924
31
0
0
SPLINE
5
287
100
AcDbEntity
8
0
100
AcDbSpline
70
0
71
3
72
18
73
14
74
0
42
0.000000001
43
0.0000000001
44
0.0000000001
40
-0.0011754530309119533
40
-0.0011754530309119533
40
-0.0011754530309119533
40
-0.0011754530309119533
40
0
40
0
40
0.16707418462173504
40
0.16707418462173504
40
0.32470710041297751
40
0.32470710041297751
40
0.45617092877854132
40
0.45617092877854132
40
0.55679633357904312
40
0.55679633357904312
40
0.64653058105105388
40
0.64653058105105388
40
0.64653058105105388
40
0.64653058105105388
10
1.618327010926661
20
2.2700256456073804
30
0
10
1.6182215785057017
20
2.2700767331583176
30
0
10
1.618116137510732
20
2.2701276877146035
30
0
10
1.6030225415399608
20
2.2774020637299026
30
0
10
1.5877764603585751
20
2.2819786562846405
30
0
10
1.5590171692307009
20
2.2847896936116272
30
0
10
1.5452730961414767
20
2.2833808177083688
30
0
10
1.5222432231854892
20
2.2745074201069659
30
0
10
1.5124978408250331
20
2.2680373737978714
30
0
10
1.4983746251329595
20
2.2515769136139001
30
0
10
1.4933262303982409
20
2.2428154687277999
30
0
10
1.486901758830794
20
2.2231514593335593
30
0
10
1.4852878200675168
20
2.2128753489413722
30
0
10
1.4852878200675168
20
2.2018285839864924
30
0
0
SPLINE
5
288
100
AcDbEntity
8
0
100
AcDbSpline
70
0
71
3
72
8
73
4
74
0
42
0.000000001
43
0.0000000001
44
0.0000000001
40
-51.478456056774057
40
-51.478456056774057
40
-51.478456056774057
40
-51.478456056774057
40
-50.962653993196049
40
-50.962653993196049
40
-50.962653993196049
40
-50.962653993196049
10
1.6183270109266605
20
2.2700256456073804
30
0
10
1.5496840381670516
20
2.2742395127588848
30
0
10
1.4811404957229972
20
2.2775615851866919
30
0
10
1.4124279038130729
20
2.2799509521803611
30
0
0
SPLINE
5
289
100
AcDbEntity
8
0
100
AcDbSpline
70
0
71
3
72
11
73
7
74
0
42
0.000000001
43
0.0000000001
44
0.0000000001
40
-50.962653993196049
40
-50.962653993196049
40
-50.962653993196049
40
-50.962653993196049
40
-50.854553670649871
40
-50.854553670649871
40
-50.854553670649871
40
-50.810511249867226
40
-50.810511249867226
40
-50.810511249867226
40
-50.810511249867226
10
1.4124279038130729
20
2.2799509521803611
30
0
10
1.398027313960857
20
2.2804516751031998
30
0
10
1.3836248712160981
20
2.2809112819141828
30
0
10
1.3692062257407736
20
2.2813264194849179
30
0
10
1.3633317562092997
20
2.2814955555535472
30
0
10
1.3574461950693095
20
2.2816575015907881
30
0
10
1.3515751736978185
20
2.281811166467183
30
0
0
SPLINE
5
290
100
AcDbEntity
8
0
100
AcDbSpline
70
0
71
3
72
8
73
4
74
0
42
0.000000001
43
0.0000000001
44
0.0000000001
40
-50.810511249867226
40
-50.810511249867226
40
-50.810511249867226
40
-50.810511249867226
40
-50.448251934880027
40
-50.448251934880027
40
-50.448251934880027
40
-50.448251934880027
10
1.3515751736978185
20
2.281811166467183
30
0
10
1.3032846248463961
20
2.2830746716770518
30
0
10
1.2551467085784711
20
2.2838936465504083
30
0
10
1.2075039283888911
20
2.2845281800230746
30
0
0
SPLINE
5
291
100
AcDbEntity
8
0
100
AcDbSpline
70
0
71
3
72
10
73
6
74
0
42
0.000000001
43
0.0000000001
44
0.0000000001
40
-50.448251934880027
40
-50.448251934880027
40
-50.448251934880027
40
-50.448251934880027
40
-50.4432260256512
40
-50.4432260256512
40
-50.342947247108746
40
-50.342947247108746
40
-50.342947247108746
40
-50.342947247108746
10
1.2075039283888911
20
2.2845281800230746
30
0
10
1.206842942489325
20
2.2845369812090328
30
0
10
1.2061821156567454
20
2.2845457660566835
30
0
10
1.1923369211585308
20
2.2847295508986676
30
0
10
1.1791905801563678
20
2.2848983905007216
30
0
10
1.1660769763861827
20
2.2850754005065697
30
0
0
SPLINE
5
292
100
AcDbEntity
8
0
100
AcDbSpline
70
0
71
3
72
8
73
4
74
0
42
0.000000001
43
0.0000000001
44
0.0000000001
40
-50.471310515397363
40
-50.471310515397363
40
-50.471310515397363
40
-50.471310515397363
40
-50.215225723237573
40
-50.215225723237573
40
-50.215225723237573
40
-50.215225723237573
10
1.7237488855824301
20
2.2627534263291009
30
0
10
1.6895683364725622
20
2.2653938141387759
30
0
10
1.6554743747265959
20
2.267730487532587
30
0
10
1.6214058725351521
20
2.269836002748721
30
0
0
SPLINE
5
293
100
AcDbEntity
8
0
100
AcDbSpline
70
0
71
3
72
18
73
14
74
0
42
0.000000001
43
0.0000000001
44
0.0000000001
40
0
40
0
40
0
40
0
40
0.092677676712792659
40
0.092677676712792659
40
0.2036896885865849
40
0.2036896885865849
40
0.35196951005067645
40
0.35196951005067645
40
0.47115897361624015
40
0.47115897361624015
40
0.59420849150876354
40
0.59420849150876354
40
0.59534622181471863
40
0.59534622181471863
40
0.59534622181471863
40
0.59534622181471863
10
1.7402878200675171
20
2.199757555553318
30
0
10
1.7402878200675171
20
2.2107685897565483
30
0
10
1.7385492546275114
20
2.2208484353575293
30
0
10
1.7316245304711997
20
2.2405193400664345
30
0
10
1.7259286023416098
20
2.2493479530951364
30
0
10
1.7098733208154189
20
2.2656454474700598
30
0
10
1.6986074859773879
20
2.2716757878137659
30
0
10
1.6766957115261081
20
2.2774595245990428
30
0
10
1.6662789448184381
20
2.2782372086234211
30
0
10
1.6445602981462888
20
2.2765817858924038
30
0
10
1.6331667885492709
20
2.2740392042238966
30
0
10
1.6216175095676646
20
2.2699120241050941
30
0
10
1.6215116945866443
20
2.2698740800239463
30
0
10
1.6214058725351534
20
2.2698360027487214
30
0
0
LINE
5
294
100
AcDbEntity
8
0
100
AcDbLine
10
1.7402878200675171
20
2.199757555553318
30
0
11
1.7402878200675165
21
2.1465124456388405
31
0
0
LINE
5
295
100
AcDbEntity
8
0
100
AcDbLine
10
1.7402878200675165
20
2.1465124456388405
30
0
11
1.7402865156735041
21
2.1459391529512417
31
0
0
LINE
5
296
100
AcDbEntity
8
0
100
AcDbLine
10
1.7402865156735041
20
2.1459391529512417
30
0
11
1.7402878200675178
21
2.1459390478920657
31
0
0
SPLINE
5
297
100
AcDbEntity
8
0
100
AcDbSpline
70
0
71
3
72
14
73
10
74
0
42
0.000000001
43
0.0000000001
44
0.0000000001
40
50.536033333388701
40
50.536033333388701
40
50.536033333388701
40
50.536033333388701
40
50.850431280638524
40
50.850431280638524
40
50.850431280638524
40
51.096294016373719
40
51.096294016373719
40
51.096294016373719
40
51.212507893833376
40
51.212507893833376
40
51.212507893833376
40
51.212507893833376
10
1.7402878200675178
20
2.1459390478920657
30
0
10
1.781415341311344
20
2.1426265303539358
30
0
10
1.822517843371205
20
2.1389907553279168
30
0
10
1.8635836969859003
20
2.1349972553895378
30
0
10
1.8956976570270809
20
2.1318742934599295
30
0
10
1.927795144809779
20
2.1285371896938945
30
0
10
1.9598571723465152
20
2.1249122683969239
30
0
10
1.9750121836503651
20
2.1231988482718802
30
0
10
1.9901569474519856
20
2.1214088005818845
30
0
10
2.0052878200674971
20
2.1194866382478206
30
0
0
LINE
5
298
100
AcDbEntity
8
0
100
AcDbLine
10
2.0052878200674966
20
2.1194866382478206
30
0
11
2.0052878200675175
21
2.1472852069302695
31
0
0
SPLINE
5
299
100
AcDbEntity
8
0
100
AcDbSpline
70
0
71
3
72
18
73
14
74
0
42
0.000000001
43
0.0000000001
44
0.0000000001
40
-0.0012345797963520546
40
-0.0012345797963520546
40
-0.0012345797963520546
40
-0.0012345797963520546
40
0
40
0
40
0.24808994567714476
40
0.24808994567714476
40
0.44673478196824601
40
0.44673478196824601
40
0.59931751815324164
40
0.59931751815324164
40
0.72034848409375662
40
0.72034848409375662
40
0.8352115610661891
40
0.8352115610661891
40
0.8352115610661891
40
0.8352115610661891
10
2.1555057054237636
20
2.2112044444629104
30
0
10
2.1553988571154199
20
2.2112731599034676
30
0
10
2.1552919736313503
20
2.2113417345377284
30
0
10
2.1336996987961516
20
2.2251619650888528
30
0
10
2.1121809184076912
20
2.232306482665821
30
0
10
2.0767934541822402
20
2.2348031136598068
30
0
10
2.062300802232842
20
2.2322054823474957
30
0
10
2.0401428714751861
20
2.221696556461302
30
0
10
2.0312104824348909
20
2.2149287849829529
30
0
10
2.0179881682753757
20
2.1982639073401797
30
0
10
2.0132092280703753
20
2.1894041294720301
30
0
10
2.0068727641287545
20
2.169316856199119
30
0
10
2.0052878200675166
20
2.158615270524999
30
0
10
2.0052878200675166
20
2.1472852069302695
30
0
0
SPLINE
5
300
100
AcDbEntity
8
0
100
AcDbSpline
70
0
71
3
72
8
73
4
74
0
42
0.000000001
43
0.0000000001
44
0.0000000001
40
-51.536952415181737
40
-51.536952415181737
40
-51.536952415181737
40
-51.536952415181737
40
-51.526488467393122
40
-51.526488467393122
40
-51.526488467393122
40
-51.526488467393122
10
2.1555057054237694
20
2.2112044444629086
30
0
10
2.1540572202141282
20
2.2115164187594778
30
0
10
2.1526055068193104
20
2.2118269482001915
30
0
10
2.1511503818820064
20
2.2121359353883308
30
0
0
SPLINE
5
301
100
AcDbEntity
8
0
100
AcDbSpline
70
0
71
3
72
8
73
4
74
0
42
0.000000001
43
0.0000000001
44
0.0000000001
40
-51.526488467393122
40
-51.526488467393122
40
-51.526488467393122
40
-51.526488467393122
40
-51.410418479406253
40
-51.410418479406253
40
-51.410418479406253
40
-51.410418479406253
10
2.1511503818820064
20
2.2121359353883308
30
0
10
2.1348244727476704
20
2.2156025375188713
30
0
10
2.1183768276677148
20
2.2187625714370061
30
0
10
2.1019363960900157
20
2.2215997864198997
30
0
0
SPLINE
5
302
100
AcDbEntity
8
0
100
AcDbSpline
70
0
71
3
72
8
73
4
74
0
42
0.000000001
43
0.0000000001
44
0.0000000001
40
-51.410418479406253
40
-51.410418479406253
40
-51.410418479406253
40
-51.410418479406253
40
-51.096294016373719
40
-51.096294016373719
40
-51.096294016373719
40
-51.096294016373719
10
2.1019363960900157
20
2.2215997864198997
30
0
10
2.0577722584200595
20
2.2292211818053094
30
0
10
2.0148265618946275
20
2.2345741849644125
30
0
10
1.9727931092988229
20
2.2393291985313852
30
0
0
SPLINE
5
303
100
AcDbEntity
8
0
100
AcDbSpline
70
0
71
3
72
8
73
4
74
0
42
0.000000001
43
0.0000000001
44
0.0000000001
40
-51.096294016373719
40
-51.096294016373719
40
-51.096294016373719
40
-51.096294016373719
40
-51.036242914039235
40
-51.036242914039235
40
-51.036242914039235
40
-51.036242914039235
10
1.9727931092988229
20
2.2393291985313852
30
0
10
1.964781647975119
20
2.2402354364525623
30
0
10
1.956794544167513
20
2.241119869372219
30
0
10
1.9488015426671559
20
2.2419890562463038
30
0
0
SPLINE
5
304
100
AcDbEntity
8
0
100
AcDbSpline
70
0
71
3
72
11
73
7
74
0
42
0.000000001
43
0.0000000001
44
0.0000000001
40
-51.036242914039235
40
-51.036242914039235
40
-51.036242914039235
40
-51.036242914039235
40
-50.850431280638524
40
-50.850431280638524
40
-50.850431280638524
40
-50.477166427864681
40
-50.477166427864681
40
-50.477166427864681
40
-50.477166427864681
10
1.9488015426671559
20
2.2419890562463038
30
0
10
1.9240694004341825
20
2.244678555961543
30
0
10
1.8993985694460092
20
2.247206216178371
30
0
10
1.8747289365432291
20
2.2496056899016854
30
0
10
1.8251717224715847
20
2.2544258359263214
30
0
10
1.775713452804025
20
2.2587234206795648
30
0
10
1.7260849399865359
20
2.2625726123948504
30
0
0
LINE
5
305
100
AcDbEntity
8
0
100
AcDbLine
10
1.7260849399865359
20
2.2625726123948504
30
0
11
1.7237488855824301
21
2.2627534263291009
31
0
0
SPLINE
5
306
100
AcDbEntity
8
0
100
AcDbSpline
70
0
71
3
72
10
73
6
74
0
42
0.000000001
43
0.0000000001
44
0.0000000001
40
-0.069048069581666691
40
-0.069048069581666691
40
-0.069048069581666691
40
-0.069048069581666691
40
0
40
0
40
0.0010239788073411098
40
0.0010239788073411098
40
0.0010239788073411098
40
0.0010239788073411098
10
2.0856119214022142
20
1.9688131625579341
30
0
10
2.0793374786827461
20
1.9690422379878614
30
0
10
2.0731331804386439
20
1.9697697540252308
30
0
10
2.0669662043128474
20
1.970986633062878
30
0
10
2.0668761077939792
20
1.971004520298594
30
0
10
2.0667860343494615
20
1.9710225121909795
30
0
0
SPLINE
5
307
100
AcDbEntity
8
0
100
AcDbSpline
70
0
71
3
72
14
73
10
74
0
42
0.000000001
43
0.0000000001
44
0.0000000001
40
0
40
0
40
0
40
0
40
0.094755910404401192
40
0.094755910404401192
40
0.21504087990278864
40
0.21504087990278864
40
0.37154574522336209
40
0.37154574522336209
40
0.47052481150340214
40
0.47052481150340214
40
0.47052481150340214
40
0.47052481150340214
10
2.0052878200675175
20
2.0862319957498952
30
0
10
2.0052878200675175
20
2.0739976816991552
30
0
10
2.0070648940823195
20
2.0622946583245829
30
0
10
2.014173280540525
20
2.0375823143468175
30
0
10
2.0202457654979455
20
2.0253346498781215
30
0
10
2.0369164842966483
20
2.001111497582039
30
0
10
2.0484660365140752
20
1.9901154677681578
30
0
10
2.0686887957445563
20
1.9764839333185229
30
0
10
2.0769990166421701
20
1.972162425346939
30
0
10
2.0856119214022129
20
1.9688131625579341
30
0
0
LINE
5
308
100
AcDbEntity
8
0
100
AcDbLine
10
2.0052878200675175
20
2.0862319957498952
30
0
11
2.0052878200675175
21
2.1092449117968526
31
0
0
SPLINE
5
309
100
AcDbEntity
8
0
100
AcDbSpline
70
0
71
3
72
14
73
10
74
0
42
0.000000001
43
0.0000000001
44
0.0000000001
40
0.48508496088646014
40
0.48508496088646014
40
0.48508496088646014
40
0.48508496088646014
40
0.75003119227507442
40
0.75003119227507442
40
0.75003119227507442
40
0.9271995612963515
40
0.9271995612963515
40
0.9271995612963515
40
1.1624485167258398
40
1.1624485167258398
40
1.1624485167258398
40
1.1624485167258398
10
2.0052878200675175
20
2.1092449117968526
30
0
10
1.9708145622498139
20
2.1141712132210455
30
0
10
1.9362163597258808
20
2.118175223176868
30
0
10
1.9016111270365523
20
2.1218416135907554
30
0
10
1.8784707615252672
20
2.124293312588017
30
0
10
1.8553261589211638
20
2.1266123835594173
30
0
10
1.8321809772811766
20
2.128822276325061
30
0
10
1.8014481786777277
20
2.1317566317497953
30
0
10
1.770698853570505
20
2.1344991703656491
30
0
10
1.7399331731363807
20
2.1370660663208887
30
0
0
SPLINE
5
310
100
AcDbEntity
8
0
100
AcDbSpline
70
0
71
3
72
18
73
14
74
0
42
0.000000001
43
0.0000000001
44
0.0000000001
40
-0.60585433510299069
40
-0.60585433510299069
40
-0.60585433510299069
40
-0.60585433510299069
40
-0.604797116587521
40
-0.604797116587521
40
-0.46295201829872618
40
-0.46295201829872618
40
-0.32671532014046778
40
-0.32671532014046778
40
-0.19153752807201291
40
-0.19153752807201291
40
-0.089718612577104798
40
-0.089718612577104798
40
0
40
0
40
0
40
0
10
1.6060129222275821
20
2.0208012809194802
30
0
10
1.6061112684814263
20
2.0207947949882961
30
0
10
1.6062096222679885
20
2.0207884244695213
30
0
10
1.6195049166299349
20
2.0199429347788826
30
0
10
1.6329239828107991
20
2.0211757465980611
30
0
10
1.6586571632161089
20
2.0278764235057367
30
0
10
1.6711717915547373
20
2.0332211766194366
30
0
10
1.6946127794378987
20
2.0484497692180987
30
0
10
1.7057047617546615
20
2.0584074518069664
30
0
10
1.7221583218747127
20
2.080344653247459
30
0
10
1.7282182553061884
20
2.0911777923808166
30
0
10
1.7365434185980655
20
2.1139749640098939
30
0
10
1.7390503439215019
20
2.1253251143807197
30
0
10
1.7399331731363807
20
2.1370660663208887
30
0
0
SPLINE
5
311
100
AcDbEntity
8
0
100
AcDbSpline
70
0
71
3
72
22
73
18
74
0
42
0.000000001
43
0.0000000001
44
0.0000000001
40
-1.4824170126929785
40
-1.4824170126929785
40
-1.4824170126929785
40
-1.4824170126929785
40
-1.3615823442536337
40
-1.3615823442536337
40
-1.3615823442536337
40
-0.9271995612963515
40
-0.9271995612963515
40
-0.9271995612963515
40
-0.75003119227507442
40
-0.75003119227507442
40
-0.75003119227507442
40
-0.46359978064817575
40
-0.46359978064817575
40
-0.29232959010417386
40
-0.29232959010417386
40
-0.29232959010417386
40
-0.26335167367977547
40
-0.26335167367977547
40
-0.26335167367977547
40
-0.26335167367977547
10
1.6060129222275821
20
2.0208012809194806
30
0
10
1.6215397153735278
20
2.019777289583641
30
0
10
1.6370450990729297
20
2.0186990620015757
30
0
10
1.6525201581257456
20
2.0175597995880588
30
0
10
1.7084833391097833
20
2.0134398315531468
30
0
10
1.7644336314066373
20
2.0087335583696428
30
0
10
1.8202065087756658
20
2.0034083861530627
30
0
10
1.8429541638549576
20
2.0012364490658103
30
0
10
1.8656803153112185
20
1.9989590702458009
30
0
10
1.8883375108416778
20
1.9965585626334346
30
0
10
1.9248034467602444
20
1.9926950325400079
30
0
10
1.9606307240149994
20
1.9885056693899221
30
0
10
2.0160003752034834
20
1.9803355129088516
30
0
10
2.0363018363264915
20
1.9769372271047325
30
0
10
2.0564004501063344
20
1.9730618659904018
30
0
10
2.0598461163480364
20
1.9723974818138452
30
0
10
2.0633100047657869
20
1.9717168383659496
30
0
10
2.0667860343494744
20
1.971022512190977
30
0
0
SPLINE
5
312
100
AcDbEntity
8
0
100
AcDbSpline
70
0
71
3
72
12
73
8
74
0
42
0.000000001
43
0.0000000001
44
0.0000000001
40
0
40
0
40
0
40
0
40
0.11719334201607849
40
0.11719334201607849
40
0.20914015446499684
40
0.20914015446499684
40
0.30108696691391601
40
0.30108696691391601
40
0.30108696691391601
40
0.30108696691391601
10
0.700287820067518
20
2.1083389738430403
30
0
10
0.700287820067518
20
2.0929592701663897
30
0
10
0.70329181818932418
20
2.0777266048394738
30
0
10
0.71371178368829313
20
2.0523352872446701
30
0
10
0.71997658859205982
20
2.0419398527644788
30
0
10
0.73543681845357001
20
2.0234092287568379
30
0
10
0.74454134304098996
20
2.0153829923691355
30
0
10
0.75470282310882508
20
2.0088756883035632
30
0
0
SPLINE
5
313
100
AcDbEntity
8
0
100
AcDbSpline
70
0
71
3
72
14
73
10
74
0
42
0.000000001
43
0.0000000001
44
0.0000000001
40
0.18333085268816604
40
0.18333085268816604
40
0.18333085268816604
40
0.18333085268816604
40
0.25001246296763313
40
0.25001246296763313
40
0.37501869445145031
40
0.37501869445145031
40
0.43972687339317174
40
0.43972687339317174
40
0.50443505233489405
40
0.50443505233489405
40
0.50443505233489405
40
0.50443505233489405
10
0.75470282310882475
20
2.0088756883035632
30
0
10
0.7620377121271652
20
2.0041785031680384
30
0
10
0.76888306301197629
20
1.9987222059464196
30
0
10
0.78681450880166148
20
1.9810790262659468
30
0
10
0.79614909903980879
20
1.9673992612176394
30
0
10
0.80593795374834776
20
1.9445074686929444
30
0
10
0.80847878041296062
20
1.9363818816512834
30
0
10
0.81188690779523442
20
1.9197435750353857
30
0
10
0.81274549301955235
20
1.9112734040616801
30
0
10
0.81274549301955235
20
1.9027815170614542
30
0
0
LINE
5
314
100
AcDbEntity
8
0
100
AcDbLine
10
0.81274549301955235
20
1.9027815170614546
30
0
11
0.81274549301780608
21
2.1666951477130922
31
0
0
SPLINE
5
315
100
AcDbEntity
8
0
100
AcDbSpline
70
0
71
3
72
19
73
15
74
0
42
0.000000001
43
0.0000000001
44
0.0000000001
40
3.1306480220541566
40
3.1306480220541566
40
3.1306480220541566
40
3.1306480220541566
40
3.1681901422877967
40
3.1681901422877967
40
3.1681901422877967
40
3.3403134843474653
40
3.3403134843474653
40
3.3403134843474653
40
3.428962053681385
40
3.428962053681385
40
3.517610623015305
40
3.517610623015305
40
3.517610623015305
40
3.5180951956212811
40
3.5180951956212811
40
3.5180951956212811
40
3.5180951956212811
10
0.96528782006751535
20
2.1656004624146017
30
0
10
0.96036051039610093
20
2.1656670434630318
30
0
10
0.95543319983250907
20
2.1657323608179966
30
0
10
0.95050595978565711
20
2.1657962105943942
30
0
10
0.92791551953570883
20
2.1660889494390543
30
0
10
0.90532572177864368
20
2.1662911928868152
30
0
10
0.88273780062931173
20
2.1664328121956502
30
0
10
0.87110435876050629
20
2.1665057502932261
30
0
10
0.85947080390864161
20
2.1665623108020999
30
0
10
0.83620358807268769
20
2.1666480641212185
30
0
10
0.82456992659520745
20
2.166677243138182
30
0
10
0.8129362694173462
20
2.1666948598618556
30
0
10
0.81287267728474821
20
2.1666949561587474
30
0
10
0.81280908515096761
20
2.166695052109056
30
0
10
0.81274549301780608
20
2.1666951477130922
30
0
0
LINE
5
316
100
AcDbEntity
8
0
100
AcDbLine
10
0.96528782006751535
20
2.1656004624146017
30
0
11
0.9652878200675169
21
2.1729673817531889
31
0
0
SPLINE
5
317
100
AcDbEntity
8
0
100
AcDbSpline
70
0
71
3
72
13
73
9
74
0
42
0.000000001
43
0.0000000001
44
0.0000000001
40
50.458238115520238
40
50.458238115520238
40
50.458238115520238
40
50.458238115520238
40
50.614026188769607
40
50.614026188769607
40
50.861969941794449
40
50.861969941794449
40
50.861969941794449
40
51.131343727324605
40
51.131343727324605
40
51.131343727324605
40
51.131343727324605
10
0.70028782006751766
20
2.1734443317004639
30
0
10
0.72073243548469157
20
2.173466812359266
30
0
10
0.74117704863155931
20
2.1734991408592137
30
0
10
0.79416011391359875
20
2.1736099522571126
30
0
10
0.82669876736785786
20
2.173674542336931
30
0
10
0.85923725299381315
20
2.173609684301308
30
0
10
0.89458807325668233
20
2.1735392205192414
30
0
10
0.92993898384396301
20
2.1733500359334941
30
0
10
0.96528782006751601
20
2.1729673817531889
30
0
0
LINE
5
318
100
AcDbEntity
8
0
100
AcDbLine
10
0.70028782006751766
20
2.1734443317004639
30
0
11
0.700287820067518
21
2.1083389738430403
31
0
0
SPLINE
5
319
100
AcDbEntity
8
0
100
AcDbSpline
70
0
71
3
72
16
73
12
74
0
42
0.000000001
43
0.0000000001
44
0.0000000001
40
-0.50443505233489405
40
-0.50443505233489405
40
-0.50443505233489405
40
-0.50443505233489405
40
-0.43972687339317224
40
-0.43972687339317224
40
-0.37501869445145053
40
-0.37501869445145053
40
-0.25001246296763335
40
-0.25001246296763335
40
-0.12500623148381709
40
-0.12500623148381709
40
0
40
0
40
0
40
0
10
0.68656703865270208
20
2.0287656193501635
30
0
10
0.69505891556385835
20
2.0287787094371876
30
0
10
0.70353039996756561
20
2.0279331818451105
30
0
10
0.72017394038120297
20
2.0245507061544297
30
0
10
0.72830343440638123
20
2.0220224079509315
30
0
10
0.75121028907251863
20
2.0122688521478906
30
0
10
0.76490442696663064
20
2.0029553601052656
30
0
10
0.78795189892857331
20
1.9796034351155949
30
0
10
0.7970848866026049
20
1.9657882592992335
30
0
10
0.8095412283562925
20
1.9354347106652585
30
0
10
0.81274549301955235
20
1.9191865343165484
30
0
10
0.81274549301955235
20
1.9027815170614542
30
0
0
SPLINE
5
320
100
AcDbEntity
8
0
100
AcDbSpline
70
0
71
3
72
12
73
8
74
0
42
0.000000001
43
0.0000000001
44
0.0000000001
40
-36.52041883037964
40
-36.52041883037964
40
-36.52041883037964
40
-36.52041883037964
40
-27.756683435213951
40
-27.756683435213951
40
-6.6347541619829702
40
-6.6347541619829702
40
-4.263378333607422
40
-4.263378333607422
40
-4.263378333607422
40
-4.263378333607422
10
-0.90065354330708669
20
2.0285747088910147
30
0
10
-0.79031411144653252
20
2.0293231323977352
30
0
10
-0.67996585904351048
20
2.0286240556756305
30
0
10
-0.30368040138959002
20
2.0286505082263671
30
0
10
-0.037735936755001809
20
2.0271090828895799
30
0
10
0.25806225233546271
20
2.0282310858416328
30
0
10
0.51121216301547234
20
2.0284953127258216
30
0
10
0.6865670386527023
20
2.028765619350164
30
0
0
LINE
5
321
100
AcDbEntity
8
0
100
AcDbLine
10
-0.90065354330708669
20
2.0285747088910147
30
0
11
-0.90065354330708669
21
1.5963228346456693
31
0
0
LINE
5
322
100
AcDbEntity
8
0
100
AcDbLine
10
-0.90065354330708669
20
1.5963228346456693
30
0
11
-0.69699854361937652
21
1.5963228346456693
31
0
0
ARC
5
323
100
AcDbEntity
8
0
100
AcDbCircle
10
-0.0015000000000006913
20
0.74613480314960656
30
0
40
1.0984251968503926
100
AcDbArc
50
50.715027718065102
51
129.28497228193493
0
LINE
5
324
100
AcDbEntity
8
0
100
AcDbLine
10
0.69399854361937474
20
1.5963228346456699
30
0
11
0.81274549301955257
21
1.5963228346456695
31
0
0
LINE
5
325
100
AcDbEntity
8
0
100
AcDbLine
10
0.81274549301955257
20
1.5963228346456695
30
0
11
0.81274549301955235
21
1.9027815170614542
31
0
0
LWPOLYLINE
5
326
100
AcDbEntity
8
0
100
AcDbPolyline
90
7
70
1
43
0.0
10
0.81274549301955146
20
1.483387941612353
42
-0.10465247289736075
10
1.0416045929969331
20
1.0903305630661475
42
0.38930056003387109
10
0.92720672522788028
20
0.9107123335973063
42
-3.1961196503414651
10
0.16966073911419272
20
1.6736508118511484
42
0.38930056003387048
10
0.35008587814015912
20
1.7867717635581033
42
-0.090202536554700438
10
0.69399854361937507
20
1.5963228346456695
10
0.81274549301955257
20
1.5963228346456695
0
CIRCLE
5
327
100
AcDbEntity
8
0
100
AcDbCircle
10
-0.0014999999999984622
20
0.7461348031496069
30
0
40
0.83346421259842496
0
LWPOLYLINE
5
328
100
AcDbEntity
8
0
100
AcDbPolyline
90
14
70
1
43
0.0
10
0.92720672522787928
20
0.91071233359730586
42
-0.38930056003387242
10
1.0416045929969313
20
1.0903305630661535
42
-0.07889716806241967
10
1.0969173228346456
20
0.75029388629287797
10
1.0969173228346454
20
0.13582378340105172
10
0.91176796300390539
20
0.13582378340105242
42
-0.53446983456678065
10
-0.9147679630039065
20
0.13582378340105189
10
-1.1108700787401578
20
0.13582378340105189
10
-1.1108700787401575
20
1.219629921259842
10
-0.99263081185159363
20
1.2196299212598429
42
-0.041568737661734183
10
-0.9006535433070868
20
1.3770554151398438
10
-0.90065354330708669
20
1.5963228346456693
10
-0.69699854361937696
20
1.5963228346456699
42
-0.25839806900591927
10
0.35008587814016762
20
1.7867717635581015
42
-0.38930056003387048
10
0.16966073911419274
20
1.6736508118511488
42
3.1961196503414699
0
LWPOLYLINE
5
329
100
AcDbEntity
8
0
100
AcDbPolyline
90
6
70
1
43
0.0
10
-1.110870078740158
20
-0.6131334645669293
10
-1.1108700787401578
20
0.13582378340105189
10
-0.91476796300390673
20
0.13582378340105208
42
0.53446983456678088
10
0.91176796300390539
20
0.13582378340105181
10
1.0969173228346456
20
0.13582378340105164
10
1.0969173228346454
20
-0.61313346456692897
0
LINE
5
330
100
AcDbEntity
8
0
100
AcDbLine
10
-0.95249272153251685
20
2.272764010891132
30
0
11
-0.95224898973132344
21
2.2334701571174049
31
0
0
SPLINE
5
331
100
AcDbEntity
8
0
100
AcDbSpline
70
0
71
3
72
8
73
4
74
0
42
0.000000001
43
0.0000000001
44
0.0000000001
40
-1.1490395689061614
40
-1.1490395689061614
40
-1.1490395689061614
40
-1.1490395689061614
40
-0.6967322820422811
40
-0.6967322820422811
40
-0.6967322820422811
40
-0.6967322820422811
10
-0.95249272153251718
20
2.2727640108911316
30
0
10
-1.0119148585548368
20
2.272409717882041
30
0
10
-1.0713154384723025
20
2.2719189458500164
30
0
10
-1.1307129347042761
20
2.2713348175154469
30
0
0
SPLINE
5
332
100
AcDbEntity
8
0
100
AcDbSpline
70
0
71
3
72
10
73
6
74
0
42
0.000000001
43
0.0000000001
44
0.0000000001
40
-0.6967322820422811
40
-0.6967322820422811
40
-0.6967322820422811
40
-0.6967322820422811
40
-0.57451978445308072
40
-0.57451978445308072
40
-0.4432456325311972
40
-0.4432456325311972
40
-0.4432456325311972
40
-0.4432456325311972
10
-1.1307129347042761
20
2.2713348175154469
30
0
10
-1.146762015689013
20
2.2711769885536901
30
0
10
-1.1628081890885553
20
2.271013190395851
30
0
10
-1.1960972525565163
20
2.270657510821668
30
0
10
-1.2133322311016395
20
2.2704645626708961
30
0
10
-1.2305817140407238
20
2.2702600953363654
30
0
0
SPLINE
5
333
100
AcDbEntity
8
0
100
AcDbSpline
70
0
71
3
72
8
73
4
74
0
42
0.000000001
43
0.0000000001
44
0.0000000001
40
-0.4432456325311972
40
-0.4432456325311972
40
-0.4432456325311972
40
-0.4432456325311972
40
0
40
0
40
0
40
0
10
-1.2305817140407238
20
2.2702600953363654
30
0
10
-1.288824393061474
20
2.2695697061103877
30
0
10
-1.3471367441885711
20
2.2687177715321525
30
0
10
-1.4055257267637804
20
2.2673128706763359
30
0
0
LINE
5
334
100
AcDbEntity
8
0
100
AcDbLine
10
-1.4055259492081766
20
2.2673222305220584
30
0
11
-1.4045905511811019
21
2.2279632654627846
31
0
0
SPLINE
5
335
100
AcDbEntity
8
0
100
AcDbSpline
70
0
71
3
72
10
73
6
74
0
42
0.000000001
43
0.0000000001
44
0.0000000001
40
0
40
0
40
0
40
0
40
0.57451978445308072
40
0.57451978445308072
40
1.1490395689061614
40
1.1490395689061614
40
1.1490395689061614
40
1.1490395689061614
10
-1.4045905511811021
20
2.2279632654627846
30
0
10
-1.3292155374406007
20
2.2297546143724274
30
0
10
-1.25382108750743
20
2.2306718901912963
30
0
10
-1.1030374086734134
20
2.2323137470876588
30
0
10
-1.0276438365208578
20
2.2330024981823824
30
0
10
-0.95224898973132344
20
2.2334701571174045
30
0
0
ELLIPSE
5
336
100
AcDbEntity
8
0
100
AcDbEllipse
10
-0.87318044132228456
20
2.2565370327837764
30
0
11
-0.036241648435015983
21
0.01538005262406192
31
0.0
40
0.99291145723616203
41
5.8025213696007434
42
6.6870910448426111
0
SPLINE
5
337
100
AcDbEntity
8
0
100
AcDbSpline
70
0
71
3
72
10
73
6
74
0
42
0.000000001
43
0.0000000001
44
0.0000000001
40
-0.30965599409720007
40
-0.30965599409720007
40
-0.30965599409720007
40
-0.30965599409720007
40
-0.24365526095124446
40
-0.24365526095124446
40
-0.2159281584922314
40
-0.2159281584922314
40
-0.2159281584922314
40
-0.2159281584922314
10
-0.89825464542019684
20
2.286812538289877
30
0
10
-0.89665761746634332
20
2.2875431783833213
30
0
10
-0.896681672784992
20
2.2869244740757977
30
0
10
-0.89868494346755878
20
2.2853717805069516
30
0
10
-0.8995154774787294
20
2.2848238665679994
30
0
10
-0.90057224805930181
20
2.2842206169975872
30
0
0
SPLINE
5
338
100
AcDbEntity
8
0
100
AcDbSpline
70
0
71
3
72
12
73
8
74
0
42
0.000000001
43
0.0000000001
44
0.0000000001
40
-0.2159281584922314
40
-0.2159281584922314
40
-0.2159281584922314
40
-0.2159281584922314
40
-0.17136933552016059
40
-0.17136933552016059
40
-0.12680127975334815
40
-0.12680127975334815
40
-0.10500981218346429
40
-0.10500981218346429
40
-0.10500981218346429
40
-0.10500981218346429
10
-0.90057224805930181
20
2.2842206169975872
30
0
10
-0.90227061339459014
20
2.2832511246662746
30
0
10
-0.9045528836435055
20
2.2821433123342474
30
0
10
-0.9100430505758168
20
2.2799239607937531
30
0
10
-0.91322520409131969
20
2.2788189314029479
30
0
10
-0.91851590192642252
20
2.2772953588811653
30
0
10
-0.92034074499591456
20
2.2768151899169609
30
0
10
-0.92222608284671703
20
2.2763672980966132
30
0
0
SPLINE
5
339
100
AcDbEntity
8
0
100
AcDbSpline
70
0
71
3
72
12
73
8
74
0
42
0.000000001
43
0.0000000001
44
0.0000000001
40
-0.10500981218346429
40
-0.10500981218346429
40
-0.10500981218346429
40
-0.10500981218346429
40
-0.07044515541852675
40
-0.07044515541852675
40
-0.035870531798799322
40
-0.035870531798799322
40
0
40
0
40
0
40
0
10
-0.92222608284671703
20
2.2763672980966132
30
0
10
-0.92521642505423629
20
2.2756569011917289
30
0
10
-0.92836542295667479
20
2.2750268521689003
30
0
10
-0.93482010238875157
20
2.273984891761736
30
0
10
-0.938173527344771
20
2.2735656096813468
30
0
10
-0.94508930069676267
20
2.2729668277046007
30
0
10
-0.94865276726080505
20
2.2727970137192566
30
0
10
-0.95218206333812538
20
2.2727662567689846
30
0
0
LINE
5
340
100
AcDbEntity
8
0
100
AcDbLine
10
-0.95218206333812538
20
2.2727662567689846
30
0
11
-0.95183464566929077
21
2.2334732739123608
31
0
0
SPLINE
5
341
100
AcDbEntity
8
0
100
AcDbSpline
70
0
71
3
72
18
73
14
74
0
42
0.000000001
43
0.0000000001
44
0.0000000001
40
0
40
0
40
0
40
0
40
0.035870531798799322
40
0.035870531798799322
40
0.07044515541852675
40
0.07044515541852675
40
0.12680127975334815
40
0.12680127975334815
40
0.17136933552016059
40
0.17136933552016059
40
0.24365526095124446
40
0.24365526095124446
40
0.30965599409720007
40
0.30965599409720007
40
0.30965599409720007
40
0.30965599409720007
10
-0.95183464566929066
20
2.2334732739123608
30
0
10
-0.94948102823015079
20
2.2335148939790797
30
0
10
-0.94710739469782446
20
2.2337452107352371
30
0
10
-0.94253369063530679
20
2.234548749974036
30
0
10
-0.94033204780277169
20
2.2351084082156727
30
0
10
-0.93479437557109912
20
2.2369206578692902
30
0
10
-0.931533350153539
20
2.2384182341254917
30
0
10
-0.92628986219175391
20
2.2414627523262678
30
0
10
-0.92419144517091356
20
2.2429217974597457
30
0
10
-0.91925463555299769
20
2.2468962360699747
30
0
10
-0.91682730856234285
20
2.249474807247259
30
0
10
-0.91361783164145205
20
2.2537817452661755
30
0
10
-0.91270862763420513
20
2.2555893610392772
30
0
10
-0.91250754349578811
20
2.2565370327837759
30
0
0
ELLIPSE
5
342
100
AcDbEntity
8
0
100
AcDbEllipse
10
-1.4061910896064338
20
2.227925456289936
30
0
11
-0.00092402470825233033
21
0.039359233711350874
31
0.0
40
0.020321241007632711
41
4.7119119048525224
42
6.3053101466156809
0
SPLINE
5
343
100
AcDbEntity
8
0
100
AcDbSpline
70
0
71
3
72
10
73
6
74
0
42
0.000000001
43
0.0000000001
44
0.0000000001
40
-0.28588831406343246
40
-0.28588831406343246
40
-0.28588831406343246
40
-0.28588831406343246
40
-0.25168679225472401
40
-0.25168679225472401
40
-0.21845463022449824
40
-0.21845463022449824
40
-0.21845463022449824
40
-0.21845463022449824
10
-1.4071325827977994
20
2.2672746416426333
30
0
10
-1.4106677668133774
20
2.2671914027039488
30
0
10
-1.4142227535397691
20
2.2672445139361903
30
0
10
-1.4211291215655344
20
2.2676182750990175
30
0
10
-1.4244600784346024
20
2.2679280279523271
30
0
10
-1.4277221431884954
20
2.2683581273004476
30
0
0
SPLINE
5
344
100
AcDbEntity
8
0
100
AcDbSpline
70
0
71
3
72
14
73
10
74
0
42
0.000000001
43
0.0000000001
44
0.0000000001
40
-0.21845463022449824
40
-0.21845463022449824
40
-0.21845463022449824
40
-0.21845463022449824
40
-0.1643013380584358
40
-0.1643013380584358
40
-0.11013904062615108
40
-0.11013904062615108
40
-0.042361169471596571
40
-0.042361169471596571
40
0
40
0
40
0
40
0
10
-1.4277221431884954
20
2.2683581273004476
30
0
10
-1.4330378687705094
20
2.2690589934967749
30
0
10
-1.4381143329135457
20
2.2700793889634228
30
0
10
-1.4472285690024409
20
2.2725600807567909
30
0
10
-1.4513404014757079
20
2.2740425614354702
30
0
10
-1.4589314206582826
20
2.2775767196141516
30
0
10
-1.4619980823159056
20
2.279670369969951
30
0
10
-1.4647103030247235
20
2.2827830061926382
30
0
10
-1.4651924904104803
20
2.2838994187911483
30
0
10
-1.4650749198707171
20
2.284815520461362
30
0
0
ELLIPSE
5
345
100
AcDbEntity
8
0
100
AcDbEllipse
10
-1.4824744689079763
20
2.2501621696238878
30
0
11
0.034522978034436873
21
0.018925302841434184
31
0.0
40
0.95534190743863678
41
5.7622382057251977
42
6.9087209332204527
0
SPLINE
5
346
100
AcDbEntity
8
0
100
AcDbSpline
70
0
71
3
72
16
73
12
74
0
42
0.000000001
43
0.0000000001
44
0.0000000001
40
0
40
0
40
0
40
0
40
0.042361169471596571
40
0.042361169471596571
40
0.11013904062615108
40
0.11013904062615108
40
0.1643013380584358
40
0.1643013380584358
40
0.25168679225472401
40
0.25168679225472401
40
0.28588831406343246
40
0.28588831406343246
40
0.28588831406343246
40
0.28588831406343246
10
-1.443532510044534
20
2.2501621696238701
30
0
10
-1.4431376702042629
20
2.2487216592926136
30
0
10
-1.4424676902142559
20
2.2471633177213901
30
0
10
-1.4400492460215659
20
2.2430451248357239
30
0
10
-1.437921897857787
20
2.2404748764719216
30
0
10
-1.4330297078309135
20
2.2361831289972338
30
0
10
-1.4304764235395113
20
2.2344026000212853
30
0
10
-1.4231112207408267
20
2.2304775479267223
30
0
10
-1.4177618795615841
20
2.2287362219035534
30
0
10
-1.4098916599870555
20
2.2278878237507165
30
0
10
-1.4076339332506209
20
2.2278201345390944
30
0
10
-1.4053908203937679
20
2.227925456289936
30
0
0
LINE
5
347
100
AcDbEntity
8
0
100
AcDbLine
10
-1.7082825174618392
20
2.1225950780802334
30
0
11
-1.7177153528522409
21
2.2403280365776439
31
0
0
SPLINE
5
348
100
AcDbEntity
8
0
100
AcDbSpline
70
0
71
3
72
8
73
4
74
0
42
0.000000001
43
0.0000000001
44
0.0000000001
40
-2.4989296225761919
40
-2.4989296225761919
40
-2.4989296225761919
40
-2.4989296225761919
40
-2.477793785418906
40
-2.477793785418906
40
-2.477793785418906
40
-2.477793785418906
10
-1.7166822124558463
20
2.2274332207161702
30
0
10
-1.7194804565998461
20
2.2272090051244513
30
0
10
-1.7222788935217157
20
2.2269834344476531
30
0
10
-1.7250761153090419
20
2.2267566370628575
30
0
0
SPLINE
5
349
100
AcDbEntity
8
0
100
AcDbSpline
70
0
71
3
72
10
73
6
74
0
42
0.000000001
43
0.0000000001
44
0.0000000001
40
-2.477793785418906
40
-2.477793785418906
40
-2.477793785418906
40
-2.477793785418906
40
-2.1720814841746994
40
-2.1720814841746994
40
-2.1461751031123
40
-2.1461751031123
40
-2.1461751031123
40
-2.1461751031123
10
-1.7250761153090419
20
2.2267566370628575
30
0
10
-1.7655356293285698
20
2.2234765459502324
30
0
10
-1.8058950356348049
20
2.2199535054766071
30
0
10
-1.8497336906274666
20
2.2158376850406079
30
0
10
-1.8531541390941624
20
2.2155146108078454
30
0
10
-1.8565835570280846
20
2.2151887059874542
30
0
0
SPLINE
5
350
100
AcDbEntity
8
0
100
AcDbSpline
70
0
71
3
72
8
73
4
74
0
42
0.000000001
43
0.0000000001
44
0.0000000001
40
-2.1461751031123
40
-2.1461751031123
40
-2.1461751031123
40
-2.1461751031123
40
-1.9496349517373834
40
-1.9496349517373834
40
-1.9496349517373834
40
-1.9496349517373834
10
-1.8565835570280846
20
2.2151887059874542
30
0
10
-1.8826010124489232
20
2.2127161280936454
30
0
10
-1.9086758855820061
20
2.2101229142731214
30
0
10
-1.9349877511900102
20
2.2072590543476878
30
0
0
SPLINE
5
351
100
AcDbEntity
8
0
100
AcDbSpline
70
0
71
3
72
10
73
6
74
0
42
0.000000001
43
0.0000000001
44
0.0000000001
40
-1.9496349517373834
40
-1.9496349517373834
40
-1.9496349517373834
40
-1.9496349517373834
40
-1.7534890315322853
40
-1.7534890315322853
40
-1.4892582503055287
40
-1.4892582503055287
40
-1.4892582503055287
40
-1.4892582503055287
10
-1.9349877511900102
20
2.2072590543476878
30
0
10
-1.9612467888475162
20
2.2044004805466417
30
0
10
-1.9877398664860679
20
2.2012509363303643
30
0
10
-2.0501251299356125
20
2.192844897111256
30
0
10
-2.0861810363198483
20
2.1871979477973471
30
0
10
-2.121935374583122
20
2.1806665694383311
30
0
0
SPLINE
5
352
100
AcDbEntity
8
0
100
AcDbSpline
70
0
71
3
72
8
73
4
74
0
42
0.000000001
43
0.0000000001
44
0.0000000001
40
-1.4892582503055287
40
-1.4892582503055287
40
-1.4892582503055287
40
-1.4892582503055287
40
-1.3756741530605852
40
-1.3756741530605852
40
-1.3756741530605852
40
-1.3756741530605852
10
-2.121935374583122
20
2.1806665694383311
30
0
10
-2.1373049944866289
20
2.1778589957879388
30
0
10
-2.1526801704479386
20
2.1748835210674744
30
0
10
-2.1679114374354063
20
2.171786792258803
30
0
0
SPLINE
5
353
100
AcDbEntity
8
0
100
AcDbSpline
70
0
71
3
72
10
73
6
74
0
42
0.000000001
43
0.0000000001
44
0.0000000001
40
-1.3756741530605852
40
-1.3756741530605852
40
-1.3756741530605852
40
-1.3756741530605852
40
-1.2494648112880959
40
-1.2494648112880959
40
-0.89103062970323577
40
-0.89103062970323577
40
-0.89103062970323577
40
-0.89103062970323577
10
-2.1679114374354063
20
2.171786792258803
30
0
10
-2.1848357710674593
20
2.1683461538161626
30
0
10
-2.2015997541207994
20
2.1647678002652433
30
0
10
-2.2656970030526113
20
2.150600008112229
30
0
10
-2.3124686082083703
20
2.1392844744841817
30
0
10
-2.3590921961357476
20
2.1273036678635471
30
0
0
LINE
5
354
100
AcDbEntity
8
0
100
AcDbLine
10
-2.3590921961357476
20
2.1273036678635466
30
0
11
-2.3607738967325509
21
2.1268712070305322
31
0
0
SPLINE
5
355
100
AcDbEntity
8
0
100
AcDbSpline
70
0
71
3
72
8
73
4
74
0
42
0.000000001
43
0.0000000001
44
0.0000000001
40
-0.88671828544864761
40
-0.88671828544864761
40
-0.88671828544864761
40
-0.88671828544864761
40
-0.64417982771234206
40
-0.64417982771234206
40
-0.64417982771234206
40
-0.64417982771234206
10
-2.3607738967325509
20
2.1268712070305322
30
0
10
-2.3923013801007253
20
2.118757775130506
30
0
10
-2.423842176469706
20
2.1103579803188288
30
0
10
-2.4559903238936869
20
2.1010492996488281
30
0
0
SPLINE
5
356
100
AcDbEntity
8
0
100
AcDbSpline
70
0
71
3
72
8
73
4
74
0
42
0.000000001
43
0.0000000001
44
0.0000000001
40
-0.64417982771234206
40
-0.64417982771234206
40
-0.64417982771234206
40
-0.64417982771234206
40
-0.5829776809488928
40
-0.5829776809488928
40
-0.5829776809488928
40
-0.5829776809488928
10
-2.4559903238936869
20
2.1010492996488281
30
0
10
-2.4640983677664274
20
2.098701601807865
30
0
10
-2.4722721648042283
20
2.0962846633656222
30
0
10
-2.4804763216129864
20
2.093786629505864
30
0
0
SPLINE
5
357
100
AcDbEntity
8
0
100
AcDbSpline
70
0
71
3
72
8
73
4
74
0
42
0.000000001
43
0.0000000001
44
0.0000000001
40
-0.5829776809488928
40
-0.5829776809488928
40
-0.5829776809488928
40
-0.5829776809488928
40
-0.53150271432980201
40
-0.53150271432980201
40
-0.53150271432980201
40
-0.53150271432980201
10
-2.4804763216129864
20
2.093786629505864
30
0
10
-2.4873766086778861
20
2.0916858188600123
30
0
10
-2.4942951888266074
20
2.0895315348411794
30
0
10
-2.5012547208009792
20
2.0873039010363024
30
0
0
SPLINE
5
358
100
AcDbEntity
8
0
100
AcDbSpline
70
0
71
3
72
8
73
4
74
0
42
0.000000001
43
0.0000000001
44
0.0000000001
40
-0.53150271432980201
40
-0.53150271432980201
40
-0.53150271432980201
40
-0.53150271432980201
40
-0.29414658325299414
40
-0.29414658325299414
40
-0.29414658325299414
40
-0.29414658325299414
10
-2.5012547208009792
20
2.0873039010363024
30
0
10
-2.5333196181511739
20
2.0770406106284827
30
0
10
-2.5655867487080948
20
2.0650959116950798
30
0
10
-2.595570545807635
20
2.0533175798916794
30
0
0
SPLINE
5
359
100
AcDbEntity
8
0
100
AcDbSpline
70
0
71
3
72
8
73
4
74
0
42
0.000000001
43
0.0000000001
44
0.0000000001
40
-0.29414658325299414
40
-0.29414658325299414
40
-0.29414658325299414
40
-0.29414658325299414
40
-0.27533205796653704
40
-0.27533205796653704
40
-0.27533205796653704
40
-0.27533205796653704
10
-2.595570545807635
20
2.0533175798916794
30
0
10
-2.5980027632230867
20
2.0523619412169047
30
0
10
-2.6004198589503376
20
2.0514064411896098
30
0
10
-2.602841551595882
20
2.0504438395054625
30
0
0
SPLINE
5
360
100
AcDbEntity
8
0
100
AcDbSpline
70
0
71
3
72
8
73
4
74
0
42
0.000000001
43
0.0000000001
44
0.0000000001
40
-0.27533205796653704
40
-0.27533205796653704
40
-0.27533205796653704
40
-0.27533205796653704
40
0
40
0
40
0
40
0
10
-2.602841551595882
20
2.0504438395054625
30
0
10
-2.6382803597207265
20
2.0363564060700301
30
0
10
-2.6727079237549862
20
2.0216419295529913
30
0
10
-2.7075305810094701
20
2.0056514378587296
30
0
0
ARC
5
361
100
AcDbEntity
8
0
100
AcDbCircle
10
-2.663633860678583
20
1.9100811380672271
30
0
40
0.11811023622047249
100
AcDbArc
50
114.66995338829268
51
231.74207970336292
0
SPLINE
5
362
100
AcDbEntity
8
0
100
AcDbSpline
70
0
71
3
72
26
73
22
74
0
42
0.000000001
43
0.0000000001
44
0.0000000001
40
0
40
0
40
0
40
0
40
0.29414658325299414
40
0.29414658325299414
40
0.29414658325299414
40
0.53150271432980201
40
0.53150271432980201
40
0.53150271432980201
40
0.64417982771234206
40
0.64417982771234206
40
0.64417982771234206
40
0.89103062970323577
40
0.89103062970323577
40
0.89103062970323577
40
1.2494648112880959
40
1.2494648112880959
40
1.7534890315322853
40
1.7534890315322853
40
2.1720814841746994
40
2.1720814841746994
40
2.4989296225761919
40
2.4989296225761919
40
2.4989296225761919
40
2.4989296225761919
10
-2.663633860678583
20
1.9100811380672269
30
0
10
-2.628555252117891
20
1.9261932133975828
30
0
10
-2.593026894618037
20
1.9413270846491208
30
0
10
-2.5570974701961817
20
1.955451670779204
30
0
10
-2.5281048873884013
20
1.9668492436485587
30
0
10
-2.4988785267725766
20
1.9776612134087812
30
0
10
-2.4692068819139732
20
1.9871563215129047
30
0
10
-2.4551212323172602
20
1.991663815663463
30
0
10
-2.4409557614484889
20
1.9959306182617784
30
0
10
-2.4267447679963654
20
2.000045393823831
30
0
10
-2.3956116032796371
20
2.0090599631273309
30
0
10
-2.3642995820530546
20
2.0173984452220282
30
0
10
-2.3329107216834792
20
2.0254684068190509
30
0
10
-2.2873332295841609
20
2.0371862139200245
30
0
10
-2.241557088865918
20
2.0482634829803716
30
0
10
-2.1309693722054028
20
2.072711888916388
30
0
10
-2.0658590162290871
20
2.0846354191677561
30
0
10
-1.945851848893781
20
2.1007802573538714
30
0
10
-1.8911721230726388
20
2.1063141785019068
30
0
10
-1.7937728003588129
20
2.1154579818489503
30
0
10
-1.7510389600322633
20
2.1191694062055646
30
0
10
-1.7082825174618417
20
2.1225950780802312
30
0
0
SPLINE
5
363
100
AcDbEntity
8
0
100
AcDbSpline
70
0
71
3
72
14
73
10
74
0
42
0.000000001
43
0.0000000001
44
0.0000000001
40
0.047021412210933963
40
0.047021412210933963
40
0.047021412210933963
40
0.047021412210933963
40
0.25249731973006684
40
0.25249731973006684
40
0.34608018956662823
40
0.34608018956662823
40
0.44035253127316165
40
0.44035253127316165
40
0.53961636206550667
40
0.53961636206550667
40
0.53961636206550667
40
0.53961636206550667
10
-2.6761455772005363
20
1.7827044832887027
30
0
10
-2.6420506093521574
20
1.8002420644135819
30
0
10
-2.5850481487756594
20
1.8277924707490398
30
0
10
-2.4632619743600523
20
1.8739760440978499
30
0
10
-2.4029787682012911
20
1.8956738570870135
30
0
10
-2.124771028095283
20
1.9635516234887604
30
0
10
-2.0311783810117316
20
1.9794614882671155
30
0
10
-1.8584411486790779
20
2.0008249234036493
30
0
10
-1.7381424249807942
20
2.0110665125202813
30
0
10
-1.6453727276750787
20
2.0179172616583143
30
0
0
ARC
5
364
100
AcDbEntity
8
0
100
AcDbCircle
10
-2.1365000000000154
20
1.7939999999999896
30
0
40
0.53976377952757759
100
AcDbArc
50
24.509434043766973
51
37.501031372194795
0
SPLINE
5
365
100
AcDbEntity
8
0
100
AcDbSpline
70
0
71
3
72
26
73
22
74
0
42
0.000000001
43
0.0000000001
44
0.0000000001
40
0
40
0
40
0
40
0
40
0.29414658325299414
40
0.29414658325299414
40
0.29414658325299414
40
0.53150271432980201
40
0.53150271432980201
40
0.53150271432980201
40
0.64417982771234206
40
0.64417982771234206
40
0.64417982771234206
40
0.89103062970323577
40
0.89103062970323577
40
0.89103062970323577
40
1.2494648112880959
40
1.2494648112880959
40
1.7534890315322853
40
1.7534890315322853
40
2.1720814841746994
40
2.1720814841746994
40
2.4989296225761919
40
2.4989296225761919
40
2.4989296225761919
40
2.4989296225761919
10
-2.663633860678583
20
1.9100811380672269
30
0
10
-2.628555252117891
20
1.9261932133975828
30
0
10
-2.593026894618037
20
1.9413270846491208
30
0
10
-2.5570974701961817
20
1.955451670779204
30
0
10
-2.5281048873884013
20
1.9668492436485587
30
0
10
-2.4988785267725766
20
1.9776612134087812
30
0
10
-2.4692068819139732
20
1.9871563215129047
30
0
10
-2.4551212323172602
20
1.991663815663463
30
0
10
-2.4409557614484889
20
1.9959306182617784
30
0
10
-2.4267447679963654
20
2.000045393823831
30
0
10
-2.3956116032796371
20
2.0090599631273309
30
0
10
-2.3642995820530546
20
2.0173984452220282
30
0
10
-2.3329107216834792
20
2.0254684068190509
30
0
10
-2.2873332295841609
20
2.0371862139200245
30
0
10
-2.241557088865918
20
2.0482634829803716
30
0
10
-2.1309693722054028
20
2.072711888916388
30
0
10
-2.0658590162290871
20
2.0846354191677561
30
0
10
-1.945851848893781
20
2.1007802573538714
30
0
10
-1.8911721230726388
20
2.1063141785019068
30
0
10
-1.7937728003588129
20
2.1154579818489503
30
0
10
-1.7510389600322633
20
2.1191694062055646
30
0
10
-1.7082825174618417
20
2.1225950780802312
30
0
0
ARC
5
366
100
AcDbEntity
8
0
100
AcDbCircle
10
-2.1365000000000154
20
1.7939999999999896
30
0
40
0.5397637795266339
100
AcDbArc
50
167.58100264208778
51
181.19910358165157
0
LWPOLYLINE
5
367
100
AcDbEntity
8
0
100
AcDbPolyline
90
4
70
1
43
0.0
10
-0.45160993166838115
20
-0.97916920323153178
10
-0.45160993166838115
20
-1.4180403201437422
10
-0.87306601783835103
20
-1.4180403201437422
10
-0.87306601783835103
20
-0.97916920323153178
0
ENDSEC
0
SECTION
2
OBJECTS
0
DICTIONARY
5
C
100
AcDbDictionary
3
ACAD_GROUP
350
D
3
ACAD_MLINESTYLE
350
17
0
DICTIONARY
5
D
100
AcDbDictionary
0
DICTIONARY
5
1A
330
C
100
AcDbDictionary
0
DICTIONARY
5
17
100
AcDbDictionary
0
ENDSEC
0
EOF
