G04 #@! TF.GenerationSoftware,KiCad,Pcbnew,(5.1.0-875-g6f8a0a4ee)*
G04 #@! TF.CreationDate,2019-06-08T21:53:14-07:00*
G04 #@! TF.ProjectId,Stylish-Belt-Synth - Full,5374796c-6973-4682-9d42-656c742d5379,rev?*
G04 #@! TF.SameCoordinates,Original*
G04 #@! TF.FileFunction,Copper,L2,Bot*
G04 #@! TF.FilePolarity,Positive*
%FSLAX46Y46*%
G04 Gerber Fmt 4.6, Leading zero omitted, Abs format (unit mm)*
G04 Created by KiCad (PCBNEW (5.1.0-875-g6f8a0a4ee)) date 2019-06-08 21:53:14*
%MOMM*%
%LPD*%
G04 APERTURE LIST*
%ADD10C,0.254000*%
%ADD11C,0.300000*%
%ADD12C,0.100000*%
%ADD13C,6.096000*%
%ADD14C,6.985000*%
%ADD15C,3.049000*%
%ADD16R,5.000000X2.250000*%
%ADD17R,1.600000X1.600000*%
%ADD18O,1.600000X1.600000*%
%ADD19C,1.600000*%
%ADD20C,1.600000*%
%ADD21R,1.700000X1.700000*%
%ADD22O,1.700000X1.700000*%
%ADD23C,3.352800*%
%ADD24C,3.352800*%
%ADD25C,2.540000*%
%ADD26C,2.540000*%
%ADD27C,2.200000*%
%ADD28C,2.200000*%
%ADD29C,1.778000*%
%ADD30C,1.778000*%
%ADD31O,1.400000X1.400000*%
%ADD32C,1.400000*%
%ADD33R,1.270000X2.286000*%
%ADD34R,2.000000X2.000000*%
%ADD35C,2.000000*%
%ADD36C,5.080000*%
%ADD37C,1.250000*%
%ADD38R,1.250000X1.500000*%
%ADD39R,3.048000X1.270000*%
%ADD40R,1.270000X3.048000*%
%ADD41C,1.524000*%
%ADD42R,1.524000X4.572000*%
%ADD43R,1.143000X0.508000*%
%ADD44C,2.700000*%
%ADD45C,1.520000*%
%ADD46C,2.032000*%
%ADD47C,1.270000*%
%ADD48C,0.508000*%
%ADD49C,1.016000*%
%ADD50C,1.270000*%
%ADD51C,2.032000*%
%ADD52C,0.762000*%
G04 APERTURE END LIST*
D10*
X130023809Y-149176619D02*
X129394857Y-149176619D01*
X129733523Y-149563666D01*
X129588380Y-149563666D01*
X129491619Y-149612047D01*
X129443238Y-149660428D01*
X129394857Y-149757190D01*
X129394857Y-149999095D01*
X129443238Y-150095857D01*
X129491619Y-150144238D01*
X129588380Y-150192619D01*
X129878666Y-150192619D01*
X129975428Y-150144238D01*
X130023809Y-150095857D01*
X128959428Y-150095857D02*
X128911047Y-150144238D01*
X128959428Y-150192619D01*
X129007809Y-150144238D01*
X128959428Y-150095857D01*
X128959428Y-150192619D01*
X128572380Y-149176619D02*
X127943428Y-149176619D01*
X128282095Y-149563666D01*
X128136952Y-149563666D01*
X128040190Y-149612047D01*
X127991809Y-149660428D01*
X127943428Y-149757190D01*
X127943428Y-149999095D01*
X127991809Y-150095857D01*
X128040190Y-150144238D01*
X128136952Y-150192619D01*
X128427238Y-150192619D01*
X128524000Y-150144238D01*
X128572380Y-150095857D01*
X127653142Y-149176619D02*
X127314476Y-150192619D01*
X126975809Y-149176619D01*
X160570333Y-120002904D02*
X160570333Y-120486714D01*
X160860619Y-119906142D02*
X159844619Y-120244809D01*
X160860619Y-120583476D01*
X159844619Y-120922142D02*
X160667095Y-120922142D01*
X160763857Y-120970523D01*
X160812238Y-121018904D01*
X160860619Y-121115666D01*
X160860619Y-121309190D01*
X160812238Y-121405952D01*
X160763857Y-121454333D01*
X160667095Y-121502714D01*
X159844619Y-121502714D01*
X160860619Y-121986523D02*
X159844619Y-121986523D01*
X159844619Y-122228428D01*
X159893000Y-122373571D01*
X159989761Y-122470333D01*
X160086523Y-122518714D01*
X160280047Y-122567095D01*
X160425190Y-122567095D01*
X160618714Y-122518714D01*
X160715476Y-122470333D01*
X160812238Y-122373571D01*
X160860619Y-122228428D01*
X160860619Y-121986523D01*
D11*
X105981428Y-78212142D02*
X104838571Y-78212142D01*
X99631428Y-78212142D02*
X98488571Y-78212142D01*
X99060000Y-78783571D02*
X99060000Y-77640714D01*
X197421428Y-77577142D02*
X196278571Y-77577142D01*
X191706428Y-77577142D02*
X190563571Y-77577142D01*
X191135000Y-78148571D02*
X191135000Y-77005714D01*
D10*
X186399714Y-65229619D02*
X186980285Y-65229619D01*
X186690000Y-65229619D02*
X186690000Y-64213619D01*
X186786761Y-64358761D01*
X186883523Y-64455523D01*
X186980285Y-64503904D01*
D11*
X111633142Y-147816000D02*
X111490285Y-147887428D01*
X111276000Y-147887428D01*
X111061714Y-147816000D01*
X110918857Y-147673142D01*
X110847428Y-147530285D01*
X110776000Y-147244571D01*
X110776000Y-147030285D01*
X110847428Y-146744571D01*
X110918857Y-146601714D01*
X111061714Y-146458857D01*
X111276000Y-146387428D01*
X111418857Y-146387428D01*
X111633142Y-146458857D01*
X111704571Y-146530285D01*
X111704571Y-147030285D01*
X111418857Y-147030285D01*
X112347428Y-146387428D02*
X112347428Y-147887428D01*
X113204571Y-146387428D01*
X113204571Y-147887428D01*
X113918857Y-146387428D02*
X113918857Y-147887428D01*
X114276000Y-147887428D01*
X114490285Y-147816000D01*
X114633142Y-147673142D01*
X114704571Y-147530285D01*
X114776000Y-147244571D01*
X114776000Y-147030285D01*
X114704571Y-146744571D01*
X114633142Y-146601714D01*
X114490285Y-146458857D01*
X114276000Y-146387428D01*
X113918857Y-146387428D01*
X142156714Y-140378571D02*
X142871000Y-140378571D01*
X142871000Y-138878571D01*
X169739571Y-129611714D02*
X169739571Y-130540285D01*
X170311000Y-130040285D01*
X170311000Y-130254571D01*
X170382428Y-130397428D01*
X170453857Y-130468857D01*
X170596714Y-130540285D01*
X170953857Y-130540285D01*
X171096714Y-130468857D01*
X171168142Y-130397428D01*
X171239571Y-130254571D01*
X171239571Y-129826000D01*
X171168142Y-129683142D01*
X171096714Y-129611714D01*
X171096714Y-131183142D02*
X171168142Y-131254571D01*
X171239571Y-131183142D01*
X171168142Y-131111714D01*
X171096714Y-131183142D01*
X171239571Y-131183142D01*
X169739571Y-131754571D02*
X169739571Y-132683142D01*
X170311000Y-132183142D01*
X170311000Y-132397428D01*
X170382428Y-132540285D01*
X170453857Y-132611714D01*
X170596714Y-132683142D01*
X170953857Y-132683142D01*
X171096714Y-132611714D01*
X171168142Y-132540285D01*
X171239571Y-132397428D01*
X171239571Y-131968857D01*
X171168142Y-131826000D01*
X171096714Y-131754571D01*
X169739571Y-133111714D02*
X171239571Y-133611714D01*
X169739571Y-134111714D01*
X167271000Y-130429142D02*
X167199571Y-130286285D01*
X167199571Y-130072000D01*
X167271000Y-129857714D01*
X167413857Y-129714857D01*
X167556714Y-129643428D01*
X167842428Y-129572000D01*
X168056714Y-129572000D01*
X168342428Y-129643428D01*
X168485285Y-129714857D01*
X168628142Y-129857714D01*
X168699571Y-130072000D01*
X168699571Y-130214857D01*
X168628142Y-130429142D01*
X168556714Y-130500571D01*
X168056714Y-130500571D01*
X168056714Y-130214857D01*
X168699571Y-131143428D02*
X167199571Y-131143428D01*
X168699571Y-132000571D01*
X167199571Y-132000571D01*
X168699571Y-132714857D02*
X167199571Y-132714857D01*
X167199571Y-133072000D01*
X167271000Y-133286285D01*
X167413857Y-133429142D01*
X167556714Y-133500571D01*
X167842428Y-133572000D01*
X168056714Y-133572000D01*
X168342428Y-133500571D01*
X168485285Y-133429142D01*
X168628142Y-133286285D01*
X168699571Y-133072000D01*
X168699571Y-132714857D01*
X165461142Y-129516428D02*
X165461142Y-130659285D01*
X166032571Y-130087857D02*
X164889714Y-130087857D01*
X164532571Y-132087857D02*
X164532571Y-131373571D01*
X165246857Y-131302142D01*
X165175428Y-131373571D01*
X165104000Y-131516428D01*
X165104000Y-131873571D01*
X165175428Y-132016428D01*
X165246857Y-132087857D01*
X165389714Y-132159285D01*
X165746857Y-132159285D01*
X165889714Y-132087857D01*
X165961142Y-132016428D01*
X166032571Y-131873571D01*
X166032571Y-131516428D01*
X165961142Y-131373571D01*
X165889714Y-131302142D01*
X164532571Y-132587857D02*
X166032571Y-133087857D01*
X164532571Y-133587857D01*
X212030000Y-94587142D02*
X211815714Y-94658571D01*
X211458571Y-94658571D01*
X211315714Y-94587142D01*
X211244285Y-94515714D01*
X211172857Y-94372857D01*
X211172857Y-94230000D01*
X211244285Y-94087142D01*
X211315714Y-94015714D01*
X211458571Y-93944285D01*
X211744285Y-93872857D01*
X211887142Y-93801428D01*
X211958571Y-93730000D01*
X212030000Y-93587142D01*
X212030000Y-93444285D01*
X211958571Y-93301428D01*
X211887142Y-93230000D01*
X211744285Y-93158571D01*
X211387142Y-93158571D01*
X211172857Y-93230000D01*
X210744285Y-93158571D02*
X209887142Y-93158571D01*
X210315714Y-94658571D02*
X210315714Y-93158571D01*
X209101428Y-93944285D02*
X209101428Y-94658571D01*
X209601428Y-93158571D02*
X209101428Y-93944285D01*
X208601428Y-93158571D01*
X207387142Y-94658571D02*
X208101428Y-94658571D01*
X208101428Y-93158571D01*
X206887142Y-93158571D02*
X206887142Y-94372857D01*
X206815714Y-94515714D01*
X206744285Y-94587142D01*
X206601428Y-94658571D01*
X206315714Y-94658571D01*
X206172857Y-94587142D01*
X206101428Y-94515714D01*
X206030000Y-94372857D01*
X206030000Y-93158571D01*
X205387142Y-94587142D02*
X205172857Y-94658571D01*
X204815714Y-94658571D01*
X204672857Y-94587142D01*
X204601428Y-94515714D01*
X204530000Y-94372857D01*
X204530000Y-94230000D01*
X204601428Y-94087142D01*
X204672857Y-94015714D01*
X204815714Y-93944285D01*
X205101428Y-93872857D01*
X205244285Y-93801428D01*
X205315714Y-93730000D01*
X205387142Y-93587142D01*
X205387142Y-93444285D01*
X205315714Y-93301428D01*
X205244285Y-93230000D01*
X205101428Y-93158571D01*
X204744285Y-93158571D01*
X204530000Y-93230000D01*
D12*
G36*
X190627000Y-63119000D02*
G01*
X188976000Y-63119000D01*
X187833000Y-61976000D01*
X187833000Y-58801000D01*
X190627000Y-58801000D01*
X190627000Y-63119000D01*
G37*
X190627000Y-63119000D02*
X188976000Y-63119000D01*
X187833000Y-61976000D01*
X187833000Y-58801000D01*
X190627000Y-58801000D01*
X190627000Y-63119000D01*
D10*
X202485214Y-57309370D02*
X202335257Y-57339702D01*
X202095155Y-57310222D01*
X202005010Y-57250409D01*
X201962886Y-57196492D01*
X201926658Y-57094556D01*
X201938451Y-56998515D01*
X201998263Y-56908370D01*
X202052180Y-56866246D01*
X202154116Y-56830018D01*
X202352094Y-56805583D01*
X202454031Y-56769355D01*
X202507947Y-56727230D01*
X202567760Y-56637086D01*
X202579552Y-56541045D01*
X202543324Y-56439108D01*
X202501200Y-56385192D01*
X202411055Y-56325379D01*
X202170954Y-56295898D01*
X202020997Y-56326230D01*
X201470891Y-57233572D02*
X201594710Y-56225145D01*
X201210547Y-56177975D01*
X201108610Y-56214203D01*
X201054694Y-56256328D01*
X200994881Y-56346472D01*
X200977193Y-56490533D01*
X201013421Y-56592470D01*
X201055545Y-56646386D01*
X201145690Y-56706199D01*
X201529852Y-56753368D01*
X200527321Y-56581529D02*
X200191179Y-56540256D01*
X199982260Y-57050791D02*
X200462464Y-57109752D01*
X200586283Y-56101325D01*
X200106080Y-56042364D01*
X199633475Y-56715500D02*
X199153271Y-56656538D01*
X199694138Y-57015414D02*
X199481815Y-55965714D01*
X199021854Y-56932868D01*
X198685712Y-56891595D02*
X198809531Y-55883168D01*
X198109468Y-56820841D02*
X198612404Y-56297662D01*
X198233287Y-55812414D02*
X198738777Y-56459412D01*
X197742142Y-56239552D02*
X197406000Y-56198279D01*
X197197081Y-56708814D02*
X197677285Y-56767775D01*
X197801104Y-55759348D01*
X197320901Y-55700387D01*
X196188655Y-56584994D02*
X196583758Y-56146064D01*
X196764898Y-56655748D02*
X196888718Y-55647321D01*
X196504555Y-55600152D01*
X196402618Y-55636380D01*
X196348702Y-55678504D01*
X196288889Y-55768649D01*
X196271201Y-55912710D01*
X196307429Y-56014647D01*
X196349553Y-56068563D01*
X196439697Y-56128376D01*
X196823860Y-56175545D01*
D11*
X169882428Y-120269142D02*
X169811000Y-120340571D01*
X169739571Y-120483428D01*
X169739571Y-120840571D01*
X169811000Y-120983428D01*
X169882428Y-121054857D01*
X170025285Y-121126285D01*
X170168142Y-121126285D01*
X170382428Y-121054857D01*
X171239571Y-120197714D01*
X171239571Y-121126285D01*
X169739571Y-122054857D02*
X169739571Y-122197714D01*
X169811000Y-122340571D01*
X169882428Y-122412000D01*
X170025285Y-122483428D01*
X170311000Y-122554857D01*
X170668142Y-122554857D01*
X170953857Y-122483428D01*
X171096714Y-122412000D01*
X171168142Y-122340571D01*
X171239571Y-122197714D01*
X171239571Y-122054857D01*
X171168142Y-121912000D01*
X171096714Y-121840571D01*
X170953857Y-121769142D01*
X170668142Y-121697714D01*
X170311000Y-121697714D01*
X170025285Y-121769142D01*
X169882428Y-121840571D01*
X169811000Y-121912000D01*
X169739571Y-122054857D01*
X119332428Y-128059571D02*
X120189571Y-128059571D01*
X119761000Y-128059571D02*
X119761000Y-126559571D01*
X119903857Y-126773857D01*
X120046714Y-126916714D01*
X120189571Y-126988142D01*
X114621000Y-145514142D02*
X114406714Y-145585571D01*
X114049571Y-145585571D01*
X113906714Y-145514142D01*
X113835285Y-145442714D01*
X113763857Y-145299857D01*
X113763857Y-145157000D01*
X113835285Y-145014142D01*
X113906714Y-144942714D01*
X114049571Y-144871285D01*
X114335285Y-144799857D01*
X114478142Y-144728428D01*
X114549571Y-144657000D01*
X114621000Y-144514142D01*
X114621000Y-144371285D01*
X114549571Y-144228428D01*
X114478142Y-144157000D01*
X114335285Y-144085571D01*
X113978142Y-144085571D01*
X113763857Y-144157000D01*
X113335285Y-144085571D02*
X112478142Y-144085571D01*
X112906714Y-145585571D02*
X112906714Y-144085571D01*
X111692428Y-144871285D02*
X111692428Y-145585571D01*
X112192428Y-144085571D02*
X111692428Y-144871285D01*
X111192428Y-144085571D01*
X109978142Y-145585571D02*
X110692428Y-145585571D01*
X110692428Y-144085571D01*
X109478142Y-144085571D02*
X109478142Y-145299857D01*
X109406714Y-145442714D01*
X109335285Y-145514142D01*
X109192428Y-145585571D01*
X108906714Y-145585571D01*
X108763857Y-145514142D01*
X108692428Y-145442714D01*
X108621000Y-145299857D01*
X108621000Y-144085571D01*
X107978142Y-145514142D02*
X107763857Y-145585571D01*
X107406714Y-145585571D01*
X107263857Y-145514142D01*
X107192428Y-145442714D01*
X107121000Y-145299857D01*
X107121000Y-145157000D01*
X107192428Y-145014142D01*
X107263857Y-144942714D01*
X107406714Y-144871285D01*
X107692428Y-144799857D01*
X107835285Y-144728428D01*
X107906714Y-144657000D01*
X107978142Y-144514142D01*
X107978142Y-144371285D01*
X107906714Y-144228428D01*
X107835285Y-144157000D01*
X107692428Y-144085571D01*
X107335285Y-144085571D01*
X107121000Y-144157000D01*
D13*
X215900000Y-82550000D03*
D14*
X215900000Y-91440000D03*
D15*
X79248000Y-66421000D03*
X222123000Y-70231000D03*
D16*
X187325000Y-78105000D03*
D17*
X102400000Y-83120000D03*
D18*
X94780000Y-83120000D03*
D19*
X106045000Y-105410000D03*
D12*
G36*
X107176371Y-105410000D02*
G01*
X106045000Y-106541371D01*
X104913629Y-105410000D01*
X106045000Y-104278629D01*
X107176371Y-105410000D01*
X107176371Y-105410000D01*
G37*
D19*
X100656846Y-100021846D03*
D20*
X100656846Y-100021846D02*
X100656846Y-100021846D01*
D17*
X87630000Y-72390000D03*
D18*
X80010000Y-72390000D03*
D17*
X87630000Y-69977000D03*
D18*
X95250000Y-69977000D03*
D21*
X108585000Y-70485000D03*
D22*
X106045000Y-70485000D03*
X103505000Y-70485000D03*
D23*
X88096124Y-60740646D03*
D24*
X88275677Y-61585374D02*
X87916571Y-59895918D01*
D23*
X100371876Y-58131354D03*
D24*
X100551429Y-58976082D02*
X100192323Y-57286626D01*
D25*
X91500365Y-65333223D03*
D26*
X91734173Y-65432469D02*
X91266557Y-65233977D01*
D25*
X99129916Y-63711512D03*
D26*
X99303144Y-63525748D02*
X98956688Y-63897276D01*
D25*
X95564635Y-65696145D03*
D26*
X95813084Y-65643335D02*
X95316186Y-65748955D01*
D27*
X213230000Y-62890000D03*
D28*
X213537818Y-62044277D02*
X212922182Y-63735723D01*
D27*
X210263407Y-69578746D03*
D28*
X211109130Y-69886564D02*
X209417684Y-69270928D01*
D29*
X205566324Y-63186766D03*
D30*
X205913816Y-62232038D02*
X205218832Y-64141494D01*
D29*
X202618730Y-63390942D03*
D30*
X202966222Y-62436214D02*
X202271238Y-64345670D01*
D27*
X210241293Y-57651906D03*
D28*
X211087016Y-57959724D02*
X209395570Y-57344088D01*
D16*
X95250000Y-78105000D03*
X109220000Y-78105000D03*
X201295000Y-78105000D03*
D31*
X107950000Y-56515000D03*
D32*
X107950000Y-64135000D03*
D17*
X181864000Y-59690000D03*
D19*
X181864000Y-62190000D03*
D33*
X173990000Y-60960000D03*
D19*
X173990000Y-61769000D03*
X173990000Y-56769000D03*
D33*
X173990000Y-57658000D03*
D34*
X183388000Y-66294000D03*
D35*
X183388000Y-71294000D03*
D34*
X194183000Y-66294000D03*
D35*
X194183000Y-71294000D03*
D36*
X118364000Y-144780000D03*
D21*
X197620000Y-61430000D03*
D22*
X197620000Y-58890000D03*
D19*
X104775000Y-63293000D03*
X104775000Y-58293000D03*
D33*
X177800000Y-60706000D03*
D19*
X177800000Y-61515000D03*
X177800000Y-56515000D03*
D33*
X177800000Y-57404000D03*
X114935000Y-71191000D03*
D19*
X114935000Y-72000000D03*
X114935000Y-67000000D03*
D33*
X114935000Y-67889000D03*
D37*
X138306661Y-60224848D03*
D12*
G36*
X138849841Y-61036070D02*
G01*
X137606688Y-60905409D01*
X137763481Y-59413626D01*
X139006634Y-59544287D01*
X138849841Y-61036070D01*
X138849841Y-61036070D01*
G37*
D37*
X138045339Y-62711152D03*
D12*
G36*
X138588519Y-63522374D02*
G01*
X137345366Y-63391713D01*
X137502159Y-61899930D01*
X138745312Y-62030591D01*
X138588519Y-63522374D01*
X138588519Y-63522374D01*
G37*
D38*
X129667000Y-68306000D03*
X129667000Y-65806000D03*
D37*
X122946000Y-74736468D03*
D12*
G36*
X123862266Y-75073487D02*
G01*
X122779734Y-75698487D01*
X122029734Y-74399449D01*
X123112266Y-73774449D01*
X123862266Y-75073487D01*
X123862266Y-75073487D01*
G37*
D37*
X124196000Y-76901532D03*
D12*
G36*
X125112266Y-77238551D02*
G01*
X124029734Y-77863551D01*
X123279734Y-76564513D01*
X124362266Y-75939513D01*
X125112266Y-77238551D01*
X125112266Y-77238551D01*
G37*
D37*
X122943940Y-86568971D03*
D12*
G36*
X123916789Y-86487183D02*
G01*
X123199819Y-87511123D01*
X121971091Y-86650759D01*
X122688061Y-85626819D01*
X123916789Y-86487183D01*
X123916789Y-86487183D01*
G37*
D37*
X120896060Y-85135029D03*
D12*
G36*
X121868909Y-85053241D02*
G01*
X121151939Y-86077181D01*
X119923211Y-85216817D01*
X120640181Y-84192877D01*
X121868909Y-85053241D01*
X121868909Y-85053241D01*
G37*
D37*
X122543151Y-95533646D03*
D12*
G36*
X123475238Y-95243234D02*
G01*
X122996884Y-96398083D01*
X121611064Y-95824058D01*
X122089418Y-94669209D01*
X123475238Y-95243234D01*
X123475238Y-95243234D01*
G37*
D37*
X124852849Y-96490354D03*
D12*
G36*
X125784936Y-96199942D02*
G01*
X125306582Y-97354791D01*
X123920762Y-96780766D01*
X124399116Y-95625917D01*
X125784936Y-96199942D01*
X125784936Y-96199942D01*
G37*
D37*
X130771010Y-104402940D03*
D12*
G36*
X131401086Y-103657199D02*
G01*
X131618146Y-104888209D01*
X130140934Y-105148681D01*
X129923874Y-103917671D01*
X131401086Y-103657199D01*
X131401086Y-103657199D01*
G37*
D37*
X128308990Y-104837060D03*
D12*
G36*
X128939066Y-104091319D02*
G01*
X129156126Y-105322329D01*
X127678914Y-105582801D01*
X127461854Y-104351791D01*
X128939066Y-104091319D01*
X128939066Y-104091319D01*
G37*
D37*
X137308308Y-111300952D03*
D12*
G36*
X137522847Y-110348535D02*
G01*
X138283799Y-111340227D01*
X137093769Y-112253369D01*
X136332817Y-111261677D01*
X137522847Y-110348535D01*
X137522847Y-110348535D01*
G37*
D37*
X139291692Y-109779048D03*
D12*
G36*
X139506231Y-108826631D02*
G01*
X140267183Y-109818323D01*
X139077153Y-110731465D01*
X138316201Y-109739773D01*
X139506231Y-108826631D01*
X139506231Y-108826631D01*
G37*
D37*
X149443484Y-111722445D03*
D12*
G36*
X149446797Y-110746169D02*
G01*
X150404352Y-111549654D01*
X149440171Y-112698721D01*
X148482616Y-111895236D01*
X149446797Y-110746169D01*
X149446797Y-110746169D01*
G37*
D37*
X147836516Y-113637555D03*
D12*
G36*
X147839829Y-112661279D02*
G01*
X148797384Y-113464764D01*
X147833203Y-114613831D01*
X146875648Y-113810346D01*
X147839829Y-112661279D01*
X147839829Y-112661279D01*
G37*
D37*
X158507060Y-109508990D03*
D12*
G36*
X158021791Y-108661854D02*
G01*
X159252801Y-108878914D01*
X158992329Y-110356126D01*
X157761319Y-110139066D01*
X158021791Y-108661854D01*
X158021791Y-108661854D01*
G37*
D37*
X158072940Y-111971010D03*
D12*
G36*
X157587671Y-111123874D02*
G01*
X158818681Y-111340934D01*
X158558209Y-112818146D01*
X157327199Y-112601086D01*
X157587671Y-111123874D01*
X157587671Y-111123874D01*
G37*
D37*
X167397060Y-106021010D03*
D12*
G36*
X166651319Y-105390934D02*
G01*
X167882329Y-105173874D01*
X168142801Y-106651086D01*
X166911791Y-106868146D01*
X166651319Y-105390934D01*
X166651319Y-105390934D01*
G37*
D37*
X166962940Y-103558990D03*
D12*
G36*
X166217199Y-102928914D02*
G01*
X167448209Y-102711854D01*
X167708681Y-104189066D01*
X166477671Y-104406126D01*
X166217199Y-102928914D01*
X166217199Y-102928914D01*
G37*
D37*
X172235000Y-95207468D03*
D12*
G36*
X171318734Y-94870449D02*
G01*
X172401266Y-94245449D01*
X173151266Y-95544487D01*
X172068734Y-96169487D01*
X171318734Y-94870449D01*
X171318734Y-94870449D01*
G37*
D37*
X173485000Y-97372532D03*
D12*
G36*
X172568734Y-97035513D02*
G01*
X173651266Y-96410513D01*
X174401266Y-97709551D01*
X173318734Y-98334551D01*
X172568734Y-97035513D01*
X172568734Y-97035513D01*
G37*
D37*
X176083940Y-86786971D03*
D12*
G36*
X175111091Y-86868759D02*
G01*
X175828061Y-85844819D01*
X177056789Y-86705183D01*
X176339819Y-87729123D01*
X175111091Y-86868759D01*
X175111091Y-86868759D01*
G37*
D37*
X174036060Y-85353029D03*
D12*
G36*
X173063211Y-85434817D02*
G01*
X173780181Y-84410877D01*
X175008909Y-85271241D01*
X174291939Y-86295181D01*
X173063211Y-85434817D01*
X173063211Y-85434817D01*
G37*
D37*
X174210683Y-75862337D03*
D12*
G36*
X173390105Y-76391276D02*
G01*
X173542442Y-75150594D01*
X175031261Y-75333398D01*
X174878924Y-76574080D01*
X173390105Y-76391276D01*
X173390105Y-76391276D01*
G37*
D37*
X171729317Y-75557663D03*
D12*
G36*
X170908739Y-76086602D02*
G01*
X171061076Y-74845920D01*
X172549895Y-75028724D01*
X172397558Y-76269406D01*
X170908739Y-76086602D01*
X170908739Y-76086602D01*
G37*
D37*
X166119317Y-67502337D03*
D12*
G36*
X165451076Y-68214080D02*
G01*
X165298739Y-66973398D01*
X166787558Y-66790594D01*
X166939895Y-68031276D01*
X165451076Y-68214080D01*
X165451076Y-68214080D01*
G37*
D37*
X168600683Y-67197663D03*
D12*
G36*
X167932442Y-67909406D02*
G01*
X167780105Y-66668724D01*
X169268924Y-66485920D01*
X169421261Y-67726602D01*
X167932442Y-67909406D01*
X167932442Y-67909406D01*
G37*
D37*
X159674849Y-61111646D03*
D12*
G36*
X159221116Y-61976083D02*
G01*
X158742762Y-60821234D01*
X160128582Y-60247209D01*
X160606936Y-61402058D01*
X159221116Y-61976083D01*
X159221116Y-61976083D01*
G37*
D37*
X157365151Y-62068354D03*
D12*
G36*
X156911418Y-62932791D02*
G01*
X156433064Y-61777942D01*
X157818884Y-61203917D01*
X158297238Y-62358766D01*
X156911418Y-62932791D01*
X156911418Y-62932791D01*
G37*
D37*
X147579117Y-61081883D03*
D12*
G36*
X147490729Y-62054155D02*
G01*
X146606845Y-61170271D01*
X147667505Y-60109611D01*
X148551389Y-60993495D01*
X147490729Y-62054155D01*
X147490729Y-62054155D01*
G37*
D37*
X149346883Y-59314117D03*
D12*
G36*
X149258495Y-60286389D02*
G01*
X148374611Y-59402505D01*
X149435271Y-58341845D01*
X150319155Y-59225729D01*
X149258495Y-60286389D01*
X149258495Y-60286389D01*
G37*
D39*
X106500000Y-66500000D03*
D31*
X108227200Y-66500000D03*
D32*
X100607200Y-66500000D03*
D39*
X102309000Y-66500000D03*
D40*
X111760000Y-72691000D03*
D31*
X111760000Y-74418200D03*
D32*
X111760000Y-66798200D03*
D40*
X111760000Y-68500000D03*
D31*
X117611800Y-108120000D03*
D32*
X125231800Y-108120000D03*
D12*
G36*
X122678710Y-141879644D02*
G01*
X122789015Y-141939337D01*
X122873960Y-142031613D01*
X122924342Y-142146470D01*
X122936000Y-142240000D01*
X122936000Y-146050000D01*
X122915356Y-146173710D01*
X122855663Y-146284015D01*
X122763387Y-146368960D01*
X122648530Y-146419342D01*
X122555000Y-146431000D01*
X121793000Y-146431000D01*
X121669290Y-146410356D01*
X121558985Y-146350663D01*
X121474040Y-146258387D01*
X121423658Y-146143530D01*
X121412000Y-146050000D01*
X121412000Y-142240000D01*
X121432644Y-142116290D01*
X121492337Y-142005985D01*
X121584613Y-141921040D01*
X121699470Y-141870658D01*
X121793000Y-141859000D01*
X122555000Y-141859000D01*
X122678710Y-141879644D01*
X122678710Y-141879644D01*
G37*
D41*
X122174000Y-144145000D03*
D12*
G36*
X125218710Y-141879644D02*
G01*
X125329015Y-141939337D01*
X125413960Y-142031613D01*
X125464342Y-142146470D01*
X125476000Y-142240000D01*
X125476000Y-146050000D01*
X125455356Y-146173710D01*
X125395663Y-146284015D01*
X125303387Y-146368960D01*
X125188530Y-146419342D01*
X125095000Y-146431000D01*
X124333000Y-146431000D01*
X124209290Y-146410356D01*
X124098985Y-146350663D01*
X124014040Y-146258387D01*
X123963658Y-146143530D01*
X123952000Y-146050000D01*
X123952000Y-142240000D01*
X123972644Y-142116290D01*
X124032337Y-142005985D01*
X124124613Y-141921040D01*
X124239470Y-141870658D01*
X124333000Y-141859000D01*
X125095000Y-141859000D01*
X125218710Y-141879644D01*
X125218710Y-141879644D01*
G37*
D41*
X124714000Y-144145000D03*
D12*
G36*
X127758710Y-141879644D02*
G01*
X127869015Y-141939337D01*
X127953960Y-142031613D01*
X128004342Y-142146470D01*
X128016000Y-142240000D01*
X128016000Y-146050000D01*
X127995356Y-146173710D01*
X127935663Y-146284015D01*
X127843387Y-146368960D01*
X127728530Y-146419342D01*
X127635000Y-146431000D01*
X126873000Y-146431000D01*
X126749290Y-146410356D01*
X126638985Y-146350663D01*
X126554040Y-146258387D01*
X126503658Y-146143530D01*
X126492000Y-146050000D01*
X126492000Y-142240000D01*
X126512644Y-142116290D01*
X126572337Y-142005985D01*
X126664613Y-141921040D01*
X126779470Y-141870658D01*
X126873000Y-141859000D01*
X127635000Y-141859000D01*
X127758710Y-141879644D01*
X127758710Y-141879644D01*
G37*
D41*
X127254000Y-144145000D03*
D12*
G36*
X130298710Y-141879644D02*
G01*
X130409015Y-141939337D01*
X130493960Y-142031613D01*
X130544342Y-142146470D01*
X130556000Y-142240000D01*
X130556000Y-146050000D01*
X130535356Y-146173710D01*
X130475663Y-146284015D01*
X130383387Y-146368960D01*
X130268530Y-146419342D01*
X130175000Y-146431000D01*
X129413000Y-146431000D01*
X129289290Y-146410356D01*
X129178985Y-146350663D01*
X129094040Y-146258387D01*
X129043658Y-146143530D01*
X129032000Y-146050000D01*
X129032000Y-142240000D01*
X129052644Y-142116290D01*
X129112337Y-142005985D01*
X129204613Y-141921040D01*
X129319470Y-141870658D01*
X129413000Y-141859000D01*
X130175000Y-141859000D01*
X130298710Y-141879644D01*
X130298710Y-141879644D01*
G37*
D41*
X129794000Y-144145000D03*
D12*
G36*
X132838710Y-141879644D02*
G01*
X132949015Y-141939337D01*
X133033960Y-142031613D01*
X133084342Y-142146470D01*
X133096000Y-142240000D01*
X133096000Y-146050000D01*
X133075356Y-146173710D01*
X133015663Y-146284015D01*
X132923387Y-146368960D01*
X132808530Y-146419342D01*
X132715000Y-146431000D01*
X131953000Y-146431000D01*
X131829290Y-146410356D01*
X131718985Y-146350663D01*
X131634040Y-146258387D01*
X131583658Y-146143530D01*
X131572000Y-146050000D01*
X131572000Y-142240000D01*
X131592644Y-142116290D01*
X131652337Y-142005985D01*
X131744613Y-141921040D01*
X131859470Y-141870658D01*
X131953000Y-141859000D01*
X132715000Y-141859000D01*
X132838710Y-141879644D01*
X132838710Y-141879644D01*
G37*
D41*
X132334000Y-144145000D03*
D12*
G36*
X135378710Y-141879644D02*
G01*
X135489015Y-141939337D01*
X135573960Y-142031613D01*
X135624342Y-142146470D01*
X135636000Y-142240000D01*
X135636000Y-146050000D01*
X135615356Y-146173710D01*
X135555663Y-146284015D01*
X135463387Y-146368960D01*
X135348530Y-146419342D01*
X135255000Y-146431000D01*
X134493000Y-146431000D01*
X134369290Y-146410356D01*
X134258985Y-146350663D01*
X134174040Y-146258387D01*
X134123658Y-146143530D01*
X134112000Y-146050000D01*
X134112000Y-142240000D01*
X134132644Y-142116290D01*
X134192337Y-142005985D01*
X134284613Y-141921040D01*
X134399470Y-141870658D01*
X134493000Y-141859000D01*
X135255000Y-141859000D01*
X135378710Y-141879644D01*
X135378710Y-141879644D01*
G37*
D41*
X134874000Y-144145000D03*
D12*
G36*
X137918710Y-141879644D02*
G01*
X138029015Y-141939337D01*
X138113960Y-142031613D01*
X138164342Y-142146470D01*
X138176000Y-142240000D01*
X138176000Y-146050000D01*
X138155356Y-146173710D01*
X138095663Y-146284015D01*
X138003387Y-146368960D01*
X137888530Y-146419342D01*
X137795000Y-146431000D01*
X137033000Y-146431000D01*
X136909290Y-146410356D01*
X136798985Y-146350663D01*
X136714040Y-146258387D01*
X136663658Y-146143530D01*
X136652000Y-146050000D01*
X136652000Y-142240000D01*
X136672644Y-142116290D01*
X136732337Y-142005985D01*
X136824613Y-141921040D01*
X136939470Y-141870658D01*
X137033000Y-141859000D01*
X137795000Y-141859000D01*
X137918710Y-141879644D01*
X137918710Y-141879644D01*
G37*
D41*
X137414000Y-144145000D03*
D12*
G36*
X140458710Y-141879644D02*
G01*
X140569015Y-141939337D01*
X140653960Y-142031613D01*
X140704342Y-142146470D01*
X140716000Y-142240000D01*
X140716000Y-146050000D01*
X140695356Y-146173710D01*
X140635663Y-146284015D01*
X140543387Y-146368960D01*
X140428530Y-146419342D01*
X140335000Y-146431000D01*
X139573000Y-146431000D01*
X139449290Y-146410356D01*
X139338985Y-146350663D01*
X139254040Y-146258387D01*
X139203658Y-146143530D01*
X139192000Y-146050000D01*
X139192000Y-142240000D01*
X139212644Y-142116290D01*
X139272337Y-142005985D01*
X139364613Y-141921040D01*
X139479470Y-141870658D01*
X139573000Y-141859000D01*
X140335000Y-141859000D01*
X140458710Y-141879644D01*
X140458710Y-141879644D01*
G37*
D41*
X139954000Y-144145000D03*
D12*
G36*
X142998710Y-141879644D02*
G01*
X143109015Y-141939337D01*
X143193960Y-142031613D01*
X143244342Y-142146470D01*
X143256000Y-142240000D01*
X143256000Y-146050000D01*
X143235356Y-146173710D01*
X143175663Y-146284015D01*
X143083387Y-146368960D01*
X142968530Y-146419342D01*
X142875000Y-146431000D01*
X142113000Y-146431000D01*
X141989290Y-146410356D01*
X141878985Y-146350663D01*
X141794040Y-146258387D01*
X141743658Y-146143530D01*
X141732000Y-146050000D01*
X141732000Y-142240000D01*
X141752644Y-142116290D01*
X141812337Y-142005985D01*
X141904613Y-141921040D01*
X142019470Y-141870658D01*
X142113000Y-141859000D01*
X142875000Y-141859000D01*
X142998710Y-141879644D01*
X142998710Y-141879644D01*
G37*
D41*
X142494000Y-144145000D03*
D12*
G36*
X145538710Y-141879644D02*
G01*
X145649015Y-141939337D01*
X145733960Y-142031613D01*
X145784342Y-142146470D01*
X145796000Y-142240000D01*
X145796000Y-146050000D01*
X145775356Y-146173710D01*
X145715663Y-146284015D01*
X145623387Y-146368960D01*
X145508530Y-146419342D01*
X145415000Y-146431000D01*
X144653000Y-146431000D01*
X144529290Y-146410356D01*
X144418985Y-146350663D01*
X144334040Y-146258387D01*
X144283658Y-146143530D01*
X144272000Y-146050000D01*
X144272000Y-142240000D01*
X144292644Y-142116290D01*
X144352337Y-142005985D01*
X144444613Y-141921040D01*
X144559470Y-141870658D01*
X144653000Y-141859000D01*
X145415000Y-141859000D01*
X145538710Y-141879644D01*
X145538710Y-141879644D01*
G37*
D41*
X145034000Y-144145000D03*
D12*
G36*
X148078710Y-141879644D02*
G01*
X148189015Y-141939337D01*
X148273960Y-142031613D01*
X148324342Y-142146470D01*
X148336000Y-142240000D01*
X148336000Y-146050000D01*
X148315356Y-146173710D01*
X148255663Y-146284015D01*
X148163387Y-146368960D01*
X148048530Y-146419342D01*
X147955000Y-146431000D01*
X147193000Y-146431000D01*
X147069290Y-146410356D01*
X146958985Y-146350663D01*
X146874040Y-146258387D01*
X146823658Y-146143530D01*
X146812000Y-146050000D01*
X146812000Y-142240000D01*
X146832644Y-142116290D01*
X146892337Y-142005985D01*
X146984613Y-141921040D01*
X147099470Y-141870658D01*
X147193000Y-141859000D01*
X147955000Y-141859000D01*
X148078710Y-141879644D01*
X148078710Y-141879644D01*
G37*
D41*
X147574000Y-144145000D03*
D12*
G36*
X150618710Y-141879644D02*
G01*
X150729015Y-141939337D01*
X150813960Y-142031613D01*
X150864342Y-142146470D01*
X150876000Y-142240000D01*
X150876000Y-146050000D01*
X150855356Y-146173710D01*
X150795663Y-146284015D01*
X150703387Y-146368960D01*
X150588530Y-146419342D01*
X150495000Y-146431000D01*
X149733000Y-146431000D01*
X149609290Y-146410356D01*
X149498985Y-146350663D01*
X149414040Y-146258387D01*
X149363658Y-146143530D01*
X149352000Y-146050000D01*
X149352000Y-142240000D01*
X149372644Y-142116290D01*
X149432337Y-142005985D01*
X149524613Y-141921040D01*
X149639470Y-141870658D01*
X149733000Y-141859000D01*
X150495000Y-141859000D01*
X150618710Y-141879644D01*
X150618710Y-141879644D01*
G37*
D41*
X150114000Y-144145000D03*
D12*
G36*
X153158710Y-141879644D02*
G01*
X153269015Y-141939337D01*
X153353960Y-142031613D01*
X153404342Y-142146470D01*
X153416000Y-142240000D01*
X153416000Y-146050000D01*
X153395356Y-146173710D01*
X153335663Y-146284015D01*
X153243387Y-146368960D01*
X153128530Y-146419342D01*
X153035000Y-146431000D01*
X152273000Y-146431000D01*
X152149290Y-146410356D01*
X152038985Y-146350663D01*
X151954040Y-146258387D01*
X151903658Y-146143530D01*
X151892000Y-146050000D01*
X151892000Y-142240000D01*
X151912644Y-142116290D01*
X151972337Y-142005985D01*
X152064613Y-141921040D01*
X152179470Y-141870658D01*
X152273000Y-141859000D01*
X153035000Y-141859000D01*
X153158710Y-141879644D01*
X153158710Y-141879644D01*
G37*
D41*
X152654000Y-144145000D03*
D12*
G36*
X155698710Y-141879644D02*
G01*
X155809015Y-141939337D01*
X155893960Y-142031613D01*
X155944342Y-142146470D01*
X155956000Y-142240000D01*
X155956000Y-146050000D01*
X155935356Y-146173710D01*
X155875663Y-146284015D01*
X155783387Y-146368960D01*
X155668530Y-146419342D01*
X155575000Y-146431000D01*
X154813000Y-146431000D01*
X154689290Y-146410356D01*
X154578985Y-146350663D01*
X154494040Y-146258387D01*
X154443658Y-146143530D01*
X154432000Y-146050000D01*
X154432000Y-142240000D01*
X154452644Y-142116290D01*
X154512337Y-142005985D01*
X154604613Y-141921040D01*
X154719470Y-141870658D01*
X154813000Y-141859000D01*
X155575000Y-141859000D01*
X155698710Y-141879644D01*
X155698710Y-141879644D01*
G37*
D41*
X155194000Y-144145000D03*
D12*
G36*
X158238710Y-141879644D02*
G01*
X158349015Y-141939337D01*
X158433960Y-142031613D01*
X158484342Y-142146470D01*
X158496000Y-142240000D01*
X158496000Y-146050000D01*
X158475356Y-146173710D01*
X158415663Y-146284015D01*
X158323387Y-146368960D01*
X158208530Y-146419342D01*
X158115000Y-146431000D01*
X157353000Y-146431000D01*
X157229290Y-146410356D01*
X157118985Y-146350663D01*
X157034040Y-146258387D01*
X156983658Y-146143530D01*
X156972000Y-146050000D01*
X156972000Y-142240000D01*
X156992644Y-142116290D01*
X157052337Y-142005985D01*
X157144613Y-141921040D01*
X157259470Y-141870658D01*
X157353000Y-141859000D01*
X158115000Y-141859000D01*
X158238710Y-141879644D01*
X158238710Y-141879644D01*
G37*
D41*
X157734000Y-144145000D03*
D12*
G36*
X160778710Y-141879644D02*
G01*
X160889015Y-141939337D01*
X160973960Y-142031613D01*
X161024342Y-142146470D01*
X161036000Y-142240000D01*
X161036000Y-146050000D01*
X161015356Y-146173710D01*
X160955663Y-146284015D01*
X160863387Y-146368960D01*
X160748530Y-146419342D01*
X160655000Y-146431000D01*
X159893000Y-146431000D01*
X159769290Y-146410356D01*
X159658985Y-146350663D01*
X159574040Y-146258387D01*
X159523658Y-146143530D01*
X159512000Y-146050000D01*
X159512000Y-142240000D01*
X159532644Y-142116290D01*
X159592337Y-142005985D01*
X159684613Y-141921040D01*
X159799470Y-141870658D01*
X159893000Y-141859000D01*
X160655000Y-141859000D01*
X160778710Y-141879644D01*
X160778710Y-141879644D01*
G37*
D41*
X160274000Y-144145000D03*
D12*
G36*
X163318710Y-141879644D02*
G01*
X163429015Y-141939337D01*
X163513960Y-142031613D01*
X163564342Y-142146470D01*
X163576000Y-142240000D01*
X163576000Y-146050000D01*
X163555356Y-146173710D01*
X163495663Y-146284015D01*
X163403387Y-146368960D01*
X163288530Y-146419342D01*
X163195000Y-146431000D01*
X162433000Y-146431000D01*
X162309290Y-146410356D01*
X162198985Y-146350663D01*
X162114040Y-146258387D01*
X162063658Y-146143530D01*
X162052000Y-146050000D01*
X162052000Y-142240000D01*
X162072644Y-142116290D01*
X162132337Y-142005985D01*
X162224613Y-141921040D01*
X162339470Y-141870658D01*
X162433000Y-141859000D01*
X163195000Y-141859000D01*
X163318710Y-141879644D01*
X163318710Y-141879644D01*
G37*
D41*
X162814000Y-144145000D03*
D12*
G36*
X165858710Y-141879644D02*
G01*
X165969015Y-141939337D01*
X166053960Y-142031613D01*
X166104342Y-142146470D01*
X166116000Y-142240000D01*
X166116000Y-146050000D01*
X166095356Y-146173710D01*
X166035663Y-146284015D01*
X165943387Y-146368960D01*
X165828530Y-146419342D01*
X165735000Y-146431000D01*
X164973000Y-146431000D01*
X164849290Y-146410356D01*
X164738985Y-146350663D01*
X164654040Y-146258387D01*
X164603658Y-146143530D01*
X164592000Y-146050000D01*
X164592000Y-142240000D01*
X164612644Y-142116290D01*
X164672337Y-142005985D01*
X164764613Y-141921040D01*
X164879470Y-141870658D01*
X164973000Y-141859000D01*
X165735000Y-141859000D01*
X165858710Y-141879644D01*
X165858710Y-141879644D01*
G37*
D41*
X165354000Y-144145000D03*
D12*
G36*
X168398710Y-141879644D02*
G01*
X168509015Y-141939337D01*
X168593960Y-142031613D01*
X168644342Y-142146470D01*
X168656000Y-142240000D01*
X168656000Y-146050000D01*
X168635356Y-146173710D01*
X168575663Y-146284015D01*
X168483387Y-146368960D01*
X168368530Y-146419342D01*
X168275000Y-146431000D01*
X167513000Y-146431000D01*
X167389290Y-146410356D01*
X167278985Y-146350663D01*
X167194040Y-146258387D01*
X167143658Y-146143530D01*
X167132000Y-146050000D01*
X167132000Y-142240000D01*
X167152644Y-142116290D01*
X167212337Y-142005985D01*
X167304613Y-141921040D01*
X167419470Y-141870658D01*
X167513000Y-141859000D01*
X168275000Y-141859000D01*
X168398710Y-141879644D01*
X168398710Y-141879644D01*
G37*
D41*
X167894000Y-144145000D03*
D12*
G36*
X170938710Y-141879644D02*
G01*
X171049015Y-141939337D01*
X171133960Y-142031613D01*
X171184342Y-142146470D01*
X171196000Y-142240000D01*
X171196000Y-146050000D01*
X171175356Y-146173710D01*
X171115663Y-146284015D01*
X171023387Y-146368960D01*
X170908530Y-146419342D01*
X170815000Y-146431000D01*
X170053000Y-146431000D01*
X169929290Y-146410356D01*
X169818985Y-146350663D01*
X169734040Y-146258387D01*
X169683658Y-146143530D01*
X169672000Y-146050000D01*
X169672000Y-142240000D01*
X169692644Y-142116290D01*
X169752337Y-142005985D01*
X169844613Y-141921040D01*
X169959470Y-141870658D01*
X170053000Y-141859000D01*
X170815000Y-141859000D01*
X170938710Y-141879644D01*
X170938710Y-141879644D01*
G37*
D41*
X170434000Y-144145000D03*
D12*
G36*
X170938710Y-123591644D02*
G01*
X171049015Y-123651337D01*
X171133960Y-123743613D01*
X171184342Y-123858470D01*
X171196000Y-123952000D01*
X171196000Y-127762000D01*
X171175356Y-127885710D01*
X171115663Y-127996015D01*
X171023387Y-128080960D01*
X170908530Y-128131342D01*
X170815000Y-128143000D01*
X170053000Y-128143000D01*
X169929290Y-128122356D01*
X169818985Y-128062663D01*
X169734040Y-127970387D01*
X169683658Y-127855530D01*
X169672000Y-127762000D01*
X169672000Y-123952000D01*
X169692644Y-123828290D01*
X169752337Y-123717985D01*
X169844613Y-123633040D01*
X169959470Y-123582658D01*
X170053000Y-123571000D01*
X170815000Y-123571000D01*
X170938710Y-123591644D01*
X170938710Y-123591644D01*
G37*
D41*
X170434000Y-125857000D03*
D12*
G36*
X168398710Y-123591644D02*
G01*
X168509015Y-123651337D01*
X168593960Y-123743613D01*
X168644342Y-123858470D01*
X168656000Y-123952000D01*
X168656000Y-127762000D01*
X168635356Y-127885710D01*
X168575663Y-127996015D01*
X168483387Y-128080960D01*
X168368530Y-128131342D01*
X168275000Y-128143000D01*
X167513000Y-128143000D01*
X167389290Y-128122356D01*
X167278985Y-128062663D01*
X167194040Y-127970387D01*
X167143658Y-127855530D01*
X167132000Y-127762000D01*
X167132000Y-123952000D01*
X167152644Y-123828290D01*
X167212337Y-123717985D01*
X167304613Y-123633040D01*
X167419470Y-123582658D01*
X167513000Y-123571000D01*
X168275000Y-123571000D01*
X168398710Y-123591644D01*
X168398710Y-123591644D01*
G37*
D41*
X167894000Y-125857000D03*
D12*
G36*
X165858710Y-123591644D02*
G01*
X165969015Y-123651337D01*
X166053960Y-123743613D01*
X166104342Y-123858470D01*
X166116000Y-123952000D01*
X166116000Y-127762000D01*
X166095356Y-127885710D01*
X166035663Y-127996015D01*
X165943387Y-128080960D01*
X165828530Y-128131342D01*
X165735000Y-128143000D01*
X164973000Y-128143000D01*
X164849290Y-128122356D01*
X164738985Y-128062663D01*
X164654040Y-127970387D01*
X164603658Y-127855530D01*
X164592000Y-127762000D01*
X164592000Y-123952000D01*
X164612644Y-123828290D01*
X164672337Y-123717985D01*
X164764613Y-123633040D01*
X164879470Y-123582658D01*
X164973000Y-123571000D01*
X165735000Y-123571000D01*
X165858710Y-123591644D01*
X165858710Y-123591644D01*
G37*
D41*
X165354000Y-125857000D03*
D12*
G36*
X163318710Y-123591644D02*
G01*
X163429015Y-123651337D01*
X163513960Y-123743613D01*
X163564342Y-123858470D01*
X163576000Y-123952000D01*
X163576000Y-127762000D01*
X163555356Y-127885710D01*
X163495663Y-127996015D01*
X163403387Y-128080960D01*
X163288530Y-128131342D01*
X163195000Y-128143000D01*
X162433000Y-128143000D01*
X162309290Y-128122356D01*
X162198985Y-128062663D01*
X162114040Y-127970387D01*
X162063658Y-127855530D01*
X162052000Y-127762000D01*
X162052000Y-123952000D01*
X162072644Y-123828290D01*
X162132337Y-123717985D01*
X162224613Y-123633040D01*
X162339470Y-123582658D01*
X162433000Y-123571000D01*
X163195000Y-123571000D01*
X163318710Y-123591644D01*
X163318710Y-123591644D01*
G37*
D41*
X162814000Y-125857000D03*
D12*
G36*
X160778710Y-123591644D02*
G01*
X160889015Y-123651337D01*
X160973960Y-123743613D01*
X161024342Y-123858470D01*
X161036000Y-123952000D01*
X161036000Y-127762000D01*
X161015356Y-127885710D01*
X160955663Y-127996015D01*
X160863387Y-128080960D01*
X160748530Y-128131342D01*
X160655000Y-128143000D01*
X159893000Y-128143000D01*
X159769290Y-128122356D01*
X159658985Y-128062663D01*
X159574040Y-127970387D01*
X159523658Y-127855530D01*
X159512000Y-127762000D01*
X159512000Y-123952000D01*
X159532644Y-123828290D01*
X159592337Y-123717985D01*
X159684613Y-123633040D01*
X159799470Y-123582658D01*
X159893000Y-123571000D01*
X160655000Y-123571000D01*
X160778710Y-123591644D01*
X160778710Y-123591644D01*
G37*
D41*
X160274000Y-125857000D03*
D12*
G36*
X158238710Y-123591644D02*
G01*
X158349015Y-123651337D01*
X158433960Y-123743613D01*
X158484342Y-123858470D01*
X158496000Y-123952000D01*
X158496000Y-127762000D01*
X158475356Y-127885710D01*
X158415663Y-127996015D01*
X158323387Y-128080960D01*
X158208530Y-128131342D01*
X158115000Y-128143000D01*
X157353000Y-128143000D01*
X157229290Y-128122356D01*
X157118985Y-128062663D01*
X157034040Y-127970387D01*
X156983658Y-127855530D01*
X156972000Y-127762000D01*
X156972000Y-123952000D01*
X156992644Y-123828290D01*
X157052337Y-123717985D01*
X157144613Y-123633040D01*
X157259470Y-123582658D01*
X157353000Y-123571000D01*
X158115000Y-123571000D01*
X158238710Y-123591644D01*
X158238710Y-123591644D01*
G37*
D41*
X157734000Y-125857000D03*
D12*
G36*
X155698710Y-123591644D02*
G01*
X155809015Y-123651337D01*
X155893960Y-123743613D01*
X155944342Y-123858470D01*
X155956000Y-123952000D01*
X155956000Y-127762000D01*
X155935356Y-127885710D01*
X155875663Y-127996015D01*
X155783387Y-128080960D01*
X155668530Y-128131342D01*
X155575000Y-128143000D01*
X154813000Y-128143000D01*
X154689290Y-128122356D01*
X154578985Y-128062663D01*
X154494040Y-127970387D01*
X154443658Y-127855530D01*
X154432000Y-127762000D01*
X154432000Y-123952000D01*
X154452644Y-123828290D01*
X154512337Y-123717985D01*
X154604613Y-123633040D01*
X154719470Y-123582658D01*
X154813000Y-123571000D01*
X155575000Y-123571000D01*
X155698710Y-123591644D01*
X155698710Y-123591644D01*
G37*
D41*
X155194000Y-125857000D03*
D12*
G36*
X153158710Y-123591644D02*
G01*
X153269015Y-123651337D01*
X153353960Y-123743613D01*
X153404342Y-123858470D01*
X153416000Y-123952000D01*
X153416000Y-127762000D01*
X153395356Y-127885710D01*
X153335663Y-127996015D01*
X153243387Y-128080960D01*
X153128530Y-128131342D01*
X153035000Y-128143000D01*
X152273000Y-128143000D01*
X152149290Y-128122356D01*
X152038985Y-128062663D01*
X151954040Y-127970387D01*
X151903658Y-127855530D01*
X151892000Y-127762000D01*
X151892000Y-123952000D01*
X151912644Y-123828290D01*
X151972337Y-123717985D01*
X152064613Y-123633040D01*
X152179470Y-123582658D01*
X152273000Y-123571000D01*
X153035000Y-123571000D01*
X153158710Y-123591644D01*
X153158710Y-123591644D01*
G37*
D41*
X152654000Y-125857000D03*
D12*
G36*
X150618710Y-123591644D02*
G01*
X150729015Y-123651337D01*
X150813960Y-123743613D01*
X150864342Y-123858470D01*
X150876000Y-123952000D01*
X150876000Y-127762000D01*
X150855356Y-127885710D01*
X150795663Y-127996015D01*
X150703387Y-128080960D01*
X150588530Y-128131342D01*
X150495000Y-128143000D01*
X149733000Y-128143000D01*
X149609290Y-128122356D01*
X149498985Y-128062663D01*
X149414040Y-127970387D01*
X149363658Y-127855530D01*
X149352000Y-127762000D01*
X149352000Y-123952000D01*
X149372644Y-123828290D01*
X149432337Y-123717985D01*
X149524613Y-123633040D01*
X149639470Y-123582658D01*
X149733000Y-123571000D01*
X150495000Y-123571000D01*
X150618710Y-123591644D01*
X150618710Y-123591644D01*
G37*
D41*
X150114000Y-125857000D03*
D12*
G36*
X148078710Y-123591644D02*
G01*
X148189015Y-123651337D01*
X148273960Y-123743613D01*
X148324342Y-123858470D01*
X148336000Y-123952000D01*
X148336000Y-127762000D01*
X148315356Y-127885710D01*
X148255663Y-127996015D01*
X148163387Y-128080960D01*
X148048530Y-128131342D01*
X147955000Y-128143000D01*
X147193000Y-128143000D01*
X147069290Y-128122356D01*
X146958985Y-128062663D01*
X146874040Y-127970387D01*
X146823658Y-127855530D01*
X146812000Y-127762000D01*
X146812000Y-123952000D01*
X146832644Y-123828290D01*
X146892337Y-123717985D01*
X146984613Y-123633040D01*
X147099470Y-123582658D01*
X147193000Y-123571000D01*
X147955000Y-123571000D01*
X148078710Y-123591644D01*
X148078710Y-123591644D01*
G37*
D41*
X147574000Y-125857000D03*
D12*
G36*
X145538710Y-123591644D02*
G01*
X145649015Y-123651337D01*
X145733960Y-123743613D01*
X145784342Y-123858470D01*
X145796000Y-123952000D01*
X145796000Y-127762000D01*
X145775356Y-127885710D01*
X145715663Y-127996015D01*
X145623387Y-128080960D01*
X145508530Y-128131342D01*
X145415000Y-128143000D01*
X144653000Y-128143000D01*
X144529290Y-128122356D01*
X144418985Y-128062663D01*
X144334040Y-127970387D01*
X144283658Y-127855530D01*
X144272000Y-127762000D01*
X144272000Y-123952000D01*
X144292644Y-123828290D01*
X144352337Y-123717985D01*
X144444613Y-123633040D01*
X144559470Y-123582658D01*
X144653000Y-123571000D01*
X145415000Y-123571000D01*
X145538710Y-123591644D01*
X145538710Y-123591644D01*
G37*
D41*
X145034000Y-125857000D03*
D12*
G36*
X142998710Y-123591644D02*
G01*
X143109015Y-123651337D01*
X143193960Y-123743613D01*
X143244342Y-123858470D01*
X143256000Y-123952000D01*
X143256000Y-127762000D01*
X143235356Y-127885710D01*
X143175663Y-127996015D01*
X143083387Y-128080960D01*
X142968530Y-128131342D01*
X142875000Y-128143000D01*
X142113000Y-128143000D01*
X141989290Y-128122356D01*
X141878985Y-128062663D01*
X141794040Y-127970387D01*
X141743658Y-127855530D01*
X141732000Y-127762000D01*
X141732000Y-123952000D01*
X141752644Y-123828290D01*
X141812337Y-123717985D01*
X141904613Y-123633040D01*
X142019470Y-123582658D01*
X142113000Y-123571000D01*
X142875000Y-123571000D01*
X142998710Y-123591644D01*
X142998710Y-123591644D01*
G37*
D41*
X142494000Y-125857000D03*
D12*
G36*
X140458710Y-123591644D02*
G01*
X140569015Y-123651337D01*
X140653960Y-123743613D01*
X140704342Y-123858470D01*
X140716000Y-123952000D01*
X140716000Y-127762000D01*
X140695356Y-127885710D01*
X140635663Y-127996015D01*
X140543387Y-128080960D01*
X140428530Y-128131342D01*
X140335000Y-128143000D01*
X139573000Y-128143000D01*
X139449290Y-128122356D01*
X139338985Y-128062663D01*
X139254040Y-127970387D01*
X139203658Y-127855530D01*
X139192000Y-127762000D01*
X139192000Y-123952000D01*
X139212644Y-123828290D01*
X139272337Y-123717985D01*
X139364613Y-123633040D01*
X139479470Y-123582658D01*
X139573000Y-123571000D01*
X140335000Y-123571000D01*
X140458710Y-123591644D01*
X140458710Y-123591644D01*
G37*
D41*
X139954000Y-125857000D03*
D12*
G36*
X137918710Y-123591644D02*
G01*
X138029015Y-123651337D01*
X138113960Y-123743613D01*
X138164342Y-123858470D01*
X138176000Y-123952000D01*
X138176000Y-127762000D01*
X138155356Y-127885710D01*
X138095663Y-127996015D01*
X138003387Y-128080960D01*
X137888530Y-128131342D01*
X137795000Y-128143000D01*
X137033000Y-128143000D01*
X136909290Y-128122356D01*
X136798985Y-128062663D01*
X136714040Y-127970387D01*
X136663658Y-127855530D01*
X136652000Y-127762000D01*
X136652000Y-123952000D01*
X136672644Y-123828290D01*
X136732337Y-123717985D01*
X136824613Y-123633040D01*
X136939470Y-123582658D01*
X137033000Y-123571000D01*
X137795000Y-123571000D01*
X137918710Y-123591644D01*
X137918710Y-123591644D01*
G37*
D41*
X137414000Y-125857000D03*
D12*
G36*
X135378710Y-123591644D02*
G01*
X135489015Y-123651337D01*
X135573960Y-123743613D01*
X135624342Y-123858470D01*
X135636000Y-123952000D01*
X135636000Y-127762000D01*
X135615356Y-127885710D01*
X135555663Y-127996015D01*
X135463387Y-128080960D01*
X135348530Y-128131342D01*
X135255000Y-128143000D01*
X134493000Y-128143000D01*
X134369290Y-128122356D01*
X134258985Y-128062663D01*
X134174040Y-127970387D01*
X134123658Y-127855530D01*
X134112000Y-127762000D01*
X134112000Y-123952000D01*
X134132644Y-123828290D01*
X134192337Y-123717985D01*
X134284613Y-123633040D01*
X134399470Y-123582658D01*
X134493000Y-123571000D01*
X135255000Y-123571000D01*
X135378710Y-123591644D01*
X135378710Y-123591644D01*
G37*
D41*
X134874000Y-125857000D03*
D12*
G36*
X132838710Y-123591644D02*
G01*
X132949015Y-123651337D01*
X133033960Y-123743613D01*
X133084342Y-123858470D01*
X133096000Y-123952000D01*
X133096000Y-127762000D01*
X133075356Y-127885710D01*
X133015663Y-127996015D01*
X132923387Y-128080960D01*
X132808530Y-128131342D01*
X132715000Y-128143000D01*
X131953000Y-128143000D01*
X131829290Y-128122356D01*
X131718985Y-128062663D01*
X131634040Y-127970387D01*
X131583658Y-127855530D01*
X131572000Y-127762000D01*
X131572000Y-123952000D01*
X131592644Y-123828290D01*
X131652337Y-123717985D01*
X131744613Y-123633040D01*
X131859470Y-123582658D01*
X131953000Y-123571000D01*
X132715000Y-123571000D01*
X132838710Y-123591644D01*
X132838710Y-123591644D01*
G37*
D41*
X132334000Y-125857000D03*
D12*
G36*
X130298710Y-123591644D02*
G01*
X130409015Y-123651337D01*
X130493960Y-123743613D01*
X130544342Y-123858470D01*
X130556000Y-123952000D01*
X130556000Y-127762000D01*
X130535356Y-127885710D01*
X130475663Y-127996015D01*
X130383387Y-128080960D01*
X130268530Y-128131342D01*
X130175000Y-128143000D01*
X129413000Y-128143000D01*
X129289290Y-128122356D01*
X129178985Y-128062663D01*
X129094040Y-127970387D01*
X129043658Y-127855530D01*
X129032000Y-127762000D01*
X129032000Y-123952000D01*
X129052644Y-123828290D01*
X129112337Y-123717985D01*
X129204613Y-123633040D01*
X129319470Y-123582658D01*
X129413000Y-123571000D01*
X130175000Y-123571000D01*
X130298710Y-123591644D01*
X130298710Y-123591644D01*
G37*
D41*
X129794000Y-125857000D03*
D12*
G36*
X127758710Y-123591644D02*
G01*
X127869015Y-123651337D01*
X127953960Y-123743613D01*
X128004342Y-123858470D01*
X128016000Y-123952000D01*
X128016000Y-127762000D01*
X127995356Y-127885710D01*
X127935663Y-127996015D01*
X127843387Y-128080960D01*
X127728530Y-128131342D01*
X127635000Y-128143000D01*
X126873000Y-128143000D01*
X126749290Y-128122356D01*
X126638985Y-128062663D01*
X126554040Y-127970387D01*
X126503658Y-127855530D01*
X126492000Y-127762000D01*
X126492000Y-123952000D01*
X126512644Y-123828290D01*
X126572337Y-123717985D01*
X126664613Y-123633040D01*
X126779470Y-123582658D01*
X126873000Y-123571000D01*
X127635000Y-123571000D01*
X127758710Y-123591644D01*
X127758710Y-123591644D01*
G37*
D41*
X127254000Y-125857000D03*
D12*
G36*
X125218710Y-123591644D02*
G01*
X125329015Y-123651337D01*
X125413960Y-123743613D01*
X125464342Y-123858470D01*
X125476000Y-123952000D01*
X125476000Y-127762000D01*
X125455356Y-127885710D01*
X125395663Y-127996015D01*
X125303387Y-128080960D01*
X125188530Y-128131342D01*
X125095000Y-128143000D01*
X124333000Y-128143000D01*
X124209290Y-128122356D01*
X124098985Y-128062663D01*
X124014040Y-127970387D01*
X123963658Y-127855530D01*
X123952000Y-127762000D01*
X123952000Y-123952000D01*
X123972644Y-123828290D01*
X124032337Y-123717985D01*
X124124613Y-123633040D01*
X124239470Y-123582658D01*
X124333000Y-123571000D01*
X125095000Y-123571000D01*
X125218710Y-123591644D01*
X125218710Y-123591644D01*
G37*
D41*
X124714000Y-125857000D03*
D42*
X122174000Y-125857000D03*
D43*
X192405000Y-62865000D03*
X192405000Y-61595000D03*
X192405000Y-60325000D03*
X192405000Y-59055000D03*
X186055000Y-59055000D03*
X186055000Y-60325000D03*
X186055000Y-61595000D03*
X186055000Y-62865000D03*
D44*
X124554500Y-57657000D03*
X112554500Y-57657000D03*
D45*
X117284500Y-60357000D03*
X119824500Y-60357000D03*
X119824500Y-62357000D03*
X117284500Y-62357000D03*
D15*
X74180000Y-60750000D03*
X222310000Y-60750000D03*
X222270000Y-149400000D03*
X74230000Y-149410000D03*
D41*
X165099992Y-114300000D03*
D29*
X99185625Y-109729375D03*
X110490000Y-112714190D03*
X105410000Y-111556810D03*
D46*
X90406386Y-93018031D03*
D29*
X79629000Y-95123000D03*
X79629000Y-99187000D03*
X83312000Y-98806000D03*
X86741000Y-104013000D03*
X91694000Y-106426000D03*
X117983000Y-112141000D03*
D41*
X154940000Y-118110000D03*
D29*
X93726000Y-73025000D03*
X204470000Y-69151500D03*
D47*
X119760991Y-65916366D03*
D29*
X199771000Y-67056000D03*
D41*
X65416484Y-81092667D03*
X67310000Y-86995000D03*
X76848748Y-92088748D03*
X78950925Y-87096577D03*
X74930000Y-85724996D03*
D29*
X209448400Y-104063810D03*
D46*
X214630000Y-101600000D03*
D29*
X181926831Y-113690432D03*
X184912000Y-112369621D03*
D41*
X154178000Y-62738000D03*
X135805877Y-65381097D03*
X124816210Y-80180000D03*
X127730000Y-98360000D03*
X134050000Y-105180986D03*
X162820000Y-66780000D03*
X169033560Y-73660000D03*
X172182578Y-82440000D03*
X171910000Y-91870000D03*
X167990000Y-100340000D03*
X160900000Y-106681924D03*
X142920000Y-109370923D03*
X124770000Y-89700000D03*
X129120000Y-71830000D03*
X144780000Y-62153800D03*
D29*
X215780000Y-71300000D03*
D41*
X142530761Y-117013372D03*
X148971000Y-118110000D03*
X158891033Y-117235033D03*
D29*
X189230000Y-110490000D03*
X193548000Y-109220000D03*
X203200000Y-106045000D03*
D46*
X227139500Y-93218000D03*
D41*
X152150000Y-110072000D03*
D46*
X200430000Y-61760000D03*
D29*
X217400000Y-67110000D03*
D41*
X140600000Y-57840000D03*
X144860000Y-115130000D03*
X164795200Y-61659468D03*
X171412456Y-68050000D03*
X134050000Y-111490000D03*
X156180000Y-114360000D03*
X176591737Y-78160000D03*
X177546000Y-90678000D03*
X130619500Y-62734532D03*
X123070000Y-71550000D03*
X120280000Y-93540000D03*
X125360000Y-103830000D03*
X173970000Y-100550000D03*
X134110000Y-114290000D03*
X136613822Y-115077394D03*
X162560000Y-116840000D03*
X166435868Y-109048375D03*
D29*
X194310000Y-56515000D03*
X184150000Y-57785000D03*
D41*
X153027500Y-57157500D03*
X119380000Y-80010000D03*
X187960000Y-85725000D03*
D46*
X220916500Y-99237810D03*
D29*
X91440000Y-67564000D03*
D48*
X160274000Y-127646376D02*
X158126376Y-129794000D01*
X160274000Y-127381000D02*
X160274000Y-127646376D01*
X158126376Y-129794000D02*
X103759001Y-129794000D01*
X103759001Y-129794000D02*
X75514190Y-101549189D01*
X75514190Y-101549189D02*
X75514190Y-93423306D01*
X75514190Y-93423306D02*
X76848748Y-92088748D01*
D49*
X165354000Y-114554008D02*
X165099992Y-114300000D01*
X165354000Y-127381000D02*
X165354000Y-114554008D01*
D48*
X126797186Y-115990810D02*
X105447060Y-115990810D01*
X105447060Y-115990810D02*
X99185625Y-109729375D01*
X134874000Y-127381000D02*
X134874000Y-124067624D01*
X134874000Y-124067624D02*
X126797186Y-115990810D01*
X121482556Y-136448766D02*
X105185398Y-136448766D01*
X75557873Y-88925387D02*
X86313742Y-88925387D01*
X72339189Y-103602557D02*
X72339189Y-92144071D01*
X105185398Y-136448766D02*
X72339189Y-103602557D01*
X72339189Y-92144071D02*
X75557873Y-88925387D01*
X86313742Y-88925387D02*
X90406386Y-93018031D01*
X128016376Y-114670000D02*
X108523190Y-114670000D01*
X121609601Y-136575811D02*
X121482556Y-136448766D01*
X137414000Y-127381000D02*
X137414000Y-124067624D01*
X108523190Y-114670000D02*
X105410000Y-111556810D01*
X137414000Y-124067624D02*
X128016376Y-114670000D01*
X137591811Y-136575811D02*
X121609601Y-136575811D01*
X139954000Y-138938000D02*
X137591811Y-136575811D01*
X139954000Y-142621000D02*
X139954000Y-138938000D01*
X181610000Y-108585000D02*
X178536622Y-111658378D01*
X186817000Y-108585000D02*
X181610000Y-108585000D01*
X167347186Y-139166622D02*
X155479654Y-139166622D01*
X188976000Y-106426000D02*
X186817000Y-108585000D01*
X178536622Y-134444194D02*
X174830248Y-138150568D01*
X198628000Y-106426000D02*
X188976000Y-106426000D01*
X214630000Y-101600000D02*
X203454000Y-101600000D01*
X203454000Y-101600000D02*
X198628000Y-106426000D01*
X178536622Y-111658378D02*
X178536622Y-134444194D01*
X168363240Y-138150568D02*
X167347186Y-139166622D01*
X174830248Y-138150568D02*
X168363240Y-138150568D01*
X155479654Y-139166622D02*
X152654000Y-141992276D01*
X152654000Y-141992276D02*
X152654000Y-142748000D01*
X175414437Y-139471379D02*
X179857433Y-135028383D01*
X183921379Y-111379000D02*
X184912000Y-112369621D01*
X168910337Y-139471379D02*
X175414437Y-139471379D01*
X179857433Y-112242567D02*
X180721000Y-111379000D01*
X167894283Y-140487433D02*
X168910337Y-139471379D01*
X166812517Y-140487433D02*
X167894283Y-140487433D01*
X165354000Y-142748000D02*
X165354000Y-141945950D01*
X165354000Y-141945950D02*
X166812517Y-140487433D01*
X179857433Y-135028383D02*
X179857433Y-112242567D01*
X180721000Y-111379000D02*
X183921379Y-111379000D01*
D50*
X167894000Y-114300000D02*
X181483000Y-100711000D01*
X167894000Y-115824000D02*
X167894000Y-114300000D01*
X181483000Y-73279000D02*
X183388000Y-71294000D01*
D48*
X118757354Y-123698000D02*
X122174000Y-127114646D01*
X99530908Y-123698000D02*
X118757354Y-123698000D01*
X76835000Y-101002092D02*
X99530908Y-123698000D01*
X76835000Y-97917000D02*
X76835000Y-101002092D01*
X122174000Y-127114646D02*
X122174000Y-127381000D01*
X79629000Y-95123000D02*
X76835000Y-97917000D01*
X123619475Y-122377189D02*
X124714000Y-123471714D01*
X124714000Y-123471714D02*
X124714000Y-127381000D01*
X100078005Y-122377189D02*
X123619475Y-122377189D01*
X79629000Y-101928184D02*
X100078005Y-122377189D01*
X79629000Y-99187000D02*
X79629000Y-101928184D01*
X83312000Y-103743276D02*
X100625102Y-121056378D01*
X83312000Y-98806000D02*
X83312000Y-103743276D01*
X100625102Y-121056378D02*
X124586378Y-121056378D01*
X124586378Y-121056378D02*
X127254000Y-123724000D01*
X127254000Y-123724000D02*
X127254000Y-127381000D01*
X101172199Y-119735567D02*
X125595567Y-119735567D01*
X86741000Y-105304368D02*
X101172199Y-119735567D01*
X86741000Y-104013000D02*
X86741000Y-105304368D01*
X125595567Y-119735567D02*
X129794000Y-123934000D01*
X129794000Y-123934000D02*
X129794000Y-127381000D01*
X132334000Y-124054000D02*
X132334000Y-127381000D01*
X126440811Y-118160811D02*
X132334000Y-124054000D01*
X102920811Y-118160811D02*
X126440811Y-118160811D01*
X91694000Y-106934000D02*
X102920811Y-118160811D01*
X91694000Y-106426000D02*
X91694000Y-106934000D01*
X132334000Y-142171880D02*
X132334000Y-142621000D01*
X120095310Y-140665244D02*
X130827364Y-140665244D01*
X68376756Y-105243848D02*
X103544107Y-140411199D01*
X68376756Y-90502780D02*
X68376756Y-105243848D01*
X119841265Y-140411199D02*
X120095310Y-140665244D01*
X73101199Y-85778337D02*
X68376756Y-90502780D01*
X73101199Y-84212175D02*
X73101199Y-85778337D01*
X74052175Y-83261199D02*
X73101199Y-84212175D01*
X117286071Y-112141000D02*
X90184270Y-85039199D01*
X130827364Y-140665244D02*
X132334000Y-142171880D01*
X90184270Y-85039199D02*
X78220825Y-85039199D01*
X78220825Y-85039199D02*
X76442825Y-83261199D01*
X103544107Y-140411199D02*
X119841265Y-140411199D01*
X76442825Y-83261199D02*
X74052175Y-83261199D01*
X117983000Y-112141000D02*
X117286071Y-112141000D01*
X71145388Y-84300078D02*
X75148665Y-80296801D01*
X71145388Y-85866240D02*
X71145388Y-84300078D01*
X67055945Y-89955683D02*
X71145388Y-85866240D01*
X67055945Y-105790945D02*
X67055945Y-89955683D01*
X103886000Y-142621000D02*
X67055945Y-105790945D01*
X75148665Y-80296801D02*
X107028199Y-80296801D01*
X107028199Y-80296801D02*
X109220000Y-78105000D01*
X171957663Y-148818621D02*
X173100717Y-147675567D01*
X163830337Y-148818621D02*
X171957663Y-148818621D01*
X162687283Y-147675567D02*
X163830337Y-148818621D01*
X161264567Y-147675567D02*
X162687283Y-147675567D01*
X160274000Y-142748000D02*
X160274000Y-146685000D01*
X160274000Y-146685000D02*
X161264567Y-147675567D01*
X173100717Y-147675567D02*
X173110709Y-147675567D01*
X173110709Y-147675567D02*
X196215000Y-124571276D01*
X196215000Y-109662630D02*
X193548000Y-109220000D01*
X196215000Y-124571276D02*
X196215000Y-109662630D01*
X172504760Y-150139432D02*
X173647814Y-148996378D01*
X162140186Y-148996378D02*
X163283240Y-150139432D01*
X163283240Y-150139432D02*
X172504760Y-150139432D01*
X159664378Y-148996378D02*
X162140186Y-148996378D01*
X157734000Y-142748000D02*
X157734000Y-147066000D01*
X157734000Y-147066000D02*
X159664378Y-148996378D01*
X203200000Y-119454184D02*
X203200000Y-107122630D01*
X173647814Y-148996378D02*
X173657806Y-148996378D01*
X173657806Y-148996378D02*
X203200000Y-119454184D01*
X203200000Y-107122630D02*
X203200000Y-106045000D01*
X173051857Y-151460243D02*
X174194911Y-150317189D01*
X161593089Y-150317189D02*
X162736143Y-151460243D01*
X162736143Y-151460243D02*
X173051857Y-151460243D01*
X158064189Y-150317189D02*
X161593089Y-150317189D01*
X155194000Y-142748000D02*
X155194000Y-147447000D01*
X155194000Y-147447000D02*
X158064189Y-150317189D01*
X174194911Y-150317189D02*
X174204903Y-150317189D01*
X174204903Y-150317189D02*
X209448400Y-115073692D01*
X209448400Y-115073692D02*
X209448400Y-104063810D01*
D49*
X154940000Y-118110000D02*
X155194000Y-119126000D01*
X155194000Y-119126000D02*
X155194000Y-127508000D01*
X150114000Y-123190000D02*
X143937372Y-117013372D01*
X150114000Y-123883880D02*
X150114000Y-123190000D01*
X143937372Y-117013372D02*
X142530761Y-117013372D01*
X167894000Y-127381000D02*
X167894000Y-115824000D01*
D50*
X93726000Y-73025000D02*
X91500366Y-70799366D01*
X91500366Y-70799366D02*
X91500366Y-67249634D01*
D48*
X204470000Y-69151500D02*
X204279500Y-68961000D01*
X192278000Y-68961000D02*
X191135000Y-67818000D01*
X204279500Y-68961000D02*
X192278000Y-68961000D01*
X191135000Y-64135000D02*
X192405000Y-62865000D01*
X191135000Y-67818000D02*
X191135000Y-64135000D01*
D49*
X199876180Y-58890000D02*
X200727180Y-58039000D01*
X197620000Y-58890000D02*
X199876180Y-58890000D01*
X200727180Y-58039000D02*
X209549407Y-58039000D01*
X209549407Y-58039000D02*
X209752613Y-57835794D01*
X209752613Y-57835794D02*
X210241293Y-57651906D01*
D50*
X123008183Y-60807600D02*
X127787400Y-60807600D01*
X120650000Y-57150000D02*
X123008183Y-60807600D01*
X116840000Y-57150000D02*
X120650000Y-57150000D01*
X113665000Y-60960000D02*
X116840000Y-57150000D01*
X100371876Y-58876142D02*
X102455734Y-60960000D01*
X102455734Y-60960000D02*
X113665000Y-60960000D01*
X127787400Y-60807600D02*
X133985000Y-54610000D01*
X133985000Y-54610000D02*
X171831000Y-54610000D01*
X171831000Y-54610000D02*
X173990000Y-56769000D01*
X189357000Y-55753000D02*
X179070000Y-55245000D01*
X194310000Y-56515000D02*
X189357000Y-55753000D01*
X179070000Y-55245000D02*
X177800000Y-56515000D01*
X191442278Y-71294000D02*
X191573088Y-71424810D01*
X183388000Y-71294000D02*
X191442278Y-71294000D01*
X191573088Y-71424810D02*
X194183000Y-71424810D01*
X211105002Y-70920000D02*
X210263407Y-69578746D01*
X215780000Y-71300000D02*
X211105002Y-70920000D01*
X210263407Y-69578746D02*
X205240000Y-66540000D01*
X208250626Y-61268882D02*
X208250626Y-62890000D01*
X206876972Y-59895228D02*
X208250626Y-61268882D01*
X204950660Y-59895228D02*
X206876972Y-59895228D01*
X202882022Y-61963866D02*
X204950660Y-59895228D01*
X202618730Y-63390942D02*
X202882022Y-62305991D01*
X202882022Y-62305991D02*
X202882022Y-61963866D01*
X208250626Y-62890000D02*
X213230000Y-62890000D01*
X197620000Y-61430000D02*
X197620000Y-64905000D01*
X197620000Y-64905000D02*
X199771000Y-67056000D01*
D48*
X199771000Y-67056000D02*
X199830625Y-66996375D01*
D50*
X199830625Y-66996375D02*
X202773972Y-66996375D01*
X202773972Y-66996375D02*
X205240000Y-66540000D01*
D48*
X108525400Y-66798200D02*
X108227200Y-66500000D01*
X133223033Y-139217433D02*
X120515407Y-139217433D01*
X71018378Y-91596974D02*
X75010776Y-87604576D01*
X69697567Y-91049877D02*
X74930000Y-85817444D01*
X134874000Y-140868400D02*
X133223033Y-139217433D01*
X120388362Y-139090388D02*
X104091204Y-139090388D01*
X120515407Y-139217433D02*
X120388362Y-139090388D01*
X137414000Y-139750800D02*
X135559822Y-137896622D01*
X74930000Y-85817444D02*
X74930000Y-85724996D01*
X104638301Y-137769577D02*
X71018378Y-104149654D01*
X134874000Y-142621000D02*
X134874000Y-140868400D01*
X69697567Y-104696751D02*
X69697567Y-91049877D01*
X75010776Y-87604576D02*
X78442926Y-87604576D01*
X78442926Y-87604576D02*
X78950925Y-87096577D01*
X104091204Y-139090388D02*
X69697567Y-104696751D01*
X135559822Y-137896622D02*
X121062504Y-137896622D01*
X121062504Y-137896622D02*
X120935459Y-137769577D01*
X137414000Y-142621000D02*
X137414000Y-139750800D01*
X120935459Y-137769577D02*
X104638301Y-137769577D01*
X71018378Y-104149654D02*
X71018378Y-91596974D01*
X95564635Y-65696145D02*
X95842145Y-65696145D01*
D50*
X161975963Y-66370037D02*
X161975963Y-66531599D01*
D48*
X162820000Y-66780000D02*
X161975963Y-66370037D01*
X160900000Y-106681924D02*
X161410712Y-105986927D01*
D50*
X205240000Y-66540000D02*
X205566324Y-63186766D01*
D48*
X132334000Y-127508000D02*
X132334000Y-124968000D01*
X150114000Y-127381000D02*
X150114000Y-123883880D01*
D49*
X152654000Y-119634000D02*
X152654000Y-127508000D01*
X151003000Y-118110000D02*
X152654000Y-119634000D01*
X148971000Y-118110000D02*
X151003000Y-118110000D01*
X157734000Y-118392066D02*
X158129034Y-117997032D01*
X158129034Y-117997032D02*
X158891033Y-117235033D01*
X157734000Y-127508000D02*
X157734000Y-118392066D01*
D50*
X200430000Y-61760000D02*
X202618730Y-63390942D01*
D48*
X212440000Y-62380000D02*
X213230000Y-62890000D01*
X213230000Y-62890000D02*
X213230000Y-62940000D01*
D50*
X213230000Y-62940000D02*
X217400000Y-67110000D01*
X177546000Y-90678000D02*
X177529052Y-90678000D01*
X177529052Y-90678000D02*
X177472084Y-90734968D01*
X177472084Y-90734968D02*
X177472084Y-90734970D01*
D48*
X91500366Y-67249634D02*
X91500366Y-65333223D01*
X91440000Y-67310000D02*
X91500366Y-67249634D01*
X146989810Y-127381000D02*
X146989810Y-123299690D01*
X141952500Y-120802380D02*
X141326735Y-120802380D01*
X147574000Y-127381000D02*
X146989810Y-127381000D01*
X134110000Y-115159900D02*
X134110000Y-114290000D01*
X142917690Y-119227570D02*
X141979038Y-119227570D01*
X141979038Y-119227570D02*
X137828862Y-115077394D01*
X137591922Y-117067567D02*
X136017667Y-117067567D01*
X145034000Y-127381000D02*
X145034000Y-123883880D01*
X117284500Y-60193334D02*
X117284500Y-60357000D01*
X146989810Y-123299690D02*
X142917690Y-119227570D01*
X137828862Y-115077394D02*
X136613822Y-115077394D01*
X141326735Y-120802380D02*
X137591922Y-117067567D01*
X145034000Y-123883880D02*
X141952500Y-120802380D01*
X136017667Y-117067567D02*
X134110000Y-115159900D01*
D50*
X124714000Y-142621000D02*
X122174000Y-142621000D01*
X122174000Y-142748000D02*
X117983000Y-144272000D01*
D48*
X186055000Y-62865000D02*
X188595000Y-62865000D01*
X189915801Y-61544199D02*
X192405000Y-61544199D01*
X188595000Y-62865000D02*
X189915801Y-61544199D01*
X188696602Y-60325000D02*
X189915801Y-61544199D01*
X186055000Y-60325000D02*
X188696602Y-60325000D01*
D49*
X162560000Y-119380000D02*
X162560000Y-116840000D01*
X163068000Y-119888000D02*
X162560000Y-119380000D01*
X163068000Y-126365000D02*
X163068000Y-119888000D01*
D48*
X167894000Y-142748000D02*
X167894000Y-142355624D01*
X175961534Y-140792190D02*
X181926831Y-134826893D01*
X181926831Y-134826893D02*
X181926831Y-113690432D01*
X167894000Y-142355624D02*
X169457434Y-140792190D01*
X169457434Y-140792190D02*
X175961534Y-140792190D01*
X164377434Y-147497810D02*
X171410566Y-147497810D01*
X162814000Y-142748000D02*
X162814000Y-145934376D01*
X172563612Y-146354756D02*
X189230000Y-129688368D01*
X162814000Y-145934376D02*
X164377434Y-147497810D01*
X189230000Y-111567630D02*
X189230000Y-110490000D01*
X172553620Y-146354756D02*
X172563612Y-146354756D01*
X171410566Y-147497810D02*
X172553620Y-146354756D01*
X189230000Y-129688368D02*
X189230000Y-111567630D01*
X192405000Y-59055000D02*
X197455000Y-59055000D01*
X184835801Y-57785000D02*
X186055000Y-59004199D01*
X184150000Y-57785000D02*
X184835801Y-57785000D01*
D50*
X179705000Y-63500000D02*
X177800000Y-61515000D01*
X179705000Y-64871602D02*
X179705000Y-63500000D01*
X174625000Y-56515000D02*
X173990000Y-56769000D01*
X177800000Y-56515000D02*
X174625000Y-56515000D01*
X174244000Y-61515000D02*
X173990000Y-61769000D01*
X177800000Y-61515000D02*
X174244000Y-61515000D01*
X180198398Y-64871602D02*
X179705000Y-64871602D01*
X181864000Y-62190000D02*
X180198398Y-64871602D01*
D48*
X183261000Y-62865000D02*
X181864000Y-62190000D01*
X186055000Y-62865000D02*
X183261000Y-62865000D01*
X184734190Y-61595000D02*
X186182000Y-61595000D01*
X181864000Y-59690000D02*
X183134000Y-59690000D01*
X183134000Y-59690000D02*
X184734190Y-61595000D01*
X194310000Y-61010810D02*
X194183000Y-66294000D01*
X192405000Y-60325000D02*
X193624190Y-60325000D01*
X193624190Y-60325000D02*
X194310000Y-61010810D01*
D50*
X179705000Y-69342000D02*
X179705000Y-64871602D01*
X183388000Y-71294000D02*
X181483000Y-71247000D01*
X181483000Y-71247000D02*
X179705000Y-69342000D01*
X91440000Y-65393588D02*
X91500365Y-65333223D01*
X91440000Y-67310000D02*
X91440000Y-65393588D01*
X99129916Y-65022716D02*
X100607200Y-66500000D01*
X99129916Y-63711512D02*
X99129916Y-65022716D01*
X119380000Y-80010000D02*
X119597000Y-82191492D01*
X119597000Y-82191492D02*
X119597000Y-84379000D01*
X119597000Y-84379000D02*
X120896060Y-85135029D01*
X111760000Y-66798200D02*
X108227200Y-66500000D01*
X114935000Y-67000000D02*
X111760000Y-66798200D01*
D48*
X106045000Y-70188134D02*
X106045000Y-70485000D01*
X100607200Y-66500000D02*
X102356866Y-66500000D01*
D50*
X102356866Y-66500000D02*
X106045000Y-70188134D01*
D48*
X108227200Y-70127200D02*
X108585000Y-70485000D01*
D50*
X108227200Y-66500000D02*
X108227200Y-70127200D01*
X167397060Y-106021010D02*
X166435868Y-109048375D01*
X177240000Y-92240000D02*
X177472084Y-90734970D01*
X175300000Y-98050000D02*
X176740000Y-94020000D01*
X172690000Y-102770000D02*
X175300000Y-98050000D01*
X171380000Y-104470000D02*
X172690000Y-102770000D01*
X166435868Y-109048375D02*
X169440000Y-106640000D01*
X176740000Y-94020000D02*
X177240000Y-92240000D01*
X169440000Y-106640000D02*
X171380000Y-104470000D01*
D49*
X174036060Y-85353029D02*
X172182578Y-82440000D01*
D50*
X176083940Y-86786971D02*
X177546000Y-90678000D01*
X174210683Y-75862337D02*
X176591737Y-78160000D01*
D49*
X171729317Y-75557663D02*
X169033560Y-73660000D01*
D50*
X177570000Y-90100000D02*
X178047762Y-88640144D01*
X177472084Y-90734970D02*
X177570000Y-90100000D01*
X177770000Y-83650000D02*
X177420000Y-80670000D01*
X178047762Y-88640144D02*
X177770000Y-83650000D01*
X177420000Y-80670000D02*
X176591737Y-78160000D01*
X171050000Y-78640000D02*
X172182578Y-82440000D01*
X170330000Y-76720000D02*
X171050000Y-78640000D01*
X169033560Y-73660000D02*
X169450000Y-74840000D01*
X169450000Y-74840000D02*
X170330000Y-76720000D01*
X172182578Y-82440000D02*
X172240000Y-85790000D01*
X172120000Y-87570000D02*
X171980000Y-89550000D01*
X171980000Y-89550000D02*
X171907071Y-89950000D01*
X172240000Y-85790000D02*
X172120000Y-87570000D01*
X171907071Y-89950000D02*
X171910000Y-91870000D01*
X163830000Y-104190000D02*
X161740000Y-105790000D01*
X161740000Y-105790000D02*
X161410712Y-105986927D01*
X165090000Y-103020000D02*
X163830000Y-104190000D01*
X166430000Y-101570000D02*
X165090000Y-103020000D01*
X171910000Y-91870000D02*
X171160000Y-93090000D01*
X169830000Y-96370000D02*
X168960000Y-98120000D01*
X171160000Y-93090000D02*
X170570000Y-94780000D01*
X170570000Y-94780000D02*
X169830000Y-96370000D01*
X168960000Y-98120000D02*
X167990000Y-100340000D01*
X167990000Y-100340000D02*
X166430000Y-101570000D01*
X158072940Y-111971010D02*
X156180000Y-114360000D01*
D49*
X158507060Y-109508990D02*
X160900000Y-106681924D01*
X149443484Y-111722445D02*
X152150000Y-110072000D01*
D50*
X147836516Y-113637555D02*
X144860000Y-115130000D01*
X155250000Y-108850000D02*
X152150000Y-110072000D01*
X157410000Y-108080000D02*
X155250000Y-108850000D01*
X161410712Y-105986927D02*
X159700000Y-107010000D01*
X159700000Y-107010000D02*
X157410000Y-108080000D01*
X146230000Y-109710000D02*
X142920000Y-109370923D01*
X148600000Y-109820000D02*
X146230000Y-109710000D01*
X152150000Y-110072000D02*
X151080000Y-109690000D01*
X151080000Y-109690000D02*
X148600000Y-109820000D01*
X137308308Y-111300952D02*
X134050000Y-111490000D01*
D49*
X139291692Y-109779048D02*
X142920000Y-109370923D01*
D50*
X136590000Y-106640000D02*
X134050000Y-105180986D01*
X139070000Y-107870000D02*
X136590000Y-106640000D01*
X142920000Y-109370923D02*
X142030000Y-108950000D01*
X142030000Y-108950000D02*
X139070000Y-107870000D01*
D48*
X134050000Y-105180986D02*
X132698281Y-104167623D01*
D49*
X130771010Y-104402940D02*
X134050000Y-105180986D01*
D50*
X128308990Y-104837060D02*
X125360000Y-103830000D01*
X122543151Y-95533646D02*
X120280000Y-93540000D01*
D49*
X124852849Y-96490354D02*
X127730000Y-98360000D01*
D50*
X134050000Y-105180986D02*
X131940000Y-103150000D01*
X131940000Y-103150000D02*
X129890000Y-100910000D01*
X129890000Y-100910000D02*
X127730000Y-98360000D01*
X164280000Y-110850000D02*
X165735000Y-109855000D01*
X152990000Y-115150000D02*
X157430000Y-114040000D01*
X150940000Y-115350000D02*
X152990000Y-115150000D01*
X147770000Y-115430000D02*
X150940000Y-115350000D01*
X121370000Y-97510000D02*
X122270000Y-99370000D01*
X120280000Y-93540000D02*
X121370000Y-97510000D01*
X165735000Y-109855000D02*
X166435868Y-109048375D01*
X136000000Y-112670000D02*
X139950000Y-114190000D01*
X119410000Y-90610000D02*
X120280000Y-93540000D01*
X119240000Y-89230000D02*
X119410000Y-90610000D01*
X125560000Y-104490000D02*
X127780000Y-106930000D01*
X119130000Y-83110000D02*
X119240000Y-89230000D01*
X122270000Y-99370000D02*
X123090000Y-100770000D01*
X119380000Y-80010000D02*
X119130000Y-83110000D01*
X123090000Y-100770000D02*
X125560000Y-104490000D01*
X141410000Y-114600000D02*
X145240000Y-115280000D01*
X161070000Y-112630000D02*
X164280000Y-110850000D01*
X127780000Y-106930000D02*
X129980000Y-108900000D01*
X129980000Y-108900000D02*
X132380000Y-110650000D01*
X132380000Y-110650000D02*
X136000000Y-112670000D01*
X157430000Y-114040000D02*
X161070000Y-112630000D01*
X139950000Y-114190000D02*
X141410000Y-114600000D01*
X145240000Y-115280000D02*
X147770000Y-115430000D01*
X127150000Y-96560000D02*
X125870000Y-93470000D01*
X125870000Y-93470000D02*
X124770000Y-89700000D01*
X127730000Y-98360000D02*
X127150000Y-96560000D01*
D49*
X122943940Y-86568971D02*
X124770000Y-89700000D01*
D50*
X124800000Y-83960000D02*
X124816210Y-80180000D01*
X124810000Y-88510000D02*
X124690000Y-86140000D01*
X124770000Y-89700000D02*
X124810000Y-88510000D01*
X124690000Y-86140000D02*
X124800000Y-83960000D01*
X127770000Y-65160000D02*
X130619500Y-62734532D01*
X119380000Y-80010000D02*
X119790000Y-78970000D01*
X120490000Y-77020000D02*
X123070000Y-71550000D01*
X123070000Y-71550000D02*
X124780000Y-68680000D01*
X119790000Y-78970000D02*
X120490000Y-77020000D01*
X124780000Y-68680000D02*
X125090000Y-68170000D01*
X125090000Y-68170000D02*
X127770000Y-65160000D01*
X122946000Y-74736468D02*
X123070000Y-71550000D01*
D49*
X129667000Y-68306000D02*
X129120000Y-71830000D01*
X124196000Y-76901532D02*
X124816210Y-80180000D01*
D50*
X129667000Y-65806000D02*
X130619500Y-62734532D01*
D49*
X138049000Y-62611000D02*
X135805877Y-65381097D01*
D50*
X134290000Y-66980000D02*
X135805877Y-65381097D01*
X131850000Y-69020000D02*
X134290000Y-66980000D01*
X129980000Y-71100000D02*
X131850000Y-69020000D01*
X125440000Y-80080000D02*
X126150000Y-77850000D01*
X124816210Y-80180000D02*
X125440000Y-80080000D01*
X126150000Y-77850000D02*
X126890000Y-76040000D01*
X126890000Y-76040000D02*
X127860000Y-74180000D01*
X127860000Y-74180000D02*
X129120000Y-71830000D01*
X129120000Y-71830000D02*
X129980000Y-71100000D01*
X138430000Y-60325000D02*
X140600000Y-57840000D01*
X143540000Y-62790000D02*
X144780000Y-62153800D01*
X140130000Y-63780000D02*
X143540000Y-62790000D01*
X138170000Y-64620000D02*
X140130000Y-63780000D01*
X135805877Y-65381097D02*
X136850000Y-65320000D01*
X136850000Y-65320000D02*
X138170000Y-64620000D01*
X145050000Y-62510000D02*
X147180000Y-62310000D01*
D48*
X144780000Y-62153800D02*
X145050000Y-62510000D01*
D49*
X157365151Y-62068354D02*
X154178000Y-62738000D01*
D50*
X166710000Y-70740000D02*
X169033560Y-73660000D01*
X164620000Y-68580000D02*
X166710000Y-70740000D01*
X160970000Y-65840000D02*
X162730000Y-67050000D01*
X158860000Y-64680000D02*
X160970000Y-65840000D01*
X149240000Y-62280000D02*
X151080000Y-62410000D01*
X147300000Y-62280000D02*
X149240000Y-62280000D01*
X151080000Y-62410000D02*
X154178000Y-62738000D01*
X154178000Y-62738000D02*
X155430000Y-63330000D01*
X155430000Y-63330000D02*
X157110000Y-63900000D01*
X162730000Y-67050000D02*
X164620000Y-68580000D01*
X157110000Y-63900000D02*
X158860000Y-64680000D01*
X159674849Y-61111646D02*
X164795200Y-61659468D01*
D49*
X166119317Y-67502337D02*
X162820000Y-66780000D01*
D50*
X168600683Y-67197663D02*
X171412456Y-68050000D01*
X175432000Y-74295000D02*
X175070000Y-73390000D01*
X176591737Y-78160000D02*
X175432000Y-74295000D01*
X175070000Y-73390000D02*
X173520000Y-70690000D01*
X173520000Y-70690000D02*
X173290000Y-70290000D01*
X168960000Y-64980000D02*
X164795200Y-61659468D01*
X173290000Y-70290000D02*
X171412456Y-68050000D01*
X171412456Y-68050000D02*
X168960000Y-64980000D01*
X173485000Y-97372532D02*
X173970000Y-100550000D01*
D49*
X172235000Y-95207468D02*
X171910000Y-91870000D01*
X166962940Y-103558990D02*
X167990000Y-100340000D01*
D50*
X146729628Y-61931372D02*
X144497563Y-61931372D01*
X147579117Y-61081883D02*
X146729628Y-61931372D01*
X150870883Y-59314117D02*
X153027500Y-57157500D01*
X149346883Y-59314117D02*
X150870883Y-59314117D01*
X181483000Y-82423000D02*
X181483000Y-73279000D01*
X181483000Y-100711000D02*
X181483000Y-91313000D01*
X181483000Y-91313000D02*
X181483000Y-82423000D01*
D51*
X181610000Y-82550000D02*
X181483000Y-82423000D01*
X215900000Y-82550000D02*
X181610000Y-82550000D01*
X181610000Y-91440000D02*
X181483000Y-91313000D01*
X215900000Y-91440000D02*
X181610000Y-91440000D01*
D48*
X175895000Y-109855000D02*
X188595000Y-97155000D01*
X175895000Y-133350000D02*
X175895000Y-109855000D01*
X173736054Y-135508946D02*
X175895000Y-133350000D01*
X167269046Y-135508946D02*
X173736054Y-135508946D01*
X154623813Y-137845811D02*
X166800089Y-137845811D01*
X166800089Y-137845811D02*
X167816143Y-136829757D01*
X223202500Y-97155000D02*
X227139500Y-93218000D01*
X167816143Y-136829757D02*
X174283151Y-136829757D01*
X174283151Y-136829757D02*
X177215811Y-133897097D01*
X188798190Y-99237810D02*
X220916500Y-99237810D01*
X177215811Y-133897097D02*
X177215811Y-110820189D01*
X150114000Y-142355624D02*
X154623813Y-137845811D01*
X188595000Y-97155000D02*
X223202500Y-97155000D01*
X150114000Y-142621000D02*
X150114000Y-142355624D01*
X177215811Y-110820189D02*
X188798190Y-99237810D01*
X166252992Y-136525000D02*
X167269046Y-135508946D01*
X147574000Y-142621000D02*
X147574000Y-140335000D01*
X147574000Y-140335000D02*
X151384000Y-136525000D01*
X151384000Y-136525000D02*
X166252992Y-136525000D01*
D50*
X130937000Y-62484000D02*
X134350000Y-60270000D01*
X139750000Y-57970000D02*
X147389000Y-57970000D01*
X163560000Y-60840000D02*
X164338000Y-61341000D01*
X134350000Y-60270000D02*
X139750000Y-57970000D01*
X130619500Y-62734532D02*
X131130000Y-62300000D01*
X164338000Y-61341000D02*
X164795200Y-61659468D01*
X131130000Y-62300000D02*
X130937000Y-62484000D01*
X147389000Y-57970000D02*
X147447000Y-57912000D01*
X147447000Y-57912000D02*
X148463000Y-58928000D01*
X148463000Y-58928000D02*
X148971000Y-58928000D01*
X148971000Y-58928000D02*
X149098000Y-59055000D01*
X149098000Y-59055000D02*
X151765000Y-59055000D01*
X151765000Y-59055000D02*
X153450000Y-57370000D01*
X153450000Y-57370000D02*
X154910000Y-57370000D01*
X154910000Y-57370000D02*
X156980000Y-57930000D01*
X156980000Y-57930000D02*
X160040000Y-59040000D01*
X160040000Y-59040000D02*
X163560000Y-60840000D01*
D48*
X77888092Y-72390000D02*
X80010000Y-72390000D01*
X67970453Y-82307639D02*
X77888092Y-72390000D01*
X66787827Y-82307639D02*
X67970453Y-82307639D01*
X64160388Y-84935075D02*
X66787827Y-82307639D01*
X64160386Y-85542582D02*
X64160388Y-84935075D01*
X63093512Y-86609456D02*
X64160386Y-85542582D01*
X233730811Y-87082903D02*
X233730811Y-105359189D01*
X221323908Y-74676000D02*
X233730811Y-87082903D01*
X190754000Y-74676000D02*
X221323908Y-74676000D01*
X187325000Y-78105000D02*
X190754000Y-74676000D01*
X139532657Y-154101864D02*
X106172818Y-154101864D01*
X140796272Y-155364180D02*
X139752565Y-154320473D01*
X183725820Y-155364180D02*
X140796272Y-155364180D01*
X139752565Y-154320473D02*
X139532657Y-154101864D01*
X105910568Y-154082234D02*
X105077169Y-154016001D01*
X233730811Y-105359189D02*
X183725820Y-155364180D01*
X105077169Y-154016001D02*
X104244154Y-153945949D01*
X104244154Y-153945949D02*
X103411314Y-153872057D01*
X106172818Y-154101864D02*
X105910568Y-154082234D01*
X103411314Y-153872057D02*
X102578711Y-153794330D01*
X102578711Y-153794330D02*
X63093512Y-114309131D01*
X63093512Y-114309131D02*
X63093512Y-86609456D01*
X142494000Y-149428190D02*
X142494000Y-142621000D01*
X145841730Y-152775920D02*
X142494000Y-149428190D01*
X189230000Y-86995000D02*
X225044000Y-86995000D01*
X187960000Y-85725000D02*
X189230000Y-86995000D01*
X225044000Y-86995000D02*
X231089190Y-93040190D01*
X231089190Y-93040190D02*
X231089190Y-99745810D01*
X231089190Y-99745810D02*
X178059080Y-152775920D01*
X178059080Y-152775920D02*
X145841730Y-152775920D01*
X117475000Y-62547500D02*
X117284500Y-62357000D01*
X117475000Y-76200000D02*
X117475000Y-62547500D01*
X117284500Y-96912261D02*
X116205000Y-95832761D01*
X117284500Y-102594500D02*
X117284500Y-96912261D01*
X120523000Y-105833000D02*
X117284500Y-102594500D01*
X116205000Y-95832761D02*
X116205000Y-77470000D01*
X139954000Y-124067624D02*
X135595565Y-119709189D01*
X120523000Y-109728000D02*
X120523000Y-105833000D01*
X139954000Y-127381000D02*
X139954000Y-124067624D01*
X116205000Y-77470000D02*
X117475000Y-76200000D01*
X135595565Y-119709189D02*
X134923473Y-119709189D01*
X134923473Y-119709189D02*
X127990284Y-112776000D01*
X127990284Y-112776000D02*
X123571000Y-112776000D01*
X123571000Y-112776000D02*
X120523000Y-109728000D01*
X120015000Y-66170375D02*
X119760991Y-65916366D01*
X120015000Y-71120000D02*
X120015000Y-66170375D01*
X118795811Y-76747097D02*
X118795811Y-74486894D01*
X117525811Y-78017097D02*
X118795811Y-76747097D01*
X118795811Y-74486894D02*
X120015000Y-71120000D01*
X117525811Y-95285664D02*
X117525811Y-78017097D01*
X122555000Y-105997092D02*
X118605311Y-102047403D01*
X122555000Y-108966000D02*
X122555000Y-105997092D01*
X142494000Y-127381000D02*
X142494000Y-123837553D01*
X135470570Y-118388378D02*
X127953192Y-110871000D01*
X118605311Y-102047403D02*
X118605311Y-96365164D01*
X137044825Y-118388378D02*
X135470570Y-118388378D01*
X127953192Y-110871000D02*
X124460000Y-110871000D01*
X118605311Y-96365164D02*
X117525811Y-95285664D01*
X142494000Y-123837553D02*
X137044825Y-118388378D01*
X124460000Y-110871000D02*
X122555000Y-108966000D01*
D50*
X109220000Y-78105000D02*
X112522000Y-78105000D01*
X114935000Y-75692000D02*
X114935000Y-72000000D01*
X112522000Y-78105000D02*
X114935000Y-75692000D01*
D48*
X110145399Y-75272801D02*
X111760000Y-74418200D01*
X84455000Y-75272801D02*
X110145399Y-75272801D01*
X83185000Y-70485000D02*
X84455000Y-75272801D01*
X65416484Y-81092667D02*
X76024151Y-70485000D01*
X76024151Y-70485000D02*
X83185000Y-70485000D01*
X84155345Y-95377000D02*
X93152810Y-95377000D01*
X93152810Y-95377000D02*
X110490000Y-112714190D01*
X79024543Y-90246198D02*
X84155345Y-95377000D01*
X76104970Y-90246198D02*
X79024543Y-90246198D01*
X73660000Y-92691168D02*
X76104970Y-90246198D01*
X73660000Y-103055460D02*
X73660000Y-92691168D01*
X145034000Y-138049000D02*
X142240000Y-135255000D01*
X142240000Y-135255000D02*
X122156698Y-135255000D01*
X145034000Y-142621000D02*
X145034000Y-138049000D01*
X122156698Y-135255000D02*
X122029653Y-135127955D01*
X122029653Y-135127955D02*
X105732495Y-135127955D01*
X105732495Y-135127955D02*
X73660000Y-103055460D01*
X65735134Y-88569866D02*
X67310000Y-86995000D01*
X65735134Y-106338042D02*
X65735134Y-88569866D01*
X109511092Y-150114000D02*
X65735134Y-106338042D01*
X125349000Y-150114000D02*
X109511092Y-150114000D01*
X127254000Y-142621000D02*
X127254000Y-148209000D01*
X127254000Y-148209000D02*
X125349000Y-150114000D01*
X201803000Y-77597000D02*
X201295000Y-78105000D01*
X232410000Y-90043000D02*
X219964000Y-77597000D01*
X65481195Y-86089684D02*
X65352243Y-86218635D01*
X65481197Y-85482175D02*
X65481195Y-86089684D01*
X219964000Y-77597000D02*
X201803000Y-77597000D01*
X67067175Y-83896199D02*
X65481197Y-85482175D01*
X102615998Y-151892000D02*
X139192000Y-151892000D01*
X68249801Y-83896199D02*
X67067175Y-83896199D01*
X64566756Y-107037572D02*
X64566756Y-113842758D01*
X95250000Y-78105000D02*
X74041000Y-78105000D01*
X74041000Y-78105000D02*
X68249801Y-83896199D01*
X232410000Y-103505000D02*
X232410000Y-90043000D01*
X65352243Y-86218635D02*
X64414323Y-87156555D01*
X64414323Y-87156555D02*
X64414323Y-106885139D01*
X64414323Y-106885139D02*
X64566756Y-107037572D01*
X64566756Y-113842758D02*
X102615998Y-151892000D01*
X139192000Y-151892000D02*
X141384020Y-154084020D01*
X141384020Y-154084020D02*
X181830980Y-154084020D01*
X181830980Y-154084020D02*
X232410000Y-103505000D01*
X104775000Y-142621000D02*
X103886000Y-142621000D01*
D52*
X122174000Y-142621000D02*
X104775000Y-142621000D01*
D48*
X91440000Y-67564000D02*
X91440000Y-67310000D01*
D50*
X91440000Y-67564000D02*
X91500366Y-67249634D01*
M02*
