M48
; DRILL file {KiCad (5.1.0-875-g6f8a0a4ee)} date 6/8/2019 9:53:32 PM
; FORMAT={-:-/ absolute / inch / decimal}
; #@! TF.CreationDate,2019-06-08T21:53:32-07:00
; #@! TF.GenerationSoftware,Kicad,Pcbnew,(5.1.0-875-g6f8a0a4ee)
FMAT,2
INCH
T1C0.0236
T2C0.0276
T3C0.0300
T4C0.0315
T5C0.0319
T6C0.0320
T7C0.0394
T8C0.0512
T9C0.0906
T10C0.1420
T11C0.2250
T12C0.0320
T13C0.1200
T14C0.1417
%
G90
G05
T2
X4.25Y-2.225
X4.25Y-2.525
X4.6304Y-4.2567
X4.9304Y-4.2567
X4.4Y-2.6299
X4.4Y-2.9299
X3.9609Y-2.6181
X4.2609Y-2.6181
T3
X5.865Y-4.65
X6.1Y-4.65
T4
X3.45Y-2.755
X3.75Y-2.755
X4.525Y-2.6378
X4.525Y-2.8346
X6.85Y-2.235
X6.85Y-2.4319
X3.7315Y-3.2724
X7.16Y-2.35
X3.9629Y-3.9379
X4.0315Y-3.2724
X4.125Y-2.295
X4.125Y-2.4919
X7.16Y-2.4484
X4.175Y-4.15
X3.15Y-2.85
X3.45Y-2.85
X7.0Y-2.225
X7.0Y-2.4219
T5
X4.6175Y-2.3763
X4.6175Y-2.455
X4.7175Y-2.3763
X4.7175Y-2.455
T6
X2.5755Y-3.1926
X2.65Y-3.425
X2.95Y-3.375
X3.0255Y-3.6255
X3.1083Y-3.429
X3.135Y-3.745
X3.135Y-3.905
X3.28Y-3.89
X3.415Y-4.095
X3.5593Y-3.6621
X3.6Y-2.66
X3.61Y-4.19
X3.69Y-2.875
X3.9049Y-4.3201
X4.15Y-4.392
X4.35Y-4.4376
X4.645Y-4.415
X4.7Y-3.15
X4.715Y-2.5951
X4.7354Y-3.6827
X4.8453Y-2.8169
X4.9122Y-3.5315
X4.914Y-3.1567
X4.9354Y-4.0878
X5.0287Y-3.8724
X5.0835Y-2.828
X5.1425Y-2.4699
X5.2776Y-4.141
X5.2776Y-4.3894
X5.2799Y-4.4996
X5.3467Y-2.5741
X5.3785Y-4.5306
X5.5354Y-2.2772
X5.6114Y-4.6068
X5.6268Y-4.3059
X5.7Y-2.447
X5.7031Y-4.5327
X5.9902Y-4.3335
X6.0247Y-2.2503
X6.07Y-2.47
X6.1488Y-4.5024
X6.2556Y-4.6156
X6.3346Y-4.2001
X6.4Y-4.6
X6.4102Y-2.6291
X6.488Y-2.4275
X6.5Y-4.5
X6.5526Y-4.2932
X6.6138Y-3.9504
X6.6549Y-2.9
X6.7485Y-2.6791
X6.7681Y-3.6169
X6.7788Y-3.2457
X6.8492Y-3.9587
X6.9524Y-3.0772
X6.99Y-3.57
X7.1625Y-4.476
X7.25Y-2.275
X7.28Y-4.424
X7.4Y-3.375
X7.45Y-4.35
X7.62Y-4.3
X7.65Y-2.225
X7.865Y-2.64
X7.8909Y-2.4315
X8.0Y-4.175
X8.05Y-2.7225
X8.246Y-4.097
X8.45Y-4.0
X8.4953Y-2.8071
X8.5591Y-2.6421
X8.6975Y-3.907
X8.9425Y-3.67
T7
X7.22Y-2.61
X7.645Y-2.61
X7.645Y-2.8069
X7.7803Y-2.3185
X7.7803Y-2.4185
X7.22Y-2.8069
X4.075Y-2.775
X4.175Y-2.775
X4.275Y-2.775
T8
X7.9771Y-2.4957
X8.0932Y-2.4877
X8.2772Y-2.2698
X8.2781Y-2.7393
X8.3949Y-2.476
T9
X4.4313Y-2.27
X4.9037Y-2.27
T10
X8.5Y-3.25
T11
X8.5Y-3.6
T12
X3.9445Y-2.26
T13
X8.745Y-2.765
X8.7508Y-5.8819
X8.7524Y-2.3917
X3.12Y-2.615
X2.9205Y-2.3917
X2.9224Y-5.8823
T14
X3.71Y-2.34
T1
G00X7.8734Y-3.075
M15
G01X7.9766Y-3.075
M16
G05
G00X4.2484Y-3.075
M15
G01X4.3516Y-3.075
M16
G05
G00X7.4266Y-3.075
M15
G01X7.3234Y-3.075
M16
G05
G00X3.8016Y-3.075
M15
G01X3.6984Y-3.075
M16
G05
T6
G00X3.4744Y-2.42
M15
G01X3.4623Y-2.3627
M16
G05
G00X3.6153Y-2.5776
M15
G01X3.5895Y-2.5667
M16
G05
G00X3.7761Y-2.5836
M15
G01X3.7487Y-2.5894
M16
G05
G00X3.9123Y-2.4981
M15
G01X3.8932Y-2.5186
M16
G05
G00X3.9577Y-2.3173
M15
G01X3.9456Y-2.26
M16
G05
T0
M30
